<svg xmlns="http://www.w3.org/2000/svg" width="24" height="16" viewBox="0 0 24 16">
    <g fill="#090909">
        <path d="M23.998 8.222c0-.379-.504-.686-1.126-.686H1.625c-.622 0-1.127.307-1.127.686 0 .378.505.685 1.127.685h21.247c.622 0 1.126-.307 1.126-.685"/>
        <path d="M8.197.843a.664.664 0 0 0-.979 0L.703 7.759a.767.767 0 0 0 0 1.039c.27.287.708.287.979 0l6.515-6.916a.767.767 0 0 0 0-1.04"/>
        <path d="M8.197 15.76a.767.767 0 0 0 0-1.04L1.682 7.804a.664.664 0 0 0-.98 0 .767.767 0 0 0 0 1.039l6.516 6.916c.27.287.709.287.98 0"/>
    </g>
</svg>
