<svg xmlns="http://www.w3.org/2000/svg" width="514" height="476" viewBox="0 0 514 476">
    <defs>
        <linearGradient id="a" x1="29.166%" x2="74.882%" y1="12.979%" y2="87.201%">
            <stop offset="0%" stop-color="#F7F7F7"/>
            <stop offset="100%" stop-color="#EBEBEB"/>
        </linearGradient>
    </defs>
    <path fill="url(#a)" fill-rule="evenodd" d="M1339.032 420.88c-88.177 80.027-241.378 71.241-331.24-16.43-25.082-24.4-46.842-56.007-60.813-88.74C932.98 282.906 926 248.182 926 211.43c0-37.587 6.98-72.473 20.98-104.86 13.97-32.353 33.33-60.7 58.105-85.137 24.747-24.326 53.497-43.509 86.248-57.511C1124.104-50.006 1158.847-57 1195.575-57c37.57 0 72.502 6.994 104.876 20.922 32.325 14.002 60.693 33.185 85.07 57.51 24.323 24.438 43.518 52.785 57.498 85.137 13.974 32.388 20.981 67.274 20.981 104.86V481s-45.193-14.69-70.926-42.696c-38.639-42.023-35.288-121.922-35.288-121.922V211.429c0-22.462-4.24-43.473-12.614-63.109-8.421-19.58-20.093-36.825-34.89-51.66-14.794-14.8-31.99-26.41-51.638-34.796-19.597-8.423-40.605-12.627-63.069-12.627-22.392 0-43.644 4.204-63.612 12.627-20.074 8.385-37.46 19.996-52.273 34.797-14.824 14.834-26.45 32.08-34.872 51.66-8.377 19.635-12.586 40.646-12.586 63.108 0 22.426 4.21 43.637 12.586 63.634 8.422 20.034 20.048 37.477 34.872 52.295 14.814 14.798 32.199 26.428 52.273 34.797 19.968 8.404 77.89 25.938 149.661-19.239l57.408 77.964z" transform="translate(-926)"/>
</svg>
