<svg xmlns="http://www.w3.org/2000/svg" width="84" height="84" viewBox="0 0 84 84">
    <g fill="none" fill-rule="evenodd" transform="translate(2 2)">
        <circle cx="40" cy="40" r="40" stroke="#090909" stroke-width="3"/>
        <path fill="#090909" fill-rule="nonzero" d="M57.482 26.802c-.555-.554-1.213-.832-1.973-.832h-2.805v-2.102c0-.964-.344-1.789-1.03-2.475-.688-.686-1.513-1.03-2.478-1.03h-1.403c-.964 0-1.79.344-2.477 1.03-.687.686-1.03 1.511-1.03 2.475v2.102h-8.417v-2.102c0-.964-.344-1.789-1.03-2.475-.687-.686-1.513-1.03-2.478-1.03h-1.403c-.964 0-1.79.344-2.477 1.03-.686.686-1.03 1.511-1.03 2.475v2.102h-2.806c-.76 0-1.417.278-1.973.832-.555.555-.833 1.212-.833 1.972v28.031c0 .759.278 1.416.833 1.971.556.555 1.213.832 1.973.832h30.863c.76 0 1.419-.277 1.973-.832.556-.555.833-1.212.833-1.97V28.772c0-.759-.277-1.416-.832-1.97zM30.958 56.805h-6.313v-6.307h6.313v6.307zm0-7.709h-6.313V42.09h6.313v7.007zm0-8.41h-6.313V34.38h6.313v6.307zm-.493-10.018a.673.673 0 0 1-.208-.493v-6.307c0-.19.07-.354.208-.493a.674.674 0 0 1 .493-.208h1.403c.19 0 .355.07.493.208a.673.673 0 0 1 .209.493v6.307c0 .19-.07.354-.209.493a.674.674 0 0 1-.493.208h-1.403a.674.674 0 0 1-.493-.208zm8.91 26.137h-7.014v-6.307h7.015v6.307zm0-7.709h-7.014V42.09h7.015v7.007zm0-8.41h-7.014V34.38h7.015v6.307zm8.418 16.119H40.78v-6.307h7.014v6.307zm0-7.709H40.78V42.09h7.014v7.007zm0-8.41H40.78V34.38h7.014v6.307zM47.3 30.669a.673.673 0 0 1-.208-.493v-6.307c0-.19.07-.354.208-.493a.674.674 0 0 1 .493-.208h1.403c.19 0 .354.07.493.208a.673.673 0 0 1 .208.493v6.307c0 .19-.07.354-.208.493a.674.674 0 0 1-.493.208h-1.403a.673.673 0 0 1-.493-.208zm8.208 26.137h-6.313v-6.307h6.313v6.307zm0-7.709h-6.313V42.09h6.313v7.007zm0-8.41h-6.313V34.38h6.313v6.307z"/>
    </g>
</svg>
