<svg id="de0664a4-3e2e-41dc-b4e1-292f2a35fea6" data-name="Calque 1" xmlns="http://www.w3.org/2000/svg" xmlns:xlink="http://www.w3.org/1999/xlink" viewBox="0 0 300 110"><defs><mask id="3a14c820-ae63-44c5-950b-656d6136e356" x="229.36" y="23.4" width="27.23" height="38.11" maskUnits="userSpaceOnUse"><g transform="translate(0 0)"><g id="86019576-324f-4de4-bf37-87e78e05f600" data-name="b"><path id="0d73e605-b59f-48f6-b024-a7f6b90feca6" data-name="a" d="M229.36,23.41h27.23V61.52H229.36V23.41Z" style="fill:#fff"/></g></g></mask></defs><title>decli-ffsurf</title><path d="M0.5,0.5h299v109H0.5V0.5Z" transform="translate(0 0)" style="fill:#fff;stroke:#f0f0f0"/><path d="M182,35.17a14,14,0,0,0-4.36,2.91,13.51,13.51,0,0,0-2.94,4.31,13.71,13.71,0,0,0,0,10.58,14.19,14.19,0,0,0,3.08,4.49c4.55,4.44,12.3,4.88,16.76.83l-2.9-3.94a7.82,7.82,0,0,1-10.22-.79,8.28,8.28,0,0,1-2.4-5.87,8,8,0,0,1,.64-3.19,8.3,8.3,0,0,1,1.76-2.61,8.32,8.32,0,0,1,5.86-2.4,8,8,0,0,1,3.19.64A8.22,8.22,0,0,1,193,41.88a8.33,8.33,0,0,1,1.76,2.61,8.05,8.05,0,0,1,.64,3.19V53s-0.17,4,1.79,6.17a9.73,9.73,0,0,0,3.59,2.16V47.69a13.24,13.24,0,0,0-1.06-5.31,13.68,13.68,0,0,0-7.21-7.22,13.76,13.76,0,0,0-10.58,0" transform="translate(0 0)" style="fill:#e20613"/><path d="M120.86,38.3a13.25,13.25,0,0,1,4.52-3,13.59,13.59,0,0,1,10.25,0,13.31,13.31,0,0,1,4.52,3,2.7,2.7,0,0,1,0,3.79c-1,1-2.32,1.49-2.85,1s-1.74-1.58-2.69-2.35l-1-.4a8.19,8.19,0,0,0-6.19,0,8.09,8.09,0,0,0-2.73,1.82,7.47,7.47,0,0,0-1.82,2.67,8.2,8.2,0,0,0,0,6.19,8.11,8.11,0,0,0,1.82,2.73,8,8,0,0,0,5.82,2.43,8.39,8.39,0,0,0,3.15-.61,7.43,7.43,0,0,0,2.67-1.82,2.73,2.73,0,0,1,3.82,0c1,1,1.33,2.23.94,2.85a10.22,10.22,0,0,1-3.78,3.28l-1.68.66a13.59,13.59,0,0,1-10.25,0,13.2,13.2,0,0,1-4.52-3,13,13,0,0,1-3-4.49,14,14,0,0,1,0-10.25,13,13,0,0,1,3-4.49M149.46,48a8.17,8.17,0,0,0,5.07,7.63,8.41,8.41,0,0,0,9.13-1.76A8.28,8.28,0,0,0,166.07,48a8,8,0,0,0-.64-3.19A8.19,8.19,0,0,0,161,40.45a8.52,8.52,0,0,0-6.47,0,8.21,8.21,0,0,0-4.43,4.38,8,8,0,0,0-.64,3.19m-5.31,0a13.19,13.19,0,0,1,1.07-5.31,13.6,13.6,0,0,1,7.26-7.21,13.75,13.75,0,0,1,10.61,0,14.2,14.2,0,0,1,4.35,2.91,13.56,13.56,0,0,1,2.95,4.31,13.69,13.69,0,0,1,0,10.58,13.7,13.7,0,0,1-2.95,4.36,13.92,13.92,0,0,1-4.35,2.94,13.59,13.59,0,0,1-15-2.94,13.9,13.9,0,0,1-2.92-4.36A13.23,13.23,0,0,1,144.15,48M206,38.3a13.28,13.28,0,0,1,4.52-3,13.61,13.61,0,0,1,10.25,0,13.37,13.37,0,0,1,4.52,3,2.71,2.71,0,0,1,0,3.79c-1,1-2.32,1.49-2.85,1s-1.74-1.58-2.69-2.35l-1-.4a8.21,8.21,0,0,0-8.92,1.82A7.51,7.51,0,0,0,208,44.79,8.19,8.19,0,0,0,208,51a8.16,8.16,0,0,0,1.82,2.73,8,8,0,0,0,5.83,2.43,8.39,8.39,0,0,0,3.15-.61,7.45,7.45,0,0,0,2.67-1.82,2.73,2.73,0,0,1,3.82,0c1,1,1.31,2.22.94,2.85-0.55.92-1.12,1.86-3.78,3.28l-1.68.66a13.6,13.6,0,0,1-10.25,0,13.21,13.21,0,0,1-4.52-3A13,13,0,0,1,203,53a14,14,0,0,1,0-10.25,13,13,0,0,1,3-4.49" transform="translate(0 0)" style="fill:#0063a2"/><g style="mask:url(#3a14c820-ae63-44c5-950b-656d6136e356)"><path d="M242.95,34.3a13.22,13.22,0,0,1,5.3,1.06,14.19,14.19,0,0,1,4.34,2.91,13.53,13.53,0,0,1,2.94,4.31,13.2,13.2,0,0,1,1.06,5.3v8.93c0,2.59-1.21,4.71-2.69,4.71s-2.69-2.12-2.69-4.71V52.57c0-2.59-.09-5.69-0.21-6.9l-0.43-1a8.23,8.23,0,0,0-7.63-5,8,8,0,0,0-3.19.63,8.23,8.23,0,0,0-4.38,4.37,8,8,0,0,0-.64,3.18v8.94c0,2.59-1.21,4.71-2.69,4.71s-2.69-2.12-2.69-4.71V28.11c0-2.59,1.21-4.71,2.69-4.71s2.69,2.12,2.7,4.71v4.25c0,2.59,1.09,4,2.4,3.14l1.4-.48a13.3,13.3,0,0,1,4.4-.73" transform="translate(0 0)" style="fill:#0063a2"/></g><path d="M72.15,34.34a13.25,13.25,0,0,1,5.31,1.06,14.13,14.13,0,0,1,4.33,2.91,13.5,13.5,0,0,1,2.94,4.31,13.23,13.23,0,0,1,1.06,5.3v8.94c0,2.59-1.21,4.71-2.69,4.71s-2.69-2.12-2.69-4.71V52.61c0-2.59-.1-5.69-0.22-6.9l-0.43-1a8.2,8.2,0,0,0-7.63-5,8,8,0,0,0-3.19.64,8.25,8.25,0,0,0-4.37,4.37,8,8,0,0,0-.64,3.19v9c0,2.58-1.21,4.71-2.69,4.71s-2.69-2.12-2.69-4.71V52.62c0-2.59-.1-5.7-0.21-6.9l-0.43-1a8.25,8.25,0,0,0-7.63-5,8,8,0,0,0-3.19.64,8.24,8.24,0,0,0-4.38,4.37,8,8,0,0,0-.64,3.19v8.95c0,2.59-1.21,4.71-2.69,4.71s-2.69-2.12-2.69-4.71V52.63c0-2.59.16-6.36,0.35-8.38l0.71-1.64A13.62,13.62,0,0,1,45,35.4a13.4,13.4,0,0,1,5.28-1.06,13.14,13.14,0,0,1,6.22,1.49,13.72,13.72,0,0,1,4.71,4,13.66,13.66,0,0,1,4.73-4,13.18,13.18,0,0,1,6.18-1.48m40.22,0.06c1.48,0,2.69,2.12,2.69,4.71V54.18c0,2.59-.16,6.35-0.35,8.37L114,64.18a14.15,14.15,0,0,1-2.9,4.33,13.49,13.49,0,0,1-4.3,2.94,13.34,13.34,0,0,1-5.31,1.06,2.72,2.72,0,0,1-2.73-2.69c0-1.48.61-2.69,1.36-2.69s2.35-.09,3.56-0.21l1-.42a8.28,8.28,0,0,0,2.61-1.75,8.26,8.26,0,0,0,2.4-5.84s-1.08.65-2.41,1.51l-1.4.49a13.79,13.79,0,0,1-9.71-.34,13.8,13.8,0,0,1-7.34-7.3A13.28,13.28,0,0,1,87.76,48V39.11c0-2.59,1.21-4.71,2.69-4.71s2.69,2.12,2.69,4.71v4.18c0,2.59.1,5.7,0.21,6.91l0.43,1a8.26,8.26,0,0,0,7.66,5,8.09,8.09,0,0,0,3.21-.64,8.22,8.22,0,0,0,5-7.62V39.11c0-2.59,1.21-4.71,2.69-4.71" transform="translate(0 0)" style="fill:#0063a2"/><path d="M193.1,92.37c-3.12,0-5.52-.68-7.55-2.74L188.16,87a6.78,6.78,0,0,0,5,1.73c2.38,0,3.65-.9,3.65-2.55a2.34,2.34,0,0,0-.62-1.75,3.1,3.1,0,0,0-1.83-.72l-2.5-.34a7.2,7.2,0,0,1-4-1.71,5.51,5.51,0,0,1-1.49-4.07c0-3.69,2.73-6.28,7.21-6.28a8.89,8.89,0,0,1,6.68,2.4l-2.54,2.53a5.79,5.79,0,0,0-4.25-1.42c-2.14,0-3.2,1.19-3.2,2.61a2,2,0,0,0,.61,1.48,3.55,3.55,0,0,0,1.92.81l2.44,0.35a6.87,6.87,0,0,1,4,1.6,5.77,5.77,0,0,1,1.59,4.39c0,4-3.33,6.28-7.67,6.28m18.77,0c-4.25,0-7.62-2.89-7.62-7.27V71.5h4V84.95c0,2.38,1.39,3.8,3.57,3.8s3.6-1.43,3.6-3.8V71.5h4v13.6c0,4.38-3.36,7.27-7.6,7.27m19.95-17.26H228v5.46h3.8a2.74,2.74,0,1,0,0-5.46M235,92.2l-4-8.25H228V92.2h-4V71.5h8.11c4.21,0,6.71,2.87,6.71,6.33A5.57,5.57,0,0,1,235,83.27l4.62,8.93H235m12-17.09v5.08h8.17V83.8H247v8.4h-4V71.5h13.64v3.61H247Z" transform="translate(0 0)" style="fill:#e20613"/><path d="M173.26,75v5.08h8.18v3.61h-8.18v8.4h-4V71.43h13.65V75h-9.6Zm-17.84,0v5.08h8.17v3.61h-8.17v8.4h-4V71.43H165V75h-9.6Zm-25.68,9.78a3.22,3.22,0,0,0-.43-1,2.26,2.26,0,0,0-.73-0.71,2.27,2.27,0,0,0-2.12,0,2.22,2.22,0,0,0-.74.71,3.23,3.23,0,0,0-.43,1,5.41,5.41,0,0,0-.14,1.23,5.32,5.32,0,0,0,.14,1.21,3.22,3.22,0,0,0,.43,1,2.21,2.21,0,0,0,.74.71,2.26,2.26,0,0,0,2.12,0,2.25,2.25,0,0,0,.73-0.71,3.23,3.23,0,0,0,.43-1,5.37,5.37,0,0,0,.14-1.21,5.46,5.46,0,0,0-.14-1.23h0Zm-4.49-7.68v5.08h0a3,3,0,0,1,1.38-1.14,4.67,4.67,0,0,1,1.81-.36A3.85,3.85,0,0,1,131.32,82a4.89,4.89,0,0,1,1,1.65,7.92,7.92,0,0,1,0,4.78,4.91,4.91,0,0,1-1,1.65,3.85,3.85,0,0,1-2.84,1.27,5.33,5.33,0,0,1-2-.35,2.53,2.53,0,0,1-1.33-1.19h0v1.29h-2.64V77.14h2.77Zm12.89,17a4,4,0,0,1-2.23.53q-0.43,0-.85,0l-0.85-.07V92.24l0.8,0.08a5.91,5.91,0,0,0,.82,0,1.08,1.08,0,0,0,.81-0.43,1.38,1.38,0,0,0,.26-0.82,1.68,1.68,0,0,0-.12-0.63L133.26,81h2.95l2.29,6.91h0L140.74,81h2.87l-4.22,11.35a3.42,3.42,0,0,1-1.25,1.76" transform="translate(0 0)" style="fill:#0063a2"/></svg>