<svg id="755fb4ca-e92e-4a89-a7d5-7ecab06048f1" data-name="Calque 1" xmlns="http://www.w3.org/2000/svg" xmlns:xlink="http://www.w3.org/1999/xlink" viewBox="0 0 300 110"><defs><mask id="4ff59f6c-3287-4ffa-80c8-22a2251ac737" x="155.32" y="15.22" width="55.91" height="32.53" maskUnits="userSpaceOnUse"><g transform="translate(0 0)"><g id="fb161a24-10bf-4604-9041-491550d0b67f" data-name="b"><path id="b8381f5f-698d-4e7f-a8d4-e283409043f4" data-name="a" d="M155.32,15.22h55.91V47.75H155.32V15.22Z" style="fill:#fff"/></g></g></mask></defs><title>decli-classic</title><path d="M0.5,0.5h299v109H0.5V0.5Z" transform="translate(0 0)" style="fill:#fff;stroke:#f0f0f0"/><path d="M207.12,17.33l2.87,21-50.82,6.29-2.61-21.13Z" transform="translate(0 0)" style="fill:#fff"/><path d="M189.7,73.33c-3.93,3.57-10.76,3.18-14.77-.73a12.51,12.51,0,0,1-2.71-4,12.08,12.08,0,0,1,0-9.33,11.91,11.91,0,0,1,2.59-3.8A12.37,12.37,0,0,1,178.65,53,12.12,12.12,0,0,1,188,53a12,12,0,0,1,6.36,6.36,11.67,11.67,0,0,1,.94,4.68V76a8.58,8.58,0,0,1-3.16-1.9c-1.72-1.87-1.57-5.44-1.57-5.44V64a7.1,7.1,0,0,0-.56-2.81,7.35,7.35,0,0,0-1.56-2.3,7.25,7.25,0,0,0-2.3-1.55,7,7,0,0,0-2.81-.56,7.25,7.25,0,0,0-2.84.56,7.17,7.17,0,0,0-2.33,1.55,7.32,7.32,0,0,0-1.56,2.3A7.09,7.09,0,0,0,176,64a7.29,7.29,0,0,0,2.12,5.17,6.89,6.89,0,0,0,9,.69l2.56,3.48h0Z" transform="translate(0 0)" style="fill:#ef8006"/><path d="M124.81,55.71a11.71,11.71,0,0,1,4-2.64,12,12,0,0,1,9,0,11.74,11.74,0,0,1,4,2.64,2.38,2.38,0,0,1,0,3.34c-0.91.93-2,1.31-2.51,0.85s-1.54-1.39-2.37-2.07L136,57.48a7.22,7.22,0,0,0-7.86,1.6,6.59,6.59,0,0,0-1.6,2.35,7.23,7.23,0,0,0,0,5.45,7.15,7.15,0,0,0,1.6,2.4,7,7,0,0,0,5.13,2.14,7.4,7.4,0,0,0,2.78-.54,6.55,6.55,0,0,0,2.35-1.6,2.4,2.4,0,0,1,3.37,0c0.91,0.93,1.17,2,.83,2.51a9,9,0,0,1-3.33,2.89l-1.48.58a12,12,0,0,1-9,0,11.63,11.63,0,0,1-4-2.64,11.47,11.47,0,0,1-2.62-4,12.36,12.36,0,0,1,0-9,11.5,11.5,0,0,1,2.62-4M150,64.28A7.25,7.25,0,0,0,154.49,71a7.41,7.41,0,0,0,8-1.55,7.29,7.29,0,0,0,2.13-5.17,7,7,0,0,0-.57-2.81,7.22,7.22,0,0,0-3.9-3.86,7.51,7.51,0,0,0-5.71,0,7.23,7.23,0,0,0-3.9,3.86,7,7,0,0,0-.57,2.81m-4.68,0a11.61,11.61,0,0,1,.94-4.68,12,12,0,0,1,6.4-6.36,12.12,12.12,0,0,1,9.35,0,12.51,12.51,0,0,1,3.83,2.56,11.94,11.94,0,0,1,2.6,3.79,12.07,12.07,0,0,1,0,9.32,12.07,12.07,0,0,1-2.6,3.85A12.26,12.26,0,0,1,162,75.36a12,12,0,0,1-13.18-2.59,12.25,12.25,0,0,1-2.57-3.85,11.66,11.66,0,0,1-.94-4.65m54.5-8.56a11.73,11.73,0,0,1,4-2.64,12,12,0,0,1,9,0,11.78,11.78,0,0,1,4,2.64,2.38,2.38,0,0,1,0,3.34c-0.91.93-2,1.31-2.51,0.85s-1.54-1.39-2.37-2.07l-0.89-.36a7.23,7.23,0,0,0-7.86,1.6,6.62,6.62,0,0,0-1.6,2.35,7.21,7.21,0,0,0,0,5.45,7.19,7.19,0,0,0,1.6,2.4,7,7,0,0,0,5.13,2.14,7.41,7.41,0,0,0,2.78-.54,6.56,6.56,0,0,0,2.35-1.6,2.41,2.41,0,0,1,3.37,0c0.91,0.93,1.15,2,.83,2.51-0.48.81-1,1.64-3.33,2.89l-1.48.58a12,12,0,0,1-9,0,11.65,11.65,0,0,1-4-2.64,11.45,11.45,0,0,1-2.62-4,12.33,12.33,0,0,1,0-9,11.48,11.48,0,0,1,2.62-4m32.56-3.53a11.66,11.66,0,0,1,4.68.94,12.5,12.5,0,0,1,3.82,2.56,11.92,11.92,0,0,1,2.59,3.8,11.62,11.62,0,0,1,.94,4.67V72c0,2.28-1.07,4.15-2.37,4.15s-2.37-1.87-2.37-4.15V68.29c0-2.28-.08-5-0.19-6.08l-0.38-.87a7.26,7.26,0,0,0-6.72-4.41,7.08,7.08,0,0,0-2.81.56,7.25,7.25,0,0,0-3.86,3.85,7,7,0,0,0-.56,2.81V72c0,2.28-1.07,4.15-2.37,4.15s-2.37-1.87-2.37-4.15V46.74c0-2.28,1.07-4.15,2.37-4.15s2.37,1.87,2.38,4.15v3.75c0,2.28,1,3.53,2.12,2.76l1.23-.42a11.73,11.73,0,0,1,3.87-.64m-150.51,0a11.66,11.66,0,0,1,4.68.93,12.45,12.45,0,0,1,3.82,2.56A11.89,11.89,0,0,1,93,59.52a11.65,11.65,0,0,1,.93,4.67v7.88c0,2.28-1.07,4.15-2.37,4.15s-2.37-1.87-2.37-4.15V68.33c0-2.28-.09-5-0.19-6.08l-0.37-.87A7.23,7.23,0,0,0,81.89,57a7.07,7.07,0,0,0-2.81.56,7.27,7.27,0,0,0-3.86,3.85,7.06,7.06,0,0,0-.56,2.81v7.89c0,2.28-1.06,4.15-2.37,4.15s-2.37-1.87-2.37-4.15V68.33c0-2.28-.09-5-0.19-6.08l-0.37-.88A7.27,7.27,0,0,0,62.63,57a7.07,7.07,0,0,0-2.81.56A7.26,7.26,0,0,0,56,61.38a7.06,7.06,0,0,0-.56,2.81v7.89c0,2.28-1.06,4.15-2.37,4.15s-2.37-1.86-2.37-4.15V68.34c0-2.28.14-5.6,0.31-7.38l0.62-1.44A12,12,0,0,1,58,53.16a11.8,11.8,0,0,1,4.65-.94,11.6,11.6,0,0,1,5.48,1.31,12.08,12.08,0,0,1,4.15,3.56,12,12,0,0,1,4.17-3.56,11.62,11.62,0,0,1,5.45-1.31m35.44,0.05c1.3,0,2.37,1.87,2.37,4.15V69.7c0,2.28-.14,5.6-0.31,7.38l-0.62,1.44a12.48,12.48,0,0,1-2.55,3.82,11.89,11.89,0,0,1-3.79,2.59,11.75,11.75,0,0,1-4.68.94,2.4,2.4,0,0,1-2.4-2.37c0-1.3.54-2.37,1.2-2.37s2.07-.08,3.13-0.18l0.87-.37a7.18,7.18,0,0,0,3.85-3.87,7.21,7.21,0,0,0,.56-2.83s-1,.57-2.12,1.33l-1.23.43a12.15,12.15,0,0,1-8.56-.3,12.14,12.14,0,0,1-6.47-6.44,11.7,11.7,0,0,1-.94-4.65V56.43c0-2.28,1.07-4.15,2.37-4.15s2.37,1.87,2.37,4.15v3.68c0,2.28.09,5,.19,6.09l0.38,0.89a7.28,7.28,0,0,0,6.75,4.44,7.12,7.12,0,0,0,2.82-.56A7.24,7.24,0,0,0,115,64.26V56.43c0-2.28,1.06-4.15,2.37-4.15" transform="translate(0 0)" style="fill:#464749"/><path d="M190,29.16a2.28,2.28,0,1,0,2.27,2.28A2.28,2.28,0,0,0,190,29.16m-13.89,0a2.25,2.25,0,1,0,2.25,2.25,2.25,2.25,0,0,0-2.25-2.25" transform="translate(0 0)" style="fill:#ef8006"/><g style="mask:url(#4ff59f6c-3287-4ffa-80c8-22a2251ac737)"><path d="M207.29,34.43a0.76,0.76,0,0,1-1.51,0v-9a0.76,0.76,0,1,1,1.51,0v9Zm-2.77,0a0.76,0.76,0,1,1-1.51,0v-9a0.76,0.76,0,1,1,1.51,0v9Zm-2.36.74a2.7,2.7,0,0,1-1-.6,2.77,2.77,0,0,1-.5-1.71V31.37a2.21,2.21,0,0,0-.18-0.89,2.31,2.31,0,0,0-1.22-1.21,2.21,2.21,0,0,0-.88-0.18,2.3,2.3,0,0,0-2.12,1.39,2.25,2.25,0,0,0-.18.89,2.28,2.28,0,0,0,.18.89,2.23,2.23,0,0,0,1.23,1.23,2.26,2.26,0,0,0,2.11-.27L200,33.75l0.42,0.57a3.52,3.52,0,0,1-4.66-.23,4,4,0,0,1-.85-1.25,3.87,3.87,0,0,1,0-2.94,3.82,3.82,0,0,1,.82-1.19,3.92,3.92,0,0,1,1.21-.81,3.83,3.83,0,0,1,2.94,0,3.81,3.81,0,0,1,2,2,3.66,3.66,0,0,1,.29,1.47v3.79h0ZM190,35.25a3.9,3.9,0,0,1-1.15-.18l-0.09,0-0.25-.09-0.42-.21-0.17-.1h0a3.42,3.42,0,0,1-1-1l-0.13-.21,0,0,0,0a3.76,3.76,0,0,1-.49-1.87V25.35a0.77,0.77,0,0,1,1.53,0v3l0.37-.22a3.74,3.74,0,0,1,1.9-.52,3.81,3.81,0,0,1,0,7.61h0Zm-5.73-1.58h0.5a0.76,0.76,0,0,1,0,1.52h-0.5a2.76,2.76,0,0,1-2.76-2.76V29.17h-1a0.76,0.76,0,0,1,0-1.51h1V26.41a0.76,0.76,0,0,1,1.51,0v1.25h1.75a0.76,0.76,0,1,1,0,1.51h-1.75v3.25A1.25,1.25,0,0,0,184.3,33.67Zm-8.16,1.51a3.76,3.76,0,1,1,3.76-3.76A3.77,3.77,0,0,1,176.14,35.18Zm-8,0a3.76,3.76,0,1,1,3.76-3.76A3.77,3.77,0,0,1,168.11,35.18Zm-4.4-6H162v5.26a0.76,0.76,0,0,1-1.51,0V29.17h-1a0.76,0.76,0,1,1,0-1.51h1V27.41a2.76,2.76,0,0,1,2.76-2.76h0.5a0.76,0.76,0,1,1,0,1.52h-0.5A1.25,1.25,0,0,0,162,27.41v0.25h1.75A0.76,0.76,0,1,1,163.7,29.17Zm47.51,8.11-2.47-20.58a1.67,1.67,0,0,0-1.85-1.46l-19.18,2.3-30.94,3.82a1.67,1.67,0,0,0-1.46,1.86l2.47,20.58a1.67,1.67,0,0,0,1.85,1.46h0l23.44-2.86,0.64,5.36,4.72-6,21.3-2.6A1.67,1.67,0,0,0,211.22,37.27Z" transform="translate(0 0)" style="fill:#ef8006"/></g><path d="M168.11,29.24a2.18,2.18,0,1,0,2.18,2.18,2.18,2.18,0,0,0-2.18-2.18h0" transform="translate(0 0)" style="fill:#ef8006"/></svg>