<svg xmlns="http://www.w3.org/2000/svg" width="84" height="84" viewBox="0 0 84 84">
    <g fill="none" fill-rule="evenodd" transform="translate(2 2)">
        <circle cx="40" cy="40" r="40" stroke="#090909" stroke-width="3"/>
        <path fill="#090909" fill-rule="nonzero" d="M56.659 23.049a1.63 1.63 0 0 0-1.192-.504h-30.5c-.459 0-.856.168-1.191.504a1.63 1.63 0 0 0-.503 1.192v20.342c0 1.518.295 3.024.887 4.516.59 1.492 1.323 2.817 2.197 3.973a24.505 24.505 0 0 0 3.124 3.378c1.21 1.095 2.325 2.003 3.349 2.728a41.94 41.94 0 0 0 3.203 2.052c1.112.644 1.902 1.082 2.37 1.311.468.23.843.407 1.125.53.212.106.441.16.689.16.247 0 .476-.054.688-.16.282-.123.658-.3 1.125-.53.467-.229 1.258-.667 2.37-1.31a42.022 42.022 0 0 0 3.203-2.053c1.024-.725 2.14-1.633 3.35-2.728a24.542 24.542 0 0 0 3.123-3.378c.874-1.156 1.606-2.48 2.198-3.973.592-1.492.887-2.998.887-4.516V24.24c0-.46-.168-.857-.502-1.192zm-4.581 21.534c0 3.108-2.074 6.286-6.222 9.535-1.66 1.306-3.54 2.516-5.64 3.629V27.63h11.862v16.952z"/>
    </g>
</svg>
