<svg xmlns="http://www.w3.org/2000/svg" width="84" height="84" viewBox="0 0 84 84">
    <g fill="none" fill-rule="evenodd" transform="translate(2 2)">
        <circle cx="40" cy="40" r="40" stroke="#090909" stroke-width="3"/>
        <path fill="#090909" fill-rule="nonzero" d="M36.519 29.237l-1.836 1.838-1.87-1.878 1.838-1.84-1.831-1.844 1.87-1.877 1.834 1.846 1.836-1.838 1.869 1.876-1.838 1.841 1.832 1.844-1.871 1.878-1.833-1.846zM46.525 44.94l-1.835 1.838-1.871-1.879 1.838-1.84-1.83-1.844 1.87-1.876 1.833 1.845 1.835-1.837 1.87 1.876-1.838 1.841 1.83 1.843-1.87 1.879-1.832-1.846zm-12.621-4.017l-1.835 1.838-1.87-1.878 1.837-1.84-1.83-1.844 1.87-1.876 1.833 1.845 1.835-1.838 1.87 1.877-1.838 1.84 1.83 1.844-1.87 1.878-1.832-1.846zm14.854-16.29c6.453 1.801 11.204 7.75 11.204 14.798 0 3.507-1.208 6.935-3.403 9.657l-2.538-2.064a11.967 11.967 0 0 0 2.676-7.593c0-5.726-3.986-10.533-9.32-11.769l2.79 4.481-2.376 1.49-5.242-8.42L50.856 20l1.484 2.384-3.582 2.25zM21.175 38.32l.346-1.775 6.072 1.195-1.201 6.156-1.768-.348.669-3.424a7.684 7.684 0 0 0-2.818 3.317 7.719 7.719 0 0 0-.16 5.918 7.637 7.637 0 0 0 3.33 3.93l-.904 1.566a9.574 9.574 0 0 1-4.11-4.848 9.526 9.526 0 0 1 .201-7.302 9.445 9.445 0 0 1 3.106-3.84l-2.763-.545zm30.113 15.41a3.493 3.493 0 0 1 3.485 3.498 3.493 3.493 0 0 1-3.485 3.499 3.493 3.493 0 0 1-3.484-3.499 3.493 3.493 0 0 1 3.484-3.499zM26.512 21.275a3.493 3.493 0 0 1 3.485 3.498 3.493 3.493 0 0 1-3.485 3.499 3.493 3.493 0 0 1-3.484-3.499 3.493 3.493 0 0 1 3.484-3.498zm9.71 28.168a3.493 3.493 0 0 1 3.484 3.499 3.493 3.493 0 0 1-3.485 3.498 3.493 3.493 0 0 1-3.484-3.498 3.493 3.493 0 0 1 3.484-3.5z"/>
    </g>
</svg>
