<svg id="a6b7195e-31b6-4e15-b029-0b238e538ea3" xmlns="http://www.w3.org/2000/svg" xmlns:xlink="http://www.w3.org/1999/xlink" viewBox="0 0 60.05 47.47"><defs><mask id="5083f8a2-fddd-42f2-96b8-3faf2ad5147b" x="0" y="0" width="47.75" height="47.47" maskUnits="userSpaceOnUse"><g transform="translate(0 -7.48)"><g id="d7ca7e63-6ac7-4a04-be7d-0055491cf101" data-name="b"><path id="658c541e-b027-4c89-b176-e079c6f145bc" data-name="a" d="M0,7.48H47.75V54.95H0V7.48Z" style="fill:#fff"/></g></g></mask></defs><path d="M58.83,13L55,9.24a4.11,4.11,0,0,0-5.81,0h0L46.91,11.6l9.62,9.55,2.32-2.34a4.11,4.11,0,0,0,0-5.81M45.06,19.83l-11.91,12a0.91,0.91,0,0,1-1.34-1.25l0,0,11.91-12a0.91,0.91,0,0,1,1.3,1.29h0ZM30.44,43.06H29a0.59,0.59,0,0,1-.59-0.59h0l0-2.63-2.77,0a0.59,0.59,0,0,1-.58-0.6v0l0.11-1.29L29.09,34l5.23,5.19Zm-8.32-6.48L22.37,46l9.38,0.17L54.1,23.61l-9.63-9.55L22.12,36.58h0Z" transform="translate(0 -7.48)" /><g style="mask:url(#5083f8a2-fddd-42f2-96b8-3faf2ad5147b)"><path d="M45.74,38.14L43.8,40.08v5a6,6,0,0,1-6,6H10.12a6,6,0,0,1-6-6V17.54a6,6,0,0,1,6-6H37.8a6.09,6.09,0,0,1,1.86.15l2-1.85a1.31,1.31,0,0,0-.48-2.11,9.44,9.44,0,0,0-2.86-.29H9.46A9.43,9.43,0,0,0,0,16.88V45.55a9.43,9.43,0,0,0,9.46,9.4H38.29a9.43,9.43,0,0,0,9.46-9.4V39a1.18,1.18,0,0,0-2-.83" transform="translate(0 -7.48)" /></g></svg>