<svg xmlns="http://www.w3.org/2000/svg" width="50" height="50" viewBox="0 0 50 50">
    <path fill="#000" fill-rule="nonzero" d="M48.68 2.243c-.889-.367-1.648-.216-2.277.456l-4.227 4.195a25.24 25.24 0 0 0-7.95-5.089A24.5 24.5 0 0 0 24.974 0a24.3 24.3 0 0 0-9.69 1.984c-3.079 1.322-5.735 3.1-7.967 5.333-2.233 2.233-4.011 4.888-5.333 7.966A24.3 24.3 0 0 0 0 24.973a24.3 24.3 0 0 0 1.984 9.691c1.322 3.079 3.1 5.734 5.333 7.967 2.233 2.232 4.888 4.01 7.967 5.333a24.297 24.297 0 0 0 9.69 1.983c3.729 0 7.274-.785 10.634-2.357a24.415 24.415 0 0 0 8.585-6.65c.173-.217.254-.46.243-.732a.901.901 0 0 0-.309-.666l-4.454-4.488a1.251 1.251 0 0 0-.813-.292c-.347.043-.596.174-.748.39a16.328 16.328 0 0 1-5.82 4.782 16.4 16.4 0 0 1-7.317 1.69c-2.254 0-4.406-.44-6.455-1.317-2.048-.878-3.82-2.065-5.316-3.56-1.496-1.497-2.683-3.269-3.56-5.318a16.216 16.216 0 0 1-1.318-6.454c0-2.255.44-4.407 1.317-6.455.878-2.048 2.065-3.82 3.56-5.316 1.497-1.496 3.269-2.683 5.317-3.561a16.219 16.219 0 0 1 6.455-1.317c4.357 0 8.14 1.485 11.35 4.455l-4.49 4.487c-.672.65-.823 1.398-.455 2.243.37.868 1.009 1.301 1.92 1.301h14.567a2 2 0 0 0 1.464-.618 2 2 0 0 0 .617-1.463V4.163c0-.91-.422-1.55-1.268-1.92z"/>
</svg>
