<svg id="b86939dd-eb6f-43fb-8620-a257e43edc74" xmlns="http://www.w3.org/2000/svg" viewBox="0 0 50.24 55.83"><path d="M42.66,32.8h-11a1.48,1.48,0,0,0-1.48,1.48V45.22a1.54,1.54,0,0,0,1.54,1.54H42.67a1.49,1.49,0,0,0,1.49-1.49v-11a1.5,1.5,0,0,0-1.49-1.5" transform="translate(-5 -2)" /><path d="M49.66,50.72a1.52,1.52,0,0,1-1.52,1.52H12.08a1.5,1.5,0,0,1-1.49-1.5V23a1.48,1.48,0,0,1,1.48-1.48H48.18A1.48,1.48,0,0,1,49.66,23v27.7h0Zm0-43.14H46.87V3.47A1.47,1.47,0,0,0,45.4,2H42.76a1.48,1.48,0,0,0-1.48,1.48V7.58H19V3.49A1.49,1.49,0,0,0,17.46,2H14.84a1.47,1.47,0,0,0-1.47,1.47V7.58H10.58A5.56,5.56,0,0,0,5,13.16L5,52.24a5.58,5.58,0,0,0,5.58,5.58H49.66a5.58,5.58,0,0,0,5.58-5.58V13.16a5.58,5.58,0,0,0-5.58-5.58h0Z" transform="translate(-5 -2)" /></svg>