<svg xmlns="http://www.w3.org/2000/svg" width="54" height="50" viewBox="0 0 54 50">
    <g fill="#000" fill-rule="nonzero">
        <path d="M10.784 14.302c1.984 0 3.679-.697 5.082-2.091 1.405-1.394 2.107-3.076 2.107-5.047 0-1.97-.702-3.652-2.107-5.046C14.463.724 12.768.026 10.784.026c-1.985 0-3.68.698-5.083 2.092-1.404 1.394-2.106 3.076-2.106 5.046 0 1.971.702 3.653 2.106 5.047 1.404 1.394 3.098 2.091 5.083 2.091zM19.335 25.441c2.106 2.09 4.647 3.136 7.624 3.136 2.977 0 5.519-1.045 7.625-3.136 2.105-2.091 3.159-4.615 3.159-7.57s-1.054-5.479-3.16-7.57c-2.105-2.091-4.647-3.137-7.624-3.137-2.977 0-5.518 1.046-7.624 3.137s-3.16 4.614-3.16 7.57c0 2.956 1.054 5.479 3.16 7.57zM43.135 14.302c1.984 0 3.679-.697 5.083-2.091 1.404-1.394 2.106-3.076 2.106-5.047 0-1.97-.702-3.652-2.106-5.046C46.814.724 45.119.026 43.135.026c-1.985 0-3.679.698-5.083 2.092-1.404 1.394-2.106 3.076-2.106 5.046 0 1.971.702 3.653 2.106 5.047 1.404 1.394 3.098 2.091 5.083 2.091zM50.436 14.302c-.112 0-.52.196-1.221.586-.702.39-1.615.785-2.738 1.185s-2.238.6-3.342.6a11.35 11.35 0 0 1-3.735-.642c.093.687.14 1.301.14 1.84 0 2.584-.758 4.963-2.275 7.138 3.033.093 5.514 1.282 7.443 3.57h3.763c1.534 0 2.826-.378 3.875-1.13 1.048-.753 1.572-1.855 1.572-3.304 0-6.562-1.16-9.843-3.482-9.843z"/>
        <path d="M46.239 36.844a23.473 23.473 0 0 0-.745-3.025c-.3-.93-.702-1.835-1.207-2.718a9.838 9.838 0 0 0-1.741-2.259c-.656-.623-1.456-1.12-2.402-1.492-.945-.371-1.989-.557-3.13-.557-.188 0-.59.2-1.208.6-.618.399-1.301.846-2.05 1.338-.75.491-1.75.938-3.005 1.338-1.255.4-2.519.6-3.791.6-1.273 0-2.537-.2-3.792-.6-1.254-.4-2.256-.847-3.005-1.338-.749-.492-1.432-.94-2.05-1.339-.617-.4-1.02-.6-1.207-.6-1.142 0-2.186.187-3.131.558-.946.373-1.746.87-2.401 1.492-.656.622-1.236 1.376-1.742 2.259a14.287 14.287 0 0 0-1.207 2.718c-.3.929-.547 1.938-.744 3.025a28.155 28.155 0 0 0-.394 3.04 41.406 41.406 0 0 0-.098 2.885c0 2.23.683 3.992 2.05 5.283 1.367 1.292 3.183 1.938 5.448 1.938h24.544c2.265 0 4.081-.646 5.449-1.938 1.366-1.291 2.05-3.052 2.05-5.283 0-.985-.033-1.947-.098-2.886a28.63 28.63 0 0 0-.393-3.039zM16.653 25.009c-1.517-2.175-2.275-4.554-2.275-7.138 0-.54.047-1.152.14-1.84-1.235.427-2.48.641-3.734.641-1.105 0-2.219-.2-3.342-.599-1.123-.4-2.036-.795-2.738-1.185s-1.11-.586-1.222-.586C1.161 14.302 0 17.583 0 24.145c0 1.45.524 2.551 1.572 3.303 1.049.753 2.34 1.13 3.876 1.13H9.21c1.928-2.287 4.409-3.476 7.442-3.57z"/>
    </g>
</svg>
