<svg xmlns="http://www.w3.org/2000/svg" width="44" height="50" viewBox="0 0 44 50">
    <path fill="#000" fill-rule="nonzero" d="M43.668 5.44C42.847 2.235 40.084 0 36.95 0H7.052 7.05C3.916 0 1.153 2.237.332 5.44c-.42 1.632-.516 4.217 1.403 7.26 1.466 2.325 3.85 4.469 7.092 6.386.401 6.072 4.972 11.031 10.887 12.067v4.978h-7.091a2.28 2.28 0 0 0-2.286 2.272v9.324A2.28 2.28 0 0 0 12.623 50h18.754a2.28 2.28 0 0 0 2.286-2.273v-9.324a2.28 2.28 0 0 0-2.286-2.272h-7.091v-4.974c5.93-1.027 10.515-5.998 10.911-12.085 3.229-1.913 5.605-4.052 7.068-6.372 1.919-3.043 1.822-5.628 1.403-7.26zM4.761 6.562c.34-1.325 1.409-2.017 2.29-2.017h1.726l.013 9.046c-3.534-2.701-4.474-5.294-4.029-7.03zm30.465 7.017V4.545h1.723c.881 0 1.95.693 2.29 2.018.444 1.733-.492 4.32-4.013 7.017z"/>
</svg>
