<svg id="b1ca9055-f76d-4ab8-bca1-de7cd1948f6f" data-name="Calque 1" xmlns="http://www.w3.org/2000/svg" viewBox="0 0 60 51.43"><path d="M2.23,15.83A7.22,7.22,0,0,0,0,21.12V49a7.22,7.22,0,0,0,2.21,5.29,7.22,7.22,0,0,0,5.29,2.21H8.59V13.62H7.52A7.22,7.22,0,0,0,2.23,15.83ZM42.88,8.26A3.2,3.2,0,0,0,39.67,5H20.38a3.2,3.2,0,0,0-3.21,3.21v5.36H11.81V56.47H48.24V13.62H42.88V8.26h0ZM21.45,9.33H38.59v4.29H21.45V9.33ZM42.88,38.26a1,1,0,0,1-1.07,1.07h-7.5v7.5a1,1,0,0,1-1.07,1.07H26.81a1,1,0,0,1-1.07-1.07v-7.5h-7.5a1,1,0,0,1-1.07-1.07V31.83a1,1,0,0,1,1.07-1.07h7.5v-7.5a1,1,0,0,1,1.07-1.07h6.43a1,1,0,0,1,1.07,1.07v7.5h7.5a1,1,0,0,1,1.07,1.07v6.43h0ZM57.81,15.83a7.22,7.22,0,0,0-5.29-2.21H51.45V56.47h1.07A7.54,7.54,0,0,0,60,49V21.12A7.22,7.22,0,0,0,57.81,15.83Z" transform="translate(-0.02 -5.05)" /></svg>