<svg xmlns="http://www.w3.org/2000/svg" width="30" height="31" viewBox="0 0 30 31">
    <g fill="none" fill-rule="evenodd">
        <path d="M0 0h30v30H0z"/>
        <circle cx="15" cy="15.348" r="14.5" stroke="#FFF"/>
        <path fill="#FFF" d="M10.858 19.103l.012-2.763.516-.005.516-.006-.006-.426-.007-.426-1.49-.006-1.489-.006v.864l.504.006.504.005.006 2.74c.003 1.506.01 2.752.016 2.768.008.022.113.028.459.023l.448-.006.011-2.762zm8.594-.195c-.021-.055.008-.693.036-.786.065-.217.204-.323.423-.323.181 0 .297.07.374.228.05.1.054.143.062.513l.007.403h-.445c-.382 0-.446-.004-.457-.035zm.83 2.976c.437-.123.738-.421.852-.843.019-.072.041-.277.049-.455l.012-.324h-.84l-.01.29c-.012.33-.046.443-.165.549-.128.112-.362.12-.514.017-.181-.123-.226-.33-.217-1.004l.007-.477.869-.006.869-.006-.011-.71c-.015-.793-.03-.913-.163-1.194-.253-.533-.954-.802-1.536-.59-.44.161-.699.45-.803.899-.037.158-.04.3-.04 1.46 0 1.421.004 1.479.149 1.77.258.518.905.789 1.493.624zm-3.44-.81a.306.306 0 0 0 .116-.165c.035-.103.038-.234.033-1.454-.005-1.27-.007-1.346-.048-1.429-.106-.213-.37-.233-.613-.047l-.08.06v2.9l.08.06c.179.138.376.166.512.076zm.526.819c.132-.038.291-.196.363-.357.138-.308.139-.315.139-2.047 0-1.421-.004-1.597-.04-1.75-.113-.492-.361-.707-.779-.676-.234.018-.418.112-.638.325a1.524 1.524 0 0 1-.192.17c-.008 0-.016-.472-.016-1.047v-1.045h-.816v6.41h.816v-.216c0-.143.008-.216.025-.216.013 0 .105.076.204.17.317.298.592.38.934.279zm-4.341-.021c.163-.06.354-.194.516-.358a.655.655 0 0 1 .164-.138c.021 0 .029.062.029.25v.25h.815V17.125h-.815v3.665l-.176.175c-.14.14-.198.182-.284.205-.146.041-.238.013-.298-.09-.046-.077-.047-.113-.053-2.017l-.006-1.938h-.815v2.058c0 2.241.003 2.29.128 2.506.137.236.457.31.795.183zm.346 1.982c-.53-.01-1.156-.024-1.393-.032-1.59-.058-2.681-.119-2.9-.163a1.608 1.608 0 0 1-.859-.523c-.323-.398-.495-.88-.579-1.624-.193-1.727-.19-3.743.012-5.41.089-.73.308-1.258.677-1.626.21-.21.412-.328.681-.397.584-.15 5.15-.27 7.929-.207 1.605.035 3.339.11 3.8.163.595.068 1.014.377 1.304.965.219.443.288.788.377 1.852.07.843.087 1.368.074 2.34-.015 1.164-.088 2.19-.199 2.765-.117.608-.392 1.127-.748 1.408-.275.217-.568.314-1.029.34-.137.008-.31.019-.385.025-.265.02-1.688.078-2.47.1-1.159.032-3.188.044-4.292.024zm-1.431-10.558c-.02-.032-.016-1.902.003-2.167.026-.34-.032-.607-.274-1.29a32.46 32.46 0 0 1-.316-.954c-.687-2.192-.651-2.063-.585-2.064.452-.004 1.01-.001 1.017.006.004.004.151.539.327 1.189l.325 1.202c.004.01.107-.368.229-.841.256-.994.4-1.542.406-1.547.011-.011.138-.013.555-.011l.462.003-.01.074c-.009.06-.324 1.12-.653 2.199l-.204.682c-.076.256-.168.56-.205.676l-.066.211v1.317c0 1.234-.003 1.317-.04 1.327-.083.023-.956.012-.971-.012zm5.96.079c-.227-.03-.36-.118-.451-.3-.115-.227-.115-.226-.115-2.491V8.47h.919l.01 1.949c.01 2.116.007 2.067.133 2.099.116.028.245-.034.404-.197l.154-.157.006-1.847.005-1.847.46-.007.458-.005v4.839l-.062.013c-.075.015-.771.014-.827-.002-.034-.01-.04-.04-.04-.23v-.22l-.13.128c-.3.293-.624.43-.923.389zm-2.312-.924c.157-.12.158-.13.166-1.49.007-1.058.004-1.237-.028-1.381-.043-.195-.119-.287-.267-.328-.19-.05-.366.058-.427.268-.046.161-.046 2.56.001 2.72.036.122.15.254.234.273a.427.427 0 0 0 .321-.062zm-.36.923c-.411-.05-.789-.292-.97-.624-.186-.337-.203-.513-.192-1.999.009-1.15.012-1.222.057-1.387.108-.392.318-.66.644-.822a1.322 1.322 0 0 1 1.35.082c.268.173.43.426.518.8.038.166.042.294.042 1.455 0 1.413-.006 1.495-.15 1.8a1.286 1.286 0 0 1-.78.647 1.73 1.73 0 0 1-.52.048z"/>
    </g>
</svg>
