<svg xmlns="http://www.w3.org/2000/svg" width="50" height="60" viewBox="0 0 50 60">
    <path fill="#000" fill-rule="nonzero" d="M49.26.741C48.765.247 48.18 0 47.504 0H2.572C1.895 0 1.31.247.816.741S.075 1.821.075 2.497v29.968c0 2.238.435 4.456 1.306 6.654.871 2.198 1.95 4.15 3.238 5.853 1.287 1.705 2.82 3.363 4.602 4.976 1.781 1.614 3.426 2.952 4.934 4.02a61.787 61.787 0 0 0 4.719 3.023c1.638.949 2.802 1.594 3.49 1.932.69.338 1.242.598 1.658.78.313.156.65.235 1.015.235.365 0 .702-.079 1.015-.235a42.51 42.51 0 0 0 1.656-.78c.689-.338 1.853-.983 3.492-1.932a61.907 61.907 0 0 0 4.718-3.024c1.509-1.067 3.153-2.406 4.935-4.019 1.78-1.613 3.314-3.271 4.602-4.976 1.287-1.704 2.366-3.655 3.238-5.853.871-2.198 1.306-4.416 1.306-6.654V2.497c0-.677-.247-1.261-.74-1.756zm-6.75 31.724c0 4.58-3.055 9.261-9.165 14.048-2.445 1.925-5.214 3.707-8.308 5.346V7.492H42.51v24.973z"/>
</svg>
