<svg xmlns="http://www.w3.org/2000/svg" width="72" height="50" viewBox="0 0 72 50">
    <path fill="#000" fill-rule="evenodd" d="M48.825 28.57c-.942 0-2.018.072-3.156.178 3.775 3.002 6.412 7.035 6.412 12.323V50h19.527v-8.929c0-8.321-15.199-12.5-22.783-12.5m-26.042 0C15.2 28.57 0 32.75 0 41.07V50h45.57v-8.929c0-8.321-15.203-12.5-22.787-12.5m0-7.145c5.405 0 9.733-4.783 9.733-10.713C32.516 4.783 28.188 0 22.783 0c-5.4 0-9.764 4.783-9.764 10.713 0 5.93 4.363 10.713 9.764 10.713m26.042 0c5.405 0 9.733-4.783 9.733-10.713C58.558 4.783 54.23 0 48.825 0c-5.404 0-9.763 4.783-9.763 10.713 0 5.93 4.359 10.713 9.763 10.713"/>
</svg>
