<svg xmlns="http://www.w3.org/2000/svg" width="60" height="60" viewBox="0 0 60 60">
    <path fill="#090909" fill-rule="nonzero" d="M24.532 13.608l-2.704 2.708-2.756-2.767 2.709-2.711-2.698-2.717 2.756-2.764 2.7 2.72 2.706-2.709 2.753 2.765-2.708 2.712 2.698 2.715-2.755 2.768-2.701-2.72zm14.74 23.135l-2.703 2.708-2.755-2.767 2.708-2.712-2.696-2.716 2.755-2.764 2.7 2.718 2.702-2.707 2.756 2.765-2.708 2.712 2.697 2.715-2.755 2.767-2.7-2.719zM20.68 30.826l-2.703 2.708-2.756-2.767 2.708-2.712-2.696-2.716 2.756-2.764 2.7 2.718 2.702-2.707 2.756 2.765-2.708 2.712 2.697 2.715-2.756 2.767-2.7-2.719zm21.884-24C52.07 9.48 59.069 18.245 59.069 28.628a22.725 22.725 0 0 1-5.014 14.227l-3.738-3.04c2.578-3.196 3.942-7.065 3.942-11.187 0-8.436-5.873-15.518-13.73-17.338l4.11 6.6-3.5 2.195-7.723-12.402L45.654 0l2.185 3.512-5.276 3.314zM1.927 26.989l.51-2.615 8.946 1.76-1.77 9.07-2.604-.513.985-5.045a11.32 11.32 0 0 0-4.15 4.887 11.372 11.372 0 0 0-.239 8.718 11.25 11.25 0 0 0 4.907 5.79L7.18 51.349a14.104 14.104 0 0 1-6.055-7.142 14.034 14.034 0 0 1 .298-10.757 13.914 13.914 0 0 1 4.574-5.658l-4.07-.802zM46.29 49.69c2.833 0 5.134 2.31 5.134 5.155s-2.3 5.154-5.134 5.154c-2.833 0-5.133-2.31-5.133-5.154 0-2.845 2.3-5.155 5.133-5.155zM9.79 1.88c2.833 0 5.134 2.309 5.134 5.154 0 2.844-2.3 5.154-5.134 5.154-2.833 0-5.133-2.31-5.133-5.154 0-2.845 2.3-5.155 5.133-5.155zm14.304 41.497c2.833 0 5.133 2.31 5.133 5.155 0 2.844-2.3 5.154-5.133 5.154s-5.133-2.31-5.133-5.154c0-2.845 2.3-5.155 5.133-5.155z"/>
</svg>
