<svg xmlns="http://www.w3.org/2000/svg" xmlns:xlink="http://www.w3.org/1999/xlink" width="63" height="50" viewBox="0 0 63 50">
    <defs>
        <path id="a" d="M0 0h50.018v49.95H0z"/>
    </defs>
    <g fill="none" fill-rule="evenodd">
        <path fill="#000" d="M61.626 5.813l-3.973-3.961a4.29 4.29 0 0 0-6.087.023l-2.43 2.46L59.217 14.39l2.431-2.46a4.338 4.338 0 0 0-.023-6.116M47.197 12.996L34.723 25.62a.953.953 0 0 1-1.353.005.964.964 0 0 1-.005-1.358L45.84 11.642a.954.954 0 0 1 1.353-.006.964.964 0 0 1 .005 1.36zM31.88 37.436l-1.492.002a.62.62 0 0 1-.62-.626l.024-2.77L26.897 34a.62.62 0 0 1-.607-.67l.11-1.357 4.064-4.114 5.48 5.464-4.063 4.114zm-8.711-6.818l.255 9.871 9.827.182 23.414-23.7L46.584 6.919l-23.414 23.7z"/>
        <g>
            <mask id="b" fill="#fff">
                <use xlink:href="#a"/>
            </mask>
            <path fill="#000" d="M47.91 32.265l-2.033 2.043v5.235a6.275 6.275 0 0 1-6.28 6.271H10.604a6.275 6.275 0 0 1-6.28-6.27V10.588a6.275 6.275 0 0 1 6.28-6.27h28.993c.675 0 1.34-.039 1.95.158l2.07-1.95c.658-.66.381-1.937-.505-2.219C42.166.008 41.157 0 40.111 0H9.908C4.436 0 0 4.43 0 9.894v30.162c0 5.464 4.436 9.894 9.908 9.894H40.11c5.472 0 9.907-4.43 9.907-9.894v-6.913c0-1.106-1.33-1.66-2.108-.878" mask="url(#b)"/>
        </g>
    </g>
</svg>
