<svg id="8567a493-cca4-409d-a384-c465efce0869" data-name="Calque 1" xmlns="http://www.w3.org/2000/svg" viewBox="0 0 56.07 55.75"><path d="M57.93,6.81a5.12,5.12,0,0,1-5.1,5.1,4,4,0,0,1-1.29-.18l-9.05,9.05a4.24,4.24,0,0,1,.18,1.33,5.1,5.1,0,1,1-10.2,0,4.24,4.24,0,0,1,.19-1.33l-6.53-6.53a5,5,0,0,1-2.67,0L11.88,25.88a4,4,0,0,1,.18,1.29A5.1,5.1,0,1,1,7,22.07a4,4,0,0,1,1.29.18L19.88,10.67a4.23,4.23,0,0,1-.19-1.33,5.1,5.1,0,1,1,10.2,0,4.26,4.26,0,0,1-.18,1.33l6.48,6.48a5,5,0,0,1,2.67,0l9.06-9.06a3.94,3.94,0,0,1-.19-1.28,5.1,5.1,0,0,1,10.2,0M11.93,46h2.16a2.45,2.45,0,0,0,2-.78,3.56,3.56,0,0,0,.64-2.16,3.78,3.78,0,0,0-.64-2.3,2.31,2.31,0,0,0-1.93-.83H12v6.11h0v0Zm0,3.08v8.36h-4V36.73h6.2A6.68,6.68,0,0,1,19,38.38a5.81,5.81,0,0,1,1.75,4.46,4.9,4.9,0,0,1-2.89,4.69,4,4,0,0,1,2.34,1.79,6,6,0,0,1,.74,3.13V54a7.91,7.91,0,0,0,.18,1.79,2.22,2.22,0,0,0,.74,1.38v0.32H17.63a2,2,0,0,1-.6-1.52c0-.64-0.14-1.38-0.14-2.07V52.4a4.4,4.4,0,0,0-.64-2.48,2.16,2.16,0,0,0-1.88-.83H11.93ZM28,46.79h2.9a2.44,2.44,0,0,0,2.07-1,3.89,3.89,0,0,0,.73-2.48A4,4,0,0,0,33,40.82a2.43,2.43,0,0,0-2.07-1H28v6.94h0ZM28,50v7.49H24V36.73H31a6.77,6.77,0,0,1,5,1.79,6.56,6.56,0,0,1,1.79,4.78,6.47,6.47,0,0,1-1.79,4.78,6.7,6.7,0,0,1-5,1.79H28V50h0Zm22.61-1.7H44.28v6.07h7.63v3.13H40.29V36.73H51.91v3.13H44.28v5.33h6.34v3.08Z" transform="translate(-1.86 -1.71)" /></svg>