<svg id="bd441bac-f34f-4e99-a8fd-6f5f9df20d0a" data-name="Calque 1" xmlns="http://www.w3.org/2000/svg" viewBox="0 0 251 83"><title>logo-byfff-bleu</title><path d="M187.5,43.87c-4.59,4.17-12.56,3.71-17.24-.85a14.61,14.61,0,0,1-3.16-4.62,14.11,14.11,0,0,1,0-10.88,13.9,13.9,0,0,1,3-4.43,14.43,14.43,0,0,1,4.49-3,14.14,14.14,0,0,1,10.88,0,14.07,14.07,0,0,1,7.42,7.42A13.62,13.62,0,0,1,194,33V47a10,10,0,0,1-3.69-2.22c-2-2.19-1.84-6.35-1.84-6.35V33a8.26,8.26,0,0,0-.66-3.28A8.57,8.57,0,0,0,186,27a8.45,8.45,0,0,0-2.69-1.81,8.22,8.22,0,0,0-3.28-.66A8.54,8.54,0,0,0,174,27a8.54,8.54,0,0,0-1.82,2.69,8.28,8.28,0,0,0-.65,3.28A8.52,8.52,0,0,0,174,39a8,8,0,0,0,10.51.81Z" transform="translate(0 0)" style="fill:#ed8011"/><path d="M112.05,23.12A13.68,13.68,0,0,1,116.69,20a14,14,0,0,1,10.53,0,13.66,13.66,0,0,1,4.64,3.09,2.78,2.78,0,0,1,0,3.9c-1.06,1.08-2.38,1.53-2.93,1s-1.79-1.62-2.76-2.42l-1-.42a8.39,8.39,0,0,0-6.36,0A8.31,8.31,0,0,0,116,27a7.68,7.68,0,0,0-1.87,2.74,8.44,8.44,0,0,0,0,6.36A8.34,8.34,0,0,0,116,39a8.16,8.16,0,0,0,6,2.49,8.61,8.61,0,0,0,3.24-.62A7.64,7.64,0,0,0,127.94,39a2.8,2.8,0,0,1,3.93,0c1.06,1.08,1.36,2.29,1,2.93a10.51,10.51,0,0,1-3.89,3.37l-1.73.68a14,14,0,0,1-10.53,0,13.56,13.56,0,0,1-4.64-3.08A13.39,13.39,0,0,1,109,38.27a14.44,14.44,0,0,1,0-10.54,13.41,13.41,0,0,1,3.06-4.61M141.45,34a8.52,8.52,0,1,0,17,0,8.2,8.2,0,0,0-.66-3.28,8.55,8.55,0,0,0-15.72,0,8.2,8.2,0,0,0-.66,3.28M136,34a13.58,13.58,0,0,1,1.09-5.46,14,14,0,0,1,7.45-7.42,14.08,14.08,0,0,1,10.88,0,14.57,14.57,0,0,1,4.46,3,13.94,13.94,0,0,1,3,4.43,14.12,14.12,0,0,1,0,10.88,14.09,14.09,0,0,1-3,4.49,14.28,14.28,0,0,1-4.46,3,13.93,13.93,0,0,1-15.34-3,14.3,14.3,0,0,1-3-4.49A13.63,13.63,0,0,1,136,34m63.05-10.85A13.68,13.68,0,0,1,203.69,20a14,14,0,0,1,10.54,0,13.72,13.72,0,0,1,4.65,3.09,2.78,2.78,0,0,1,0,3.9c-1.07,1.08-2.38,1.53-2.93,1s-1.79-1.62-2.76-2.42l-1-.42A8.43,8.43,0,0,0,203,27a7.72,7.72,0,0,0-1.87,2.74,8.42,8.42,0,0,0,0,6.36A8.39,8.39,0,0,0,203,39a8.16,8.16,0,0,0,6,2.49,8.61,8.61,0,0,0,3.24-.62A7.66,7.66,0,0,0,214.95,39a2.8,2.8,0,0,1,3.93,0c1.06,1.08,1.35,2.28,1,2.93-0.56.95-1.15,1.91-3.89,3.37l-1.72.68a14,14,0,0,1-10.54,0,13.58,13.58,0,0,1-4.64-3.08A13.35,13.35,0,0,1,196,38.27a14.4,14.4,0,0,1,0-10.54,13.37,13.37,0,0,1,3.05-4.61m37.92-4a13.65,13.65,0,0,1,5.46,1.09,14.59,14.59,0,0,1,4.46,3,13.84,13.84,0,0,1,3,4.41A13.45,13.45,0,0,1,251,33v9.14c0,2.65-1.24,4.82-2.76,4.82s-2.76-2.17-2.76-4.82V37.84c0-2.65-.1-5.83-0.22-7.06l-0.44-1A8.43,8.43,0,0,0,237,24.65a8.29,8.29,0,0,0-3.28.65,8.59,8.59,0,0,0-2.69,1.8,8.47,8.47,0,0,0-1.81,2.67,8.13,8.13,0,0,0-.66,3.26v9.15c0,2.65-1.24,4.82-2.77,4.82S223,44.83,223,42.18V12.82c0-2.65,1.25-4.82,2.76-4.82s2.77,2.17,2.77,4.82v4.35c0,2.65,1.12,4.09,2.47,3.21l1.43-.49a13.74,13.74,0,0,1,4.52-.74M62.1,19a13.39,13.39,0,0,1,5.4,1.09,14.39,14.39,0,0,1,4.42,3,13.89,13.89,0,0,1,3,4.43A13.71,13.71,0,0,1,76,33v9.19C76,44.82,74.77,47,73.26,47s-2.74-2.18-2.74-4.84V37.79c0-2.66-.1-5.86-0.22-7.1l-0.43-1A8.56,8.56,0,0,0,68.07,27a8.39,8.39,0,0,0-6-2.46,8.11,8.11,0,0,0-3.25.66A8.45,8.45,0,0,0,56.18,27a8.54,8.54,0,0,0-1.79,2.68A8.3,8.3,0,0,0,53.74,33v9.21C53.74,44.82,52.51,47,51,47s-2.74-2.18-2.74-4.84V37.8c0-2.66-.1-5.86-0.22-7.1l-0.43-1A8.52,8.52,0,0,0,45.81,27a8.4,8.4,0,0,0-6-2.47,8.11,8.11,0,0,0-3.25.66,8.44,8.44,0,0,0-4.46,4.49A8.3,8.3,0,0,0,31.48,33v9.2c0,2.66-1.23,4.84-2.74,4.84S26,44.82,26,42.16V37.81c0-2.66.16-6.54,0.36-8.61l0.72-1.68a14.14,14.14,0,0,1,3-4.43,14,14,0,0,1,4.42-3A13.54,13.54,0,0,1,39.85,19a13.28,13.28,0,0,1,6.34,1.53A14,14,0,0,1,51,24.68a14,14,0,0,1,4.82-4.15A13.33,13.33,0,0,1,62.1,19m41.14,1c1.52,0,2.75,2.17,2.76,4.82V40.23c0,2.65-.16,6.5-0.36,8.56l-0.72,1.68a14.47,14.47,0,0,1-3,4.43A13.63,13.63,0,0,1,92.09,59a2.79,2.79,0,0,1-2.8-2.75c0-1.51.63-2.75,1.4-2.75s2.41-.1,3.65-0.22l1-.43A8.5,8.5,0,0,0,98,51.05a8.45,8.45,0,0,0,2.46-6s-1.11.66-2.47,1.55l-1.43.5a14.18,14.18,0,0,1-10-.34,14.13,14.13,0,0,1-7.53-7.47A13.56,13.56,0,0,1,78,33.9V24.82C78,22.17,79.24,20,80.76,20s2.76,2.16,2.76,4.82v4.28c0,2.65.1,5.83,0.22,7.07l0.44,1a8.31,8.31,0,0,0,4.54,4.5,8.53,8.53,0,0,0,3.32.65,8.32,8.32,0,0,0,3.29-.65,8.41,8.41,0,0,0,5.16-7.79V24.82c0-2.65,1.24-4.82,2.76-4.82M0.8,60.28a2.87,2.87,0,0,1-.27,1.33c-0.27.28-1.16,3,.23,3.95s4,0.37,3.4-1.19-0.32-1.88-.32-1.88l0.63,0.64L4.63,63l-0.78-.8V60.78s2.33-3.49,2.33-4.59,0.58-3.58.58-4.13S7,50.41,7,49.72s-0.36-.88,0-1.24a32,32,0,0,0,1.79-5.37C9.08,42,11.05,37.6,11.05,37.6L11.81,39s-0.15,3.37.31,3.85a1.24,1.24,0,0,1,.18,1.51c-0.25.25-.46,0.56-0.25,0.78a4.05,4.05,0,0,1,.21,1.7c0,0.46-.32,2.07-0.32,2.44s0.36,4,.36,4,0.18,1.15.18,1.52a2.25,2.25,0,0,0,.61,1,9.84,9.84,0,0,0-.47,1.4,1,1,0,0,0,0,1.14,2.4,2.4,0,0,0,1.74.48,2.37,2.37,0,0,1,1.48.76,3,3,0,0,0,3.72.46c1.75-1.15-.63-2.2-0.63-2.2a7.45,7.45,0,0,0-1.52-1.1c-0.27,0,0-.25-0.27-0.55a5.66,5.66,0,0,1-.67-1.24H16.11a14.51,14.51,0,0,1,1.17-1.7c0.38-.39,0-2.52-0.45-4a5.37,5.37,0,0,1,.23-4c0.58-1.47.36-5.74,0.36-5.74a11.19,11.19,0,0,1,.09-3.17,14,14,0,0,0,0-3.72l-0.22-1.19L17,27.69A12.18,12.18,0,0,1,16.73,26a11,11,0,0,1-.36-2.43,4.18,4.18,0,0,0-.14-1.69s1.17,0,1.84,0,1.75-.14,2.19-0.14,0.9-.5.67-1.84a8.29,8.29,0,0,0-1-2.66c-0.49-.41,0-0.46-0.22-0.59a2.71,2.71,0,0,1-.58-0.64,8.66,8.66,0,0,1-1.21-2.15,7.55,7.55,0,0,0-.4-1.24c-0.13-.23-0.18-0.73-0.4-1.19a1.76,1.76,0,0,0-1.21-1,4.19,4.19,0,0,1-1.07-.36,5.47,5.47,0,0,0-1.07-.46A1.08,1.08,0,0,1,13,9.43a0.37,0.37,0,0,0-.31-0.19L12.79,8a7.9,7.9,0,0,0,1-2,5.93,5.93,0,0,1,.09-0.73,2.3,2.3,0,0,0,.45-1.15,0.36,0.36,0,0,0-.45-0.28,5.08,5.08,0,0,0-.45-2.57A3.1,3.1,0,0,0,10.1.11c-1.39.37-1.88,1.33-1.83,2.8l0.12,0.7a0.53,0.53,0,0,0-.66.76,2.07,2.07,0,0,0,.54,1.07,2.51,2.51,0,0,0,.4.4,6.4,6.4,0,0,1,.09,2,2.49,2.49,0,0,1-1,.87s-3.45.6-3.89,2.07a9.71,9.71,0,0,0-.49,3.67c0.09,1,.09,3.17.09,3.17l0.27,0.69L4,18.51a6,6,0,0,1,.54,1.2A12.54,12.54,0,0,0,5,22l0.22,0.51L5,25.95a20.4,20.4,0,0,0-.27,2.15,5.89,5.89,0,0,1-.31,1.84,1.35,1.35,0,0,0-.27,1,1.47,1.47,0,0,1,0,.78,31.6,31.6,0,0,0-.4,3.35C3.57,37,3.13,38.57,3.22,39.53a32,32,0,0,1-.45,4.59c-0.09.51-.67,1-0.67,1.33a2,2,0,0,1,0,.92,4.07,4.07,0,0,0-.63,1.88,5.61,5.61,0,0,1-.18,2.25,7.15,7.15,0,0,0-.4,1.65,12.61,12.61,0,0,0-.49,3.13c0,1,0,4.63,0,4.63M152.64,75.25a1.63,1.63,0,0,0,1.8,1.51c1.33,0,1.86-.82,1.86-2.89s-0.57-2.88-2-2.88a3.49,3.49,0,0,0-1.66.4v3.86ZM150,78.82V65h2.64v4.24a5.12,5.12,0,0,1,2.07-.43c2.7,0,4.28,1.69,4.28,4.94,0,3.46-1.29,5.26-3.78,5.26a3.46,3.46,0,0,1-2.78-1.22l-0.23,1H150ZM170,69l-3.74,10.78C165.48,82,164.38,83,162.69,83a4.55,4.55,0,0,1-1.83-.31v-2a4.56,4.56,0,0,0,1.33.2,1.35,1.35,0,0,0,1.47-1.06l0.16-.38L160,69h3l2.13,7.39,2-7.39H170Zm38,10h4.12V73.4h11.18V70.2H212.12V66.28H225V63H208V79Zm43-12.72V63H234V79h4.12V73.4H249.3V70.2H238.12V66.28H251Zm-52,0V63H182V79h4.12V73.4H197.3V70.2H186.12V66.28H199Z" transform="translate(0 0)" style="fill:#064782"/></svg>