<svg id="0dabaa84-398b-410e-8bcc-7124e31c3ebc" data-name="Calque 1" xmlns="http://www.w3.org/2000/svg" xmlns:xlink="http://www.w3.org/1999/xlink" viewBox="0 0 105.6 38.47"><defs><mask id="8b7f259b-325d-4248-91d4-2616f045e856" x="92.53" y="14.9" width="13.08" height="18.29" maskUnits="userSpaceOnUse"><g transform="translate(-0.35 0)"><g id="860958e3-816f-4d73-a8bf-b3c7d972b0a7" data-name="b"><path id="894de802-b057-4ceb-b2f6-f809db159ed5" data-name="a" d="M92.88,14.9H106V33.19H92.88V14.9Z" style="fill:#fff"/></g></g></mask></defs><title>logo-mycoach-sport-white</title><path d="M76.13,31.64a6.09,6.09,0,0,1-8.05-.4,6.81,6.81,0,0,1-1.48-2.15,6.57,6.57,0,0,1,0-5.08A6.48,6.48,0,0,1,68,21.94a6.74,6.74,0,0,1,2.1-1.4,6.61,6.61,0,0,1,5.08,0A6.57,6.57,0,0,1,78.66,24a6.34,6.34,0,0,1,.51,2.55V33.1a4.69,4.69,0,0,1-1.72-1,4.79,4.79,0,0,1-.86-3V26.56A3.86,3.86,0,0,0,76.28,25a4,4,0,0,0-.85-1.25,4,4,0,0,0-1.25-.84,3.84,3.84,0,0,0-1.53-.31,4,4,0,0,0-1.55.31A3.91,3.91,0,0,0,69,25a3.86,3.86,0,0,0-.31,1.53,4,4,0,0,0,1.15,2.82,3.76,3.76,0,0,0,4.91.38l1.39,1.89h0ZM40.76,22a6.38,6.38,0,0,1,2.17-1.44,6.55,6.55,0,0,1,4.92,0A6.38,6.38,0,0,1,50,22a1.3,1.3,0,0,1,0,1.82,1.17,1.17,0,0,1-1.37.47Q48,23.75,47.37,23.2L46.88,23a3.94,3.94,0,0,0-4.28.87,3.57,3.57,0,0,0-.87,1.28,3.94,3.94,0,0,0,0,3,3.9,3.9,0,0,0,.87,1.31,3.82,3.82,0,0,0,2.8,1.16,4,4,0,0,0,1.51-.29,3.57,3.57,0,0,0,1.28-.87,1.31,1.31,0,0,1,1.84,0,1.25,1.25,0,0,1,.45,1.37,4.91,4.91,0,0,1-1.82,1.57l-0.81.32a6.55,6.55,0,0,1-4.92,0,6.34,6.34,0,0,1-2.17-1.44,6.25,6.25,0,0,1-1.43-2.16,6.71,6.71,0,0,1,0-4.92A6.26,6.26,0,0,1,40.77,22M54.5,26.71a3.94,3.94,0,0,0,2.43,3.66,4,4,0,0,0,5.24-2.11,3.93,3.93,0,0,0,.31-1.54,3.82,3.82,0,0,0-.31-1.53,4,4,0,0,0-.85-1.26,4.05,4.05,0,0,0-5.66,0,3.94,3.94,0,0,0-.85,1.25,3.81,3.81,0,0,0-.31,1.53m-2.55,0a6.31,6.31,0,0,1,.51-2.55A6.52,6.52,0,0,1,56,20.7a6.62,6.62,0,0,1,5.1,0,6.82,6.82,0,0,1,2.09,1.4,6.5,6.5,0,0,1,1.42,2.07,6.57,6.57,0,0,1,0,5.08,6.58,6.58,0,0,1-1.42,2.09,6.69,6.69,0,0,1-2.09,1.41,6.54,6.54,0,0,1-7.18-1.41,6.67,6.67,0,0,1-1.4-2.09A6.34,6.34,0,0,1,52,26.71M81.66,22a6.39,6.39,0,0,1,2.17-1.44,6.55,6.55,0,0,1,4.92,0A6.4,6.4,0,0,1,90.92,22a1.3,1.3,0,0,1,0,1.82,1.17,1.17,0,0,1-1.37.47q-0.63-.59-1.29-1.13L87.77,23a3.94,3.94,0,0,0-4.28.87,3.58,3.58,0,0,0-.87,1.28,3.93,3.93,0,0,0,.87,4.28,3.82,3.82,0,0,0,2.8,1.16,4,4,0,0,0,1.51-.29,3.58,3.58,0,0,0,1.28-.87,1.31,1.31,0,0,1,1.84,0,1.27,1.27,0,0,1,.45,1.37,3.75,3.75,0,0,1-1.82,1.57l-0.81.32a6.55,6.55,0,0,1-4.92,0,6.36,6.36,0,0,1-2.17-1.44,6.23,6.23,0,0,1-1.43-2.16,6.71,6.71,0,0,1,0-4.92A6.24,6.24,0,0,1,81.66,22" transform="translate(-0.35 0)" style="fill:#fff"/><g style="mask:url(#8b7f259b-325d-4248-91d4-2616f045e856)"><path d="M99.4,20.13a6.35,6.35,0,0,1,2.55.51A6.81,6.81,0,0,1,104,22a6.49,6.49,0,0,1,1.41,2.07,6.33,6.33,0,0,1,.51,2.55v4.29c0,1.24-.58,2.26-1.29,2.26s-1.29-1-1.29-2.26v-2c0-1.24,0-2.73-.1-3.31l-0.2-.48a3.94,3.94,0,0,0-3.66-2.4,3.87,3.87,0,0,0-1.53.3,4,4,0,0,0-2.1,2.1,3.83,3.83,0,0,0-.31,1.53v4.29c0,1.24-.58,2.26-1.29,2.26s-1.29-1-1.29-2.26V17.16c0-1.24.58-2.26,1.29-2.26s1.29,1,1.29,2.26v2c0,1.24.52,1.92,1.15,1.51l0.67-.23a6.4,6.4,0,0,1,2.11-.35" transform="translate(-0.35 0)" style="fill:#fff"/></g><path d="M17.37,20.15a6.38,6.38,0,0,1,2.55.51A6.8,6.8,0,0,1,22,22.05a6.48,6.48,0,0,1,1.41,2.07,6.34,6.34,0,0,1,.51,2.55V31c0,1.24-.58,2.26-1.29,2.26s-1.29-1-1.29-2.26v-2c0-1.24,0-2.73-.1-3.31L21,25.13a3.94,3.94,0,0,0-3.66-2.4,3.86,3.86,0,0,0-1.53.31,4,4,0,0,0-2.1,2.1,3.84,3.84,0,0,0-.31,1.53V31c0,1.24-.58,2.26-1.29,2.26s-1.29-1-1.29-2.26v-2c0-1.24,0-2.73-.1-3.31l-0.2-.48a4,4,0,0,0-3.66-2.4A3.86,3.86,0,0,0,5.34,23a4,4,0,0,0-2.1,2.1,3.84,3.84,0,0,0-.31,1.53V31c0,1.24-.58,2.26-1.29,2.26S0.35,32.2.35,31v-2c0-1.24.08-3.05,0.17-4l0.34-.78a6.54,6.54,0,0,1,3.48-3.46,6.44,6.44,0,0,1,2.54-.51,6.33,6.33,0,0,1,3,.71,6.59,6.59,0,0,1,2.26,1.93,6.55,6.55,0,0,1,2.27-1.94,6.34,6.34,0,0,1,3-.71m19.32,0c0.71,0,1.29,1,1.29,2.26v7.23c0,1.24-.08,3-0.17,4l-0.34.79a6.79,6.79,0,0,1-1.39,2.08A6.48,6.48,0,0,1,34,38a6.41,6.41,0,0,1-2.55.51,1.31,1.31,0,0,1-1.31-1.29,1.15,1.15,0,0,1,.66-1.29c0.36,0,1.13,0,1.71-.1l0.48-.2a3.91,3.91,0,0,0,2.1-2.1,3.92,3.92,0,0,0,.31-1.54s-0.52.31-1.16,0.72l-0.67.23a6.64,6.64,0,0,1-4.66-.16,6.62,6.62,0,0,1-3.52-3.51,6.37,6.37,0,0,1-.51-2.53V22.44c0-1.24.58-2.26,1.29-2.26s1.29,1,1.29,2.26v2c0,1.24,0,2.74.1,3.32l0.21,0.49a3.89,3.89,0,0,0,2.13,2.11,4,4,0,0,0,1.55.31A3.87,3.87,0,0,0,33,30.36,3.95,3.95,0,0,0,35.4,26.7V22.44c0-1.24.58-2.26,1.29-2.26M68.6,6.82a1.55,1.55,0,1,0,1.55,1.55A1.55,1.55,0,0,0,68.6,6.82" transform="translate(-0.35 0)" style="fill:#fff"/><path d="M83.9,9.94h0.35a0.53,0.53,0,1,1,0,1.05H83.9A1.92,1.92,0,0,1,82,9.07V6.81H81.28a0.53,0.53,0,0,1,0-1.05H82V4.89a0.53,0.53,0,0,1,1.05,0V5.76h1.22a0.53,0.53,0,1,1,0,1.05H83V9.07a0.87,0.87,0,0,0,.87.87M80.38,6.52a0.6,0.6,0,0,1-.29.29,1,1,0,0,1-.3,0,2.09,2.09,0,0,0-.52,0,0.79,0.79,0,0,0-.31.2,0.86,0.86,0,0,0-.26.39,2,2,0,0,0-.06.6v2.34a0.63,0.63,0,0,1-.07.25,0.7,0.7,0,0,1-.15.18,0.45,0.45,0,0,1-.16.11,0.5,0.5,0,0,1-.19,0,1,1,0,0,1-.27,0,0.48,0.48,0,0,1-.27-0.29,0.7,0.7,0,0,1,0-.26V6.34a0.66,0.66,0,0,1,0-.25,0.53,0.53,0,0,1,.11-0.18A0.5,0.5,0,0,1,78,5.77a0.47,0.47,0,0,1,.33.13,0.36,0.36,0,0,1,.08.12,1.06,1.06,0,0,1,0,.22,0.41,0.41,0,0,1,.13-0.2,2.45,2.45,0,0,1,1-.3,2.22,2.22,0,0,1,.39,0,0.6,0.6,0,0,1,.22.08,1,1,0,0,1,.19.2,0.67,0.67,0,0,1,.07.22,0.52,0.52,0,0,1,0,.26m-6,4.48A2.61,2.61,0,1,1,77,8.36,2.64,2.64,0,0,1,74.35,11M68.6,11a2.55,2.55,0,0,1-1.3-.35l-0.25-.15v2.05a0.52,0.52,0,1,1-1,0V6.88a2.26,2.26,0,0,1,.06-0.53,0.7,0.7,0,0,1,.15-0.24,0.67,0.67,0,0,1,.46-0.19,0.43,0.43,0,0,1,.15,0,0.4,0.4,0,0,1,.23.33l0.08-.06h0l0.11-.07L67.63,6l0.13,0a2.66,2.66,0,0,1,.84-0.14,2.59,2.59,0,1,1,0,5.18M65,10.06a1.54,1.54,0,0,1-.49.53,2.33,2.33,0,0,1-.73.32,3.68,3.68,0,0,1-.9.1,4.51,4.51,0,0,1-.82-0.07,3.31,3.31,0,0,1-.68-0.19,1.52,1.52,0,0,1-.46-0.29,0.48,0.48,0,0,1-.17-0.35,0.3,0.3,0,0,1,.11-0.24,0.42,0.42,0,0,1,.29-0.1,0.84,0.84,0,0,1,.28.07L61.84,10a4,4,0,0,0,.53.16,2.76,2.76,0,0,0,.62.07,1.85,1.85,0,0,0,.4,0A1.09,1.09,0,0,0,63.73,10,0.77,0.77,0,0,0,64,9.79a0.64,0.64,0,0,0,.09-0.35,0.49,0.49,0,0,0-.16-0.35,1.06,1.06,0,0,0-.46-0.25l-0.67-.17-0.63-.15a4.68,4.68,0,0,1-.56-0.18,1.56,1.56,0,0,1-.44-0.26,1.12,1.12,0,0,1-.29-0.38,1.28,1.28,0,0,1-.1-0.54,1.16,1.16,0,0,1,.16-0.59,1.36,1.36,0,0,1,.46-0.46,2.09,2.09,0,0,1,.69-0.27,3.92,3.92,0,0,1,.86-0.09,4.33,4.33,0,0,1,.84.07,2.53,2.53,0,0,1,.6.19,1,1,0,0,1,.36.26,0.47,0.47,0,0,1,.12.3,0.26,0.26,0,0,1-.11.22,0.47,0.47,0,0,1-.28.08H64.34l-0.12,0a1.91,1.91,0,0,0-.51-0.19A3.23,3.23,0,0,0,63,6.55a2.78,2.78,0,0,0-.45,0,1.11,1.11,0,0,0-.34.11A0.57,0.57,0,0,0,62,6.9a0.47,0.47,0,0,0-.08.23A0.4,0.4,0,0,0,62,7.4a0.78,0.78,0,0,0,.25.19,2,2,0,0,0,.38.14l0.47,0.11a10.43,10.43,0,0,1,1.07.3,1.64,1.64,0,0,1,.77.45,1.1,1.1,0,0,1,.28.77,1.4,1.4,0,0,1-.18.7m22.85,2L86.51,0.8a0.91,0.91,0,0,0-1-.79h0L75.05,1.26,58.19,3.34a0.91,0.91,0,0,0-.79,1h0l1.35,11.21a0.91,0.91,0,0,0,1,.79h0l12.78-1.56,0.35,2.92,2.57-3.28L87.06,13a0.91,0.91,0,0,0,.79-1h0M74.35,6.79h0" transform="translate(-0.35 0)" style="fill:#fff"/><circle cx="74" cy="8.36" r="1.67" style="fill:#fff"/></svg>