<svg id="ca9647e5-e6d2-4362-89fd-bc9210b335f8" xmlns="http://www.w3.org/2000/svg" xmlns:xlink="http://www.w3.org/1999/xlink" viewBox="0 0 479.59 219.72"><defs><mask id="c12cd9c5-41e7-4437-b193-7c01ba9be5e4"  maskUnits="userSpaceOnUse"><g transform="translate(0 0)"><g id="dc7cec3d-358d-4913-b0ed-73554be26b7b" data-name="b"><path id="3f9a105d-e352-4bf9-9951-1b8a301b306b" data-name="a" d="M420.21,67.76h59.39v83.15H420.21V67.76Z" style="fill:#fff"/></g></g></mask></defs><title>logo-ffvelo</title><path d="M344.14,143.85c-9.73,8.83-26.64,7.86-36.56-1.81a31,31,0,0,1-6.71-9.79,29.92,29.92,0,0,1,0-23.09,29.48,29.48,0,0,1,6.41-9.4,30.61,30.61,0,0,1,9.52-6.35,30,30,0,0,1,23.08,0,29.83,29.83,0,0,1,15.74,15.75,28.89,28.89,0,0,1,2.32,11.57v29.76s-5-1.62-7.83-4.71c-4.27-4.64-3.89-13.46-3.89-13.46V120.73a17.57,17.57,0,0,0-1.39-7,18.18,18.18,0,0,0-3.85-5.7,18,18,0,0,0-5.7-3.84,17.43,17.43,0,0,0-7-1.39,18.12,18.12,0,0,0-12.79,5.24,18.12,18.12,0,0,0-3.85,5.7,17.56,17.56,0,0,0-1.39,7,18.06,18.06,0,0,0,5.24,12.8,17.71,17.71,0,0,0,5.77,3.84c2.2,0.93,8.6,2.86,16.52-2.12l6.34,8.61h0Z" transform="translate(0 0)" style="fill:#223875"/><path d="M183.54,100.24a29,29,0,0,1,9.86-6.55,29.66,29.66,0,0,1,22.35,0,29.05,29.05,0,0,1,9.86,6.55,5.9,5.9,0,0,1,0,8.27c-2.26,2.29-5.05,3.24-6.22,2.11s-3.8-3.44-5.87-5.13l-2.2-.88a17.83,17.83,0,0,0-13.49,0,17.66,17.66,0,0,0-6,4,16.3,16.3,0,0,0-4,5.82,17.88,17.88,0,0,0,0,13.5,17.67,17.67,0,0,0,4,6,17.32,17.32,0,0,0,12.7,5.29,18.31,18.31,0,0,0,6.88-1.32,16.22,16.22,0,0,0,5.82-4,5.94,5.94,0,0,1,8.34.06c2.26,2.29,2.9,4.87,2.05,6.23s-2.69,3.83-8.25,7.15l-3.66,1.44a29.65,29.65,0,0,1-22.35,0,28.83,28.83,0,0,1-9.86-6.54,28.43,28.43,0,0,1-6.49-9.8A30.6,30.6,0,0,1,177,110a28.47,28.47,0,0,1,6.49-9.79m62.39,21.2A17.83,17.83,0,0,0,257,138.08a18.35,18.35,0,0,0,19.92-3.85,18.07,18.07,0,0,0,5.26-12.79,17.39,17.39,0,0,0-1.4-7,17.86,17.86,0,0,0-9.66-9.55,18.57,18.57,0,0,0-14.12,0,17.89,17.89,0,0,0-9.66,9.55,17.36,17.36,0,0,0-1.4,7m-11.58,0a28.77,28.77,0,0,1,2.33-11.58,29.66,29.66,0,0,1,15.84-15.73,30,30,0,0,1,23.14,0,31,31,0,0,1,9.48,6.34,29.55,29.55,0,0,1,6.43,9.39,29.86,29.86,0,0,1,0,23.09,29.89,29.89,0,0,1-6.43,9.52,30.35,30.35,0,0,1-9.48,6.42A29.65,29.65,0,0,1,243,142.47a30.34,30.34,0,0,1-6.36-9.52,28.87,28.87,0,0,1-2.33-11.5m134.9-21.2a29,29,0,0,1,9.85-6.55,29.69,29.69,0,0,1,22.36,0,29.16,29.16,0,0,1,9.86,6.55,5.9,5.9,0,0,1,0,8.27c-2.26,2.29-5.06,3.24-6.22,2.11s-3.8-3.44-5.87-5.13l-2.2-.88a17.9,17.9,0,0,0-19.45,4,16.39,16.39,0,0,0-4,5.82,17.86,17.86,0,0,0,0,13.5,17.82,17.82,0,0,0,4,6,17.33,17.33,0,0,0,12.71,5.29,18.3,18.3,0,0,0,6.88-1.32,16.27,16.27,0,0,0,5.82-4,6,6,0,0,1,8.34.06c2.25,2.29,2.85,4.85,2,6.23-1.19,2-2.44,4.05-8.25,7.15l-3.66,1.44a29.67,29.67,0,0,1-22.36,0,28.86,28.86,0,0,1-9.85-6.54,28.34,28.34,0,0,1-6.48-9.8,30.58,30.58,0,0,1,0-22.35,28.37,28.37,0,0,1,6.48-9.79" transform="translate(0 0)" style="fill:#464749"/><g style="mask:url(#c12cd9c5-41e7-4437-b193-7c01ba9be5e4)"><path d="M449.83,91.51a28.82,28.82,0,0,1,11.57,2.32,30.93,30.93,0,0,1,9.46,6.34,29.52,29.52,0,0,1,6.41,9.4,28.82,28.82,0,0,1,2.32,11.57v19.49c0,5.65-2.64,10.28-5.86,10.28s-5.87-4.62-5.87-10.28v-9.25c0-5.65-.21-12.42-0.46-15.06l-0.93-2.16a18,18,0,0,0-16.64-10.92,17.51,17.51,0,0,0-7,1.38,18,18,0,0,0-9.55,9.53,17.43,17.43,0,0,0-1.39,6.95v19.52c0,5.65-2.64,10.28-5.87,10.28s-5.86-4.62-5.86-10.28V78c0-5.65,2.64-10.27,5.86-10.27S431.94,72.38,432,78v9.27c0,5.65,2.37,8.73,5.24,6.85l3-1.05a29,29,0,0,1,9.59-1.59" transform="translate(0 0)" style="fill:#464749"/></g><path d="M77.29,91.61a28.87,28.87,0,0,1,11.57,2.31,30.81,30.81,0,0,1,9.46,6.35,29.44,29.44,0,0,1,6.42,9.4A28.86,28.86,0,0,1,107,121.23v19.5c0,5.65-2.64,10.27-5.86,10.27s-5.86-4.62-5.86-10.27v-9.25c0-5.65-.21-12.43-0.47-15.06l-0.93-2.16a18.15,18.15,0,0,0-3.85-5.7,18.07,18.07,0,0,0-12.79-5.22,17.5,17.5,0,0,0-7,1.39,18,18,0,0,0-9.54,9.54,17.46,17.46,0,0,0-1.39,7v19.53c0,5.64-2.63,10.26-5.86,10.26s-5.87-4.62-5.87-10.26v-9.26c0-5.65-.21-12.43-0.47-15.06l-0.93-2.17a18.07,18.07,0,0,0-3.85-5.69,18.08,18.08,0,0,0-12.79-5.23,17.51,17.51,0,0,0-7,1.39,18,18,0,0,0-9.55,9.54,17.46,17.46,0,0,0-1.39,6.95v19.52c0,5.65-2.64,10.26-5.86,10.26S0,146.39,0,140.74v-9.22c0-5.65.35-13.87,0.77-18.28l1.54-3.57A29.73,29.73,0,0,1,18.13,93.92a29.21,29.21,0,0,1,11.52-2.32,28.67,28.67,0,0,1,13.57,3.25,29.93,29.93,0,0,1,10.26,8.8A29.77,29.77,0,0,1,63.8,94.85a28.74,28.74,0,0,1,13.49-3.24M165,91.74c3.23,0,5.86,4.62,5.86,10.28v32.87c0,5.65-.35,13.87-0.77,18.26l-1.54,3.57a30.89,30.89,0,0,1-6.32,9.45,29.41,29.41,0,0,1-9.38,6.42,29.1,29.1,0,0,1-11.58,2.32,5.93,5.93,0,0,1-6-5.87c0-3.23,1.34-5.87,3-5.87s5.13-.2,7.76-0.46l2.16-.92a17.76,17.76,0,0,0,9.52-9.57,17.87,17.87,0,0,0,1.39-7c0-.07-2.36,1.41-5.25,3.3l-3.05,1.06a30.06,30.06,0,0,1-21.18-.73,30.11,30.11,0,0,1-16-15.93,29,29,0,0,1-2.32-11.52V102c0-5.65,2.64-10.27,5.86-10.27s5.86,4.62,5.86,10.27v9.12c0,5.65.21,12.44,0.46,15.08l0.93,2.21a18,18,0,0,0,16.71,11,17.63,17.63,0,0,0,7-1.39,17.93,17.93,0,0,0,11-16.62V102c0-5.65,2.63-10.28,5.87-10.28" transform="translate(0 0)" style="fill:#464749"/><path d="M397.4,54.6l-6.11-51A4.12,4.12,0,0,0,386.71,0h0L339.25,5.72l-76.57,9.45a4.13,4.13,0,0,0-3.61,4.59h0l6.11,51a4.12,4.12,0,0,0,4.58,3.6h0l58-7.08,1.59,13.28,11.68-14.9,52.73-6.44a4.13,4.13,0,0,0,3.61-4.59" transform="translate(0 0)" style="fill:#223875"/><path d="M366.22,41.5a8.21,8.21,0,0,1-4.63,5,11.44,11.44,0,0,1-8.21,0,8.26,8.26,0,0,1-2.9-2,8.43,8.43,0,0,1-1.72-3,10.23,10.23,0,0,1-.57-3.29,10.42,10.42,0,0,1,.57-3.32,8.4,8.4,0,0,1,1.72-3,8.25,8.25,0,0,1,2.9-2,11.42,11.42,0,0,1,8.21,0,8.18,8.18,0,0,1,4.63,5,10.38,10.38,0,0,1,.57,3.32A10.24,10.24,0,0,1,366.22,41.5ZM344.71,45a2,2,0,0,1-1.34,1.92,2.29,2.29,0,0,1-.77.13,2.42,2.42,0,0,1-.76-0.12,1.8,1.8,0,0,1-.65-0.38,1.92,1.92,0,0,1-.46-0.65,2.16,2.16,0,0,1-.18-0.91V23.64a2.12,2.12,0,0,1,.18-0.9,1.91,1.91,0,0,1,.47-0.64,2,2,0,0,1,.67-0.39,2.33,2.33,0,0,1,.77-0.13,2.27,2.27,0,0,1,.76.13,1.93,1.93,0,0,1,1.14,1,2.13,2.13,0,0,1,.18.9V45h0Zm-8.39-6.55a1.18,1.18,0,0,1-.95.36H323.3a5.91,5.91,0,0,0,1.59,4,5.1,5.1,0,0,0,3.77,1.42,8.87,8.87,0,0,0,2.71-.41A17.69,17.69,0,0,0,334,42.73a1.35,1.35,0,0,1,.6-0.16,1,1,0,0,1,.77.35,1.24,1.24,0,0,1,.29.82,1.56,1.56,0,0,1-.06.42,1.34,1.34,0,0,1-.2.42A5.32,5.32,0,0,1,334,45.82a8.28,8.28,0,0,1-1.78.83,11.63,11.63,0,0,1-2,.47,13.58,13.58,0,0,1-2,.15,10,10,0,0,1-3.6-.64,8.3,8.3,0,0,1-2.9-1.85,8.54,8.54,0,0,1-1.93-3,10,10,0,0,1-.7-3.68,8.93,8.93,0,0,1,.66-3.28,9,9,0,0,1,4.55-4.94,8.36,8.36,0,0,1,3.73-.79,9.41,9.41,0,0,1,3.77.69,7.7,7.7,0,0,1,2.64,1.84,7.62,7.62,0,0,1,1.6,2.76,10.77,10.77,0,0,1,.58,3.22,1.26,1.26,0,0,1-.31.84h0Zm-19.39-7a1.34,1.34,0,0,1-.09.35l-4.77,12.27a8.7,8.7,0,0,1-.64,1.34,3.74,3.74,0,0,1-.76.92,2.87,2.87,0,0,1-.95.54,3.72,3.72,0,0,1-1.2.18,3.65,3.65,0,0,1-1.19-.18,2.78,2.78,0,0,1-.93-0.54,3.84,3.84,0,0,1-.75-0.92,9.9,9.9,0,0,1-.66-1.34l-4.93-12.29a1.74,1.74,0,0,1-.12-0.67,1.57,1.57,0,0,1,.18-0.74,1.84,1.84,0,0,1,.47-0.58,2.06,2.06,0,0,1,.66-0.36,2.41,2.41,0,0,1,.76-0.12,1.81,1.81,0,0,1,1.06.34,2.27,2.27,0,0,1,.76,1.06L308.53,43,313,30.73a2.12,2.12,0,0,1,.76-1.08,1.93,1.93,0,0,1,1.1-.34,2.37,2.37,0,0,1,.74.12,2.1,2.1,0,0,1,.67.36,1.86,1.86,0,0,1,.47.58,1.57,1.57,0,0,1,.18.74c0,0.11,0,.22,0,0.34h0Zm7.31-5.62,4.47-5.57a1.49,1.49,0,0,1,.56-0.5,1.43,1.43,0,0,1,.63-0.15,1.76,1.76,0,0,1,.73.16,2.19,2.19,0,0,1,.63.42,2.32,2.32,0,0,1,.45.61,1.52,1.52,0,0,1,.18.7,1.41,1.41,0,0,1-.46,1L325.82,27a1.31,1.31,0,0,1-.83.34,0.9,0.9,0,0,1-.67-0.27,0.93,0.93,0,0,1-.27-0.67,1.1,1.1,0,0,1,.2-0.6h0Z" transform="translate(0 0)" style="fill:#fff"/><path d="M331.59,33.24a3.85,3.85,0,0,0-1.49-1,5.43,5.43,0,0,0-2-.35,4.59,4.59,0,0,0-1.87.37,4.07,4.07,0,0,0-1.45,1.08,5.75,5.75,0,0,0-1,1.65,6.29,6.29,0,0,0-.44,1.72h9.61a7.25,7.25,0,0,0-.41-1.81,4.83,4.83,0,0,0-.95-1.64m29.66,0.65a4.54,4.54,0,0,0-1.52-1.47,4.85,4.85,0,0,0-4.49,0,4.52,4.52,0,0,0-1.52,1.47,6.62,6.62,0,0,0-.87,2.1,9.17,9.17,0,0,0,0,4.45,6.52,6.52,0,0,0,.87,2.09A4.55,4.55,0,0,0,355.24,44a4.85,4.85,0,0,0,4.49,0,4.57,4.57,0,0,0,1.52-1.46,6.52,6.52,0,0,0,.87-2.09,9.14,9.14,0,0,0,0-4.45,6.62,6.62,0,0,0-.87-2.1" transform="translate(0 0)" style="fill:#223875"/><path d="M317.74,200.8a9.08,9.08,0,0,0,1,4.9,4.47,4.47,0,0,0,3.9,2.25,4,4,0,0,0,3.18-1.6q1.32-1.6,1.32-5,0-3.66-1.33-5.28a4.19,4.19,0,0,0-3.4-1.62,4.25,4.25,0,0,0-3.37,1.58,7.24,7.24,0,0,0-1.35,4.79h0Zm-5.61,11.13V182.47h5.65v10.61a8,8,0,0,1,6.19-3,8.32,8.32,0,0,1,6.45,2.82Q333,195.75,333,201q0,5.47-2.6,8.42a8.12,8.12,0,0,1-6.32,3,7.82,7.82,0,0,1-3.61-.91,8.62,8.62,0,0,1-3.06-2.7v3.13h-5.25ZM334,190.59h6l5.1,15.15,4.42-15.15h5.85l-7.53,20.54-1.35,3.72c-0.57,1.43-1.38,3.62-2.86,4.36a4,4,0,0,1-1.28.33,21.79,21.79,0,0,1-6.11-.07l0-4.6,2,0c1.31,0,1.86.14,2.43-.54a3.62,3.62,0,0,0,.75-1.86,1.87,1.87,0,0,0-.05-1.05L334,190.59h0Zm34,24.93V173.14h29v7.17H376.47v10h17.69v7.17H376.47v18h-8.56Zm37.64,0V173.14h29v7.17H414.11v10H431.8v7.17H414.11v18h-8.56Zm64.69-15.58c0-.24.07-1,0.07-1h8.91s-0.48,2.7-.69,3.59a17.51,17.51,0,0,1-6.34,10.31,20,20,0,0,1-25.13-2.4q-5.43-5.77-5.43-15.77,0-10.58,5.46-16.43t14.36-5.85q7.77,0,12.63,4.6a15,15,0,0,1,4.33,7.8c0.11,0.51.34,2.07,0.34,2.07l-8.81-.05a8.75,8.75,0,0,0-8.93-7.11,9.64,9.64,0,0,0-7.64,3.38q-2.93,3.38-2.93,11,0,8,2.89,11.45a9.38,9.38,0,0,0,7.51,3.41,8.57,8.57,0,0,0,5.87-2.17,11,11,0,0,0,3.53-6.82" transform="translate(0 0)" style="fill:#464749"/></svg>