<svg xmlns="http://www.w3.org/2000/svg" width="84" height="84" viewBox="0 0 84 84">
    <g fill="none" fill-rule="evenodd" transform="translate(2 2)">
        <circle cx="40" cy="40" r="40" stroke="#090909" stroke-width="3"/>
        <path fill="#090909" fill-rule="nonzero" d="M54.18 47.49c.329-2.332.31-3.754.212-5.476l2.892-6.665h.177c.388 1.486.596 3.044.596 4.651 0 3.163-.804 6.142-2.22 8.74l-1.657-1.25zm-10.342 9.89l4.754-5.44c2.179-1.178 3.356-1.97 5.006-3.305l1.59 1.199c-2.448 3.832-6.284 6.688-10.787 7.85l-.563-.304zm-11.346-6.39l2.607-3.162h8.795l3.272 3.821c-5.18 5.93-4.604 5.27-4.787 5.487-2.451.286-3.875.117-6.345-.059l-3.542-6.088zm2.203 6.497c-4.49-1.354-8.257-4.408-10.552-8.418l1.771-.952c1.441 1.188 3.169 2.212 5.316 3.215l3.55 6.103-.085.052zM22.425 35.02h.128l2.808 6.147.057-.027a31.595 31.595 0 0 0-.005 5.808l-1.86.998A18.207 18.207 0 0 1 21.738 40c0-1.726.24-3.395.686-4.979zm4.593-6.704l6.43-.727 1.711 4.786-4.393 7.672-4.413.249-2.734-5.978c1.04-2.306 1.99-4.02 3.383-6.127l.016.125zm.41-1.573c3.114-2.958 7.265-4.826 11.839-4.983v1.755c-2.108.821-3.51 1.417-5.478 2.76l-6.361.719v-.251zm19.98 14.407c-1.046 2.125-2.142 3.445-3.514 5.41h-8.548c-1.588-3.064-1.78-3.402-3.403-6.026l4.262-7.444c2.137-.171 4.405-.328 6.73-.056l4.472 8.116zm-6.88-19.39c4.717.163 8.981 2.14 12.122 5.259l-.085.453-7.051-.915c-1.454-1.264-2.877-2.208-4.985-3.046v-1.75zM53.43 41.055l-4.977-.625-4.38-7.947 1.902-4.588 6.833.89c1.376 2.079 2.272 3.662 3.407 5.856l-2.785 6.414zM19.636 40c0 11.227 9.089 20.364 20.263 20.364C51.07 60.364 60.16 51.227 60.16 40c0-11.23-9.09-20.364-20.262-20.364-11.174 0-20.263 9.134-20.263 20.364z"/>
    </g>
</svg>
