<?xml version="1.0" standalone="no"?>
<!DOCTYPE svg PUBLIC "-//W3C//DTD SVG 1.1//EN" "http://www.w3.org/Graphics/SVG/1.1/DTD/svg11.dtd" >
<svg>
<metadata>
Created by FontForge 20110222 at Tue Jul 23 08:26:12 2013
 By Orthosie Webhosting
Copyright (c) ARS Type :-Angus R. Shamal, 1999-2010. All rights reserved.
</metadata>
<defs>
<font id="ARSMaquetteProMedium" horiz-adv-x="587" >
  <font-face 
    font-family="ARSMaquetteProMedium"
    font-weight="500"
    font-stretch="normal"
    units-per-em="1000"
    panose-1="2 0 6 3 0 0 0 2 0 4"
    ascent="800"
    descent="-200"
    x-height="525"
    cap-height="666"
    bbox="-157 -200 1260 997"
    underline-thickness="50"
    underline-position="-50"
    unicode-range="U+0020-1F698"
  />
<missing-glyph horiz-adv-x="574" 
d="M40 0v667h494v-667h-494zM504 637h-416l416 -581v581zM70 611v-581h415z" />
    <glyph glyph-name="f_f" unicode="ff" horiz-adv-x="685" 
d="M685 714l-13 -88q-38 10 -61 10q-35 0 -52 -14t-17 -47v-50h118v-85h-118v-440h-110v440h-212v-440h-111v440h-87v85h87v47q0 73 44.5 113t124.5 40q55 0 85 -11l-13 -88q-38 10 -62 10q-35 0 -51.5 -14t-16.5 -47v-50h212v47q0 73 44 113t124 40q55 0 85 -11z" />
    <glyph glyph-name="fi" unicode="fi" horiz-adv-x="609" 
d="M363 714l-13 -88q-38 10 -63 10q-34 0 -50.5 -14t-16.5 -47v-50h118v-85h-118v-440h-111v440h-87v85h87v47q0 73 44.5 113t124.5 40q55 0 85 -11zM536 0h-110v525h110v-525zM536 610h-110v104h110v-104z" />
    <glyph glyph-name="fl" unicode="fl" horiz-adv-x="613" 
d="M363 714l-13 -88q-38 10 -63 10q-34 0 -50.5 -14t-16.5 -47v-50h118v-85h-118v-440h-111v440h-87v85h87v47q0 73 44.5 113t124.5 40q55 0 85 -11zM539 0h-110v714h110v-714z" />
    <glyph glyph-name="f_j" unicode="fj" horiz-adv-x="616" 
d="M363 714l-13 -88q-38 10 -63 10q-34 0 -50.5 -14t-16.5 -47v-50h118v-85h-118v-440h-111v440h-87v85h87v47q0 73 44.5 113t124.5 40q55 0 85 -11zM543 525v-520q0 -92 -48.5 -139.5t-131.5 -47.5q-54 0 -94 20l30 86q26 -12 54 -12q79 0 79 90v523h111zM543 610h-111v104
h111v-104z" />
    <glyph glyph-name=".notdef" horiz-adv-x="574" 
d="M40 0v667h494v-667h-494zM504 637h-416l416 -581v581zM70 611v-581h415z" />
    <glyph glyph-name=".null" horiz-adv-x="0" 
 />
    <glyph glyph-name="nonmarkingreturn" horiz-adv-x="333" 
 />
    <glyph glyph-name="space" unicode=" " horiz-adv-x="270" 
 />
    <glyph glyph-name="exclam" unicode="!" horiz-adv-x="278" 
d="M200 513l-32 -304h-58l-32 304v153h122v-153zM200 0h-122v125h122v-125z" />
    <glyph glyph-name="quotedbl" unicode="&#x22;" horiz-adv-x="419" 
d="M374 628l-35 -222h-54l-35 222v38h124v-38zM169 628l-35 -222h-54l-35 222v38h124v-38z" />
    <glyph glyph-name="numbersign" unicode="#" horiz-adv-x="639" 
d="M601 415h-124l-29 -163h113v-66h-125l-33 -186h-74l34 186h-140l-33 -186h-73l33 186h-113v66h124l30 163h-113v66h124l34 185h73l-33 -185h139l34 185h73l-34 -185h113v-66zM404 415h-140l-29 -163h140z" />
    <glyph glyph-name="dollar" unicode="$" 
d="M331 -96h-56v85q-174 11 -248 145l90 50q49 -89 158 -103v211q-43 9 -75.5 21t-67.5 34t-54.5 57.5t-19.5 83.5q0 84 59.5 135t157.5 55v64h56v-66q133 -15 207 -120l-81 -52q-50 63 -126 78v-190q46 -11 80.5 -24.5t68.5 -36t52.5 -58t18.5 -81.5q0 -83 -59 -138.5
t-161 -64.5v-85zM444 182q0 42 -28 63t-85 35v-199q53 4 83 30.5t30 70.5zM166 499q0 -40 26.5 -59.5t82.5 -34.5v181q-48 -2 -78.5 -23.5t-30.5 -63.5z" />
    <glyph glyph-name="percent" unicode="%" horiz-adv-x="778" 
d="M361 508q0 -72 -46 -120t-117 -48t-117 48t-46 120q0 71 46 119t117 48t117 -48t46 -119zM607 666l-350 -666h-85l349 666h86zM744 159q0 -72 -46 -120t-117 -48q-70 0 -116.5 48t-46.5 120q0 71 46.5 119t116.5 48q71 0 117 -48t46 -119zM285 508q0 40 -24 66t-63 26
t-63.5 -26t-24.5 -66t24.5 -66.5t63.5 -26.5q38 0 62.5 26.5t24.5 66.5zM669 159q0 39 -24.5 65.5t-63.5 26.5t-63 -26t-24 -66t24.5 -66.5t62.5 -26.5q39 0 63.5 26.5t24.5 66.5z" />
    <glyph glyph-name="ampersand" unicode="&#x26;" horiz-adv-x="685" 
d="M538 318l97 -23q-28 -95 -87 -167l127 -128h-145l-58 58q-92 -70 -204 -70q-103 0 -170.5 51t-67.5 140q0 124 148 186q-38 42 -55 75.5t-17 74.5q0 78 53.5 120.5t139.5 42.5q83 0 136 -41.5t53 -113.5q0 -111 -151 -180l144 -146q41 60 57 121zM281 81q69 0 126 45
l-173 179q-93 -44 -93 -113q0 -49 39 -80t101 -31zM391 518q0 36 -26 56.5t-65 20.5q-38 0 -64.5 -20.5t-26.5 -57.5q0 -29 16.5 -53.5t52.5 -61.5q55 26 84 52t29 64z" />
    <glyph glyph-name="quotesingle" unicode="'" horiz-adv-x="213" 
d="M168 628l-35 -222h-54l-34 222v38h123v-38z" />
    <glyph glyph-name="parenleft" unicode="(" horiz-adv-x="297" 
d="M278 -74l-68 -50q-173 188 -173 427q0 240 173 427l68 -50q-144 -164 -144 -377t144 -377z" />
    <glyph glyph-name="parenright" unicode=")" horiz-adv-x="297" 
d="M19 680l69 50q172 -189 172 -427q0 -240 -172 -427l-69 50q145 164 145 377t-145 377z" />
    <glyph glyph-name="asterisk" unicode="*" horiz-adv-x="453" 
d="M244 470q21 -86 21 -162h-78q0 72 22 162q-69 -66 -129 -99l-39 67q37 22 66 34t85 28q-90 27 -151 62l39 68q37 -21 62 -40.5t67 -59.5q-22 90 -22 162h78q0 -76 -21 -162q68 66 128 100l40 -68q-62 -35 -151 -62q89 -26 151 -62l-40 -67q-59 34 -128 99z" />
    <glyph glyph-name="plus" unicode="+" 
d="M539 257h-198v-198h-95v198h-198v94h198v199h95v-199h198v-94z" />
    <glyph glyph-name="comma" unicode="," horiz-adv-x="258" 
d="M193 126v-106q0 -106 -93 -180l-38 43q62 45 62 101v16h-59v126h128z" />
    <glyph glyph-name="hyphen" unicode="-" horiz-adv-x="400" 
d="M342 232h-284v98h284v-98z" />
    <glyph glyph-name="period" unicode="." horiz-adv-x="258" 
d="M193 0h-128v126h128v-126z" />
    <glyph glyph-name="slash" unicode="/" horiz-adv-x="373" 
d="M343 714l-220 -822h-91l220 822h91z" />
    <glyph glyph-name="zero" unicode="0" 
d="M543 334q0 -54 -7.5 -102t-25.5 -93.5t-46 -78.5t-72 -52.5t-100 -19.5t-99.5 19.5t-71 52.5t-45.5 78.5t-25.5 93.5t-7.5 102t7.5 102t25.5 93.5t45.5 78t71 52t99.5 19.5q69 0 120 -29t78.5 -80t40 -109.5t12.5 -126.5zM423 334q0 247 -131 247t-131 -247
q0 -249 131 -249t131 249z" />
    <glyph glyph-name="one" unicode="1" 
d="M531 0h-435v97h164v438q-68 -33 -164 -44l-14 90q147 27 206 85h88v-569h155v-97z" />
    <glyph glyph-name="two" unicode="2" 
d="M539 0h-481v83q188 151 260.5 232t72.5 149q0 53 -32 81.5t-84 28.5q-91 0 -141 -89l-93 54q89 139 244 139q100 0 164.5 -56.5t64.5 -151.5q0 -86 -67 -170t-220 -198h312v-102z" />
    <glyph glyph-name="three" unicode="3" 
d="M282 295h-54v97h56q56 0 85.5 26t29.5 69q0 42 -29.5 65.5t-82.5 23.5q-98 0 -151 -82l-88 55q90 129 245 129q99 0 161.5 -50t62.5 -128q0 -100 -98 -147q57 -22 87.5 -64.5t30.5 -96.5q0 -87 -67 -145.5t-180 -58.5q-183 0 -259 148l102 48q45 -94 157 -94
q60 0 93.5 29t33.5 78q0 46 -34 72t-101 26z" />
    <glyph glyph-name="four" unicode="4" 
d="M557 149h-94v-149h-114v149h-319v91q62 110 95.5 224.5t33.5 201.5h114q0 -87 -35.5 -200.5t-97.5 -217.5h209v277h114v-277h94v-99z" />
    <glyph glyph-name="five" unicode="5" 
d="M282 91q61 0 98.5 34.5t37.5 92.5q0 57 -36 90.5t-99 33.5q-85 0 -135 -62l-70 32l23 354h400v-106h-306l-15 -163q54 38 133 38q97 0 161 -59t64 -156q0 -96 -67 -164t-185 -68q-169 0 -247 133l97 55q45 -85 146 -85z" />
    <glyph glyph-name="six" unicode="6" 
d="M440 666q-76 -59 -141.5 -130.5t-93.5 -134.5q44 45 132 45q93 0 153.5 -61t60.5 -160q0 -105 -69 -171t-182 -66q-116 0 -183.5 66t-67.5 186q0 208 227 426h164zM169 223q0 -60 34.5 -96t97.5 -36q61 0 95 36t34 96t-34 95.5t-95 35.5q-62 0 -97 -36t-35 -95z" />
    <glyph glyph-name="seven" unicode="7" 
d="M542 666v-84q-262 -348 -266 -582h-129q10 241 258 564h-359v102h496z" />
    <glyph glyph-name="eight" unicode="8" 
d="M294 84q61 0 96 29.5t35 83.5q0 53 -34 82.5t-97 29.5t-97.5 -29.5t-34.5 -82.5q0 -54 35 -83.5t97 -29.5zM293 397q51 0 81 24t30 68t-30 68.5t-80 24.5q-51 0 -81 -24.5t-30 -68.5t29.5 -68t80.5 -24zM294 -12q-118 0 -185.5 56.5t-67.5 144.5q0 57 30 101.5t87 67.5
q-93 46 -93 143q0 80 65.5 128.5t163.5 48.5t163 -48.5t65 -128.5q0 -97 -93 -143q57 -23 87 -67.5t30 -101.5q0 -88 -67.5 -144.5t-184.5 -56.5z" />
    <glyph glyph-name="nine" unicode="9" 
d="M146 0q76 58 141.5 129.5t94.5 134.5q-44 -44 -132 -44q-93 0 -154 60.5t-61 160.5q0 105 69.5 171t182.5 66q115 0 183 -66t68 -186q0 -116 -60.5 -219t-167.5 -207h-164zM418 443q0 60 -34.5 96t-97.5 36q-62 0 -95.5 -35.5t-33.5 -96.5q0 -60 33.5 -95.5t95.5 -35.5
t97 36t35 95z" />
    <glyph glyph-name="colon" unicode=":" horiz-adv-x="296" 
d="M212 0h-128v126h128v-126zM212 399h-128v126h128v-126z" />
    <glyph glyph-name="semicolon" unicode=";" horiz-adv-x="296" 
d="M212 126v-106q0 -106 -93 -180l-38 43q62 45 62 101v16h-59v126h128zM212 399h-128v126h128v-126z" />
    <glyph glyph-name="less" unicode="&#x3c;" 
d="M458 82l-65 -65l-290 288l290 289l65 -65l-222 -224z" />
    <glyph glyph-name="equal" unicode="=" 
d="M539 358h-491v94h491v-94zM539 156h-491v95h491v-95z" />
    <glyph glyph-name="greater" unicode="&#x3e;" 
d="M484 305l-290 -288l-65 65l224 223l-224 224l65 65z" />
    <glyph glyph-name="question" unicode="?" horiz-adv-x="531" 
d="M486 474q0 -87 -57 -142t-147 -70v-53h-109v148q18 -5 44 -5q67 0 108 31t41 87q0 48 -33 77t-89 29q-84 0 -150 -61l-64 76q101 88 225 88q101 0 166 -55.5t65 -149.5zM292 0h-128v118h128v-118z" />
    <glyph glyph-name="at" unicode="@" horiz-adv-x="848" 
d="M532 168q-46 -68 -132 -68q-78 0 -125 56t-47 142q0 87 47 143t126 56q66 0 111 -52v44h90v-267q0 -62 56 -62q43 0 66 38.5t23 102.5q0 138 -86.5 227.5t-229.5 89.5q-141 0 -229 -92t-88 -225q0 -134 88 -225.5t229 -91.5q91 0 159 43l29 -54q-90 -49 -192 -49
q-170 0 -277.5 107.5t-107.5 269.5q0 160 108 269t279 109q169 0 276 -108t107 -264q0 -93 -44.5 -149t-120.5 -56q-84 0 -115 66zM512 298q0 53 -25.5 87t-71.5 34q-45 0 -69.5 -34t-24.5 -87q0 -52 24.5 -86t70.5 -34t71 34t25 86z" />
    <glyph glyph-name="A" unicode="A" horiz-adv-x="676" 
d="M668 0h-131l-63 170h-276l-63 -170h-127l261 666h138zM442 268l-105 295l-108 -295h213z" />
    <glyph glyph-name="B" unicode="B" horiz-adv-x="666" 
d="M621 192q0 -86 -58.5 -139t-166.5 -53h-313v666h292q105 0 162.5 -43t57.5 -121q0 -97 -87 -143q113 -47 113 -167zM477 485q0 78 -108 78h-169v-167h173q49 0 76.5 23.5t27.5 65.5zM500 200q0 45 -27.5 72.5t-79.5 27.5h-193v-197h190q52 0 81 25.5t29 71.5z" />
    <glyph glyph-name="C" unicode="C" horiz-adv-x="677" 
d="M643 533l-92 -59q-62 100 -178 100q-94 0 -151 -66t-57 -173q0 -109 56.5 -176t150.5 -67q114 0 178 105l97 -56q-94 -153 -276 -153q-146 0 -237 96.5t-91 249.5q0 151 90.5 247.5t236.5 96.5q179 0 273 -145z" />
    <glyph glyph-name="D" unicode="D" horiz-adv-x="721" 
d="M201 106h146q100 0 154 61t54 166t-54 166t-154 61h-146v-454zM347 0h-264v666h264q155 0 242.5 -93t87.5 -240t-87.5 -240t-242.5 -93z" />
    <glyph glyph-name="E" unicode="E" horiz-adv-x="621" 
d="M578 0h-495v666h485v-102h-368v-162h320v-102h-320v-198h378v-102z" />
    <glyph glyph-name="F" unicode="F" horiz-adv-x="605" 
d="M577 564h-377v-172h319v-102h-319v-290h-117v666h494v-102z" />
    <glyph glyph-name="G" unicode="G" horiz-adv-x="722" 
d="M373 678q178 0 271 -143l-96 -58q-58 97 -176 97q-97 0 -152 -66t-55 -174q0 -112 56 -177t154 -65q79 0 132 42.5t60 116.5h-184v102h299q5 -23 5 -54q0 -133 -84 -222t-230 -89q-149 0 -239.5 96.5t-90.5 249.5q0 154 90.5 249t239.5 95z" />
    <glyph glyph-name="H" unicode="H" horiz-adv-x="731" 
d="M648 0h-118v299h-330v-299h-117v666h117v-262h330v262h118v-666z" />
    <glyph glyph-name="I" unicode="I" horiz-adv-x="282" 
d="M199 0h-116v666h116v-666z" />
    <glyph glyph-name="J" unicode="J" horiz-adv-x="514" 
d="M437 217q0 -110 -61 -169.5t-164 -59.5q-143 0 -206 115l95 57q39 -67 112 -67q107 0 107 122v451h117v-449z" />
    <glyph glyph-name="K" unicode="K" horiz-adv-x="659" 
d="M663 0h-139l-215 304l-110 -123v-181h-116v666h116v-333l297 333h141l-248 -277z" />
    <glyph glyph-name="L" unicode="L" horiz-adv-x="572" 
d="M557 0h-474v666h116v-560h358v-106z" />
    <glyph glyph-name="M" unicode="M" horiz-adv-x="887" 
d="M804 0h-114v543l-198 -543h-98l-197 542v-542h-114v666h172l190 -520l190 520h169v-666z" />
    <glyph glyph-name="N" unicode="N" horiz-adv-x="731" 
d="M648 0h-140l-313 516v-516h-112v666h148l305 -504v504h112v-666z" />
    <glyph glyph-name="O" unicode="O" horiz-adv-x="746" 
d="M704 333q0 -149 -90.5 -247t-240.5 -98t-240.5 98t-90.5 247t90.5 247t240.5 98t240.5 -98t90.5 -247zM582 333q0 105 -56.5 171t-152.5 66q-97 0 -153 -66t-56 -171t56 -171t153 -66q96 0 152.5 66t56.5 171z" />
    <glyph glyph-name="P" unicode="P" horiz-adv-x="640" 
d="M615 452q0 -98 -64 -155.5t-178 -57.5h-173v-239h-117v666h290q113 0 177.5 -58t64.5 -156zM200 341h172q60 0 91.5 29t31.5 82q0 54 -31.5 83t-91.5 29h-172v-223z" />
    <glyph glyph-name="Q" unicode="Q" horiz-adv-x="746" 
d="M704 334q0 -161 -103 -259l74 -88l-77 -64l-79 96q-67 -31 -146 -31q-150 0 -240.5 98t-90.5 248q0 149 90.5 246.5t240.5 97.5t240.5 -97.5t90.5 -246.5zM582 334q0 104 -56.5 170t-152.5 66q-97 0 -153 -66t-56 -170q0 -105 56 -171.5t153 -66.5q41 0 71 15l-66 81
l73 59l73 -87q58 64 58 170z" />
    <glyph glyph-name="R" unicode="R" horiz-adv-x="666" 
d="M633 0h-131l-134 255h-168v-255h-117v666h299q109 0 171 -55t62 -146q0 -68 -37.5 -117t-95.5 -71zM495 458q0 49 -32 77.5t-84 28.5h-179v-211h181q51 0 82.5 28.5t31.5 76.5z" />
    <glyph glyph-name="S" unicode="S" horiz-adv-x="616" 
d="M302 678q172 0 261 -124l-88 -59q-63 84 -177 84q-54 0 -87.5 -21t-33.5 -64q0 -18 8.5 -32.5t19 -23t34.5 -16.5t38.5 -12t47.5 -11q58 -12 96 -24.5t77 -35t58 -57.5t19 -84q0 -94 -71 -152t-192 -58q-97 0 -171 39.5t-113 108.5l94 55q63 -104 197 -104q63 0 101 26
t38 72q0 21 -9.5 36.5t-20.5 24.5t-38.5 18t-43.5 12.5t-55 11.5q-41 8 -71 17t-62 25t-52 35.5t-33 50t-13 68.5q0 90 67 142t175 52z" />
    <glyph glyph-name="T" unicode="T" horiz-adv-x="610" 
d="M583 564h-220v-564h-117v564h-219v102h556v-102z" />
    <glyph glyph-name="U" unicode="U" horiz-adv-x="711" 
d="M635 666v-413q0 -123 -77.5 -194t-202.5 -71q-126 0 -202.5 71t-76.5 194v413h117v-413q0 -73 42.5 -115t119.5 -42q76 0 120 42t44 115v413h116z" />
    <glyph glyph-name="V" unicode="V" horiz-adv-x="644" 
d="M512 666h125l-252 -666h-125l-253 666h127l188 -529z" />
    <glyph glyph-name="W" unicode="W" horiz-adv-x="950" 
d="M929 666l-186 -666h-129l-140 496l-141 -496h-130l-180 666h125l126 -509l148 509h108l147 -511l126 511h126z" />
    <glyph glyph-name="X" unicode="X" horiz-adv-x="660" 
d="M659 0h-142l-188 262l-187 -262h-141l255 347l-234 319h141l168 -241l169 241h137l-232 -319z" />
    <glyph glyph-name="Y" unicode="Y" horiz-adv-x="632" 
d="M631 666l-257 -400v-266h-117v266l-255 400h137l178 -294l179 294h135z" />
    <glyph glyph-name="Z" unicode="Z" horiz-adv-x="613" 
d="M572 0h-533v92l370 472h-355v102h509v-88l-372 -476h381v-102z" />
    <glyph glyph-name="bracketleft" unicode="[" horiz-adv-x="308" 
d="M298 -108h-223v822h223v-78h-127v-666h127v-78z" />
    <glyph glyph-name="backslash" unicode="\" horiz-adv-x="373" 
d="M341 -108h-91l-220 822h91z" />
    <glyph glyph-name="bracketright" unicode="]" horiz-adv-x="309" 
d="M234 -108h-224v78h128v666h-128v78h224v-822z" />
    <glyph glyph-name="asciicircum" unicode="^" 
d="M566 436l-65 -66l-206 207l-208 -207l-65 66l230 230h84z" />
    <glyph glyph-name="underscore" unicode="_" horiz-adv-x="597" 
d="M597 -125h-597v50h597v-50z" />
    <glyph glyph-name="grave" unicode="`" horiz-adv-x="321" 
d="M244 604l-42 -29q-44 24 -85 63.5t-57 75.5l98 16q25 -53 86 -126z" />
    <glyph glyph-name="a" unicode="a" horiz-adv-x="575" 
d="M563 5q-26 -13 -68 -13q-39 0 -68 19.5t-37 58.5q-57 -82 -175 -82q-82 0 -131 43t-49 119q0 37 13.5 65.5t32 44.5t49 27t54 15t56.5 8q36 4 54 7t39.5 9.5t30.5 19t9 30.5q0 36 -31.5 51.5t-75.5 15.5q-90 0 -164 -53l-44 83q99 64 216 64q98 0 154.5 -42.5
t56.5 -133.5v-239q0 -48 37 -48q19 0 29 7zM374 199v80q-9 -11 -18.5 -18.5t-25.5 -12t-24 -6.5t-32 -5.5t-31 -4.5q-48 -8 -72.5 -25t-24.5 -55q0 -39 26.5 -58.5t69.5 -19.5q56 0 94 31.5t38 93.5z" />
    <glyph glyph-name="b" unicode="b" horiz-adv-x="641" 
d="M73 714h110v-266q68 89 178 89q109 0 174.5 -77.5t65.5 -196.5t-65.5 -197t-174.5 -78q-110 0 -178 89v-77h-110v714zM183 262q0 -77 40 -126t113 -49q72 0 110 49t38 126q0 76 -38 126t-110 50t-112.5 -50t-40.5 -126z" />
    <glyph glyph-name="c" unicode="c" horiz-adv-x="547" 
d="M436 161l83 -57q-77 -116 -219 -116q-118 0 -189.5 77.5t-71.5 196.5q0 120 71.5 197.5t188.5 77.5q141 0 217 -117l-83 -59q-44 79 -129 79q-68 0 -108 -50t-40 -127q0 -78 40.5 -128t108.5 -50q81 0 131 76z" />
    <glyph glyph-name="d" unicode="d" horiz-adv-x="642" 
d="M569 0h-111v77q-66 -89 -177 -89q-110 0 -175.5 77.5t-65.5 196.5q0 120 65.5 197.5t175.5 77.5q111 0 177 -89v266h111v-714zM458 262q0 77 -40.5 126.5t-112.5 49.5t-110 -49.5t-38 -126.5t38 -126t110 -49q73 0 113 49.5t40 125.5z" />
    <glyph glyph-name="e" unicode="e" horiz-adv-x="597" 
d="M560 273q0 -20 -2 -38h-400q4 -71 47 -110t114 -39q91 0 152 66l72 -69q-90 -95 -228 -95q-129 0 -202 76t-73 196t71.5 198.5t192.5 78.5q117 0 186.5 -74t69.5 -190zM160 315h289q-6 64 -45.5 98.5t-98.5 34.5q-62 0 -101 -37t-44 -96z" />
    <glyph glyph-name="f" unicode="f" horiz-adv-x="363" 
d="M363 714l-13 -88q-38 10 -63 10q-34 0 -50.5 -14t-16.5 -47v-50h118v-85h-118v-440h-111v440h-87v85h87v47q0 73 44.5 113t124.5 40q55 0 85 -11z" />
    <glyph glyph-name="g" unicode="g" horiz-adv-x="643" 
d="M571 92q0 -128 -58 -193q-74 -83 -230 -83q-130 0 -222 61l48 88q73 -52 174 -52q80 0 128.5 37.5t48.5 116.5v49q-63 -88 -182 -88q-105 0 -171 72t-66 181q0 110 67.5 183t172.5 73q117 0 179 -89v77h111v-433zM461 283q0 69 -40.5 113.5t-113.5 44.5
q-72 0 -110.5 -44.5t-38.5 -113.5t39 -114.5t110 -45.5t112.5 45.5t41.5 114.5z" />
    <glyph glyph-name="h" unicode="h" horiz-adv-x="603" 
d="M183 0h-110v714h110v-266q67 89 172 89q85 0 133 -52.5t48 -142.5v-342h-110v317q0 119 -104 119q-60 0 -99.5 -39t-39.5 -103v-294z" />
    <glyph glyph-name="i" unicode="i" horiz-adv-x="256" 
d="M183 0h-110v525h110v-525zM183 610h-110v104h110v-104z" />
    <glyph glyph-name="j" unicode="j" horiz-adv-x="257" 
d="M184 525v-520q0 -92 -48.5 -139.5t-131.5 -47.5q-54 0 -94 20l30 86q26 -12 54 -12q79 0 79 90v523h111zM184 610h-111v104h111v-104z" />
    <glyph glyph-name="k" unicode="k" horiz-adv-x="585" 
d="M183 272l240 253h135l-205 -211l231 -314h-136l-171 240l-94 -96v-144h-110v714h110v-442z" />
    <glyph glyph-name="l" unicode="l" horiz-adv-x="258" 
d="M184 0h-110v714h110v-714z" />
    <glyph glyph-name="m" unicode="m" horiz-adv-x="926" 
d="M183 0h-110v525h110v-75q65 87 164 87q117 0 153 -100q71 100 183 100q85 0 130.5 -51.5t45.5 -140.5v-345h-110v319q0 117 -99 117q-56 0 -92.5 -38.5t-36.5 -101.5v-296h-110v319q0 117 -99 117q-56 0 -92.5 -38t-36.5 -102v-296z" />
    <glyph glyph-name="n" unicode="n" horiz-adv-x="603" 
d="M183 0h-110v525h110v-77q67 89 172 89q85 0 133 -52.5t48 -142.5v-342h-110v317q0 119 -104 119q-60 0 -99.5 -39t-39.5 -103v-294z" />
    <glyph glyph-name="o" unicode="o" horiz-adv-x="612" 
d="M572 262q0 -121 -72.5 -197.5t-193.5 -76.5t-193.5 76.5t-72.5 197.5q0 122 72.5 198.5t193.5 76.5t193.5 -76.5t72.5 -198.5zM454 262q0 79 -39.5 129t-108.5 50t-109 -50t-40 -129q0 -78 40 -128t109 -50t108.5 50t39.5 128z" />
    <glyph glyph-name="p" unicode="p" horiz-adv-x="641" 
d="M73 525h110v-77q68 89 178 89q109 0 174.5 -78t65.5 -196q0 -119 -65.5 -197t-174.5 -78q-110 0 -178 88v-250h-110v699zM183 262q0 -76 40.5 -125.5t112.5 -49.5t110 49.5t38 125.5q0 77 -38 126.5t-110 49.5t-112.5 -50t-40.5 -126z" />
    <glyph glyph-name="q" unicode="q" horiz-adv-x="642" 
d="M569 -174h-111v250q-67 -88 -177 -88t-175.5 77.5t-65.5 196.5t66 197t175 78q111 0 177 -89v77h111v-699zM458 263q0 76 -40.5 125.5t-112.5 49.5t-110 -49t-38 -126q0 -76 38 -126t110 -50t112.5 50t40.5 126z" />
    <glyph glyph-name="r" unicode="r" horiz-adv-x="406" 
d="M401 517l-32 -108q-30 16 -60 16q-53 0 -89.5 -43t-36.5 -115v-267h-110v525h110v-85q60 95 148 95q43 0 70 -18z" />
    <glyph glyph-name="s" unicode="s" horiz-adv-x="534" 
d="M495 160q0 -78 -60 -125t-164 -47q-167 0 -244 118l78 55q59 -83 172 -83q50 0 79.5 18t29.5 52q0 33 -29.5 46.5t-103.5 25.5q-96 17 -147 50.5t-51 107.5q0 78 59 118.5t147 40.5q140 0 226 -92l-70 -64q-58 66 -157 66q-41 0 -69.5 -15t-28.5 -44q0 -31 30 -44t95 -24
q38 -7 65 -14t56 -19t46.5 -28.5t29 -41.5t11.5 -57z" />
    <glyph glyph-name="t" unicode="t" horiz-adv-x="412" 
d="M354 109l44 -82q-51 -39 -125 -39q-100 0 -142 67q-25 38 -25 110v275h-88v85h88v141h111v-141h162v-85h-162v-276q0 -78 71 -78q37 0 66 23z" />
    <glyph glyph-name="u" unicode="u" horiz-adv-x="603" 
d="M420 525h110v-525h-110v76q-68 -88 -172 -88q-85 0 -133 52.5t-48 142.5v342h110v-317q0 -119 104 -119q60 0 99.5 39t39.5 103v294z" />
    <glyph glyph-name="v" unicode="v" horiz-adv-x="547" 
d="M538 525l-208 -525h-114l-207 525h124l142 -394l141 394h122z" />
    <glyph glyph-name="w" unicode="w" horiz-adv-x="803" 
d="M779 525l-146 -525h-118l-113 382l-116 -382h-117l-145 525h119l95 -384l115 384h101l114 -384l94 384h117z" />
    <glyph glyph-name="x" unicode="x" horiz-adv-x="556" 
d="M545 0h-134l-133 199l-135 -199h-133l197 274l-179 251h132l120 -181l119 181h130l-178 -252z" />
    <glyph glyph-name="y" unicode="y" horiz-adv-x="548" 
d="M538 525l-208 -546q-33 -86 -74 -124.5t-113 -38.5q-68 0 -119 36l45 78q29 -21 62 -21q30 0 48 17.5t35 51.5l14 29l-220 518h127l150 -379l134 379h119z" />
    <glyph glyph-name="z" unicode="z" horiz-adv-x="521" 
d="M480 0h-441v85l282 343h-270v97h420v-84l-281 -344h290v-97z" />
    <glyph glyph-name="braceleft" unicode="{" horiz-adv-x="370" 
d="M362 -112h-56q-76 0 -122 44.5t-46 123.5v117q0 91 -83 91h-36v78h36q83 0 83 91v117q0 79 46 123.5t122 44.5h56v-78h-40q-87 0 -87 -97v-96q0 -111 -88 -144q88 -32 88 -143v-97q0 -97 87 -97h40v-78z" />
    <glyph glyph-name="bar" unicode="|" horiz-adv-x="235" 
d="M160 -108h-85v822h85v-822z" />
    <glyph glyph-name="braceright" unicode="}" horiz-adv-x="370" 
d="M351 264h-35q-84 0 -84 -91v-117q0 -80 -45.5 -124t-121.5 -44h-57v78h40q88 0 88 97v96q0 111 88 144q-88 32 -88 143v97q0 97 -88 97h-40v78h57q76 0 121.5 -44t45.5 -124v-117q0 -91 84 -91h35v-78z" />
    <glyph glyph-name="asciitilde" unicode="~" horiz-adv-x="612" 
d="M514 392l56 -45q-45 -64 -84 -93t-92 -29q-46 0 -91 31q-35 24 -52.5 32.5t-38.5 8.5q-52 0 -111 -72l-56 45q45 64 84 93t92 29q46 0 91 -31q35 -24 52.5 -32.5t38.5 -8.5q52 0 111 72z" />
    <glyph glyph-name="uni00A0" unicode="&#xa0;" horiz-adv-x="270" 
 />
    <glyph glyph-name="exclamdown" unicode="&#xa1;" horiz-adv-x="280" 
d="M201 -142h-122v153l32 303h58l32 -303v-153zM201 400h-122v125h122v-125z" />
    <glyph glyph-name="cent" unicode="&#xa2;" 
d="M450 161l83 -57q-69 -103 -190 -114v-84h-56v84q-107 9 -170.5 84.5t-63.5 187.5t64 188.5t170 85.5v82h56v-83q118 -11 187 -115l-83 -59q-36 65 -104 77v-352q65 11 107 75zM168 263q0 -70 31 -117t88 -58v349q-57 -10 -88 -57.5t-31 -116.5z" />
    <glyph glyph-name="sterling" unicode="&#xa3;" 
d="M576 104q-48 -116 -147 -116q-34 0 -99.5 22t-101.5 22q-78 0 -153 -44l-41 86q104 56 104 136q0 32 -13 68h-104v75h76q-31 81 -31 123q0 92 66.5 147t170.5 55q159 0 242 -136l-97 -52q-49 81 -139 81q-53 0 -87 -27.5t-34 -77.5q0 -35 32 -113h188v-75h-167
q9 -27 9 -53q0 -25 -13.5 -57t-37.5 -54q31 14 72 14q33 0 79.5 -15t66.5 -15q48 0 70 58z" />
    <glyph glyph-name="currency" unicode="&#xa4;" 
d="M179 303q0 -47 33.5 -80.5t80.5 -33.5q48 0 81.5 33.5t33.5 80.5q0 48 -33.5 81.5t-81.5 33.5q-47 0 -80.5 -33.5t-33.5 -81.5zM98 303q0 54 29 101l-75 74l67 67l75 -75q44 28 99 28t99 -28l76 75l66 -67l-74 -75q28 -48 28 -100q0 -51 -28 -99l74 -74l-66 -67l-75 74
q-45 -29 -100 -29q-53 0 -100 29l-74 -74l-67 67l75 73q-29 47 -29 100z" />
    <glyph glyph-name="yen" unicode="&#xa5;" 
d="M568 666l-171 -315h129v-57h-160l-15 -25v-55h175v-58h-175v-156h-116v156h-176v58h176v54l-15 26h-161v57h131l-171 315h135l142 -290l139 290h133z" />
    <glyph glyph-name="brokenbar" unicode="&#xa6;" horiz-adv-x="227" 
d="M150 398h-73v316h73v-316zM150 -108h-73v316h73v-316z" />
    <glyph glyph-name="section" unicode="&#xa7;" horiz-adv-x="558" 
d="M383 29l-135 81q-64 39 -107 76.5t-73.5 95.5t-30.5 126q0 117 74.5 194t198.5 77q117 0 198 -70l-62 -79q-56 53 -136 53q-92 0 -135 -65l131 -78q99 -58 155 -128.5t56 -169.5q0 -117 -74.5 -194t-198.5 -77q-118 0 -197 69l61 79q56 -53 137 -53q95 0 138 63zM229 391
l-85 61q-5 -22 -5 -36q0 -41 11.5 -74.5t38 -64.5t57 -56.5t81.5 -61.5l86 -61q4 17 4 36q0 78 -43 131t-145 126z" />
    <glyph glyph-name="dieresis" unicode="&#xa8;" horiz-adv-x="321" 
d="M97 594h-89v91h89v-91zM312 594h-88v91h88v-91z" />
    <glyph glyph-name="copyright" unicode="&#xa9;" horiz-adv-x="781" 
d="M742 333q0 -145 -103 -248t-248 -103t-248.5 103t-103.5 248t103 248t249 103q145 0 248 -103t103 -248zM681 333q0 121 -85 206t-205 85t-206 -85t-86 -206t85.5 -206t206.5 -85q120 0 205 85t85 206zM571 234q-30 -51 -77.5 -78t-102.5 -27q-84 0 -144 59.5t-60 144.5
t60 145t144 60q114 0 178 -104l-67 -44q-38 65 -110 65q-50 0 -86 -36t-36 -86t36 -86t86 -36q70 0 111 67z" />
    <glyph glyph-name="ordfeminine" unicode="&#xaa;" horiz-adv-x="441" 
d="M388 391l11 -58q-17 -9 -50 -9q-58 0 -71 43q-40 -46 -115 -46q-53 0 -86.5 28t-33.5 77q0 36 16.5 58.5t40.5 30.5t53 13t53 6t40.5 9t16.5 24q0 37 -67 37q-59 0 -108 -34l-32 60q64 43 147 43q73 0 108.5 -31.5t35.5 -98.5v-132q0 -25 20 -25q12 0 21 5zM265 458v41
q-21 -16 -74 -24q-24 -4 -36 -7t-22 -12.5t-10 -26.5q0 -22 16.5 -33t40.5 -11q36 0 60.5 18.5t24.5 54.5z" />
    <glyph glyph-name="guillemotleft" unicode="&#xab;" horiz-adv-x="482" 
d="M27 243v39l151 196l59 -45l-118 -171l118 -171l-59 -45zM227 243v39l150 196l60 -45l-118 -171l118 -171l-60 -45z" />
    <glyph glyph-name="logicalnot" unicode="&#xac;" horiz-adv-x="604" 
d="M542 59h-93v198h-397v94h490v-292z" />
    <glyph glyph-name="registered" unicode="&#xae;" horiz-adv-x="462" 
d="M277 466l43 -77h-49l-33 70h-42v-70h-43v197h92q31 0 50.5 -17t19.5 -45q0 -45 -38 -58zM271 523q0 12 -8 20t-20 8h-47v-58h47q12 0 20 8.5t8 21.5zM40 487q0 79 56 135t135 56t135 -56t56 -135t-56 -135t-135 -56t-135 56t-56 135zM66 487q0 -68 48.5 -116.5
t116.5 -48.5t116 48.5t48 116.5t-48 116.5t-116 48.5t-116.5 -48.5t-48.5 -116.5z" />
    <glyph glyph-name="macron" unicode="&#xaf;" horiz-adv-x="338" 
d="M321 604h-311v67h311v-67z" />
    <glyph glyph-name="degree" unicode="&#xb0;" horiz-adv-x="381" 
d="M345 523q0 -63 -45.5 -108.5t-108.5 -45.5q-64 0 -109 45.5t-45 108.5q0 64 45 109.5t109 45.5q63 0 108.5 -45.5t45.5 -109.5zM275 523q0 35 -25 60t-59 25q-35 0 -60 -25t-25 -60q0 -34 25.5 -59t59.5 -25t59 25t25 59z" />
    <glyph glyph-name="plusminus" unicode="&#xb1;" 
d="M539 0h-491v94h491v-94zM539 340h-198v-184h-95v184h-198v94h198v186h95v-186h198v-94z" />
    <glyph glyph-name="twosuperior" unicode="&#xb2;" horiz-adv-x="388" 
d="M359 334h-323v64q127 96 172 143t45 86q0 29 -21.5 45.5t-52.5 16.5q-56 0 -89 -54l-68 39q61 93 164 93q70 0 113.5 -36t43.5 -99q0 -53 -36 -98t-135 -123h187v-77z" />
    <glyph glyph-name="threesuperior" unicode="&#xb3;" horiz-adv-x="394" 
d="M360 458q0 -58 -45 -95t-118 -37q-127 0 -175 103l75 26q28 -52 100 -52q34 0 54.5 16.5t20.5 41.5q0 24 -18 37.5t-49 13.5h-56v74h53q22 0 41 13t19 38q0 26 -21 39.5t-52 13.5q-63 0 -94 -48l-66 36q58 89 166 89q65 0 108.5 -31.5t43.5 -88.5q0 -61 -49 -90
q62 -24 62 -99z" />
    <glyph glyph-name="acute" unicode="&#xb4;" horiz-adv-x="321" 
d="M133 575l-42 29q61 73 86 126l98 -16q-16 -36 -57 -75.5t-85 -63.5z" />
    <glyph glyph-name="mu" unicode="&#x3bc;" 
d="M170 -174h-110v699h110v-316q0 -124 102 -124q55 0 92 37.5t37 104.5v298h110v-404q0 -47 32 -47q17 0 25 6l10 -77q-22 -11 -60 -11q-41 0 -69 20.5t-34 59.5q-54 -84 -148 -84q-66 0 -97 45v-207z" />
    <glyph glyph-name="mu" unicode="&#xb5;" 
d="M170 -174h-110v699h110v-316q0 -124 102 -124q55 0 92 37.5t37 104.5v298h110v-404q0 -47 32 -47q17 0 25 6l10 -77q-22 -11 -60 -11q-41 0 -69 20.5t-34 59.5q-54 -84 -148 -84q-66 0 -97 45v-207z" />
    <glyph glyph-name="paragraph" unicode="&#xb6;" horiz-adv-x="563" 
d="M486 -91h-52v688h-62v-688h-76v338h-51q-91 0 -150.5 57.5t-59.5 152.5q0 94 60.5 151.5t149.5 57.5h241v-757z" />
    <glyph glyph-name="periodcentered" unicode="&#xb7;" horiz-adv-x="264" 
d="M206 304q0 -30 -21.5 -52t-51.5 -22q-31 0 -53 22t-22 52q0 31 22 53t53 22q30 0 51.5 -22t21.5 -53z" />
    <glyph glyph-name="cedilla" unicode="&#xb8;" horiz-adv-x="321" 
d="M45 -146v71q30 -30 70 -30q22 0 36 11t14 31q0 38 -51 68l30 17q43 -15 69 -43.5t26 -62.5q0 -39 -31.5 -63.5t-79.5 -24.5q-55 0 -83 26z" />
    <glyph glyph-name="onesuperior" unicode="&#xb9;" horiz-adv-x="334" 
d="M40 409h106v254q-45 -16 -106 -24l-11 67q99 17 138 53h64v-350h91v-75h-282v75z" />
    <glyph glyph-name="ordmasculine" unicode="&#xba;" horiz-adv-x="433" 
d="M395 497q0 -77 -49 -126.5t-130 -49.5t-129.5 49t-48.5 127t48.5 127t129.5 49t130 -49t49 -127zM308 497q0 46 -24 75t-68 29q-43 0 -67.5 -29t-24.5 -75q0 -45 25 -74t67 -29q44 0 68 29t24 74z" />
    <glyph glyph-name="guillemotright" unicode="&#xbb;" horiz-adv-x="482" 
d="M454 282v-39l-150 -197l-60 45l119 171l-119 171l60 45zM255 282v-39l-150 -197l-60 45l118 171l-118 171l60 45z" />
    <glyph glyph-name="onequarter" unicode="&#xbc;" horiz-adv-x="979" 
d="M938 92h-61v-92h-83v92h-210v66q35 61 58 134t24 133h84q-3 -123 -78 -259h123v161h82v-161h61v-74zM762 666l-469 -666h-83l469 666h83zM64 316h106v254q-45 -16 -106 -24l-11 67q99 17 138 53h64v-350h91v-75h-282v75z" />
    <glyph glyph-name="onehalf" unicode="&#xbd;" horiz-adv-x="979" 
d="M760 666l-469 -666h-83l469 666h83zM62 316h106v254q-45 -16 -106 -24l-11 67q99 17 138 53h64v-350h91v-75h-282v75zM932 0h-324v64q126 96 171.5 143t45.5 86q0 29 -21 46t-52 17q-57 0 -90 -55l-68 39q64 93 164 93q70 0 113.5 -36.5t43.5 -99.5q0 -52 -36 -98
t-135 -122h188v-77z" />
    <glyph glyph-name="threequarters" unicode="&#xbe;" horiz-adv-x="979" 
d="M375 365q0 -57 -45.5 -94.5t-117.5 -37.5q-127 0 -175 103l75 26q28 -52 100 -52q34 0 54.5 16.5t20.5 41.5q0 24 -18 37.5t-49 13.5h-56v74h53q22 0 41 13t19 38q0 26 -21 39.5t-51 13.5q-64 0 -95 -48l-66 36q58 89 165 89q66 0 109.5 -31.5t43.5 -88.5q0 -62 -49 -90
q62 -24 62 -99zM948 92h-61v-92h-83v92h-210v66q35 61 58 134t24 133h84q-3 -123 -78 -259h123v161h82v-161h61v-74zM772 666l-469 -666h-83l469 666h83z" />
    <glyph glyph-name="questiondown" unicode="&#xbf;" horiz-adv-x="529" 
d="M53 51q0 87 57 142t147 70v53h109v-148q-17 5 -44 5q-67 0 -108 -31t-41 -87q0 -48 33 -77t89 -29q84 0 150 61l64 -76q-101 -88 -225 -88q-101 0 -166 55.5t-65 149.5zM247 525h128v-118h-128v118z" />
    <glyph glyph-name="Agrave" unicode="&#xc0;" horiz-adv-x="676" 
d="M668 0h-131l-63 170h-276l-63 -170h-127l261 666h138zM442 268l-105 295l-108 -295h213zM396 730l-42 -29q-44 24 -85 63.5t-57 75.5l98 16q25 -53 86 -126z" />
    <glyph glyph-name="Aacute" unicode="&#xc1;" horiz-adv-x="676" 
d="M668 0h-131l-63 170h-276l-63 -170h-127l261 666h138zM442 268l-105 295l-108 -295h213zM330 701l-42 29q61 73 86 126l98 -16q-16 -36 -57 -75.5t-85 -63.5z" />
    <glyph glyph-name="Acircumflex" unicode="&#xc2;" horiz-adv-x="676" 
d="M668 0h-131l-63 170h-276l-63 -170h-127l261 666h138zM442 268l-105 295l-108 -295h213zM296 851h82q61 -54 128 -99l-28 -47q-82 24 -141 74q-57 -50 -141 -74l-28 47q70 46 128 99z" />
    <glyph glyph-name="Atilde" unicode="&#xc3;" horiz-adv-x="676" 
d="M668 0h-131l-63 170h-276l-63 -170h-127l261 666h138zM442 268l-105 295l-108 -295h213zM473 835l42 -28q-16 -40 -44.5 -64.5t-62.5 -24.5q-26 0 -69 19.5t-61 19.5q-39 0 -69 -39l-42 28q15 39 44 63.5t63 24.5q25 0 68.5 -19t62.5 -19q36 0 68 39z" />
    <glyph glyph-name="Adieresis" unicode="&#xc4;" horiz-adv-x="676" 
d="M668 0h-131l-63 170h-276l-63 -170h-127l261 666h138zM442 268l-105 295l-108 -295h213zM273 720h-89v91h89v-91zM488 720h-88v91h88v-91z" />
    <glyph glyph-name="Aring" unicode="&#xc5;" horiz-adv-x="670" 
d="M212 711q0 47 36 80.5t87 33.5q52 0 88 -33.5t36 -80.5q0 -50 -41 -81l247 -630h-131l-63 170h-276l-63 -170h-127l248 630q-41 31 -41 81zM439 268l-105 295l-108 -295h213zM391 710q0 24 -15.5 41t-39.5 17t-40.5 -17t-16.5 -41q0 -23 16.5 -39t40.5 -16t39.5 16
t15.5 39z" />
    <glyph glyph-name="AE" unicode="&#xc6;" horiz-adv-x="925" 
d="M882 0h-444v170h-232l-86 -170h-127l340 666h539v-102h-316v-163h269v-102h-269v-197h326v-102zM438 268v301h-38l-147 -301h185z" />
    <glyph glyph-name="Ccedilla" unicode="&#xc7;" horiz-adv-x="678" 
d="M247 -146v71q30 -30 70 -30q22 0 36 11t14 31q0 27 -29 53q-133 11 -213.5 106t-80.5 238q0 151 90.5 247.5t236.5 96.5q179 0 273 -145l-92 -59q-62 100 -178 100q-94 0 -151 -66t-57 -173q0 -109 56.5 -176t150.5 -67q114 0 178 105l97 -56q-85 -139 -244 -152
q37 -32 37 -73q0 -39 -31.5 -63.5t-79.5 -24.5q-55 0 -83 26z" />
    <glyph glyph-name="Egrave" unicode="&#xc8;" horiz-adv-x="621" 
d="M578 0h-495v666h485v-102h-368v-162h320v-102h-320v-198h378v-102zM388 731l-42 -29q-44 24 -85 63.5t-57 75.5l98 16q25 -53 86 -126z" />
    <glyph glyph-name="Eacute" unicode="&#xc9;" horiz-adv-x="621" 
d="M578 0h-495v666h485v-102h-368v-162h320v-102h-320v-198h378v-102zM329 702l-42 29q61 73 86 126l98 -16q-16 -36 -57 -75.5t-85 -63.5z" />
    <glyph glyph-name="Ecircumflex" unicode="&#xca;" horiz-adv-x="621" 
d="M578 0h-495v666h485v-102h-368v-162h320v-102h-320v-198h378v-102zM293 852h82q61 -54 128 -99l-28 -47q-82 24 -141 74q-57 -50 -141 -74l-28 47q70 46 128 99z" />
    <glyph glyph-name="Edieresis" unicode="&#xcb;" horiz-adv-x="621" 
d="M578 0h-495v666h485v-102h-368v-162h320v-102h-320v-198h378v-102zM268 721h-89v91h89v-91zM483 721h-88v91h88v-91z" />
    <glyph glyph-name="Igrave" unicode="&#xcc;" horiz-adv-x="282" 
d="M199 0h-116v666h116v-666zM199 730l-42 -29q-44 24 -85 63.5t-57 75.5l98 16q25 -53 86 -126z" />
    <glyph glyph-name="Iacute" unicode="&#xcd;" horiz-adv-x="282" 
d="M199 0h-116v666h116v-666zM126 701l-42 29q61 73 86 126l98 -16q-16 -36 -57 -75.5t-85 -63.5z" />
    <glyph glyph-name="Icircumflex" unicode="&#xce;" horiz-adv-x="282" 
d="M199 0h-116v666h116v-666zM100 851h82q61 -54 128 -99l-28 -47q-82 24 -141 74q-57 -50 -141 -74l-28 47q70 46 128 99z" />
    <glyph glyph-name="Idieresis" unicode="&#xcf;" horiz-adv-x="282" 
d="M199 0h-116v666h116v-666zM78 720h-89v91h89v-91zM293 720h-88v91h88v-91z" />
    <glyph glyph-name="Eth" unicode="&#xd0;" horiz-adv-x="733" 
d="M689 333q0 -149 -85 -241t-240 -92h-269v292h-105v94h105v280h269q155 0 240 -92t85 -241zM567 333q0 109 -53.5 170t-150.5 61h-150v-178h172v-94h-172v-190h150q97 0 150.5 61t53.5 170z" />
    <glyph glyph-name="Ntilde" unicode="&#xd1;" horiz-adv-x="731" 
d="M648 0h-140l-313 516v-516h-112v666h148l305 -504v504h112v-666zM507 835l42 -28q-16 -40 -44.5 -64.5t-62.5 -24.5q-26 0 -69 19.5t-61 19.5q-39 0 -69 -39l-42 28q15 39 44 63.5t63 24.5q25 0 68.5 -19t62.5 -19q36 0 68 39z" />
    <glyph glyph-name="Ograve" unicode="&#xd2;" horiz-adv-x="746" 
d="M704 333q0 -149 -90.5 -247t-240.5 -98t-240.5 98t-90.5 247t90.5 247t240.5 98t240.5 -98t90.5 -247zM582 333q0 105 -56.5 171t-152.5 66q-97 0 -153 -66t-56 -171t56 -171t153 -66q96 0 152.5 66t56.5 171zM433 730l-42 -29q-44 24 -85 63.5t-57 75.5l98 16
q25 -53 86 -126z" />
    <glyph glyph-name="Oacute" unicode="&#xd3;" horiz-adv-x="746" 
d="M704 333q0 -149 -90.5 -247t-240.5 -98t-240.5 98t-90.5 247t90.5 247t240.5 98t240.5 -98t90.5 -247zM582 333q0 105 -56.5 171t-152.5 66q-97 0 -153 -66t-56 -171t56 -171t153 -66q96 0 152.5 66t56.5 171zM366 701l-42 29q61 73 86 126l98 -16q-16 -36 -57 -75.5
t-85 -63.5z" />
    <glyph glyph-name="Ocircumflex" unicode="&#xd4;" horiz-adv-x="746" 
d="M704 333q0 -149 -90.5 -247t-240.5 -98t-240.5 98t-90.5 247t90.5 247t240.5 98t240.5 -98t90.5 -247zM582 333q0 105 -56.5 171t-152.5 66q-97 0 -153 -66t-56 -171t56 -171t153 -66q96 0 152.5 66t56.5 171zM332 851h82q61 -54 128 -99l-28 -47q-82 24 -141 74
q-57 -50 -141 -74l-28 47q70 46 128 99z" />
    <glyph glyph-name="Otilde" unicode="&#xd5;" horiz-adv-x="746" 
d="M704 333q0 -149 -90.5 -247t-240.5 -98t-240.5 98t-90.5 247t90.5 247t240.5 98t240.5 -98t90.5 -247zM582 333q0 105 -56.5 171t-152.5 66q-97 0 -153 -66t-56 -171t56 -171t153 -66q96 0 152.5 66t56.5 171zM506 835l42 -28q-16 -40 -44.5 -64.5t-62.5 -24.5
q-26 0 -69 19.5t-61 19.5q-39 0 -69 -39l-42 28q15 39 44 63.5t63 24.5q25 0 68.5 -19t62.5 -19q36 0 68 39z" />
    <glyph glyph-name="Odieresis" unicode="&#xd6;" horiz-adv-x="746" 
d="M704 333q0 -149 -90.5 -247t-240.5 -98t-240.5 98t-90.5 247t90.5 247t240.5 98t240.5 -98t90.5 -247zM582 333q0 105 -56.5 171t-152.5 66q-97 0 -153 -66t-56 -171t56 -171t153 -66q96 0 152.5 66t56.5 171zM309 720h-89v91h89v-91zM524 720h-88v91h88v-91z" />
    <glyph glyph-name="multiply" unicode="&#xd7;" 
d="M534 130l-66 -67l-174 174l-175 -174l-67 67l175 174l-175 174l67 67l175 -174l174 174l66 -67l-174 -174z" />
    <glyph glyph-name="Oslash" unicode="&#xd8;" horiz-adv-x="746" 
d="M170 -13l-53 37l32 45q-107 96 -107 264q0 149 90.5 247t240.5 98q96 0 171 -44l32 45l53 -37l-33 -46q108 -97 108 -263q0 -149 -90.5 -247t-240.5 -98q-99 0 -172 44zM582 333q0 101 -54 166l-262 -375q45 -28 107 -28q96 0 152.5 66t56.5 171zM164 333q0 -103 53 -167
l262 376q-47 28 -106 28q-97 0 -153 -66t-56 -171z" />
    <glyph glyph-name="Ugrave" unicode="&#xd9;" horiz-adv-x="711" 
d="M635 666v-413q0 -123 -77.5 -194t-202.5 -71q-126 0 -202.5 71t-76.5 194v413h117v-413q0 -73 42.5 -115t119.5 -42q76 0 120 42t44 115v413h116zM418 730l-42 -29q-44 24 -85 63.5t-57 75.5l98 16q25 -53 86 -126z" />
    <glyph glyph-name="Uacute" unicode="&#xda;" horiz-adv-x="711" 
d="M635 666v-413q0 -123 -77.5 -194t-202.5 -71q-126 0 -202.5 71t-76.5 194v413h117v-413q0 -73 42.5 -115t119.5 -42q76 0 120 42t44 115v413h116zM347 701l-42 29q61 73 86 126l98 -16q-16 -36 -57 -75.5t-85 -63.5z" />
    <glyph glyph-name="Ucircumflex" unicode="&#xdb;" horiz-adv-x="711" 
d="M635 666v-413q0 -123 -77.5 -194t-202.5 -71q-126 0 -202.5 71t-76.5 194v413h117v-413q0 -73 42.5 -115t119.5 -42q76 0 120 42t44 115v413h116zM315 851h82q61 -54 128 -99l-28 -47q-82 24 -141 74q-57 -50 -141 -74l-28 47q70 46 128 99z" />
    <glyph glyph-name="Udieresis" unicode="&#xdc;" horiz-adv-x="711" 
d="M635 666v-413q0 -123 -77.5 -194t-202.5 -71q-126 0 -202.5 71t-76.5 194v413h117v-413q0 -73 42.5 -115t119.5 -42q76 0 120 42t44 115v413h116zM293 720h-89v91h89v-91zM508 720h-88v91h88v-91z" />
    <glyph glyph-name="Yacute" unicode="&#xdd;" horiz-adv-x="632" 
d="M631 666l-257 -400v-266h-117v266l-255 400h137l178 -294l179 294h135zM291 701l-42 29q61 73 86 126l98 -16q-16 -36 -57 -75.5t-85 -63.5z" />
    <glyph glyph-name="Thorn" unicode="&#xde;" horiz-adv-x="641" 
d="M615 358q0 -98 -64 -155.5t-178 -57.5h-173v-145h-117v666h117v-94h173q113 0 177.5 -58t64.5 -156zM200 247h172q60 0 91.5 29t31.5 82q0 54 -31.5 83t-91.5 29h-172v-223z" />
    <glyph glyph-name="germandbls" unicode="&#xdf;" horiz-adv-x="635" 
d="M596 203q0 -100 -64.5 -157.5t-172.5 -57.5q-70 0 -119 20l23 97q32 -19 83 -19q62 0 98 33.5t36 92.5q0 120 -148 120h-59v94h43q53 0 86.5 26t33.5 76q0 52 -35.5 77.5t-91.5 25.5t-91.5 -28.5t-35.5 -79.5v-523h-109v524q0 93 65 147.5t175 54.5q103 0 169.5 -49
t66.5 -135q0 -101 -96 -152q143 -44 143 -187z" />
    <glyph glyph-name="agrave" unicode="&#xe0;" horiz-adv-x="575" 
d="M563 5q-26 -13 -68 -13q-39 0 -68 19.5t-37 58.5q-57 -82 -175 -82q-82 0 -131 43t-49 119q0 37 13.5 65.5t32 44.5t49 27t54 15t56.5 8q36 4 54 7t39.5 9.5t30.5 19t9 30.5q0 36 -31.5 51.5t-75.5 15.5q-90 0 -164 -53l-44 83q99 64 216 64q98 0 154.5 -42.5
t56.5 -133.5v-239q0 -48 37 -48q19 0 29 7zM374 199v80q-9 -11 -18.5 -18.5t-25.5 -12t-24 -6.5t-32 -5.5t-31 -4.5q-48 -8 -72.5 -25t-24.5 -55q0 -39 26.5 -58.5t69.5 -19.5q56 0 94 31.5t38 93.5zM334 604l-42 -29q-44 24 -85 63.5t-57 75.5l98 16q25 -53 86 -126z" />
    <glyph glyph-name="aacute" unicode="&#xe1;" horiz-adv-x="575" 
d="M563 5q-26 -13 -68 -13q-39 0 -68 19.5t-37 58.5q-57 -82 -175 -82q-82 0 -131 43t-49 119q0 37 13.5 65.5t32 44.5t49 27t54 15t56.5 8q36 4 54 7t39.5 9.5t30.5 19t9 30.5q0 36 -31.5 51.5t-75.5 15.5q-90 0 -164 -53l-44 83q99 64 216 64q98 0 154.5 -42.5
t56.5 -133.5v-239q0 -48 37 -48q19 0 29 7zM374 199v80q-9 -11 -18.5 -18.5t-25.5 -12t-24 -6.5t-32 -5.5t-31 -4.5q-48 -8 -72.5 -25t-24.5 -55q0 -39 26.5 -58.5t69.5 -19.5q56 0 94 31.5t38 93.5zM243 575l-42 29q61 73 86 126l98 -16q-16 -36 -57 -75.5t-85 -63.5z" />
    <glyph glyph-name="acircumflex" unicode="&#xe2;" horiz-adv-x="575" 
d="M563 5q-26 -13 -68 -13q-39 0 -68 19.5t-37 58.5q-57 -82 -175 -82q-82 0 -131 43t-49 119q0 37 13.5 65.5t32 44.5t49 27t54 15t56.5 8q36 4 54 7t39.5 9.5t30.5 19t9 30.5q0 36 -31.5 51.5t-75.5 15.5q-90 0 -164 -53l-44 83q99 64 216 64q98 0 154.5 -42.5
t56.5 -133.5v-239q0 -48 37 -48q19 0 29 7zM374 199v80q-9 -11 -18.5 -18.5t-25.5 -12t-24 -6.5t-32 -5.5t-31 -4.5q-48 -8 -72.5 -25t-24.5 -55q0 -39 26.5 -58.5t69.5 -19.5q56 0 94 31.5t38 93.5zM226 725h82q61 -54 128 -99l-28 -47q-82 24 -141 74q-57 -50 -141 -74
l-28 47q70 46 128 99z" />
    <glyph glyph-name="atilde" unicode="&#xe3;" horiz-adv-x="575" 
d="M563 5q-26 -13 -68 -13q-39 0 -68 19.5t-37 58.5q-57 -82 -175 -82q-82 0 -131 43t-49 119q0 37 13.5 65.5t32 44.5t49 27t54 15t56.5 8q36 4 54 7t39.5 9.5t30.5 19t9 30.5q0 36 -31.5 51.5t-75.5 15.5q-90 0 -164 -53l-44 83q99 64 216 64q98 0 154.5 -42.5
t56.5 -133.5v-239q0 -48 37 -48q19 0 29 7zM374 199v80q-9 -11 -18.5 -18.5t-25.5 -12t-24 -6.5t-32 -5.5t-31 -4.5q-48 -8 -72.5 -25t-24.5 -55q0 -39 26.5 -58.5t69.5 -19.5q56 0 94 31.5t38 93.5zM404 709l42 -28q-16 -40 -44.5 -64.5t-62.5 -24.5q-26 0 -69 19.5
t-61 19.5q-39 0 -69 -39l-42 28q15 39 44 63.5t63 24.5q25 0 68.5 -19t62.5 -19q36 0 68 39z" />
    <glyph glyph-name="adieresis" unicode="&#xe4;" horiz-adv-x="575" 
d="M563 5q-26 -13 -68 -13q-39 0 -68 19.5t-37 58.5q-57 -82 -175 -82q-82 0 -131 43t-49 119q0 37 13.5 65.5t32 44.5t49 27t54 15t56.5 8q36 4 54 7t39.5 9.5t30.5 19t9 30.5q0 36 -31.5 51.5t-75.5 15.5q-90 0 -164 -53l-44 83q99 64 216 64q98 0 154.5 -42.5
t56.5 -133.5v-239q0 -48 37 -48q19 0 29 7zM374 199v80q-9 -11 -18.5 -18.5t-25.5 -12t-24 -6.5t-32 -5.5t-31 -4.5q-48 -8 -72.5 -25t-24.5 -55q0 -39 26.5 -58.5t69.5 -19.5q56 0 94 31.5t38 93.5zM208 594h-89v91h89v-91zM423 594h-88v91h88v-91z" />
    <glyph glyph-name="aring" unicode="&#xe5;" horiz-adv-x="575" 
d="M563 5q-26 -13 -68 -13q-39 0 -68 19.5t-37 58.5q-57 -82 -175 -82q-82 0 -131 43t-49 119q0 37 13.5 65.5t32 44.5t49 27t54 15t56.5 8q36 4 54 7t39.5 9.5t30.5 19t9 30.5q0 36 -31.5 51.5t-75.5 15.5q-90 0 -164 -53l-44 83q99 64 216 64q98 0 154.5 -42.5
t56.5 -133.5v-239q0 -48 37 -48q19 0 29 7zM374 199v80q-9 -11 -18.5 -18.5t-25.5 -12t-24 -6.5t-32 -5.5t-31 -4.5q-48 -8 -72.5 -25t-24.5 -55q0 -39 26.5 -58.5t69.5 -19.5q56 0 94 31.5t38 93.5zM383 677q0 -43 -32 -73t-80 -30t-80.5 30t-32.5 73t32.5 74t80.5 31
q47 0 79.5 -31t32.5 -74zM325 677q0 22 -16 38.5t-38 16.5q-23 0 -39 -16t-16 -39q0 -22 16 -38t39 -16q22 0 38 16t16 38z" />
    <glyph glyph-name="ae" unicode="&#xe6;" horiz-adv-x="920" 
d="M34 150q0 37 13.5 65.5t32 44.5t49 27t54 15t56.5 8q36 4 54 7t39.5 9.5t30.5 19t9 30.5q0 36 -31.5 51.5t-74.5 15.5q-91 0 -165 -53l-44 83q97 64 211 64q130 0 179 -82q68 82 182 82q116 0 185 -74.5t69 -189.5q0 -20 -2 -38h-400q4 -71 47 -110t114 -39q91 0 151 66
l73 -69q-92 -95 -228 -95q-142 0 -210 99q-60 -99 -198 -99q-90 0 -143 42.5t-53 119.5zM483 315h289q-6 64 -46 98.5t-99 34.5q-61 0 -100 -37t-44 -96zM373 199v80q-9 -11 -18.5 -18.5t-25.5 -12t-24 -6.5t-32 -5.5t-31 -4.5q-48 -8 -72.5 -25t-24.5 -55q0 -39 26.5 -58.5
t69.5 -19.5q56 0 94 31.5t38 93.5z" />
    <glyph glyph-name="ccedilla" unicode="&#xe7;" horiz-adv-x="549" 
d="M178 -146v71q30 -30 70 -30q22 0 36 11t14 31q0 27 -29 53q-105 10 -167 85.5t-62 186.5q0 120 71.5 197.5t188.5 77.5q141 0 217 -117l-83 -59q-44 79 -129 79q-68 0 -108 -50t-40 -127q0 -78 40.5 -128t108.5 -50q81 0 131 76l83 -57q-66 -100 -186 -114q38 -33 38 -74
q0 -39 -31.5 -63.5t-79.5 -24.5q-55 0 -83 26z" />
    <glyph glyph-name="egrave" unicode="&#xe8;" horiz-adv-x="597" 
d="M560 273q0 -20 -2 -38h-400q4 -71 47 -110t114 -39q91 0 152 66l72 -69q-90 -95 -228 -95q-129 0 -202 76t-73 196t71.5 198.5t192.5 78.5q117 0 186.5 -74t69.5 -190zM160 315h289q-6 64 -45.5 98.5t-98.5 34.5q-62 0 -101 -37t-44 -96zM363 604l-42 -29
q-44 24 -85 63.5t-57 75.5l98 16q25 -53 86 -126z" />
    <glyph glyph-name="eacute" unicode="&#xe9;" horiz-adv-x="597" 
d="M560 273q0 -20 -2 -38h-400q4 -71 47 -110t114 -39q91 0 152 66l72 -69q-90 -95 -228 -95q-129 0 -202 76t-73 196t71.5 198.5t192.5 78.5q117 0 186.5 -74t69.5 -190zM160 315h289q-6 64 -45.5 98.5t-98.5 34.5q-62 0 -101 -37t-44 -96zM288 575l-42 29q61 73 86 126
l98 -16q-16 -36 -57 -75.5t-85 -63.5z" />
    <glyph glyph-name="ecircumflex" unicode="&#xea;" horiz-adv-x="597" 
d="M560 273q0 -20 -2 -38h-400q4 -71 47 -110t114 -39q91 0 152 66l72 -69q-90 -95 -228 -95q-129 0 -202 76t-73 196t71.5 198.5t192.5 78.5q117 0 186.5 -74t69.5 -190zM160 315h289q-6 64 -45.5 98.5t-98.5 34.5q-62 0 -101 -37t-44 -96zM260 725h82q61 -54 128 -99
l-28 -47q-82 24 -141 74q-57 -50 -141 -74l-28 47q70 46 128 99z" />
    <glyph glyph-name="edieresis" unicode="&#xeb;" horiz-adv-x="597" 
d="M560 273q0 -20 -2 -38h-400q4 -71 47 -110t114 -39q91 0 152 66l72 -69q-90 -95 -228 -95q-129 0 -202 76t-73 196t71.5 198.5t192.5 78.5q117 0 186.5 -74t69.5 -190zM160 315h289q-6 64 -45.5 98.5t-98.5 34.5q-62 0 -101 -37t-44 -96zM240 594h-89v91h89v-91zM455 594
h-88v91h88v-91z" />
    <glyph glyph-name="igrave" unicode="&#xec;" horiz-adv-x="256" 
d="M183 0h-110v525h110v-525zM185 604l-42 -29q-44 24 -85 63.5t-57 75.5l98 16q25 -53 86 -126z" />
    <glyph glyph-name="iacute" unicode="&#xed;" horiz-adv-x="256" 
d="M114 575l-42 29q61 73 86 126l98 -16q-16 -36 -57 -75.5t-85 -63.5zM183 0h-110v525h110v-525z" />
    <glyph glyph-name="icircumflex" unicode="&#xee;" horiz-adv-x="256" 
d="M183 0h-110v525h110v-525zM87 725h82q61 -54 128 -99l-28 -47q-82 24 -141 74q-57 -50 -141 -74l-28 47q70 46 128 99z" />
    <glyph glyph-name="idieresis" unicode="&#xef;" horiz-adv-x="256" 
d="M81 594h-88v91h88v-91zM264 594h-89v91h89v-91zM183 0h-110v525h110v-525z" />
    <glyph glyph-name="eth" unicode="&#xf0;" horiz-adv-x="622" 
d="M279 497q90 0 147 -54q-33 67 -104 133l-124 -56l-20 47l95 44q-44 31 -83 49l83 66q67 -38 107 -72l121 54l20 -47l-97 -44q148 -148 148 -338q0 -141 -75 -217q-74 -74 -192 -74t-191 71.5t-73 183.5q0 110 66.5 182t171.5 72zM461 242q0 69 -41.5 114.5t-113.5 45.5
q-70 0 -109 -45.5t-39 -114.5t39 -113.5t110 -44.5q73 0 113.5 45t40.5 113z" />
    <glyph glyph-name="ntilde" unicode="&#xf1;" horiz-adv-x="603" 
d="M183 0h-110v525h110v-77q67 89 172 89q85 0 133 -52.5t48 -142.5v-342h-110v317q0 119 -104 119q-60 0 -99.5 -39t-39.5 -103v-294zM452 709l42 -28q-16 -40 -44.5 -64.5t-62.5 -24.5q-26 0 -69 19.5t-61 19.5q-39 0 -69 -39l-42 28q15 39 44 63.5t63 24.5q25 0 68.5 -19
t62.5 -19q36 0 68 39z" />
    <glyph glyph-name="ograve" unicode="&#xf2;" horiz-adv-x="612" 
d="M374 604l-42 -29q-44 24 -85 63.5t-57 75.5l98 16q25 -53 86 -126zM572 262q0 -121 -72.5 -197.5t-193.5 -76.5t-193.5 76.5t-72.5 197.5q0 122 72.5 198.5t193.5 76.5t193.5 -76.5t72.5 -198.5zM454 262q0 79 -39.5 129t-108.5 50t-109 -50t-40 -129q0 -78 40 -128
t109 -50t108.5 50t39.5 128z" />
    <glyph glyph-name="oacute" unicode="&#xf3;" horiz-adv-x="612" 
d="M572 262q0 -121 -72.5 -197.5t-193.5 -76.5t-193.5 76.5t-72.5 197.5q0 122 72.5 198.5t193.5 76.5t193.5 -76.5t72.5 -198.5zM454 262q0 79 -39.5 129t-108.5 50t-109 -50t-40 -129q0 -78 40 -128t109 -50t108.5 50t39.5 128zM281 575l-42 29q61 73 86 126l98 -16
q-16 -36 -57 -75.5t-85 -63.5z" />
    <glyph glyph-name="ocircumflex" unicode="&#xf4;" horiz-adv-x="612" 
d="M265 725h82q61 -54 128 -99l-28 -47q-82 24 -141 74q-57 -50 -141 -74l-28 47q70 46 128 99zM572 262q0 -121 -72.5 -197.5t-193.5 -76.5t-193.5 76.5t-72.5 197.5q0 122 72.5 198.5t193.5 76.5t193.5 -76.5t72.5 -198.5zM454 262q0 79 -39.5 129t-108.5 50t-109 -50
t-40 -129q0 -78 40 -128t109 -50t108.5 50t39.5 128z" />
    <glyph glyph-name="otilde" unicode="&#xf5;" horiz-adv-x="612" 
d="M572 262q0 -121 -72.5 -197.5t-193.5 -76.5t-193.5 76.5t-72.5 197.5q0 122 72.5 198.5t193.5 76.5t193.5 -76.5t72.5 -198.5zM454 262q0 79 -39.5 129t-108.5 50t-109 -50t-40 -129q0 -78 40 -128t109 -50t108.5 50t39.5 128zM438 709l42 -28q-16 -40 -44.5 -64.5
t-62.5 -24.5q-26 0 -69 19.5t-61 19.5q-39 0 -69 -39l-42 28q15 39 44 63.5t63 24.5q25 0 68.5 -19t62.5 -19q36 0 68 39z" />
    <glyph glyph-name="odieresis" unicode="&#xf6;" horiz-adv-x="612" 
d="M572 262q0 -121 -72.5 -197.5t-193.5 -76.5t-193.5 76.5t-72.5 197.5q0 122 72.5 198.5t193.5 76.5t193.5 -76.5t72.5 -198.5zM454 262q0 79 -39.5 129t-108.5 50t-109 -50t-40 -129q0 -78 40 -128t109 -50t108.5 50t39.5 128zM243 594h-89v91h89v-91zM458 594h-88v91h88
v-91z" />
    <glyph glyph-name="divide" unicode="&#xf7;" 
d="M364 496q0 -29 -20.5 -50t-49.5 -21q-30 0 -50.5 21t-20.5 50t20.5 50t50.5 21q28 0 49 -21t21 -50zM539 257h-491v94h491v-94zM364 112q0 -29 -21 -50t-49 -21q-30 0 -50.5 21t-20.5 50t20.5 50t50.5 21q28 0 49 -21t21 -50z" />
    <glyph glyph-name="oslash" unicode="&#xf8;" horiz-adv-x="612" 
d="M150 -12l-49 34l22 31q-83 77 -83 209q0 122 72.5 198.5t193.5 76.5q72 0 133 -32l23 32l49 -34l-23 -32q84 -76 84 -209q0 -121 -72.5 -197.5t-193.5 -76.5q-76 0 -134 32zM157 262q0 -71 31 -115l193 275q-34 21 -75 21q-70 0 -109.5 -50.5t-39.5 -130.5zM455 262
q0 70 -32 116l-193 -275q32 -21 76 -21q69 0 109 50.5t40 129.5z" />
    <glyph glyph-name="ugrave" unicode="&#xf9;" horiz-adv-x="603" 
d="M420 525h110v-525h-110v76q-68 -88 -172 -88q-85 0 -133 52.5t-48 142.5v342h110v-317q0 -119 104 -119q60 0 99.5 39t39.5 103v294zM351 604l-42 -29q-44 24 -85 63.5t-57 75.5l98 16q25 -53 86 -126z" />
    <glyph glyph-name="uacute" unicode="&#xfa;" horiz-adv-x="603" 
d="M420 525h110v-525h-110v76q-68 -88 -172 -88q-85 0 -133 52.5t-48 142.5v342h110v-317q0 -119 104 -119q60 0 99.5 39t39.5 103v294zM298 575l-42 29q61 73 86 126l98 -16q-16 -36 -57 -75.5t-85 -63.5z" />
    <glyph glyph-name="ucircumflex" unicode="&#xfb;" horiz-adv-x="603" 
d="M420 525h110v-525h-110v76q-68 -88 -172 -88q-85 0 -133 52.5t-48 142.5v342h110v-317q0 -119 104 -119q60 0 99.5 39t39.5 103v294zM258 725h82q61 -54 128 -99l-28 -47q-82 24 -141 74q-57 -50 -141 -74l-28 47q70 46 128 99z" />
    <glyph glyph-name="udieresis" unicode="&#xfc;" horiz-adv-x="603" 
d="M420 525h110v-525h-110v76q-68 -88 -172 -88q-85 0 -133 52.5t-48 142.5v342h110v-317q0 -119 104 -119q60 0 99.5 39t39.5 103v294zM235 594h-89v91h89v-91zM450 594h-88v91h88v-91z" />
    <glyph glyph-name="yacute" unicode="&#xfd;" horiz-adv-x="548" 
d="M538 525l-208 -546q-33 -86 -74 -124.5t-113 -38.5q-68 0 -119 36l45 78q29 -21 62 -21q30 0 48 17.5t35 51.5l14 29l-220 518h127l150 -379l134 379h119zM273 575l-42 29q61 73 86 126l98 -16q-16 -36 -57 -75.5t-85 -63.5z" />
    <glyph glyph-name="thorn" unicode="&#xfe;" horiz-adv-x="641" 
d="M73 714h110v-266q68 89 177 89q110 0 175.5 -77.5t65.5 -196.5q0 -120 -65.5 -197.5t-175.5 -77.5q-109 0 -177 88v-250h-110v888zM183 262q0 -76 41 -125.5t113 -49.5q71 0 109 49.5t38 125.5q0 77 -38 126.5t-109 49.5q-74 0 -114 -50t-40 -126z" />
    <glyph glyph-name="ydieresis" unicode="&#xff;" horiz-adv-x="548" 
d="M538 525l-208 -546q-33 -86 -74 -124.5t-113 -38.5q-68 0 -119 36l45 78q29 -21 62 -21q30 0 48 17.5t35 51.5l14 29l-220 518h127l150 -379l134 379h119zM216 594h-89v91h89v-91zM431 594h-88v91h88v-91z" />
    <glyph glyph-name="Amacron" unicode="&#x100;" horiz-adv-x="676" 
d="M668 0h-131l-63 170h-276l-63 -170h-127l261 666h138zM442 268l-105 295l-108 -295h213zM493 731h-311v67h311v-67z" />
    <glyph glyph-name="amacron" unicode="&#x101;" horiz-adv-x="575" 
d="M563 5q-26 -13 -68 -13q-39 0 -68 19.5t-37 58.5q-57 -82 -175 -82q-82 0 -131 43t-49 119q0 37 13.5 65.5t32 44.5t49 27t54 15t56.5 8q36 4 54 7t39.5 9.5t30.5 19t9 30.5q0 36 -31.5 51.5t-75.5 15.5q-90 0 -164 -53l-44 83q99 64 216 64q98 0 154.5 -42.5
t56.5 -133.5v-239q0 -48 37 -48q19 0 29 7zM374 199v80q-9 -11 -18.5 -18.5t-25.5 -12t-24 -6.5t-32 -5.5t-31 -4.5q-48 -8 -72.5 -25t-24.5 -55q0 -39 26.5 -58.5t69.5 -19.5q56 0 94 31.5t38 93.5zM429 604h-311v67h311v-67z" />
    <glyph glyph-name="Abreve" unicode="&#x102;" horiz-adv-x="676" 
d="M668 0h-131l-63 170h-276l-63 -170h-127l261 666h138zM442 268l-105 295l-108 -295h213zM337 713q-68 0 -111.5 33.5t-52.5 85.5l58 18q22 -65 106 -65q85 0 106 65l58 -18q-9 -52 -52.5 -85.5t-111.5 -33.5z" />
    <glyph glyph-name="abreve" unicode="&#x103;" horiz-adv-x="575" 
d="M563 5q-26 -13 -68 -13q-39 0 -68 19.5t-37 58.5q-57 -82 -175 -82q-82 0 -131 43t-49 119q0 37 13.5 65.5t32 44.5t49 27t54 15t56.5 8q36 4 54 7t39.5 9.5t30.5 19t9 30.5q0 36 -31.5 51.5t-75.5 15.5q-90 0 -164 -53l-44 83q99 64 216 64q98 0 154.5 -42.5
t56.5 -133.5v-239q0 -48 37 -48q19 0 29 7zM374 199v80q-9 -11 -18.5 -18.5t-25.5 -12t-24 -6.5t-32 -5.5t-31 -4.5q-48 -8 -72.5 -25t-24.5 -55q0 -39 26.5 -58.5t69.5 -19.5q56 0 94 31.5t38 93.5zM272 587q-68 0 -111.5 33.5t-52.5 85.5l58 18q22 -65 106 -65
q85 0 106 65l58 -18q-9 -52 -52.5 -85.5t-111.5 -33.5z" />
    <glyph glyph-name="Aogonek" unicode="&#x104;" horiz-adv-x="676" 
d="M668 0q-123 -10 -123 -65q0 -18 14.5 -30t38.5 -12q40 0 70 33v-76q-30 -28 -85 -28q-48 0 -80 24t-32 63q0 56 64 95l-61 166h-276l-63 -170h-127l261 666h138zM442 268l-105 295l-108 -295h213z" />
    <glyph glyph-name="aogonek" unicode="&#x105;" horiz-adv-x="575" 
d="M563 5q-26 -13 -68 -13q-17 0 -30 3q-26 -28 -26 -57q0 -22 14.5 -33.5t38.5 -11.5q40 0 70 33v-76q-30 -28 -85 -28q-49 0 -80.5 24t-31.5 65q0 57 61 101q-29 19 -36 58q-57 -82 -175 -82q-82 0 -131 43t-49 119q0 37 13.5 65.5t32 44.5t49 27t54 15t56.5 8q36 4 54 7
t39.5 9.5t30.5 19t9 30.5q0 36 -31.5 51.5t-75.5 15.5q-90 0 -164 -53l-44 83q99 64 216 64q98 0 154.5 -42.5t56.5 -133.5v-239q0 -48 37 -48q19 0 29 7zM374 199v80q-9 -11 -18.5 -18.5t-25.5 -12t-24 -6.5t-32 -5.5t-31 -4.5q-48 -8 -72.5 -25t-24.5 -55
q0 -39 26.5 -58.5t69.5 -19.5q56 0 94 31.5t38 93.5z" />
    <glyph glyph-name="Cacute" unicode="&#x106;" horiz-adv-x="677" 
d="M643 533l-92 -59q-62 100 -178 100q-94 0 -151 -66t-57 -173q0 -109 56.5 -176t150.5 -67q114 0 178 105l97 -56q-94 -153 -276 -153q-146 0 -237 96.5t-91 249.5q0 151 90.5 247.5t236.5 96.5q179 0 273 -145zM345 701l-42 29q61 73 86 126l98 -16q-16 -36 -57 -75.5
t-85 -63.5z" />
    <glyph glyph-name="cacute" unicode="&#x107;" horiz-adv-x="547" 
d="M436 161l83 -57q-77 -116 -219 -116q-118 0 -189.5 77.5t-71.5 196.5q0 120 71.5 197.5t188.5 77.5q141 0 217 -117l-83 -59q-44 79 -129 79q-68 0 -108 -50t-40 -127q0 -78 40.5 -128t108.5 -50q81 0 131 76zM286 575l-43 28q50 62 76 127l98 -16q-16 -36 -52.5 -74
t-78.5 -65z" />
    <glyph glyph-name="Ccircumflex" unicode="&#x108;" horiz-adv-x="677" 
d="M643 533l-92 -59q-62 100 -178 100q-94 0 -151 -66t-57 -173q0 -109 56.5 -176t150.5 -67q114 0 178 105l97 -56q-94 -153 -276 -153q-146 0 -237 96.5t-91 249.5q0 151 90.5 247.5t236.5 96.5q179 0 273 -145zM327 851h82q61 -54 128 -99l-28 -47q-82 24 -141 74
q-57 -50 -141 -74l-28 47q70 46 128 99z" />
    <glyph glyph-name="ccircumflex" unicode="&#x109;" horiz-adv-x="547" 
d="M436 161l83 -57q-77 -116 -219 -116q-118 0 -189.5 77.5t-71.5 196.5q0 120 71.5 197.5t188.5 77.5q141 0 217 -117l-83 -59q-44 79 -129 79q-68 0 -108 -50t-40 -127q0 -78 40.5 -128t108.5 -50q81 0 131 76zM255 725h82q61 -54 128 -99l-28 -47q-82 24 -141 74
q-57 -50 -141 -74l-28 47q70 46 128 99z" />
    <glyph glyph-name="Cdotaccent" unicode="&#x10a;" horiz-adv-x="677" 
d="M643 533l-92 -59q-62 100 -178 100q-94 0 -151 -66t-57 -173q0 -109 56.5 -176t150.5 -67q114 0 178 105l97 -56q-94 -153 -276 -153q-146 0 -237 96.5t-91 249.5q0 151 90.5 247.5t236.5 96.5q179 0 273 -145zM413 722h-93v89h93v-89z" />
    <glyph glyph-name="cdotaccent" unicode="&#x10b;" horiz-adv-x="547" 
d="M436 161l83 -57q-77 -116 -219 -116q-118 0 -189.5 77.5t-71.5 196.5q0 120 71.5 197.5t188.5 77.5q141 0 217 -117l-83 -59q-44 79 -129 79q-68 0 -108 -50t-40 -127q0 -78 40.5 -128t108.5 -50q81 0 131 76zM340 596h-93v89h93v-89z" />
    <glyph glyph-name="Ccaron" unicode="&#x10c;" horiz-adv-x="677" 
d="M643 533l-92 -59q-62 100 -178 100q-94 0 -151 -66t-57 -173q0 -109 56.5 -176t150.5 -67q114 0 178 105l97 -56q-94 -153 -276 -153q-146 0 -237 96.5t-91 249.5q0 151 90.5 247.5t236.5 96.5q179 0 273 -145zM408 709h-82q-58 53 -128 99l28 47q84 -24 141 -74
q59 50 141 74l28 -47q-67 -45 -128 -99z" />
    <glyph glyph-name="ccaron" unicode="&#x10d;" horiz-adv-x="547" 
d="M436 161l83 -57q-77 -116 -219 -116q-118 0 -189.5 77.5t-71.5 196.5q0 120 71.5 197.5t188.5 77.5q141 0 217 -117l-83 -59q-44 79 -129 79q-68 0 -108 -50t-40 -127q0 -78 40.5 -128t108.5 -50q81 0 131 76zM338 583h-82q-58 53 -128 99l28 47q84 -24 141 -74
q59 50 141 74l28 -47q-67 -45 -128 -99z" />
    <glyph glyph-name="Dcaron" unicode="&#x10e;" horiz-adv-x="721" 
d="M201 106h146q100 0 154 61t54 166t-54 166t-154 61h-146v-454zM347 0h-264v666h264q155 0 242.5 -93t87.5 -240t-87.5 -240t-242.5 -93zM397 709h-82q-58 53 -128 99l28 47q84 -24 141 -74q59 50 141 74l28 -47q-67 -45 -128 -99z" />
    <glyph glyph-name="dcaron" unicode="&#x10f;" horiz-adv-x="706" 
d="M569 0h-111v77q-66 -89 -177 -89q-110 0 -175.5 77.5t-65.5 196.5q0 120 65.5 197.5t175.5 77.5q111 0 177 -89v266h111v-714zM458 262q0 77 -40.5 126.5t-112.5 49.5t-110 -49.5t-38 -126.5t38 -126t110 -49q73 0 113 49.5t40 125.5zM764 714v-78q0 -104 -92 -181
l-37 42q49 46 49 99q0 18 -13 46.5t-13 52.5v19h106z" />
    <glyph glyph-name="Dcroat" unicode="&#x110;" horiz-adv-x="747" 
d="M703 333q0 -149 -85 -241t-240 -92h-269v292h-105v94h105v280h269q155 0 240 -92t85 -241zM581 333q0 109 -53.5 170t-150.5 61h-150v-178h172v-94h-172v-190h150q97 0 150.5 61t53.5 170z" />
    <glyph glyph-name="dcroat" unicode="&#x111;" horiz-adv-x="642" 
d="M569 0h-111v77q-66 -89 -177 -89q-110 0 -175.5 77.5t-65.5 196.5q0 120 65.5 197.5t175.5 77.5q111 0 177 -89v155h-132v64h132v47h111v-47h69v-64h-69v-603zM458 262q0 77 -40.5 126.5t-113.5 49.5q-71 0 -109 -49.5t-38 -126.5t38 -126t109 -49q74 0 114 49.5
t40 125.5z" />
    <glyph glyph-name="Emacron" unicode="&#x112;" horiz-adv-x="621" 
d="M578 0h-495v666h485v-102h-368v-162h320v-102h-320v-198h378v-102zM484 731h-311v67h311v-67z" />
    <glyph glyph-name="emacron" unicode="&#x113;" horiz-adv-x="597" 
d="M560 273q0 -20 -2 -38h-400q4 -71 47 -110t114 -39q91 0 152 66l72 -69q-90 -95 -228 -95q-129 0 -202 76t-73 196t71.5 198.5t192.5 78.5q117 0 186.5 -74t69.5 -190zM160 315h289q-6 64 -45.5 98.5t-98.5 34.5q-62 0 -101 -37t-44 -96zM459 604h-311v67h311v-67z" />
    <glyph glyph-name="Ebreve" unicode="&#x114;" horiz-adv-x="621" 
d="M578 0h-495v666h485v-102h-368v-162h320v-102h-320v-198h378v-102zM329 713q-68 0 -111.5 33.5t-52.5 85.5l58 18q22 -65 106 -65q85 0 106 65l58 -18q-9 -52 -52.5 -85.5t-111.5 -33.5z" />
    <glyph glyph-name="ebreve" unicode="&#x115;" horiz-adv-x="597" 
d="M560 273q0 -20 -2 -38h-400q4 -71 47 -110t114 -39q91 0 152 66l72 -69q-90 -95 -228 -95q-129 0 -202 76t-73 196t71.5 198.5t192.5 78.5q117 0 186.5 -74t69.5 -190zM160 315h289q-6 64 -45.5 98.5t-98.5 34.5q-62 0 -101 -37t-44 -96zM301 587q-68 0 -111.5 33.5
t-52.5 85.5l58 18q22 -65 106 -65q85 0 106 65l58 -18q-9 -52 -52.5 -85.5t-111.5 -33.5z" />
    <glyph glyph-name="Edotaccent" unicode="&#x116;" horiz-adv-x="621" 
d="M578 0h-495v666h485v-102h-368v-162h320v-102h-320v-198h378v-102zM375 722h-93v89h93v-89z" />
    <glyph glyph-name="edotaccent" unicode="&#x117;" horiz-adv-x="597" 
d="M560 273q0 -20 -2 -38h-400q4 -71 47 -110t114 -39q91 0 152 66l72 -69q-90 -95 -228 -95q-129 0 -202 76t-73 196t71.5 198.5t192.5 78.5q117 0 186.5 -74t69.5 -190zM160 315h289q-6 64 -45.5 98.5t-98.5 34.5q-62 0 -101 -37t-44 -96zM347 596h-93v89h93v-89z" />
    <glyph glyph-name="Eogonek" unicode="&#x118;" horiz-adv-x="622" 
d="M578 0h-92q-31 -31 -31 -62q0 -22 14.5 -33.5t38.5 -11.5q40 0 70 33v-76q-30 -28 -85 -28q-49 0 -80.5 24t-31.5 65q0 49 46 89h-344v666h485v-106h-368v-161h320v-98h-320v-195h378v-106z" />
    <glyph glyph-name="eogonek" unicode="&#x119;" horiz-adv-x="597" 
d="M560 273q0 -20 -2 -38h-400q4 -71 47 -110t114 -39q91 0 152 66l72 -69q-24 -26 -69 -55q-66 -42 -66 -87q0 -23 15 -35.5t39 -12.5q39 0 69 33v-76q-30 -28 -86 -28q-48 0 -79.5 24t-31.5 65q0 45 37 82q-30 -5 -58 -5q-127 0 -200 76t-73 196t71.5 198.5t192.5 78.5
q117 0 186.5 -74t69.5 -190zM160 315h289q-6 64 -45.5 98.5t-98.5 34.5q-62 0 -101 -37t-44 -96z" />
    <glyph glyph-name="Ecaron" unicode="&#x11a;" horiz-adv-x="621" 
d="M578 0h-495v666h485v-102h-368v-162h320v-102h-320v-198h378v-102zM373 709h-82q-58 53 -128 99l28 47q84 -24 141 -74q59 50 141 74l28 -47q-67 -45 -128 -99z" />
    <glyph glyph-name="ecaron" unicode="&#x11b;" horiz-adv-x="597" 
d="M560 273q0 -20 -2 -38h-400q4 -71 47 -110t114 -39q91 0 152 66l72 -69q-90 -95 -228 -95q-129 0 -202 76t-73 196t71.5 198.5t192.5 78.5q117 0 186.5 -74t69.5 -190zM160 315h289q-6 64 -45.5 98.5t-98.5 34.5q-62 0 -101 -37t-44 -96zM343 583h-82q-58 53 -128 99
l28 47q84 -24 141 -74q59 50 141 74l28 -47q-67 -45 -128 -99z" />
    <glyph glyph-name="Gcircumflex" unicode="&#x11c;" horiz-adv-x="722" 
d="M373 678q178 0 271 -143l-96 -58q-58 97 -176 97q-97 0 -152 -66t-55 -174q0 -112 56 -177t154 -65q79 0 132 42.5t60 116.5h-184v102h299q5 -23 5 -54q0 -133 -84 -222t-230 -89q-149 0 -239.5 96.5t-90.5 249.5q0 154 90.5 249t239.5 95zM328 852h82q61 -54 128 -99
l-28 -47q-82 24 -141 74q-57 -50 -141 -74l-28 47q70 46 128 99z" />
    <glyph glyph-name="gcircumflex" unicode="&#x11d;" horiz-adv-x="643" 
d="M571 92q0 -128 -58 -193q-74 -83 -230 -83q-130 0 -222 61l48 88q73 -52 174 -52q80 0 128.5 37.5t48.5 116.5v49q-63 -88 -182 -88q-105 0 -171 72t-66 181q0 110 67.5 183t172.5 73q117 0 179 -89v77h111v-433zM461 283q0 69 -40.5 113.5t-113.5 44.5
q-72 0 -110.5 -44.5t-38.5 -113.5t39 -114.5t110 -45.5t112.5 45.5t41.5 114.5zM265 725h82q61 -54 128 -99l-28 -47q-82 24 -141 74q-57 -50 -141 -74l-28 47q70 46 128 99z" />
    <glyph glyph-name="Gbreve" unicode="&#x11e;" horiz-adv-x="722" 
d="M373 678q178 0 271 -143l-96 -58q-58 97 -176 97q-97 0 -152 -66t-55 -174q0 -112 56 -177t154 -65q79 0 132 42.5t60 116.5h-184v102h299q5 -23 5 -54q0 -133 -84 -222t-230 -89q-149 0 -239.5 96.5t-90.5 249.5q0 154 90.5 249t239.5 95zM369 714q-68 0 -111.5 33.5
t-52.5 85.5l58 18q22 -65 106 -65q85 0 106 65l58 -18q-9 -52 -52.5 -85.5t-111.5 -33.5z" />
    <glyph glyph-name="gbreve" unicode="&#x11f;" horiz-adv-x="643" 
d="M571 92q0 -128 -58 -193q-74 -83 -230 -83q-130 0 -222 61l48 88q73 -52 174 -52q80 0 128.5 37.5t48.5 116.5v49q-63 -88 -182 -88q-105 0 -171 72t-66 181q0 110 67.5 183t172.5 73q117 0 179 -89v77h111v-433zM461 283q0 69 -40.5 113.5t-113.5 44.5
q-72 0 -110.5 -44.5t-38.5 -113.5t39 -114.5t110 -45.5t112.5 45.5t41.5 114.5zM303 587q-68 0 -111.5 33.5t-52.5 85.5l58 18q22 -65 106 -65q85 0 106 65l58 -18q-9 -52 -52.5 -85.5t-111.5 -33.5z" />
    <glyph glyph-name="Gdotaccent" unicode="&#x120;" horiz-adv-x="722" 
d="M373 678q178 0 271 -143l-96 -58q-58 97 -176 97q-97 0 -152 -66t-55 -174q0 -112 56 -177t154 -65q79 0 132 42.5t60 116.5h-184v102h299q5 -23 5 -54q0 -133 -84 -222t-230 -89q-149 0 -239.5 96.5t-90.5 249.5q0 154 90.5 249t239.5 95zM417 723h-93v89h93v-89z" />
    <glyph glyph-name="gdotaccent" unicode="&#x121;" horiz-adv-x="643" 
d="M571 92q0 -128 -58 -193q-74 -83 -230 -83q-130 0 -222 61l48 88q73 -52 174 -52q80 0 128.5 37.5t48.5 116.5v49q-63 -88 -182 -88q-105 0 -171 72t-66 181q0 110 67.5 183t172.5 73q117 0 179 -89v77h111v-433zM461 283q0 69 -40.5 113.5t-113.5 44.5
q-72 0 -110.5 -44.5t-38.5 -113.5t39 -114.5t110 -45.5t112.5 45.5t41.5 114.5zM348 596h-93v89h93v-89z" />
    <glyph glyph-name="Gcommaaccent" unicode="&#x122;" horiz-adv-x="722" 
d="M373 678q178 0 271 -143l-96 -58q-58 97 -176 97q-97 0 -152 -66t-55 -174q0 -112 56 -177t154 -65q79 0 132 42.5t60 116.5h-184v102h299q5 -23 5 -54q0 -133 -84 -222t-230 -89q-149 0 -239.5 96.5t-90.5 249.5q0 154 90.5 249t239.5 95zM312 -200l-43 27q51 67 73 126
l99 -12q-15 -37 -52 -76t-77 -65z" />
    <glyph glyph-name="gcommaaccent" unicode="&#x123;" horiz-adv-x="643" 
d="M359 730l43 -27q-51 -67 -73 -126l-99 12q15 37 52 76t77 65zM571 92q0 -128 -58 -193q-74 -83 -230 -83q-130 0 -222 61l48 88q73 -52 174 -52q80 0 128.5 37.5t48.5 116.5v49q-63 -88 -182 -88q-105 0 -171 72t-66 181q0 110 67.5 183t172.5 73q117 0 179 -89v77h111
v-433zM461 283q0 69 -40.5 113.5t-113.5 44.5q-72 0 -110.5 -44.5t-38.5 -113.5t39 -114.5t110 -45.5t112.5 45.5t41.5 114.5z" />
    <glyph glyph-name="Hcircumflex" unicode="&#x124;" horiz-adv-x="731" 
d="M648 0h-118v299h-330v-299h-117v666h117v-262h330v262h118v-666zM323 852h82q61 -54 128 -99l-28 -47q-82 24 -141 74q-57 -50 -141 -74l-28 47q70 46 128 99z" />
    <glyph glyph-name="hcircumflex" unicode="&#x125;" horiz-adv-x="603" 
d="M183 0h-110v714h110v-266q67 89 172 89q85 0 133 -52.5t48 -142.5v-342h-110v317q0 119 -104 119q-60 0 -99.5 -39t-39.5 -103v-294zM89 893h82q61 -54 128 -99l-28 -47q-82 24 -141 74q-57 -50 -141 -74l-28 47q70 46 128 99z" />
    <glyph glyph-name="Hbar" unicode="&#x126;" horiz-adv-x="731" 
d="M648 0h-118v300h-330v-300h-117v528h-53v64h53v74h117v-74h330v74h118v-74h53v-64h-53v-528zM200 402h330v126h-330v-126z" />
    <glyph glyph-name="hbar" unicode="&#x127;" horiz-adv-x="603" 
d="M183 0h-110v602h-70v64h70v48h110v-48h132v-64h-132v-154q67 89 172 89q85 0 133 -52.5t48 -142.5v-342h-110v317q0 119 -104 119q-60 0 -99.5 -39t-39.5 -103v-294z" />
    <glyph glyph-name="Itilde" unicode="&#x128;" horiz-adv-x="282" 
d="M199 0h-116v666h116v-666zM273 835l42 -28q-16 -40 -44.5 -64.5t-62.5 -24.5q-26 0 -69 19.5t-61 19.5q-39 0 -69 -39l-42 28q15 39 44 63.5t63 24.5q25 0 68.5 -19t62.5 -19q36 0 68 39z" />
    <glyph glyph-name="itilde" unicode="&#x129;" horiz-adv-x="256" 
d="M183 0h-110v525h110v-525zM260 709l42 -28q-16 -40 -44.5 -64.5t-62.5 -24.5q-26 0 -69 19.5t-61 19.5q-39 0 -69 -39l-42 28q15 39 44 63.5t63 24.5q25 0 68.5 -19t62.5 -19q36 0 68 39z" />
    <glyph glyph-name="Imacron" unicode="&#x12a;" horiz-adv-x="282" 
d="M199 0h-116v666h116v-666zM296 732h-311v67h311v-67z" />
    <glyph glyph-name="imacron" unicode="&#x12b;" horiz-adv-x="256" 
d="M183 0h-110v525h110v-525zM283 604h-311v67h311v-67z" />
    <glyph glyph-name="Ibreve" unicode="&#x12c;" horiz-adv-x="282" 
d="M199 0h-116v666h116v-666zM141 713q-68 0 -111.5 33.5t-52.5 85.5l58 18q22 -65 106 -65q85 0 106 65l58 -18q-9 -52 -52.5 -85.5t-111.5 -33.5z" />
    <glyph glyph-name="ibreve" unicode="&#x12d;" horiz-adv-x="256" 
d="M183 0h-110v525h110v-525zM128 587q-68 0 -111.5 33.5t-52.5 85.5l58 18q22 -65 106 -65q85 0 106 65l58 -18q-9 -52 -52.5 -85.5t-111.5 -33.5z" />
    <glyph glyph-name="Iogonek" unicode="&#x12e;" horiz-adv-x="282" 
d="M83 0v666h116v-666q-96 -13 -96 -63q0 -19 13 -29.5t33 -10.5q40 0 67 27v-76q-26 -24 -75 -24q-47 0 -78.5 25t-31.5 63q0 56 52 88z" />
    <glyph glyph-name="iogonek" unicode="&#x12f;" horiz-adv-x="256" 
d="M183 610h-110v104h110v-104zM73 0v525h110v-525q-36 -4 -65.5 -19.5t-29.5 -44.5q0 -18 12.5 -28.5t32.5 -10.5q42 0 67 27v-76q-26 -24 -74 -24q-47 0 -77.5 25.5t-30.5 64.5q0 51 55 86z" />
    <glyph glyph-name="Idotaccent" unicode="&#x130;" horiz-adv-x="282" 
d="M199 0h-116v666h116v-666zM188 722h-93v89h93v-89z" />
    <glyph glyph-name="dotlessi" unicode="&#x131;" horiz-adv-x="256" 
d="M183 0h-110v525h110v-525z" />
    <glyph glyph-name="Jcircumflex" unicode="&#x134;" horiz-adv-x="514" 
d="M437 217q0 -110 -61 -169.5t-164 -59.5q-143 0 -206 115l95 57q39 -67 112 -67q107 0 107 122v451h117v-449zM335 851h82q61 -54 128 -99l-28 -47q-82 24 -141 74q-57 -50 -141 -74l-28 47q70 46 128 99z" />
    <glyph glyph-name="jcircumflex" unicode="&#x135;" horiz-adv-x="257" 
d="M86 725h82q61 -54 128 -99l-28 -47q-82 24 -141 74q-57 -50 -141 -74l-28 47q70 46 128 99zM184 525v-520q0 -93 -48.5 -140t-133.5 -47q-52 0 -92 20l30 86q26 -12 52 -12q81 0 81 90v523h111z" />
    <glyph glyph-name="Kcommaaccent" unicode="&#x136;" horiz-adv-x="657" 
d="M663 0h-139l-215 304l-110 -123v-181h-116v666h116v-333l297 333h141l-248 -277zM290 -200l-43 27q51 67 73 126l99 -12q-15 -37 -52 -76t-77 -65z" />
    <glyph glyph-name="kcommaaccent" unicode="&#x137;" horiz-adv-x="584" 
d="M183 272l240 253h135l-205 -211l231 -314h-136l-171 240l-94 -96v-144h-110v714h110v-442zM253 -200l-43 27q51 67 73 126l99 -12q-15 -37 -52 -76t-77 -65z" />
    <glyph glyph-name="kgreenlandic" unicode="&#x138;" horiz-adv-x="585" 
d="M183 272l240 253h135l-205 -211l231 -314h-136l-171 240l-94 -96v-144h-110v525h110v-253z" />
    <glyph glyph-name="Lacute" unicode="&#x139;" horiz-adv-x="572" 
d="M557 0h-474v666h116v-560h358v-106zM113 703l-42 29q61 73 86 126l98 -16q-16 -36 -57 -75.5t-85 -63.5z" />
    <glyph glyph-name="lacute" unicode="&#x13a;" horiz-adv-x="258" 
d="M184 0h-110v714h110v-714zM104 743l-42 29q61 73 86 126l98 -16q-16 -36 -57 -75.5t-85 -63.5z" />
    <glyph glyph-name="Lcommaaccent" unicode="&#x13b;" horiz-adv-x="572" 
d="M557 0h-474v666h116v-560h358v-106zM268 -200l-43 27q51 67 73 126l99 -12q-15 -37 -52 -76t-77 -65z" />
    <glyph glyph-name="lcommaaccent" unicode="&#x13c;" horiz-adv-x="258" 
d="M184 0h-110v714h110v-714zM53 -200l-43 27q51 67 73 126l99 -12q-15 -37 -52 -76t-77 -65z" />
    <glyph glyph-name="Lcaron" unicode="&#x13d;" horiz-adv-x="572" 
d="M557 0h-474v666h116v-560h358v-106zM409 666v-78q0 -104 -92 -181l-37 42q49 46 49 99q0 18 -13 46.5t-13 52.5v19h106z" />
    <glyph glyph-name="lcaron" unicode="&#x13e;" horiz-adv-x="332" 
d="M184 0h-110v714h110v-714zM387 714v-78q0 -104 -92 -181l-37 42q49 46 49 99q0 18 -13 46.5t-13 52.5v19h106z" />
    <glyph glyph-name="Ldot" unicode="&#x13f;" horiz-adv-x="572" 
d="M557 0h-474v666h116v-560h358v-106zM509 366q0 -30 -21.5 -52t-51.5 -22q-31 0 -53 22t-22 52q0 31 22 53t53 22q30 0 51.5 -22t21.5 -53z" />
    <glyph glyph-name="ldot" unicode="&#x140;" horiz-adv-x="492" 
d="M184 0h-110v714h110v-714zM447 304q0 -30 -21.5 -52t-51.5 -22q-31 0 -53 22t-22 52q0 31 22 53t53 22q30 0 51.5 -22t21.5 -53z" />
    <glyph glyph-name="Lslash" unicode="&#x141;" horiz-adv-x="589" 
d="M574 0h-475v257l-108 -48v95l108 47v315h117v-266l211 93v-95l-211 -93v-199h358v-106z" />
    <glyph glyph-name="lslash" unicode="&#x142;" horiz-adv-x="324" 
d="M329 436l-109 -47v-389h-111v347l-107 -47v92l107 46v276h111v-233l109 47v-92z" />
    <glyph glyph-name="Nacute" unicode="&#x143;" horiz-adv-x="731" 
d="M648 0h-140l-313 516v-516h-112v666h148l305 -504v504h112v-666zM354 701l-42 29q61 73 86 126l98 -16q-16 -36 -57 -75.5t-85 -63.5z" />
    <glyph glyph-name="nacute" unicode="&#x144;" horiz-adv-x="603" 
d="M183 0h-110v525h110v-77q67 89 172 89q85 0 133 -52.5t48 -142.5v-342h-110v317q0 119 -104 119q-60 0 -99.5 -39t-39.5 -103v-294zM301 575l-43 28q50 62 76 127l98 -16q-16 -36 -52.5 -74t-78.5 -65z" />
    <glyph glyph-name="Ncommaaccent" unicode="&#x145;" horiz-adv-x="731" 
d="M648 0h-140l-313 516v-516h-112v666h148l305 -504v504h112v-666zM301 -200l-43 27q51 67 73 126l99 -12q-15 -37 -52 -76t-77 -65z" />
    <glyph glyph-name="ncommaaccent" unicode="&#x146;" horiz-adv-x="604" 
d="M183 0h-110v525h110v-77q67 89 172 89q85 0 133 -52.5t48 -142.5v-342h-110v317q0 119 -104 119q-60 0 -99.5 -39t-39.5 -103v-294zM241 -200l-43 27q51 67 73 126l99 -12q-15 -37 -52 -76t-77 -65z" />
    <glyph glyph-name="Ncaron" unicode="&#x147;" horiz-adv-x="731" 
d="M648 0h-140l-313 516v-516h-112v666h148l305 -504v504h112v-666zM406 709h-82q-58 53 -128 99l28 47q84 -24 141 -74q59 50 141 74l28 -47q-67 -45 -128 -99z" />
    <glyph glyph-name="ncaron" unicode="&#x148;" horiz-adv-x="603" 
d="M183 0h-110v525h110v-77q67 89 172 89q85 0 133 -52.5t48 -142.5v-342h-110v317q0 119 -104 119q-60 0 -99.5 -39t-39.5 -103v-294zM348 583h-82q-58 53 -128 99l28 47q84 -24 141 -74q59 50 141 74l28 -47q-67 -45 -128 -99z" />
    <glyph glyph-name="Eng" unicode="&#x14a;" horiz-adv-x="731" 
d="M648 666v-621q0 -110 -60 -169t-162 -59q-57 0 -101 22l37 94q26 -13 61 -13q89 0 103 83l-331 513v-516h-112v666h145l308 -475v475h112z" />
    <glyph glyph-name="eng" unicode="&#x14b;" horiz-adv-x="603" 
d="M536 342v-337q0 -89 -46.5 -138t-131.5 -49q-56 0 -96 20l31 86q24 -12 52 -12q81 0 81 86v319q0 119 -104 119q-60 0 -99.5 -39t-39.5 -103v-294h-110v525h110v-77q67 89 172 89q85 0 133 -52.5t48 -142.5z" />
    <glyph glyph-name="Omacron" unicode="&#x14c;" horiz-adv-x="746" 
d="M704 333q0 -149 -90.5 -247t-240.5 -98t-240.5 98t-90.5 247t90.5 247t240.5 98t240.5 -98t90.5 -247zM582 333q0 105 -56.5 171t-152.5 66q-97 0 -153 -66t-56 -171t56 -171t153 -66q96 0 152.5 66t56.5 171zM528 731h-311v67h311v-67z" />
    <glyph glyph-name="omacron" unicode="&#x14d;" horiz-adv-x="612" 
d="M572 262q0 -121 -72.5 -197.5t-193.5 -76.5t-193.5 76.5t-72.5 197.5q0 122 72.5 198.5t193.5 76.5t193.5 -76.5t72.5 -198.5zM454 262q0 79 -39.5 129t-108.5 50t-109 -50t-40 -129q0 -78 40 -128t109 -50t108.5 50t39.5 128zM461 604h-311v67h311v-67z" />
    <glyph glyph-name="Obreve" unicode="&#x14e;" horiz-adv-x="746" 
d="M704 333q0 -149 -90.5 -247t-240.5 -98t-240.5 98t-90.5 247t90.5 247t240.5 98t240.5 -98t90.5 -247zM582 333q0 105 -56.5 171t-152.5 66q-97 0 -153 -66t-56 -171t56 -171t153 -66q96 0 152.5 66t56.5 171zM373 713q-68 0 -111.5 33.5t-52.5 85.5l58 18
q22 -65 106 -65q85 0 106 65l58 -18q-9 -52 -52.5 -85.5t-111.5 -33.5z" />
    <glyph glyph-name="obreve" unicode="&#x14f;" horiz-adv-x="612" 
d="M572 262q0 -121 -72.5 -197.5t-193.5 -76.5t-193.5 76.5t-72.5 197.5q0 122 72.5 198.5t193.5 76.5t193.5 -76.5t72.5 -198.5zM454 262q0 79 -39.5 129t-108.5 50t-109 -50t-40 -129q0 -78 40 -128t109 -50t108.5 50t39.5 128zM306 587q-68 0 -111.5 33.5t-52.5 85.5
l58 18q22 -65 106 -65q85 0 106 65l58 -18q-9 -52 -52.5 -85.5t-111.5 -33.5z" />
    <glyph glyph-name="Ohungarumlaut" unicode="&#x150;" horiz-adv-x="746" 
d="M704 333q0 -149 -90.5 -247t-240.5 -98t-240.5 98t-90.5 247t90.5 247t240.5 98t240.5 -98t90.5 -247zM582 333q0 105 -56.5 171t-152.5 66q-97 0 -153 -66t-56 -171t56 -171t153 -66q96 0 152.5 66t56.5 171zM285 701l-38 29q57 66 87 126l93 -16q-16 -36 -57 -75
t-85 -64zM451 701l-38 29q57 66 87 126l93 -16q-16 -36 -57 -75t-85 -64z" />
    <glyph glyph-name="ohungarumlaut" unicode="&#x151;" horiz-adv-x="612" 
d="M572 262q0 -121 -72.5 -197.5t-193.5 -76.5t-193.5 76.5t-72.5 197.5q0 122 72.5 198.5t193.5 76.5t193.5 -76.5t72.5 -198.5zM454 262q0 79 -39.5 129t-108.5 50t-109 -50t-40 -129q0 -78 40 -128t109 -50t108.5 50t39.5 128zM219 575l-38 29q57 66 87 126l93 -16
q-16 -36 -57 -75t-85 -64zM385 575l-38 29q57 66 87 126l93 -16q-16 -36 -57 -75t-85 -64z" />
    <glyph glyph-name="OE" unicode="&#x152;" horiz-adv-x="988" 
d="M945 0h-571q-155 0 -242.5 93t-87.5 240t87.5 240t242.5 93h561v-102h-338v-162h291v-102h-291v-198h348v-102zM166 333q0 -107 54 -169t154 -62h106v462h-106q-100 0 -154 -62t-54 -169z" />
    <glyph glyph-name="oe" unicode="&#x153;" horiz-adv-x="1001" 
d="M965 271q0 -9 -3 -36h-399q4 -71 47 -110t114 -39q91 0 150 65l74 -68q-92 -95 -229 -95q-143 0 -213 106q-71 -106 -206 -106q-118 0 -189 77.5t-71 196.5q0 120 70.5 197.5t189.5 77.5q138 0 206 -107q69 107 205 107q116 0 185 -74.5t69 -191.5zM449 262q0 79 -39 129
t-107 50t-107 -50t-39 -129q0 -78 39 -128t107 -50t107 50t39 128zM564 315h289q-6 64 -45.5 98.5t-98.5 34.5q-61 0 -100.5 -37t-44.5 -96z" />
    <glyph glyph-name="Racute" unicode="&#x154;" horiz-adv-x="666" 
d="M633 0h-131l-134 255h-168v-255h-117v666h299q109 0 171 -55t62 -146q0 -68 -37.5 -117t-95.5 -71zM495 458q0 49 -32 77.5t-84 28.5h-179v-211h181q51 0 82.5 28.5t31.5 76.5zM313 701l-42 29q61 73 86 126l98 -16q-16 -36 -57 -75.5t-85 -63.5z" />
    <glyph glyph-name="racute" unicode="&#x155;" horiz-adv-x="406" 
d="M401 517l-32 -108q-30 16 -60 16q-53 0 -89.5 -43t-36.5 -115v-267h-110v525h110v-85q60 95 148 95q43 0 70 -18zM191 575l-42 29q61 73 86 126l98 -16q-16 -36 -57 -75.5t-85 -63.5z" />
    <glyph glyph-name="Rcommaaccent" unicode="&#x156;" horiz-adv-x="666" 
d="M633 0h-131l-134 255h-168v-255h-117v666h299q109 0 171 -55t62 -146q0 -68 -37.5 -117t-95.5 -71zM495 458q0 49 -32 77.5t-84 28.5h-179v-211h181q51 0 82.5 28.5t31.5 76.5zM275 -200l-43 27q51 67 73 126l99 -12q-15 -37 -52 -76t-77 -65z" />
    <glyph glyph-name="rcommaaccent" unicode="&#x157;" horiz-adv-x="406" 
d="M401 517l-32 -108q-30 16 -60 16q-53 0 -89.5 -43t-36.5 -115v-267h-110v525h110v-85q60 95 148 95q43 0 70 -18zM51 -200l-43 27q51 67 73 126l99 -12q-15 -37 -52 -76t-77 -65z" />
    <glyph glyph-name="Rcaron" unicode="&#x158;" horiz-adv-x="666" 
d="M633 0h-131l-134 255h-168v-255h-117v666h299q109 0 171 -55t62 -146q0 -68 -37.5 -117t-95.5 -71zM495 458q0 49 -32 77.5t-84 28.5h-179v-211h181q51 0 82.5 28.5t31.5 76.5zM371 709h-82q-58 53 -128 99l28 47q84 -24 141 -74q59 50 141 74l28 -47q-67 -45 -128 -99z
" />
    <glyph glyph-name="rcaron" unicode="&#x159;" horiz-adv-x="406" 
d="M401 517l-32 -108q-30 16 -60 16q-53 0 -89.5 -43t-36.5 -115v-267h-110v525h110v-85q60 95 148 95q43 0 70 -18zM272 583h-82q-58 53 -128 99l28 47q84 -24 141 -74q59 50 141 74l28 -47q-67 -45 -128 -99z" />
    <glyph glyph-name="Sacute" unicode="&#x15a;" horiz-adv-x="616" 
d="M302 678q172 0 261 -124l-88 -59q-63 84 -177 84q-54 0 -87.5 -21t-33.5 -64q0 -18 8.5 -32.5t19 -23t34.5 -16.5t38.5 -12t47.5 -11q58 -12 96 -24.5t77 -35t58 -57.5t19 -84q0 -94 -71 -152t-192 -58q-97 0 -171 39.5t-113 108.5l94 55q63 -104 197 -104q63 0 101 26
t38 72q0 21 -9.5 36.5t-20.5 24.5t-38.5 18t-43.5 12.5t-55 11.5q-41 8 -71 17t-62 25t-52 35.5t-33 50t-13 68.5q0 90 67 142t175 52zM287 701l-42 29q61 73 86 126l98 -16q-16 -36 -57 -75.5t-85 -63.5z" />
    <glyph glyph-name="sacute" unicode="&#x15b;" horiz-adv-x="534" 
d="M495 160q0 -78 -60 -125t-164 -47q-167 0 -244 118l78 55q59 -83 172 -83q50 0 79.5 18t29.5 52q0 33 -29.5 46.5t-103.5 25.5q-96 17 -147 50.5t-51 107.5q0 78 59 118.5t147 40.5q140 0 226 -92l-70 -64q-58 66 -157 66q-41 0 -69.5 -15t-28.5 -44q0 -31 30 -44t95 -24
q38 -7 65 -14t56 -19t46.5 -28.5t29 -41.5t11.5 -57zM256 575l-43 28q50 62 76 127l98 -16q-16 -36 -52.5 -74t-78.5 -65z" />
    <glyph glyph-name="Scircumflex" unicode="&#x15c;" horiz-adv-x="616" 
d="M302 678q172 0 261 -124l-88 -59q-63 84 -177 84q-54 0 -87.5 -21t-33.5 -64q0 -18 8.5 -32.5t19 -23t34.5 -16.5t38.5 -12t47.5 -11q58 -12 96 -24.5t77 -35t58 -57.5t19 -84q0 -94 -71 -152t-192 -58q-97 0 -171 39.5t-113 108.5l94 55q63 -104 197 -104q63 0 101 26
t38 72q0 21 -9.5 36.5t-20.5 24.5t-38.5 18t-43.5 12.5t-55 11.5q-41 8 -71 17t-62 25t-52 35.5t-33 50t-13 68.5q0 90 67 142t175 52zM262 851h82q61 -54 128 -99l-28 -47q-82 24 -141 74q-57 -50 -141 -74l-28 47q70 46 128 99z" />
    <glyph glyph-name="scircumflex" unicode="&#x15d;" horiz-adv-x="534" 
d="M495 160q0 -78 -60 -125t-164 -47q-167 0 -244 118l78 55q59 -83 172 -83q50 0 79.5 18t29.5 52q0 33 -29.5 46.5t-103.5 25.5q-96 17 -147 50.5t-51 107.5q0 78 59 118.5t147 40.5q140 0 226 -92l-70 -64q-58 66 -157 66q-41 0 -69.5 -15t-28.5 -44q0 -31 30 -44t95 -24
q38 -7 65 -14t56 -19t46.5 -28.5t29 -41.5t11.5 -57zM224 725h82q61 -54 128 -99l-28 -47q-82 24 -141 74q-57 -50 -141 -74l-28 47q70 46 128 99z" />
    <glyph glyph-name="Scedilla" unicode="&#x15e;" horiz-adv-x="618" 
d="M193 -146v71q30 -30 70 -30q22 0 36 11t14 31q0 27 -28 52q-87 6 -153 44.5t-102 102.5l94 55q63 -104 197 -104q63 0 101 26t38 72q0 21 -9.5 36.5t-20.5 24.5t-38.5 18t-43.5 12.5t-55 11.5q-41 8 -71 17t-62 25t-52 35.5t-33 50t-13 68.5q0 90 67 142t175 52
q172 0 261 -124l-88 -59q-63 84 -177 84q-54 0 -87.5 -21t-33.5 -64q0 -18 8.5 -32.5t19 -23t34.5 -16.5t38.5 -12t47.5 -11q58 -12 96 -24.5t77 -35t58 -57.5t19 -84q0 -86 -61 -143t-167 -65q38 -32 38 -74q0 -39 -31.5 -63.5t-79.5 -24.5q-55 0 -83 26z" />
    <glyph glyph-name="scedilla" unicode="&#x15f;" horiz-adv-x="535" 
d="M151 -146v71q30 -30 70 -30q22 0 36 11t14 31q0 27 -28 52q-147 11 -215 117l78 55q59 -83 172 -83q50 0 79.5 18t29.5 52q0 33 -29.5 46.5t-103.5 25.5q-96 17 -147 50.5t-51 107.5q0 78 59 118.5t147 40.5q140 0 226 -92l-70 -64q-58 66 -157 66q-41 0 -69.5 -15
t-28.5 -44q0 -31 30 -44t95 -24q38 -7 65 -14t56 -19t46.5 -28.5t29 -41.5t11.5 -57q0 -71 -50 -117t-139 -53q38 -32 38 -74q0 -39 -31.5 -63.5t-79.5 -24.5q-55 0 -83 26z" />
    <glyph glyph-name="Scaron" unicode="&#x160;" horiz-adv-x="616" 
d="M302 678q172 0 261 -124l-88 -59q-63 84 -177 84q-54 0 -87.5 -21t-33.5 -64q0 -18 8.5 -32.5t19 -23t34.5 -16.5t38.5 -12t47.5 -11q58 -12 96 -24.5t77 -35t58 -57.5t19 -84q0 -94 -71 -152t-192 -58q-97 0 -171 39.5t-113 108.5l94 55q63 -104 197 -104q63 0 101 26
t38 72q0 21 -9.5 36.5t-20.5 24.5t-38.5 18t-43.5 12.5t-55 11.5q-41 8 -71 17t-62 25t-52 35.5t-33 50t-13 68.5q0 90 67 142t175 52zM347 710h-82q-58 53 -128 99l28 47q84 -24 141 -74q59 50 141 74l28 -47q-67 -45 -128 -99z" />
    <glyph glyph-name="scaron" unicode="&#x161;" horiz-adv-x="534" 
d="M305 583h-82q-58 53 -128 99l28 47q84 -24 141 -74q59 50 141 74l28 -47q-67 -45 -128 -99zM495 160q0 -78 -60 -125t-164 -47q-167 0 -244 118l78 55q59 -83 172 -83q50 0 79.5 18t29.5 52q0 33 -29.5 46.5t-103.5 25.5q-96 17 -147 50.5t-51 107.5q0 78 59 118.5
t147 40.5q140 0 226 -92l-70 -64q-58 66 -157 66q-41 0 -69.5 -15t-28.5 -44q0 -31 30 -44t95 -24q38 -7 65 -14t56 -19t46.5 -28.5t29 -41.5t11.5 -57z" />
    <glyph glyph-name="Tcommaaccent" unicode="&#x21a;" horiz-adv-x="610" 
d="M583 564h-220v-564h-117v564h-219v102h556v-102zM228 -200l-43 27q51 67 73 126l99 -12q-15 -37 -52 -76t-77 -65z" />
    <glyph glyph-name="Tcommaaccent" unicode="&#x162;" horiz-adv-x="610" 
d="M583 564h-220v-564h-117v564h-219v102h556v-102zM228 -200l-43 27q51 67 73 126l99 -12q-15 -37 -52 -76t-77 -65z" />
    <glyph glyph-name="tcommaaccent" unicode="&#x21b;" horiz-adv-x="413" 
d="M355 109l44 -82q-51 -39 -125 -39q-100 0 -142 67q-25 38 -25 110v275h-88v85h88v141h111v-141h162v-85h-162v-276q0 -78 71 -78q37 0 66 23zM176 -200l-43 27q51 67 73 126l99 -12q-15 -37 -52 -76t-77 -65z" />
    <glyph glyph-name="tcommaaccent" unicode="&#x163;" horiz-adv-x="413" 
d="M355 109l44 -82q-51 -39 -125 -39q-100 0 -142 67q-25 38 -25 110v275h-88v85h88v141h111v-141h162v-85h-162v-276q0 -78 71 -78q37 0 66 23zM176 -200l-43 27q51 67 73 126l99 -12q-15 -37 -52 -76t-77 -65z" />
    <glyph glyph-name="Tcaron" unicode="&#x164;" horiz-adv-x="610" 
d="M583 564h-220v-564h-117v564h-219v102h556v-102zM345 709h-82q-58 53 -128 99l28 47q84 -24 141 -74q59 50 141 74l28 -47q-67 -45 -128 -99z" />
    <glyph glyph-name="tcaron" unicode="&#x165;" horiz-adv-x="412" 
d="M354 109l44 -82q-51 -39 -125 -39q-100 0 -142 67q-25 38 -25 110v275h-88v85h88v141h111v-141h162v-85h-162v-276q0 -78 71 -78q37 0 66 23zM400 758v-61q0 -81 -77 -142l-31 33q41 36 41 77q0 15 -11 37.5t-11 40.5v15h89z" />
    <glyph glyph-name="Tbar" unicode="&#x166;" horiz-adv-x="610" 
d="M467 298h-104v-298h-117v298h-104v64h104v202h-219v102h556v-102h-220v-202h104v-64z" />
    <glyph glyph-name="tbar" unicode="&#x167;" horiz-adv-x="412" 
d="M106 165v95h-88v64h88v116h-88v85h88v141h111v-141h162v-85h-162v-116h115v-64h-115v-96q0 -78 70 -78q38 0 67 23l44 -82q-51 -39 -126 -39q-100 0 -142 67q-24 38 -24 110z" />
    <glyph glyph-name="Utilde" unicode="&#x168;" horiz-adv-x="711" 
d="M635 666v-413q0 -123 -77.5 -194t-202.5 -71q-126 0 -202.5 71t-76.5 194v413h117v-413q0 -73 42.5 -115t119.5 -42q76 0 120 42t44 115v413h116zM487 835l42 -28q-16 -40 -44.5 -64.5t-62.5 -24.5q-26 0 -69 19.5t-61 19.5q-39 0 -69 -39l-42 28q15 39 44 63.5t63 24.5
q25 0 68.5 -19t62.5 -19q36 0 68 39z" />
    <glyph glyph-name="utilde" unicode="&#x169;" horiz-adv-x="603" 
d="M420 525h110v-525h-110v76q-68 -88 -172 -88q-85 0 -133 52.5t-48 142.5v342h110v-317q0 -119 104 -119q60 0 99.5 39t39.5 103v294zM433 709l42 -28q-16 -40 -44.5 -64.5t-62.5 -24.5q-26 0 -69 19.5t-61 19.5q-39 0 -69 -39l-42 28q15 39 44 63.5t63 24.5
q25 0 68.5 -19t62.5 -19q36 0 68 39z" />
    <glyph glyph-name="Umacron" unicode="&#x16a;" horiz-adv-x="711" 
d="M635 666v-413q0 -123 -77.5 -194t-202.5 -71q-126 0 -202.5 71t-76.5 194v413h117v-413q0 -73 42.5 -115t119.5 -42q76 0 120 42t44 115v413h116zM511 731h-311v67h311v-67z" />
    <glyph glyph-name="umacron" unicode="&#x16b;" horiz-adv-x="603" 
d="M420 525h110v-525h-110v76q-68 -88 -172 -88q-85 0 -133 52.5t-48 142.5v342h110v-317q0 -119 104 -119q60 0 99.5 39t39.5 103v294zM456 604h-311v67h311v-67z" />
    <glyph glyph-name="Ubreve" unicode="&#x16c;" horiz-adv-x="711" 
d="M635 666v-413q0 -123 -77.5 -194t-202.5 -71q-126 0 -202.5 71t-76.5 194v413h117v-413q0 -73 42.5 -115t119.5 -42q76 0 120 42t44 115v413h116zM356 713q-68 0 -111.5 33.5t-52.5 85.5l58 18q22 -65 106 -65q85 0 106 65l58 -18q-9 -52 -52.5 -85.5t-111.5 -33.5z" />
    <glyph glyph-name="ubreve" unicode="&#x16d;" horiz-adv-x="603" 
d="M420 525h110v-525h-110v76q-68 -88 -172 -88q-85 0 -133 52.5t-48 142.5v342h110v-317q0 -119 104 -119q60 0 99.5 39t39.5 103v294zM299 587q-68 0 -111.5 33.5t-52.5 85.5l58 18q22 -65 106 -65q85 0 106 65l58 -18q-9 -52 -52.5 -85.5t-111.5 -33.5z" />
    <glyph glyph-name="Uring" unicode="&#x16e;" horiz-adv-x="711" 
d="M635 666v-413q0 -123 -77.5 -194t-202.5 -71q-126 0 -202.5 71t-76.5 194v413h117v-413q0 -73 42.5 -115t119.5 -42q76 0 120 42t44 115v413h116zM468 777q0 -43 -32 -73t-80 -30t-80.5 30t-32.5 73t32.5 74t80.5 31q47 0 79.5 -31t32.5 -74zM410 777q0 22 -16 38.5
t-38 16.5t-38.5 -16t-16.5 -39q0 -22 16 -38t39 -16q22 0 38 16t16 38z" />
    <glyph glyph-name="uring" unicode="&#x16f;" horiz-adv-x="603" 
d="M420 525h110v-525h-110v76q-68 -88 -172 -88q-85 0 -133 52.5t-48 142.5v342h110v-317q0 -119 104 -119q60 0 99.5 39t39.5 103v294zM411 677q0 -43 -32 -73t-80 -30t-80.5 30t-32.5 73t32.5 74t80.5 31q47 0 79.5 -31t32.5 -74zM353 677q0 22 -16 38.5t-38 16.5
q-23 0 -39 -16t-16 -39q0 -22 16 -38t39 -16q22 0 38 16t16 38z" />
    <glyph glyph-name="Uhungarumlaut" unicode="&#x170;" horiz-adv-x="711" 
d="M635 666v-413q0 -123 -77.5 -194t-202.5 -71q-126 0 -202.5 71t-76.5 194v413h117v-413q0 -73 42.5 -115t119.5 -42q76 0 120 42t44 115v413h116zM258 701l-38 29q57 66 87 126l93 -16q-16 -36 -57 -75t-85 -64zM424 701l-38 29q57 66 87 126l93 -16q-16 -36 -57 -75
t-85 -64z" />
    <glyph glyph-name="uhungarumlaut" unicode="&#x171;" horiz-adv-x="603" 
d="M420 525h110v-525h-110v76q-68 -88 -172 -88q-85 0 -133 52.5t-48 142.5v342h110v-317q0 -119 104 -119q60 0 99.5 39t39.5 103v294zM211 575l-38 29q57 66 87 126l93 -16q-16 -36 -57 -75t-85 -64zM377 575l-38 29q57 66 87 126l93 -16q-16 -36 -57 -75t-85 -64z" />
    <glyph glyph-name="Uogonek" unicode="&#x172;" horiz-adv-x="711" 
d="M635 666v-413q0 -150 -128 -229q-63 -38 -63 -84q0 -45 51 -45q38 0 72 36v-78q-31 -29 -87 -29q-47 0 -78.5 23.5t-31.5 64.5q0 47 41 81q-32 -5 -57 -5q-125 0 -201.5 71t-76.5 194v413h117v-413q0 -73 42.5 -115t119.5 -42q76 0 119.5 42t43.5 115v413h117z" />
    <glyph glyph-name="uogonek" unicode="&#x173;" horiz-adv-x="603" 
d="M420 0v76q-68 -88 -172 -88q-85 0 -133 52.5t-48 142.5v342h110v-317q0 -119 104 -119q60 0 99.5 39t39.5 103v294h110v-525q-41 -3 -71.5 -20.5t-30.5 -44.5q0 -17 14 -28.5t37 -11.5q36 0 61 29v-76q-26 -24 -73 -24q-49 0 -80 25t-31 63q0 28 16.5 52.5t47.5 35.5z
" />
    <glyph glyph-name="Wcircumflex" unicode="&#x174;" horiz-adv-x="950" 
d="M929 666l-186 -666h-129l-140 496l-141 -496h-130l-180 666h125l126 -509l148 509h108l147 -511l126 511h126zM434 851h82q61 -54 128 -99l-28 -47q-82 24 -141 74q-57 -50 -141 -74l-28 47q70 46 128 99z" />
    <glyph glyph-name="wcircumflex" unicode="&#x175;" horiz-adv-x="803" 
d="M779 525l-146 -525h-118l-113 382l-116 -382h-117l-145 525h119l95 -384l115 384h101l114 -384l94 384h117zM359 725h82q61 -54 128 -99l-28 -47q-82 24 -141 74q-57 -50 -141 -74l-28 47q70 46 128 99z" />
    <glyph glyph-name="Ycircumflex" unicode="&#x176;" horiz-adv-x="632" 
d="M631 666l-257 -400v-266h-117v266l-255 400h137l178 -294l179 294h135zM274 851h82q61 -54 128 -99l-28 -47q-82 24 -141 74q-57 -50 -141 -74l-28 47q70 46 128 99z" />
    <glyph glyph-name="ycircumflex" unicode="&#x177;" horiz-adv-x="548" 
d="M538 525l-208 -546q-33 -86 -74 -124.5t-113 -38.5q-68 0 -119 36l45 78q29 -21 62 -21q30 0 48 17.5t35 51.5l14 29l-220 518h127l150 -379l134 379h119zM233 725h82q61 -54 128 -99l-28 -47q-82 24 -141 74q-57 -50 -141 -74l-28 47q70 46 128 99z" />
    <glyph glyph-name="Ydieresis" unicode="&#x178;" horiz-adv-x="632" 
d="M631 666l-257 -400v-266h-117v266l-255 400h137l178 -294l179 294h135zM252 720h-89v91h89v-91zM467 720h-88v91h88v-91z" />
    <glyph glyph-name="Zacute" unicode="&#x179;" horiz-adv-x="613" 
d="M572 0h-533v92l370 472h-355v102h509v-88l-372 -476h381v-102zM282 701l-42 29q61 73 86 126l98 -16q-16 -36 -57 -75.5t-85 -63.5z" />
    <glyph glyph-name="zacute" unicode="&#x17a;" horiz-adv-x="521" 
d="M480 0h-441v85l282 343h-270v97h420v-84l-281 -344h290v-97zM250 575l-43 28q50 62 76 127l98 -16q-16 -36 -52.5 -74t-78.5 -65z" />
    <glyph glyph-name="Zdotaccent" unicode="&#x17b;" horiz-adv-x="613" 
d="M572 0h-533v92l370 472h-355v102h509v-88l-372 -476h381v-102zM350 722h-93v89h93v-89z" />
    <glyph glyph-name="zdotaccent" unicode="&#x17c;" horiz-adv-x="521" 
d="M480 0h-441v85l282 343h-270v97h420v-84l-281 -344h290v-97zM303 596h-93v89h93v-89z" />
    <glyph glyph-name="Zcaron" unicode="&#x17d;" horiz-adv-x="613" 
d="M572 0h-533v92l370 472h-355v102h509v-88l-372 -476h381v-102zM338 709h-82q-58 53 -128 99l28 47q84 -24 141 -74q59 50 141 74l28 -47q-67 -45 -128 -99z" />
    <glyph glyph-name="zcaron" unicode="&#x17e;" horiz-adv-x="521" 
d="M480 0h-441v85l282 343h-270v97h420v-84l-281 -344h290v-97zM294 583h-82q-58 53 -128 99l28 47q84 -24 141 -74q59 50 141 74l28 -47q-67 -45 -128 -99z" />
    <glyph glyph-name="florin" unicode="&#x192;" 
d="M545 658l-35 -89q-27 14 -56 14q-78 0 -90 -77l-15 -86h128l-16 -88h-128l-47 -275q-14 -80 -61 -126.5t-131 -46.5q-54 0 -99 21l36 88q28 -14 59 -14q73 0 87 78l48 275h-103l16 88h103l14 86q13 80 61 126.5t131 46.5q56 0 98 -21z" />
    <glyph glyph-name="Aringacute" unicode="&#x1fa;" horiz-adv-x="670" 
d="M212 711q0 47 36 80.5t87 33.5q52 0 88 -33.5t36 -80.5q0 -50 -41 -81l247 -630h-131l-63 170h-276l-63 -170h-127l248 630q-41 31 -41 81zM439 268l-105 295l-108 -295h213zM391 710q0 24 -15.5 41t-39.5 17t-40.5 -17t-16.5 -41q0 -23 16.5 -39t40.5 -16t39.5 16
t15.5 39zM303 836l-42 29q61 73 86 126l98 -16q-16 -36 -57 -75.5t-85 -63.5z" />
    <glyph glyph-name="aringacute" unicode="&#x1fb;" horiz-adv-x="575" 
d="M563 5q-26 -13 -68 -13q-39 0 -68 19.5t-37 58.5q-57 -82 -175 -82q-82 0 -131 43t-49 119q0 37 13.5 65.5t32 44.5t49 27t54 15t56.5 8q36 4 54 7t39.5 9.5t30.5 19t9 30.5q0 36 -31.5 51.5t-75.5 15.5q-90 0 -164 -53l-44 83q99 64 216 64q98 0 154.5 -42.5
t56.5 -133.5v-239q0 -48 37 -48q19 0 29 7zM374 199v80q-9 -11 -18.5 -18.5t-25.5 -12t-24 -6.5t-32 -5.5t-31 -4.5q-48 -8 -72.5 -25t-24.5 -55q0 -39 26.5 -58.5t69.5 -19.5q56 0 94 31.5t38 93.5zM383 659q0 -43 -32 -73t-80 -30t-80.5 30t-32.5 73t32.5 74t80.5 31
q47 0 79.5 -31t32.5 -74zM325 659q0 22 -16 38.5t-38 16.5q-23 0 -39 -16t-16 -39q0 -22 16 -38t39 -16q22 0 38 16t16 38zM240 777l-42 29q61 73 86 126l98 -16q-16 -36 -57 -75.5t-85 -63.5z" />
    <glyph glyph-name="AEacute" unicode="&#x1fc;" horiz-adv-x="925" 
d="M882 0h-444v170h-232l-86 -170h-127l340 666h539v-102h-316v-163h269v-102h-269v-197h326v-102zM438 268v301h-38l-147 -301h185zM461 701l-42 29q61 73 86 126l98 -16q-16 -36 -57 -75.5t-85 -63.5z" />
    <glyph glyph-name="aeacute" unicode="&#x1fd;" horiz-adv-x="920" 
d="M34 150q0 37 13.5 65.5t32 44.5t49 27t54 15t56.5 8q36 4 54 7t39.5 9.5t30.5 19t9 30.5q0 36 -31.5 51.5t-74.5 15.5q-91 0 -165 -53l-44 83q97 64 211 64q130 0 179 -82q68 82 182 82q116 0 185 -74.5t69 -189.5q0 -20 -2 -38h-400q4 -71 47 -110t114 -39q91 0 151 66
l73 -69q-92 -95 -228 -95q-142 0 -210 99q-60 -99 -198 -99q-90 0 -143 42.5t-53 119.5zM483 315h289q-6 64 -46 98.5t-99 34.5q-61 0 -100 -37t-44 -96zM373 199v80q-9 -11 -18.5 -18.5t-25.5 -12t-24 -6.5t-32 -5.5t-31 -4.5q-48 -8 -72.5 -25t-24.5 -55q0 -39 26.5 -58.5
t69.5 -19.5q56 0 94 31.5t38 93.5zM425 575l-42 29q61 73 86 126l98 -16q-16 -36 -57 -75.5t-85 -63.5z" />
    <glyph glyph-name="Oslashacute" unicode="&#x1fe;" horiz-adv-x="746" 
d="M366 701l-42 29q61 73 86 126l98 -16q-16 -36 -57 -75.5t-85 -63.5zM170 -13l-53 37l32 45q-107 96 -107 264q0 149 90.5 247t240.5 98q96 0 171 -44l32 45l53 -37l-33 -46q108 -97 108 -263q0 -149 -90.5 -247t-240.5 -98q-99 0 -172 44zM582 333q0 101 -54 166
l-262 -375q45 -28 107 -28q96 0 152.5 66t56.5 171zM164 333q0 -103 53 -167l262 376q-47 28 -106 28q-97 0 -153 -66t-56 -171z" />
    <glyph glyph-name="oslashacute" unicode="&#x1ff;" horiz-adv-x="612" 
d="M303 575l-42 29q61 73 86 126l98 -16q-16 -36 -57 -75.5t-85 -63.5zM150 -12l-49 34l22 31q-83 77 -83 209q0 122 72.5 198.5t193.5 76.5q72 0 133 -32l23 32l49 -34l-23 -32q84 -76 84 -209q0 -121 -72.5 -197.5t-193.5 -76.5q-76 0 -134 32zM157 262q0 -71 31 -115
l193 275q-34 21 -75 21q-70 0 -109.5 -50.5t-39.5 -130.5zM455 262q0 70 -32 116l-193 -275q32 -21 76 -21q69 0 109 50.5t40 129.5z" />
    <glyph glyph-name="Scommaaccent" unicode="&#x218;" horiz-adv-x="616" 
d="M302 678q172 0 261 -124l-88 -59q-63 84 -177 84q-54 0 -87.5 -21t-33.5 -64q0 -18 8.5 -32.5t19 -23t34.5 -16.5t38.5 -12t47.5 -11q58 -12 96 -24.5t77 -35t58 -57.5t19 -84q0 -94 -71 -152t-192 -58q-97 0 -171 39.5t-113 108.5l94 55q63 -104 197 -104q63 0 101 26
t38 72q0 21 -9.5 36.5t-20.5 24.5t-38.5 18t-43.5 12.5t-55 11.5q-41 8 -71 17t-62 25t-52 35.5t-33 50t-13 68.5q0 90 67 142t175 52zM245 -200l-43 27q51 67 73 126l99 -12q-15 -37 -52 -76t-77 -65z" />
    <glyph glyph-name="scommaaccent" unicode="&#x219;" horiz-adv-x="534" 
d="M495 160q0 -78 -60 -125t-164 -47q-167 0 -244 118l78 55q59 -83 172 -83q50 0 79.5 18t29.5 52q0 33 -29.5 46.5t-103.5 25.5q-96 17 -147 50.5t-51 107.5q0 78 59 118.5t147 40.5q140 0 226 -92l-70 -64q-58 66 -157 66q-41 0 -69.5 -15t-28.5 -44q0 -31 30 -44t95 -24
q38 -7 65 -14t56 -19t46.5 -28.5t29 -41.5t11.5 -57zM208 -200l-43 27q51 67 73 126l99 -12q-15 -37 -52 -76t-77 -65z" />
    <glyph glyph-name="dotlessj" unicode="&#x237;" horiz-adv-x="257" 
d="M184 525v-520q0 -93 -48.5 -140t-133.5 -47q-52 0 -92 20l30 86q26 -12 52 -12q81 0 81 90v523h111z" />
    <glyph glyph-name="schwa" unicode="&#x259;" horiz-adv-x="596" 
d="M36 252q0 20 2 38h400q-4 71 -47 110t-114 39q-91 0 -152 -66l-72 69q90 95 228 95q129 0 202 -76t73 -196t-71.5 -198.5t-192.5 -78.5q-117 0 -186.5 74t-69.5 190zM436 210h-289q6 -64 45.5 -98.5t98.5 -34.5q62 0 101 37t44 96z" />
    <glyph glyph-name="circumflex" unicode="&#x2c6;" horiz-adv-x="330" 
d="M126 725h82q61 -54 128 -99l-28 -47q-82 24 -141 74q-57 -50 -141 -74l-28 47q70 46 128 99z" />
    <glyph glyph-name="caron" unicode="&#x2c7;" horiz-adv-x="330" 
d="M208 583h-82q-58 53 -128 99l28 47q84 -24 141 -74q59 50 141 74l28 -47q-67 -45 -128 -99z" />
    <glyph glyph-name="breve" unicode="&#x2d8;" horiz-adv-x="330" 
d="M167 587q-68 0 -111.5 33.5t-52.5 85.5l58 18q22 -65 106 -65q85 0 106 65l58 -18q-9 -52 -52.5 -85.5t-111.5 -33.5z" />
    <glyph glyph-name="dotaccent" unicode="&#x2d9;" horiz-adv-x="321" 
d="M207 596h-93v89h93v-89z" />
    <glyph glyph-name="ring" unicode="&#x2da;" horiz-adv-x="321" 
d="M276 677q0 -43 -32 -73t-80 -30t-80.5 30t-32.5 73t32.5 74t80.5 31q47 0 79.5 -31t32.5 -74zM218 677q0 22 -16 38.5t-38 16.5t-38.5 -16t-16.5 -39q0 -22 16 -38t39 -16q22 0 38 16t16 38z" />
    <glyph glyph-name="ogonek" unicode="&#x2db;" horiz-adv-x="321" 
d="M165 33h52q-74 -46 -74 -95q0 -22 14.5 -33.5t38.5 -11.5q40 0 70 33v-76q-30 -28 -85 -28q-49 0 -80.5 24t-31.5 65q0 74 96 122z" />
    <glyph glyph-name="tilde" unicode="&#x2dc;" horiz-adv-x="346" 
d="M304 709l42 -28q-16 -40 -44.5 -64.5t-62.5 -24.5q-26 0 -69 19.5t-61 19.5q-39 0 -69 -39l-42 28q15 39 44 63.5t63 24.5q25 0 68.5 -19t62.5 -19q36 0 68 39z" />
    <glyph glyph-name="hungarumlaut" unicode="&#x2dd;" horiz-adv-x="372" 
d="M82 575l-38 29q57 66 87 126l93 -16q-16 -36 -57 -75t-85 -64zM248 575l-38 29q57 66 87 126l93 -16q-16 -36 -57 -75t-85 -64z" />
    <glyph glyph-name="Delta" unicode="&#x2206;" horiz-adv-x="612" 
d="M581 14v-14h-550v14l269 700h12zM306 510l-164 -431h328z" />
    <glyph glyph-name="Delta" unicode="&#x394;" horiz-adv-x="612" 
d="M581 14v-14h-550v14l269 700h12zM306 510l-164 -431h328z" />
    <glyph glyph-name="Omega" unicode="&#x2126;" horiz-adv-x="622" 
d="M311 678q118 0 192 -78.5t74 -200.5q0 -36 -8 -72t-15.5 -59t-29 -59t-28.5 -46t-35.5 -48t-29.5 -39h134v-76h-209l-17 72q86 107 122 175t36 150q0 92 -50.5 149.5t-135.5 57.5t-135.5 -57.5t-50.5 -149.5q0 -82 36 -150t122 -175l-17 -72h-209v76h134q-2 3 -30.5 40
t-35.5 48t-28 46.5t-28.5 58.5t-15.5 59t-8 72q0 122 74 200t192 78z" />
    <glyph glyph-name="Omega" unicode="&#x3a9;" horiz-adv-x="622" 
d="M311 678q118 0 192 -78.5t74 -200.5q0 -36 -8 -72t-15.5 -59t-29 -59t-28.5 -46t-35.5 -48t-29.5 -39h134v-76h-209l-17 72q86 107 122 175t36 150q0 92 -50.5 149.5t-135.5 57.5t-135.5 -57.5t-50.5 -149.5q0 -82 36 -150t122 -175l-17 -72h-209v76h134q-2 3 -30.5 40
t-35.5 48t-28 46.5t-28.5 58.5t-15.5 59t-8 72q0 122 74 200t192 78z" />
    <glyph glyph-name="pi" unicode="&#x3c0;" horiz-adv-x="592" 
d="M562 446h-70v-446h-80v446h-232v-446h-80v446h-70v79h532v-79z" />
    <glyph glyph-name="Wgrave" unicode="&#x1e80;" horiz-adv-x="950" 
d="M929 666l-186 -666h-129l-140 496l-141 -496h-130l-180 666h125l126 -509l148 509h108l147 -511l126 511h126zM543 730l-42 -29q-44 24 -85 63.5t-57 75.5l98 16q25 -53 86 -126z" />
    <glyph glyph-name="wgrave" unicode="&#x1e81;" horiz-adv-x="803" 
d="M779 525l-146 -525h-118l-113 382l-116 -382h-117l-145 525h119l95 -384l115 384h101l114 -384l94 384h117zM466 604l-42 -29q-44 24 -85 63.5t-57 75.5l98 16q25 -53 86 -126z" />
    <glyph glyph-name="Wacute" unicode="&#x1e82;" horiz-adv-x="950" 
d="M929 666l-186 -666h-129l-140 496l-141 -496h-130l-180 666h125l126 -509l148 509h108l147 -511l126 511h126zM449 701l-42 29q61 73 86 126l98 -16q-16 -36 -57 -75.5t-85 -63.5z" />
    <glyph glyph-name="wacute" unicode="&#x1e83;" horiz-adv-x="803" 
d="M779 525l-146 -525h-118l-113 382l-116 -382h-117l-145 525h119l95 -384l115 384h101l114 -384l94 384h117zM383 575l-42 29q61 73 86 126l98 -16q-16 -36 -57 -75.5t-85 -63.5z" />
    <glyph glyph-name="Wdieresis" unicode="&#x1e84;" horiz-adv-x="950" 
d="M929 666l-186 -666h-129l-140 496l-141 -496h-130l-180 666h125l126 -509l148 509h108l147 -511l126 511h126zM413 720h-89v91h89v-91zM628 720h-88v91h88v-91z" />
    <glyph glyph-name="wdieresis" unicode="&#x1e85;" horiz-adv-x="803" 
d="M779 525l-146 -525h-118l-113 382l-116 -382h-117l-145 525h119l95 -384l115 384h101l114 -384l94 384h117zM337 594h-89v91h89v-91zM552 594h-88v91h88v-91z" />
    <glyph glyph-name="Ygrave" unicode="&#x1ef2;" horiz-adv-x="632" 
d="M631 666l-257 -400v-266h-117v266l-255 400h137l178 -294l179 294h135zM377 730l-42 -29q-44 24 -85 63.5t-57 75.5l98 16q25 -53 86 -126z" />
    <glyph glyph-name="ygrave" unicode="&#x1ef3;" horiz-adv-x="548" 
d="M538 525l-208 -546q-33 -86 -74 -124.5t-113 -38.5q-68 0 -119 36l45 78q29 -21 62 -21q30 0 48 17.5t35 51.5l14 29l-220 518h127l150 -379l134 379h119zM338 604l-42 -29q-44 24 -85 63.5t-57 75.5l98 16q25 -53 86 -126z" />
    <glyph glyph-name="endash" unicode="&#x2013;" 
d="M539 257h-491v94h491v-94z" />
    <glyph glyph-name="emdash" unicode="&#x2014;" horiz-adv-x="924" 
d="M867 257h-810v94h810v-94z" />
    <glyph glyph-name="quoteleft" unicode="&#x2018;" horiz-adv-x="238" 
d="M54 395v103q0 102 93 180l38 -43q-63 -47 -63 -105v-20h60v-115h-128z" />
    <glyph glyph-name="quoteright" unicode="&#x2019;" horiz-adv-x="224" 
d="M181 666v-102q0 -103 -93 -181l-38 44q62 46 62 105v19h-59v115h128z" />
    <glyph glyph-name="quotesinglbase" unicode="&#x201a;" horiz-adv-x="260" 
d="M194 122v-102q0 -103 -93 -180l-38 43q62 45 62 105v19h-59v115h128z" />
    <glyph glyph-name="quotedblleft" unicode="&#x201c;" horiz-adv-x="443" 
d="M259 395v102q0 103 94 181l37 -43q-62 -46 -62 -105v-20h59v-115h-128zM54 395v103q0 102 93 180l38 -43q-63 -47 -63 -105v-20h60v-115h-128z" />
    <glyph glyph-name="quotedblright" unicode="&#x201d;" horiz-adv-x="429" 
d="M181 666v-102q0 -103 -93 -181l-38 44q62 46 62 105v19h-59v115h128zM386 666v-102q0 -103 -93 -181l-37 44q62 47 62 105v19h-59v115h127z" />
    <glyph glyph-name="quotedblbase" unicode="&#x201e;" horiz-adv-x="465" 
d="M194 122v-102q0 -103 -93 -180l-38 43q62 45 62 105v19h-59v115h128zM399 122v-102q0 -103 -93 -180l-37 43q62 46 62 105v19h-59v115h127z" />
    <glyph glyph-name="dagger" unicode="&#x2020;" horiz-adv-x="492" 
d="M457 431h-158v-431h-106v431h-158v94h158v141h106v-141h158v-94z" />
    <glyph glyph-name="daggerdbl" unicode="&#x2021;" horiz-adv-x="514" 
d="M468 141h-158v-141h-106v141h-158v94h158v197h-158v93h158v141h106v-141h158v-93h-158v-197h158v-94z" />
    <glyph glyph-name="bullet" unicode="&#x2022;" horiz-adv-x="378" 
d="M334 333q0 -60 -43 -102.5t-103 -42.5t-102.5 42.5t-42.5 102.5q0 61 42.5 103.5t102.5 42.5t103 -42.5t43 -103.5z" />
    <glyph glyph-name="twodotenleader" unicode="&#x2025;" horiz-adv-x="505" 
d="M193 0h-128v126h128v-126zM440 0h-127v126h127v-126z" />
    <glyph glyph-name="ellipsis" unicode="&#x2026;" horiz-adv-x="743" 
d="M193 0h-128v126h128v-126zM435 0h-127v126h127v-126zM678 0h-127v126h127v-126z" />
    <glyph glyph-name="perthousand" unicode="&#x2030;" horiz-adv-x="1138" 
d="M361 509q0 -72 -46 -120.5t-117 -48.5t-117 48.5t-46 120.5q0 70 46 118t117 48t117 -48t46 -118zM607 666l-350 -666h-85l349 666h86zM744 159q0 -72 -46 -120t-117 -48q-70 0 -116.5 48t-46.5 120q0 71 46.5 119t116.5 48q71 0 117 -48t46 -119zM285 509q0 39 -24.5 65
t-62.5 26q-39 0 -63.5 -26t-24.5 -65q0 -40 24.5 -66.5t63.5 -26.5t63 26.5t24 66.5zM669 159q0 39 -24.5 65.5t-63.5 26.5t-63 -26t-24 -66t24.5 -66.5t62.5 -26.5q39 0 63.5 26.5t24.5 66.5zM1104 159q0 -72 -46 -120t-116 -48q-71 0 -117 48t-46 120q0 71 46 119t117 48
q70 0 116 -48t46 -119zM1029 159q0 40 -24 66t-63 26t-63 -26t-24 -66t24.5 -66.5t62.5 -26.5t62.5 26.5t24.5 66.5z" />
    <glyph glyph-name="guilsinglleft" unicode="&#x2039;" horiz-adv-x="282" 
d="M27 243v39l151 196l59 -45l-118 -171l118 -171l-59 -45z" />
    <glyph glyph-name="guilsinglright" unicode="&#x203a;" horiz-adv-x="283" 
d="M255 282v-39l-150 -197l-60 45l118 171l-118 171l60 45z" />
    <glyph glyph-name="fraction" unicode="&#x2044;" horiz-adv-x="237" 
d="M396 666l-470 -666h-83l470 666h83z" />
    <glyph glyph-name="zerosuperior" unicode="&#x2070;" horiz-adv-x="406" 
d="M370 547q0 -221 -168 -221q-165 0 -165 221q0 103 37 161.5t128 58.5q168 0 168 -220zM283 547q0 73 -17 110t-64 37q-46 0 -62.5 -37.5t-16.5 -109.5t17 -110t62 -38q47 0 64 38t17 110z" />
    <glyph glyph-name="foursuperior" unicode="&#x2074;" horiz-adv-x="391" 
d="M373 426h-61v-92h-83v92h-210v66q35 61 58.5 134.5t24.5 132.5h83q-1 -120 -78 -259h123v161h82v-161h61v-74z" />
    <glyph glyph-name="fivesuperior" unicode="&#x2075;" horiz-adv-x="386" 
d="M357 472q0 -58 -42.5 -102t-125.5 -44q-109 0 -167 83l67 41q32 -48 99 -48q34 0 57.5 19t23.5 53q0 33 -22.5 52.5t-62.5 19.5q-52 0 -86 -39l-50 22l14 230h271v-78h-200q-2 -31 -10 -92q35 24 84 24q67 0 108.5 -37.5t41.5 -103.5z" />
    <glyph glyph-name="sixsuperior" unicode="&#x2076;" horiz-adv-x="390" 
d="M120 477q0 -34 21.5 -55t59.5 -21q39 0 60 21t21 56t-21 56t-60 21q-38 0 -59.5 -21.5t-21.5 -56.5zM290 759q-111 -80 -149 -165q32 28 83 28q64 0 105 -39t41 -104q0 -68 -46.5 -110.5t-121.5 -42.5q-78 0 -124 43.5t-46 122.5q0 141 137 267h121z" />
    <glyph glyph-name="sevensuperior" unicode="&#x2077;" horiz-adv-x="352" 
d="M346 759v-63q-171 -208 -173 -362h-95q6 142 163 347h-228v78h333z" />
    <glyph glyph-name="eightsuperior" unicode="&#x2078;" horiz-adv-x="405" 
d="M372 453q0 -60 -46 -93.5t-123 -33.5t-123 33.5t-46 93.5q0 74 68 107q-53 27 -53 91q0 55 42 85.5t112 30.5q71 0 112.5 -30.5t41.5 -85.5q0 -58 -55 -91q70 -34 70 -107zM272 646q0 26 -20 39t-49 13t-48.5 -13t-19.5 -39q0 -28 19.5 -42t47.5 -14q29 0 49.5 14
t20.5 42zM285 459q0 33 -23 49.5t-59 16.5t-59.5 -16.5t-23.5 -49.5q0 -32 23.5 -48t59.5 -16t59 15.5t23 48.5z" />
    <glyph glyph-name="ninesuperior" unicode="&#x2079;" horiz-adv-x="390" 
d="M271 615q0 35 -22 56t-61 21q-38 0 -59 -21t-21 -57q0 -35 21 -55.5t59 -20.5q39 0 61 21t22 56zM101 334q111 80 148 163q-32 -27 -82 -27q-65 0 -106 39.5t-41 103.5q0 68 47 111t121 43q78 0 124 -43.5t46 -122.5q0 -141 -137 -267h-120z" />
    <glyph glyph-name="zeroinferior" unicode="&#x2080;" horiz-adv-x="404" 
d="M369 120q0 -221 -168 -221q-165 0 -165 221q0 103 37 161.5t128 58.5q168 0 168 -220zM282 120q0 72 -17 110t-64 38q-45 0 -62 -38t-17 -110q0 -73 17 -110.5t62 -37.5q47 0 64 37.5t17 110.5z" />
    <glyph glyph-name="oneinferior" unicode="&#x2081;" horiz-adv-x="333" 
d="M39 -18h106v254q-47 -17 -106 -23l-11 65q100 20 138 54h64v-350h91v-75h-282v75z" />
    <glyph glyph-name="twoinferior" unicode="&#x2082;" horiz-adv-x="387" 
d="M358 -93h-323v64q126 96 171.5 143t45.5 86q0 29 -21.5 46t-52.5 17q-56 0 -89 -55l-68 39q63 93 164 93q70 0 113.5 -36.5t43.5 -99.5q0 -52 -36 -97.5t-135 -122.5h187v-77z" />
    <glyph glyph-name="threeinferior" unicode="&#x2083;" horiz-adv-x="393" 
d="M360 31q0 -58 -45 -95t-118 -37q-127 0 -175 103l75 26q28 -52 100 -52q35 0 55 16t20 42q0 24 -18 37.5t-49 13.5h-56v74h53q22 0 41 13t19 38q0 26 -21 39.5t-52 13.5q-63 0 -94 -47l-66 35q57 89 166 89q65 0 108.5 -31.5t43.5 -88.5q0 -61 -49 -90q62 -24 62 -99z
" />
    <glyph glyph-name="fourinferior" unicode="&#x2084;" horiz-adv-x="391" 
d="M373 -1h-61v-92h-83v92h-210v66q35 61 58.5 134.5t24.5 132.5h83q-1 -120 -78 -259h123v161h82v-161h61v-74z" />
    <glyph glyph-name="fiveinferior" unicode="&#x2085;" horiz-adv-x="385" 
d="M357 45q0 -58 -42.5 -102t-125.5 -44q-108 0 -167 83l67 41q32 -47 99 -47q34 0 57.5 18.5t23.5 52.5q0 33 -22.5 52.5t-62.5 19.5q-52 0 -86 -39l-50 21l14 231h271v-78h-200q-2 -35 -10 -92q35 23 84 23q67 0 108.5 -37t41.5 -103z" />
    <glyph glyph-name="sixinferior" unicode="&#x2086;" horiz-adv-x="390" 
d="M120 50q0 -35 21.5 -56t59.5 -21q39 0 60 21.5t21 56.5t-21 56t-60 21q-38 0 -59.5 -21.5t-21.5 -56.5zM290 332q-110 -80 -149 -164q34 28 83 28q64 0 105 -39.5t41 -104.5q0 -68 -46.5 -110.5t-121.5 -42.5q-78 0 -124 43.5t-46 122.5q0 141 137 267h121z" />
    <glyph glyph-name="seveninferior" unicode="&#x2087;" horiz-adv-x="352" 
d="M346 332v-63q-171 -210 -173 -362h-95q2 49 18.5 99.5t45 99.5t49 79t50.5 69h-228v78h333z" />
    <glyph glyph-name="eightinferior" unicode="&#x2088;" horiz-adv-x="404" 
d="M371 27q0 -60 -46 -94t-123 -34t-123 33.5t-46 94.5q0 73 68 106q-53 27 -53 90q0 56 42 86.5t112 30.5q71 0 112.5 -30.5t41.5 -86.5q0 -58 -55 -89q70 -34 70 -107zM271 219q0 26 -20 39t-49 13t-48.5 -13t-19.5 -39q0 -28 19.5 -42t47.5 -14q29 0 49.5 14t20.5 42z
M284 31q0 33 -23.5 50.5t-58.5 17.5t-59 -17t-24 -50q0 -32 23.5 -48t59.5 -16t59 15.5t23 47.5z" />
    <glyph glyph-name="nineinferior" unicode="&#x2089;" horiz-adv-x="390" 
d="M271 188q0 35 -22 56t-61 21q-38 0 -59 -21t-21 -57q0 -35 21 -55.5t59 -20.5q39 0 61 21t22 56zM101 -93q111 80 148 163q-31 -26 -82 -26q-65 0 -106 39t-41 103q0 68 47 111t121 43q78 0 124 -43.5t46 -122.5q0 -141 -137 -267h-120z" />
    <glyph glyph-name="Euro" unicode="&#x20ac;" horiz-adv-x="732" 
d="M691 533l-90 -59q-61 100 -171 100q-71 0 -120.5 -40t-69.5 -110h240v-56h-250q-2 -20 -2 -34q0 -17 2 -37h250v-57h-238q19 -69 68.5 -108.5t119.5 -39.5q109 0 170 104l94 -55q-89 -153 -267 -153q-119 0 -201.5 68.5t-107.5 183.5h-79v57h71q-2 20 -2 37q0 14 2 34
h-71v56h79q24 116 106.5 185t202.5 69q173 0 264 -145z" />
    <glyph glyph-name="litre" unicode="&#x2113;" horiz-adv-x="508" 
d="M403 137l67 -60q-63 -89 -173 -89q-79 0 -120.5 44t-41.5 127v31q-52 -28 -69 -34l-33 81q46 18 102 52v200q0 36 6.5 66t22.5 59.5t47.5 46.5t76.5 17q73 0 111.5 -42t38.5 -107q0 -75 -53 -149t-152 -137v-80q0 -84 73 -84q61 0 97 58zM233 509v-157q112 91 112 178
q0 63 -53 63q-59 0 -59 -84z" />
    <glyph glyph-name="afii61352" unicode="&#x2116;" horiz-adv-x="1242" 
d="M845 339q0 -61 34 -100.5t91 -39.5t90.5 39.5t33.5 100.5q0 62 -33.5 101.5t-90.5 39.5t-91 -40t-34 -101zM768 0v63h405v-63h-405zM755 339q0 97 62 159t153 62t153.5 -62t62.5 -159t-62 -158t-154 -61t-153.5 61t-61.5 158zM630 432v-432h-89l-281 489q8 -182 8 -263
q0 -122 -29 -173q-36 -65 -112 -65q-64 0 -101 42l50 57q17 -19 41 -19q36 0 48 40.5t12 125.5v432h90l281 -489q-9 171 -9 263q0 122 29 173q38 65 112 65q66 0 101 -43l-50 -57q-15 20 -41 20q-36 0 -48 -40.5t-12 -125.5z" />
    <glyph glyph-name="uni2117" unicode="&#x2117;" horiz-adv-x="781" 
d="M430 273h-88v-134h-85v385h174q66 0 103 -35t37 -90t-36 -90.5t-105 -35.5zM486 398q0 60 -79 60h-65v-121h65q79 0 79 61zM742 333q0 -145 -103 -248t-248 -103t-248.5 103t-103.5 248t103 248t249 103q145 0 248 -103t103 -248zM681 333q0 121 -85 206t-205 85
t-206 -85t-86 -206t85.5 -206t206.5 -85q120 0 205 85t85 206z" />
    <glyph glyph-name="trademark" unicode="&#x2122;" horiz-adv-x="719" 
d="M660 378h-59v217l-72 -217h-56l-72 217v-217h-60v288h88l72 -220l73 220h86v-288zM297 608h-96v-230h-63v230h-94v58h253v-58z" />
    <glyph glyph-name="estimated" unicode="&#x212e;" horiz-adv-x="614" 
d="M577 273h-417v-187q63 -61 150 -61q65 0 113 29.5t86 94.5l36 -22q-48 -75 -101.5 -107t-133.5 -32q-119 0 -192.5 81.5t-73.5 203.5t73.5 203.5t192.5 81.5t192.5 -79.5t74.5 -205.5zM160 310h301v150q-67 62 -152 62t-149 -62v-150z" />
    <glyph glyph-name="uni2139" unicode="&#x2139;" horiz-adv-x="918" 
d="M419 554q-7 -51 -11 -73h95q34 0 57.5 24t23.5 59q0 34 -23 57t-60 23q-71 0 -82 -90zM463 34q73 0 141 38l-19 41q-35 -19 -68 -19q-32 0 -51.5 17t-19.5 51q0 30 16 84l52 174h-122l-34 -132q-27 -104 -27 -140q0 -54 35.5 -84t96.5 -30zM40 333q0 173 123 296t296 123
t296 -123t123 -296t-123 -296t-296 -123t-296 123t-123 296z" />
    <glyph glyph-name="onethird" unicode="&#x2153;" horiz-adv-x="979" 
d="M65 316h106v254q-45 -16 -106 -24l-11 67q99 17 138 53h64v-350h91v-75h-282v75zM763 666l-469 -666h-83l469 666h83zM930 124q0 -58 -45 -95t-118 -37q-127 0 -175 103l76 26q28 -52 100 -52q34 0 54 16t20 42q0 24 -17.5 37.5t-49.5 13.5h-56v74h54q22 0 40.5 13
t18.5 38q0 26 -21 39.5t-51 13.5q-64 0 -95 -47l-66 35q57 89 165 89q66 0 109.5 -31.5t43.5 -88.5q0 -62 -49 -90q62 -24 62 -99z" />
    <glyph glyph-name="twothirds" unicode="&#x2154;" horiz-adv-x="979" 
d="M774 666l-469 -666h-83l469 666h83zM941 124q0 -58 -45 -95t-118 -37q-127 0 -175 103l76 26q28 -52 100 -52q34 0 54 16t20 42q0 24 -17.5 37.5t-49.5 13.5h-56v74h54q22 0 40.5 13t18.5 38q0 26 -21 39.5t-51 13.5q-64 0 -95 -47l-66 35q57 89 165 89q66 0 109.5 -31.5
t43.5 -88.5q0 -62 -49 -90q62 -24 62 -99zM377 241h-323v64q126 96 171.5 143.5t45.5 86.5q0 29 -21.5 45.5t-52.5 16.5q-56 0 -89 -54l-68 39q62 92 164 92q70 0 113.5 -36t43.5 -99q0 -52 -36 -97.5t-135 -122.5h187v-78z" />
    <glyph glyph-name="uni2155" unicode="&#x2155;" horiz-adv-x="979" 
d="M62 316h106v254q-45 -16 -106 -24l-11 67q99 17 138 53h64v-350h91v-75h-282v75zM760 666l-469 -666h-83l469 666h83zM930 138q0 -58 -42.5 -102t-125.5 -44q-109 0 -166 83l67 41q31 -47 99 -47q34 0 57 18.5t23 52.5q0 33 -22.5 52.5t-62.5 19.5q-52 0 -85 -39l-50 21
l14 231h270v-78h-199q-1 -17 -5 -49.5t-5 -42.5q35 23 84 23q67 0 108 -37.5t41 -102.5z" />
    <glyph glyph-name="uni2156" unicode="&#x2156;" horiz-adv-x="979" 
d="M771 666l-469 -666h-83l469 666h83zM941 138q0 -58 -42.5 -102t-125.5 -44q-109 0 -166 83l67 41q31 -47 99 -47q34 0 57 18.5t23 52.5q0 33 -22.5 52.5t-62.5 19.5q-52 0 -85 -39l-50 21l14 231h270v-78h-199q-1 -17 -5 -49.5t-5 -42.5q35 23 84 23q67 0 108 -37.5
t41 -102.5zM374 241h-323v64q126 96 171.5 143.5t45.5 86.5q0 29 -21.5 45.5t-52.5 16.5q-56 0 -89 -54l-68 39q62 92 164 92q70 0 113.5 -36t43.5 -99q0 -52 -36 -97.5t-135 -122.5h187v-78z" />
    <glyph glyph-name="uni2157" unicode="&#x2157;" horiz-adv-x="979" 
d="M770 666l-469 -666h-83l469 666h83zM940 138q0 -58 -42.5 -102t-125.5 -44q-109 0 -166 83l67 41q31 -47 99 -47q34 0 57 18.5t23 52.5q0 33 -22.5 52.5t-62.5 19.5q-52 0 -85 -39l-50 21l14 231h270v-78h-199q-1 -17 -5 -49.5t-5 -42.5q35 23 84 23q67 0 108 -37.5
t41 -102.5zM373 366q0 -58 -45.5 -95.5t-117.5 -37.5q-127 0 -175 103l75 27q28 -53 100 -53q35 0 55 16.5t20 42.5q0 24 -18 37.5t-49 13.5h-56v73h53q22 0 41 13.5t19 38.5q0 26 -20.5 39t-51.5 13q-64 0 -95 -47l-66 36q57 88 165 88q66 0 109.5 -31t43.5 -88
q0 -62 -49 -91q62 -24 62 -98z" />
    <glyph glyph-name="uni2158" unicode="&#x2158;" horiz-adv-x="979" 
d="M772 666l-469 -666h-83l469 666h83zM942 138q0 -58 -42.5 -102t-125.5 -44q-109 0 -166 83l67 41q31 -47 99 -47q34 0 57 18.5t23 52.5q0 33 -22.5 52.5t-62.5 19.5q-52 0 -85 -39l-50 21l14 231h270v-78h-199q-1 -17 -5 -49.5t-5 -42.5q35 23 84 23q67 0 108 -37.5
t41 -102.5zM385 333h-61v-92h-83v92h-210v66q35 61 58.5 134.5t24.5 132.5h83q-1 -120 -78 -259h123v161h82v-161h61v-74z" />
    <glyph glyph-name="uni2159" unicode="&#x2159;" horiz-adv-x="979" 
d="M70 316h106v254q-45 -16 -106 -24l-11 67q99 17 138 53h64v-350h91v-75h-282v75zM768 666l-469 -666h-83l469 666h83zM681 143q0 -34 22 -55.5t60 -21.5t59.5 21.5t21.5 56.5t-21.5 56t-59.5 21t-60 -21.5t-22 -56.5zM852 425q-110 -80 -149 -164q32 28 82 28
q64 0 105 -39.5t41 -104.5q0 -68 -46.5 -110.5t-120.5 -42.5q-78 0 -124 43.5t-46 122.5q0 142 137 267h121z" />
    <glyph glyph-name="uni215A" unicode="&#x215a;" horiz-adv-x="979" 
d="M777 666l-469 -666h-83l469 666h83zM377 379q0 -58 -42.5 -102t-125.5 -44q-108 0 -167 83l67 42q32 -48 99 -48q34 0 57.5 19t23.5 53q0 33 -22.5 52t-62.5 19q-53 0 -86 -39l-50 22l14 230h271v-77h-200q-2 -35 -10 -92q35 23 84 23q67 0 108.5 -37.5t41.5 -103.5z
M690 143q0 -34 22 -55.5t60 -21.5t59.5 21.5t21.5 56.5t-21.5 56t-59.5 21t-60 -21.5t-22 -56.5zM861 425q-110 -80 -149 -164q32 28 82 28q64 0 105 -39.5t41 -104.5q0 -68 -46.5 -110.5t-120.5 -42.5q-78 0 -124 43.5t-46 122.5q0 142 137 267h121z" />
    <glyph glyph-name="oneeighth" unicode="&#x215b;" horiz-adv-x="979" 
d="M931 120q0 -61 -46 -94.5t-123 -33.5t-123 34t-46 94q0 73 68 106q-52 27 -52 90q0 56 41.5 86.5t111.5 30.5q72 0 113 -30.5t41 -86.5q0 -58 -54 -89q69 -35 69 -107zM831 312q0 26 -19.5 39t-48.5 13q-30 0 -49.5 -13t-19.5 -39q0 -28 19.5 -42t48.5 -14t49 14t20 42z
M845 124q0 33 -23.5 50.5t-59.5 17.5q-35 0 -58.5 -17t-23.5 -50q0 -32 23 -48t59 -16t59.5 15.5t23.5 47.5zM761 666l-469 -666h-83l469 666h83zM63 316h106v255q-44 -18 -106 -24l-11 66q99 18 138 53h64v-350h91v-75h-282v75z" />
    <glyph glyph-name="threeeighths" unicode="&#x215c;" horiz-adv-x="979" 
d="M941 120q0 -61 -46 -94.5t-123 -33.5t-123 34t-46 94q0 73 68 106q-52 27 -52 90q0 56 41.5 86.5t111.5 30.5q72 0 113 -30.5t41 -86.5q0 -58 -54 -89q69 -35 69 -107zM841 312q0 26 -19.5 39t-48.5 13q-30 0 -49.5 -13t-19.5 -39q0 -28 19.5 -42t48.5 -14t49 14t20 42z
M855 124q0 33 -23.5 50.5t-59.5 17.5q-35 0 -58.5 -17t-23.5 -50q0 -32 23 -48t59 -16t59.5 15.5t23.5 47.5zM771 666l-469 -666h-83l469 666h83zM374 366q0 -58 -45.5 -95.5t-117.5 -37.5q-127 0 -175 103l75 27q28 -53 100 -53q35 0 55 16.5t20 42.5q0 24 -18 37.5
t-49 13.5h-56v73h53q22 0 41 13.5t19 38.5q0 26 -20.5 39t-51.5 13q-64 0 -95 -47l-66 36q57 88 165 88q66 0 109.5 -31t43.5 -88q0 -62 -49 -91q62 -24 62 -98z" />
    <glyph glyph-name="fiveeighths" unicode="&#x215d;" horiz-adv-x="979" 
d="M938 120q0 -61 -46 -94.5t-123 -33.5t-123 34t-46 94q0 73 68 106q-52 27 -52 90q0 56 41.5 86.5t111.5 30.5q72 0 113 -30.5t41 -86.5q0 -58 -54 -89q69 -35 69 -107zM838 312q0 26 -19.5 39t-48.5 13q-30 0 -49.5 -13t-19.5 -39q0 -28 19.5 -42t48.5 -14t49 14t20 42z
M852 124q0 33 -23.5 50.5t-59.5 17.5q-35 0 -58.5 -17t-23.5 -50q0 -32 23 -48t59 -16t59.5 15.5t23.5 47.5zM768 666l-469 -666h-83l469 666h83zM370 379q0 -58 -42.5 -102t-125.5 -44q-107 0 -166 83l67 42q32 -48 99 -48q34 0 57.5 19t23.5 53q0 33 -22.5 52t-62.5 19
q-54 0 -86 -39l-50 22l14 230h270v-77h-199q-1 -17 -5 -49.5t-5 -42.5q35 23 84 23q67 0 108 -37.5t41 -103.5z" />
    <glyph glyph-name="seveneighths" unicode="&#x215e;" horiz-adv-x="979" 
d="M911 120q0 -61 -46 -94.5t-123 -33.5t-123 34t-46 94q0 73 68 106q-52 27 -52 90q0 56 41.5 86.5t111.5 30.5q72 0 113 -30.5t41 -86.5q0 -58 -54 -89q69 -35 69 -107zM811 312q0 26 -19.5 39t-48.5 13q-30 0 -49.5 -13t-19.5 -39q0 -28 19.5 -42t48.5 -14t49 14t20 42z
M825 124q0 33 -23.5 50.5t-59.5 17.5q-35 0 -58.5 -17t-23.5 -50q0 -32 23 -48t59 -16t59.5 15.5t23.5 47.5zM741 666l-469 -666h-83l469 666h83zM391 666v-63q-170 -208 -174 -362h-94q7 144 163 348h-228v77h333z" />
    <glyph glyph-name="arrowleft" unicode="&#x2190;" horiz-adv-x="918" 
d="M422 -2l-334 335l334 335l64 -64l-225 -225h556v-92h-556l225 -225z" />
    <glyph glyph-name="arrowup" unicode="&#x2191;" horiz-adv-x="918" 
d="M112 382l347 347l347 -347l-63 -64l-238 237v-555h-92v555l-238 -237z" />
    <glyph glyph-name="arrowright" unicode="&#x2192;" horiz-adv-x="918" 
d="M830 333l-334 -335l-64 64l224 225h-555v92h555l-224 225l64 64z" />
    <glyph glyph-name="arrowdown" unicode="&#x2193;" horiz-adv-x="918" 
d="M459 -15l-347 347l63 63l238 -237v556h92v-556l238 237l63 -63z" />
    <glyph glyph-name="uni2196" unicode="&#x2196;" horiz-adv-x="918" 
d="M682 601v-89h-336l394 -393l-66 -66l-394 393v-336h-89v491h491z" />
    <glyph glyph-name="uni2197" unicode="&#x2197;" horiz-adv-x="918" 
d="M236 512v89h491v-491h-89v336l-394 -393l-66 66l394 393h-336z" />
    <glyph glyph-name="uni2198" unicode="&#x2198;" horiz-adv-x="918" 
d="M236 65v90h336l-394 393l66 66l394 -394v336h89v-491h-491z" />
    <glyph glyph-name="uni2199" unicode="&#x2199;" horiz-adv-x="918" 
d="M682 155v-90h-491v491h89v-336l394 394l66 -66l-394 -393h336z" />
    <glyph glyph-name="partialdiff" unicode="&#x2202;" horiz-adv-x="610" 
d="M274 497q89 0 146 -54q-33 67 -96.5 123t-139.5 94l83 66q131 -69 215 -185.5t84 -262.5q0 -134 -73 -212t-195 -78q-118 0 -190.5 71.5t-72.5 186.5q0 107 66.5 179t172.5 72zM455 242q0 69 -41.5 114.5t-112.5 45.5t-110 -45.5t-39 -114.5t38.5 -113.5t110.5 -44.5
q73 0 113.5 44.5t40.5 113.5z" />
    <glyph glyph-name="product" unicode="&#x220f;" horiz-adv-x="612" 
d="M572 586h-70v-586h-80v586h-232v-586h-80v586h-70v80h532v-80z" />
    <glyph glyph-name="summation" unicode="&#x2211;" horiz-adv-x="571" 
d="M524 79v-79h-489v24l294 309l-294 309v24h489v-80h-329l243 -253l-243 -254h329z" />
    <glyph glyph-name="minus" unicode="&#x2212;" 
d="M539 257h-491v94h491v-94z" />
    <glyph glyph-name="asteriskmath" unicode="&#x2217;" horiz-adv-x="584" 
d="M263 202q13 49 14 106q-52 -34 -84 -66q-9 -9 -26 -27.5t-28 -29t-21 -15.5q-13 -7 -27 -7q-29 0 -46 27q-8 14 -8 29q0 29 27 45q11 6 25.5 10.5t38 9.5t36.5 9q44 12 99 40q-50 26 -99 40q-13 4 -36 9t-38 9.5t-26 10.5q-27 15 -27 45q0 15 8 29q17 27 46 27
q14 0 27 -7q10 -5 20 -15t27.5 -28.5t27.5 -28.5q36 -36 84 -66q-1 56 -14 106q-3 12 -10.5 34.5t-11 38t-3.5 27.5q0 24 15 39t39 15t39 -15t15 -39q0 -12 -3.5 -27.5t-11 -38t-10.5 -34.5q-12 -46 -15 -106q48 29 85 66q9 9 26 27.5t28 28.5t21 16q13 7 27 7q29 0 46 -27
q8 -14 8 -29q0 -30 -27 -45q-11 -6 -26.5 -11t-39 -10t-34.5 -8q-47 -13 -100 -40q57 -29 100 -40q15 -4 40 -9.5t37.5 -9.5t22.5 -10q27 -16 27 -45q0 -15 -8 -29q-17 -27 -46 -27q-14 0 -27 7q-10 5 -20 15t-27.5 28.5t-27.5 28.5q-33 33 -85 66q3 -58 15 -106
q4 -15 11 -37.5t10.5 -36t3.5 -25.5q0 -25 -15 -40t-39 -15t-39 15t-15 40q0 12 3.5 25.5t10.5 36t11 37.5z" />
    <glyph glyph-name="radical" unicode="&#x221a;" horiz-adv-x="579" 
d="M517 740l71 -35l-374 -759h-12l-189 378l71 36l123 -249z" />
    <glyph glyph-name="infinity" unicode="&#x221e;" horiz-adv-x="788" 
d="M744 275q0 -70 -49 -119t-119 -49q-68 0 -116 48l-65 66l-67 -66q-48 -48 -116 -48q-70 0 -119 49t-49 119t49 118.5t119 48.5q69 0 116 -47l67 -66l65 66q47 47 116 47q70 0 119 -48.5t49 -118.5zM666 275q0 37 -26.5 63t-63.5 26q-15 0 -29 -5t-28.5 -16.5t-23.5 -20
t-24.5 -25t-21.5 -22.5l63 -62q27 -27 64 -27t63.5 26t26.5 63zM340 276l-63 61q-27 27 -65 27q-37 0 -63 -26t-26 -63t26 -63t63 -26q19 0 39 10.5t29.5 18.5t33 33t26.5 28z" />
    <glyph glyph-name="integral" unicode="&#x222b;" horiz-adv-x="318" 
d="M299 686l-43 -51q-18 20 -40 20q-41 0 -41 -56q0 -31 27 -297q25 -236 25 -303q0 -60 -29 -92t-80 -32q-57 0 -96 39l44 51q17 -20 39 -20q41 0 41 56q0 31 -27 297q-25 236 -25 303q0 60 29 92t81 32q56 0 95 -39z" />
    <glyph glyph-name="approxequal" unicode="&#x2248;" 
d="M73 153l-35 39q68 92 143 92q37 0 118 -34q75 -32 110 -32q55 0 108 48l35 -39q-69 -93 -143 -93q-37 0 -118 35q-75 32 -110 32q-53 0 -108 -48zM73 344l-35 39q68 92 143 92q37 0 118 -34q75 -32 110 -32q55 0 108 48l35 -39q-69 -93 -143 -93q-37 0 -118 35
q-75 32 -110 32q-53 0 -108 -48z" />
    <glyph glyph-name="notequal" unicode="&#x2260;" 
d="M559 150h-271l-53 -160h-73l54 160h-188v84h215l28 85h-243v84h271l54 161h73l-54 -161h187v-84h-215l-29 -85h244v-84z" />
    <glyph glyph-name="lessequal" unicode="&#x2264;" 
d="M539 0h-491v88h491v-88zM55 390l419 256l44 -81l-298 -175l298 -175l-44 -81z" />
    <glyph glyph-name="greaterequal" unicode="&#x2265;" 
d="M538 0h-491v88h491v-88zM113 646l419 -256l-419 -256l-45 81l298 175l-298 175z" />
    <glyph glyph-name="uni229B" unicode="&#x229b;" horiz-adv-x="918" 
d="M878 333q0 -173 -123 -296t-296 -123t-296 123t-123 296t123 296t296 123t296 -123t123 -296zM828 333q0 152 -108.5 260.5t-260.5 108.5t-260.5 -108.5t-108.5 -260.5t108.5 -260.5t260.5 -108.5t260.5 108.5t108.5 260.5zM430 202q13 49 14 106q-52 -34 -84 -66
q-9 -9 -26 -27.5t-28 -29t-21 -15.5q-13 -7 -27 -7q-29 0 -46 27q-8 14 -8 29q0 29 27 45q11 6 25.5 10.5t38 9.5t36.5 9q44 12 99 40q-50 26 -99 40q-13 4 -36 9t-38 9.5t-26 10.5q-27 15 -27 45q0 15 8 29q17 27 46 27q14 0 27 -7q10 -5 20 -15t27.5 -28.5t27.5 -28.5
q36 -36 84 -66q-1 56 -14 106q-3 12 -10.5 34.5t-11 38t-3.5 27.5q0 24 15 39t39 15t39 -15t15 -39q0 -12 -3.5 -27.5t-11 -38t-10.5 -34.5q-12 -46 -15 -106q48 29 85 66q9 9 26 27.5t28 28.5t21 16q13 7 27 7q29 0 46 -27q8 -14 8 -29q0 -30 -27 -45q-11 -6 -26.5 -11
t-39 -10t-34.5 -8q-47 -13 -100 -40q57 -29 100 -40q15 -4 40 -9.5t37.5 -9.5t22.5 -10q27 -16 27 -45q0 -15 -8 -29q-17 -27 -46 -27q-14 0 -27 7q-10 5 -20 15t-27.5 28.5t-27.5 28.5q-33 33 -85 66q3 -58 15 -106q4 -15 11 -37.5t10.5 -36t3.5 -25.5q0 -25 -15 -40
t-39 -15t-39 15t-15 40q0 12 3.5 25.5t10.5 36t11 37.5z" />
    <glyph glyph-name="filledbox" unicode="&#x25a0;" horiz-adv-x="766" 
d="M50 666h666v-666h-666v666z" />
    <glyph glyph-name="H22073" unicode="&#x25a1;" horiz-adv-x="766" 
d="M50 666h666v-666h-666v666zM666 616h-566v-566h566v566z" />
    <glyph glyph-name="triagup" unicode="&#x25b2;" horiz-adv-x="532" 
d="M266 720l234 -720h-468z" />
    <glyph glyph-name="uni25B6" unicode="&#x25b6;" horiz-adv-x="469" 
d="M70 -20v706l353 -353z" />
    <glyph glyph-name="uni25B7" unicode="&#x25b7;" horiz-adv-x="469" 
d="M70 -20v706l353 -353zM114 580v-494l247 247z" />
    <glyph glyph-name="triagrt" unicode="&#x25ba;" horiz-adv-x="830" 
d="M790 333l-720 -234v468z" />
    <glyph glyph-name="uni25BB" unicode="&#x25bb;" horiz-adv-x="830" 
d="M790 333l-720 -234v468zM110 154l552 179l-552 179v-358z" />
    <glyph glyph-name="triagdn" unicode="&#x25bc;" horiz-adv-x="532" 
d="M266 -54l-234 720h468z" />
    <glyph glyph-name="uni25C0" unicode="&#x25c0;" horiz-adv-x="469" 
d="M399 686v-706l-353 353z" />
    <glyph glyph-name="uni25C1" unicode="&#x25c1;" horiz-adv-x="469" 
d="M399 686v-706l-353 353zM355 86v494l-247 -247z" />
    <glyph glyph-name="triaglf" unicode="&#x25c4;" horiz-adv-x="830" 
d="M40 333l720 234v-468z" />
    <glyph glyph-name="uni25C5" unicode="&#x25c5;" horiz-adv-x="830" 
d="M40 333l720 234v-468zM720 512l-552 -179l552 -179v358z" />
    <glyph glyph-name="lozenge" unicode="&#x25ca;" horiz-adv-x="607" 
d="M565 333l-259 -381h-12l-259 381l259 381h12zM469 333l-169 249l-169 -249l169 -250z" />
    <glyph glyph-name="circle" unicode="&#x25cb;" horiz-adv-x="766" 
d="M30 333q0 146 103.5 249.5t249.5 103.5t249.5 -103.5t103.5 -249.5t-103.5 -249.5t-249.5 -103.5t-249.5 103.5t-103.5 249.5zM80 333q0 -125 89 -214t214 -89t214 89t89 214t-89 214t-214 89t-214 -89t-89 -214z" />
    <glyph glyph-name="H18533" unicode="&#x25cf;" horiz-adv-x="766" 
d="M30 333q0 146 103.5 249.5t249.5 103.5t249.5 -103.5t103.5 -249.5t-103.5 -249.5t-249.5 -103.5t-249.5 103.5t-103.5 249.5z" />
    <glyph glyph-name="uni2605" unicode="&#x2605;" horiz-adv-x="846" 
d="M516 434h298l-241 -175l92 -285l-242 175l-242 -175l92 285l-241 175h298l93 284z" />
    <glyph glyph-name="uni2606" unicode="&#x2606;" horiz-adv-x="846" 
d="M516 434h298l-241 -175l92 -285l-242 175l-242 -175l92 285l-241 175h298l93 284zM765 418h-260l-82 251v-500l212 -154l-81 250z" />
    <glyph glyph-name="uni271A" unicode="&#x271a;" horiz-adv-x="766" 
d="M272 0v222h-222v222h222v222h222v-222h222v-222h-222v-222h-222z" />
    <glyph glyph-name="uni2765" unicode="&#x2765;" horiz-adv-x="552" 
d="M339 334v-2q71 0 122 -50t51 -121t-51 -122t-122 -51t-122 51q-6 6 -12 13.5t-10.5 13.5t-10.5 16t-9.5 15.5t-10 18.5t-9 17.5t-10.5 20t-10 20.5q-78 154 -135 154v10q57 0 135 154q3 7 14.5 29t16.5 31.5t14 25.5t18 27.5t19 21.5q51 51 122 51t122 -51t51 -122
t-51 -121t-122 -50z" />
    <glyph glyph-name="uni3008" unicode="&#x3008;" horiz-adv-x="308" 
d="M286 -2l-82 -41l-190 372v8l190 372l82 -41l-171 -335z" />
    <glyph glyph-name="uni3009" unicode="&#x3009;" horiz-adv-x="307" 
d="M22 668l81 41l190 -372v-8l-190 -372l-81 41l171 335z" />
    <glyph glyph-name="uni300A" unicode="&#x300a;" horiz-adv-x="498" 
d="M204 709l82 -41l-171 -335l171 -335l-82 -41l-190 372v8zM394 709l82 -41l-171 -335l171 -335l-82 -41l-190 372v8z" />
    <glyph glyph-name="uni300B" unicode="&#x300b;" horiz-adv-x="498" 
d="M212 668l82 41l190 -372v-8l-190 -372l-82 41l172 335zM22 668l82 41l190 -372v-8l-190 -372l-82 41l171 335z" />
    <glyph glyph-name="s_t" unicode="&#xfb06;" horiz-adv-x="935" 
d="M495 160q0 -78 -60 -125t-164 -47q-170 0 -244 118l80 52q57 -80 170 -80q51 0 80 18t29 52q0 33 -28.5 45.5t-104.5 25.5q-97 17 -147.5 51t-50.5 106q0 79 59 120t147 41q56 0 108 -20q0 18 5 38q11 74 66 122t146 48q70 0 111.5 -30t41.5 -92v-78h162v-89h-162v-272
q0 -78 70 -78q38 0 67 23l44 -81q-51 -40 -125 -40q-98 0 -142 67q-25 38 -25 110v271h-88v89h88v67q0 56 -66 56q-55 0 -83 -37.5t-28 -89.5t26 -92l-72 -46q-53 64 -144 64q-42 0 -70.5 -15t-28.5 -44q0 -31 30 -44t95 -24q38 -7 65 -14t56 -19t46.5 -28.5t29 -41.5
t11.5 -57z" />
    <glyph glyph-name="u1F4D5" unicode="&#x1f4d5;" horiz-adv-x="876" 
d="M682 374q0 80 -44.5 127t-125.5 47t-129 -49.5t-48 -126.5t48 -126t133 -49q92 0 161 63l-63 57q-42 -39 -92 -39q-36 0 -59 19t-25 53h243q1 7 1 24zM304 -8h458q-12 19 -12 44q0 24 12 44h-458q-18 0 -31 -13t-13 -31t13 -31t31 -13zM587 410h-148q2 32 22 49t52 17
t51.5 -17t22.5 -49zM345 666h453v-714h-494q-34 0 -59 25t-25 59v505q0 52 36.5 88.5t88.5 36.5zM345 746v-40q-68 0 -116.5 -48.5t-48.5 -116.5h-40q0 85 60 145t145 60zM345 826v-40q-101 0 -173 -72t-72 -173h-40q0 118 83.5 201.5t201.5 83.5z" />
    <glyph glyph-name="u1F4D6" unicode="&#x1f4d6;" horiz-adv-x="918" 
d="M449 76v342q0 40 -65.5 86t-177.5 46v-342q108 0 170.5 -46t62.5 -86h10zM469 418v-342h10q0 40 62.5 86t170.5 46v342q-112 0 -177.5 -46t-65.5 -86zM78 80v506q0 53 37.5 90.5t90.5 37.5h506q53 0 90.5 -37.5t37.5 -90.5v-506q0 -53 -37.5 -90.5t-90.5 -37.5h-506
q-53 0 -90.5 37.5t-37.5 90.5z" />
    <glyph glyph-name="u1F50C" unicode="&#x1f50c;" horiz-adv-x="918" 
d="M459 633q-30 0 -57 -6v-116h-169v-117h169v-122h-169v-117h169v-117q30 -5 57 -5q108 0 190 67.5t103 171.5h121q-22 -152 -139.5 -255t-274.5 -103q-173 0 -296 123t-123 296t123 296t296 123q157 0 274.5 -103t139.5 -255h-121q-21 103 -103 171t-190 68z" />
    <glyph glyph-name="u1F697" unicode="&#x1f697;" horiz-adv-x="1272" 
d="M168 78q-118 0 -118 180q0 142 66.5 250t176 162.5t242.5 54.5q152 0 258 -74t147 -211q132 -15 212 -74t80 -157q0 -58 -28 -94.5t-75 -36.5h-15q-13 -42 -47.5 -68t-79.5 -26q-44 0 -79 26t-48 68h-438q-13 -42 -47.5 -68t-79.5 -26q-44 0 -79 26t-48 68zM404 412h262
q93 0 134 10.5t41 41.5q0 17 -10 35q-37 72 -119.5 114t-176.5 42t-176.5 -42t-119.5 -114q-10 -18 -10 -35q0 -31 41 -41.5t134 -10.5z" />
    <glyph glyph-name="u1F698" unicode="&#x1f698;" horiz-adv-x="962" 
d="M303 78v-31q0 -34 -20.5 -46.5t-64.5 -12.5t-64 12.5t-20 46.5v31q-36 30 -56 75t-20 129q0 209 117.5 326t305.5 117t305.5 -117t117.5 -326q0 -84 -20 -129t-56 -75v-31q0 -34 -20 -46.5t-64 -12.5t-64.5 12.5t-20.5 46.5v31h-356zM350 412h262q93 0 134 10.5t41 41.5
q0 17 -10 35q-37 72 -119.5 114t-176.5 42t-176.5 -42t-119.5 -114q-10 -18 -10 -35q0 -31 41 -41.5t134 -10.5zM808 264q0 30 -21 51t-51 21t-51 -21t-21 -51t21 -51t51 -21t51 21t21 51zM154 264q0 -30 21 -51t51 -21t51 21t21 51t-21 51t-51 21t-51 -21t-21 -51z" />
    <glyph glyph-name="J.alt1" horiz-adv-x="520" 
d="M443 217q0 -110 -61 -169.5t-164 -59.5q-143 0 -206 115l95 57q39 -67 112 -67q107 0 107 122v349h-187v102h304v-449z" />
    <glyph glyph-name="Q.alt1" horiz-adv-x="746" 
d="M704 333q0 -157 -99 -254l77 -87l-84 -69l-79 96q-67 -31 -146 -31q-150 0 -240.5 98t-90.5 247t90.5 247t240.5 98t240.5 -98t90.5 -247zM582 333q0 105 -56.5 171t-152.5 66q-97 0 -153 -66t-56 -171t56 -171t153 -66q96 0 152.5 66t56.5 171z" />
    <glyph glyph-name="a.alt1" horiz-adv-x="662" 
d="M569 525v-403q0 -26 8.5 -37t27.5 -11t29 7l13 -76q-27 -13 -67 -13q-94 0 -115 83q-61 -87 -182 -87q-112 0 -177.5 77.5t-65.5 196.5q0 120 65.5 197.5t175.5 77.5q111 0 177 -89v77h111zM458 262q0 77 -40.5 126.5t-112.5 49.5t-110 -49.5t-38 -126.5t38 -126t110 -49
q73 0 113 49.5t40 125.5z" />
    <glyph glyph-name="l.alt1" horiz-adv-x="297" 
d="M74 138v576h110v-577q0 -55 46 -55q27 0 45 11l21 -84q-31 -19 -85 -19q-80 0 -115 48q-22 32 -22 100z" />
    <glyph glyph-name="y.alt1" horiz-adv-x="603" 
d="M420 47v69q-68 -88 -172 -88q-85 0 -133 52.5t-48 142.5v302h110v-276q0 -120 104 -120q60 0 99.5 39t39.5 103v254h110v-454q0 -119 -57 -180q-72 -75 -209 -75q-120 0 -205 60l48 85q64 -48 157 -48q70 0 113 33t43 101z" />
    <glyph glyph-name="a.sc" horiz-adv-x="601" 
d="M588 0h-118l-53 133h-238l-53 -133h-113l223 547h129zM386 221l-87 234l-89 -234h176z" />
    <glyph glyph-name="b.sc" horiz-adv-x="586" 
d="M541 158q0 -71 -49.5 -114.5t-138.5 -43.5h-275v547h262q82 0 131 -36.5t49 -99.5q0 -79 -74 -117q95 -39 95 -136zM408 394q0 31 -21 46.5t-53 15.5h-145v-128h143q35 0 55.5 18.5t20.5 47.5zM428 165q0 34 -21.5 55.5t-61.5 21.5h-156v-151h158q37 0 59 20.5t22 53.5z
" />
    <glyph glyph-name="c.sc" horiz-adv-x="586" 
d="M322 82q97 0 143 86l89 -51q-34 -61 -94.5 -95t-139.5 -34q-124 0 -201 80t-77 206t77 206t201 80q154 0 232 -125l-88 -54q-44 85 -142 85q-76 0 -121 -54.5t-45 -137.5t45 -137.5t121 -54.5z" />
    <glyph glyph-name="d.sc" horiz-adv-x="629" 
d="M78 547h232q130 0 202.5 -75.5t72.5 -196.5q0 -123 -72.5 -199t-202.5 -76h-232v547zM310 453h-121v-359h121q77 0 118.5 49.5t41.5 131.5q0 81 -41.5 129.5t-118.5 48.5z" />
    <glyph glyph-name="e.sc" horiz-adv-x="547" 
d="M504 0h-426v547h416v-94h-305v-123h268v-88h-268v-148h315v-94z" />
    <glyph glyph-name="f.sc" horiz-adv-x="535" 
d="M504 453h-315v-134h268v-88h-268v-231h-111v547h426v-94z" />
    <glyph glyph-name="g.sc" horiz-adv-x="625" 
d="M324 466q-78 0 -122.5 -54.5t-44.5 -139.5q0 -86 45 -139t125 -53q69 0 110 34.5t45 87.5h-146v88h251q4 -16 4 -43q0 -110 -71 -184.5t-196 -74.5q-129 0 -205.5 80t-76.5 206t77.5 206t204.5 80q76 0 136.5 -32.5t97.5 -90.5l-90 -50q-47 79 -144 79z" />
    <glyph glyph-name="h.sc" horiz-adv-x="640" 
d="M562 0h-111v239h-262v-239h-111v547h111v-214h262v214h111v-547z" />
    <glyph glyph-name="i.sc" horiz-adv-x="267" 
d="M189 0h-111v547h111v-547z" />
    <glyph glyph-name="j.sc" horiz-adv-x="457" 
d="M385 177q0 -88 -51.5 -138.5t-143.5 -50.5q-127 0 -181 99l88 53q30 -58 94 -58q84 0 84 95v370h110v-370z" />
    <glyph glyph-name="jsc.alt1" horiz-adv-x="462" 
d="M390 177q0 -88 -51.5 -138.5t-143.5 -50.5q-127 0 -181 99l88 53q30 -58 94 -58q84 0 84 95v276h-153v94h263v-370z" />
    <glyph glyph-name="k.sc" horiz-adv-x="585" 
d="M576 0h-134l-170 242q-25 -27 -83 -93v-149h-111v547h111v-269l234 269h136l-211 -230z" />
    <glyph glyph-name="l.sc" horiz-adv-x="505" 
d="M486 0h-408v547h111v-453h297v-94z" />
    <glyph glyph-name="m.sc" horiz-adv-x="777" 
d="M699 0h-106v422l-163 -422h-85l-162 420v-420h-105v547h156l156 -411l155 411h154v-547z" />
    <glyph glyph-name="n.sc" horiz-adv-x="642" 
d="M564 0h-132l-251 413v-413h-103v547h139l243 -405v405h104v-547z" />
    <glyph glyph-name="o.sc" horiz-adv-x="645" 
d="M322 560q128 0 204.5 -81.5t76.5 -203.5q0 -123 -76.5 -205t-204.5 -82q-127 0 -203.5 81.5t-76.5 204.5t76.5 204.5t203.5 81.5zM322 85q77 0 122 54t45 136q0 81 -45 134t-122 53q-76 0 -120.5 -53.5t-44.5 -134.5q0 -82 44.5 -135.5t120.5 -53.5z" />
    <glyph glyph-name="p.sc" horiz-adv-x="562" 
d="M189 283h138q45 0 70.5 21.5t25.5 63.5t-25.5 63.5t-70.5 21.5h-138v-170zM335 189h-146v-189h-111v547h257q91 0 145 -48.5t54 -130.5t-54 -130.5t-145 -48.5z" />
    <glyph glyph-name="q.sc" horiz-adv-x="645" 
d="M580 -8l-68 -59l-68 80q-55 -25 -122 -25q-127 0 -203.5 81.5t-76.5 204.5q0 122 76.5 203.5t203.5 81.5q128 0 204.5 -81.5t76.5 -202.5q0 -132 -85 -214zM322 82q31 0 55 12l-57 66l63 54l62 -71q44 50 44 130q0 81 -45 135t-122 54q-76 0 -120.5 -54t-44.5 -136
t44 -136t121 -54z" />
    <glyph glyph-name="qsc.alt1" horiz-adv-x="647" 
d="M322 559q128 0 204.5 -81.5t76.5 -202.5q0 -124 -80 -206l63 -72l-74 -64l-69 81q-54 -26 -121 -26q-127 0 -203.5 81.5t-76.5 204.5q0 122 76.5 203.5t203.5 81.5zM322 85q77 0 122 54t45 136q0 80 -45 133.5t-122 53.5q-76 0 -120.5 -53.5t-44.5 -134.5
q0 -82 44 -135.5t121 -53.5z" />
    <glyph glyph-name="r.sc" horiz-adv-x="591" 
d="M553 0h-122l-110 201h-132v-201h-111v547h265q93 0 145 -46.5t52 -123.5q0 -111 -111 -157zM428 371q0 38 -24 60t-66 22h-149v-163h149q42 0 66 21.5t24 59.5z" />
    <glyph glyph-name="s.sc" horiz-adv-x="546" 
d="M264 470q-41 0 -69 -16t-28 -50q0 -33 27.5 -46.5t95.5 -26.5q40 -8 66 -14.5t57 -19.5t49 -29.5t30.5 -42.5t12.5 -59q0 -80 -62 -129t-168 -49q-168 0 -247 124l84 51q27 -44 73 -65t96 -21t81 20t31 56t-32.5 51t-113.5 30q-91 17 -140.5 53t-49.5 107q0 78 59 121.5
t150 43.5q144 0 230 -106l-75 -57q-27 34 -68.5 54t-88.5 20z" />
    <glyph glyph-name="t.sc" horiz-adv-x="537" 
d="M507 453h-184v-453h-110v453h-183v94h477v-94z" />
    <glyph glyph-name="u.sc" horiz-adv-x="621" 
d="M550 213q0 -108 -65.5 -166.5t-174.5 -58.5t-174 58.5t-65 166.5v334h111v-334q0 -63 34 -96t94 -33q59 0 94 33t35 96v334h111v-334z" />
    <glyph glyph-name="v.sc" horiz-adv-x="573" 
d="M561 547l-215 -547h-119l-215 547h122l154 -422l152 422h121z" />
    <glyph glyph-name="w.sc" horiz-adv-x="825" 
d="M800 547l-156 -547h-120l-112 398l-111 -398h-122l-152 547h118l102 -408l118 408h99l117 -411l100 411h119z" />
    <glyph glyph-name="x.sc" horiz-adv-x="592" 
d="M581 0h-134l-152 207l-151 -207h-133l215 287l-198 260h135l134 -190l134 190h133l-196 -260z" />
    <glyph glyph-name="y.sc" horiz-adv-x="560" 
d="M553 547l-218 -328v-219h-111v218q-161 245 -217 329h130l145 -228q21 33 69 110.5t74 117.5h128z" />
    <glyph glyph-name="z.sc" horiz-adv-x="541" 
d="M498 0h-457v82l300 371h-288v94h438v-79l-303 -374h310v-94z" />
    <glyph glyph-name="aacute.alt1" horiz-adv-x="662" 
d="M293 575l-42 29q61 73 86 126l98 -16q-16 -36 -57 -75.5t-85 -63.5zM569 525v-403q0 -26 8.5 -37t27.5 -11t29 7l13 -76q-27 -13 -67 -13q-94 0 -115 83q-61 -87 -182 -87q-112 0 -177.5 77.5t-65.5 196.5q0 120 65.5 197.5t175.5 77.5q111 0 177 -89v77h111zM458 262
q0 77 -40.5 126.5t-112.5 49.5t-110 -49.5t-38 -126.5t38 -126t110 -49q73 0 113 49.5t40 125.5z" />
    <glyph glyph-name="aacute.sc" horiz-adv-x="601" 
d="M588 0h-118l-53 133h-238l-53 -133h-113l223 547h129zM386 221l-87 234l-89 -234h176zM289 575l-42 29q61 73 86 126l98 -16q-16 -36 -57 -75.5t-85 -63.5z" />
    <glyph glyph-name="abreve.alt1" horiz-adv-x="662" 
d="M307 587q-68 0 -111.5 33.5t-52.5 85.5l58 18q22 -65 106 -65q85 0 106 65l58 -18q-9 -52 -52.5 -85.5t-111.5 -33.5zM569 525v-403q0 -26 8.5 -37t27.5 -11t29 7l13 -76q-27 -13 -67 -13q-94 0 -115 83q-61 -87 -182 -87q-112 0 -177.5 77.5t-65.5 196.5
q0 120 65.5 197.5t175.5 77.5q111 0 177 -89v77h111zM458 262q0 77 -40.5 126.5t-112.5 49.5t-110 -49.5t-38 -126.5t38 -126t110 -49q73 0 113 49.5t40 125.5z" />
    <glyph glyph-name="abreve.sc" horiz-adv-x="601" 
d="M588 0h-118l-53 133h-238l-53 -133h-113l223 547h129zM386 221l-87 234l-89 -234h176zM299 587q-68 0 -111.5 33.5t-52.5 85.5l58 18q22 -65 106 -65q85 0 106 65l58 -18q-9 -52 -52.5 -85.5t-111.5 -33.5z" />
    <glyph glyph-name="acircumflex.alt1" horiz-adv-x="662" 
d="M569 525v-403q0 -26 8.5 -37t27.5 -11t29 7l13 -76q-27 -13 -67 -13q-94 0 -115 83q-61 -87 -182 -87q-112 0 -177.5 77.5t-65.5 196.5q0 120 65.5 197.5t175.5 77.5q111 0 177 -89v77h111zM458 262q0 77 -40.5 126.5t-112.5 49.5t-110 -49.5t-38 -126.5t38 -126t110 -49
q73 0 113 49.5t40 125.5zM264 725h82q61 -54 128 -99l-28 -47q-82 24 -141 74q-57 -50 -141 -74l-28 47q70 46 128 99z" />
    <glyph glyph-name="acircumflex.sc" horiz-adv-x="601" 
d="M588 0h-118l-53 133h-238l-53 -133h-113l223 547h129zM386 221l-87 234l-89 -234h176zM258 725h82q61 -54 128 -99l-28 -47q-82 24 -141 74q-57 -50 -141 -74l-28 47q70 46 128 99z" />
    <glyph glyph-name="adieresis.alt1" horiz-adv-x="662" 
d="M569 525v-403q0 -26 8.5 -37t27.5 -11t29 7l13 -76q-27 -13 -67 -13q-94 0 -115 83q-61 -87 -182 -87q-112 0 -177.5 77.5t-65.5 196.5q0 120 65.5 197.5t175.5 77.5q111 0 177 -89v77h111zM458 262q0 77 -40.5 126.5t-112.5 49.5t-110 -49.5t-38 -126.5t38 -126t110 -49
q73 0 113 49.5t40 125.5zM242 594h-89v91h89v-91zM457 594h-88v91h88v-91z" />
    <glyph glyph-name="adieresis.sc" horiz-adv-x="601" 
d="M588 0h-118l-53 133h-238l-53 -133h-113l223 547h129zM386 221l-87 234l-89 -234h176zM236 594h-89v91h89v-91zM451 594h-88v91h88v-91z" />
    <glyph glyph-name="AE.alt1" horiz-adv-x="933" 
d="M120 0h-127l340 666h547v-102h-316v-163h269v-102h-269v-197h326v-102h-444v296q-195 -29 -284 -213zM403 575l-121 -243q72 47 164 62v181h-43z" />
    <glyph glyph-name="ae.alt1" horiz-adv-x="1007" 
d="M458 262q0 77 -40.5 126.5t-112.5 49.5t-110 -49.5t-38 -126.5t38 -126t110 -49q73 0 113 49.5t40 125.5zM732 537q109 0 174 -74.5t65 -191.5q0 -17 -2 -35h-400q4 -71 47 -111t113 -40q90 0 151 66l73 -68q-90 -95 -228 -95q-153 0 -220 112q-31 -52 -85 -82t-123 -30
q-117 0 -187 76.5t-70 198.5q0 118 66 196t175 78q111 0 177 -89v77h111v-66q64 78 163 78zM570 313h289q-5 65 -45 100t-99 35q-61 0 -100.5 -37t-44.5 -98z" />
    <glyph glyph-name="ae.sc" horiz-adv-x="825" 
d="M782 0h-389v138h-198v1l-72 -139h-120l295 547h474v-93h-269v-124h229v-87h-229v-151h279v-92zM393 225v235h-32l-121 -235h153z" />
    <glyph glyph-name="aesc.alt1" horiz-adv-x="836" 
d="M404 0v237q-80 -15 -145.5 -57t-96.5 -105l-39 -75h-120l295 547h485v-93h-268v-124h229v-87h-229v-151h278v-92h-389zM361 460l-101 -192q64 42 144 56v136h-43z" />
    <glyph glyph-name="AEacute.alt1" horiz-adv-x="933" 
d="M463 701l-42 29q61 73 86 126l98 -16q-16 -36 -57 -75.5t-85 -63.5zM120 0h-127l340 666h547v-102h-316v-163h269v-102h-269v-197h326v-102h-444v296q-195 -29 -284 -213zM403 575l-121 -243q72 47 164 62v181h-43z" />
    <glyph glyph-name="aeacute.alt1" horiz-adv-x="1007" 
d="M502 575l-42 29q61 73 86 126l98 -16q-16 -36 -57 -75.5t-85 -63.5zM458 262q0 77 -40.5 126.5t-112.5 49.5t-110 -49.5t-38 -126.5t38 -126t110 -49q73 0 113 49.5t40 125.5zM732 537q109 0 174 -74.5t65 -191.5q0 -17 -2 -35h-400q4 -71 47 -111t113 -40q90 0 151 66
l73 -68q-90 -95 -228 -95q-153 0 -220 112q-31 -52 -85 -82t-123 -30q-117 0 -187 76.5t-70 198.5q0 118 66 196t175 78q111 0 177 -89v77h111v-66q64 78 163 78zM570 313h289q-5 65 -45 100t-99 35q-61 0 -100.5 -37t-44.5 -98z" />
    <glyph glyph-name="aeacute.sc" horiz-adv-x="825" 
d="M419 575l-42 29q61 73 86 126l98 -16q-16 -36 -57 -75.5t-85 -63.5zM782 0h-389v138h-198v1l-72 -139h-120l295 547h474v-93h-269v-124h229v-87h-229v-151h279v-92zM393 225v235h-32l-121 -235h153z" />
    <glyph glyph-name="aeacutesc.alt1" horiz-adv-x="836" 
d="M418 575l-42 29q61 73 86 126l98 -16q-16 -36 -57 -75.5t-85 -63.5zM404 0v237q-80 -15 -145.5 -57t-96.5 -105l-39 -75h-120l295 547h485v-93h-268v-124h229v-87h-229v-151h278v-92h-389zM361 460l-101 -192q64 42 144 56v136h-43z" />
    <glyph glyph-name="agrave.alt1" horiz-adv-x="662" 
d="M371 604l-42 -29q-44 24 -85 63.5t-57 75.5l98 16q25 -53 86 -126zM569 525v-403q0 -26 8.5 -37t27.5 -11t29 7l13 -76q-27 -13 -67 -13q-94 0 -115 83q-61 -87 -182 -87q-112 0 -177.5 77.5t-65.5 196.5q0 120 65.5 197.5t175.5 77.5q111 0 177 -89v77h111zM458 262
q0 77 -40.5 126.5t-112.5 49.5t-110 -49.5t-38 -126.5t38 -126t110 -49q73 0 113 49.5t40 125.5z" />
    <glyph glyph-name="agrave.sc" horiz-adv-x="601" 
d="M588 0h-118l-53 133h-238l-53 -133h-113l223 547h129zM386 221l-87 234l-89 -234h176zM365 604l-42 -29q-44 24 -85 63.5t-57 75.5l98 16q25 -53 86 -126z" />
    <glyph glyph-name="amacron.alt1" horiz-adv-x="662" 
d="M569 525v-403q0 -26 8.5 -37t27.5 -11t29 7l13 -76q-27 -13 -67 -13q-94 0 -115 83q-61 -87 -182 -87q-112 0 -177.5 77.5t-65.5 196.5q0 120 65.5 197.5t175.5 77.5q111 0 177 -89v77h111zM458 262q0 77 -40.5 126.5t-112.5 49.5t-110 -49.5t-38 -126.5t38 -126t110 -49
q73 0 113 49.5t40 125.5zM464 604h-311v67h311v-67z" />
    <glyph glyph-name="amacron.sc" horiz-adv-x="601" 
d="M588 0h-118l-53 133h-238l-53 -133h-113l223 547h129zM386 221l-87 234l-89 -234h176zM455 604h-311v67h311v-67z" />
    <glyph glyph-name="aogonek.alt1" horiz-adv-x="662" 
d="M569 525v-403q0 -26 8.5 -37t27.5 -11t29 7l13 -76q-27 -13 -67 -13q-16 0 -31 3q-26 -29 -26 -57q0 -22 14.5 -33.5t38.5 -11.5q40 0 70 33v-76q-30 -28 -85 -28q-49 0 -80.5 24t-31.5 65q0 57 59 100q-32 21 -43 64q-61 -87 -182 -87q-112 0 -177.5 77.5t-65.5 196.5
q0 120 65.5 197.5t175.5 77.5q111 0 177 -89v77h111zM458 262q0 77 -40.5 126.5t-112.5 49.5t-110 -49.5t-38 -126.5t38 -126t110 -49q73 0 113 49.5t40 125.5z" />
    <glyph glyph-name="aogonek.sc" horiz-adv-x="601" 
d="M588 0q-114 -14 -114 -65q0 -19 14 -30.5t37 -11.5q36 0 62 33v-76q-26 -28 -78 -28q-46 0 -77.5 24.5t-31.5 63.5q0 55 68 94l-51 129h-238l-53 -133h-113l223 547h129zM386 221l-87 234l-89 -234h176z" />
    <glyph glyph-name="aring.alt1" horiz-adv-x="662" 
d="M419 677q0 -43 -32 -73t-80 -30t-80.5 30t-32.5 73t32.5 74t80.5 31q47 0 79.5 -31t32.5 -74zM361 677q0 22 -16 38.5t-38 16.5q-23 0 -39 -16t-16 -39q0 -22 16 -38t39 -16q22 0 38 16t16 38zM569 525v-403q0 -26 8.5 -37t27.5 -11t29 7l13 -76q-27 -13 -67 -13
q-94 0 -115 83q-61 -87 -182 -87q-112 0 -177.5 77.5t-65.5 196.5q0 120 65.5 197.5t175.5 77.5q111 0 177 -89v77h111zM458 262q0 77 -40.5 126.5t-112.5 49.5t-110 -49.5t-38 -126.5t38 -126t110 -49q73 0 113 49.5t40 125.5z" />
    <glyph glyph-name="aring.sc" horiz-adv-x="601" 
d="M355 602q0 22 -16.5 38.5t-38.5 16.5t-38.5 -16.5t-16.5 -38.5q0 -23 16 -39t39 -16t39 16t16 39zM385 225l-86 230l-88 -230h174zM188 603q0 43 32 73t80 30q47 0 79.5 -30t32.5 -73q0 -46 -39 -77l215 -526h-118l-54 138h-236l-54 -138h-113l214 526q-39 25 -39 77z
" />
    <glyph glyph-name="aringacute.alt1" horiz-adv-x="662" 
d="M419 659q0 -43 -32 -73t-80 -30t-80.5 30t-32.5 73t32.5 74t80.5 31q47 0 79.5 -31t32.5 -74zM361 659q0 22 -16 38.5t-38 16.5q-23 0 -39 -16t-16 -39q0 -22 16 -38t39 -16q22 0 38 16t16 38zM277 777l-42 29q61 73 86 126l98 -16q-16 -36 -57 -75.5t-85 -63.5zM569 525
v-403q0 -26 8.5 -37t27.5 -11t29 7l13 -76q-27 -13 -67 -13q-94 0 -115 83q-61 -87 -182 -87q-112 0 -177.5 77.5t-65.5 196.5q0 120 65.5 197.5t175.5 77.5q111 0 177 -89v77h111zM458 262q0 77 -40.5 126.5t-112.5 49.5t-110 -49.5t-38 -126.5t38 -126t110 -49
q73 0 113 49.5t40 125.5z" />
    <glyph glyph-name="aringacute.sc" horiz-adv-x="601" 
d="M277 724l-42 29q61 73 86 126l98 -16q-16 -36 -57 -75.5t-85 -63.5zM355 602q0 22 -16.5 38.5t-38.5 16.5t-38.5 -16.5t-16.5 -38.5q0 -23 16 -39t39 -16t39 16t16 39zM385 225l-86 230l-88 -230h174zM188 603q0 43 32 73t80 30q47 0 79.5 -30t32.5 -73q0 -46 -39 -77
l215 -526h-118l-54 138h-236l-54 -138h-113l214 526q-39 25 -39 77z" />
    <glyph glyph-name="atilde.alt1" horiz-adv-x="662" 
d="M438 709l42 -28q-16 -40 -44.5 -64.5t-62.5 -24.5q-26 0 -69 19.5t-61 19.5q-39 0 -69 -39l-42 28q15 39 44 63.5t63 24.5q25 0 68.5 -19t62.5 -19q36 0 68 39zM569 525v-403q0 -26 8.5 -37t27.5 -11t29 7l13 -76q-27 -13 -67 -13q-94 0 -115 83q-61 -87 -182 -87
q-112 0 -177.5 77.5t-65.5 196.5q0 120 65.5 197.5t175.5 77.5q111 0 177 -89v77h111zM458 262q0 77 -40.5 126.5t-112.5 49.5t-110 -49.5t-38 -126.5t38 -126t110 -49q73 0 113 49.5t40 125.5z" />
    <glyph glyph-name="atilde.sc" horiz-adv-x="601" 
d="M588 0h-118l-53 133h-238l-53 -133h-113l223 547h129zM386 221l-87 234l-89 -234h176zM431 709l42 -28q-16 -40 -44.5 -64.5t-62.5 -24.5q-26 0 -69 19.5t-61 19.5q-39 0 -69 -39l-42 28q15 39 44 63.5t63 24.5q25 0 68.5 -19t62.5 -19q36 0 68 39z" />
    <glyph glyph-name="cacute.sc" horiz-adv-x="586" 
d="M322 82q97 0 143 86l89 -51q-34 -61 -94.5 -95t-139.5 -34q-124 0 -201 80t-77 206t77 206t201 80q154 0 232 -125l-88 -54q-44 85 -142 85q-76 0 -121 -54.5t-45 -137.5t45 -137.5t121 -54.5zM309 575l-43 28q50 62 76 127l98 -16q-16 -36 -52.5 -74t-78.5 -65z" />
    <glyph glyph-name="ccaron.sc" horiz-adv-x="586" 
d="M322 82q97 0 143 86l89 -51q-34 -61 -94.5 -95t-139.5 -34q-124 0 -201 80t-77 206t77 206t201 80q154 0 232 -125l-88 -54q-44 85 -142 85q-76 0 -121 -54.5t-45 -137.5t45 -137.5t121 -54.5zM356 583h-82q-58 53 -128 99l28 47q84 -24 141 -74q59 50 141 74l28 -47
q-67 -45 -128 -99z" />
    <glyph glyph-name="ccedilla.sc" horiz-adv-x="586" 
d="M198 -146v71q30 -30 70 -30q22 0 36 11t14 31q0 27 -29 53q-111 10 -178.5 88.5t-67.5 195.5q0 126 77 206t201 80q154 0 232 -125l-88 -54q-44 85 -142 85q-76 0 -121 -54.5t-45 -137.5t45 -137.5t121 -54.5q97 0 143 86l89 -51q-63 -113 -201 -127q38 -32 38 -74
q0 -39 -31.5 -63.5t-79.5 -24.5q-55 0 -83 26z" />
    <glyph glyph-name="cdotaccent.sc" horiz-adv-x="586" 
d="M322 82q97 0 143 86l89 -51q-34 -61 -94.5 -95t-139.5 -34q-124 0 -201 80t-77 206t77 206t201 80q154 0 232 -125l-88 -54q-44 85 -142 85q-76 0 -121 -54.5t-45 -137.5t45 -137.5t121 -54.5zM361 596h-93v89h93v-89z" />
    <glyph glyph-name="ccircumflex.sc" horiz-adv-x="586" 
d="M322 82q97 0 143 86l89 -51q-34 -61 -94.5 -95t-139.5 -34q-124 0 -201 80t-77 206t77 206t201 80q154 0 232 -125l-88 -54q-44 85 -142 85q-76 0 -121 -54.5t-45 -137.5t45 -137.5t121 -54.5zM273 725h82q61 -54 128 -99l-28 -47q-82 24 -141 74q-57 -50 -141 -74
l-28 47q70 46 128 99z" />
    <glyph glyph-name="dcaron.sc" horiz-adv-x="629" 
d="M78 547h232q130 0 202.5 -75.5t72.5 -196.5q0 -123 -72.5 -199t-202.5 -76h-232v547zM310 453h-121v-359h121q77 0 118.5 49.5t41.5 131.5q0 81 -41.5 129.5t-118.5 48.5zM348 583h-82q-58 53 -128 99l28 47q84 -24 141 -74q59 50 141 74l28 -47q-67 -45 -128 -99z" />
    <glyph glyph-name="dcroat.sc" horiz-adv-x="630" 
d="M78 547h233q130 0 202.5 -75.5t72.5 -196.5q0 -123 -72.5 -199t-202.5 -76h-233v238h-60v71h60v238zM311 453h-122v-144h134v-71h-134v-144h122q77 0 118.5 49.5t41.5 131.5q0 81 -41.5 129.5t-118.5 48.5z" />
    <glyph glyph-name="eacute.sc" horiz-adv-x="547" 
d="M504 0h-426v547h416v-94h-305v-123h268v-88h-268v-148h315v-94zM271 575l-42 29q61 73 86 126l98 -16q-16 -36 -57 -75.5t-85 -63.5z" />
    <glyph glyph-name="ebreve.sc" horiz-adv-x="547" 
d="M504 0h-426v547h416v-94h-305v-123h268v-88h-268v-148h315v-94zM290 587q-68 0 -111.5 33.5t-52.5 85.5l58 18q22 -65 106 -65q85 0 106 65l58 -18q-9 -52 -52.5 -85.5t-111.5 -33.5z" />
    <glyph glyph-name="ecaron.sc" horiz-adv-x="547" 
d="M504 0h-426v547h416v-94h-305v-123h268v-88h-268v-148h315v-94zM328 583h-82q-58 53 -128 99l28 47q84 -24 141 -74q59 50 141 74l28 -47q-67 -45 -128 -99z" />
    <glyph glyph-name="ecircumflex.sc" horiz-adv-x="547" 
d="M504 0h-426v547h416v-94h-305v-123h268v-88h-268v-148h315v-94zM252 725h82q61 -54 128 -99l-28 -47q-82 24 -141 74q-57 -50 -141 -74l-28 47q70 46 128 99z" />
    <glyph glyph-name="edieresis.sc" horiz-adv-x="547" 
d="M504 0h-426v547h416v-94h-305v-123h268v-88h-268v-148h315v-94zM227 594h-89v91h89v-91zM442 594h-88v91h88v-91z" />
    <glyph glyph-name="edotaccent.sc" horiz-adv-x="547" 
d="M504 0h-426v547h416v-94h-305v-123h268v-88h-268v-148h315v-94zM337 596h-93v89h93v-89z" />
    <glyph glyph-name="egrave.sc" horiz-adv-x="547" 
d="M504 0h-426v547h416v-94h-305v-123h268v-88h-268v-148h315v-94zM360 604l-42 -29q-44 24 -85 63.5t-57 75.5l98 16q25 -53 86 -126z" />
    <glyph glyph-name="emacron.sc" horiz-adv-x="547" 
d="M504 0h-426v547h416v-94h-305v-123h268v-88h-268v-148h315v-94zM449 604h-311v67h311v-67z" />
    <glyph glyph-name="eogonek.sc" horiz-adv-x="547" 
d="M504 0h-92q-31 -31 -31 -62q0 -22 14.5 -33.5t38.5 -11.5q40 0 70 33v-76q-30 -28 -85 -28q-49 0 -80.5 24t-31.5 65q0 49 46 89h-275v547h416v-94h-305v-123h268v-88h-268v-148h315v-94z" />
    <glyph glyph-name="eth.sc" horiz-adv-x="630" 
d="M78 547h233q130 0 202.5 -75.5t72.5 -196.5q0 -123 -72.5 -199t-202.5 -76h-233v238h-60v71h60v238zM311 453h-122v-144h134v-71h-134v-144h122q77 0 118.5 49.5t41.5 131.5q0 81 -41.5 129.5t-118.5 48.5z" />
    <glyph glyph-name="gbreve.sc" horiz-adv-x="625" 
d="M324 466q-78 0 -122.5 -54.5t-44.5 -139.5q0 -86 45 -139t125 -53q69 0 110 34.5t45 87.5h-146v88h251q4 -16 4 -43q0 -110 -71 -184.5t-196 -74.5q-129 0 -205.5 80t-76.5 206t77.5 206t204.5 80q76 0 136.5 -32.5t97.5 -90.5l-90 -50q-47 79 -144 79zM322 587
q-68 0 -111.5 33.5t-52.5 85.5l58 18q22 -65 106 -65q85 0 106 65l58 -18q-9 -52 -52.5 -85.5t-111.5 -33.5z" />
    <glyph glyph-name="gcommaaccent.sc" horiz-adv-x="625" 
d="M324 466q-78 0 -122.5 -54.5t-44.5 -139.5q0 -86 45 -139t125 -53q69 0 110 34.5t45 87.5h-146v88h251q4 -16 4 -43q0 -110 -71 -184.5t-196 -74.5q-129 0 -205.5 80t-76.5 206t77.5 206t204.5 80q76 0 136.5 -32.5t97.5 -90.5l-90 -50q-47 79 -144 79zM254 -200l-43 27
q51 67 73 126l99 -12q-15 -37 -52 -76t-77 -65z" />
    <glyph glyph-name="gdotaccent.sc" horiz-adv-x="625" 
d="M324 466q-78 0 -122.5 -54.5t-44.5 -139.5q0 -86 45 -139t125 -53q69 0 110 34.5t45 87.5h-146v88h251q4 -16 4 -43q0 -110 -71 -184.5t-196 -74.5q-129 0 -205.5 80t-76.5 206t77.5 206t204.5 80q76 0 136.5 -32.5t97.5 -90.5l-90 -50q-47 79 -144 79zM368 596h-93v89
h93v-89z" />
    <glyph glyph-name="gcircumflex.sc" horiz-adv-x="625" 
d="M324 466q-78 0 -122.5 -54.5t-44.5 -139.5q0 -86 45 -139t125 -53q69 0 110 34.5t45 87.5h-146v88h251q4 -16 4 -43q0 -110 -71 -184.5t-196 -74.5q-129 0 -205.5 80t-76.5 206t77.5 206t204.5 80q76 0 136.5 -32.5t97.5 -90.5l-90 -50q-47 79 -144 79zM279 725h82
q61 -54 128 -99l-28 -47q-82 24 -141 74q-57 -50 -141 -74l-28 47q70 46 128 99z" />
    <glyph glyph-name="hbar.sc" horiz-adv-x="641" 
d="M563 0h-112v239h-262v-239h-111v417h-51v64h51v66h111v-66h262v66h112v-66h51v-64h-51v-417zM189 333h262v84h-262v-84z" />
    <glyph glyph-name="hcircumflex.sc" horiz-adv-x="640" 
d="M562 0h-111v239h-262v-239h-111v547h111v-214h262v214h111v-547zM278 725h82q61 -54 128 -99l-28 -47q-82 24 -141 74q-57 -50 -141 -74l-28 47q70 46 128 99z" />
    <glyph glyph-name="iacute.sc" horiz-adv-x="267" 
d="M189 0h-111v547h111v-547zM121 575l-42 29q61 73 86 126l98 -16q-16 -36 -57 -75.5t-85 -63.5z" />
    <glyph glyph-name="ibreve.sc" horiz-adv-x="267" 
d="M189 0h-111v547h111v-547zM132 587q-68 0 -111.5 33.5t-52.5 85.5l58 18q22 -65 106 -65q85 0 106 65l58 -18q-9 -52 -52.5 -85.5t-111.5 -33.5z" />
    <glyph glyph-name="icircumflex.sc" horiz-adv-x="267" 
d="M189 0h-111v547h111v-547zM92 725h82q61 -54 128 -99l-28 -47q-82 24 -141 74q-57 -50 -141 -74l-28 47q70 46 128 99z" />
    <glyph glyph-name="idieresis.sc" horiz-adv-x="267" 
d="M86 594h-88v91h88v-91zM268 594h-89v91h89v-91zM189 0h-111v547h111v-547z" />
    <glyph glyph-name="idotaccent.sc" horiz-adv-x="267" 
d="M189 0h-111v547h111v-547zM180 596h-93v89h93v-89z" />
    <glyph glyph-name="igrave.sc" horiz-adv-x="267" 
d="M189 0h-111v547h111v-547zM191 604l-42 -29q-44 24 -85 63.5t-57 75.5l98 16q25 -53 86 -126z" />
    <glyph glyph-name="imacron.sc" horiz-adv-x="267" 
d="M189 0h-111v547h111v-547zM289 604h-311v67h311v-67z" />
    <glyph glyph-name="iogonek.sc" horiz-adv-x="266" 
d="M78 0v547h110v-547q-37 -4 -66.5 -19.5t-29.5 -44.5q0 -18 13 -28.5t33 -10.5q40 0 67 27v-76q-26 -24 -75 -24q-47 0 -78 25t-31 63q0 53 57 88z" />
    <glyph glyph-name="itilde.sc" horiz-adv-x="267" 
d="M189 0h-111v547h111v-547zM264 709l42 -28q-16 -40 -44.5 -64.5t-62.5 -24.5q-26 0 -69 19.5t-61 19.5q-39 0 -69 -39l-42 28q15 39 44 63.5t63 24.5q25 0 68.5 -19t62.5 -19q36 0 68 39z" />
    <glyph glyph-name="Jcircumflex.alt1" horiz-adv-x="521" 
d="M444 217q0 -110 -61 -169.5t-164 -59.5q-143 0 -206 115l95 57q39 -67 112 -67q107 0 107 122v349h-187v102h304v-449zM252 851h82q61 -54 128 -99l-28 -47q-82 24 -141 74q-57 -50 -141 -74l-28 47q70 46 128 99z" />
    <glyph glyph-name="jcircumflex.sc" horiz-adv-x="457" 
d="M385 177q0 -88 -51.5 -138.5t-143.5 -50.5q-127 0 -181 99l88 53q30 -58 94 -58q84 0 84 95v370h110v-370zM282 725h82q61 -54 128 -99l-28 -47q-82 24 -141 74q-57 -50 -141 -74l-28 47q70 46 128 99z" />
    <glyph glyph-name="jcircumflexsc.alt1" horiz-adv-x="462" 
d="M390 177q0 -88 -51.5 -138.5t-143.5 -50.5q-127 0 -181 99l88 53q30 -58 94 -58q84 0 84 95v276h-153v94h263v-370zM218 725h82q61 -54 128 -99l-28 -47q-82 24 -141 74q-57 -50 -141 -74l-28 47q70 46 128 99z" />
    <glyph glyph-name="kcommaaccent.sc" horiz-adv-x="584" 
d="M576 0h-134l-170 242q-25 -27 -83 -93v-149h-111v547h111v-269l234 269h136l-211 -230zM254 -200l-43 27q51 67 73 126l99 -12q-15 -37 -52 -76t-77 -65z" />
    <glyph glyph-name="lacute.alt1" horiz-adv-x="297" 
d="M74 138v576h110v-577q0 -55 46 -55q27 0 45 11l21 -84q-31 -19 -85 -19q-80 0 -115 48q-22 32 -22 100zM103 743l-42 29q61 73 86 126l98 -16q-16 -36 -57 -75.5t-85 -63.5z" />
    <glyph glyph-name="lacute.sc" horiz-adv-x="505" 
d="M486 0h-408v547h111v-453h297v-94zM107 575l-42 29q61 73 86 126l98 -16q-16 -36 -57 -75.5t-85 -63.5z" />
    <glyph glyph-name="lcaron.alt1" horiz-adv-x="332" 
d="M74 138v576h110v-577q0 -55 46 -55q27 0 45 11l21 -84q-31 -19 -85 -19q-80 0 -115 48q-22 32 -22 100zM388 714v-78q0 -104 -92 -181l-37 42q49 46 49 99q0 18 -13 46.5t-13 52.5v19h106z" />
    <glyph glyph-name="lcaron.sc" horiz-adv-x="505" 
d="M486 0h-408v547h111v-453h297v-94zM410 547v-73q0 -97 -86 -170l-35 40q46 43 46 92q0 18 -12 44.5t-12 48.5v18h99z" />
    <glyph glyph-name="lcommaaccent.alt1" horiz-adv-x="297" 
d="M74 138v576h110v-577q0 -55 46 -55q27 0 45 11l21 -84q-31 -19 -85 -19q-80 0 -115 48q-22 32 -22 100zM113 -200l-43 27q51 67 73 126l99 -12q-15 -37 -52 -76t-77 -65z" />
    <glyph glyph-name="lcommaaccent.sc" horiz-adv-x="506" 
d="M486 0h-408v547h111v-453h297v-94zM232 -200l-43 27q51 67 73 126l99 -12q-15 -37 -52 -76t-77 -65z" />
    <glyph glyph-name="ldot.alt1" horiz-adv-x="467" 
d="M74 138v576h110v-577q0 -55 46 -55q27 0 45 11l21 -84q-31 -19 -85 -19q-80 0 -115 48q-22 32 -22 100zM448 304q0 -30 -21.5 -52t-51.5 -22q-31 0 -53 22t-22 52q0 31 22 53t53 22q30 0 51.5 -22t21.5 -53z" />
    <glyph glyph-name="ldot.sc" horiz-adv-x="505" 
d="M486 0h-408v547h111v-453h297v-94zM454 304q0 -30 -21.5 -52t-51.5 -22q-31 0 -53 22t-22 52q0 31 22 53t53 22q30 0 51.5 -22t21.5 -53z" />
    <glyph glyph-name="lslash.alt1" horiz-adv-x="342" 
d="M242 -10q-78 0 -113 48q-23 31 -23 101v208l-108 -47v92l108 46v276h110v-233l109 47v-92l-109 -47v-252q0 -31 11.5 -43t34.5 -12q29 0 51 11l21 -84q-38 -19 -92 -19z" />
    <glyph glyph-name="lslash.sc" horiz-adv-x="526" 
d="M508 0h-408v206l-93 -40v85l93 39v257h110v-214l178 78v-84l-178 -79v-153h298v-95z" />
    <glyph glyph-name="nacute.sc" horiz-adv-x="642" 
d="M564 0h-132l-251 413v-413h-103v547h139l243 -405v405h104v-547zM315 575l-43 28q50 62 76 127l98 -16q-16 -36 -52.5 -74t-78.5 -65z" />
    <glyph glyph-name="ncaron.sc" horiz-adv-x="642" 
d="M564 0h-132l-251 413v-413h-103v547h139l243 -405v405h104v-547zM368 583h-82q-58 53 -128 99l28 47q84 -24 141 -74q59 50 141 74l28 -47q-67 -45 -128 -99z" />
    <glyph glyph-name="ncommaaccent.sc" horiz-adv-x="642" 
d="M564 0h-132l-251 413v-413h-103v547h139l243 -405v405h104v-547zM256 -200l-43 27q51 67 73 126l99 -12q-15 -37 -52 -76t-77 -65z" />
    <glyph glyph-name="ntilde.sc" horiz-adv-x="642" 
d="M564 0h-132l-251 413v-413h-103v547h139l243 -405v405h104v-547zM458 709l42 -28q-16 -40 -44.5 -64.5t-62.5 -24.5q-26 0 -69 19.5t-61 19.5q-39 0 -69 -39l-42 28q15 39 44 63.5t63 24.5q25 0 68.5 -19t62.5 -19q36 0 68 39z" />
    <glyph glyph-name="eng.sc" horiz-adv-x="642" 
d="M564 547v-514q0 -93 -49 -144t-140 -51q-60 0 -101 22l40 85q21 -13 53 -13q41 0 63.5 20t24.5 51l-274 411v-414h-103v547h141l241 -364v364h104z" />
    <glyph glyph-name="oacute.sc" horiz-adv-x="645" 
d="M322 560q128 0 204.5 -81.5t76.5 -203.5q0 -123 -76.5 -205t-204.5 -82q-127 0 -203.5 81.5t-76.5 204.5t76.5 204.5t203.5 81.5zM322 85q77 0 122 54t45 136q0 81 -45 134t-122 53q-76 0 -120.5 -53.5t-44.5 -134.5q0 -82 44.5 -135.5t120.5 -53.5zM319 575l-42 29
q61 73 86 126l98 -16q-16 -36 -57 -75.5t-85 -63.5z" />
    <glyph glyph-name="obreve.sc" horiz-adv-x="645" 
d="M322 560q128 0 204.5 -81.5t76.5 -203.5q0 -123 -76.5 -205t-204.5 -82q-127 0 -203.5 81.5t-76.5 204.5t76.5 204.5t203.5 81.5zM322 85q77 0 122 54t45 136q0 81 -45 134t-122 53q-76 0 -120.5 -53.5t-44.5 -134.5q0 -82 44.5 -135.5t120.5 -53.5zM322 587
q-68 0 -111.5 33.5t-52.5 85.5l58 18q22 -65 106 -65q85 0 106 65l58 -18q-9 -52 -52.5 -85.5t-111.5 -33.5z" />
    <glyph glyph-name="ocircumflex.sc" horiz-adv-x="645" 
d="M322 560q128 0 204.5 -81.5t76.5 -203.5q0 -123 -76.5 -205t-204.5 -82q-127 0 -203.5 81.5t-76.5 204.5t76.5 204.5t203.5 81.5zM322 85q77 0 122 54t45 136q0 81 -45 134t-122 53q-76 0 -120.5 -53.5t-44.5 -134.5q0 -82 44.5 -135.5t120.5 -53.5zM281 725h82
q61 -54 128 -99l-28 -47q-82 24 -141 74q-57 -50 -141 -74l-28 47q70 46 128 99z" />
    <glyph glyph-name="odieresis.sc" horiz-adv-x="645" 
d="M322 560q128 0 204.5 -81.5t76.5 -203.5q0 -123 -76.5 -205t-204.5 -82q-127 0 -203.5 81.5t-76.5 204.5t76.5 204.5t203.5 81.5zM322 85q77 0 122 54t45 136q0 81 -45 134t-122 53q-76 0 -120.5 -53.5t-44.5 -134.5q0 -82 44.5 -135.5t120.5 -53.5zM259 594h-89v91h89
v-91zM474 594h-88v91h88v-91z" />
    <glyph glyph-name="OE.alt1" horiz-adv-x="1038" 
d="M996 0h-529q-43 -12 -94 -12q-150 0 -240.5 98t-90.5 247t90.5 247t239.5 98q52 0 95 -12h519v-102h-366q62 -63 76 -162h242v-102h-238q-6 -119 -80 -198h376v-102zM582 333q0 105 -56 171t-153 66t-152.5 -66t-55.5 -171t55.5 -171t152.5 -66t153 66t56 171z" />
    <glyph glyph-name="oe.sc" horiz-adv-x="883" 
d="M840 0h-515q-132 0 -206.5 75.5t-74.5 196.5q0 123 74.5 199t206.5 76h505v-94h-297v-123h259v-88h-259v-148h307v-94zM325 94h98v359h-98q-79 0 -123 -50t-44 -131q0 -80 44 -129t123 -49z" />
    <glyph glyph-name="oesc.alt1" horiz-adv-x="897" 
d="M854 0h-445q-41 -12 -87 -12q-127 0 -203.5 81.5t-76.5 204.5t76.5 204.5t203.5 81.5q44 0 90 -13h432v-94h-305q45 -50 56 -123h212v-88h-209q-4 -88 -60 -148h316v-94zM323 85q76 0 121 54t45 135t-44.5 135t-121.5 54t-122 -54t-45 -135t45 -135t122 -54z" />
    <glyph glyph-name="ograve.sc" horiz-adv-x="645" 
d="M322 560q128 0 204.5 -81.5t76.5 -203.5q0 -123 -76.5 -205t-204.5 -82q-127 0 -203.5 81.5t-76.5 204.5t76.5 204.5t203.5 81.5zM322 85q77 0 122 54t45 136q0 81 -45 134t-122 53q-76 0 -120.5 -53.5t-44.5 -134.5q0 -82 44.5 -135.5t120.5 -53.5zM388 604l-42 -29
q-44 24 -85 63.5t-57 75.5l98 16q25 -53 86 -126z" />
    <glyph glyph-name="ohungarumlaut.sc" horiz-adv-x="645" 
d="M322 560q128 0 204.5 -81.5t76.5 -203.5q0 -123 -76.5 -205t-204.5 -82q-127 0 -203.5 81.5t-76.5 204.5t76.5 204.5t203.5 81.5zM322 85q77 0 122 54t45 136q0 81 -45 134t-122 53q-76 0 -120.5 -53.5t-44.5 -134.5q0 -82 44.5 -135.5t120.5 -53.5zM237 575l-38 29
q57 66 87 126l93 -16q-16 -36 -57 -75t-85 -64zM403 575l-38 29q57 66 87 126l93 -16q-16 -36 -57 -75t-85 -64z" />
    <glyph glyph-name="omacron.sc" horiz-adv-x="645" 
d="M322 560q128 0 204.5 -81.5t76.5 -203.5q0 -123 -76.5 -205t-204.5 -82q-127 0 -203.5 81.5t-76.5 204.5t76.5 204.5t203.5 81.5zM322 85q77 0 122 54t45 136q0 81 -45 134t-122 53q-76 0 -120.5 -53.5t-44.5 -134.5q0 -82 44.5 -135.5t120.5 -53.5zM478 604h-311v67h311
v-67z" />
    <glyph glyph-name="oslash.sc" horiz-adv-x="645" 
d="M322 559q78 0 140 -34l25 35l48 -34l-24 -34q92 -81 92 -217q0 -124 -76.5 -205.5t-204.5 -81.5q-78 0 -140 34l-24 -35l-48 34l23 34q-91 80 -91 219q0 122 76.5 203.5t203.5 81.5zM322 85q77 0 122 54t45 136q0 75 -42 126l-206 -295q35 -21 81 -21zM157 274
q0 -79 40 -128l206 294q-36 22 -81 22q-76 0 -120.5 -53.5t-44.5 -134.5z" />
    <glyph glyph-name="oslashacute.sc" horiz-adv-x="645" 
d="M319 575l-42 29q61 73 86 126l98 -16q-16 -36 -57 -75.5t-85 -63.5zM322 559q78 0 140 -34l25 35l48 -34l-24 -34q92 -81 92 -217q0 -124 -76.5 -205.5t-204.5 -81.5q-78 0 -140 34l-24 -35l-48 34l23 34q-91 80 -91 219q0 122 76.5 203.5t203.5 81.5zM322 85
q77 0 122 54t45 136q0 75 -42 126l-206 -295q35 -21 81 -21zM157 274q0 -79 40 -128l206 294q-36 22 -81 22q-76 0 -120.5 -53.5t-44.5 -134.5z" />
    <glyph glyph-name="otilde.sc" horiz-adv-x="645" 
d="M322 560q128 0 204.5 -81.5t76.5 -203.5q0 -123 -76.5 -205t-204.5 -82q-127 0 -203.5 81.5t-76.5 204.5t76.5 204.5t203.5 81.5zM322 85q77 0 122 54t45 136q0 81 -45 134t-122 53q-76 0 -120.5 -53.5t-44.5 -134.5q0 -82 44.5 -135.5t120.5 -53.5zM453 709l42 -28
q-16 -40 -44.5 -64.5t-62.5 -24.5q-26 0 -69 19.5t-61 19.5q-39 0 -69 -39l-42 28q15 39 44 63.5t63 24.5q25 0 68.5 -19t62.5 -19q36 0 68 39z" />
    <glyph glyph-name="racute.sc" horiz-adv-x="591" 
d="M553 0h-122l-110 201h-132v-201h-111v547h265q93 0 145 -46.5t52 -123.5q0 -111 -111 -157zM428 371q0 38 -24 60t-66 22h-149v-163h149q42 0 66 21.5t24 59.5zM276 575l-42 29q61 73 86 126l98 -16q-16 -36 -57 -75.5t-85 -63.5z" />
    <glyph glyph-name="rcaron.sc" horiz-adv-x="591" 
d="M553 0h-122l-110 201h-132v-201h-111v547h265q93 0 145 -46.5t52 -123.5q0 -111 -111 -157zM428 371q0 38 -24 60t-66 22h-149v-163h149q42 0 66 21.5t24 59.5zM334 583h-82q-58 53 -128 99l28 47q84 -24 141 -74q59 50 141 74l28 -47q-67 -45 -128 -99z" />
    <glyph glyph-name="rcommaaccent.sc" horiz-adv-x="590" 
d="M553 0h-122l-110 201h-132v-201h-111v547h265q93 0 145 -46.5t52 -123.5q0 -111 -111 -157zM428 371q0 38 -24 60t-66 22h-149v-163h149q42 0 66 21.5t24 59.5zM235 -200l-43 27q51 67 73 126l99 -12q-15 -37 -52 -76t-77 -65z" />
    <glyph glyph-name="scircumflex.sc" horiz-adv-x="546" 
d="M264 470q-41 0 -69 -16t-28 -50q0 -33 27.5 -46.5t95.5 -26.5q40 -8 66 -14.5t57 -19.5t49 -29.5t30.5 -42.5t12.5 -59q0 -80 -62 -129t-168 -49q-168 0 -247 124l84 51q27 -44 73 -65t96 -21t81 20t31 56t-32.5 51t-113.5 30q-91 17 -140.5 53t-49.5 107q0 78 59 121.5
t150 43.5q144 0 230 -106l-75 -57q-27 34 -68.5 54t-88.5 20zM225 725h82q61 -54 128 -99l-28 -47q-82 24 -141 74q-57 -50 -141 -74l-28 47q70 46 128 99z" />
    <glyph glyph-name="sacute.sc" horiz-adv-x="546" 
d="M264 470q-41 0 -69 -16t-28 -50q0 -33 27.5 -46.5t95.5 -26.5q40 -8 66 -14.5t57 -19.5t49 -29.5t30.5 -42.5t12.5 -59q0 -80 -62 -129t-168 -49q-168 0 -247 124l84 51q27 -44 73 -65t96 -21t81 20t31 56t-32.5 51t-113.5 30q-91 17 -140.5 53t-49.5 107q0 78 59 121.5
t150 43.5q144 0 230 -106l-75 -57q-27 34 -68.5 54t-88.5 20zM261 575l-43 28q50 62 76 127l98 -16q-16 -36 -52.5 -74t-78.5 -65z" />
    <glyph glyph-name="scaron.sc" horiz-adv-x="546" 
d="M264 470q-41 0 -69 -16t-28 -50q0 -33 27.5 -46.5t95.5 -26.5q40 -8 66 -14.5t57 -19.5t49 -29.5t30.5 -42.5t12.5 -59q0 -80 -62 -129t-168 -49q-168 0 -247 124l84 51q27 -44 73 -65t96 -21t81 20t31 56t-32.5 51t-113.5 30q-91 17 -140.5 53t-49.5 107q0 78 59 121.5
t150 43.5q144 0 230 -106l-75 -57q-27 34 -68.5 54t-88.5 20zM305 583h-82q-58 53 -128 99l28 47q84 -24 141 -74q59 50 141 74l28 -47q-67 -45 -128 -99z" />
    <glyph glyph-name="scedilla.sc" horiz-adv-x="549" 
d="M154 -146v71q30 -30 69 -30q22 0 36.5 11t14.5 31q0 27 -29 53q-145 11 -214 122l84 51q27 -44 73 -65t96 -21t81 20t31 56t-33 51.5t-113 29.5q-90 16 -140 52t-50 108q0 78 59 121.5t150 43.5q144 0 230 -106l-75 -57q-27 34 -68.5 54t-88.5 20q-41 0 -69 -16t-28 -50
q0 -23 17.5 -37.5t39 -20.5t66.5 -15q40 -8 66 -14.5t57 -19.5t49 -29.5t30.5 -42.5t12.5 -59q0 -73 -52.5 -121t-144.5 -56q37 -32 37 -73q0 -39 -31.5 -63.5t-79.5 -24.5q-55 0 -83 26z" />
    <glyph glyph-name="scommaaccent.sc" horiz-adv-x="546" 
d="M264 470q-41 0 -69 -16t-28 -50q0 -33 27.5 -46.5t95.5 -26.5q40 -8 66 -14.5t57 -19.5t49 -29.5t30.5 -42.5t12.5 -59q0 -80 -62 -129t-168 -49q-168 0 -247 124l84 51q27 -44 73 -65t96 -21t81 20t31 56t-32.5 51t-113.5 30q-91 17 -140.5 53t-49.5 107q0 78 59 121.5
t150 43.5q144 0 230 -106l-75 -57q-27 34 -68.5 54t-88.5 20zM212 -200l-43 27q51 67 73 126l99 -12q-15 -37 -52 -76t-77 -65z" />
    <glyph glyph-name="tcaron.sc" horiz-adv-x="537" 
d="M507 453h-184v-453h-110v453h-183v94h477v-94zM309 583h-82q-58 53 -128 99l28 47q84 -24 141 -74q59 50 141 74l28 -47q-67 -45 -128 -99z" />
    <glyph glyph-name="tcommaaccent.sc" horiz-adv-x="535" 
d="M506 453h-184v-453h-110v453h-183v94h477v-94zM190 -200l-43 27q51 67 73 126l99 -12q-15 -37 -52 -76t-77 -65z" />
    <glyph glyph-name="tbar.sc" horiz-adv-x="537" 
d="M425 246h-102v-246h-110v246h-100v64h100v143h-183v94h477v-94h-184v-143h102v-64z" />
    <glyph glyph-name="thorn.sc" horiz-adv-x="567" 
d="M335 120h-146v-120h-111v547h111v-69h146q91 0 145 -48.5t54 -130.5t-54 -130.5t-145 -48.5zM189 214h138q45 0 70.5 21.5t25.5 63.5t-25.5 63.5t-70.5 21.5h-138v-170z" />
    <glyph glyph-name="uacute.sc" horiz-adv-x="621" 
d="M550 213q0 -108 -65.5 -166.5t-174.5 -58.5t-174 58.5t-65 166.5v334h111v-334q0 -63 34 -96t94 -33q59 0 94 33t35 96v334h111v-334zM305 575l-42 29q61 73 86 126l98 -16q-16 -36 -57 -75.5t-85 -63.5z" />
    <glyph glyph-name="ubreve.sc" horiz-adv-x="621" 
d="M550 213q0 -108 -65.5 -166.5t-174.5 -58.5t-174 58.5t-65 166.5v334h111v-334q0 -63 34 -96t94 -33q59 0 94 33t35 96v334h111v-334zM311 587q-68 0 -111.5 33.5t-52.5 85.5l58 18q22 -65 106 -65q85 0 106 65l58 -18q-9 -52 -52.5 -85.5t-111.5 -33.5z" />
    <glyph glyph-name="ucircumflex.sc" horiz-adv-x="621" 
d="M550 213q0 -108 -65.5 -166.5t-174.5 -58.5t-174 58.5t-65 166.5v334h111v-334q0 -63 34 -96t94 -33q59 0 94 33t35 96v334h111v-334zM269 725h82q61 -54 128 -99l-28 -47q-82 24 -141 74q-57 -50 -141 -74l-28 47q70 46 128 99z" />
    <glyph glyph-name="udieresis.sc" horiz-adv-x="621" 
d="M550 213q0 -108 -65.5 -166.5t-174.5 -58.5t-174 58.5t-65 166.5v334h111v-334q0 -63 34 -96t94 -33q59 0 94 33t35 96v334h111v-334zM247 594h-89v91h89v-91zM462 594h-88v91h88v-91z" />
    <glyph glyph-name="ugrave.sc" horiz-adv-x="621" 
d="M550 213q0 -108 -65.5 -166.5t-174.5 -58.5t-174 58.5t-65 166.5v334h111v-334q0 -63 34 -96t94 -33q59 0 94 33t35 96v334h111v-334zM370 604l-42 -29q-44 24 -85 63.5t-57 75.5l98 16q25 -53 86 -126z" />
    <glyph glyph-name="uhungarumlaut.sc" horiz-adv-x="621" 
d="M550 213q0 -108 -65.5 -166.5t-174.5 -58.5t-174 58.5t-65 166.5v334h111v-334q0 -63 34 -96t94 -33q59 0 94 33t35 96v334h111v-334zM220 575l-38 29q57 66 87 126l93 -16q-16 -36 -57 -75t-85 -64zM386 575l-38 29q57 66 87 126l93 -16q-16 -36 -57 -75t-85 -64z" />
    <glyph glyph-name="umacron.sc" horiz-adv-x="621" 
d="M550 213q0 -108 -65.5 -166.5t-174.5 -58.5t-174 58.5t-65 166.5v334h111v-334q0 -63 34 -96t94 -33q59 0 94 33t35 96v334h111v-334zM466 604h-311v67h311v-67z" />
    <glyph glyph-name="uogonek.sc" horiz-adv-x="621" 
d="M550 213q0 -126 -95 -188q-66 -43 -66 -85q0 -22 14 -33.5t37 -11.5q36 0 68 36v-78q-29 -29 -84 -29q-47 0 -78 23.5t-31 64.5q0 44 39 80q-19 -4 -45 -4q-108 0 -173 58.5t-65 166.5v334h110v-334q0 -63 34.5 -96t93.5 -33q60 0 95 33t35 96v334h111v-334z" />
    <glyph glyph-name="uring.sc" horiz-adv-x="621" 
d="M422 677q0 -43 -32 -73t-80 -30t-80.5 30t-32.5 73t32.5 74t80.5 31q47 0 79.5 -31t32.5 -74zM364 677q0 22 -16 38.5t-38 16.5t-38.5 -16t-16.5 -39q0 -22 16 -38t39 -16q22 0 38 16t16 38zM550 213q0 -108 -65.5 -166.5t-174.5 -58.5t-174 58.5t-65 166.5v334h111v-334
q0 -63 34 -96t94 -33q59 0 94 33t35 96v334h111v-334z" />
    <glyph glyph-name="Utilde.sc" horiz-adv-x="621" 
d="M550 213q0 -108 -65.5 -166.5t-174.5 -58.5t-174 58.5t-65 166.5v334h111v-334q0 -63 34 -96t94 -33q59 0 94 33t35 96v334h111v-334zM443 709l42 -28q-16 -40 -44.5 -64.5t-62.5 -24.5q-26 0 -69 19.5t-61 19.5q-39 0 -69 -39l-42 28q15 39 44 63.5t63 24.5
q25 0 68.5 -19t62.5 -19q36 0 68 39z" />
    <glyph glyph-name="wacute.sc" horiz-adv-x="825" 
d="M800 547l-156 -547h-120l-112 398l-111 -398h-122l-152 547h118l102 -408l118 408h99l117 -411l100 411h119zM396 575l-42 29q61 73 86 126l98 -16q-16 -36 -57 -75.5t-85 -63.5z" />
    <glyph glyph-name="wcircumflex.sc" horiz-adv-x="825" 
d="M800 547l-156 -547h-120l-112 398l-111 -398h-122l-152 547h118l102 -408l118 408h99l117 -411l100 411h119zM372 725h82q61 -54 128 -99l-28 -47q-82 24 -141 74q-57 -50 -141 -74l-28 47q70 46 128 99z" />
    <glyph glyph-name="wdieresis.sc" horiz-adv-x="825" 
d="M800 547l-156 -547h-120l-112 398l-111 -398h-122l-152 547h118l102 -408l118 408h99l117 -411l100 411h119zM350 594h-89v91h89v-91zM565 594h-88v91h88v-91z" />
    <glyph glyph-name="wgrave.sc" horiz-adv-x="825" 
d="M800 547l-156 -547h-120l-112 398l-111 -398h-122l-152 547h118l102 -408l118 408h99l117 -411l100 411h119zM477 604l-42 -29q-44 24 -85 63.5t-57 75.5l98 16q25 -53 86 -126z" />
    <glyph glyph-name="yacute.alt1" horiz-adv-x="604" 
d="M294 575l-42 29q61 73 86 126l98 -16q-16 -36 -57 -75.5t-85 -63.5zM421 47v69q-68 -88 -172 -88q-85 0 -133 52.5t-48 142.5v302h110v-276q0 -120 104 -120q60 0 99.5 39t39.5 103v254h110v-454q0 -119 -57 -180q-72 -75 -209 -75q-120 0 -205 60l48 85q64 -48 157 -48
q70 0 113 33t43 101z" />
    <glyph glyph-name="yacute.sc" horiz-adv-x="560" 
d="M553 547l-218 -328v-219h-111v218q-161 245 -217 329h130l145 -228q21 33 69 110.5t74 117.5h128zM265 575l-42 29q61 73 86 126l98 -16q-16 -36 -57 -75.5t-85 -63.5z" />
    <glyph glyph-name="ycircumflex.alt1" horiz-adv-x="604" 
d="M421 47v69q-68 -88 -172 -88q-85 0 -133 52.5t-48 142.5v302h110v-276q0 -120 104 -120q60 0 99.5 39t39.5 103v254h110v-454q0 -119 -57 -180q-72 -75 -209 -75q-120 0 -205 60l48 85q64 -48 157 -48q70 0 113 33t43 101zM257 725h82q61 -54 128 -99l-28 -47
q-82 24 -141 74q-57 -50 -141 -74l-28 47q70 46 128 99z" />
    <glyph glyph-name="ycircumflex.sc" horiz-adv-x="560" 
d="M553 547l-218 -328v-219h-111v218q-161 245 -217 329h130l145 -228q21 33 69 110.5t74 117.5h128zM237 725h82q61 -54 128 -99l-28 -47q-82 24 -141 74q-57 -50 -141 -74l-28 47q70 46 128 99z" />
    <glyph glyph-name="ydieresis.alt1" horiz-adv-x="604" 
d="M421 47v69q-68 -88 -172 -88q-85 0 -133 52.5t-48 142.5v302h110v-276q0 -120 104 -120q60 0 99.5 39t39.5 103v254h110v-454q0 -119 -57 -180q-72 -75 -209 -75q-120 0 -205 60l48 85q64 -48 157 -48q70 0 113 33t43 101zM235 594h-89v91h89v-91zM450 594h-88v91h88v-91
z" />
    <glyph glyph-name="ydieresis.sc" horiz-adv-x="560" 
d="M553 547l-218 -328v-219h-111v218q-161 245 -217 329h130l145 -228q21 33 69 110.5t74 117.5h128zM216 594h-89v91h89v-91zM431 594h-88v91h88v-91z" />
    <glyph glyph-name="ygrave.alt1" horiz-adv-x="604" 
d="M360 604l-42 -29q-44 24 -85 63.5t-57 75.5l98 16q25 -53 86 -126zM421 47v69q-68 -88 -172 -88q-85 0 -133 52.5t-48 142.5v302h110v-276q0 -120 104 -120q60 0 99.5 39t39.5 103v254h110v-454q0 -119 -57 -180q-72 -75 -209 -75q-120 0 -205 60l48 85q64 -48 157 -48
q70 0 113 33t43 101z" />
    <glyph glyph-name="ygrave.sc" horiz-adv-x="560" 
d="M553 547l-218 -328v-219h-111v218q-161 245 -217 329h130l145 -228q21 33 69 110.5t74 117.5h128zM345 604l-42 -29q-44 24 -85 63.5t-57 75.5l98 16q25 -53 86 -126z" />
    <glyph glyph-name="zacute.sc" horiz-adv-x="541" 
d="M498 0h-457v82l300 371h-288v94h438v-79l-303 -374h310v-94zM263 575l-43 28q50 62 76 127l98 -16q-16 -36 -52.5 -74t-78.5 -65z" />
    <glyph glyph-name="zcaron.sc" horiz-adv-x="541" 
d="M498 0h-457v82l300 371h-288v94h438v-79l-303 -374h310v-94zM307 583h-82q-58 53 -128 99l28 47q84 -24 141 -74q59 50 141 74l28 -47q-67 -45 -128 -99z" />
    <glyph glyph-name="zdotaccent.sc" horiz-adv-x="541" 
d="M498 0h-457v82l300 371h-288v94h438v-79l-303 -374h310v-94zM313 596h-93v89h93v-89z" />
    <glyph glyph-name="fl.alt1" horiz-adv-x="652" 
d="M363 714l-13 -88q-38 10 -63 10q-34 0 -50.5 -14t-16.5 -47v-50h118v-85h-118v-440h-111v440h-87v85h87v47q0 73 44.5 113t124.5 40q55 0 85 -11zM429 138v576h110v-577q0 -55 46 -55q27 0 45 11l21 -84q-31 -19 -85 -19q-80 0 -115 48q-22 32 -22 100z" />
    <glyph glyph-name="one.alt1" 
d="M289 0v535q-70 -33 -164 -44l-14 90q147 27 206 85h88v-666h-116z" />
    <glyph glyph-name="zero.lin" horiz-adv-x="606" 
d="M555 334q0 -67 -13 -125.5t-41 -109.5t-79 -81t-120 -30t-119.5 30t-78.5 81t-41 109.5t-13 125.5t13 125t41 109t78.5 80.5t119.5 29.5q55 0 99.5 -20t72.5 -53t46.5 -78t26.5 -93t8 -100zM435 334q0 247 -133 247q-134 0 -134 -247q0 -250 134 -250q133 0 133 250z" />
    <glyph glyph-name="one.lin" horiz-adv-x="401" 
d="M314 666v-666h-117v536q-60 -30 -163 -42l-14 87q147 27 206 85h88z" />
    <glyph glyph-name="two.lin" horiz-adv-x="575" 
d="M533 0h-481v83q188 151 260.5 232t72.5 149q0 53 -32 81.5t-84 28.5q-91 0 -141 -89l-93 54q89 139 244 139q100 0 164.5 -56.5t64.5 -151.5q0 -86 -67 -170t-220 -198h312v-102z" />
    <glyph glyph-name="three.lin" horiz-adv-x="588" 
d="M284 295h-54v97h56q56 0 85.5 26t29.5 69q0 42 -29.5 65.5t-82.5 23.5q-98 0 -151 -82l-88 55q90 129 245 129q99 0 161.5 -50t62.5 -128q0 -100 -98 -147q57 -22 87.5 -64.5t30.5 -96.5q0 -87 -67 -145.5t-180 -58.5q-183 0 -259 148l102 48q45 -94 157 -94
q60 0 93.5 29t33.5 78q0 46 -34 72t-101 26z" />
    <glyph glyph-name="four.lin" horiz-adv-x="593" 
d="M560 149h-94v-149h-114v149h-319v91q62 110 95.5 224.5t33.5 201.5h114q0 -87 -35.5 -200.5t-97.5 -217.5h209v277h114v-277h94v-99z" />
    <glyph glyph-name="five.lin" horiz-adv-x="576" 
d="M277 91q61 0 98.5 34.5t37.5 92.5q0 57 -36 90.5t-99 33.5q-85 0 -135 -62l-70 32l23 354h400v-106h-306l-15 -163q54 38 133 38q97 0 161 -59t64 -156q0 -96 -67 -164t-185 -68q-169 0 -247 133l97 55q45 -85 146 -85z" />
    <glyph glyph-name="six.lin" horiz-adv-x="582" 
d="M440 666q-76 -59 -141.5 -130t-94.5 -135q44 45 132 45q93 0 154 -60.5t61 -160.5q0 -106 -69.5 -171.5t-182.5 -65.5q-115 0 -183 66t-68 186q0 116 60.5 219.5t167.5 206.5h164zM169 223q0 -60 34.5 -96t96.5 -36t95.5 35.5t33.5 96.5q0 60 -33.5 95.5t-95.5 35.5
t-96.5 -36t-34.5 -95z" />
    <glyph glyph-name="seven.lin" horiz-adv-x="537" 
d="M516 666v-84q-262 -348 -266 -582h-129q10 241 258 564h-359v102h496z" />
    <glyph glyph-name="eight.lin" horiz-adv-x="601" 
d="M301 84q61 0 96 29.5t35 83.5q0 53 -34 82.5t-97 29.5t-97.5 -29.5t-34.5 -82.5q0 -54 35 -83.5t97 -29.5zM300 397q51 0 81 24t30 68t-30 68.5t-80 24.5q-51 0 -81 -24.5t-30 -68.5t29.5 -68t80.5 -24zM301 -12q-118 0 -185.5 56.5t-67.5 144.5q0 57 30 101.5t87 67.5
q-93 46 -93 143q0 80 65.5 128.5t163.5 48.5t163 -48.5t65 -128.5q0 -97 -93 -143q57 -23 87 -67.5t30 -101.5q0 -88 -67.5 -144.5t-184.5 -56.5z" />
    <glyph glyph-name="nine.lin" horiz-adv-x="582" 
d="M142 0q76 58 141.5 129.5t94.5 134.5q-44 -44 -132 -44q-93 0 -154 60.5t-61 160.5q0 105 69.5 171t182.5 66q115 0 183 -66t68 -186q0 -116 -60.5 -219t-167.5 -207h-164zM414 443q0 60 -34.5 96t-97.5 36q-62 0 -95.5 -35.5t-33.5 -96.5q0 -60 33.5 -95.5t95.5 -35.5
t97 36t35 95z" />
    <glyph glyph-name="hyphen.lin" horiz-adv-x="396" 
d="M340 284h-284v98h284v-98z" />
    <glyph glyph-name="endash.lin" 
d="M539 286h-491v94h491v-94z" />
    <glyph glyph-name="emdash.lin" horiz-adv-x="924" 
d="M867 286h-810v94h810v-94z" />
    <glyph glyph-name="parenleft.lin" horiz-adv-x="286" 
d="M260 0l-63 -48q-155 170 -155 381q0 212 155 381l63 -48q-123 -149 -123 -333t123 -333z" />
    <glyph glyph-name="parenright.lin" horiz-adv-x="287" 
d="M27 666l63 48q155 -170 155 -381q0 -212 -155 -381l-63 48q122 147 122 333t-122 333z" />
    <glyph glyph-name="bracketleft.lin" horiz-adv-x="331" 
d="M300 -19h-223v704h223v-78h-127v-547h127v-79z" />
    <glyph glyph-name="bracketright.lin" horiz-adv-x="332" 
d="M255 -19h-224v79h128v547h-128v78h224v-704z" />
    <glyph glyph-name="braceleft.lin" horiz-adv-x="393" 
d="M365 -26h-56q-76 0 -122 44.5t-46 124.5v60q0 91 -83 91h-36v78h36q83 0 83 91v61q0 80 46 124.5t122 44.5h56v-79h-40q-87 0 -87 -92v-50q0 -107 -88 -139q88 -32 88 -138v-50q0 -93 87 -93h40v-78z" />
    <glyph glyph-name="braceright.lin" horiz-adv-x="393" 
d="M371 294h-35q-84 0 -84 -91v-60q0 -80 -45.5 -124.5t-121.5 -44.5h-57v78h40q88 0 88 93v49q0 107 88 139q-88 32 -88 138v51q0 92 -88 92h-40v79h57q76 0 121.5 -44.5t45.5 -124.5v-61q0 -91 84 -91h35v-78z" />
    <glyph glyph-name="registered.alt" horiz-adv-x="767" 
d="M735 333q0 -145 -103 -248t-248 -103t-248.5 103t-103.5 248t103 248t249 103q145 0 248 -103t103 -248zM675 333q0 121 -85.5 206t-205.5 85t-206 -85t-86 -206t85.5 -206t206.5 -85q120 0 205.5 85t85.5 206zM556 142h-90l-67 137h-81v-137h-84v385h170q68 0 106 -33.5
t38 -88.5q0 -39 -20.5 -67.5t-52.5 -41.5zM461 402q0 27 -15.5 43t-43.5 16h-84v-117h84q28 0 43.5 16t15.5 42z" />
    <glyph glyph-name="copyright.sc" horiz-adv-x="655" 
d="M419 229l58 -38q-24 -42 -63.5 -64.5t-86.5 -22.5q-70 0 -119.5 49.5t-49.5 119.5q0 71 49.5 121t119.5 50q97 0 149 -88l-58 -39q-33 56 -90 56q-41 0 -70 -29.5t-29 -70.5t29 -70.5t70 -29.5q56 0 91 56zM36 273q0 121 85 206.5t206 85.5t206.5 -85.5t85.5 -206.5
q0 -120 -85.5 -205.5t-206.5 -85.5t-206 85.5t-85 205.5zM84 273q0 -101 71 -172t172 -71t173 71.5t72 171.5q0 101 -72 172.5t-173 71.5t-172 -71.5t-71 -172.5z" />
    <glyph glyph-name="uni2117.sc" horiz-adv-x="655" 
d="M358 223h-71v-110h-73v321h145q55 0 86.5 -30t31.5 -76q0 -45 -31 -75t-88 -30zM404 327q0 49 -65 49h-52v-97h52q65 0 65 48zM36 273q0 121 85 206.5t206 85.5t206.5 -85.5t85.5 -206.5q0 -120 -85.5 -205.5t-206.5 -85.5t-206 85.5t-85 205.5zM84 273q0 -101 71 -172
t172 -71t173 71.5t72 171.5q0 101 -72 172.5t-173 71.5t-172 -71.5t-71 -172.5z" />
    <glyph glyph-name="registered.sc" horiz-adv-x="376" 
d="M337 415q0 -61 -43.5 -104.5t-104.5 -43.5q-62 0 -105.5 43t-43.5 105t43.5 105.5t105.5 43.5q61 0 104.5 -43.5t43.5 -105.5zM315 415q0 53 -37 90t-89 37q-53 0 -90 -37t-37 -90t37 -89.5t90 -36.5q52 0 89 37t37 89zM229 400l34 -66h-40l-28 58h-35v-58h-35v164h77
q25 0 41 -14.5t16 -37.5q0 -35 -30 -46zM222 444q0 11 -6.5 17.5t-15.5 6.5h-40v-47h40q9 0 15.5 6.5t6.5 16.5z" />
    <glyph glyph-name="at.lin" horiz-adv-x="768" 
d="M588 148q-76 0 -106 58q-42 -60 -121 -60q-72 0 -115.5 52.5t-43.5 131.5q0 80 44.5 131.5t118.5 51.5q57 0 98 -44v37h86v-246q0 -56 49 -56q38 0 58 35t20 93q0 125 -78 206t-207 81t-208.5 -83.5t-79.5 -204.5t79.5 -204t207.5 -83q83 0 147 40l28 -52
q-76 -47 -178 -47q-156 0 -255.5 99t-99.5 247t100 247.5t257 99.5q155 0 253.5 -98.5t98.5 -242.5q0 -86 -41.5 -137.5t-111.5 -51.5zM463 329q0 47 -23 78t-64 31t-62.5 -30.5t-21.5 -78.5q0 -47 21.5 -77.5t62.5 -30.5q42 0 64.5 30.5t22.5 77.5z" />
    <glyph glyph-name="onehalf.alt1" horiz-adv-x="979" 
d="M915 0h-324v64q126 96 171.5 143t45.5 86q0 29 -21 46t-52 17q-57 0 -90 -55l-68 39q64 93 164 93q70 0 113.5 -36.5t43.5 -99.5q0 -52 -36 -98t-135 -122h188v-77zM250 666v-425h-86v329q-42 -16 -105 -24l-11 67q97 16 138 53h64zM743 666l-469 -666h-83l469 666h83z
" />
    <glyph glyph-name="onethird.alt1" horiz-adv-x="979" 
d="M252 666v-425h-86v329q-42 -16 -105 -24l-11 67q97 16 138 53h64zM912 124q0 -58 -45 -95t-118 -37q-127 0 -175 103l76 26q28 -52 100 -52q34 0 54 16t20 42q0 24 -17.5 37.5t-49.5 13.5h-56v74h54q22 0 40.5 13t18.5 38q0 26 -21 39.5t-51 13.5q-64 0 -95 -47l-66 35
q57 89 165 89q66 0 109.5 -31.5t43.5 -88.5q0 -62 -49 -90q62 -24 62 -99zM745 666l-469 -666h-83l469 666h83z" />
    <glyph glyph-name="onequarter.alt1" horiz-adv-x="979" 
d="M251 666v-425h-86v329q-42 -16 -105 -24l-11 67q97 16 138 53h64zM920 92h-61v-92h-83v92h-210v66q35 61 58 134t24 133h84q-3 -123 -78 -259h123v161h82v-161h61v-74zM744 666l-469 -666h-83l469 666h83z" />
    <glyph glyph-name="uni2155.alt1" horiz-adv-x="979" 
d="M742 666l-469 -666h-83l469 666h83zM912 138q0 -58 -42.5 -102t-125.5 -44q-109 0 -166 83l67 41q31 -47 99 -47q34 0 57 18.5t23 52.5q0 33 -22.5 52.5t-62.5 19.5q-52 0 -85 -39l-50 21l14 231h270v-78h-199q-1 -17 -5 -49.5t-5 -42.5q35 23 84 23q67 0 108 -37.5
t41 -102.5zM249 666v-425h-86v329q-42 -16 -105 -24l-11 67q97 16 138 53h64z" />
    <glyph glyph-name="uni2159.alt1" horiz-adv-x="979" 
d="M750 666l-469 -666h-83l469 666h83zM663 143q0 -34 22 -55.5t60 -21.5t59.5 21.5t21.5 56.5t-21.5 56t-59.5 21t-60 -21.5t-22 -56.5zM834 425q-110 -80 -149 -164q32 28 82 28q64 0 105 -39.5t41 -104.5q0 -68 -46.5 -110.5t-120.5 -42.5q-78 0 -124 43.5t-46 122.5
q0 142 137 267h121zM257 666v-425h-86v329q-42 -16 -105 -24l-11 67q97 16 138 53h64z" />
    <glyph glyph-name="oneeighth.alt1" horiz-adv-x="979" 
d="M251 666v-425h-86v329q-42 -16 -105 -24l-11 67q97 16 138 53h64zM914 120q0 -61 -46 -94.5t-123 -33.5t-123 34t-46 94q0 73 68 106q-52 27 -52 90q0 56 41.5 86.5t111.5 30.5q72 0 113 -30.5t41 -86.5q0 -58 -54 -89q69 -35 69 -107zM814 312q0 26 -19.5 39t-48.5 13
q-30 0 -49.5 -13t-19.5 -39q0 -28 19.5 -42t48.5 -14t49 14t20 42zM828 124q0 33 -23.5 50.5t-59.5 17.5q-35 0 -58.5 -17t-23.5 -50q0 -32 23 -48t59 -16t59.5 15.5t23.5 47.5zM744 666l-469 -666h-83l469 666h83z" />
    <glyph glyph-name="onesuperior.alt1" horiz-adv-x="277" 
d="M210 759v-425h-86v329q-42 -16 -105 -24l-11 67q97 16 138 53h64z" />
    <glyph glyph-name="oneinferior.alt1" horiz-adv-x="276" 
d="M209 332v-425h-86v329q-44 -17 -105 -23l-11 65q98 19 138 54h64z" />
    <glyph glyph-name="periodcentered.lin" horiz-adv-x="260" 
d="M204 333q0 -30 -21.5 -52t-51.5 -22q-31 0 -53 22t-22 52q0 31 22 53t53 22q30 0 51.5 -22t21.5 -53z" />
    <glyph glyph-name="slash.lin" horiz-adv-x="323" 
d="M313 666l-213 -666h-89l212 666h90z" />
    <glyph glyph-name="bar.lin" horiz-adv-x="237" 
d="M161 -48h-85v762h85v-762z" />
    <glyph glyph-name="backslash.lin" horiz-adv-x="323" 
d="M312 0h-90l-212 666h89z" />
    <glyph glyph-name="exclamdown.lin" horiz-adv-x="274" 
d="M198 0h-122v153l32 303h58l32 -303v-153zM198 541h-122v125h122v-125z" />
    <glyph glyph-name="questiondown.lin" horiz-adv-x="489" 
d="M28 192q0 87 57 142t147 70v53h109v-148q-17 5 -44 5q-67 0 -108 -31t-41 -87q0 -48 33 -77t89 -29q84 0 150 61l64 -76q-101 -88 -225 -88q-101 0 -166 55.5t-65 149.5zM222 666h128v-118h-128v118z" />
    <glyph glyph-name="plus.lin" 
d="M539 286h-198v-198h-95v198h-198v94h198v199h95v-199h198v-94z" />
    <glyph glyph-name="minus.lin" 
d="M539 286h-491v94h491v-94z" />
    <glyph glyph-name="divide.lin" 
d="M364 525q0 -29 -20.5 -50t-49.5 -21q-30 0 -50.5 21t-20.5 50t20.5 50t50.5 21q28 0 49 -21t21 -50zM539 286h-491v94h491v-94zM364 141q0 -29 -21 -50t-49 -21q-30 0 -50.5 21t-20.5 50t20.5 50t50.5 21q28 0 49 -21t21 -50z" />
    <glyph glyph-name="equal.lin" 
d="M539 387h-491v94h491v-94zM539 185h-491v95h491v-95z" />
    <glyph glyph-name="multiply.lin" 
d="M534 159l-66 -67l-174 174l-175 -174l-67 67l175 174l-175 174l67 67l175 -174l174 174l66 -67l-174 -174z" />
    <glyph glyph-name="less.lin" 
d="M459 111l-65 -66l-290 288l290 290l65 -66l-222 -224z" />
    <glyph glyph-name="greater.lin" 
d="M483 333l-290 -288l-65 66l224 222l-224 224l65 66z" />
    <glyph glyph-name="zero.osf" horiz-adv-x="630" 
d="M38 273q0 122 76 204t201 82t201.5 -82t76.5 -204t-76.5 -203.5t-201.5 -81.5t-201 81.5t-76 203.5zM147 273q0 -79 45 -131.5t123 -52.5t123 52.5t45 131.5q0 80 -45 132.5t-123 52.5t-123 -52.5t-45 -132.5z" />
    <glyph glyph-name="one.osf" horiz-adv-x="385" 
d="M305 547v-547h-109v422q-72 -35 -165 -46l-14 87q140 26 205 84h83z" />
    <glyph glyph-name="two.osf" horiz-adv-x="555" 
d="M256 457q-91 0 -145 -84l-83 62q91 124 238 124q98 0 158.5 -50t60.5 -133q0 -79 -58 -140.5t-175 -131.5h272v-104h-477v85q171 97 220 133q99 73 99 143q0 44 -30.5 70t-79.5 26z" />
    <glyph glyph-name="three.osf" horiz-adv-x="553" 
d="M263 180h-51v94h52q57 0 88.5 25.5t31.5 69.5q0 42 -31 65.5t-84 23.5q-98 0 -152 -79l-86 53q88 127 240 127q96 0 160 -49t64 -130q0 -99 -99 -146q58 -22 89 -65t31 -97q0 -88 -66.5 -146t-177.5 -58q-178 0 -257 139l90 52q48 -90 166 -90q62 0 96.5 30t34.5 80
q0 47 -35 74t-104 27z" />
    <glyph glyph-name="four.osf" horiz-adv-x="579" 
d="M554 29h-95v-149h-108v149h-321v89q58 106 93 225t37 204h109q-2 -87 -37.5 -202.5t-94.5 -219.5h214v263h108v-263h95v-96z" />
    <glyph glyph-name="five.osf" horiz-adv-x="541" 
d="M254 -30q63 0 101.5 34t38.5 93t-37 92.5t-102 33.5q-87 0 -135 -60l-68 29l24 355h395v-102h-308l-15 -173q62 43 137 43q96 0 159 -59t63 -156q0 -96 -66 -164t-183 -68q-164 0 -244 132l92 52q43 -82 148 -82z" />
    <glyph glyph-name="six.osf" horiz-adv-x="553" 
d="M318 686l78 -75q-71 -40 -138 -105.5t-86 -125.5q48 59 145 59q91 0 152 -60t61 -158q0 -102 -69.5 -167.5t-181.5 -65.5t-179.5 68.5t-67.5 188.5q0 125 75 240.5t211 200.5zM146 218q0 -59 35.5 -95t99.5 -36t99 36t35 96t-34.5 95t-99.5 35q-64 0 -99.5 -36t-35.5 -95
z" />
    <glyph glyph-name="seven.osf" horiz-adv-x="538" 
d="M516 547v-85q-260 -354 -268 -582h-122q13 238 259 565h-360v102h491z" />
    <glyph glyph-name="eight.osf" horiz-adv-x="581" 
d="M290 80q64 0 100 30.5t36 85.5q0 54 -35.5 84.5t-100.5 30.5t-100 -30.5t-35 -84.5q0 -55 36 -85.5t99 -30.5zM290 395q53 0 83.5 24.5t30.5 70.5q0 45 -31 70.5t-83 25.5t-83 -25.5t-31 -70.5q0 -46 30.5 -70.5t83.5 -24.5zM290 -12q-114 0 -182 54.5t-68 144.5
q0 54 29 100t91 71q-96 45 -96 142q0 81 63 129.5t163 48.5t163.5 -48.5t63.5 -129.5q0 -96 -96 -142q61 -25 90 -71t29 -100q0 -90 -68 -144.5t-182 -54.5z" />
    <glyph glyph-name="nine.osf" horiz-adv-x="552" 
d="M234 -139l-77 75q71 40 138 105.5t86 125.5q-48 -59 -145 -59q-91 0 -152.5 60t-61.5 158q0 102 69.5 167.5t181.5 65.5q113 0 180.5 -68t67.5 -189q0 -125 -75 -240.5t-212 -200.5zM406 329q0 59 -35.5 95t-99.5 36t-98.5 -36t-34.5 -96t34.5 -95t98.5 -35t99.5 36
t35.5 95z" />
    <glyph glyph-name="zero.tosf" 
d="M541 274q0 -125 -62 -205.5t-186 -80.5t-186.5 80.5t-62.5 205.5q0 124 62.5 204.5t186.5 80.5t186 -80.5t62 -204.5zM426 274q0 189 -133 189q-134 0 -134 -189q0 -190 134 -190q133 0 133 190z" />
    <glyph glyph-name="one.tosf" 
d="M527 0h-428v94h164v328q-72 -35 -165 -46l-14 87q140 26 205 84h83v-453h155v-94z" />
    <glyph glyph-name="onetosf.alt1" 
d="M401 547v-547h-109v422q-72 -35 -165 -46l-14 87q140 26 205 84h83z" />
    <glyph glyph-name="two.tosf" 
d="M271 457q-90 0 -144 -84l-84 62q93 124 239 124q98 0 158.5 -50t60.5 -133q0 -79 -58.5 -140.5t-175.5 -131.5h272v-104h-476v85q170 96 217 131q101 75 101 145q0 44 -30.5 70t-79.5 26z" />
    <glyph glyph-name="three.tosf" 
d="M280 180h-51v94h52q57 0 88.5 25.5t31.5 69.5q0 42 -31 65.5t-84 23.5q-98 0 -152 -79l-86 53q88 127 240 127q96 0 160 -49t64 -130q0 -99 -99 -146q58 -22 89 -65t31 -97q0 -88 -66.5 -146t-177.5 -58q-178 0 -257 139l90 52q48 -90 166 -90q62 0 96.5 30t34.5 80
q0 47 -35 74t-104 27z" />
    <glyph glyph-name="four.tosf" 
d="M557 29h-94v-149h-108v149h-321v89q58 107 93 226t36 203h108q-1 -86 -36 -201.5t-95 -220.5h215v263h108v-263h94v-96z" />
    <glyph glyph-name="five.tosf" 
d="M278 -30q63 0 101.5 34t38.5 93t-37 92.5t-102 33.5q-87 0 -135 -60l-68 29l24 355h395v-102h-308l-15 -173q60 43 137 43q96 0 159 -59t63 -156q0 -96 -66 -164t-183 -68q-164 0 -244 132l91 52q44 -82 149 -82z" />
    <glyph glyph-name="six.tosf" 
d="M335 686l78 -75q-71 -40 -138 -105.5t-86 -125.5q48 59 145 59q91 0 152 -60t61 -158q0 -102 -69.5 -167.5t-181.5 -65.5t-179.5 68.5t-67.5 188.5q0 125 75 240.5t211 200.5zM164 218q0 -59 35.5 -95t99.5 -36t98.5 36t34.5 96t-34.5 95t-98.5 35t-99.5 -36t-35.5 -95z
" />
    <glyph glyph-name="seven.tosf" 
d="M540 547v-86q-261 -363 -268 -581h-123q4 77 31 159.5t74 165.5t76.5 128t77.5 112h-359v102h491z" />
    <glyph glyph-name="eight.tosf" 
d="M293 80q64 0 100 30.5t36 85.5q0 54 -35.5 84.5t-100.5 30.5t-100 -30.5t-35 -84.5q0 -55 36 -85.5t99 -30.5zM293 395q53 0 83.5 24.5t30.5 70.5q0 45 -31 70.5t-83 25.5t-83 -25.5t-31 -70.5q0 -46 30.5 -70.5t83.5 -24.5zM293 -12q-114 0 -182 54.5t-68 144.5
q0 54 29 100t91 71q-96 45 -96 142q0 81 63 129.5t163 48.5t163.5 -48.5t63.5 -129.5q0 -96 -96 -142q61 -25 90 -71t29 -100q0 -90 -68 -144.5t-182 -54.5z" />
    <glyph glyph-name="nine.tosf" 
d="M252 -139l-78 75q71 41 138.5 106t86.5 125q-48 -59 -146 -59q-91 0 -152 60t-61 158q0 102 69.5 167.5t181.5 65.5t179.5 -68.5t67.5 -188.5q0 -125 -75 -240.5t-211 -200.5zM424 329q0 59 -35.5 95t-100.5 36q-64 0 -98.5 -36t-34.5 -96t34.5 -95t98.5 -35
q65 0 100.5 36t35.5 95z" />
    <glyph glyph-name="dollar.osf" 
d="M326 -78h-54v70q-145 7 -217 118l84 45q44 -66 133 -76v156q-91 19 -140.5 54t-49.5 105q0 73 53.5 115t136.5 46v60h54v-61q112 -13 181 -97l-75 -50q-39 46 -106 59v-141q46 -10 76.5 -20.5t60 -28t44 -45t14.5 -65.5q0 -74 -53 -120.5t-142 -53.5v-70zM414 152
q0 28 -21 44t-67 28v-145q39 5 63.5 24.5t24.5 48.5zM186 402q0 -27 22 -41.5t64 -23.5v131q-38 -3 -62 -20t-24 -46z" />
    <glyph glyph-name="sterling.osf" 
d="M460 132l80 -45q-44 -98 -128 -98q-30 0 -85 18t-87 18q-65 0 -132 -37l-38 76q91 46 91 109q0 26 -11 52h-89v67h62q-23 56 -23 91q0 80 56.5 127.5t147.5 47.5q138 0 210 -116l-87 -46q-44 68 -118 68q-44 0 -72.5 -22t-28.5 -62q0 -33 25 -88h162v-67h-143
q6 -19 6 -36q0 -50 -43 -93q30 13 57 13q28 0 70.5 -12t58.5 -12q38 0 59 47z" />
    <glyph glyph-name="Euro.osf" 
d="M12 298v49h58q21 97 93 155t175 58q151 0 231 -125l-89 -53q-46 83 -141 83q-57 0 -97.5 -32t-56.5 -86h191v-49h-200q-1 -8 -1 -23q0 -20 1 -28h200v-50h-189q17 -53 57 -84t96 -31q92 0 141 85l89 -51q-34 -61 -94 -94.5t-139 -33.5q-102 0 -173.5 57t-92.5 152h-59v50
h52q-1 9 -1 28q0 15 1 23h-52z" />
    <glyph glyph-name="yen.osf" 
d="M535 547l-147 -256h108v-54h-139l-11 -18v-39h150v-54h-150v-126h-106v126h-151v54h151v38l-12 19h-139v54h109q-18 32 -69.5 120.5t-77.5 135.5h122l122 -230l120 230h120z" />
    <glyph glyph-name="cent.osf" 
d="M446 160l80 -55q-66 -100 -186 -110v-79h-53v79q-102 9 -163.5 81.5t-61.5 180.5t61.5 181t163.5 82v77h53v-77q115 -10 183 -111l-80 -56q-37 64 -103 74v-340q64 10 106 73zM173 258q0 -67 30 -113t84 -56v337q-54 -11 -84 -57t-30 -111z" />
    <glyph glyph-name="ampersand.sc" horiz-adv-x="616" 
d="M480 265l86 -27q-25 -77 -73 -131l110 -107h-136l-46 43q-78 -55 -176 -55q-90 0 -149 42.5t-59 117.5q0 104 126 154q-60 60 -60 121q0 65 47.5 100.5t123.5 35.5q73 0 120.5 -34t47.5 -96q0 -92 -130 -148l119 -113q33 46 49 97zM257 71q62 0 104 34l-145 141
q-76 -33 -76 -87q0 -39 32.5 -63.5t84.5 -24.5zM352 425q0 28 -21.5 44t-54.5 16t-55 -16t-22 -45q0 -36 57 -89q96 39 96 90z" />
    <glyph glyph-name="percent.osf" horiz-adv-x="659" 
d="M303 415q0 -60 -40 -101t-101 -41q-60 0 -100 41t-40 101t40 100.5t100 40.5q61 0 101 -40.5t40 -100.5zM529 547l-319 -547h-80l319 547h80zM639 134q0 -61 -40 -101.5t-101 -40.5t-100.5 40.5t-39.5 101.5q0 60 40 100t100 40t100.5 -40t40.5 -100zM234 415
q0 32 -20 53t-52 21t-52 -21t-20 -53t20 -53.5t52 -21.5t52 21.5t20 53.5zM570 134q0 31 -20 52.5t-52 21.5q-31 0 -51.5 -21.5t-20.5 -52.5q0 -32 20.5 -53.5t51.5 -21.5q32 0 52 21.5t20 53.5z" />
    <glyph glyph-name="perthousand.osf" horiz-adv-x="966" 
d="M303 415q0 -61 -39.5 -101.5t-100.5 -40.5q-60 0 -100.5 41t-40.5 101t40.5 100.5t100.5 40.5q61 0 100.5 -40.5t39.5 -100.5zM530 547l-319 -547h-81l320 547h80zM639 134q0 -61 -39.5 -101.5t-100.5 -40.5t-101 40.5t-40 101.5q0 60 40 100t101 40q60 0 100 -40
t40 -100zM235 415q0 32 -20.5 53t-51.5 21q-32 0 -52 -21t-20 -53t20 -53.5t52 -21.5t52 21.5t20 53.5zM571 134q0 31 -20 52.5t-52 21.5t-52 -21.5t-20 -52.5q0 -32 20 -53.5t52 -21.5t52 21.5t20 53.5zM945 134q0 -61 -39.5 -101.5t-99.5 -40.5q-61 0 -101 40.5t-40 101.5
q0 60 40 100t101 40q60 0 99.5 -40t39.5 -100zM878 134q0 31 -20.5 52.5t-51.5 21.5q-32 0 -52.5 -21.5t-20.5 -52.5q0 -32 20.5 -53.5t52.5 -21.5t52 21.5t20 53.5z" />
    <glyph glyph-name="exclam.sc" horiz-adv-x="279" 
d="M196 428l-30 -255h-54l-29 255v119h113v-119zM196 0h-113v112h113v-112z" />
    <glyph glyph-name="exclamdown.sc" horiz-adv-x="285" 
d="M86 119l29 255h54l30 -255v-119h-113v119zM199 435h-113v112h113v-112z" />
    <glyph glyph-name="question.sc" horiz-adv-x="466" 
d="M426 388q0 -72 -49.5 -118t-125.5 -58v-42h-99v126q20 -5 43 -5q53 0 87 25t34 68q0 38 -28 62t-75 24q-65 0 -125 -52l-59 66q89 75 197 75q88 0 144 -46.5t56 -124.5zM264 0h-122v108h122v-108z" />
    <glyph glyph-name="questiondown.sc" horiz-adv-x="465" 
d="M40 159q0 72 49.5 117.5t126.5 58.5v42h99v-126q-20 5 -43 5q-53 0 -87.5 -25t-34.5 -68q0 -38 28.5 -62t75.5 -24q65 0 125 52l59 -66q-89 -75 -197 -75q-88 0 -144.5 46t-56.5 125zM325 438h-122v109h122v-109z" />
    <glyph glyph-name="i.dot" horiz-adv-x="256" 
d="M183 0h-110v525h110v-525zM174 588h-92v78h92v-78z" />
    <glyph glyph-name="zero.den" horiz-adv-x="411" 
d="M372 213q0 -221 -168 -221q-165 0 -165 221q0 103 37 161.5t128 58.5q168 0 168 -220zM285 213q0 72 -17 110t-64 38q-45 0 -62 -38t-17 -110q0 -73 17 -110.5t62 -37.5q47 0 64 37.5t17 110.5z" />
    <glyph glyph-name="one.den" horiz-adv-x="340" 
d="M43 75h106v254q-47 -17 -106 -23l-11 65q98 19 138 54h64v-350h91v-75h-282v75z" />
    <glyph glyph-name="oneden.alt1" horiz-adv-x="295" 
d="M213 425v-425h-86v329q-44 -17 -105 -23l-11 65q98 19 138 54h64z" />
    <glyph glyph-name="two.den" horiz-adv-x="394" 
d="M362 0h-323v64q126 96 171.5 143t45.5 86q0 29 -21.5 46t-52.5 17q-56 0 -89 -55l-68 39q63 93 164 93q70 0 113.5 -36.5t43.5 -99.5q0 -52 -36 -97.5t-135 -122.5h187v-77z" />
    <glyph glyph-name="three.den" horiz-adv-x="401" 
d="M364 124q0 -58 -45 -95t-118 -37q-127 0 -175 103l75 26q28 -52 100 -52q35 0 55 16t20 42q0 24 -18 37.5t-49 13.5h-56v74h53q22 0 41 13t19 38q0 26 -21 39.5t-52 13.5q-63 0 -94 -47l-66 35q57 89 166 89q65 0 108.5 -31.5t43.5 -88.5q0 -61 -49 -90q62 -24 62 -99z
" />
    <glyph glyph-name="four.den" horiz-adv-x="397" 
d="M376 92h-61v-92h-83v92h-210v66q35 61 58.5 134.5t24.5 132.5h83q-1 -120 -78 -259h123v161h82v-161h61v-74z" />
    <glyph glyph-name="five.den" horiz-adv-x="391" 
d="M359 138q0 -58 -42.5 -102t-125.5 -44q-108 0 -167 83l67 41q32 -47 99 -47q34 0 57.5 18.5t23.5 52.5q0 33 -22.5 52.5t-62.5 19.5q-52 0 -86 -39l-50 21l14 231h271v-78h-200q-2 -35 -10 -92q35 23 84 23q67 0 108.5 -37t41.5 -103z" />
    <glyph glyph-name="six.den" horiz-adv-x="396" 
d="M123 143q0 -35 21.5 -56t59.5 -21q39 0 60 21.5t21 56.5t-21 56t-60 21q-38 0 -59.5 -21.5t-21.5 -56.5zM293 425q-110 -80 -149 -164q34 28 83 28q64 0 105 -39.5t41 -104.5q0 -68 -46.5 -110.5t-121.5 -42.5q-78 0 -124 43.5t-46 122.5q0 141 137 267h121z" />
    <glyph glyph-name="seven.den" horiz-adv-x="361" 
d="M351 425v-63q-171 -210 -173 -362h-95q2 49 18.5 99.5t45 99.5t49 79t50.5 69h-228v78h333z" />
    <glyph glyph-name="eight.den" horiz-adv-x="410" 
d="M374 120q0 -60 -46 -94t-123 -34t-123 33.5t-46 94.5q0 73 68 106q-53 27 -53 90q0 56 42 86.5t112 30.5q71 0 112.5 -30.5t41.5 -86.5q0 -58 -55 -89q70 -34 70 -107zM274 312q0 26 -20 39t-49 13t-48.5 -13t-19.5 -39q0 -28 19.5 -42t47.5 -14q29 0 49.5 14t20.5 42z
M287 124q0 33 -23.5 50.5t-58.5 17.5t-59 -17t-24 -50q0 -32 23.5 -48t59.5 -16t59 15.5t23 47.5z" />
    <glyph glyph-name="nine.den" horiz-adv-x="396" 
d="M274 281q0 35 -22 56t-61 21q-38 0 -59 -21t-21 -57q0 -35 21 -55.5t59 -20.5q39 0 61 21t22 56zM104 0q111 80 148 163q-31 -26 -82 -26q-65 0 -106 39t-41 103q0 68 47 111t121 43q78 0 124 -43.5t46 -122.5q0 -141 -137 -267h-120z" />
    <glyph glyph-name="zero.num" horiz-adv-x="411" 
d="M372 454q0 -221 -168 -221q-165 0 -165 221q0 103 37 161.5t128 58.5q168 0 168 -220zM285 454q0 73 -17 110t-64 37q-46 0 -62.5 -37.5t-16.5 -109.5t17 -110t62 -38q47 0 64 38t17 110z" />
    <glyph glyph-name="one.num" horiz-adv-x="341" 
d="M43 316h106v254q-45 -16 -106 -24l-11 67q99 17 138 53h64v-350h91v-75h-282v75z" />
    <glyph glyph-name="onenum.alt1" horiz-adv-x="295" 
d="M213 666v-425h-86v329q-42 -16 -105 -24l-11 67q97 16 138 53h64z" />
    <glyph glyph-name="two.num" horiz-adv-x="394" 
d="M362 241h-323v64q127 96 172 143t45 86q0 29 -21.5 45.5t-52.5 16.5q-56 0 -89 -54l-68 39q61 93 164 93q70 0 113.5 -36t43.5 -99q0 -53 -36 -98t-135 -123h187v-77z" />
    <glyph glyph-name="three.num" horiz-adv-x="400" 
d="M363 365q0 -58 -45 -95t-118 -37q-127 0 -175 103l75 26q28 -52 100 -52q34 0 54.5 16.5t20.5 41.5q0 24 -18 37.5t-49 13.5h-56v74h53q22 0 41 13t19 38q0 26 -21 39.5t-52 13.5q-63 0 -94 -48l-66 36q58 89 166 89q65 0 108.5 -31.5t43.5 -88.5q0 -61 -49 -90
q62 -24 62 -99z" />
    <glyph glyph-name="four.num" horiz-adv-x="397" 
d="M376 333h-61v-92h-83v92h-210v66q35 61 58.5 134.5t24.5 132.5h83q-1 -120 -78 -259h123v161h82v-161h61v-74z" />
    <glyph glyph-name="five.num" horiz-adv-x="393" 
d="M361 379q0 -58 -42.5 -102t-125.5 -44q-109 0 -167 83l67 41q32 -48 99 -48q34 0 57.5 19t23.5 53q0 33 -22.5 52.5t-62.5 19.5q-52 0 -86 -39l-50 22l14 230h271v-78h-200q-2 -31 -10 -92q35 24 84 24q67 0 108.5 -37.5t41.5 -103.5z" />
    <glyph glyph-name="six.num" horiz-adv-x="396" 
d="M123 384q0 -34 21.5 -55t59.5 -21q39 0 60 21t21 56t-21 56t-60 21q-38 0 -59.5 -21.5t-21.5 -56.5zM293 666q-111 -80 -149 -165q32 28 83 28q64 0 105 -39t41 -104q0 -68 -46.5 -110.5t-121.5 -42.5q-78 0 -124 43.5t-46 122.5q0 141 137 267h121z" />
    <glyph glyph-name="seven.num" horiz-adv-x="359" 
d="M350 666v-63q-171 -208 -173 -362h-95q6 142 163 347h-228v78h333z" />
    <glyph glyph-name="eight.num" horiz-adv-x="410" 
d="M374 360q0 -60 -46 -93.5t-123 -33.5t-123 33.5t-46 93.5q0 74 68 107q-53 27 -53 91q0 55 42 85.5t112 30.5q71 0 112.5 -30.5t41.5 -85.5q0 -58 -55 -91q70 -34 70 -107zM274 553q0 26 -20 39t-49 13t-48.5 -13t-19.5 -39q0 -28 19.5 -42t47.5 -14q29 0 49.5 14
t20.5 42zM287 366q0 33 -23 49.5t-59 16.5t-59.5 -16.5t-23.5 -49.5q0 -32 23.5 -48t59.5 -16t59 15.5t23 48.5z" />
    <glyph glyph-name="nine.num" horiz-adv-x="396" 
d="M274 522q0 35 -22 56t-61 21q-38 0 -59 -21t-21 -57q0 -35 21 -55.5t59 -20.5q39 0 61 21t22 56zM104 241q111 80 148 163q-32 -27 -82 -27q-65 0 -106 39.5t-41 103.5q0 68 47 111t121 43q78 0 124 -43.5t46 -122.5q0 -141 -137 -267h-120z" />
    <glyph glyph-name="caron.alt" horiz-adv-x="247" 
d="M190 666v-78q0 -104 -92 -181l-37 42q49 46 49 99q0 18 -13 46.5t-13 52.5v19h106z" />
    <glyph glyph-name="kreska" horiz-adv-x="330" 
d="M151 575l-43 28q50 62 76 127l98 -16q-16 -36 -52.5 -74t-78.5 -65z" />
    <glyph glyph-name="commaaccent" horiz-adv-x="238" 
d="M55 -200l-43 27q51 67 73 126l99 -12q-15 -37 -52 -76t-77 -65z" />
    <glyph glyph-name="c_t" horiz-adv-x="963" 
d="M655 165v271h-86v89h86v67q0 56 -65 56q-53 0 -81.5 -35t-28.5 -90q0 -57 38 -105l-86 -55q-45 77 -128 77q-68 0 -108 -50t-40 -127q0 -78 40.5 -128t108.5 -50q82 0 131 76l83 -57q-77 -116 -219 -116q-118 0 -189.5 77.5t-71.5 196.5q0 120 71.5 197.5t188.5 77.5
q49 0 92 -16q1 19 6 36q14 72 70.5 120t143.5 48q155 0 155 -122v-78h163v-89h-163v-272q0 -78 70 -78q38 0 67 23l44 -81q-51 -40 -125 -40q-98 0 -142 67q-25 38 -25 110z" />
    <glyph glyph-name="s_p" horiz-adv-x="1165" 
d="M707 262q0 -76 40 -125.5t112 -49.5t110.5 49.5t38.5 125.5q0 77 -38.5 126.5t-110.5 49.5t-112 -50t-40 -126zM261 537q54 0 109 -19q-1 5 -1 16q0 76 45.5 124.5t134.5 48.5q76 0 117 -34.5t41 -101.5v-123q66 89 177 89q109 0 174.5 -78t65.5 -196q0 -119 -65.5 -197
t-174.5 -78q-110 0 -177 88v-250h-111v740q0 27 -16 42t-46 15q-41 0 -62 -27t-21 -68q0 -47 29 -87l-66 -58q-62 64 -154 64q-41 0 -69.5 -15t-28.5 -44q0 -31 30 -44t95 -24q38 -7 65 -14t56 -19t46.5 -28.5t29 -41.5t11.5 -57q0 -78 -60 -125t-164 -47q-170 0 -244 118
l80 52q57 -80 169 -80q51 0 80.5 18t29.5 52q0 33 -29.5 46t-103.5 25q-96 17 -147 51t-51 108q0 77 59.5 118t146.5 41z" />
    <glyph glyph-name="germandbls.sc" horiz-adv-x="1092" 
d="M810 470q-41 0 -69 -16t-28 -50q0 -33 27.5 -46.5t95.5 -26.5q40 -8 66 -14.5t57 -19.5t49 -29.5t30.5 -42.5t12.5 -59q0 -80 -62 -129t-168 -49q-168 0 -247 124l84 51q27 -44 73 -65t96 -21t81 20t31 56t-32.5 51t-113.5 30q-91 17 -140.5 53t-49.5 107q0 78 59 121.5
t150 43.5q144 0 230 -106l-75 -57q-27 34 -68.5 54t-88.5 20zM264 470q-41 0 -69 -16t-28 -50q0 -33 27.5 -46.5t95.5 -26.5q40 -8 66 -14.5t57 -19.5t49 -29.5t30.5 -42.5t12.5 -59q0 -80 -62 -129t-168 -49q-168 0 -247 124l84 51q27 -44 73 -65t96 -21t81 20t31 56
t-32.5 51t-113.5 30q-91 17 -140.5 53t-49.5 107q0 78 59 121.5t150 43.5q144 0 230 -106l-75 -57q-27 34 -68.5 54t-88.5 20z" />
    <glyph glyph-name="f_f.sc" horiz-adv-x="1069" 
d="M1038 453h-315v-134h268v-88h-268v-231h-111v547h426v-94zM501 453h-315v-134h268v-88h-268v-231h-111v547h426v-94z" />
    <glyph glyph-name="f_i.sc" horiz-adv-x="802" 
d="M504 453h-315v-134h268v-88h-268v-231h-111v547h426v-94zM724 0h-111v547h111v-547z" />
    <glyph glyph-name="f_j.sc" horiz-adv-x="895" 
d="M501 453h-315v-134h268v-88h-268v-231h-111v547h426v-94zM823 177q0 -88 -51.5 -138.5t-143.5 -50.5q-127 0 -181 99l88 53q30 -58 94 -58q84 0 84 95v370h110v-370z" />
    <glyph glyph-name="f_l.sc" horiz-adv-x="1040" 
d="M504 453h-315v-134h268v-88h-268v-231h-111v547h426v-94zM1021 0h-408v547h111v-453h297v-94z" />
    <glyph glyph-name="c_t.sc" horiz-adv-x="1123" 
d="M322 82q97 0 143 86l89 -51q-34 -61 -94.5 -95t-139.5 -34q-124 0 -201 80t-77 206t77 206t201 80q154 0 232 -125l-88 -54q-44 85 -142 85q-76 0 -121 -54.5t-45 -137.5t45 -137.5t121 -54.5zM1093 453h-184v-453h-110v453h-183v94h477v-94z" />
    <glyph glyph-name="s_p.sc" horiz-adv-x="1108" 
d="M735 283h138q45 0 70.5 21.5t25.5 63.5t-25.5 63.5t-70.5 21.5h-138v-170zM881 189h-146v-189h-111v547h257q91 0 145 -48.5t54 -130.5t-54 -130.5t-145 -48.5zM264 470q-41 0 -69 -16t-28 -50q0 -33 27.5 -46.5t95.5 -26.5q40 -8 66 -14.5t57 -19.5t49 -29.5t30.5 -42.5
t12.5 -59q0 -80 -62 -129t-168 -49q-168 0 -247 124l84 51q27 -44 73 -65t96 -21t81 20t31 56t-32.5 51t-113.5 30q-91 17 -140.5 53t-49.5 107q0 78 59 121.5t150 43.5q144 0 230 -106l-75 -57q-27 34 -68.5 54t-88.5 20z" />
    <glyph glyph-name="s_t.sc" horiz-adv-x="1083" 
d="M264 470q-41 0 -69 -16t-28 -50q0 -33 27.5 -46.5t95.5 -26.5q40 -8 66 -14.5t57 -19.5t49 -29.5t30.5 -42.5t12.5 -59q0 -80 -62 -129t-168 -49q-168 0 -247 124l84 51q27 -44 73 -65t96 -21t81 20t31 56t-32.5 51t-113.5 30q-91 17 -140.5 53t-49.5 107q0 78 59 121.5
t150 43.5q144 0 230 -106l-75 -57q-27 34 -68.5 54t-88.5 20zM1053 453h-184v-453h-110v453h-183v94h477v-94z" />
    <glyph glyph-name="arrowright.alt1" horiz-adv-x="918" 
d="M205 386v-106h325l-124 -125l72 -71l248 249l-248 249l-72 -71l124 -125h-325zM878 333q0 -173 -123 -296t-296 -123t-296 123t-123 296t123 296t296 123t296 -123t123 -296z" />
    <glyph glyph-name="uni2197.alt1" horiz-adv-x="918" 
d="M878 333q0 -173 -123 -296t-296 -123t-296 123t-123 296t123 296t296 123t296 -123t123 -296zM547 170h101v352h-352v-101h176l-230 -230l75 -75l230 230v-176z" />
    <glyph glyph-name="arrowup.alt1" horiz-adv-x="918" 
d="M878 333q0 -173 -123 -296t-296 -123t-296 123t-123 296t123 296t296 123t296 -123t123 -296zM406 79h106v325l125 -124l71 72l-249 248l-249 -248l71 -72l125 124v-325z" />
    <glyph glyph-name="uni2196.alt1" horiz-adv-x="918" 
d="M40 333q0 173 123 296t296 123t296 -123t123 -296t-123 -296t-296 -123t-296 123t-123 296zM270 170h101v176l230 -230l75 75l-230 230h176v101h-352v-352z" />
    <glyph glyph-name="arrowleft.alt1" horiz-adv-x="918" 
d="M878 333q0 -173 -123 -296t-296 -123t-296 123t-123 296t123 296t296 123t296 -123t123 -296zM713 280v106h-326l125 125l-72 71l-248 -249l248 -249l72 71l-125 125h326z" />
    <glyph glyph-name="uni2199.alt1" horiz-adv-x="918" 
d="M40 333q0 173 123 296t296 123t296 -123t123 -296t-123 -296t-296 -123t-296 123t-123 296zM371 496h-101v-352h352v101h-176l230 230l-75 75l-230 -230v176z" />
    <glyph glyph-name="arrowdown.alt1" horiz-adv-x="918" 
d="M40 333q0 173 123 296t296 123t296 -123t123 -296t-123 -296t-296 -123t-296 123t-123 296zM512 587h-106v-326l-125 125l-71 -72l249 -248l249 248l-71 72l-125 -125v326z" />
    <glyph glyph-name="uni2198.alt1" horiz-adv-x="918" 
d="M878 333q0 -173 -123 -296t-296 -123t-296 123t-123 296t123 296t296 123t296 -123t123 -296zM648 496h-101v-176l-230 230l-75 -75l230 -230h-176v-101h352v352z" />
    <glyph glyph-name="arrowright.alt2" horiz-adv-x="918" 
d="M205 280v106h325l-124 125l72 71l248 -249l-248 -249l-72 71l124 125h-325zM878 333q0 -173 -123 -296t-296 -123t-296 123t-123 296t123 296t296 123t296 -123t123 -296zM828 333q0 152 -108.5 260.5t-260.5 108.5t-260.5 -108.5t-108.5 -260.5t108.5 -260.5
t260.5 -108.5t260.5 108.5t108.5 260.5z" />
    <glyph glyph-name="uni2197.alt2" horiz-adv-x="918" 
d="M878 333q0 -173 -123 -296t-296 -123t-296 123t-123 296t123 296t296 123t296 -123t123 -296zM648 170h-101v176l-230 -230l-75 75l230 230h-176v101h352v-352zM828 333q0 152 -108.5 260.5t-260.5 108.5t-260.5 -108.5t-108.5 -260.5t108.5 -260.5t260.5 -108.5
t260.5 108.5t108.5 260.5z" />
    <glyph glyph-name="arrowup.alt2" horiz-adv-x="918" 
d="M878 333q0 -173 -123 -296t-296 -123t-296 123t-123 296t123 296t296 123t296 -123t123 -296zM512 79h-106v325l-125 -124l-71 72l249 248l249 -248l-71 -72l-125 124v-325zM828 333q0 152 -108.5 260.5t-260.5 108.5t-260.5 -108.5t-108.5 -260.5t108.5 -260.5
t260.5 -108.5t260.5 108.5t108.5 260.5z" />
    <glyph glyph-name="uni2196.alt2" horiz-adv-x="918" 
d="M371 170h-101v352h352v-101h-176l230 -230l-75 -75l-230 230v-176zM40 333q0 173 123 296t296 123t296 -123t123 -296t-123 -296t-296 -123t-296 123t-123 296zM90 333q0 -152 108.5 -260.5t260.5 -108.5t260.5 108.5t108.5 260.5t-108.5 260.5t-260.5 108.5
t-260.5 -108.5t-108.5 -260.5z" />
    <glyph glyph-name="arrowleft.alt2" horiz-adv-x="918" 
d="M878 333q0 -173 -123 -296t-296 -123t-296 123t-123 296t123 296t296 123t296 -123t123 -296zM713 386v-106h-326l125 -125l-72 -71l-248 249l248 249l72 -71l-125 -125h326zM828 333q0 152 -108.5 260.5t-260.5 108.5t-260.5 -108.5t-108.5 -260.5t108.5 -260.5
t260.5 -108.5t260.5 108.5t108.5 260.5z" />
    <glyph glyph-name="uni2199.alt2" horiz-adv-x="918" 
d="M40 333q0 173 123 296t296 123t296 -123t123 -296t-123 -296t-296 -123t-296 123t-123 296zM270 496h101v-176l230 230l75 -75l-230 -230h176v-101h-352v352zM90 333q0 -152 108.5 -260.5t260.5 -108.5t260.5 108.5t108.5 260.5t-108.5 260.5t-260.5 108.5t-260.5 -108.5
t-108.5 -260.5z" />
    </font>
</defs>
</svg>
