<?xml version="1.0" standalone="no"?>
<!DOCTYPE svg PUBLIC "-//W3C//DTD SVG 1.1//EN" "http://www.w3.org/Graphics/SVG/1.1/DTD/svg11.dtd" >
<svg>
<metadata>
Created by FontForge 20110222 at Tue Jul 23 08:27:17 2013
 By Orthosie Webhosting
Copyright (c) ARS Type :-Angus R. Shamal, 1999-2010. All rights reserved.
</metadata>
<defs>
<font id="ARSMaquetteProRegular" horiz-adv-x="580" >
  <font-face 
    font-family="ARSMaquetteProRegular"
    font-weight="400"
    font-stretch="normal"
    units-per-em="1000"
    panose-1="2 0 6 3 0 0 0 2 0 4"
    ascent="800"
    descent="-200"
    x-height="520"
    cap-height="666"
    bbox="-161 -200 1243 991"
    underline-thickness="50"
    underline-position="-50"
    unicode-range="U+0020-1F698"
  />
<missing-glyph horiz-adv-x="574" 
d="M40 0v666h494v-666h-494zM504 636h-416l416 -580v580zM70 610v-580h415z" />
    <glyph glyph-name="f_f" unicode="ff" horiz-adv-x="656" 
d="M655 714l-12 -72q-36 9 -61 9q-39 0 -57 -15.5t-18 -52.5v-63h122v-72h-122v-448h-87v448h-219v-448h-87v448h-89v72h89v61q0 71 41 107.5t114 36.5q50 0 80 -11l-12 -72q-36 9 -62 9q-38 0 -56 -15.5t-18 -52.5v-63h219v61q0 71 41.5 107.5t113.5 36.5q50 0 80 -11z" />
    <glyph glyph-name="fi" unicode="fi" horiz-adv-x="579" 
d="M349 714l-12 -72q-36 9 -63 9q-37 0 -55 -15.5t-18 -52.5v-63h122v-72h-122v-448h-87v448h-89v72h89v61q0 71 41 107.5t114 36.5q50 0 80 -11zM501 0h-87v520h87v-520zM501 622h-87v92h87v-92z" />
    <glyph glyph-name="fl" unicode="fl" horiz-adv-x="587" 
d="M349 714l-12 -72q-36 9 -63 9q-37 0 -55 -15.5t-18 -52.5v-63h122v-72h-122v-448h-87v448h-89v72h89v61q0 71 41 107.5t114 36.5q50 0 80 -11zM506 0h-87v714h87v-714z" />
    <glyph glyph-name="f_j" unicode="fj" horiz-adv-x="587" 
d="M349 714l-12 -72q-36 9 -63 9q-37 0 -55 -15.5t-18 -52.5v-63h122v-72h-122v-448h-87v448h-89v72h89v61q0 71 41 107.5t114 36.5q50 0 80 -11zM509 520v-521q0 -89 -47.5 -135t-125.5 -46q-50 0 -83 15l24 72q26 -11 54 -11q91 0 91 103v523h87zM509 622h-87v92h87v-92z
" />
    <glyph glyph-name=".notdef" horiz-adv-x="574" 
d="M40 0v666h494v-666h-494zM504 636h-416l416 -580v580zM70 610v-580h415z" />
    <glyph glyph-name=".null" horiz-adv-x="0" 
 />
    <glyph glyph-name="nonmarkingreturn" horiz-adv-x="333" 
 />
    <glyph glyph-name="space" unicode=" " horiz-adv-x="270" 
 />
    <glyph glyph-name="exclam" unicode="!" horiz-adv-x="268" 
d="M184 517l-27 -316h-46l-27 316v149h100v-149zM184 0h-100v111h100v-111z" />
    <glyph glyph-name="quotedbl" unicode="&#x22;" horiz-adv-x="388" 
d="M338 633l-30 -213h-40l-30 213v33h100v-33zM151 633l-30 -213h-41l-30 213v33h101v-33z" />
    <glyph glyph-name="numbersign" unicode="#" horiz-adv-x="633" 
d="M595 422h-124l-32 -178h115v-55h-124l-34 -189h-60l34 189h-157l-33 -189h-60l33 189h-115v55h124l32 178h-115v55h124l34 189h60l-33 -189h156l34 189h60l-34 -189h115v-55zM411 422h-157l-31 -178h156z" />
    <glyph glyph-name="dollar" unicode="$" 
d="M324 -97h-54v86q-166 9 -241 134l73 46q54 -90 168 -104v240q-35 8 -61 16t-56.5 23t-50 34t-32.5 48.5t-13 66.5q0 83 59 132t154 53v70h54v-71q130 -14 205 -115l-66 -45q-54 67 -139 82v-216q48 -12 81.5 -24.5t67.5 -34.5t51.5 -56t17.5 -79q0 -83 -59 -137.5
t-159 -62.5v-86zM454 182q0 48 -31.5 71t-98.5 40v-228q60 5 95 35.5t35 81.5zM145 502q0 -46 30 -67t95 -39v206q-55 -2 -90 -26.5t-35 -73.5z" />
    <glyph glyph-name="percent" unicode="%" horiz-adv-x="762" 
d="M349 512q0 -71 -44 -118t-113 -47t-113 47t-44 118q0 70 44 116.5t113 46.5t113 -46.5t44 -116.5zM589 666l-347 -666h-69l346 666h70zM727 155q0 -71 -43.5 -117.5t-113.5 -46.5q-68 0 -112.5 47t-44.5 117t44.5 116.5t112.5 46.5q70 0 113.5 -46.5t43.5 -116.5z
M287 512q0 43 -26.5 72t-68.5 29q-43 0 -69.5 -28.5t-26.5 -72.5t26.5 -73.5t69.5 -29.5t69 29.5t26 73.5zM666 155q0 44 -26.5 73t-69.5 29q-42 0 -68.5 -29.5t-26.5 -72.5q0 -44 26.5 -73.5t68.5 -29.5q43 0 69.5 29.5t26.5 73.5z" />
    <glyph glyph-name="ampersand" unicode="&#x26;" horiz-adv-x="672" 
d="M541 309l79 -20q-28 -93 -86 -166l122 -123h-115l-66 65q-92 -77 -209 -77q-100 0 -166 50.5t-66 137.5q0 124 152 188q-42 45 -59.5 78.5t-17.5 76.5q0 76 51 117.5t131 41.5q81 0 130.5 -41.5t49.5 -110.5q0 -58 -38 -102t-116 -80l162 -164q44 61 62 129zM277 65
q81 0 144 56l-188 192q-108 -48 -108 -127q0 -55 42 -88t110 -33zM391 521q0 41 -29 63t-71 22t-70.5 -22.5t-28.5 -63.5q0 -31 17.5 -58t57.5 -67q60 28 92 55.5t32 70.5z" />
    <glyph glyph-name="quotesingle" unicode="'" horiz-adv-x="199" 
d="M150 633l-31 -213h-40l-29 213v33h100v-33z" />
    <glyph glyph-name="parenleft" unicode="(" horiz-adv-x="289" 
d="M269 -79l-56 -45q-171 178 -171 427t171 427l56 -46q-148 -156 -148 -381q0 -224 148 -382z" />
    <glyph glyph-name="parenright" unicode=")" horiz-adv-x="289" 
d="M19 684l57 46q171 -181 171 -427q0 -249 -171 -427l-57 45q149 157 149 382t-149 381z" />
    <glyph glyph-name="asterisk" unicode="*" horiz-adv-x="432" 
d="M232 476q14 -84 14 -154h-61q0 71 15 154q-67 -57 -126 -89l-30 52q57 34 140 64q-84 32 -140 65l30 52q59 -32 126 -89q-15 83 -15 154h61q0 -70 -14 -154q67 56 125 89l31 -52q-57 -34 -141 -65q83 -30 141 -64l-31 -52q-58 33 -125 89z" />
    <glyph glyph-name="plus" unicode="+" 
d="M527 266h-200v-200h-77v200h-199v76h199v200h77v-200h200v-76z" />
    <glyph glyph-name="comma" unicode="," horiz-adv-x="251" 
d="M179 106v-98q0 -91 -79 -159l-32 33q55 44 55 97v21h-51v106h107z" />
    <glyph glyph-name="hyphen" unicode="-" horiz-adv-x="393" 
d="M331 242h-269v78h269v-78z" />
    <glyph glyph-name="period" unicode="." horiz-adv-x="251" 
d="M179 0h-107v106h107v-106z" />
    <glyph glyph-name="slash" unicode="/" horiz-adv-x="353" 
d="M323 714l-220 -822h-71l220 822h71z" />
    <glyph glyph-name="zero" unicode="0" 
d="M533 333q0 -68 -12 -126.5t-38.5 -109t-75.5 -80t-117 -29.5t-117 29.5t-75.5 80t-38.5 109t-12 126.5q0 69 12 127t38.5 109t75.5 80t117 29t117 -29t75.5 -80t38.5 -109t12 -127zM436 333q0 264 -146 264q-147 0 -147 -264q0 -265 147 -265q146 0 146 265z" />
    <glyph glyph-name="one" unicode="1" 
d="M520 0h-419v77h167v478q-67 -36 -168 -49l-11 74q143 27 202 86h71v-589h158v-77z" />
    <glyph glyph-name="two" unicode="2" 
d="M527 0h-466v72q195 161 268.5 244t73.5 154q0 60 -36 91.5t-93 31.5q-98 0 -153 -91l-74 46q86 130 234 130q96 0 158 -55.5t62 -148.5q0 -88 -68.5 -172.5t-235.5 -215.5h330v-86z" />
    <glyph glyph-name="three" unicode="3" 
d="M279 305h-52v81h54q61 0 94.5 29t33.5 79q0 47 -33.5 73.5t-91.5 26.5q-103 0 -159 -80l-70 49q88 115 232 115q96 0 156.5 -49t60.5 -126q0 -101 -100 -150q59 -23 89.5 -67t30.5 -97q0 -87 -64.5 -144t-173.5 -57q-174 0 -248 135l81 44q48 -95 167 -95q67 0 104 33
t37 89q0 51 -37.5 81t-110.5 30z" />
    <glyph glyph-name="four" unicode="4" 
d="M547 156h-98v-156h-92v156h-324v77q66 114 101 229.5t35 203.5h91q0 -89 -37.5 -206t-101.5 -222h236v282h92v-282h98v-82z" />
    <glyph glyph-name="five" unicode="5" 
d="M280 73q69 0 110 37.5t41 103.5q0 64 -39.5 100.5t-107.5 36.5q-91 0 -143 -64l-57 27l22 352h384v-86h-307l-16 -191q59 42 139 42q96 0 159 -59.5t63 -154.5q0 -97 -66 -163t-179 -66q-164 0 -238 127l79 47q47 -89 156 -89z" />
    <glyph glyph-name="six" unicode="6" 
d="M420 666q-74 -59 -144 -136.5t-98 -144.5q48 52 148 52q92 0 153 -60.5t61 -158.5q0 -102 -67.5 -166t-177.5 -64q-111 0 -177.5 65.5t-66.5 181.5q0 115 62.5 219.5t174.5 211.5h132zM147 216q0 -65 39.5 -104.5t109.5 -39.5q69 0 107.5 39.5t38.5 104.5
q0 66 -38.5 104.5t-107.5 38.5q-70 0 -109.5 -39t-39.5 -104z" />
    <glyph glyph-name="seven" unicode="7" 
d="M535 666v-76q-41 -53 -80 -110.5t-86.5 -140t-78 -172t-34.5 -167.5h-101q13 243 270 580h-375v86h485z" />
    <glyph glyph-name="eight" unicode="8" 
d="M290 69q69 0 108 33.5t39 91.5t-37.5 90.5t-109.5 32.5t-109.5 -32.5t-37.5 -90.5t38.5 -91.5t108.5 -33.5zM290 395q58 0 91 26.5t33 74.5t-33.5 75t-90.5 27t-90.5 -27t-33.5 -75t33 -74.5t91 -26.5zM290 -12q-112 0 -178.5 56.5t-66.5 143.5q0 56 30.5 102t89.5 71
q-95 44 -95 142q0 78 62.5 126.5t157.5 48.5t157.5 -48.5t62.5 -126.5q0 -97 -96 -142q60 -25 90 -70.5t30 -102.5q0 -88 -66 -144t-178 -56z" />
    <glyph glyph-name="nine" unicode="9" 
d="M160 0q74 59 144 136.5t98 144.5q-48 -52 -148 -52q-92 0 -153 60.5t-61 158.5q0 102 67.5 166t177.5 64q111 0 177.5 -65.5t66.5 -181.5q0 -115 -63 -219t-174 -212h-132zM433 450q0 65 -39.5 104.5t-109.5 39.5q-69 0 -107.5 -39.5t-38.5 -104.5q0 -66 38.5 -104.5
t107.5 -38.5q70 0 109.5 39t39.5 104z" />
    <glyph glyph-name="colon" unicode=":" horiz-adv-x="295" 
d="M201 0h-107v106h107v-106zM201 414h-107v106h107v-106z" />
    <glyph glyph-name="semicolon" unicode=";" horiz-adv-x="295" 
d="M201 106v-98q0 -91 -79 -159l-32 33q55 44 55 97v21h-51v106h107zM201 414h-107v106h107v-106z" />
    <glyph glyph-name="less" unicode="&#x3c;" 
d="M442 78l-52 -52l-281 279l281 280l52 -53l-226 -227z" />
    <glyph glyph-name="equal" unicode="=" 
d="M528 364h-476v76h476v-76zM528 168h-476v77h476v-77z" />
    <glyph glyph-name="greater" unicode="&#x3e;" 
d="M471 305l-281 -279l-52 52l227 227l-227 227l52 53z" />
    <glyph glyph-name="question" unicode="?" horiz-adv-x="511" 
d="M466 478q0 -86 -58 -140.5t-151 -66.5v-70h-84v146q13 -3 36 -3q72 0 116.5 35t44.5 96q0 53 -35.5 86t-98.5 33q-83 0 -154 -63l-52 63q97 84 213 84q96 0 159.5 -54t63.5 -146zM268 0h-107v102h107v-102z" />
    <glyph glyph-name="at" unicode="@" horiz-adv-x="842" 
d="M535 173q-48 -69 -135 -69q-77 0 -123.5 55t-46.5 139t47 139.5t125 55.5q70 0 117 -55v47h75v-263q0 -62 58 -62q45 0 69 38.5t24 102.5q0 136 -89 227.5t-229 91.5t-229 -93t-89 -227t89.5 -226.5t228.5 -92.5q87 0 158 42l28 -51q-88 -48 -190 -48q-165 0 -272.5 108
t-107.5 268q0 159 108 268.5t275 109.5q166 0 273 -108t107 -261q0 -93 -43.5 -148t-115.5 -55q-82 0 -112 67zM519 298q0 56 -28 92t-79 36q-50 0 -77 -36t-27 -92q0 -55 27 -91t78 -36t78.5 36t27.5 91z" />
    <glyph glyph-name="A" unicode="A" horiz-adv-x="667" 
d="M657 0h-105l-71 185h-300l-72 -185h-98l271 666h103zM450 267l-117 308l-120 -308h237z" />
    <glyph glyph-name="B" unicode="B" horiz-adv-x="661" 
d="M612 191q0 -84 -57 -137.5t-164 -53.5h-301v666h279q103 0 159 -42t56 -118q0 -97 -87 -144q56 -23 85.5 -67.5t29.5 -103.5zM490 493q0 88 -124 88h-182v-190h187q56 0 87.5 27.5t31.5 74.5zM514 196q0 52 -31 83t-91 31h-208v-226h204q60 0 93 29.5t33 82.5z" />
    <glyph glyph-name="C" unicode="C" horiz-adv-x="670" 
d="M633 544l-74 -51q-64 99 -186 99q-103 0 -165 -70.5t-62 -187.5q0 -118 62 -189.5t163 -71.5q122 0 188 103l77 -50q-91 -138 -264 -138q-145 0 -234.5 97t-89.5 248t89.5 248t233.5 97q169 0 262 -134z" />
    <glyph glyph-name="D" unicode="D" horiz-adv-x="720" 
d="M185 86h163q108 0 166.5 66.5t58.5 180.5t-58.5 180.5t-166.5 66.5h-163v-494zM348 0h-258v666h258q151 0 237 -93t86 -240t-86 -240t-237 -93z" />
    <glyph glyph-name="E" unicode="E" horiz-adv-x="620" 
d="M572 0h-482v666h472v-86h-378v-188h329v-81h-329v-225h388v-86z" />
    <glyph glyph-name="F" unicode="F" horiz-adv-x="602" 
d="M571 580h-387v-192h328v-81h-328v-307h-94v666h481v-86z" />
    <glyph glyph-name="G" unicode="G" horiz-adv-x="721" 
d="M373 592q-105 0 -166 -71t-61 -188q0 -118 61.5 -189t165.5 -71q90 0 149.5 51t66.5 136h-216v82h305q4 -26 4 -50q0 -127 -83.5 -215.5t-224.5 -88.5q-147 0 -236.5 97t-89.5 249t89 248t234 96q169 0 262 -134l-74 -51q-64 99 -186 99z" />
    <glyph glyph-name="H" unicode="H" horiz-adv-x="729" 
d="M639 0h-94v310h-361v-310h-94v666h94v-271h361v271h94v-666z" />
    <glyph glyph-name="I" unicode="I" horiz-adv-x="273" 
d="M183 0h-93v666h93v-666z" />
    <glyph glyph-name="J" unicode="J" horiz-adv-x="506" 
d="M423 209q0 -106 -58.5 -163.5t-156.5 -57.5q-127 0 -188 100l75 48q42 -62 117 -62q117 0 117 134v458h94v-457z" />
    <glyph glyph-name="K" unicode="K" horiz-adv-x="646" 
d="M645 0h-116l-230 317l-116 -129v-188h-93v666h93v-357l323 357h113l-257 -282z" />
    <glyph glyph-name="L" unicode="L" horiz-adv-x="568" 
d="M553 0h-463v666h93v-580h370v-86z" />
    <glyph glyph-name="M" unicode="M" horiz-adv-x="879" 
d="M789 0h-92v569l-217 -569h-81l-219 569v-569h-90v666h140l211 -549l211 549h137v-666z" />
    <glyph glyph-name="N" unicode="N" horiz-adv-x="729" 
d="M639 0h-110l-349 549v-549h-90v666h120l339 -536v536h90v-666z" />
    <glyph glyph-name="O" unicode="O" horiz-adv-x="745" 
d="M698 333q0 -150 -89.5 -247.5t-236.5 -97.5t-236 97.5t-89 247.5t89 247.5t236 97.5t236.5 -97.5t89.5 -247.5zM599 333q0 115 -61.5 186t-165.5 71q-105 0 -166 -71t-61 -186t61 -186.5t166 -71.5q104 0 165.5 71.5t61.5 186.5z" />
    <glyph glyph-name="P" unicode="P" horiz-adv-x="634" 
d="M605 459q0 -95 -61.5 -150.5t-173.5 -55.5h-186v-253h-94v666h280q111 0 173 -56t62 -151zM184 339h186q68 0 103 32t35 88q0 57 -35 89t-103 32h-186v-241z" />
    <glyph glyph-name="Q" unicode="Q" horiz-adv-x="745" 
d="M698 333q0 -166 -108 -264l75 -90l-63 -53l-79 96q-68 -34 -151 -34q-147 0 -236 97.5t-89 247.5t89 247.5t236 97.5t236.5 -97.5t89.5 -247.5zM599 333q0 115 -61.5 186t-165.5 71q-105 0 -166 -71t-61 -186t61 -186.5t166 -71.5q51 0 91 20l-70 86l62 50l75 -91
q69 71 69 193z" />
    <glyph glyph-name="R" unicode="R" horiz-adv-x="661" 
d="M623 0h-106l-142 268h-191v-268h-94v666h292q102 0 162.5 -53t60.5 -142q0 -67 -37.5 -115.5t-99.5 -70.5zM508 464q0 53 -35.5 84.5t-93.5 31.5h-195v-230h198q57 0 91.5 31.5t34.5 82.5z" />
    <glyph glyph-name="S" unicode="S" horiz-adv-x="605" 
d="M298 678q77 0 142 -30.5t108 -87.5l-72 -51q-64 86 -183 86q-58 0 -96 -23.5t-38 -73.5q0 -21 9 -37t20 -25.5t35 -19t40 -13.5t50 -12q46 -11 75.5 -19.5t65.5 -25t56.5 -35.5t34.5 -49.5t14 -69.5q0 -92 -69 -148t-184 -56q-92 0 -162.5 36.5t-108.5 100.5l77 49
q66 -104 201 -104q68 0 109.5 30.5t41.5 83.5q0 19 -5 34t-19.5 26.5t-25 18.5t-38 15t-41 11.5t-50.5 11.5q-49 10 -83 22t-68 33t-51.5 54.5t-17.5 78.5q0 88 65 138.5t168 50.5z" />
    <glyph glyph-name="T" unicode="T" horiz-adv-x="599" 
d="M573 580h-227v-580h-94v580h-226v86h547v-86z" />
    <glyph glyph-name="U" unicode="U" horiz-adv-x="710" 
d="M628 666v-416q0 -119 -76.5 -190.5t-197.5 -71.5t-196.5 71.5t-75.5 190.5v416h93v-416q0 -80 48 -127.5t131 -47.5t132 47.5t49 127.5v416h93z" />
    <glyph glyph-name="V" unicode="V" horiz-adv-x="633" 
d="M524 666h97l-256 -666h-97l-256 666h101l204 -556z" />
    <glyph glyph-name="W" unicode="W" horiz-adv-x="942" 
d="M917 666l-186 -666h-104l-156 540l-156 -540h-107l-182 666h99l142 -547l161 547h90l161 -549l141 549h97z" />
    <glyph glyph-name="X" unicode="X" horiz-adv-x="649" 
d="M642 0h-115l-204 278l-205 -278h-111l258 346l-238 320h113l185 -257l187 257h109l-237 -320z" />
    <glyph glyph-name="Y" unicode="Y" horiz-adv-x="614" 
d="M610 666l-256 -394v-272h-94v271l-254 395h110l193 -310l195 310h106z" />
    <glyph glyph-name="Z" unicode="Z" horiz-adv-x="602" 
d="M558 0h-517v78l387 502h-372v86h494v-76l-389 -504h397v-86z" />
    <glyph glyph-name="bracketleft" unicode="[" horiz-adv-x="298" 
d="M288 -108h-208v822h208v-69h-129v-685h129v-68z" />
    <glyph glyph-name="backslash" unicode="\" horiz-adv-x="353" 
d="M321 -108h-71l-220 822h71z" />
    <glyph glyph-name="bracketright" unicode="]" horiz-adv-x="299" 
d="M219 -108h-210v68h131v685h-131v69h210v-822z" />
    <glyph glyph-name="asciicircum" unicode="^" 
d="M555 437l-52 -54l-212 213l-214 -213l-52 54l229 229h72z" />
    <glyph glyph-name="underscore" unicode="_" horiz-adv-x="607" 
d="M602 -125h-597v50h597v-50z" />
    <glyph glyph-name="grave" unicode="`" horiz-adv-x="320" 
d="M236 607l-34 -29q-43 25 -82.5 63.5t-54.5 72.5l83 13q32 -58 88 -120z" />
    <glyph glyph-name="a" unicode="a" horiz-adv-x="567" 
d="M544 68l11 -66q-24 -10 -60 -10q-40 0 -67.5 20.5t-33.5 62.5q-61 -87 -179 -87q-81 0 -129 42t-48 116q0 35 12 62t29.5 42.5t43.5 27t47 16t48 8.5q10 1 33.5 4t34.5 4.5t29.5 5.5t28 8.5t20 12t15 18t4.5 24.5q0 40 -35 58t-83 18q-89 0 -162 -55l-40 66q96 66 208 66
q93 0 147 -42t54 -128v-246q0 -56 41 -56q20 0 31 8zM385 200v90q-10 -13 -21.5 -21.5t-29 -13.5t-28 -7.5t-35.5 -6t-36 -5.5q-54 -9 -81 -26.5t-27 -61.5t30 -66t78 -22q63 0 106.5 35t43.5 105z" />
    <glyph glyph-name="b" unicode="b" horiz-adv-x="633" 
d="M78 714h87v-280q68 98 185 98q109 0 174 -77t65 -195t-65.5 -195t-173.5 -77q-117 0 -185 97v-85h-87v714zM165 259q0 -83 44.5 -137t123.5 -54t121 53.5t42 137.5t-42 138t-121 54q-80 0 -124 -54.5t-44 -137.5z" />
    <glyph glyph-name="c" unicode="c" horiz-adv-x="536" 
d="M439 145l67 -48q-76 -109 -210 -109q-114 0 -183 77t-69 195t69 195t183 77q132 0 207 -108l-65 -52q-50 81 -139 81q-74 0 -118.5 -54.5t-44.5 -138.5t44.5 -138.5t117.5 -54.5q89 0 141 78z" />
    <glyph glyph-name="d" unicode="d" horiz-adv-x="634" 
d="M556 0h-87v85q-68 -97 -185 -97q-109 0 -174 77t-65 194q0 119 65 196t174 77q116 0 185 -98v280h87v-714zM469 260q0 83 -44.5 137t-124.5 54q-79 0 -121 -53.5t-42 -137.5t42 -138t121 -54q80 0 124.5 54.5t44.5 137.5z" />
    <glyph glyph-name="e" unicode="e" horiz-adv-x="586" 
d="M547 273q0 -20 -2 -34h-408q4 -80 51 -125.5t124 -45.5q91 0 154 68l58 -57q-85 -91 -214 -91q-124 0 -195 75.5t-71 194.5q0 118 69.5 196t185.5 78q112 0 180 -74t68 -185zM139 306h318q-7 72 -51 111.5t-108 39.5q-67 0 -110.5 -42t-48.5 -109z" />
    <glyph glyph-name="f" unicode="f" horiz-adv-x="350" 
d="M349 714l-12 -72q-36 9 -63 9q-37 0 -55 -15.5t-18 -52.5v-63h122v-72h-122v-448h-87v448h-89v72h89v61q0 71 41 107.5t114 36.5q50 0 80 -11z" />
    <glyph glyph-name="g" unicode="g" horiz-adv-x="636" 
d="M558 520v-436q0 -124 -56 -187q-70 -81 -219 -81q-126 0 -217 62l44 71q75 -54 174 -54q85 0 136 42t51 129v56q-30 -48 -81 -72.5t-109 -24.5q-104 0 -169.5 71.5t-65.5 180.5q0 110 67.5 182.5t171.5 72.5q125 0 186 -98v86h87zM472 279q0 75 -45 124t-125 49
q-79 0 -121.5 -49t-42.5 -124q0 -76 42.5 -126t121.5 -50t124.5 50t45.5 126z" />
    <glyph glyph-name="h" unicode="h" horiz-adv-x="597" 
d="M165 0h-87v714h87v-280q67 98 178 98q84 0 133 -52t49 -145v-335h-87v315q0 135 -116 135q-68 0 -112.5 -45t-44.5 -117v-288z" />
    <glyph glyph-name="i" unicode="i" horiz-adv-x="243" 
d="M165 0h-87v520h87v-520zM165 622h-87v92h87v-92z" />
    <glyph glyph-name="j" unicode="j" horiz-adv-x="243" 
d="M165 520v-521q0 -89 -47.5 -135t-125.5 -46q-50 0 -83 15l24 72q26 -11 54 -11q91 0 91 103v523h87zM165 622h-87v92h87v-92z" />
    <glyph glyph-name="k" unicode="k" horiz-adv-x="569" 
d="M165 251l261 269h110l-210 -213l237 -307h-110l-188 249l-100 -101v-148h-87v714h87v-463z" />
    <glyph glyph-name="l" unicode="l" horiz-adv-x="249" 
d="M168 0h-87v714h87v-714z" />
    <glyph glyph-name="m" unicode="m" horiz-adv-x="922" 
d="M165 0h-87v520h87v-84q65 96 169 96q119 0 156 -105q69 105 184 105q83 0 129.5 -51t46.5 -142v-339h-87v318q0 132 -109 132q-63 0 -105 -44.5t-42 -114.5v-291h-87v318q0 132 -109 132q-64 0 -105 -44t-41 -115v-291z" />
    <glyph glyph-name="n" unicode="n" horiz-adv-x="597" 
d="M165 0h-87v520h87v-86q67 98 178 98q84 0 133 -52t49 -145v-335h-87v315q0 135 -116 135q-68 0 -112.5 -45t-44.5 -117v-288z" />
    <glyph glyph-name="o" unicode="o" horiz-adv-x="600" 
d="M556 259q0 -119 -70 -195t-186 -76q-117 0 -186.5 76t-69.5 195q0 120 69.5 196.5t186.5 76.5q116 0 186 -76.5t70 -196.5zM463 259q0 85 -43.5 139.5t-119.5 54.5t-120 -54.5t-44 -139.5q0 -84 44 -138.5t120 -54.5t119.5 54.5t43.5 138.5z" />
    <glyph glyph-name="p" unicode="p" horiz-adv-x="633" 
d="M78 520h87v-86q68 98 185 98q109 0 174 -77t65 -195t-65.5 -195t-173.5 -77q-117 0 -185 97v-259h-87v694zM165 259q0 -83 44.5 -137t123.5 -54t121 53.5t42 137.5t-42 138t-121 54q-80 0 -124 -54.5t-44 -137.5z" />
    <glyph glyph-name="q" unicode="q" horiz-adv-x="634" 
d="M556 -174h-87v259q-68 -97 -185 -97q-109 0 -174 77t-65 194q0 118 65 195.5t174 77.5q116 0 185 -98v86h87v-694zM469 260q0 83 -44.5 137t-124.5 54q-79 0 -121 -53.5t-42 -137.5q0 -83 42 -137.5t121 -54.5q80 0 124.5 54.5t44.5 137.5z" />
    <glyph glyph-name="r" unicode="r" horiz-adv-x="393" 
d="M387 511l-28 -83q-30 16 -60 16q-55 0 -94.5 -46.5t-39.5 -126.5v-271h-87v520h87v-88q61 98 151 98q42 0 71 -19z" />
    <glyph glyph-name="s" unicode="s" horiz-adv-x="518" 
d="M475 154q0 -75 -57 -120.5t-156 -45.5q-157 0 -230 111l64 48q61 -84 171 -84q55 0 88 21.5t33 62.5q0 37 -30 51t-113 30q-90 17 -138 49t-48 102q0 75 56.5 114t138.5 39q128 0 211 -87l-58 -55q-58 67 -154 67q-46 0 -78 -17.5t-32 -52.5q0 -15 7.5 -27t17 -19.5
t29.5 -14t34.5 -9.5t40.5 -8q38 -7 62 -13t54 -18t46.5 -27t28.5 -40t12 -57z" />
    <glyph glyph-name="t" unicode="t" horiz-adv-x="394" 
d="M343 89l37 -66q-45 -35 -113 -35q-95 0 -136 66q-22 34 -22 103v291h-90v72h90v146h87v-146h168v-72h-168v-291q0 -90 80 -90q39 0 67 22z" />
    <glyph glyph-name="u" unicode="u" horiz-adv-x="597" 
d="M432 520h87v-520h-87v85q-69 -97 -178 -97q-84 0 -133 52t-49 144v336h87v-316q0 -135 115 -135q68 0 113 45t45 117v289z" />
    <glyph glyph-name="v" unicode="v" horiz-adv-x="535" 
d="M521 520l-208 -520h-91l-208 520h98l157 -416l157 416h95z" />
    <glyph glyph-name="w" unicode="w" horiz-adv-x="788" 
d="M760 520l-144 -520h-95l-126 408l-128 -408h-95l-144 520h93l105 -415l130 415h80l129 -415l106 415h89z" />
    <glyph glyph-name="x" unicode="x" horiz-adv-x="538" 
d="M522 0h-106l-148 210l-148 -210h-106l201 271l-183 249h105l134 -191l132 191h103l-182 -249z" />
    <glyph glyph-name="y" unicode="y" horiz-adv-x="535" 
d="M520 520l-208 -544q-32 -84 -71 -122t-108 -38q-62 0 -106 32l38 64q30 -20 62 -20q33 0 54 20.5t38 58.5l14 31l-220 518h100l166 -404l147 404h94z" />
    <glyph glyph-name="z" unicode="z" horiz-adv-x="508" 
d="M466 0h-426v71l302 371h-289v78h404v-70l-304 -373h313v-77z" />
    <glyph glyph-name="braceleft" unicode="{" horiz-adv-x="359" 
d="M352 -114h-41q-76 0 -122.5 45t-46.5 125v113q0 100 -90 100h-29v68h29q90 0 90 99v113q0 81 46.5 125.5t122.5 44.5h41v-68h-37q-93 0 -93 -102v-105q0 -108 -84 -141q84 -33 84 -141v-105q0 -102 93 -102h37v-69z" />
    <glyph glyph-name="bar" unicode="|" horiz-adv-x="227" 
d="M147 -108h-67v822h67v-822z" />
    <glyph glyph-name="braceright" unicode="}" horiz-adv-x="359" 
d="M336 269h-28q-91 0 -91 -100v-113q0 -80 -46 -125t-122 -45h-42v69h37q94 0 94 102v104q0 109 84 142q-84 31 -84 141v105q0 102 -94 102h-37v68h42q77 0 122.5 -44.5t45.5 -125.5v-113q0 -99 91 -99h28v-68z" />
    <glyph glyph-name="asciitilde" unicode="~" horiz-adv-x="610" 
d="M99 233l-47 42q89 109 173 109q37 0 81 -27q45 -28 61.5 -36t33.5 -8q27 0 51.5 16.5t60.5 55.5l47 -42q-89 -109 -173 -109q-37 0 -81 27q-45 28 -61.5 36t-33.5 8q-27 0 -51.5 -16.5t-60.5 -55.5z" />
    <glyph glyph-name="uni00A0" unicode="&#xa0;" horiz-adv-x="270" 
 />
    <glyph glyph-name="exclamdown" unicode="&#xa1;" horiz-adv-x="266" 
d="M183 -147h-100v148l27 315h46l27 -315v-148zM183 409h-100v111h100v-111z" />
    <glyph glyph-name="cent" unicode="&#xa2;" 
d="M454 145l67 -48q-67 -96 -183 -107v-84h-54v84q-102 9 -163.5 84t-61.5 186q0 110 61.5 185t163.5 85v83h54v-83q112 -10 180 -106l-65 -52q-43 69 -115 79v-383q71 10 116 77zM151 260q0 -75 36 -127.5t97 -63.5v381q-61 -11 -97 -63t-36 -127z" />
    <glyph glyph-name="sterling" unicode="&#xa3;" 
d="M564 96q-45 -108 -136 -108q-33 0 -99.5 21.5t-101.5 21.5q-75 0 -151 -43l-33 67q105 62 105 146q0 40 -17 80h-103v65h79q-36 86 -36 133q0 92 64 146t164 54q149 0 231 -126l-77 -45q-53 84 -152 84q-59 0 -96.5 -30.5t-37.5 -86.5q0 -13 2 -26t7.5 -29t8 -23.5
t11 -27.5t9.5 -23h199v-65h-181q9 -29 9 -57q0 -73 -54 -135q42 18 82 18q30 0 83 -15.5t76 -15.5q27 0 44 14t30 46z" />
    <glyph glyph-name="currency" unicode="&#xa4;" 
d="M168 303q0 -50 35.5 -85.5t86.5 -35.5t86.5 35.5t35.5 85.5q0 51 -35.5 86.5t-86.5 35.5t-86.5 -35.5t-35.5 -86.5zM100 303q0 58 32 104l-72 72l54 55l72 -73q46 32 104 32q57 0 103 -32l72 73l54 -55l-71 -72q31 -49 31 -104q0 -56 -31 -103l71 -71l-54 -55l-72 71
q-47 -31 -103 -31q-57 0 -104 31l-72 -71l-54 55l72 70q-32 48 -32 104z" />
    <glyph glyph-name="yen" unicode="&#xa5;" 
d="M554 666l-175 -318h135v-52h-163l-15 -25v-61h178v-53h-178v-157h-93v157h-179v53h179v60l-16 26h-163v52h136l-175 318h109l158 -311l155 311h107z" />
    <glyph glyph-name="brokenbar" unicode="&#xa6;" horiz-adv-x="225" 
d="M143 400h-61v314h61v-314zM143 -108h-61v314h61v-314z" />
    <glyph glyph-name="section" unicode="&#xa7;" horiz-adv-x="538" 
d="M383 29l-134 84q-100 62 -156 130.5t-56 167.5q0 116 73.5 192t194.5 76q103 0 177 -58l-51 -65q-51 46 -128 46q-102 0 -151 -80l141 -89q99 -62 151.5 -130t52.5 -163q0 -117 -72.5 -193t-193.5 -76q-105 0 -177 58l49 65q52 -46 130 -46q101 0 150 81zM415 140
q0 54 -25 98.5t-62 77t-110 83.5l-92 64q-6 -19 -6 -44q0 -86 42.5 -139t154.5 -129l93 -63q5 32 5 52z" />
    <glyph glyph-name="dieresis" unicode="&#xa8;" horiz-adv-x="320" 
d="M93 597h-76v78h76v-78zM302 597h-75v78h75v-78z" />
    <glyph glyph-name="copyright" unicode="&#xa9;" horiz-adv-x="782" 
d="M742 333q0 -145 -103 -248t-248 -103t-248.5 103t-103.5 248t103 248t249 103q145 0 248 -103t103 -248zM688 333q0 124 -87 211t-210 87t-210.5 -87t-87.5 -211t87 -211t211 -87q123 0 210 87t87 211zM565 232q-29 -47 -74.5 -73t-99.5 -26q-83 0 -141.5 58.5
t-58.5 141.5t58.5 142t141.5 59q112 0 172 -98l-53 -36q-41 68 -118 68q-56 0 -96 -39.5t-40 -95.5t40 -95.5t96 -39.5q76 0 119 69z" />
    <glyph glyph-name="ordfeminine" unicode="&#xaa;" horiz-adv-x="441" 
d="M383 386l10 -50q-14 -7 -43 -7q-58 0 -69 46q-40 -49 -117 -49q-51 0 -83.5 27.5t-32.5 74.5q0 42 23 65.5t56 30t66 9t56 11t23 29.5q0 42 -74 42q-59 0 -105 -34l-31 47q64 45 139 45q72 0 104.5 -31.5t32.5 -99.5v-131q0 -30 24 -30q11 0 21 5zM274 463v49
q-23 -21 -84 -30q-28 -5 -41 -8t-24.5 -14t-11.5 -29q0 -25 18.5 -37.5t46.5 -12.5q40 0 68 21t28 61z" />
    <glyph glyph-name="guillemotleft" unicode="&#xab;" horiz-adv-x="464" 
d="M32 245v30l144 192l51 -40l-121 -167l121 -168l-51 -39zM220 245v30l144 192l52 -40l-122 -167l122 -168l-52 -39z" />
    <glyph glyph-name="logicalnot" unicode="&#xac;" horiz-adv-x="593" 
d="M531 66h-76v200h-400v76h476v-276z" />
    <glyph glyph-name="registered" unicode="&#xae;" horiz-adv-x="460" 
d="M271 471l45 -77h-41l-38 72h-46v-72h-36v194h89q29 0 47.5 -17t18.5 -44q0 -42 -39 -56zM274 527q0 13 -9 22t-21 9h-53v-62h53q12 0 21 8.5t9 22.5zM42 490q0 78 55 133t133 55q77 0 132.5 -55t55.5 -133t-55.5 -133t-132.5 -55q-78 0 -133 55t-55 133zM67 490
q0 -68 47.5 -115.5t115.5 -47.5t115.5 47.5t47.5 115.5t-47.5 115.5t-115.5 47.5t-115.5 -47.5t-47.5 -115.5z" />
    <glyph glyph-name="macron" unicode="&#xaf;" horiz-adv-x="328" 
d="M313 608h-300v58h300v-58z" />
    <glyph glyph-name="degree" unicode="&#xb0;" horiz-adv-x="383" 
d="M342 527q0 -61 -44 -105.5t-106 -44.5t-106.5 44t-44.5 106t44.5 106.5t106.5 44.5t106 -44.5t44 -106.5zM283 527q0 38 -27 65t-64 27q-38 0 -65.5 -27.5t-27.5 -64.5t28 -64.5t65 -27.5t64 27.5t27 64.5z" />
    <glyph glyph-name="plusminus" unicode="&#xb1;" 
d="M527 0h-476v76h476v-76zM527 337h-200v-192h-77v192h-199v76h199v194h77v-194h200v-76z" />
    <glyph glyph-name="twosuperior" unicode="&#xb2;" horiz-adv-x="382" 
d="M350 336h-311v54q129 101 175.5 150.5t46.5 90.5q0 33 -24.5 52t-59.5 19q-59 0 -96 -54l-55 33q61 86 156 86q67 0 109.5 -35.5t42.5 -96.5q0 -55 -37 -100t-149 -135h202v-64z" />
    <glyph glyph-name="threesuperior" unicode="&#xb3;" horiz-adv-x="388" 
d="M351 457q0 -57 -44 -93t-112 -36q-121 0 -168 94l64 24q30 -53 104 -53q39 0 61.5 19t22.5 48q0 28 -19.5 43.5t-54.5 15.5h-55v63h52q25 0 46 15t21 44q0 30 -24 45.5t-59 15.5q-65 0 -98 -48l-54 34q56 79 157 79q64 0 105.5 -31t41.5 -86q0 -62 -51 -92
q64 -24 64 -101z" />
    <glyph glyph-name="acute" unicode="&#xb4;" horiz-adv-x="320" 
d="M132 578l-35 29q56 60 89 120l83 -13q-15 -34 -54.5 -72.5t-82.5 -63.5z" />
    <glyph glyph-name="mu" unicode="&#x3bc;" 
d="M153 -174h-87v694h87v-311q0 -142 115 -142q63 0 105 43t42 120v290h87v-404q0 -29 7.5 -42.5t27.5 -13.5q19 0 27 6l10 -64q-21 -10 -54 -10q-40 0 -67 22.5t-30 63.5q-59 -90 -157 -90q-79 0 -113 55v-217z" />
    <glyph glyph-name="mu" unicode="&#xb5;" 
d="M153 -174h-87v694h87v-311q0 -142 115 -142q63 0 105 43t42 120v290h87v-404q0 -29 7.5 -42.5t27.5 -13.5q19 0 27 6l10 -64q-21 -10 -54 -10q-40 0 -67 22.5t-30 63.5q-59 -90 -157 -90q-79 0 -113 55v-217z" />
    <glyph glyph-name="paragraph" unicode="&#xb6;" horiz-adv-x="555" 
d="M476 -91h-50v701h-65v-701h-63v348h-58q-89 0 -147 56.5t-58 148.5t59 148t146 56h236v-757z" />
    <glyph glyph-name="periodcentered" unicode="&#xb7;" horiz-adv-x="257" 
d="M191 304q0 -26 -18.5 -44.5t-43.5 -18.5t-44 18.5t-19 44.5t19 45t44 19t43.5 -19t18.5 -45z" />
    <glyph glyph-name="cedilla" unicode="&#xb8;" horiz-adv-x="320" 
d="M53 -144v60q28 -28 64 -28q21 0 35 11.5t14 31.5q0 40 -54 72l26 16q42 -16 67 -43t25 -61q0 -37 -29 -60t-72 -23q-48 0 -76 24z" />
    <glyph glyph-name="onesuperior" unicode="&#xb9;" horiz-adv-x="325" 
d="M41 399h108v278q-43 -18 -108 -26l-10 54q97 18 135 54h52v-360h94v-63h-271v63z" />
    <glyph glyph-name="ordmasculine" unicode="&#xba;" horiz-adv-x="425" 
d="M383 500q0 -76 -47 -125t-124 -49t-123.5 49t-46.5 125t46 124.5t124 48.5t124.5 -48.5t46.5 -124.5zM314 500q0 50 -27 81.5t-75 31.5q-47 0 -74.5 -32t-27.5 -81t27.5 -81t74.5 -32q48 0 75 32t27 81z" />
    <glyph glyph-name="guillemotright" unicode="&#xbb;" horiz-adv-x="464" 
d="M431 275v-30l-143 -192l-52 39l122 168l-122 167l52 40zM243 275v-30l-143 -192l-52 39l121 168l-121 167l52 40z" />
    <glyph glyph-name="onequarter" unicode="&#xbc;" horiz-adv-x="950" 
d="M908 96h-64v-96h-67v96h-212v57q82 143 85 269h68q-3 -126 -80 -264h139v169h67v-169h64v-62zM743 666l-480 -666h-67l481 666h66zM65 306h108v278q-43 -18 -108 -26l-10 54q97 18 135 54h52v-360h94v-63h-271v63z" />
    <glyph glyph-name="onehalf" unicode="&#xbd;" horiz-adv-x="950" 
d="M743 666l-480 -666h-67l481 666h66zM65 306h108v278q-43 -18 -108 -26l-10 54q97 18 135 54h52v-360h94v-63h-271v63zM901 0h-312v53q129 102 175.5 151.5t46.5 90.5q0 33 -24.5 52t-58.5 19q-61 0 -97 -55l-55 34q62 85 156 85q67 0 109.5 -35t42.5 -97q0 -54 -37 -99.5
t-149 -135.5h203v-63z" />
    <glyph glyph-name="threequarters" unicode="&#xbe;" horiz-adv-x="950" 
d="M363 364q0 -57 -44 -93t-112 -36q-121 0 -168 94l64 24q30 -53 104 -53q39 0 61.5 19t22.5 48q0 28 -19.5 43.5t-54.5 15.5h-55v63h52q25 0 46 15t21 44q0 30 -24 45.5t-59 15.5q-65 0 -98 -48l-54 34q56 79 156 79q64 0 106 -31t42 -86q0 -63 -51 -92q64 -24 64 -101z
M918 96h-64v-96h-67v96h-212v57q82 143 85 269h68q-3 -126 -80 -264h139v169h67v-169h64v-62zM753 666l-480 -666h-67l481 666h66z" />
    <glyph glyph-name="questiondown" unicode="&#xbf;" horiz-adv-x="512" 
d="M55 41q0 86 58 140t151 66v70h84v-146q-17 4 -36 4q-71 0 -116 -35t-45 -96q0 -53 35.5 -86t98.5 -33q86 0 154 62l52 -63q-96 -83 -212 -83q-97 0 -160.5 54t-63.5 146zM360 418h-107v102h107v-102z" />
    <glyph glyph-name="Agrave" unicode="&#xc0;" horiz-adv-x="667" 
d="M657 0h-105l-71 185h-300l-72 -185h-98l271 666h103zM450 267l-117 308l-120 -308h237zM388 733l-34 -29q-43 25 -82.5 63.5t-54.5 72.5l83 13q32 -58 88 -120z" />
    <glyph glyph-name="Aacute" unicode="&#xc1;" horiz-adv-x="667" 
d="M657 0h-105l-71 185h-300l-72 -185h-98l271 666h103zM450 267l-117 308l-120 -308h237zM318 704l-35 29q56 60 89 120l83 -13q-15 -34 -54.5 -72.5t-82.5 -63.5z" />
    <glyph glyph-name="Acircumflex" unicode="&#xc2;" horiz-adv-x="667" 
d="M657 0h-105l-71 185h-300l-72 -185h-98l271 666h103zM450 267l-117 308l-120 -308h237zM299 851h68q55 -50 127 -101l-24 -42q-81 27 -137 79q-56 -52 -136 -79l-25 42q78 54 127 101z" />
    <glyph glyph-name="Atilde" unicode="&#xc3;" horiz-adv-x="667" 
d="M657 0h-105l-71 185h-300l-72 -185h-98l271 666h103zM450 267l-117 308l-120 -308h237zM465 828l35 -23q-14 -38 -40 -60.5t-56 -22.5q-24 0 -67.5 19t-61.5 19q-36 0 -66 -37l-35 23q14 38 40 60.5t56 22.5q23 0 67 -19t63 -19q35 0 65 37z" />
    <glyph glyph-name="Adieresis" unicode="&#xc4;" horiz-adv-x="667" 
d="M657 0h-105l-71 185h-300l-72 -185h-98l271 666h103zM450 267l-117 308l-120 -308h237zM266 723h-76v78h76v-78zM475 723h-75v78h75v-78z" />
    <glyph glyph-name="Aring" unicode="&#xc5;" horiz-adv-x="663" 
d="M389 717q0 24 -16 41.5t-40 17.5t-41 -17.5t-17 -41.5t16.5 -40.5t41.5 -16.5q24 0 40 16.5t16 40.5zM448 267l-117 308l-120 -308h237zM655 0h-105l-71 185h-300l-72 -185h-98l258 634q-46 31 -46 84q0 44 32.5 75.5t78.5 31.5t79 -31.5t33 -75.5q0 -52 -48 -84z" />
    <glyph glyph-name="AE" unicode="&#xc6;" horiz-adv-x="909" 
d="M862 0h-425v185h-242l-95 -185h-101l342 666h511v-86h-320v-188h272v-81h-272v-225h330v-86zM437 267v317h-42l-160 -317h202z" />
    <glyph glyph-name="Ccedilla" unicode="&#xc7;" horiz-adv-x="673" 
d="M257 -144v60q28 -28 64 -28q21 0 35 11.5t14 31.5q0 32 -35 59q-130 13 -208 107.5t-78 235.5q0 151 89.5 248t233.5 97q169 0 262 -134l-74 -51q-64 99 -186 99q-103 0 -165 -70.5t-62 -187.5q0 -118 62 -189.5t163 -71.5q122 0 188 103l77 -50q-84 -127 -241 -137
q38 -31 38 -74q0 -37 -29 -60t-72 -23q-48 0 -76 24z" />
    <glyph glyph-name="Egrave" unicode="&#xc8;" horiz-adv-x="620" 
d="M572 0h-482v666h472v-86h-378v-188h329v-81h-329v-225h388v-86zM383 733l-34 -29q-43 25 -82.5 63.5t-54.5 72.5l83 13q32 -58 88 -120z" />
    <glyph glyph-name="Eacute" unicode="&#xc9;" horiz-adv-x="620" 
d="M572 0h-482v666h472v-86h-378v-188h329v-81h-329v-225h388v-86zM301 704l-35 29q56 60 89 120l83 -13q-15 -34 -54.5 -72.5t-82.5 -63.5z" />
    <glyph glyph-name="Ecircumflex" unicode="&#xca;" horiz-adv-x="620" 
d="M572 0h-482v666h472v-86h-378v-188h329v-81h-329v-225h388v-86zM303 851h68q55 -50 127 -101l-24 -42q-81 27 -137 79q-56 -52 -136 -79l-25 42q78 54 127 101z" />
    <glyph glyph-name="Edieresis" unicode="&#xcb;" horiz-adv-x="620" 
d="M572 0h-482v666h472v-86h-378v-188h329v-81h-329v-225h388v-86zM265 723h-76v78h76v-78zM474 723h-75v78h75v-78z" />
    <glyph glyph-name="Igrave" unicode="&#xcc;" horiz-adv-x="273" 
d="M183 0h-93v666h93v-666zM191 733l-34 -29q-43 25 -82.5 63.5t-54.5 72.5l83 13q32 -58 88 -120z" />
    <glyph glyph-name="Iacute" unicode="&#xcd;" horiz-adv-x="273" 
d="M183 0h-93v666h93v-666zM118 704l-35 29q56 60 89 120l83 -13q-15 -34 -54.5 -72.5t-82.5 -63.5z" />
    <glyph glyph-name="Icircumflex" unicode="&#xce;" horiz-adv-x="273" 
d="M183 0h-93v666h93v-666zM102 851h68q55 -50 127 -101l-24 -42q-81 27 -137 79q-56 -52 -136 -79l-25 42q78 54 127 101z" />
    <glyph glyph-name="Idieresis" unicode="&#xcf;" horiz-adv-x="273" 
d="M183 0h-93v666h93v-666zM70 723h-76v78h76v-78zM279 723h-75v78h75v-78z" />
    <glyph glyph-name="Eth" unicode="&#xd0;" horiz-adv-x="726" 
d="M676 333q0 -150 -83.5 -241.5t-234.5 -91.5h-263v302h-109v77h109v287h263q151 0 234.5 -91.5t83.5 -241.5zM577 333q0 117 -58 182t-162 65h-168v-201h184v-77h-184v-216h168q104 0 162 65t58 182z" />
    <glyph glyph-name="Ntilde" unicode="&#xd1;" horiz-adv-x="729" 
d="M639 0h-110l-349 549v-549h-90v666h120l339 -536v536h90v-666zM505 828l35 -23q-14 -38 -40 -60.5t-56 -22.5q-24 0 -67.5 19t-61.5 19q-36 0 -66 -37l-35 23q14 38 40 60.5t56 22.5q23 0 67 -19t63 -19q35 0 65 37z" />
    <glyph glyph-name="Ograve" unicode="&#xd2;" horiz-adv-x="745" 
d="M698 333q0 -150 -89.5 -247.5t-236.5 -97.5t-236 97.5t-89 247.5t89 247.5t236 97.5t236.5 -97.5t89.5 -247.5zM599 333q0 115 -61.5 186t-165.5 71q-105 0 -166 -71t-61 -186t61 -186.5t166 -71.5q104 0 165.5 71.5t61.5 186.5zM434 733l-34 -29q-43 25 -82.5 63.5
t-54.5 72.5l83 13q32 -58 88 -120z" />
    <glyph glyph-name="Oacute" unicode="&#xd3;" horiz-adv-x="745" 
d="M698 333q0 -150 -89.5 -247.5t-236.5 -97.5t-236 97.5t-89 247.5t89 247.5t236 97.5t236.5 -97.5t89.5 -247.5zM599 333q0 115 -61.5 186t-165.5 71q-105 0 -166 -71t-61 -186t61 -186.5t166 -71.5q104 0 165.5 71.5t61.5 186.5zM340 704l-35 29q56 60 89 120l83 -13
q-15 -34 -54.5 -72.5t-82.5 -63.5z" />
    <glyph glyph-name="Ocircumflex" unicode="&#xd4;" horiz-adv-x="745" 
d="M698 333q0 -150 -89.5 -247.5t-236.5 -97.5t-236 97.5t-89 247.5t89 247.5t236 97.5t236.5 -97.5t89.5 -247.5zM599 333q0 115 -61.5 186t-165.5 71q-105 0 -166 -71t-61 -186t61 -186.5t166 -71.5q104 0 165.5 71.5t61.5 186.5zM338 851h68q55 -50 127 -101l-24 -42
q-81 27 -137 79q-56 -52 -136 -79l-25 42q78 54 127 101z" />
    <glyph glyph-name="Otilde" unicode="&#xd5;" horiz-adv-x="745" 
d="M698 333q0 -150 -89.5 -247.5t-236.5 -97.5t-236 97.5t-89 247.5t89 247.5t236 97.5t236.5 -97.5t89.5 -247.5zM599 333q0 115 -61.5 186t-165.5 71q-105 0 -166 -71t-61 -186t61 -186.5t166 -71.5q104 0 165.5 71.5t61.5 186.5zM500 828l35 -23q-14 -38 -40 -60.5
t-56 -22.5q-24 0 -67.5 19t-61.5 19q-36 0 -66 -37l-35 23q14 38 40 60.5t56 22.5q23 0 67 -19t63 -19q35 0 65 37z" />
    <glyph glyph-name="Odieresis" unicode="&#xd6;" horiz-adv-x="745" 
d="M698 333q0 -150 -89.5 -247.5t-236.5 -97.5t-236 97.5t-89 247.5t89 247.5t236 97.5t236.5 -97.5t89.5 -247.5zM599 333q0 115 -61.5 186t-165.5 71q-105 0 -166 -71t-61 -186t61 -186.5t166 -71.5q104 0 165.5 71.5t61.5 186.5zM305 723h-76v78h76v-78zM514 723h-75v78
h75v-78z" />
    <glyph glyph-name="multiply" unicode="&#xd7;" 
d="M519 129l-54 -55l-175 176l-176 -176l-54 55l176 175l-176 175l54 55l176 -176l175 176l54 -55l-175 -175z" />
    <glyph glyph-name="Oslash" unicode="&#xd8;" horiz-adv-x="745" 
d="M166 -11l-47 32l34 47q-106 97 -106 265q0 150 89 247.5t236 97.5q97 0 174 -47l32 46l47 -33l-34 -47q107 -98 107 -264q0 -150 -89.5 -247.5t-236.5 -97.5q-101 0 -174 47zM599 333q0 114 -62 186l-287 -410q51 -34 122 -34q104 0 165.5 71.5t61.5 186.5zM145 333
q0 -117 62 -187l287 411q-53 33 -122 33q-105 0 -166 -71t-61 -186z" />
    <glyph glyph-name="Ugrave" unicode="&#xd9;" horiz-adv-x="710" 
d="M628 666v-416q0 -119 -76.5 -190.5t-197.5 -71.5t-196.5 71.5t-75.5 190.5v416h93v-416q0 -80 48 -127.5t131 -47.5t132 47.5t49 127.5v416h93zM412 733l-34 -29q-43 25 -82.5 63.5t-54.5 72.5l83 13q32 -58 88 -120z" />
    <glyph glyph-name="Uacute" unicode="&#xda;" horiz-adv-x="710" 
d="M628 666v-416q0 -119 -76.5 -190.5t-197.5 -71.5t-196.5 71.5t-75.5 190.5v416h93v-416q0 -80 48 -127.5t131 -47.5t132 47.5t49 127.5v416h93zM343 704l-35 29q56 60 89 120l83 -13q-15 -34 -54.5 -72.5t-82.5 -63.5z" />
    <glyph glyph-name="Ucircumflex" unicode="&#xdb;" horiz-adv-x="710" 
d="M628 666v-416q0 -119 -76.5 -190.5t-197.5 -71.5t-196.5 71.5t-75.5 190.5v416h93v-416q0 -80 48 -127.5t131 -47.5t132 47.5t49 127.5v416h93zM321 851h68q55 -50 127 -101l-24 -42q-81 27 -137 79q-56 -52 -136 -79l-25 42q78 54 127 101z" />
    <glyph glyph-name="Udieresis" unicode="&#xdc;" horiz-adv-x="710" 
d="M628 666v-416q0 -119 -76.5 -190.5t-197.5 -71.5t-196.5 71.5t-75.5 190.5v416h93v-416q0 -80 48 -127.5t131 -47.5t132 47.5t49 127.5v416h93zM288 723h-76v78h76v-78zM497 723h-75v78h75v-78z" />
    <glyph glyph-name="Yacute" unicode="&#xdd;" horiz-adv-x="614" 
d="M610 666l-256 -394v-272h-94v271l-254 395h110l193 -310l195 310h106zM287 704l-35 29q56 60 89 120l83 -13q-15 -34 -54.5 -72.5t-82.5 -63.5z" />
    <glyph glyph-name="Thorn" unicode="&#xde;" horiz-adv-x="634" 
d="M183 153v-153h-93v666h93v-100h186q111 0 173 -56.5t62 -151.5t-60 -150t-175 -55h-186zM507 359q-1 57 -35.5 89t-102.5 32h-186v-241h186q69 0 104 32t34 88z" />
    <glyph glyph-name="germandbls" unicode="&#xdf;" horiz-adv-x="618" 
d="M575 202q0 -100 -63 -157t-171 -57q-65 0 -111 20l20 78q33 -20 86 -20q70 0 109 38.5t39 103.5q0 69 -43 102.5t-118 33.5h-59v76h41q58 0 95 29.5t37 85.5q0 58 -38.5 86t-98.5 28q-58 0 -97.5 -31t-39.5 -86v-532h-85v533q0 88 63 140t163 52q96 0 159.5 -48
t63.5 -130q0 -51 -22.5 -88t-76.5 -66q147 -47 147 -191z" />
    <glyph glyph-name="agrave" unicode="&#xe0;" horiz-adv-x="567" 
d="M544 68l11 -66q-24 -10 -60 -10q-40 0 -67.5 20.5t-33.5 62.5q-61 -87 -179 -87q-81 0 -129 42t-48 116q0 35 12 62t29.5 42.5t43.5 27t47 16t48 8.5q10 1 33.5 4t34.5 4.5t29.5 5.5t28 8.5t20 12t15 18t4.5 24.5q0 40 -35 58t-83 18q-89 0 -162 -55l-40 66q96 66 208 66
q93 0 147 -42t54 -128v-246q0 -56 41 -56q20 0 31 8zM385 200v90q-10 -13 -21.5 -21.5t-29 -13.5t-28 -7.5t-35.5 -6t-36 -5.5q-54 -9 -81 -26.5t-27 -61.5t30 -66t78 -22q63 0 106.5 35t43.5 105zM326 607l-34 -29q-43 25 -82.5 63.5t-54.5 72.5l83 13q32 -58 88 -120z" />
    <glyph glyph-name="aacute" unicode="&#xe1;" horiz-adv-x="567" 
d="M544 68l11 -66q-24 -10 -60 -10q-40 0 -67.5 20.5t-33.5 62.5q-61 -87 -179 -87q-81 0 -129 42t-48 116q0 35 12 62t29.5 42.5t43.5 27t47 16t48 8.5q10 1 33.5 4t34.5 4.5t29.5 5.5t28 8.5t20 12t15 18t4.5 24.5q0 40 -35 58t-83 18q-89 0 -162 -55l-40 66q96 66 208 66
q93 0 147 -42t54 -128v-246q0 -56 41 -56q20 0 31 8zM385 200v90q-10 -13 -21.5 -21.5t-29 -13.5t-28 -7.5t-35.5 -6t-36 -5.5q-54 -9 -81 -26.5t-27 -61.5t30 -66t78 -22q63 0 106.5 35t43.5 105zM255 578l-35 29q56 60 89 120l83 -13q-15 -34 -54.5 -72.5t-82.5 -63.5z
" />
    <glyph glyph-name="acircumflex" unicode="&#xe2;" horiz-adv-x="567" 
d="M544 68l11 -66q-24 -10 -60 -10q-40 0 -67.5 20.5t-33.5 62.5q-61 -87 -179 -87q-81 0 -129 42t-48 116q0 35 12 62t29.5 42.5t43.5 27t47 16t48 8.5q10 1 33.5 4t34.5 4.5t29.5 5.5t28 8.5t20 12t15 18t4.5 24.5q0 40 -35 58t-83 18q-89 0 -162 -55l-40 66q96 66 208 66
q93 0 147 -42t54 -128v-246q0 -56 41 -56q20 0 31 8zM385 200v90q-10 -13 -21.5 -21.5t-29 -13.5t-28 -7.5t-35.5 -6t-36 -5.5q-54 -9 -81 -26.5t-27 -61.5t30 -66t78 -22q63 0 106.5 35t43.5 105zM229 725h68q55 -50 127 -101l-24 -42q-81 27 -137 79q-56 -52 -136 -79
l-25 42q78 54 127 101z" />
    <glyph glyph-name="atilde" unicode="&#xe3;" horiz-adv-x="567" 
d="M544 68l11 -66q-24 -10 -60 -10q-40 0 -67.5 20.5t-33.5 62.5q-61 -87 -179 -87q-81 0 -129 42t-48 116q0 35 12 62t29.5 42.5t43.5 27t47 16t48 8.5q10 1 33.5 4t34.5 4.5t29.5 5.5t28 8.5t20 12t15 18t4.5 24.5q0 40 -35 58t-83 18q-89 0 -162 -55l-40 66q96 66 208 66
q93 0 147 -42t54 -128v-246q0 -56 41 -56q20 0 31 8zM385 200v90q-10 -13 -21.5 -21.5t-29 -13.5t-28 -7.5t-35.5 -6t-36 -5.5q-54 -9 -81 -26.5t-27 -61.5t30 -66t78 -22q63 0 106.5 35t43.5 105zM395 702l35 -23q-14 -38 -40 -60.5t-56 -22.5q-24 0 -67.5 19t-61.5 19
q-36 0 -66 -37l-35 23q14 38 40 60.5t56 22.5q23 0 67 -19t63 -19q35 0 65 37z" />
    <glyph glyph-name="adieresis" unicode="&#xe4;" horiz-adv-x="567" 
d="M544 68l11 -66q-24 -10 -60 -10q-40 0 -67.5 20.5t-33.5 62.5q-61 -87 -179 -87q-81 0 -129 42t-48 116q0 35 12 62t29.5 42.5t43.5 27t47 16t48 8.5q10 1 33.5 4t34.5 4.5t29.5 5.5t28 8.5t20 12t15 18t4.5 24.5q0 40 -35 58t-83 18q-89 0 -162 -55l-40 66q96 66 208 66
q93 0 147 -42t54 -128v-246q0 -56 41 -56q20 0 31 8zM385 200v90q-10 -13 -21.5 -21.5t-29 -13.5t-28 -7.5t-35.5 -6t-36 -5.5q-54 -9 -81 -26.5t-27 -61.5t30 -66t78 -22q63 0 106.5 35t43.5 105zM201 597h-76v78h76v-78zM410 597h-75v78h75v-78z" />
    <glyph glyph-name="aring" unicode="&#xe5;" horiz-adv-x="567" 
d="M544 68l11 -66q-24 -10 -60 -10q-40 0 -67.5 20.5t-33.5 62.5q-61 -87 -179 -87q-81 0 -129 42t-48 116q0 35 12 62t29.5 42.5t43.5 27t47 16t48 8.5q10 1 33.5 4t34.5 4.5t29.5 5.5t28 8.5t20 12t15 18t4.5 24.5q0 40 -35 58t-83 18q-89 0 -162 -55l-40 66q96 66 208 66
q93 0 147 -42t54 -128v-246q0 -56 41 -56q20 0 31 8zM385 200v90q-10 -13 -21.5 -21.5t-29 -13.5t-28 -7.5t-35.5 -6t-36 -5.5q-54 -9 -81 -26.5t-27 -61.5t30 -66t78 -22q63 0 106.5 35t43.5 105zM373 679q0 -42 -30.5 -72t-75.5 -30t-75.5 30t-30.5 72t30.5 72.5
t75.5 30.5t75.5 -30.5t30.5 -72.5zM323 679q0 23 -16.5 40t-39.5 17t-40 -17t-17 -40q0 -24 17 -40.5t40 -16.5t39.5 16.5t16.5 40.5z" />
    <glyph glyph-name="ae" unicode="&#xe6;" horiz-adv-x="917" 
d="M385 200v90q-10 -13 -21.5 -21.5t-29 -13.5t-28 -7.5t-35.5 -6t-36 -5.5q-54 -9 -81 -26.5t-27 -61.5t30 -66t78 -22q63 0 106.5 35t43.5 105zM797 136l59 -57q-86 -91 -214 -91q-144 0 -212 107q-62 -107 -199 -107q-88 0 -140.5 41.5t-52.5 117.5q0 42 16.5 72.5
t46.5 46.5t56.5 23.5t60.5 12.5q10 1 27.5 3t27.5 3.5t25 4t23.5 5t20 6.5t17.5 9t12.5 11.5t9 15t2.5 19.5q0 40 -34.5 58t-82.5 18q-90 0 -163 -55l-40 66q93 66 204 66q134 0 180 -89q71 89 184 89q112 0 179.5 -74t67.5 -185q0 -20 -2 -34h-408q4 -80 51 -125.5
t124 -45.5q92 0 154 68zM470 306h319q-7 72 -51 111.5t-109 39.5q-67 0 -110.5 -42t-48.5 -109z" />
    <glyph glyph-name="ccedilla" unicode="&#xe7;" horiz-adv-x="540" 
d="M187 -144v60q28 -28 64 -28q21 0 35 11.5t14 31.5q0 32 -35 59q-100 11 -160 86t-60 184q0 118 69 195t183 77q132 0 207 -108l-65 -52q-50 81 -139 81q-74 0 -118.5 -54.5t-44.5 -138.5t44.5 -138.5t117.5 -54.5q89 0 141 78l67 -48q-67 -96 -182 -107q39 -32 39 -75
q0 -37 -29 -60t-72 -23q-48 0 -76 24z" />
    <glyph glyph-name="egrave" unicode="&#xe8;" horiz-adv-x="586" 
d="M547 273q0 -20 -2 -34h-408q4 -80 51 -125.5t124 -45.5q91 0 154 68l58 -57q-85 -91 -214 -91q-124 0 -195 75.5t-71 194.5q0 118 69.5 196t185.5 78q112 0 180 -74t68 -185zM139 306h318q-7 72 -51 111.5t-108 39.5q-67 0 -110.5 -42t-48.5 -109zM352 607l-34 -29
q-43 25 -82.5 63.5t-54.5 72.5l83 13q32 -58 88 -120z" />
    <glyph glyph-name="eacute" unicode="&#xe9;" horiz-adv-x="586" 
d="M547 273q0 -20 -2 -34h-408q4 -80 51 -125.5t124 -45.5q91 0 154 68l58 -57q-85 -91 -214 -91q-124 0 -195 75.5t-71 194.5q0 118 69.5 196t185.5 78q112 0 180 -74t68 -185zM139 306h318q-7 72 -51 111.5t-108 39.5q-67 0 -110.5 -42t-48.5 -109zM280 578l-35 29
q56 60 89 120l83 -13q-15 -34 -54.5 -72.5t-82.5 -63.5z" />
    <glyph glyph-name="ecircumflex" unicode="&#xea;" horiz-adv-x="586" 
d="M547 273q0 -20 -2 -34h-408q4 -80 51 -125.5t124 -45.5q91 0 154 68l58 -57q-85 -91 -214 -91q-124 0 -195 75.5t-71 194.5q0 118 69.5 196t185.5 78q112 0 180 -74t68 -185zM139 306h318q-7 72 -51 111.5t-108 39.5q-67 0 -110.5 -42t-48.5 -109zM261 725h68
q55 -50 127 -101l-24 -42q-81 27 -137 79q-56 -52 -136 -79l-25 42q78 54 127 101z" />
    <glyph glyph-name="edieresis" unicode="&#xeb;" horiz-adv-x="586" 
d="M547 273q0 -20 -2 -34h-408q4 -80 51 -125.5t124 -45.5q91 0 154 68l58 -57q-85 -91 -214 -91q-124 0 -195 75.5t-71 194.5q0 118 69.5 196t185.5 78q112 0 180 -74t68 -185zM139 306h318q-7 72 -51 111.5t-108 39.5q-67 0 -110.5 -42t-48.5 -109zM230 597h-76v78h76v-78
zM439 597h-75v78h75v-78z" />
    <glyph glyph-name="igrave" unicode="&#xec;" horiz-adv-x="243" 
d="M165 0h-87v520h87v-520zM173 607l-34 -29q-43 25 -82.5 63.5t-54.5 72.5l83 13q32 -58 88 -120z" />
    <glyph glyph-name="iacute" unicode="&#xed;" horiz-adv-x="243" 
d="M105 578l-35 29q56 60 89 120l83 -13q-15 -34 -54.5 -72.5t-82.5 -63.5zM165 0h-87v520h87v-520z" />
    <glyph glyph-name="icircumflex" unicode="&#xee;" horiz-adv-x="243" 
d="M165 0h-87v520h87v-520zM87 725h68q55 -50 127 -101l-24 -42q-81 27 -137 79q-56 -52 -136 -79l-25 42q78 54 127 101z" />
    <glyph glyph-name="idieresis" unicode="&#xef;" horiz-adv-x="243" 
d="M73 597h-76v78h76v-78zM246 597h-76v78h76v-78zM165 0h-87v520h87v-520z" />
    <glyph glyph-name="eth" unicode="&#xf0;" horiz-adv-x="616" 
d="M282 494q99 0 158 -62q-35 76 -113 149l-126 -60l-18 42l102 49q-40 31 -86 54l59 59q72 -42 111 -76l120 56l19 -41l-101 -48q153 -151 153 -344q0 -135 -70 -209q-73 -75 -188 -75t-185.5 71.5t-70.5 181.5q0 111 66 182t170 71zM472 241q0 76 -45.5 125.5t-125.5 49.5
q-78 0 -120.5 -50t-42.5 -125t42.5 -124.5t121.5 -49.5q81 0 125.5 49.5t44.5 124.5z" />
    <glyph glyph-name="ntilde" unicode="&#xf1;" horiz-adv-x="597" 
d="M165 0h-87v520h87v-86q67 98 178 98q84 0 133 -52t49 -145v-335h-87v315q0 135 -116 135q-68 0 -112.5 -45t-44.5 -117v-288zM445 702l35 -23q-14 -38 -40 -60.5t-56 -22.5q-24 0 -67.5 19t-61.5 19q-36 0 -66 -37l-35 23q14 38 40 60.5t56 22.5q23 0 67 -19t63 -19
q35 0 65 37z" />
    <glyph glyph-name="ograve" unicode="&#xf2;" horiz-adv-x="600" 
d="M364 607l-34 -29q-43 25 -82.5 63.5t-54.5 72.5l83 13q32 -58 88 -120zM556 259q0 -119 -70 -195t-186 -76q-117 0 -186.5 76t-69.5 195q0 120 69.5 196.5t186.5 76.5q116 0 186 -76.5t70 -196.5zM463 259q0 85 -43.5 139.5t-119.5 54.5t-120 -54.5t-44 -139.5
q0 -84 44 -138.5t120 -54.5t119.5 54.5t43.5 138.5z" />
    <glyph glyph-name="oacute" unicode="&#xf3;" horiz-adv-x="600" 
d="M259 578l-35 29q56 60 89 120l83 -13q-15 -34 -54.5 -72.5t-82.5 -63.5zM556 259q0 -119 -70 -195t-186 -76q-117 0 -186.5 76t-69.5 195q0 120 69.5 196.5t186.5 76.5q116 0 186 -76.5t70 -196.5zM463 259q0 85 -43.5 139.5t-119.5 54.5t-120 -54.5t-44 -139.5
q0 -84 44 -138.5t120 -54.5t119.5 54.5t43.5 138.5z" />
    <glyph glyph-name="ocircumflex" unicode="&#xf4;" horiz-adv-x="600" 
d="M266 725h68q55 -50 127 -101l-24 -42q-81 27 -137 79q-56 -52 -136 -79l-25 42q78 54 127 101zM556 259q0 -119 -70 -195t-186 -76q-117 0 -186.5 76t-69.5 195q0 120 69.5 196.5t186.5 76.5q116 0 186 -76.5t70 -196.5zM463 259q0 85 -43.5 139.5t-119.5 54.5
t-120 -54.5t-44 -139.5q0 -84 44 -138.5t120 -54.5t119.5 54.5t43.5 138.5z" />
    <glyph glyph-name="otilde" unicode="&#xf5;" horiz-adv-x="600" 
d="M556 259q0 -119 -70 -195t-186 -76q-117 0 -186.5 76t-69.5 195q0 120 69.5 196.5t186.5 76.5q116 0 186 -76.5t70 -196.5zM463 259q0 85 -43.5 139.5t-119.5 54.5t-120 -54.5t-44 -139.5q0 -84 44 -138.5t120 -54.5t119.5 54.5t43.5 138.5zM428 702l35 -23
q-14 -38 -40 -60.5t-56 -22.5q-24 0 -67.5 19t-61.5 19q-36 0 -66 -37l-35 23q14 38 40 60.5t56 22.5q23 0 67 -19t63 -19q35 0 65 37z" />
    <glyph glyph-name="odieresis" unicode="&#xf6;" horiz-adv-x="600" 
d="M556 259q0 -119 -70 -195t-186 -76q-117 0 -186.5 76t-69.5 195q0 120 69.5 196.5t186.5 76.5q116 0 186 -76.5t70 -196.5zM463 259q0 85 -43.5 139.5t-119.5 54.5t-120 -54.5t-44 -139.5q0 -84 44 -138.5t120 -54.5t119.5 54.5t43.5 138.5zM234 597h-76v78h76v-78z
M443 597h-75v78h75v-78z" />
    <glyph glyph-name="divide" unicode="&#xf7;" 
d="M352 491q0 -26 -18 -44.5t-44 -18.5t-44 18.5t-18 44.5q0 25 18 43.5t44 18.5q25 0 43.5 -18.5t18.5 -43.5zM528 266h-476v76h476v-76zM352 117q0 -25 -18.5 -43.5t-43.5 -18.5q-26 0 -44 18.5t-18 43.5t18 44t44 19q25 0 43.5 -19t18.5 -44z" />
    <glyph glyph-name="oslash" unicode="&#xf8;" horiz-adv-x="600" 
d="M144 -11l-45 31l24 34q-79 76 -79 205q0 120 69.5 196.5t186.5 76.5q73 0 133 -35l23 33l45 -31l-24 -34q79 -76 79 -206q0 -119 -70 -195t-186 -76q-75 0 -134 34zM136 259q0 -80 38 -130l211 300q-36 25 -85 25q-77 0 -120.5 -55t-43.5 -140zM463 259q0 81 -38 131
l-211 -300q36 -25 86 -25q76 0 119.5 55t43.5 139z" />
    <glyph glyph-name="ugrave" unicode="&#xf9;" horiz-adv-x="597" 
d="M432 520h87v-520h-87v85q-69 -97 -178 -97q-84 0 -133 52t-49 144v336h87v-316q0 -135 115 -135q68 0 113 45t45 117v289zM341 607l-34 -29q-43 25 -82.5 63.5t-54.5 72.5l83 13q32 -58 88 -120z" />
    <glyph glyph-name="uacute" unicode="&#xfa;" horiz-adv-x="597" 
d="M432 520h87v-520h-87v85q-69 -97 -178 -97q-84 0 -133 52t-49 144v336h87v-316q0 -135 115 -135q68 0 113 45t45 117v289zM293 578l-35 29q56 60 89 120l83 -13q-15 -34 -54.5 -72.5t-82.5 -63.5z" />
    <glyph glyph-name="ucircumflex" unicode="&#xfb;" horiz-adv-x="597" 
d="M432 520h87v-520h-87v85q-69 -97 -178 -97q-84 0 -133 52t-49 144v336h87v-316q0 -135 115 -135q68 0 113 45t45 117v289zM261 725h68q55 -50 127 -101l-24 -42q-81 27 -137 79q-56 -52 -136 -79l-25 42q78 54 127 101z" />
    <glyph glyph-name="udieresis" unicode="&#xfc;" horiz-adv-x="597" 
d="M432 520h87v-520h-87v85q-69 -97 -178 -97q-84 0 -133 52t-49 144v336h87v-316q0 -135 115 -135q68 0 113 45t45 117v289zM228 597h-76v78h76v-78zM437 597h-75v78h75v-78z" />
    <glyph glyph-name="yacute" unicode="&#xfd;" horiz-adv-x="535" 
d="M520 520l-208 -544q-32 -84 -71 -122t-108 -38q-62 0 -106 32l38 64q30 -20 62 -20q33 0 54 20.5t38 58.5l14 31l-220 518h100l166 -404l147 404h94zM261 578l-35 29q56 60 89 120l83 -13q-15 -34 -54.5 -72.5t-82.5 -63.5z" />
    <glyph glyph-name="thorn" unicode="&#xfe;" horiz-adv-x="633" 
d="M78 714h87v-280q68 98 184 98q109 0 174.5 -77t65.5 -195t-65.5 -195t-174.5 -77q-116 0 -184 97v-259h-87v888zM165 259q0 -83 44.5 -137t124.5 -54q78 0 120 53.5t42 137.5t-42 138t-120 54q-81 0 -125 -54.5t-44 -137.5z" />
    <glyph glyph-name="ydieresis" unicode="&#xff;" horiz-adv-x="535" 
d="M520 520l-208 -544q-32 -84 -71 -122t-108 -38q-62 0 -106 32l38 64q30 -20 62 -20q33 0 54 20.5t38 58.5l14 31l-220 518h100l166 -404l147 404h94zM205 597h-76v78h76v-78zM414 597h-75v78h75v-78z" />
    <glyph glyph-name="Amacron" unicode="&#x100;" horiz-adv-x="667" 
d="M657 0h-105l-71 185h-300l-72 -185h-98l271 666h103zM450 267l-117 308l-120 -308h237zM483 734h-300v58h300v-58z" />
    <glyph glyph-name="amacron" unicode="&#x101;" horiz-adv-x="567" 
d="M544 68l11 -66q-24 -10 -60 -10q-40 0 -67.5 20.5t-33.5 62.5q-61 -87 -179 -87q-81 0 -129 42t-48 116q0 35 12 62t29.5 42.5t43.5 27t47 16t48 8.5q10 1 33.5 4t34.5 4.5t29.5 5.5t28 8.5t20 12t15 18t4.5 24.5q0 40 -35 58t-83 18q-89 0 -162 -55l-40 66q96 66 208 66
q93 0 147 -42t54 -128v-246q0 -56 41 -56q20 0 31 8zM385 200v90q-10 -13 -21.5 -21.5t-29 -13.5t-28 -7.5t-35.5 -6t-36 -5.5q-54 -9 -81 -26.5t-27 -61.5t30 -66t78 -22q63 0 106.5 35t43.5 105zM418 608h-300v58h300v-58z" />
    <glyph glyph-name="Abreve" unicode="&#x102;" horiz-adv-x="667" 
d="M657 0h-105l-71 185h-300l-72 -185h-98l271 666h103zM450 267l-117 308l-120 -308h237zM333 717q-65 0 -106.5 33t-50.5 84l51 15q9 -30 36.5 -49t69.5 -19t69.5 19t36.5 49l50 -15q-8 -51 -50 -84t-106 -33z" />
    <glyph glyph-name="abreve" unicode="&#x103;" horiz-adv-x="567" 
d="M544 68l11 -66q-24 -10 -60 -10q-40 0 -67.5 20.5t-33.5 62.5q-61 -87 -179 -87q-81 0 -129 42t-48 116q0 35 12 62t29.5 42.5t43.5 27t47 16t48 8.5q10 1 33.5 4t34.5 4.5t29.5 5.5t28 8.5t20 12t15 18t4.5 24.5q0 40 -35 58t-83 18q-89 0 -162 -55l-40 66q96 66 208 66
q93 0 147 -42t54 -128v-246q0 -56 41 -56q20 0 31 8zM385 200v90q-10 -13 -21.5 -21.5t-29 -13.5t-28 -7.5t-35.5 -6t-36 -5.5q-54 -9 -81 -26.5t-27 -61.5t30 -66t78 -22q63 0 106.5 35t43.5 105zM267 591q-65 0 -106.5 33t-50.5 84l51 15q9 -30 36.5 -49t69.5 -19t69.5 19
t36.5 49l50 -15q-8 -51 -50 -84t-106 -33z" />
    <glyph glyph-name="Aogonek" unicode="&#x104;" horiz-adv-x="667" 
d="M385 666l272 -666q-113 -13 -113 -70q0 -19 13.5 -31.5t36.5 -12.5q36 0 66 34v-67q-27 -29 -80 -29q-43 0 -72 22.5t-29 60.5q0 58 71 98l-69 180h-300l-72 -185h-98l271 666h103zM450 267l-117 308l-120 -308h237z" />
    <glyph glyph-name="aogonek" unicode="&#x105;" horiz-adv-x="566" 
d="M555 2q-24 -10 -59 -10q-14 0 -28 3q-28 -33 -28 -63q0 -22 13.5 -34t36.5 -12q36 0 66 34v-67q-27 -29 -80 -29q-43 0 -72 22.5t-29 62.5q0 57 58 100q-33 22 -39 66q-61 -87 -179 -87q-81 0 -129 42t-48 116q0 35 12 62t29.5 42.5t43.5 27t47 16t48 8.5q10 1 33.5 4
t34.5 4.5t29.5 5.5t28 8.5t20 12t15 18t4.5 24.5q0 40 -35 58t-83 18q-89 0 -162 -55l-40 66q96 66 208 66q93 0 147 -42t54 -128v-246q0 -56 41 -56q20 0 31 8zM385 200v90q-10 -13 -21.5 -21.5t-29 -13.5t-28 -7.5t-35.5 -6t-36 -5.5q-54 -9 -81 -26.5t-27 -61.5t30 -66
t78 -22q63 0 106.5 35t43.5 105z" />
    <glyph glyph-name="Cacute" unicode="&#x106;" horiz-adv-x="670" 
d="M633 544l-74 -51q-64 99 -186 99q-103 0 -165 -70.5t-62 -187.5q0 -118 62 -189.5t163 -71.5q122 0 188 103l77 -50q-91 -138 -264 -138q-145 0 -234.5 97t-89.5 248t89.5 248t233.5 97q169 0 262 -134zM344 704l-35 29q56 60 89 120l83 -13q-15 -34 -54.5 -72.5
t-82.5 -63.5z" />
    <glyph glyph-name="cacute" unicode="&#x107;" horiz-adv-x="536" 
d="M439 145l67 -48q-76 -109 -210 -109q-114 0 -183 77t-69 195t69 195t183 77q132 0 207 -108l-65 -52q-50 81 -139 81q-74 0 -118.5 -54.5t-44.5 -138.5t44.5 -138.5t117.5 -54.5q89 0 141 78zM283 578l-34 27q46 58 74 122l83 -13q-16 -35 -49.5 -72t-73.5 -64z" />
    <glyph glyph-name="Ccircumflex" unicode="&#x108;" horiz-adv-x="670" 
d="M633 544l-74 -51q-64 99 -186 99q-103 0 -165 -70.5t-62 -187.5q0 -118 62 -189.5t163 -71.5q122 0 188 103l77 -50q-91 -138 -264 -138q-145 0 -234.5 97t-89.5 248t89.5 248t233.5 97q169 0 262 -134zM333 851h68q55 -50 127 -101l-24 -42q-81 27 -137 79
q-56 -52 -136 -79l-25 42q78 54 127 101z" />
    <glyph glyph-name="ccircumflex" unicode="&#x109;" horiz-adv-x="536" 
d="M439 145l67 -48q-76 -109 -210 -109q-114 0 -183 77t-69 195t69 195t183 77q132 0 207 -108l-65 -52q-50 81 -139 81q-74 0 -118.5 -54.5t-44.5 -138.5t44.5 -138.5t117.5 -54.5q89 0 141 78zM258 725h68q55 -50 127 -101l-24 -42q-81 27 -137 79q-56 -52 -136 -79
l-25 42q78 54 127 101z" />
    <glyph glyph-name="Cdotaccent" unicode="&#x10a;" horiz-adv-x="670" 
d="M633 544l-74 -51q-64 99 -186 99q-103 0 -165 -70.5t-62 -187.5q0 -118 62 -189.5t163 -71.5q122 0 188 103l77 -50q-91 -138 -264 -138q-145 0 -234.5 97t-89.5 248t89.5 248t233.5 97q169 0 262 -134zM403 724h-78v77h78v-77z" />
    <glyph glyph-name="cdotaccent" unicode="&#x10b;" horiz-adv-x="536" 
d="M439 145l67 -48q-76 -109 -210 -109q-114 0 -183 77t-69 195t69 195t183 77q132 0 207 -108l-65 -52q-50 81 -139 81q-74 0 -118.5 -54.5t-44.5 -138.5t44.5 -138.5t117.5 -54.5q89 0 141 78zM328 598h-78v77h78v-77z" />
    <glyph glyph-name="Ccaron" unicode="&#x10c;" horiz-adv-x="670" 
d="M633 544l-74 -51q-64 99 -186 99q-103 0 -165 -70.5t-62 -187.5q0 -118 62 -189.5t163 -71.5q122 0 188 103l77 -50q-91 -138 -264 -138q-145 0 -234.5 97t-89.5 248t89.5 248t233.5 97q169 0 262 -134zM401 710h-68q-55 52 -127 101l25 42q79 -26 136 -78q57 52 137 78
l24 -42q-66 -45 -127 -101z" />
    <glyph glyph-name="ccaron" unicode="&#x10d;" horiz-adv-x="536" 
d="M439 145l67 -48q-76 -109 -210 -109q-114 0 -183 77t-69 195t69 195t183 77q132 0 207 -108l-65 -52q-50 81 -139 81q-74 0 -118.5 -54.5t-44.5 -138.5t44.5 -138.5t117.5 -54.5q89 0 141 78zM328 584h-68q-55 52 -127 101l25 42q79 -26 136 -78q57 52 137 78l24 -42
q-66 -45 -127 -101z" />
    <glyph glyph-name="Dcaron" unicode="&#x10e;" horiz-adv-x="720" 
d="M185 86h163q108 0 166.5 66.5t58.5 180.5t-58.5 180.5t-166.5 66.5h-163v-494zM348 0h-258v666h258q151 0 237 -93t86 -240t-86 -240t-237 -93zM388 710h-68q-55 52 -127 101l25 42q79 -26 136 -78q57 52 137 78l24 -42q-66 -45 -127 -101z" />
    <glyph glyph-name="dcaron" unicode="&#x10f;" horiz-adv-x="670" 
d="M556 0h-87v85q-68 -97 -185 -97q-109 0 -174 77t-65 194q0 119 65 196t174 77q116 0 185 -98v280h87v-714zM469 260q0 83 -44.5 137t-124.5 54q-79 0 -121 -53.5t-42 -137.5t42 -138t121 -54q80 0 124.5 54.5t44.5 137.5zM735 714v-74q0 -90 -78 -160l-32 33q43 45 43 96
q0 17 -11 43t-11 45v17h89z" />
    <glyph glyph-name="Dcroat" unicode="&#x110;" horiz-adv-x="742" 
d="M370 0h-258v304h-109v76h109v286h258q151 0 237 -93t86 -240q0 -146 -86 -239.5t-237 -93.5zM206 86h164q107 0 165.5 67t58.5 180q0 115 -58 181t-166 66h-164v-200h184v-76h-184v-218z" />
    <glyph glyph-name="dcroat" unicode="&#x111;" horiz-adv-x="634" 
d="M556 0h-87v85q-68 -97 -184 -97q-109 0 -174.5 76.5t-65.5 194.5q0 119 65 196t175 77q115 0 184 -98v178h-139v54h139v48h87v-48h75v-54h-75v-612zM469 260q0 84 -44.5 137.5t-125.5 53.5q-78 0 -120 -53.5t-42 -137.5t42 -138t120 -54q81 0 125.5 54.5t44.5 137.5z" />
    <glyph glyph-name="Emacron" unicode="&#x112;" horiz-adv-x="620" 
d="M572 0h-482v666h472v-86h-378v-188h329v-81h-329v-225h388v-86zM482 734h-300v58h300v-58z" />
    <glyph glyph-name="emacron" unicode="&#x113;" horiz-adv-x="586" 
d="M547 273q0 -20 -2 -34h-408q4 -80 51 -125.5t124 -45.5q91 0 154 68l58 -57q-85 -91 -214 -91q-124 0 -195 75.5t-71 194.5q0 118 69.5 196t185.5 78q112 0 180 -74t68 -185zM139 306h318q-7 72 -51 111.5t-108 39.5q-67 0 -110.5 -42t-48.5 -109zM448 608h-300v58h300
v-58z" />
    <glyph glyph-name="Ebreve" unicode="&#x114;" horiz-adv-x="620" 
d="M572 0h-482v666h472v-86h-378v-188h329v-81h-329v-225h388v-86zM333 717q-65 0 -106.5 33t-50.5 84l51 15q9 -30 36.5 -49t69.5 -19t69.5 19t36.5 49l50 -15q-8 -51 -50 -84t-106 -33z" />
    <glyph glyph-name="ebreve" unicode="&#x115;" horiz-adv-x="586" 
d="M547 273q0 -20 -2 -34h-408q4 -80 51 -125.5t124 -45.5q91 0 154 68l58 -57q-85 -91 -214 -91q-124 0 -195 75.5t-71 194.5q0 118 69.5 196t185.5 78q112 0 180 -74t68 -185zM139 306h318q-7 72 -51 111.5t-108 39.5q-67 0 -110.5 -42t-48.5 -109zM296 591
q-65 0 -106.5 33t-50.5 84l51 15q9 -30 36.5 -49t69.5 -19t69.5 19t36.5 49l50 -15q-8 -51 -50 -84t-106 -33z" />
    <glyph glyph-name="Edotaccent" unicode="&#x116;" horiz-adv-x="620" 
d="M572 0h-482v666h472v-86h-378v-188h329v-81h-329v-225h388v-86zM371 724h-78v77h78v-77z" />
    <glyph glyph-name="edotaccent" unicode="&#x117;" horiz-adv-x="586" 
d="M547 273q0 -20 -2 -34h-408q4 -80 51 -125.5t124 -45.5q91 0 154 68l58 -57q-85 -91 -214 -91q-124 0 -195 75.5t-71 194.5q0 118 69.5 196t185.5 78q112 0 180 -74t68 -185zM139 306h318q-7 72 -51 111.5t-108 39.5q-67 0 -110.5 -42t-48.5 -109zM334 598h-78v77h78v-77
z" />
    <glyph glyph-name="Eogonek" unicode="&#x118;" horiz-adv-x="620" 
d="M572 0h-83q-33 -31 -33 -68q0 -22 13.5 -34t36.5 -12q36 0 66 34v-67q-27 -29 -80 -29q-43 0 -72 22.5t-29 62.5q0 51 47 91h-348v666h472v-86h-378v-188h329v-81h-329v-225h388v-86z" />
    <glyph glyph-name="eogonek" unicode="&#x119;" horiz-adv-x="588" 
d="M547 272q0 -19 -2 -33h-408q4 -80 51 -125.5t124 -45.5q91 0 154 68l58 -57q-27 -29 -64 -53q-65 -42 -65 -90q0 -24 14 -37t37 -13q35 0 65 34v-67q-27 -29 -80 -29q-43 0 -72 22.5t-29 62.5q0 45 39 84q-30 -5 -60 -5q-123 0 -194 75.5t-71 194.5q0 118 69.5 196
t185.5 78q113 0 180.5 -73.5t67.5 -186.5zM139 306h318q-7 72 -51 111.5t-108 39.5q-67 0 -110.5 -42t-48.5 -109z" />
    <glyph glyph-name="Ecaron" unicode="&#x11a;" horiz-adv-x="620" 
d="M572 0h-482v666h472v-86h-378v-188h329v-81h-329v-225h388v-86zM371 710h-68q-55 52 -127 101l25 42q79 -26 136 -78q57 52 137 78l24 -42q-66 -45 -127 -101z" />
    <glyph glyph-name="ecaron" unicode="&#x11b;" horiz-adv-x="586" 
d="M547 273q0 -20 -2 -34h-408q4 -80 51 -125.5t124 -45.5q91 0 154 68l58 -57q-85 -91 -214 -91q-124 0 -195 75.5t-71 194.5q0 118 69.5 196t185.5 78q112 0 180 -74t68 -185zM139 306h318q-7 72 -51 111.5t-108 39.5q-67 0 -110.5 -42t-48.5 -109zM330 584h-68
q-55 52 -127 101l25 42q79 -26 136 -78q57 52 137 78l24 -42q-66 -45 -127 -101z" />
    <glyph glyph-name="Gcircumflex" unicode="&#x11c;" horiz-adv-x="721" 
d="M373 592q-105 0 -166 -71t-61 -188q0 -118 61.5 -189t165.5 -71q90 0 149.5 51t66.5 136h-216v82h305q4 -26 4 -50q0 -127 -83.5 -215.5t-224.5 -88.5q-147 0 -236.5 97t-89.5 249t89 248t234 96q169 0 262 -134l-74 -51q-64 99 -186 99zM330 853h68q55 -50 127 -101
l-24 -42q-81 27 -137 79q-56 -52 -136 -79l-25 42q78 54 127 101z" />
    <glyph glyph-name="gcircumflex" unicode="&#x11d;" horiz-adv-x="636" 
d="M558 520v-436q0 -124 -56 -187q-70 -81 -219 -81q-126 0 -217 62l44 71q75 -54 174 -54q85 0 136 42t51 129v56q-30 -48 -81 -72.5t-109 -24.5q-104 0 -169.5 71.5t-65.5 180.5q0 110 67.5 182.5t171.5 72.5q125 0 186 -98v86h87zM472 279q0 75 -45 124t-125 49
q-79 0 -121.5 -49t-42.5 -124q0 -76 42.5 -126t121.5 -50t124.5 50t45.5 126zM268 725h68q55 -50 127 -101l-24 -42q-81 27 -137 79q-56 -52 -136 -79l-25 42q78 54 127 101z" />
    <glyph glyph-name="Gbreve" unicode="&#x11e;" horiz-adv-x="721" 
d="M373 592q-105 0 -166 -71t-61 -188q0 -118 61.5 -189t165.5 -71q90 0 149.5 51t66.5 136h-216v82h305q4 -26 4 -50q0 -127 -83.5 -215.5t-224.5 -88.5q-147 0 -236.5 97t-89.5 249t89 248t234 96q169 0 262 -134l-74 -51q-64 99 -186 99zM367 719q-65 0 -106.5 33
t-50.5 84l51 15q9 -30 36.5 -49t69.5 -19t69.5 19t36.5 49l50 -15q-8 -51 -50 -84t-106 -33z" />
    <glyph glyph-name="gbreve" unicode="&#x11f;" horiz-adv-x="636" 
d="M558 520v-436q0 -124 -56 -187q-70 -81 -219 -81q-126 0 -217 62l44 71q75 -54 174 -54q85 0 136 42t51 129v56q-30 -48 -81 -72.5t-109 -24.5q-104 0 -169.5 71.5t-65.5 180.5q0 110 67.5 182.5t171.5 72.5q125 0 186 -98v86h87zM472 279q0 75 -45 124t-125 49
q-79 0 -121.5 -49t-42.5 -124q0 -76 42.5 -126t121.5 -50t124.5 50t45.5 126zM301 591q-65 0 -106.5 33t-50.5 84l51 15q9 -30 36.5 -49t69.5 -19t69.5 19t36.5 49l50 -15q-8 -51 -50 -84t-106 -33z" />
    <glyph glyph-name="Gdotaccent" unicode="&#x120;" horiz-adv-x="721" 
d="M373 592q-105 0 -166 -71t-61 -188q0 -118 61.5 -189t165.5 -71q90 0 149.5 51t66.5 136h-216v82h305q4 -26 4 -50q0 -127 -83.5 -215.5t-224.5 -88.5q-147 0 -236.5 97t-89.5 249t89 248t234 96q169 0 262 -134l-74 -51q-64 99 -186 99zM410 726h-78v77h78v-77z" />
    <glyph glyph-name="gdotaccent" unicode="&#x121;" horiz-adv-x="636" 
d="M558 520v-436q0 -124 -56 -187q-70 -81 -219 -81q-126 0 -217 62l44 71q75 -54 174 -54q85 0 136 42t51 129v56q-30 -48 -81 -72.5t-109 -24.5q-104 0 -169.5 71.5t-65.5 180.5q0 110 67.5 182.5t171.5 72.5q125 0 186 -98v86h87zM472 279q0 75 -45 124t-125 49
q-79 0 -121.5 -49t-42.5 -124q0 -76 42.5 -126t121.5 -50t124.5 50t45.5 126zM339 598h-78v77h78v-77z" />
    <glyph glyph-name="Gcommaaccent" unicode="&#x122;" horiz-adv-x="721" 
d="M373 592q-105 0 -166 -71t-61 -188q0 -118 61.5 -189t165.5 -71q90 0 149.5 51t66.5 136h-216v82h305q4 -26 4 -50q0 -127 -83.5 -215.5t-224.5 -88.5q-147 0 -236.5 97t-89.5 249t89 248t234 96q169 0 262 -134l-74 -51q-64 99 -186 99zM310 -200l-34 27q47 61 71 122
l83 -12q-33 -75 -120 -137z" />
    <glyph glyph-name="gcommaaccent" unicode="&#x123;" horiz-adv-x="636" 
d="M363 727l34 -27q-47 -61 -71 -122l-83 12q33 75 120 137zM558 520v-436q0 -124 -56 -187q-70 -81 -219 -81q-126 0 -217 62l44 71q75 -54 174 -54q85 0 136 42t51 129v56q-30 -48 -81 -72.5t-109 -24.5q-104 0 -169.5 71.5t-65.5 180.5q0 110 67.5 182.5t171.5 72.5
q125 0 186 -98v86h87zM472 279q0 75 -45 124t-125 49q-79 0 -121.5 -49t-42.5 -124q0 -76 42.5 -126t121.5 -50t124.5 50t45.5 126z" />
    <glyph glyph-name="Hcircumflex" unicode="&#x124;" horiz-adv-x="729" 
d="M639 0h-94v310h-361v-310h-94v666h94v-271h361v271h94v-666zM330 853h68q55 -50 127 -101l-24 -42q-81 27 -137 79q-56 -52 -136 -79l-25 42q78 54 127 101z" />
    <glyph glyph-name="hcircumflex" unicode="&#x125;" horiz-adv-x="597" 
d="M165 0h-87v714h87v-280q67 98 178 98q84 0 133 -52t49 -145v-335h-87v315q0 135 -116 135q-68 0 -112.5 -45t-44.5 -117v-288zM89 867h68q55 -50 127 -101l-24 -42q-81 27 -137 79q-56 -52 -136 -79l-25 42q78 54 127 101z" />
    <glyph glyph-name="Hbar" unicode="&#x126;" horiz-adv-x="729" 
d="M639 0h-94v310h-361v-310h-94v529h-51v55h51v82h94v-82h361v82h94v-82h52v-55h-52v-529zM184 395h361v134h-361v-134z" />
    <glyph glyph-name="hbar" unicode="&#x127;" horiz-adv-x="597" 
d="M165 0h-87v611h-75v55h75v48h87v-48h138v-55h-138v-177q67 98 178 98q84 0 133 -52t49 -145v-335h-87v315q0 135 -116 135q-68 0 -112.5 -45t-44.5 -117v-288z" />
    <glyph glyph-name="Itilde" unicode="&#x128;" horiz-adv-x="273" 
d="M183 0h-93v666h93v-666zM265 828l35 -23q-14 -38 -40 -60.5t-56 -22.5q-24 0 -67.5 19t-61.5 19q-36 0 -66 -37l-35 23q14 38 40 60.5t56 22.5q23 0 67 -19t63 -19q35 0 65 37z" />
    <glyph glyph-name="itilde" unicode="&#x129;" horiz-adv-x="243" 
d="M250 702l35 -23q-14 -38 -40 -60.5t-56 -22.5q-24 0 -67.5 19t-61.5 19q-36 0 -66 -37l-35 23q14 38 40 60.5t56 22.5q23 0 67 -19t63 -19q35 0 65 37zM165 0h-87v520h87v-520z" />
    <glyph glyph-name="Imacron" unicode="&#x12a;" horiz-adv-x="273" 
d="M183 0h-93v666h93v-666zM287 736h-300v58h300v-58z" />
    <glyph glyph-name="imacron" unicode="&#x12b;" horiz-adv-x="243" 
d="M272 608h-300v58h300v-58zM165 0h-87v520h87v-520z" />
    <glyph glyph-name="Ibreve" unicode="&#x12c;" horiz-adv-x="273" 
d="M183 0h-93v666h93v-666zM137 717q-65 0 -106.5 33t-50.5 84l51 15q9 -30 36.5 -49t69.5 -19t69.5 19t36.5 49l50 -15q-8 -51 -50 -84t-106 -33z" />
    <glyph glyph-name="ibreve" unicode="&#x12d;" horiz-adv-x="243" 
d="M165 0h-87v520h87v-520zM122 591q-65 0 -106.5 33t-50.5 84l51 15q9 -30 36.5 -49t69.5 -19t69.5 19t36.5 49l50 -15q-8 -51 -50 -84t-106 -33z" />
    <glyph glyph-name="Iogonek" unicode="&#x12e;" horiz-adv-x="273" 
d="M90 0v666h93v-666q-33 -6 -61 -23t-28 -47q0 -20 13 -31t33 -11q38 0 65 31v-67q-27 -27 -75 -27q-42 0 -70 24t-28 60q0 57 58 91z" />
    <glyph glyph-name="iogonek" unicode="&#x12f;" horiz-adv-x="243" 
d="M165 622h-87v92h87v-92zM78 0v520h87v-520q-31 -5 -60 -22.5t-29 -47.5q0 -20 13.5 -31t33.5 -11q40 0 63 31v-67q-27 -27 -74 -27q-41 0 -69 23.5t-28 60.5q0 58 63 91z" />
    <glyph glyph-name="Idotaccent" unicode="&#x130;" horiz-adv-x="273" 
d="M183 0h-93v666h93v-666zM176 724h-78v77h78v-77z" />
    <glyph glyph-name="dotlessi" unicode="&#x131;" horiz-adv-x="243" 
d="M165 0h-87v520h87v-520z" />
    <glyph glyph-name="Jcircumflex" unicode="&#x134;" horiz-adv-x="506" 
d="M423 209q0 -106 -58.5 -163.5t-156.5 -57.5q-127 0 -188 100l75 48q42 -62 117 -62q117 0 117 134v458h94v-457zM341 851h68q55 -50 127 -101l-24 -42q-81 27 -137 79q-56 -52 -136 -79l-25 42q78 54 127 101z" />
    <glyph glyph-name="jcircumflex" unicode="&#x135;" horiz-adv-x="243" 
d="M86 725h68q55 -50 127 -101l-24 -42q-81 27 -137 79q-56 -52 -136 -79l-25 42q78 54 127 101zM165 520v-521q0 -90 -47 -135.5t-129 -45.5q-47 0 -80 15l24 72q26 -11 52 -11q93 0 93 103v523h87z" />
    <glyph glyph-name="Kcommaaccent" unicode="&#x136;" horiz-adv-x="645" 
d="M645 0h-116l-230 317l-116 -129v-188h-93v666h93v-357l323 357h113l-257 -282zM283 -200l-34 27q47 61 71 122l83 -12q-33 -75 -120 -137z" />
    <glyph glyph-name="kcommaaccent" unicode="&#x137;" horiz-adv-x="567" 
d="M165 251l261 269h110l-210 -213l237 -307h-110l-188 249l-100 -101v-148h-87v714h87v-463zM244 -200l-34 27q47 61 71 122l83 -12q-33 -75 -120 -137z" />
    <glyph glyph-name="kgreenlandic" unicode="&#x138;" horiz-adv-x="569" 
d="M165 251l261 269h110l-210 -213l237 -307h-110l-188 249l-100 -101v-148h-87v520h87v-269z" />
    <glyph glyph-name="Lacute" unicode="&#x139;" horiz-adv-x="568" 
d="M553 0h-463v666h93v-580h370v-86zM118 706l-35 29q56 60 89 120l83 -13q-15 -34 -54.5 -72.5t-82.5 -63.5z" />
    <glyph glyph-name="lacute" unicode="&#x13a;" horiz-adv-x="249" 
d="M168 0h-87v714h87v-714zM109 732l-35 29q56 60 89 120l83 -13q-15 -34 -54.5 -72.5t-82.5 -63.5z" />
    <glyph glyph-name="Lcommaaccent" unicode="&#x13b;" horiz-adv-x="569" 
d="M553 0h-463v666h93v-580h370v-86zM268 -200l-34 27q47 61 71 122l83 -12q-33 -75 -120 -137z" />
    <glyph glyph-name="lcommaaccent" unicode="&#x13c;" horiz-adv-x="249" 
d="M168 0h-87v714h87v-714zM48 -200l-34 27q47 61 71 122l83 -12q-33 -75 -120 -137z" />
    <glyph glyph-name="Lcaron" unicode="&#x13d;" horiz-adv-x="568" 
d="M553 0h-463v666h93v-580h370v-86zM376 666v-74q0 -90 -78 -160l-32 33q43 45 43 96q0 17 -11 43t-11 45v17h89z" />
    <glyph glyph-name="lcaron" unicode="&#x13e;" horiz-adv-x="291" 
d="M168 0h-87v714h87v-714zM354 714v-74q0 -90 -78 -160l-32 33q43 45 43 96q0 17 -11 43t-11 45v17h89z" />
    <glyph glyph-name="Ldot" unicode="&#x13f;" horiz-adv-x="568" 
d="M553 0h-463v666h93v-580h370v-86zM493 366q0 -26 -18.5 -44.5t-43.5 -18.5t-44 18.5t-19 44.5t19 45t44 19t43.5 -19t18.5 -45z" />
    <glyph glyph-name="ldot" unicode="&#x140;" horiz-adv-x="459" 
d="M168 0h-87v714h87v-714zM416 304q0 -26 -18.5 -44.5t-43.5 -18.5q-26 0 -44.5 18.5t-18.5 44.5t19 45t44 19t43.5 -19t18.5 -45z" />
    <glyph glyph-name="Lslash" unicode="&#x141;" horiz-adv-x="582" 
d="M567 0h-464v262l-112 -52v76l112 52v328h94v-287l217 102v-77l-217 -101v-217h370v-86z" />
    <glyph glyph-name="lslash" unicode="&#x142;" horiz-adv-x="307" 
d="M315 449l-114 -53v-396h-88v360l-112 -52v75l112 51v280h88v-243l114 53v-75z" />
    <glyph glyph-name="Nacute" unicode="&#x143;" horiz-adv-x="729" 
d="M639 0h-110l-349 549v-549h-90v666h120l339 -536v536h90v-666zM347 704l-35 29q56 60 89 120l83 -13q-15 -34 -54.5 -72.5t-82.5 -63.5z" />
    <glyph glyph-name="nacute" unicode="&#x144;" horiz-adv-x="597" 
d="M165 0h-87v520h87v-86q67 98 178 98q84 0 133 -52t49 -145v-335h-87v315q0 135 -116 135q-68 0 -112.5 -45t-44.5 -117v-288zM296 578l-34 27q46 58 74 122l83 -13q-16 -35 -49.5 -72t-73.5 -64z" />
    <glyph glyph-name="Ncommaaccent" unicode="&#x145;" horiz-adv-x="729" 
d="M639 0h-110l-349 549v-549h-90v666h120l339 -536v536h90v-666zM298 -200l-34 27q47 61 71 122l83 -12q-33 -75 -120 -137z" />
    <glyph glyph-name="ncommaaccent" unicode="&#x146;" horiz-adv-x="597" 
d="M165 0h-87v520h87v-86q67 98 178 98q84 0 133 -52t49 -145v-335h-87v315q0 135 -116 135q-68 0 -112.5 -45t-44.5 -117v-288zM236 -200l-34 27q47 61 71 122l83 -12q-33 -75 -120 -137z" />
    <glyph glyph-name="Ncaron" unicode="&#x147;" horiz-adv-x="729" 
d="M639 0h-110l-349 549v-549h-90v666h120l339 -536v536h90v-666zM396 710h-68q-55 52 -127 101l25 42q79 -26 136 -78q57 52 137 78l24 -42q-66 -45 -127 -101z" />
    <glyph glyph-name="ncaron" unicode="&#x148;" horiz-adv-x="597" 
d="M165 0h-87v520h87v-86q67 98 178 98q84 0 133 -52t49 -145v-335h-87v315q0 135 -116 135q-68 0 -112.5 -45t-44.5 -117v-288zM339 584h-68q-55 52 -127 101l25 42q79 -26 136 -78q57 52 137 78l24 -42q-66 -45 -127 -101z" />
    <glyph glyph-name="Eng" unicode="&#x14a;" horiz-adv-x="729" 
d="M639 666v-629q0 -105 -58 -162.5t-154 -57.5q-52 0 -96 19l32 79q29 -13 63 -13q103 0 116 101l-362 546v-549h-90v666h116l343 -516v516h90z" />
    <glyph glyph-name="eng" unicode="&#x14b;" horiz-adv-x="597" 
d="M525 335v-336q0 -88 -46.5 -134.5t-128.5 -46.5q-46 0 -81 15l24 72q26 -11 52 -11q93 0 93 101v320q0 135 -116 135q-68 0 -112.5 -45t-44.5 -117v-288h-87v520h87v-86q67 98 178 98q84 0 133 -52t49 -145z" />
    <glyph glyph-name="Omacron" unicode="&#x14c;" horiz-adv-x="745" 
d="M698 333q0 -150 -89.5 -247.5t-236.5 -97.5t-236 97.5t-89 247.5t89 247.5t236 97.5t236.5 -97.5t89.5 -247.5zM599 333q0 115 -61.5 186t-165.5 71q-105 0 -166 -71t-61 -186t61 -186.5t166 -71.5q104 0 165.5 71.5t61.5 186.5zM522 734h-300v58h300v-58z" />
    <glyph glyph-name="omacron" unicode="&#x14d;" horiz-adv-x="600" 
d="M556 259q0 -119 -70 -195t-186 -76q-117 0 -186.5 76t-69.5 195q0 120 69.5 196.5t186.5 76.5q116 0 186 -76.5t70 -196.5zM463 259q0 85 -43.5 139.5t-119.5 54.5t-120 -54.5t-44 -139.5q0 -84 44 -138.5t120 -54.5t119.5 54.5t43.5 138.5zM450 608h-300v58h300v-58z
" />
    <glyph glyph-name="Obreve" unicode="&#x14e;" horiz-adv-x="745" 
d="M698 333q0 -150 -89.5 -247.5t-236.5 -97.5t-236 97.5t-89 247.5t89 247.5t236 97.5t236.5 -97.5t89.5 -247.5zM599 333q0 115 -61.5 186t-165.5 71q-105 0 -166 -71t-61 -186t61 -186.5t166 -71.5q104 0 165.5 71.5t61.5 186.5zM372 717q-65 0 -106.5 33t-50.5 84l51 15
q9 -30 36.5 -49t69.5 -19t69.5 19t36.5 49l50 -15q-8 -51 -50 -84t-106 -33z" />
    <glyph glyph-name="obreve" unicode="&#x14f;" horiz-adv-x="600" 
d="M556 259q0 -119 -70 -195t-186 -76q-117 0 -186.5 76t-69.5 195q0 120 69.5 196.5t186.5 76.5q116 0 186 -76.5t70 -196.5zM463 259q0 85 -43.5 139.5t-119.5 54.5t-120 -54.5t-44 -139.5q0 -84 44 -138.5t120 -54.5t119.5 54.5t43.5 138.5zM300 591q-65 0 -106.5 33
t-50.5 84l51 15q9 -30 36.5 -49t69.5 -19t69.5 19t36.5 49l50 -15q-8 -51 -50 -84t-106 -33z" />
    <glyph glyph-name="Ohungarumlaut" unicode="&#x150;" horiz-adv-x="745" 
d="M698 333q0 -150 -89.5 -247.5t-236.5 -97.5t-236 97.5t-89 247.5t89 247.5t236 97.5t236.5 -97.5t89.5 -247.5zM599 333q0 115 -61.5 186t-165.5 71q-105 0 -166 -71t-61 -186t61 -186.5t166 -71.5q104 0 165.5 71.5t61.5 186.5zM286 704l-32 29q58 62 88 120l81 -13
q-15 -34 -54.5 -72.5t-82.5 -63.5zM443 704l-33 29q56 60 89 120l80 -13q-15 -34 -54 -72.5t-82 -63.5z" />
    <glyph glyph-name="ohungarumlaut" unicode="&#x151;" horiz-adv-x="600" 
d="M556 259q0 -119 -70 -195t-186 -76q-117 0 -186.5 76t-69.5 195q0 120 69.5 196.5t186.5 76.5q116 0 186 -76.5t70 -196.5zM463 259q0 85 -43.5 139.5t-119.5 54.5t-120 -54.5t-44 -139.5q0 -84 44 -138.5t120 -54.5t119.5 54.5t43.5 138.5zM216 578l-32 29q58 62 88 120
l81 -13q-15 -34 -54.5 -72.5t-82.5 -63.5zM373 578l-33 29q56 60 89 120l80 -13q-15 -34 -54 -72.5t-82 -63.5z" />
    <glyph glyph-name="OE" unicode="&#x152;" horiz-adv-x="990" 
d="M942 0h-570q-151 0 -237 93t-86 240t86 240t237 93h560v-86h-349v-188h300v-81h-300v-225h359v-86zM147 333q0 -114 58.5 -180.5t166.5 -66.5h117v494h-117q-108 0 -166.5 -66.5t-58.5 -180.5z" />
    <glyph glyph-name="oe" unicode="&#x153;" horiz-adv-x="1001" 
d="M962 270q0 -17 -2 -31h-408q4 -80 51.5 -125.5t124.5 -45.5q91 0 151 66l61 -55q-86 -91 -215 -91q-151 0 -219 117q-68 -117 -209 -117q-115 0 -184 76.5t-69 194.5q0 119 68.5 196t184.5 77q70 0 124 -31.5t86 -86.5q31 55 84.5 86.5t123.5 31.5q112 0 179.5 -74
t67.5 -188zM460 259q0 85 -43.5 139.5t-118.5 54.5t-118.5 -54.5t-43.5 -139.5q0 -84 43.5 -138.5t118.5 -54.5t118.5 54.5t43.5 138.5zM554 306h318q-7 73 -50.5 112t-108.5 39q-67 0 -110.5 -42t-48.5 -109z" />
    <glyph glyph-name="Racute" unicode="&#x154;" horiz-adv-x="661" 
d="M623 0h-106l-142 268h-191v-268h-94v666h292q102 0 162.5 -53t60.5 -142q0 -67 -37.5 -115.5t-99.5 -70.5zM508 464q0 53 -35.5 84.5t-93.5 31.5h-195v-230h198q57 0 91.5 31.5t34.5 82.5zM312 704l-35 29q56 60 89 120l83 -13q-15 -34 -54.5 -72.5t-82.5 -63.5z" />
    <glyph glyph-name="racute" unicode="&#x155;" horiz-adv-x="393" 
d="M387 511l-28 -83q-30 16 -60 16q-55 0 -94.5 -46.5t-39.5 -126.5v-271h-87v520h87v-88q61 98 151 98q42 0 71 -19zM194 578l-35 29q56 60 89 120l83 -13q-15 -34 -54.5 -72.5t-82.5 -63.5z" />
    <glyph glyph-name="Rcommaaccent" unicode="&#x156;" horiz-adv-x="661" 
d="M623 0h-106l-142 268h-191v-268h-94v666h292q102 0 162.5 -53t60.5 -142q0 -67 -37.5 -115.5t-99.5 -70.5zM508 464q0 53 -35.5 84.5t-93.5 31.5h-195v-230h198q57 0 91.5 31.5t34.5 82.5zM275 -200l-34 27q47 61 71 122l83 -12q-33 -75 -120 -137z" />
    <glyph glyph-name="rcommaaccent" unicode="&#x157;" horiz-adv-x="393" 
d="M387 511l-28 -83q-30 16 -60 16q-55 0 -94.5 -46.5t-39.5 -126.5v-271h-87v520h87v-88q61 98 151 98q42 0 71 -19zM45 -200l-34 27q47 61 71 122l83 -12q-33 -75 -120 -137z" />
    <glyph glyph-name="Rcaron" unicode="&#x158;" horiz-adv-x="661" 
d="M623 0h-106l-142 268h-191v-268h-94v666h292q102 0 162.5 -53t60.5 -142q0 -67 -37.5 -115.5t-99.5 -70.5zM508 464q0 53 -35.5 84.5t-93.5 31.5h-195v-230h198q57 0 91.5 31.5t34.5 82.5zM364 710h-68q-55 52 -127 101l25 42q79 -26 136 -78q57 52 137 78l24 -42
q-66 -45 -127 -101z" />
    <glyph glyph-name="rcaron" unicode="&#x159;" horiz-adv-x="393" 
d="M387 511l-28 -83q-30 16 -60 16q-55 0 -94.5 -46.5t-39.5 -126.5v-271h-87v520h87v-88q61 98 151 98q42 0 71 -19zM262 584h-68q-55 52 -127 101l25 42q79 -26 136 -78q57 52 137 78l24 -42q-66 -45 -127 -101z" />
    <glyph glyph-name="Sacute" unicode="&#x15a;" horiz-adv-x="605" 
d="M298 678q77 0 142 -30.5t108 -87.5l-72 -51q-64 86 -183 86q-58 0 -96 -23.5t-38 -73.5q0 -21 9 -37t20 -25.5t35 -19t40 -13.5t50 -12q46 -11 75.5 -19.5t65.5 -25t56.5 -35.5t34.5 -49.5t14 -69.5q0 -92 -69 -148t-184 -56q-92 0 -162.5 36.5t-108.5 100.5l77 49
q66 -104 201 -104q68 0 109.5 30.5t41.5 83.5q0 19 -5 34t-19.5 26.5t-25 18.5t-38 15t-41 11.5t-50.5 11.5q-49 10 -83 22t-68 33t-51.5 54.5t-17.5 78.5q0 88 65 138.5t168 50.5zM279 704l-35 29q56 60 89 120l83 -13q-15 -34 -54.5 -72.5t-82.5 -63.5z" />
    <glyph glyph-name="sacute" unicode="&#x15b;" horiz-adv-x="518" 
d="M475 154q0 -75 -57 -120.5t-156 -45.5q-157 0 -230 111l64 48q61 -84 171 -84q55 0 88 21.5t33 62.5q0 37 -30 51t-113 30q-90 17 -138 49t-48 102q0 75 56.5 114t138.5 39q128 0 211 -87l-58 -55q-58 67 -154 67q-46 0 -78 -17.5t-32 -52.5q0 -15 7.5 -27t17 -19.5
t29.5 -14t34.5 -9.5t40.5 -8q38 -7 62 -13t54 -18t46.5 -27t28.5 -40t12 -57zM246 578l-34 27q46 58 74 122l83 -13q-16 -35 -49.5 -72t-73.5 -64z" />
    <glyph glyph-name="Scircumflex" unicode="&#x15c;" horiz-adv-x="605" 
d="M298 678q77 0 142 -30.5t108 -87.5l-72 -51q-64 86 -183 86q-58 0 -96 -23.5t-38 -73.5q0 -21 9 -37t20 -25.5t35 -19t40 -13.5t50 -12q46 -11 75.5 -19.5t65.5 -25t56.5 -35.5t34.5 -49.5t14 -69.5q0 -92 -69 -148t-184 -56q-92 0 -162.5 36.5t-108.5 100.5l77 49
q66 -104 201 -104q68 0 109.5 30.5t41.5 83.5q0 19 -5 34t-19.5 26.5t-25 18.5t-38 15t-41 11.5t-50.5 11.5q-49 10 -83 22t-68 33t-51.5 54.5t-17.5 78.5q0 88 65 138.5t168 50.5zM263 851h68q55 -50 127 -101l-24 -42q-81 27 -137 79q-56 -52 -136 -79l-25 42
q78 54 127 101z" />
    <glyph glyph-name="scircumflex" unicode="&#x15d;" horiz-adv-x="518" 
d="M475 154q0 -75 -57 -120.5t-156 -45.5q-157 0 -230 111l64 48q61 -84 171 -84q55 0 88 21.5t33 62.5q0 37 -30 51t-113 30q-90 17 -138 49t-48 102q0 75 56.5 114t138.5 39q128 0 211 -87l-58 -55q-58 67 -154 67q-46 0 -78 -17.5t-32 -52.5q0 -15 7.5 -27t17 -19.5
t29.5 -14t34.5 -9.5t40.5 -8q38 -7 62 -13t54 -18t46.5 -27t28.5 -40t12 -57zM223 725h68q55 -50 127 -101l-24 -42q-81 27 -137 79q-56 -52 -136 -79l-25 42q78 54 127 101z" />
    <glyph glyph-name="Scedilla" unicode="&#x15e;" horiz-adv-x="607" 
d="M199 -144v60q28 -28 64 -28q21 0 35 11.5t14 31.5q0 32 -34 58q-168 11 -243 136l77 49q66 -104 201 -104q68 0 109.5 30.5t41.5 83.5q0 19 -5 34t-19.5 26.5t-25 18.5t-38 15t-41 11.5t-50.5 11.5q-49 10 -83 22t-68 33t-51.5 54.5t-17.5 78.5q0 88 65 138.5t168 50.5
q77 0 142 -30.5t108 -87.5l-72 -51q-64 86 -183 86q-58 0 -96 -23.5t-38 -73.5q0 -21 9 -37t20 -25.5t35 -19t40 -13.5t50 -12q46 -11 75.5 -19.5t65.5 -25t56.5 -35.5t34.5 -49.5t14 -69.5q0 -85 -60 -139.5t-162 -62.5q39 -32 39 -75q0 -37 -29 -60t-72 -23q-48 0 -76 24z
" />
    <glyph glyph-name="scedilla" unicode="&#x15f;" horiz-adv-x="519" 
d="M159 -144v60q28 -28 64 -28q21 0 35 11.5t14 31.5q0 30 -33 58q-140 9 -206 110l64 48q61 -84 171 -84q54 0 87.5 21.5t33.5 62.5q0 37 -30 51t-113 30q-90 17 -138 49t-48 102q0 75 56.5 114t138.5 39q128 0 211 -87l-58 -55q-58 67 -154 67q-46 0 -78 -17.5t-32 -52.5
q0 -15 7.5 -27t17 -19.5t29.5 -14t34.5 -9.5t40.5 -8q38 -7 62 -13t54 -18t46.5 -27t28.5 -40t12 -57q0 -69 -47.5 -113t-131.5 -51q39 -32 39 -75q0 -37 -29 -60t-72 -23q-48 0 -76 24z" />
    <glyph glyph-name="Scaron" unicode="&#x160;" horiz-adv-x="605" 
d="M298 678q77 0 142 -30.5t108 -87.5l-72 -51q-64 86 -183 86q-58 0 -96 -23.5t-38 -73.5q0 -21 9 -37t20 -25.5t35 -19t40 -13.5t50 -12q46 -11 75.5 -19.5t65.5 -25t56.5 -35.5t34.5 -49.5t14 -69.5q0 -92 -69 -148t-184 -56q-92 0 -162.5 36.5t-108.5 100.5l77 49
q66 -104 201 -104q68 0 109.5 30.5t41.5 83.5q0 19 -5 34t-19.5 26.5t-25 18.5t-38 15t-41 11.5t-50.5 11.5q-49 10 -83 22t-68 33t-51.5 54.5t-17.5 78.5q0 88 65 138.5t168 50.5zM335 710h-68q-55 52 -127 101l25 42q79 -26 136 -78q57 52 137 78l24 -42
q-66 -45 -127 -101z" />
    <glyph glyph-name="scaron" unicode="&#x161;" horiz-adv-x="518" 
d="M288 584h-68q-55 52 -127 101l25 42q79 -26 136 -78q57 52 137 78l24 -42q-66 -45 -127 -101zM475 154q0 -75 -57 -120.5t-156 -45.5q-157 0 -230 111l64 48q61 -84 171 -84q55 0 88 21.5t33 62.5q0 37 -30 51t-113 30q-90 17 -138 49t-48 102q0 75 56.5 114t138.5 39
q128 0 211 -87l-58 -55q-58 67 -154 67q-46 0 -78 -17.5t-32 -52.5q0 -15 7.5 -27t17 -19.5t29.5 -14t34.5 -9.5t40.5 -8q38 -7 62 -13t54 -18t46.5 -27t28.5 -40t12 -57z" />
    <glyph glyph-name="Tcommaaccent" unicode="&#x21a;" horiz-adv-x="601" 
d="M574 580h-227v-580h-94v580h-226v86h547v-86zM224 -200l-34 27q47 61 71 122l83 -12q-33 -75 -120 -137z" />
    <glyph glyph-name="Tcommaaccent" unicode="&#x162;" horiz-adv-x="601" 
d="M574 580h-227v-580h-94v580h-226v86h547v-86zM224 -200l-34 27q47 61 71 122l83 -12q-33 -75 -120 -137z" />
    <glyph glyph-name="tcommaaccent" unicode="&#x21b;" horiz-adv-x="398" 
d="M345 89l37 -66q-45 -35 -113 -35q-95 0 -136 66q-22 34 -22 103v291h-90v72h90v146h87v-146h168v-72h-168v-291q0 -90 80 -90q39 0 67 22zM170 -200l-34 27q47 61 71 122l83 -12q-33 -75 -120 -137z" />
    <glyph glyph-name="tcommaaccent" unicode="&#x163;" horiz-adv-x="398" 
d="M345 89l37 -66q-45 -35 -113 -35q-95 0 -136 66q-22 34 -22 103v291h-90v72h90v146h87v-146h168v-72h-168v-291q0 -90 80 -90q39 0 67 22zM170 -200l-34 27q47 61 71 122l83 -12q-33 -75 -120 -137z" />
    <glyph glyph-name="Tcaron" unicode="&#x164;" horiz-adv-x="599" 
d="M573 580h-227v-580h-94v580h-226v86h547v-86zM332 710h-68q-55 52 -127 101l25 42q79 -26 136 -78q57 52 137 78l24 -42q-66 -45 -127 -101z" />
    <glyph glyph-name="tcaron" unicode="&#x165;" horiz-adv-x="394" 
d="M343 89l37 -66q-45 -35 -113 -35q-95 0 -136 66q-22 34 -22 103v291h-90v72h90v146h87v-146h168v-72h-168v-291q0 -90 80 -90q39 0 67 22zM379 753v-62q0 -77 -70 -136l-29 28q39 39 39 81q0 15 -10 37t-10 38v14h80z" />
    <glyph glyph-name="Tbar" unicode="&#x166;" horiz-adv-x="599" 
d="M452 316h-106v-316h-94v316h-107v55h107v209h-226v86h547v-86h-227v-209h106v-55z" />
    <glyph glyph-name="tbar" unicode="&#x167;" horiz-adv-x="395" 
d="M109 157v109h-89v54h89v128h-89v72h89v146h88v-146h168v-72h-168v-128h124v-54h-124v-109q0 -90 79 -90q39 0 67 22l37 -66q-45 -35 -113 -35q-97 0 -136 66q-22 37 -22 103z" />
    <glyph glyph-name="Utilde" unicode="&#x168;" horiz-adv-x="710" 
d="M628 666v-416q0 -119 -76.5 -190.5t-197.5 -71.5t-196.5 71.5t-75.5 190.5v416h93v-416q0 -80 48 -127.5t131 -47.5t132 47.5t49 127.5v416h93zM482 828l35 -23q-14 -38 -40 -60.5t-56 -22.5q-24 0 -67.5 19t-61.5 19q-36 0 -66 -37l-35 23q14 38 40 60.5t56 22.5
q23 0 67 -19t63 -19q35 0 65 37z" />
    <glyph glyph-name="utilde" unicode="&#x169;" horiz-adv-x="597" 
d="M432 520h87v-520h-87v85q-69 -97 -178 -97q-84 0 -133 52t-49 144v336h87v-316q0 -135 115 -135q68 0 113 45t45 117v289zM425 702l35 -23q-14 -38 -40 -60.5t-56 -22.5q-24 0 -67.5 19t-61.5 19q-36 0 -66 -37l-35 23q14 38 40 60.5t56 22.5q23 0 67 -19t63 -19
q35 0 65 37z" />
    <glyph glyph-name="Umacron" unicode="&#x16a;" horiz-adv-x="710" 
d="M628 666v-416q0 -119 -76.5 -190.5t-197.5 -71.5t-196.5 71.5t-75.5 190.5v416h93v-416q0 -80 48 -127.5t131 -47.5t132 47.5t49 127.5v416h93zM505 734h-300v58h300v-58z" />
    <glyph glyph-name="umacron" unicode="&#x16b;" horiz-adv-x="597" 
d="M432 520h87v-520h-87v85q-69 -97 -178 -97q-84 0 -133 52t-49 144v336h87v-316q0 -135 115 -135q68 0 113 45t45 117v289zM446 608h-300v58h300v-58z" />
    <glyph glyph-name="Ubreve" unicode="&#x16c;" horiz-adv-x="710" 
d="M628 666v-416q0 -119 -76.5 -190.5t-197.5 -71.5t-196.5 71.5t-75.5 190.5v416h93v-416q0 -80 48 -127.5t131 -47.5t132 47.5t49 127.5v416h93zM355 717q-65 0 -106.5 33t-50.5 84l51 15q9 -30 36.5 -49t69.5 -19t69.5 19t36.5 49l50 -15q-8 -51 -50 -84t-106 -33z" />
    <glyph glyph-name="ubreve" unicode="&#x16d;" horiz-adv-x="597" 
d="M432 520h87v-520h-87v85q-69 -97 -178 -97q-84 0 -133 52t-49 144v336h87v-316q0 -135 115 -135q68 0 113 45t45 117v289zM296 591q-65 0 -106.5 33t-50.5 84l51 15q9 -30 36.5 -49t69.5 -19t69.5 19t36.5 49l50 -15q-8 -51 -50 -84t-106 -33z" />
    <glyph glyph-name="Uring" unicode="&#x16e;" horiz-adv-x="710" 
d="M628 666v-416q0 -119 -76.5 -190.5t-197.5 -71.5t-196.5 71.5t-75.5 190.5v416h93v-416q0 -80 48 -127.5t131 -47.5t132 47.5t49 127.5v416h93zM461 779q0 -42 -30.5 -72t-75.5 -30t-75.5 30t-30.5 72t30.5 72.5t75.5 30.5t75.5 -30.5t30.5 -72.5zM411 779q0 23 -16.5 40
t-39.5 17t-40 -17t-17 -40q0 -24 17 -40.5t40 -16.5t39.5 16.5t16.5 40.5z" />
    <glyph glyph-name="uring" unicode="&#x16f;" horiz-adv-x="597" 
d="M432 520h87v-520h-87v85q-69 -97 -178 -97q-84 0 -133 52t-49 144v336h87v-316q0 -135 115 -135q68 0 113 45t45 117v289zM401 679q0 -42 -30.5 -72t-75.5 -30t-75.5 30t-30.5 72t30.5 72.5t75.5 30.5t75.5 -30.5t30.5 -72.5zM351 679q0 23 -16.5 40t-39.5 17t-40 -17
t-17 -40q0 -24 17 -40.5t40 -16.5t39.5 16.5t16.5 40.5z" />
    <glyph glyph-name="Uhungarumlaut" unicode="&#x170;" horiz-adv-x="710" 
d="M628 666v-416q0 -119 -76.5 -190.5t-197.5 -71.5t-196.5 71.5t-75.5 190.5v416h93v-416q0 -80 48 -127.5t131 -47.5t132 47.5t49 127.5v416h93zM262 704l-32 29q58 62 88 120l81 -13q-15 -34 -54.5 -72.5t-82.5 -63.5zM419 704l-33 29q56 60 89 120l80 -13
q-15 -34 -54 -72.5t-82 -63.5z" />
    <glyph glyph-name="uhungarumlaut" unicode="&#x171;" horiz-adv-x="597" 
d="M432 520h87v-520h-87v85q-69 -97 -178 -97q-84 0 -133 52t-49 144v336h87v-316q0 -135 115 -135q68 0 113 45t45 117v289zM205 578l-32 29q58 62 88 120l81 -13q-15 -34 -54.5 -72.5t-82.5 -63.5zM362 578l-33 29q56 60 89 120l80 -13q-15 -34 -54 -72.5t-82 -63.5z" />
    <glyph glyph-name="Uogonek" unicode="&#x172;" horiz-adv-x="710" 
d="M628 666v-415q0 -82 -31.5 -132t-88.5 -91q-68 -48 -68 -95q0 -22 13.5 -34t36.5 -12q37 0 67 36v-69q-29 -29 -81 -29q-42 0 -71.5 22t-29.5 62q0 47 42 86q-35 -7 -66 -7q-118 0 -193.5 71.5t-75.5 191.5v415h93v-415q0 -81 48 -128.5t131 -47.5t132 48t49 128v415h93z
" />
    <glyph glyph-name="uogonek" unicode="&#x173;" horiz-adv-x="597" 
d="M432 0v85q-67 -97 -178 -97q-88 0 -135 55.5t-47 140.5v336h87v-311q0 -140 117 -140q67 0 111.5 45t44.5 117v289h87v-520q-36 -6 -66.5 -24t-30.5 -47q0 -18 13.5 -30t35.5 -12q34 0 62 32v-67q-27 -27 -74 -27q-42 0 -70.5 23.5t-28.5 59.5q0 28 18 53.5t54 38.5z" />
    <glyph glyph-name="Wcircumflex" unicode="&#x174;" horiz-adv-x="942" 
d="M917 666l-186 -666h-104l-156 540l-156 -540h-107l-182 666h99l142 -547l161 547h90l161 -549l141 549h97zM438 851h68q55 -50 127 -101l-24 -42q-81 27 -137 79q-56 -52 -136 -79l-25 42q78 54 127 101z" />
    <glyph glyph-name="wcircumflex" unicode="&#x175;" horiz-adv-x="788" 
d="M760 520l-144 -520h-95l-126 408l-128 -408h-95l-144 520h93l105 -415l130 415h80l129 -415l106 415h89zM362 725h68q55 -50 127 -101l-24 -42q-81 27 -137 79q-56 -52 -136 -79l-25 42q78 54 127 101z" />
    <glyph glyph-name="Ycircumflex" unicode="&#x176;" horiz-adv-x="614" 
d="M274 851h68q55 -50 127 -101l-24 -42q-81 27 -137 79q-56 -52 -136 -79l-25 42q78 54 127 101zM610 666l-256 -394v-272h-94v271l-254 395h110l193 -310l195 310h106z" />
    <glyph glyph-name="ycircumflex" unicode="&#x177;" horiz-adv-x="535" 
d="M520 520l-208 -544q-32 -84 -71 -122t-108 -38q-62 0 -106 32l38 64q30 -20 62 -20q33 0 54 20.5t38 58.5l14 31l-220 518h100l166 -404l147 404h94zM234 725h68q55 -50 127 -101l-24 -42q-81 27 -137 79q-56 -52 -136 -79l-25 42q78 54 127 101z" />
    <glyph glyph-name="Ydieresis" unicode="&#x178;" horiz-adv-x="614" 
d="M610 666l-256 -394v-272h-94v271l-254 395h110l193 -310l195 310h106zM240 723h-76v78h76v-78zM449 723h-75v78h75v-78z" />
    <glyph glyph-name="Zacute" unicode="&#x179;" horiz-adv-x="602" 
d="M558 0h-517v78l387 502h-372v86h494v-76l-389 -504h397v-86zM273 704l-35 29q56 60 89 120l83 -13q-15 -34 -54.5 -72.5t-82.5 -63.5z" />
    <glyph glyph-name="zacute" unicode="&#x17a;" horiz-adv-x="508" 
d="M466 0h-426v71l302 371h-289v78h404v-70l-304 -373h313v-77zM243 578l-34 27q46 58 74 122l83 -13q-16 -35 -49.5 -72t-73.5 -64z" />
    <glyph glyph-name="Zdotaccent" unicode="&#x17b;" horiz-adv-x="602" 
d="M558 0h-517v78l387 502h-372v86h494v-76l-389 -504h397v-86zM327 724h-78v77h78v-77z" />
    <glyph glyph-name="zdotaccent" unicode="&#x17c;" horiz-adv-x="508" 
d="M466 0h-426v71l302 371h-289v78h404v-70l-304 -373h313v-77zM290 598h-78v77h78v-77z" />
    <glyph glyph-name="Zcaron" unicode="&#x17d;" horiz-adv-x="602" 
d="M558 0h-517v78l387 502h-372v86h494v-76l-389 -504h397v-86zM325 710h-68q-55 52 -127 101l25 42q79 -26 136 -78q57 52 137 78l24 -42q-66 -45 -127 -101z" />
    <glyph glyph-name="zcaron" unicode="&#x17e;" horiz-adv-x="508" 
d="M466 0h-426v71l302 371h-289v78h404v-70l-304 -373h313v-77zM280 584h-68q-55 52 -127 101l25 42q79 -26 136 -78q57 52 137 78l24 -42q-66 -45 -127 -101z" />
    <glyph glyph-name="florin" unicode="&#x192;" 
d="M530 662l-27 -72q-27 12 -54 12q-89 0 -103 -87l-16 -99h130l-13 -70h-130l-50 -294q-13 -78 -59 -123t-126 -45q-47 0 -86 17l28 71q29 -12 58 -12q83 0 99 88l51 298h-101l12 70h102l16 95q12 79 59 123.5t126 44.5q48 0 84 -17z" />
    <glyph glyph-name="Aringacute" unicode="&#x1fa;" horiz-adv-x="663" 
d="M389 717q0 24 -16 41.5t-40 17.5t-41 -17.5t-17 -41.5t16.5 -40.5t41.5 -16.5q24 0 40 16.5t16 40.5zM448 267l-117 308l-120 -308h237zM655 0h-105l-71 185h-300l-72 -185h-98l258 634q-46 31 -46 84q0 44 32.5 75.5t78.5 31.5t79 -31.5t33 -75.5q0 -52 -48 -84z
M304 840l-35 29q56 60 89 120l83 -13q-15 -34 -54.5 -72.5t-82.5 -63.5z" />
    <glyph glyph-name="aringacute" unicode="&#x1fb;" horiz-adv-x="567" 
d="M544 68l11 -66q-24 -10 -60 -10q-40 0 -67.5 20.5t-33.5 62.5q-61 -87 -179 -87q-81 0 -129 42t-48 116q0 35 12 62t29.5 42.5t43.5 27t47 16t48 8.5q10 1 33.5 4t34.5 4.5t29.5 5.5t28 8.5t20 12t15 18t4.5 24.5q0 40 -35 58t-83 18q-89 0 -162 -55l-40 66q96 66 208 66
q93 0 147 -42t54 -128v-246q0 -56 41 -56q20 0 31 8zM385 200v90q-10 -13 -21.5 -21.5t-29 -13.5t-28 -7.5t-35.5 -6t-36 -5.5q-54 -9 -81 -26.5t-27 -61.5t30 -66t78 -22q63 0 106.5 35t43.5 105zM373 653q0 -42 -30.5 -72t-75.5 -30t-75.5 30t-30.5 72t30.5 72.5
t75.5 30.5t75.5 -30.5t30.5 -72.5zM323 653q0 23 -16.5 40t-39.5 17t-40 -17t-17 -40q0 -24 17 -40.5t40 -16.5t39.5 16.5t16.5 40.5zM237 773l-35 29q56 60 89 120l83 -13q-15 -34 -54.5 -72.5t-82.5 -63.5z" />
    <glyph glyph-name="AEacute" unicode="&#x1fc;" horiz-adv-x="909" 
d="M862 0h-425v185h-242l-95 -185h-101l342 666h511v-86h-320v-188h272v-81h-272v-225h330v-86zM437 267v317h-42l-160 -317h202zM458 704l-35 29q56 60 89 120l83 -13q-15 -34 -54.5 -72.5t-82.5 -63.5z" />
    <glyph glyph-name="aeacute" unicode="&#x1fd;" horiz-adv-x="917" 
d="M385 200v90q-10 -13 -21.5 -21.5t-29 -13.5t-28 -7.5t-35.5 -6t-36 -5.5q-54 -9 -81 -26.5t-27 -61.5t30 -66t78 -22q63 0 106.5 35t43.5 105zM797 136l59 -57q-86 -91 -214 -91q-144 0 -212 107q-62 -107 -199 -107q-88 0 -140.5 41.5t-52.5 117.5q0 42 16.5 72.5
t46.5 46.5t56.5 23.5t60.5 12.5q10 1 27.5 3t27.5 3.5t25 4t23.5 5t20 6.5t17.5 9t12.5 11.5t9 15t2.5 19.5q0 40 -34.5 58t-82.5 18q-90 0 -163 -55l-40 66q93 66 204 66q134 0 180 -89q71 89 184 89q112 0 179.5 -74t67.5 -185q0 -20 -2 -34h-408q4 -80 51 -125.5
t124 -45.5q92 0 154 68zM470 306h319q-7 72 -51 111.5t-109 39.5q-67 0 -110.5 -42t-48.5 -109zM420 578l-35 29q56 60 89 120l83 -13q-15 -34 -54.5 -72.5t-82.5 -63.5z" />
    <glyph glyph-name="Oslashacute" unicode="&#x1fe;" horiz-adv-x="745" 
d="M363 704l-35 29q56 60 89 120l83 -13q-15 -34 -54.5 -72.5t-82.5 -63.5zM166 -11l-47 32l34 47q-106 97 -106 265q0 150 89 247.5t236 97.5q97 0 174 -47l32 46l47 -33l-34 -47q107 -98 107 -264q0 -150 -89.5 -247.5t-236.5 -97.5q-101 0 -174 47zM599 333
q0 114 -62 186l-287 -410q51 -34 122 -34q104 0 165.5 71.5t61.5 186.5zM145 333q0 -117 62 -187l287 411q-53 33 -122 33q-105 0 -166 -71t-61 -186z" />
    <glyph glyph-name="oslashacute" unicode="&#x1ff;" horiz-adv-x="600" 
d="M293 578l-35 29q56 60 89 120l83 -13q-15 -34 -54.5 -72.5t-82.5 -63.5zM144 -11l-45 31l24 34q-79 76 -79 205q0 120 69.5 196.5t186.5 76.5q73 0 133 -35l23 33l45 -31l-24 -34q79 -76 79 -206q0 -119 -70 -195t-186 -76q-75 0 -134 34zM136 259q0 -80 38 -130l211 300
q-36 25 -85 25q-77 0 -120.5 -55t-43.5 -140zM463 259q0 81 -38 131l-211 -300q36 -25 86 -25q76 0 119.5 55t43.5 139z" />
    <glyph glyph-name="Scommaaccent" unicode="&#x218;" horiz-adv-x="605" 
d="M298 678q77 0 142 -30.5t108 -87.5l-72 -51q-64 86 -183 86q-58 0 -96 -23.5t-38 -73.5q0 -21 9 -37t20 -25.5t35 -19t40 -13.5t50 -12q46 -11 75.5 -19.5t65.5 -25t56.5 -35.5t34.5 -49.5t14 -69.5q0 -92 -69 -148t-184 -56q-92 0 -162.5 36.5t-108.5 100.5l77 49
q66 -104 201 -104q68 0 109.5 30.5t41.5 83.5q0 19 -5 34t-19.5 26.5t-25 18.5t-38 15t-41 11.5t-50.5 11.5q-49 10 -83 22t-68 33t-51.5 54.5t-17.5 78.5q0 88 65 138.5t168 50.5zM238 -200l-34 27q47 61 71 122l83 -12q-33 -75 -120 -137z" />
    <glyph glyph-name="scommaaccent" unicode="&#x219;" horiz-adv-x="518" 
d="M475 154q0 -75 -57 -120.5t-156 -45.5q-157 0 -230 111l64 48q61 -84 171 -84q55 0 88 21.5t33 62.5q0 37 -30 51t-113 30q-90 17 -138 49t-48 102q0 75 56.5 114t138.5 39q128 0 211 -87l-58 -55q-58 67 -154 67q-46 0 -78 -17.5t-32 -52.5q0 -15 7.5 -27t17 -19.5
t29.5 -14t34.5 -9.5t40.5 -8q38 -7 62 -13t54 -18t46.5 -27t28.5 -40t12 -57zM201 -200l-34 27q47 61 71 122l83 -12q-33 -75 -120 -137z" />
    <glyph glyph-name="dotlessj" unicode="&#x237;" horiz-adv-x="243" 
d="M165 520v-521q0 -90 -47 -135.5t-129 -45.5q-47 0 -80 15l24 72q26 -11 52 -11q93 0 93 103v523h87z" />
    <glyph glyph-name="schwa" unicode="&#x259;" horiz-adv-x="579" 
d="M272 451q-100 0 -145 -83l-70 47q76 117 217 117q116 0 188.5 -78t72.5 -197q0 -117 -70 -193t-184 -76q-113 0 -177.5 75t-64.5 183q0 20 3 35h402q-6 82 -53 126t-119 44zM283 63q65 0 107 39.5t52 110.5h-315q5 -65 45 -107.5t111 -42.5z" />
    <glyph glyph-name="circumflex" unicode="&#x2c6;" horiz-adv-x="324" 
d="M131 725h68q55 -50 127 -101l-24 -42q-81 27 -137 79q-56 -52 -136 -79l-25 42q78 54 127 101z" />
    <glyph glyph-name="caron" unicode="&#x2c7;" horiz-adv-x="324" 
d="M199 584h-68q-55 52 -127 101l25 42q79 -26 136 -78q57 52 137 78l24 -42q-66 -45 -127 -101z" />
    <glyph glyph-name="breve" unicode="&#x2d8;" horiz-adv-x="324" 
d="M165 591q-65 0 -106.5 33t-50.5 84l51 15q9 -30 36.5 -49t69.5 -19t69.5 19t36.5 49l50 -15q-8 -51 -50 -84t-106 -33z" />
    <glyph glyph-name="dotaccent" unicode="&#x2d9;" horiz-adv-x="320" 
d="M199 598h-78v77h78v-77z" />
    <glyph glyph-name="ring" unicode="&#x2da;" horiz-adv-x="320" 
d="M269 679q0 -42 -30.5 -72t-75.5 -30t-75.5 30t-30.5 72t30.5 72.5t75.5 30.5t75.5 -30.5t30.5 -72.5zM219 679q0 23 -16.5 40t-39.5 17t-40 -17t-17 -40q0 -24 17 -40.5t40 -16.5t39.5 16.5t16.5 40.5z" />
    <glyph glyph-name="ogonek" unicode="&#x2db;" horiz-adv-x="320" 
d="M173 32h44q-73 -49 -73 -100q0 -22 13.5 -34t36.5 -12q36 0 66 34v-67q-27 -29 -80 -29q-43 0 -72 22.5t-29 62.5q0 72 94 123z" />
    <glyph glyph-name="tilde" unicode="&#x2dc;" horiz-adv-x="332" 
d="M293 702l35 -23q-14 -38 -40 -60.5t-56 -22.5q-24 0 -67.5 19t-61.5 19q-36 0 -66 -37l-35 23q14 38 40 60.5t56 22.5q23 0 67 -19t63 -19q35 0 65 37z" />
    <glyph glyph-name="hungarumlaut" unicode="&#x2dd;" horiz-adv-x="352" 
d="M72 578l-32 29q58 62 88 120l81 -13q-15 -34 -54.5 -72.5t-82.5 -63.5zM229 578l-33 29q56 60 89 120l80 -13q-15 -34 -54 -72.5t-82 -63.5z" />
    <glyph glyph-name="Delta" unicode="&#x2206;" horiz-adv-x="606" 
d="M574 14v-14h-542v14l265 700h12zM303 534l-175 -465h350z" />
    <glyph glyph-name="Delta" unicode="&#x394;" horiz-adv-x="606" 
d="M574 14v-14h-542v14l265 700h12zM303 534l-175 -465h350z" />
    <glyph glyph-name="Omega" unicode="&#x2126;" horiz-adv-x="622" 
d="M311 678q117 0 190.5 -78.5t73.5 -201.5q0 -31 -4.5 -61t-15.5 -58.5t-20 -48.5t-27.5 -47.5t-27.5 -40t-30.5 -40.5t-26.5 -34h142v-68h-207l-18 64q90 112 127.5 180.5t37.5 151.5q0 96 -53 156t-141 60t-141 -60t-53 -156q0 -83 37.5 -152t126.5 -180l-17 -64h-207v68
h142q-5 7 -27.5 35.5t-31 40.5t-27 40t-27 48t-19.5 48.5t-15.5 58t-4.5 61.5q0 122 73 200t191 78z" />
    <glyph glyph-name="Omega" unicode="&#x3a9;" horiz-adv-x="622" 
d="M311 678q117 0 190.5 -78.5t73.5 -201.5q0 -31 -4.5 -61t-15.5 -58.5t-20 -48.5t-27.5 -47.5t-27.5 -40t-30.5 -40.5t-26.5 -34h142v-68h-207l-18 64q90 112 127.5 180.5t37.5 151.5q0 96 -53 156t-141 60t-141 -60t-53 -156q0 -83 37.5 -152t126.5 -180l-17 -64h-207v68
h142q-5 7 -27.5 35.5t-31 40.5t-27 40t-27 48t-19.5 48.5t-15.5 58t-4.5 61.5q0 122 73 200t191 78z" />
    <glyph glyph-name="pi" unicode="&#x3c0;" horiz-adv-x="595" 
d="M562 450h-70v-450h-70v450h-249v-450h-70v450h-70v70h529v-70z" />
    <glyph glyph-name="Wgrave" unicode="&#x1e80;" horiz-adv-x="942" 
d="M917 666l-186 -666h-104l-156 540l-156 -540h-107l-182 666h99l142 -547l161 547h90l161 -549l141 549h97zM528 733l-34 -29q-43 25 -82.5 63.5t-54.5 72.5l83 13q32 -58 88 -120z" />
    <glyph glyph-name="wgrave" unicode="&#x1e81;" horiz-adv-x="788" 
d="M760 520l-144 -520h-95l-126 408l-128 -408h-95l-144 520h93l105 -415l130 415h80l129 -415l106 415h89zM447 607l-34 -29q-43 25 -82.5 63.5t-54.5 72.5l83 13q32 -58 88 -120z" />
    <glyph glyph-name="Wacute" unicode="&#x1e82;" horiz-adv-x="942" 
d="M917 666l-186 -666h-104l-156 540l-156 -540h-107l-182 666h99l142 -547l161 547h90l161 -549l141 549h97zM452 704l-35 29q56 60 89 120l83 -13q-15 -34 -54.5 -72.5t-82.5 -63.5z" />
    <glyph glyph-name="wacute" unicode="&#x1e83;" horiz-adv-x="788" 
d="M760 520l-144 -520h-95l-126 408l-128 -408h-95l-144 520h93l105 -415l130 415h80l129 -415l106 415h89zM380 578l-35 29q56 60 89 120l83 -13q-15 -34 -54.5 -72.5t-82.5 -63.5z" />
    <glyph glyph-name="Wdieresis" unicode="&#x1e84;" horiz-adv-x="942" 
d="M917 666l-186 -666h-104l-156 540l-156 -540h-107l-182 666h99l142 -547l161 547h90l161 -549l141 549h97zM406 723h-76v78h76v-78zM615 723h-75v78h75v-78z" />
    <glyph glyph-name="wdieresis" unicode="&#x1e85;" horiz-adv-x="788" 
d="M760 520l-144 -520h-95l-126 408l-128 -408h-95l-144 520h93l105 -415l130 415h80l129 -415l106 415h89zM329 597h-76v78h76v-78zM538 597h-75v78h75v-78z" />
    <glyph glyph-name="Ygrave" unicode="&#x1ef2;" horiz-adv-x="614" 
d="M610 666l-256 -394v-272h-94v271l-254 395h110l193 -310l195 310h106zM362 733l-34 -29q-43 25 -82.5 63.5t-54.5 72.5l83 13q32 -58 88 -120z" />
    <glyph glyph-name="ygrave" unicode="&#x1ef3;" horiz-adv-x="535" 
d="M520 520l-208 -544q-32 -84 -71 -122t-108 -38q-62 0 -106 32l38 64q30 -20 62 -20q33 0 54 20.5t38 58.5l14 31l-220 518h100l166 -404l147 404h94zM328 607l-34 -29q-43 25 -82.5 63.5t-54.5 72.5l83 13q32 -58 88 -120z" />
    <glyph glyph-name="endash" unicode="&#x2013;" 
d="M528 266h-476v76h476v-76z" />
    <glyph glyph-name="emdash" unicode="&#x2014;" horiz-adv-x="933" 
d="M872 266h-811v76h811v-76z" />
    <glyph glyph-name="quoteleft" unicode="&#x2018;" horiz-adv-x="224" 
d="M57 425v94q0 88 79 159l32 -34q-56 -45 -56 -99v-22h52v-98h-107z" />
    <glyph glyph-name="quoteright" unicode="&#x2019;" horiz-adv-x="214" 
d="M166 666v-93q0 -89 -79 -160l-32 34q55 46 55 99v22h-51v98h107z" />
    <glyph glyph-name="quotesinglbase" unicode="&#x201a;" horiz-adv-x="246" 
d="M176 101v-93q0 -89 -79 -159l-32 33q55 44 55 99v22h-51v98h107z" />
    <glyph glyph-name="quotedblleft" unicode="&#x201c;" horiz-adv-x="410" 
d="M243 425v93q0 89 80 160l31 -34q-55 -44 -55 -99v-22h51v-98h-107zM58 425v94q0 88 79 159l32 -34q-56 -45 -56 -99v-22h52v-98h-107z" />
    <glyph glyph-name="quotedblright" unicode="&#x201d;" horiz-adv-x="398" 
d="M166 666v-93q0 -89 -79 -160l-32 34q55 46 55 99v22h-51v98h107zM351 666v-93q0 -89 -79 -160l-32 34q56 47 56 99v22h-52v98h107z" />
    <glyph glyph-name="quotedblbase" unicode="&#x201e;" horiz-adv-x="431" 
d="M176 101v-93q0 -89 -79 -159l-32 33q55 44 55 99v22h-51v98h107zM361 101v-93q0 -89 -79 -159l-32 33q56 45 56 99v22h-52v98h107z" />
    <glyph glyph-name="dagger" unicode="&#x2020;" horiz-adv-x="472" 
d="M437 442h-159v-442h-84v442h-159v75h159v149h84v-149h159v-75z" />
    <glyph glyph-name="daggerdbl" unicode="&#x2021;" horiz-adv-x="496" 
d="M449 150h-159v-150h-84v150h-159v75h159v216h-159v75h159v150h84v-150h159v-75h-159v-216h159v-75z" />
    <glyph glyph-name="bullet" unicode="&#x2022;" horiz-adv-x="368" 
d="M318 333q0 -55 -39.5 -94.5t-94.5 -39.5q-56 0 -95 39.5t-39 94.5t39 94.5t95 39.5q55 0 94.5 -39.5t39.5 -94.5z" />
    <glyph glyph-name="twodotenleader" unicode="&#x2025;" horiz-adv-x="483" 
d="M179 0h-107v106h107v-106zM411 0h-106v106h106v-106z" />
    <glyph glyph-name="ellipsis" unicode="&#x2026;" horiz-adv-x="704" 
d="M179 0h-107v106h107v-106zM405 0h-107v106h107v-106zM632 0h-107v106h107v-106z" />
    <glyph glyph-name="perthousand" unicode="&#x2030;" horiz-adv-x="1119" 
d="M351 513q0 -71 -44 -118t-113 -47t-113 47t-44 118q0 69 44 115.5t113 46.5t113 -46.5t44 -115.5zM591 666l-347 -666h-69l346 666h70zM729 155q0 -71 -43.5 -117.5t-113.5 -46.5q-68 0 -112.5 47t-44.5 117t44.5 116.5t112.5 46.5q70 0 113.5 -46.5t43.5 -116.5z
M289 513q0 43 -26.5 72t-68.5 29q-43 0 -69.5 -28.5t-26.5 -72.5t26.5 -73.5t69.5 -29.5t69 29.5t26 73.5zM668 155q0 44 -26.5 73t-69.5 29q-42 0 -68.5 -29.5t-26.5 -72.5q0 -44 26.5 -73.5t68.5 -29.5q43 0 69.5 29.5t26.5 73.5zM1085 155q0 -70 -44 -117t-113 -47
t-113 47t-44 117t44 116.5t113 46.5t113 -46.5t44 -116.5zM1023 155q0 44 -26 73t-69 29q-42 0 -68.5 -29.5t-26.5 -72.5q0 -44 26.5 -73.5t68.5 -29.5q43 0 69 29.5t26 73.5z" />
    <glyph glyph-name="guilsinglleft" unicode="&#x2039;" horiz-adv-x="275" 
d="M32 245v30l144 192l51 -40l-121 -167l121 -168l-51 -39z" />
    <glyph glyph-name="guilsinglright" unicode="&#x203a;" horiz-adv-x="276" 
d="M243 275v-30l-143 -192l-52 39l121 168l-121 167l52 40z" />
    <glyph glyph-name="fraction" unicode="&#x2044;" horiz-adv-x="223" 
d="M386 666l-481 -666h-66l481 666h66z" />
    <glyph glyph-name="zerosuperior" unicode="&#x2070;" horiz-adv-x="400" 
d="M360 548q0 -102 -36 -161t-125 -59q-88 0 -123.5 59t-35.5 161t35.5 160.5t123.5 58.5q89 0 125 -58.5t36 -160.5zM290 548q0 78 -19.5 118t-71.5 40q-51 0 -70 -40t-19 -118t19 -118.5t70 -40.5q52 0 71.5 40.5t19.5 118.5z" />
    <glyph glyph-name="foursuperior" unicode="&#x2074;" horiz-adv-x="383" 
d="M364 433h-63v-97h-68v97h-211v57q36 62 60 135t25 134h68q-3 -124 -81 -264h140v168h67v-168h63v-62z" />
    <glyph glyph-name="fivesuperior" unicode="&#x2075;" horiz-adv-x="380" 
d="M348 472q0 -58 -40.5 -101t-121.5 -43q-108 0 -160 83l59 33q30 -52 102 -52q38 0 63.5 21t25.5 60q0 38 -24.5 59t-68.5 21q-57 0 -91 -40l-40 19l13 227h259v-64h-200q-2 -30 -10 -107q37 24 87 24q66 0 106.5 -37.5t40.5 -102.5z" />
    <glyph glyph-name="sixsuperior" unicode="&#x2076;" horiz-adv-x="385" 
d="M107 474q0 -37 24.5 -59.5t67.5 -22.5q44 0 68 22.5t24 60.5t-24 61t-68 23q-43 0 -67.5 -23.5t-24.5 -61.5zM272 759q-111 -84 -149 -176q35 34 94 34q63 0 104 -38.5t41 -102.5q0 -65 -45 -106.5t-117 -41.5q-75 0 -119.5 43t-44.5 120q0 141 138 268h98z" />
    <glyph glyph-name="sevensuperior" unicode="&#x2077;" horiz-adv-x="347" 
d="M339 759v-55q-174 -216 -181 -368h-75q4 63 38 140t61.5 118t71.5 101h-239v64h324z" />
    <glyph glyph-name="eightsuperior" unicode="&#x2078;" horiz-adv-x="399" 
d="M363 453q0 -59 -45 -92t-118 -33t-118 33t-45 92q0 75 72 109q-56 27 -56 92q0 53 40.5 83t106.5 30t106.5 -30t40.5 -83q0 -59 -58 -92q74 -36 74 -109zM278 650q0 28 -22.5 42t-55.5 14t-55 -14t-22 -42q0 -30 22 -46t54 -16q33 0 56 16t23 46zM292 458q0 36 -26 54.5
t-66 18.5t-66.5 -18t-26.5 -54q0 -35 26 -52.5t67 -17.5q40 0 66 17t26 52z" />
    <glyph glyph-name="ninesuperior" unicode="&#x2079;" horiz-adv-x="385" 
d="M279 620q0 37 -25 60t-69 23q-43 0 -67 -23t-24 -61t23.5 -60.5t67.5 -22.5t69 23t25 61zM114 336q114 85 148 174q-35 -32 -93 -32q-64 0 -105 38.5t-41 101.5q0 65 45 107t117 42q75 0 119.5 -43t44.5 -120q0 -140 -137 -268h-98z" />
    <glyph glyph-name="zeroinferior" unicode="&#x2080;" horiz-adv-x="400" 
d="M360 118q0 -102 -36 -160.5t-125 -58.5q-159 0 -159 219q0 102 35.5 160.5t123.5 58.5q89 0 125 -58.5t36 -160.5zM290 118q0 78 -19.5 118.5t-71.5 40.5q-51 0 -70 -40.5t-19 -118.5t19 -118t70 -40q52 0 71.5 40t19.5 118z" />
    <glyph glyph-name="oneinferior" unicode="&#x2081;" horiz-adv-x="325" 
d="M41 -31h108v279q-42 -19 -108 -26l-10 53q97 20 135 54h52v-360h94v-62h-271v62z" />
    <glyph glyph-name="twoinferior" unicode="&#x2082;" horiz-adv-x="382" 
d="M350 -93h-311v53q129 102 175.5 151.5t46.5 90.5q0 33 -24.5 52t-59.5 19q-60 0 -96 -55l-55 34q62 85 156 85q67 0 109.5 -35t42.5 -97q0 -54 -37 -99.5t-149 -135.5h202v-63z" />
    <glyph glyph-name="threeinferior" unicode="&#x2083;" horiz-adv-x="387" 
d="M350 28q0 -57 -43.5 -93t-112.5 -36q-121 0 -168 93l64 25q30 -54 104 -54q39 0 61.5 19t22.5 49q0 28 -19.5 43.5t-54.5 15.5h-55v62h52q25 0 46 15t21 45t-24 45.5t-59 15.5q-65 0 -98 -48l-54 33q55 79 157 79q64 0 105.5 -31t41.5 -85q0 -64 -51 -92q64 -24 64 -101z
" />
    <glyph glyph-name="fourinferior" unicode="&#x2084;" horiz-adv-x="386" 
d="M365 3h-63v-96h-68v96h-211v57q82 143 85 269h68q-3 -124 -81 -264h140v169h67v-169h63v-62z" />
    <glyph glyph-name="fiveinferior" unicode="&#x2085;" horiz-adv-x="380" 
d="M348 43q0 -58 -40.5 -101t-121.5 -43q-108 0 -160 83l59 32q30 -51 102 -51q38 0 63.5 20.5t25.5 59.5q0 38 -24.5 59.5t-68.5 21.5q-56 0 -91 -41l-40 19l13 227h259v-64h-200q-2 -31 -10 -107q37 24 87 24q66 0 106.5 -37.5t40.5 -101.5z" />
    <glyph glyph-name="sixinferior" unicode="&#x2086;" horiz-adv-x="385" 
d="M107 45q0 -37 24.5 -60t67.5 -23q44 0 68 23t24 61t-24 60.5t-68 22.5q-43 0 -67.5 -23t-24.5 -61zM272 329q-110 -81 -149 -175q37 34 94 34q63 0 104 -38.5t41 -102.5q0 -65 -45 -106.5t-117 -41.5q-75 0 -119.5 42.5t-44.5 120.5q0 142 138 267h98z" />
    <glyph glyph-name="seveninferior" unicode="&#x2087;" horiz-adv-x="347" 
d="M339 329v-55q-174 -216 -181 -367h-75q3 48 20.5 100t48 103.5t51 82t51.5 72.5h-239v64h324z" />
    <glyph glyph-name="eightinferior" unicode="&#x2088;" horiz-adv-x="398" 
d="M362 24q0 -59 -45 -92t-118 -33t-118 33t-45 92q0 74 72 108q-56 27 -56 92q0 54 40.5 83.5t106.5 29.5q67 0 107 -29.5t40 -83.5q0 -60 -58 -91q74 -36 74 -109zM277 220q0 28 -22.5 42.5t-55.5 14.5t-55 -14.5t-22 -42.5q0 -30 22 -45.5t54 -15.5q33 0 56 15.5t23 45.5
zM291 28q0 37 -26 55.5t-66 18.5t-66.5 -18.5t-26.5 -54.5q0 -35 26.5 -52.5t66.5 -17.5t66 17t26 52z" />
    <glyph glyph-name="nineinferior" unicode="&#x2089;" horiz-adv-x="385" 
d="M279 190q0 38 -25 61t-69 23q-43 0 -67 -23t-24 -62q0 -38 24 -60t67 -22q44 0 69 23t25 60zM114 -93q112 83 148 173q-35 -31 -93 -31q-64 0 -105 38t-41 101q0 66 45 107.5t117 41.5q75 0 119.5 -42.5t44.5 -120.5q0 -141 -137 -267h-98z" />
    <glyph glyph-name="Euro" unicode="&#x20ac;" horiz-adv-x="720" 
d="M679 544l-73 -51q-62 99 -178 99q-79 0 -133.5 -45.5t-74.5 -123.5h264v-52h-273q-2 -24 -2 -38q0 -17 2 -39h273v-52h-263q20 -79 74 -124t133 -45q115 0 177 101l76 -48q-88 -138 -255 -138q-118 0 -199.5 69t-105.5 185h-81v52h74q-2 11 -2 39q0 26 2 38h-74v52h81
q24 116 105.5 185.5t199.5 69.5q163 0 253 -134z" />
    <glyph glyph-name="litre" unicode="&#x2113;" horiz-adv-x="481" 
d="M385 120l57 -48q-56 -84 -156 -84q-77 0 -116 43t-39 123v40q-35 -24 -68 -37l-30 70q42 17 98 55v188q0 41 4.5 72.5t18.5 65t44.5 52t77.5 18.5q67 0 102 -40.5t35 -103.5q0 -73 -56 -150.5t-145 -139.5v-88q0 -93 80 -93q57 0 93 57zM212 514v-175q123 105 123 197
q0 31 -14.5 50t-43.5 19q-65 0 -65 -91z" />
    <glyph glyph-name="afii61352" unicode="&#x2116;" horiz-adv-x="1236" 
d="M832 340q0 -65 36.5 -107t98.5 -42t98 42t36 107t-36 107.5t-98 42.5t-98.5 -42.5t-36.5 -107.5zM769 0v59h396v-59h-396zM756 340q0 96 60.5 157.5t150.5 61.5t151 -61.5t61 -157.5t-61 -156.5t-151 -60.5t-150.5 60.5t-60.5 156.5zM623 453v-453h-72l-306 517
q8 -205 8 -290q0 -127 -26 -176q-33 -63 -103 -63q-62 0 -97 41l45 48q18 -21 43 -21q35 0 48 38.5t13 117.5v454h72l306 -517q-9 192 -9 289q0 125 27 177q33 63 103 63q62 0 96 -42l-45 -48q-17 22 -43 22q-35 0 -47.5 -38t-12.5 -119z" />
    <glyph glyph-name="uni2117" unicode="&#x2117;" horiz-adv-x="782" 
d="M431 281h-100v-142h-67v383h167q61 0 97.5 -33.5t36.5 -86.5q0 -52 -35 -86.5t-99 -34.5zM497 401q0 65 -77 65h-89v-131h89q77 0 77 66zM742 333q0 -145 -103 -248t-248 -103t-248.5 103t-103.5 248t103 248t249 103q145 0 248 -103t103 -248zM688 333q0 124 -87 211
t-210 87t-210.5 -87t-87.5 -211t87 -211t211 -87q123 0 210 87t87 211z" />
    <glyph glyph-name="trademark" unicode="&#x2122;" horiz-adv-x="702" 
d="M641 385h-51v222l-75 -222h-56l-74 222v-222h-51v281h78l76 -228l77 228h76v-281zM287 617h-96v-232h-53v232h-94v49h243v-49z" />
    <glyph glyph-name="estimated" unicode="&#x212e;" horiz-adv-x="623" 
d="M584 273h-417v-187q63 -61 150 -61q65 0 113 29.5t86 94.5l36 -22q-48 -75 -101.5 -107t-133.5 -32q-119 0 -192.5 81.5t-73.5 203.5t73.5 203.5t192.5 81.5t192.5 -79.5t74.5 -205.5zM167 310h301v150q-67 62 -152 62t-149 -62v-150z" />
    <glyph glyph-name="uni2139" unicode="&#x2139;" horiz-adv-x="918" 
d="M419 554q-6 -44 -11 -73h95q34 0 57.5 24t23.5 59q0 34 -23 57t-60 23q-71 0 -82 -90zM463 34q73 0 141 38l-19 41q-35 -19 -68 -19q-32 0 -51.5 17t-19.5 51q0 30 16 84l52 174h-122l-34 -132q-27 -104 -27 -140q0 -54 35.5 -84t96.5 -30zM40 333q0 173 123 296t296 123
t296 -123t123 -296t-123 -296t-296 -123t-296 123t-123 296z" />
    <glyph glyph-name="onethird" unicode="&#x2153;" horiz-adv-x="950" 
d="M67 306h108v278q-43 -18 -108 -26l-10 54q97 18 135 54h52v-360h94v-63h-271v63zM745 666l-480 -666h-67l481 666h66zM898 121q0 -57 -43.5 -93t-112.5 -36q-121 0 -168 93l64 25q30 -54 104 -54q39 0 61.5 19t22.5 49q0 28 -19.5 43.5t-54.5 15.5h-55v62h53q24 0 45 15
t21 45t-24 45.5t-59 15.5q-65 0 -98 -48l-54 33q55 79 156 79q65 0 106.5 -30.5t41.5 -85.5q0 -64 -51 -92q64 -24 64 -101z" />
    <glyph glyph-name="twothirds" unicode="&#x2154;" horiz-adv-x="950" 
d="M755 666l-480 -666h-67l481 666h66zM908 121q0 -57 -43.5 -93t-112.5 -36q-121 0 -168 93l64 25q30 -54 104 -54q39 0 61.5 19t22.5 49q0 28 -19.5 43.5t-54.5 15.5h-55v62h53q24 0 45 15t21 45t-24 45.5t-59 15.5q-65 0 -98 -48l-54 33q55 79 156 79q65 0 106.5 -30.5
t41.5 -85.5q0 -64 -51 -92q64 -24 64 -101zM367 244h-311v53q129 102 175.5 151.5t46.5 90.5q0 33 -24.5 52t-59.5 19q-59 0 -96 -54l-55 33q60 85 156 85q67 0 109.5 -35t42.5 -96q0 -55 -37 -100t-149 -135h202v-64z" />
    <glyph glyph-name="uni2155" unicode="&#x2155;" horiz-adv-x="950" 
d="M64 306h108v278q-43 -18 -108 -26l-10 54q97 18 135 54h52v-360h94v-63h-271v63zM742 666l-480 -666h-67l481 666h66zM898 136q0 -58 -40.5 -101t-120.5 -43q-108 0 -160 83l59 32q30 -51 102 -51q38 0 63.5 20.5t25.5 59.5q0 38 -25 59.5t-69 21.5q-55 0 -90 -41l-40 19
l13 227h258v-64h-199q-1 -20 -5 -56.5t-5 -50.5q37 24 87 24q66 0 106 -37.5t40 -101.5z" />
    <glyph glyph-name="uni2156" unicode="&#x2156;" horiz-adv-x="950" 
d="M753 666l-480 -666h-67l481 666h66zM909 136q0 -58 -40.5 -101t-120.5 -43q-108 0 -160 83l59 32q30 -51 102 -51q38 0 63.5 20.5t25.5 59.5q0 38 -25 59.5t-69 21.5q-55 0 -90 -41l-40 19l13 227h258v-64h-199q-1 -20 -5 -56.5t-5 -50.5q37 24 87 24q66 0 106 -37.5
t40 -101.5zM365 244h-311v53q129 102 175.5 151.5t46.5 90.5q0 33 -24.5 52t-59.5 19q-59 0 -96 -54l-55 33q60 85 156 85q67 0 109.5 -35t42.5 -96q0 -55 -37 -100t-149 -135h202v-64z" />
    <glyph glyph-name="uni2157" unicode="&#x2157;" horiz-adv-x="950" 
d="M752 666l-480 -666h-67l481 666h66zM908 136q0 -58 -40.5 -101t-120.5 -43q-108 0 -160 83l59 32q30 -51 102 -51q38 0 63.5 20.5t25.5 59.5q0 38 -25 59.5t-69 21.5q-55 0 -90 -41l-40 19l13 227h258v-64h-199q-1 -20 -5 -56.5t-5 -50.5q37 24 87 24q66 0 106 -37.5
t40 -101.5zM362 365q0 -57 -44 -93t-112 -36q-121 0 -168 93l64 25q30 -54 104 -54q39 0 61.5 19t22.5 49q0 28 -19.5 43.5t-54.5 15.5h-55v62h52q25 0 46 15.5t21 44.5q0 30 -24 45.5t-59 15.5q-65 0 -98 -48l-54 34q55 78 156 78q65 0 106.5 -30.5t41.5 -85.5
q0 -63 -51 -92q64 -24 64 -101z" />
    <glyph glyph-name="uni2158" unicode="&#x2158;" horiz-adv-x="950" 
d="M754 666l-480 -666h-67l481 666h66zM910 136q0 -58 -40.5 -101t-120.5 -43q-108 0 -160 83l59 32q30 -51 102 -51q38 0 63.5 20.5t25.5 59.5q0 38 -25 59.5t-69 21.5q-55 0 -90 -41l-40 19l13 227h258v-64h-199q-1 -20 -5 -56.5t-5 -50.5q37 24 87 24q66 0 106 -37.5
t40 -101.5zM376 340h-63v-97h-68v97h-211v57q36 62 60 135t25 134h68q-3 -124 -81 -264h140v168h67v-168h63v-62z" />
    <glyph glyph-name="uni2159" unicode="&#x2159;" horiz-adv-x="950" 
d="M72 306h108v278q-43 -18 -108 -26l-10 54q97 18 135 54h52v-360h94v-63h-271v63zM750 666l-480 -666h-67l481 666h66zM647 138q0 -37 24.5 -60t67.5 -23t67.5 23t24.5 61t-24.5 60.5t-67.5 22.5t-67.5 -23t-24.5 -61zM812 422q-110 -81 -149 -175q37 34 93 34
q64 0 105 -38.5t41 -102.5q0 -65 -45 -106.5t-117 -41.5q-75 0 -119.5 42.5t-44.5 120.5q0 143 138 267h98z" />
    <glyph glyph-name="uni215A" unicode="&#x215a;" horiz-adv-x="950" 
d="M758 666l-480 -666h-67l481 666h66zM367 380q0 -58 -40.5 -101t-121.5 -43q-108 0 -160 83l59 33q30 -52 102 -52q38 0 63.5 21t25.5 60q0 38 -24.5 59t-68.5 21q-58 0 -91 -41l-40 20l13 226h259v-63h-200q-2 -34 -10 -107q37 24 87 24q66 0 106.5 -37.5t40.5 -102.5z
M655 138q0 -37 24.5 -60t67.5 -23t67.5 23t24.5 61t-24.5 60.5t-67.5 22.5t-67.5 -23t-24.5 -61zM820 422q-110 -81 -149 -175q37 34 93 34q64 0 105 -38.5t41 -102.5q0 -65 -45 -106.5t-117 -41.5q-75 0 -119.5 42.5t-44.5 120.5q0 143 138 267h98z" />
    <glyph glyph-name="oneeighth" unicode="&#x215b;" horiz-adv-x="950" 
d="M900 117q0 -59 -45 -92t-118 -33t-118 33t-45 92q0 74 72 108q-56 27 -56 92q0 53 40.5 83t106.5 30q67 0 107 -29.5t40 -83.5q0 -59 -57 -91q73 -36 73 -109zM815 313q0 28 -22 42.5t-55 14.5t-55.5 -14.5t-22.5 -42.5q0 -30 22.5 -45.5t54.5 -15.5q33 0 55.5 15.5
t22.5 45.5zM829 121q0 37 -26 55.5t-66 18.5t-66 -18.5t-26 -54.5q0 -35 26 -52.5t66 -17.5t66 17t26 52zM742 666l-480 -666h-67l481 666h66zM64 306h108v279q-42 -19 -108 -26l-10 54q96 18 135 53h52v-360h94v-62h-271v62z" />
    <glyph glyph-name="threeeighths" unicode="&#x215c;" horiz-adv-x="950" 
d="M910 117q0 -59 -45 -92t-118 -33t-118 33t-45 92q0 74 72 108q-56 27 -56 92q0 53 40.5 83t106.5 30q67 0 107 -29.5t40 -83.5q0 -59 -57 -91q73 -36 73 -109zM825 313q0 28 -22 42.5t-55 14.5t-55.5 -14.5t-22.5 -42.5q0 -30 22.5 -45.5t54.5 -15.5q33 0 55.5 15.5
t22.5 45.5zM839 121q0 37 -26 55.5t-66 18.5t-66 -18.5t-26 -54.5q0 -35 26 -52.5t66 -17.5t66 17t26 52zM752 666l-480 -666h-67l481 666h66zM362 365q0 -57 -44 -93t-112 -36q-121 0 -168 93l64 25q30 -54 104 -54q39 0 61.5 19t22.5 49q0 28 -19.5 43.5t-54.5 15.5h-55
v62h52q25 0 46 15.5t21 44.5q0 30 -24 45.5t-59 15.5q-65 0 -98 -48l-54 34q55 78 156 78q65 0 106.5 -30.5t41.5 -85.5q0 -63 -51 -92q64 -24 64 -101z" />
    <glyph glyph-name="fiveeighths" unicode="&#x215d;" horiz-adv-x="950" 
d="M908 117q0 -59 -45 -92t-118 -33t-118 33t-45 92q0 74 72 108q-56 27 -56 92q0 53 40.5 83t106.5 30q67 0 107 -29.5t40 -83.5q0 -59 -57 -91q73 -36 73 -109zM823 313q0 28 -22 42.5t-55 14.5t-55.5 -14.5t-22.5 -42.5q0 -30 22.5 -45.5t54.5 -15.5q33 0 55.5 15.5
t22.5 45.5zM837 121q0 37 -26 55.5t-66 18.5t-66 -18.5t-26 -54.5q0 -35 26 -52.5t66 -17.5t66 17t26 52zM750 666l-480 -666h-67l481 666h66zM360 380q0 -58 -40.5 -101t-121.5 -43q-106 0 -160 83l59 33q31 -52 102 -52q38 0 64 21t26 60q0 38 -25 59t-69 21
q-58 0 -90 -41l-41 20l14 226h258v-63h-199q-1 -18 -4.5 -53.5t-5.5 -53.5q36 24 86 24q66 0 106.5 -37.5t40.5 -102.5z" />
    <glyph glyph-name="seveneighths" unicode="&#x215e;" horiz-adv-x="950" 
d="M876 117q0 -59 -45 -92t-118 -33t-118 33t-45 92q0 74 72 108q-56 27 -56 92q0 53 40.5 83t106.5 30q67 0 107 -29.5t40 -83.5q0 -59 -57 -91q73 -36 73 -109zM791 313q0 28 -22 42.5t-55 14.5t-55.5 -14.5t-22.5 -42.5q0 -30 22.5 -45.5t54.5 -15.5q33 0 55.5 15.5
t22.5 45.5zM805 121q0 37 -26 55.5t-66 18.5t-66 -18.5t-26 -54.5q0 -35 26 -52.5t66 -17.5t66 17t26 52zM718 666l-480 -666h-67l481 666h66zM383 666v-55q-174 -216 -181 -367h-75q4 63 38 139.5t62 118.5t71 101h-238v63h323z" />
    <glyph glyph-name="arrowleft" unicode="&#x2190;" horiz-adv-x="918" 
d="M418 2l-330 331l330 330l52 -52l-241 -241h588v-74h-588l241 -242z" />
    <glyph glyph-name="arrowup" unicode="&#x2191;" horiz-adv-x="918" 
d="M112 382l347 347l346 -347l-51 -52l-258 257v-587h-74v587l-258 -257z" />
    <glyph glyph-name="arrowright" unicode="&#x2192;" horiz-adv-x="918" 
d="M830 333l-330 -331l-52 52l240 242h-587v74h587l-240 241l52 52z" />
    <glyph glyph-name="arrowdown" unicode="&#x2193;" horiz-adv-x="918" 
d="M459 -15l-347 346l52 52l258 -257v588h74v-588l258 257l51 -52z" />
    <glyph glyph-name="uni2196" unicode="&#x2196;" horiz-adv-x="918" 
d="M682 600v-72h-365l417 -416l-53 -53l-417 416v-365h-73v490h491z" />
    <glyph glyph-name="uni2197" unicode="&#x2197;" horiz-adv-x="918" 
d="M236 528v72h490v-490h-72v365l-417 -416l-53 53l417 416h-365z" />
    <glyph glyph-name="uni2198" unicode="&#x2198;" horiz-adv-x="918" 
d="M236 66v73h365l-417 416l53 53l417 -417v365h72v-490h-490z" />
    <glyph glyph-name="uni2199" unicode="&#x2199;" horiz-adv-x="918" 
d="M682 139v-73h-491v490h73v-365l417 417l53 -53l-417 -416h365z" />
    <glyph glyph-name="partialdiff" unicode="&#x2202;" horiz-adv-x="593" 
d="M272 494q99 0 158 -62q-33 70 -98 132t-143 102l59 59q130 -71 216 -188t86 -266q0 -131 -72.5 -207t-187.5 -76q-114 0 -184 72t-70 184q0 108 66 179t170 71zM462 241q0 76 -45.5 125.5t-124.5 49.5t-121.5 -50t-42.5 -125q0 -76 42 -125t122 -49t125 49.5t45 124.5z
" />
    <glyph glyph-name="product" unicode="&#x220f;" horiz-adv-x="609" 
d="M569 596h-70v-596h-70v596h-249v-596h-70v596h-70v70h529v-70z" />
    <glyph glyph-name="summation" unicode="&#x2211;" horiz-adv-x="564" 
d="M517 69v-69h-481v24l302 309l-302 309v24h481v-70h-341l258 -263l-258 -264h341z" />
    <glyph glyph-name="minus" unicode="&#x2212;" 
d="M528 266h-476v76h476v-76z" />
    <glyph glyph-name="asteriskmath" unicode="&#x2217;" horiz-adv-x="588" 
d="M265 202q13 49 14 106q-52 -34 -84 -66q-9 -9 -26 -27.5t-28 -29t-21 -15.5q-13 -7 -27 -7q-29 0 -46 27q-8 14 -8 29q0 29 27 45q11 6 25.5 10.5t38 9.5t36.5 9q44 12 99 40q-50 26 -99 40q-13 4 -36 9t-38 9.5t-26 10.5q-27 15 -27 45q0 15 8 29q17 27 46 27
q14 0 27 -7q10 -5 20 -15t27.5 -28.5t27.5 -28.5q36 -36 84 -66q-1 56 -14 106q-3 12 -10.5 34.5t-11 38t-3.5 27.5q0 24 15 39t39 15t39 -15t15 -39q0 -12 -3.5 -27.5t-11 -38t-10.5 -34.5q-12 -46 -15 -106q48 29 85 66q9 9 26 27.5t28 28.5t21 16q13 7 27 7q29 0 46 -27
q8 -14 8 -29q0 -30 -27 -45q-11 -6 -26.5 -11t-39 -10t-34.5 -8q-47 -13 -100 -40q57 -29 100 -40q15 -4 40 -9.5t37.5 -9.5t22.5 -10q27 -16 27 -45q0 -15 -8 -29q-17 -27 -46 -27q-14 0 -27 7q-10 5 -20 15t-27.5 28.5t-27.5 28.5q-33 33 -85 66q3 -58 15 -106
q4 -15 11 -37.5t10.5 -36t3.5 -25.5q0 -25 -15 -40t-39 -15t-39 15t-15 40q0 12 3.5 25.5t10.5 36t11 37.5z" />
    <glyph glyph-name="radical" unicode="&#x221a;" 
d="M524 740l63 -31l-374 -763h-12l-189 382l62 31l132 -269z" />
    <glyph glyph-name="infinity" unicode="&#x221e;" horiz-adv-x="784" 
d="M739 275q0 -68 -48 -116t-116 -48q-66 0 -113 47l-70 70l-71 -70q-47 -47 -113 -47q-68 0 -115.5 48t-47.5 116q0 67 47.5 115t115.5 48q67 0 113 -46l71 -71l70 71q46 46 113 46q68 0 116 -47.5t48 -115.5zM671 275q0 39 -28 67t-68 28q-16 0 -31 -5.5t-30.5 -17.5
t-25 -21t-26.5 -27t-23 -24l67 -67q30 -29 69 -29q40 0 68 28t28 68zM345 275l-67 66q-29 29 -70 29q-39 0 -67 -28t-28 -67q0 -40 28 -68t67 -28q16 0 31 5.5t30.5 17.5t25.5 21t27 27.5t23 24.5z" />
    <glyph glyph-name="integral" unicode="&#x222b;" horiz-adv-x="311" 
d="M290 686l-42 -45q-19 22 -41 22q-41 0 -41 -60q0 -33 27 -301q25 -254 25 -303q0 -60 -27.5 -92t-76.5 -32q-53 0 -90 39l42 45q18 -22 41 -22q41 0 41 60q0 31 -27 301q-25 254 -25 302q0 60 27.5 92.5t76.5 32.5q53 0 90 -39z" />
    <glyph glyph-name="approxequal" unicode="&#x2248;" 
d="M71 158l-33 32q67 90 139 90q36 0 117 -34q75 -33 113 -33q55 0 106 49l32 -32q-65 -90 -138 -90q-36 0 -117 34q-75 33 -113 33q-53 0 -106 -49zM71 346l-33 34q68 89 139 89q36 0 117 -34q78 -34 113 -34q56 0 106 50l32 -33q-66 -89 -138 -89q-36 0 -117 34
q-79 33 -113 33q-54 0 -106 -50z" />
    <glyph glyph-name="notequal" unicode="&#x2260;" 
d="M556 159h-274l-57 -169h-60l57 169h-197v72h220l30 90h-250v73h274l57 170h60l-56 -170h196v-73h-221l-30 -90h251v-72z" />
    <glyph glyph-name="lessequal" unicode="&#x2264;" 
d="M528 0h-476v73h476v-73zM60 378l406 254l38 -64l-311 -190l311 -190l-38 -64z" />
    <glyph glyph-name="greaterequal" unicode="&#x2265;" 
d="M527 0h-476v73h476v-73zM113 632l407 -254l-407 -254l-38 64l311 190l-311 190z" />
    <glyph glyph-name="uni229B" unicode="&#x229b;" horiz-adv-x="918" 
d="M878 333q0 -173 -123 -296t-296 -123t-296 123t-123 296t123 296t296 123t296 -123t123 -296zM828 333q0 152 -108.5 260.5t-260.5 108.5t-260.5 -108.5t-108.5 -260.5t108.5 -260.5t260.5 -108.5t260.5 108.5t108.5 260.5zM430 202q13 49 14 106q-52 -34 -84 -66
q-9 -9 -26 -27.5t-28 -29t-21 -15.5q-13 -7 -27 -7q-29 0 -46 27q-8 14 -8 29q0 29 27 45q11 6 25.5 10.5t38 9.5t36.5 9q44 12 99 40q-50 26 -99 40q-13 4 -36 9t-38 9.5t-26 10.5q-27 15 -27 45q0 15 8 29q17 27 46 27q14 0 27 -7q10 -5 20 -15t27.5 -28.5t27.5 -28.5
q36 -36 84 -66q-1 56 -14 106q-3 12 -10.5 34.5t-11 38t-3.5 27.5q0 24 15 39t39 15t39 -15t15 -39q0 -12 -3.5 -27.5t-11 -38t-10.5 -34.5q-12 -46 -15 -106q48 29 85 66q9 9 26 27.5t28 28.5t21 16q13 7 27 7q29 0 46 -27q8 -14 8 -29q0 -30 -27 -45q-11 -6 -26.5 -11
t-39 -10t-34.5 -8q-47 -13 -100 -40q57 -29 100 -40q15 -4 40 -9.5t37.5 -9.5t22.5 -10q27 -16 27 -45q0 -15 -8 -29q-17 -27 -46 -27q-14 0 -27 7q-10 5 -20 15t-27.5 28.5t-27.5 28.5q-33 33 -85 66q3 -58 15 -106q4 -15 11 -37.5t10.5 -36t3.5 -25.5q0 -25 -15 -40
t-39 -15t-39 15t-15 40q0 12 3.5 25.5t10.5 36t11 37.5z" />
    <glyph glyph-name="filledbox" unicode="&#x25a0;" horiz-adv-x="766" 
d="M50 666h666v-666h-666v666z" />
    <glyph glyph-name="H22073" unicode="&#x25a1;" horiz-adv-x="766" 
d="M50 666h666v-666h-666v666zM666 616h-566v-566h566v566z" />
    <glyph glyph-name="triagup" unicode="&#x25b2;" horiz-adv-x="532" 
d="M266 720l234 -720h-468z" />
    <glyph glyph-name="uni25B6" unicode="&#x25b6;" horiz-adv-x="469" 
d="M70 -20v706l353 -353z" />
    <glyph glyph-name="uni25B7" unicode="&#x25b7;" horiz-adv-x="469" 
d="M70 -20v706l353 -353zM114 580v-494l247 247z" />
    <glyph glyph-name="triagrt" unicode="&#x25ba;" horiz-adv-x="830" 
d="M790 333l-720 -234v468z" />
    <glyph glyph-name="uni25BB" unicode="&#x25bb;" horiz-adv-x="830" 
d="M790 333l-720 -234v468zM110 154l552 179l-552 179v-358z" />
    <glyph glyph-name="triagdn" unicode="&#x25bc;" horiz-adv-x="532" 
d="M266 -54l-234 720h468z" />
    <glyph glyph-name="uni25C0" unicode="&#x25c0;" horiz-adv-x="469" 
d="M399 686v-706l-353 353z" />
    <glyph glyph-name="uni25C1" unicode="&#x25c1;" horiz-adv-x="469" 
d="M399 686v-706l-353 353zM355 86v494l-247 -247z" />
    <glyph glyph-name="triaglf" unicode="&#x25c4;" horiz-adv-x="830" 
d="M40 333l720 234v-468z" />
    <glyph glyph-name="uni25C5" unicode="&#x25c5;" horiz-adv-x="830" 
d="M40 333l720 234v-468zM720 512l-552 -179l552 -179v358z" />
    <glyph glyph-name="lozenge" unicode="&#x25ca;" horiz-adv-x="609" 
d="M561 333l-255 -381h-12l-255 381l255 381h12zM477 333l-177 265l-178 -265l178 -266z" />
    <glyph glyph-name="circle" unicode="&#x25cb;" horiz-adv-x="766" 
d="M30 333q0 146 103.5 249.5t249.5 103.5t249.5 -103.5t103.5 -249.5t-103.5 -249.5t-249.5 -103.5t-249.5 103.5t-103.5 249.5zM80 333q0 -125 89 -214t214 -89t214 89t89 214t-89 214t-214 89t-214 -89t-89 -214z" />
    <glyph glyph-name="H18533" unicode="&#x25cf;" horiz-adv-x="766" 
d="M30 333q0 146 103.5 249.5t249.5 103.5t249.5 -103.5t103.5 -249.5t-103.5 -249.5t-249.5 -103.5t-249.5 103.5t-103.5 249.5z" />
    <glyph glyph-name="uni2605" unicode="&#x2605;" horiz-adv-x="846" 
d="M516 434h298l-241 -175l92 -285l-242 175l-242 -175l92 285l-241 175h298l93 284z" />
    <glyph glyph-name="uni2606" unicode="&#x2606;" horiz-adv-x="846" 
d="M516 434h298l-241 -175l92 -285l-242 175l-242 -175l92 285l-241 175h298l93 284zM765 418h-260l-82 251v-500l212 -154l-81 250z" />
    <glyph glyph-name="uni271A" unicode="&#x271a;" horiz-adv-x="766" 
d="M272 0v222h-222v222h222v222h222v-222h222v-222h-222v-222h-222z" />
    <glyph glyph-name="uni2765" unicode="&#x2765;" horiz-adv-x="552" 
d="M339 334v-3q72 0 122.5 -49.5t50.5 -120.5t-51 -122t-122 -51t-122 51q-7 7 -13.5 15t-13 18t-11 17t-12 20.5t-10.5 19.5t-11 23t-11 22q-79 154 -135 154v10q56 0 135 154q4 7 14 27.5t15.5 31t14.5 26t18.5 28t19.5 22.5q51 51 122 51t122 -51t51 -122t-51 -121
t-122 -50z" />
    <glyph glyph-name="uni3008" unicode="&#x3008;" horiz-adv-x="297" 
d="M274 -8l-65 -33l-190 370v8l190 370l65 -33l-175 -341z" />
    <glyph glyph-name="uni3009" unicode="&#x3009;" horiz-adv-x="297" 
d="M23 674l65 33l190 -370v-8l-190 -370l-65 33l175 341z" />
    <glyph glyph-name="uni300A" unicode="&#x300a;" horiz-adv-x="467" 
d="M209 707l65 -33l-175 -341l175 -341l-65 -33l-190 370v8zM379 707l65 -33l-175 -341l175 -341l-65 -33l-190 370v8z" />
    <glyph glyph-name="uni300B" unicode="&#x300b;" horiz-adv-x="467" 
d="M193 674l65 33l190 -370v-8l-190 -370l-65 33l175 341zM23 674l65 33l190 -370v-8l-190 -370l-65 33l175 341z" />
    <glyph glyph-name="s_t" unicode="&#xfb06;" horiz-adv-x="899" 
d="M254 532q53 0 107 -21q-1 14 2 31q6 75 57.5 129t141.5 54q65 0 102 -29.5t37 -89.5v-86h168v-74h-168v-289q0 -90 79 -90q40 0 68 22l37 -66q-45 -35 -113 -35q-96 0 -136 66q-22 34 -22 103v289h-90v74h90v81q0 57 -69 57q-57 0 -85.5 -38.5t-28.5 -92.5q0 -51 26 -90
l-60 -44q-58 64 -144 64q-46 0 -78 -17.5t-32 -52.5q0 -15 7.5 -27t17 -19.5t29.5 -14t34.5 -9.5t40.5 -8q38 -7 62 -13t54 -18t46.5 -27t28.5 -40t12 -57q0 -75 -57 -120.5t-156 -45.5q-77 0 -136.5 29t-93.5 82l67 43q56 -79 166 -79q56 0 89.5 21.5t33.5 61.5
q0 16 -6.5 27.5t-15.5 19t-30.5 14.5t-38.5 10.5t-52 10.5q-90 17 -138 49t-48 101q0 76 56 115t139 39z" />
    <glyph glyph-name="u1F4D5" unicode="&#x1f4d5;" horiz-adv-x="876" 
d="M682 374q0 80 -45 127t-125 47q-82 0 -129.5 -49.5t-47.5 -126.5q0 -78 47.5 -126.5t133.5 -48.5q92 0 161 63l-63 57q-42 -39 -92 -39q-36 0 -59 19t-25 53h243q1 7 1 24zM304 -8h458q-12 19 -12 44q0 24 12 44h-458q-18 0 -31 -13t-13 -31t13 -31t31 -13zM587 410h-148
q2 32 22 49t52 17t51.5 -17t22.5 -49zM345 666h453v-714h-494q-34 0 -59 25t-25 59v505q0 52 36.5 88.5t88.5 36.5zM345 746v-40q-68 0 -116.5 -48.5t-48.5 -116.5h-40q0 85 60 145t145 60zM345 826v-40q-101 0 -173 -72t-72 -173h-40q0 118 83.5 201.5t201.5 83.5z" />
    <glyph glyph-name="u1F4D6" unicode="&#x1f4d6;" horiz-adv-x="918" 
d="M449 76v342q0 40 -65.5 86t-177.5 46v-342q108 0 170.5 -46t62.5 -86h10zM469 418v-342h10q0 40 62.5 86t170.5 46v342q-112 0 -177.5 -46t-65.5 -86zM78 80v506q0 53 37.5 90.5t90.5 37.5h506q53 0 90.5 -37.5t37.5 -90.5v-506q0 -53 -37.5 -90.5t-90.5 -37.5h-506
q-53 0 -90.5 37.5t-37.5 90.5z" />
    <glyph glyph-name="u1F50C" unicode="&#x1f50c;" horiz-adv-x="918" 
d="M459 633q-30 0 -57 -6v-116h-169v-117h169v-122h-169v-117h169v-117q30 -5 57 -5q108 0 190 67.5t103 171.5h121q-22 -152 -139.5 -255t-274.5 -103q-173 0 -296 123t-123 296t123 296t296 123q157 0 274.5 -103t139.5 -255h-121q-21 103 -103 171t-190 68z" />
    <glyph glyph-name="u1F697" unicode="&#x1f697;" horiz-adv-x="1272" 
d="M168 78q-118 0 -118 180q0 142 66.5 250t176 162.5t242.5 54.5q152 0 258 -74t147 -211q132 -15 212 -74t80 -157q0 -58 -28 -94.5t-75 -36.5h-15q-13 -42 -47.5 -68t-79.5 -26q-44 0 -79 26t-48 68h-438q-13 -42 -47.5 -68t-79.5 -26q-44 0 -79 26t-48 68zM404 412h262
q93 0 134 10.5t41 41.5q0 17 -10 35q-37 72 -119.5 114t-176.5 42t-176.5 -42t-119.5 -114q-10 -18 -10 -35q0 -31 41 -41.5t134 -10.5z" />
    <glyph glyph-name="u1F698" unicode="&#x1f698;" horiz-adv-x="962" 
d="M307 78v-31q0 -34 -20.5 -46.5t-64.5 -12.5t-64 12.5t-20 46.5v31q-39 30 -59.5 74.5t-20.5 129.5q0 209 117.5 326t305.5 117t305.5 -117t117.5 -326q0 -85 -20.5 -129.5t-59.5 -74.5v-31q0 -34 -20 -46.5t-64 -12.5t-64.5 12.5t-20.5 46.5v31h-348zM350 412h262
q93 0 134 10.5t41 41.5q0 17 -10 35q-37 72 -119.5 114t-176.5 42t-176.5 -42t-119.5 -114q-10 -18 -10 -35q0 -31 41 -41.5t134 -10.5zM808 264q0 30 -21 51t-51 21t-51 -21t-21 -51t21 -51t51 -21t51 21t21 51zM154 264q0 -30 21 -51t51 -21t51 21t21 51t-21 51t-51 21
t-51 -21t-21 -51z" />
    <glyph glyph-name="J.alt1" horiz-adv-x="505" 
d="M422 209q0 -106 -58.5 -163.5t-156.5 -57.5q-127 0 -188 100l75 48q42 -62 117 -62q117 0 117 134v372h-194v86h288v-457z" />
    <glyph glyph-name="Q.alt1" horiz-adv-x="745" 
d="M698 333q0 -164 -105 -261l77 -90l-68 -56l-79 96q-68 -34 -151 -34q-147 0 -236 97.5t-89 247.5t89 247.5t236 97.5t236.5 -97.5t89.5 -247.5zM599 333q0 115 -61.5 186t-165.5 71q-105 0 -166 -71t-61 -186t61 -186.5t166 -71.5q104 0 165.5 71.5t61.5 186.5z" />
    <glyph glyph-name="a.alt1" horiz-adv-x="654" 
d="M556 520v-404q0 -30 9 -43t31 -13q19 0 32 8l11 -66q-26 -10 -60 -10q-40 0 -69 21.5t-37 66.5q-63 -92 -186 -92q-112 0 -177 76.5t-65 194.5q0 119 65 196t174 77q116 0 185 -98v86h87zM469 260q0 83 -44.5 137t-123.5 54t-121.5 -53.5t-42.5 -137.5t42 -138t121 -54
q80 0 124.5 54.5t44.5 137.5z" />
    <glyph glyph-name="l.alt1" horiz-adv-x="280" 
d="M79 127v587h87v-588q0 -33 12 -46.5t37 -13.5q29 0 44 11l19 -70q-26 -17 -74 -17q-73 0 -104 44q-21 30 -21 93z" />
    <glyph glyph-name="y.alt1" horiz-adv-x="598" 
d="M433 45v77q-69 -97 -178 -97q-84 0 -133 52.5t-49 144.5v298h87v-278q0 -135 115 -135q68 0 113 45t45 117v251h87v-458q0 -112 -53 -170q-68 -76 -202 -76q-116 0 -200 62l43 69q66 -52 159 -52q73 0 119.5 36.5t46.5 113.5z" />
    <glyph glyph-name="a.sc" horiz-adv-x="592" 
d="M576 0h-93l-62 148h-255l-62 -148h-88l231 547h98zM393 221l-99 250l-99 -250h198z" />
    <glyph glyph-name="b.sc" horiz-adv-x="577" 
d="M527 157q0 -69 -47.5 -113t-134.5 -44h-262v547h249q78 0 125.5 -35.5t47.5 -97.5q0 -80 -76 -117q98 -40 98 -140zM416 400q0 36 -24.5 53.5t-62.5 17.5h-159v-148h156q42 0 66 21.5t24 55.5zM437 161q0 41 -25.5 65.5t-73.5 24.5h-168v-177h171q44 0 70 24t26 63z" />
    <glyph glyph-name="c.sc" horiz-adv-x="581" 
d="M322 65q101 0 152 84l70 -45q-73 -116 -223 -116q-122 0 -198 80.5t-76 204.5t76 205t198 81q145 0 222 -114l-70 -47q-48 84 -151 84q-84 0 -134 -59.5t-50 -149.5t50 -149t134 -59z" />
    <glyph glyph-name="d.sc" horiz-adv-x="624" 
d="M83 547h224q126 0 197 -76t71 -197q0 -122 -70.5 -198t-197.5 -76h-224v547zM307 470h-136v-393h136q85 0 131 54t46 143t-46 142.5t-131 53.5z" />
    <glyph glyph-name="e.sc" horiz-adv-x="542" 
d="M494 0h-411v547h401v-77h-313v-146h275v-73h-275v-176h323v-75z" />
    <glyph glyph-name="f.sc" horiz-adv-x="527" 
d="M493 470h-322v-152h274v-73h-274v-245h-88v547h410v-77z" />
    <glyph glyph-name="g.sc" horiz-adv-x="622" 
d="M324 482q-85 0 -135 -59t-50 -151q0 -91 50 -149t136 -58q75 0 122 41.5t52 105.5h-173v73h254q3 -15 3 -39q0 -108 -69.5 -183t-190.5 -75q-125 0 -200.5 80.5t-75.5 204.5q0 125 76 205.5t200 80.5q145 0 222 -114l-70 -47q-48 84 -151 84z" />
    <glyph glyph-name="h.sc" horiz-adv-x="633" 
d="M550 0h-88v250h-291v-250h-88v547h88v-220h291v220h88v-547z" />
    <glyph glyph-name="i.sc" horiz-adv-x="254" 
d="M171 0h-88v547h88v-547z" />
    <glyph glyph-name="j.sc" horiz-adv-x="434" 
d="M357 170q0 -86 -49 -134t-134 -48q-112 0 -164 86l69 44q35 -54 98 -54q93 0 93 106v377h87v-377z" />
    <glyph glyph-name="jsc.alt1" horiz-adv-x="439" 
d="M362 170q0 -86 -49 -134t-134 -48q-112 0 -164 86l69 44q34 -54 98 -54q93 0 93 106v299h-159v78h246v-377z" />
    <glyph glyph-name="k.sc" horiz-adv-x="567" 
d="M556 0h-108l-187 253l-91 -99v-154h-87v547h87v-288l258 288h109l-216 -234z" />
    <glyph glyph-name="l.sc" horiz-adv-x="498" 
d="M477 0h-394v547h87v-470h307v-77z" />
    <glyph glyph-name="m.sc" horiz-adv-x="764" 
d="M681 0h-84v451l-181 -451h-68l-181 450v-450h-84v547h126l175 -437l173 437h124v-547z" />
    <glyph glyph-name="n.sc" horiz-adv-x="633" 
d="M550 0h-107l-278 444v-444h-82v547h114l270 -435v435h83v-547z" />
    <glyph glyph-name="o.sc" horiz-adv-x="644" 
d="M322 559q124 0 199.5 -81t75.5 -204t-75.5 -204.5t-199.5 -81.5t-199.5 81t-75.5 204t75.5 204.5t199.5 81.5zM322 67q84 0 134 59t50 148t-50 147.5t-134 58.5t-133.5 -58.5t-49.5 -148.5q0 -89 49.5 -147.5t133.5 -58.5z" />
    <glyph glyph-name="p.sc" horiz-adv-x="552" 
d="M520 375q0 -75 -47 -121t-128 -49q-42 -2 -62 -2h-113v-203h-87v547h247q87 0 138.5 -46.5t51.5 -125.5zM431 375q0 45 -27.5 69.5t-77.5 24.5h-156v-189h160q49 0 75 25.5t26 69.5z" />
    <glyph glyph-name="q.sc" horiz-adv-x="644" 
d="M571 -16l-56 -48l-68 79q-57 -27 -125 -27q-124 0 -199.5 81t-75.5 204t75.5 204.5t199.5 81.5t199.5 -81.5t75.5 -203.5q0 -135 -89 -218zM322 65q37 0 71 16l-58 68l53 46l63 -73q55 57 55 151q0 89 -50 148t-134 59t-133.5 -59t-49.5 -149t49.5 -148.5t133.5 -58.5z
" />
    <glyph glyph-name="qsc.alt1" horiz-adv-x="645" 
d="M322 559q124 0 199.5 -81.5t75.5 -203.5q0 -128 -85 -211l64 -74l-61 -53l-69 81q-55 -29 -124 -29q-124 0 -199.5 81t-75.5 204t75.5 204.5t199.5 81.5zM322 67q84 0 134 59t50 148t-50 147.5t-134 58.5t-133.5 -58.5t-49.5 -148.5q0 -89 49.5 -147.5t133.5 -58.5z" />
    <glyph glyph-name="r.sc" horiz-adv-x="579" 
d="M537 0h-97l-117 216h-153v-216h-87v547h251q88 0 138.5 -44.5t50.5 -118.5q0 -111 -114 -153zM434 380q0 42 -27 66.5t-75 24.5h-162v-181h162q47 0 74.5 24.5t27.5 65.5z" />
    <glyph glyph-name="s.sc" horiz-adv-x="533" 
d="M260 559q134 0 218 -101l-62 -49q-57 75 -158 75q-47 0 -78 -18.5t-31 -57.5q0 -38 30.5 -54.5t98.5 -29.5q49 -10 81 -20t64.5 -28.5t48 -47t15.5 -68.5q0 -77 -59.5 -124.5t-158.5 -47.5q-160 0 -234 116l69 46q27 -44 73 -66t98 -22q54 0 88.5 24t34.5 65
q0 19 -8.5 33t-18.5 22t-35 16t-40 11t-51 10q-86 17 -135 51.5t-49 105.5q0 74 56.5 116.5t142.5 42.5z" />
    <glyph glyph-name="t.sc" horiz-adv-x="525" 
d="M495 469h-190v-469h-87v469h-188v78h465v-78z" />
    <glyph glyph-name="u.sc" horiz-adv-x="616" 
d="M540 212q0 -107 -64 -165.5t-169 -58.5q-104 0 -167.5 58.5t-63.5 165.5v335h87v-335q0 -71 39 -108.5t105 -37.5q65 0 105 37.5t40 108.5v335h88v-335z" />
    <glyph glyph-name="v.sc" horiz-adv-x="561" 
d="M545 547l-218 -547h-92l-219 547h96l170 -444l169 444h94z" />
    <glyph glyph-name="w.sc" horiz-adv-x="812" 
d="M784 547l-155 -547h-97l-126 430l-126 -430h-98l-152 547h91l116 -438l131 438h80l130 -440l114 440h92z" />
    <glyph glyph-name="x.sc" horiz-adv-x="573" 
d="M558 0h-108l-163 220l-165 -220h-108l218 284l-202 263h107l150 -207l151 207h104l-200 -263z" />
    <glyph glyph-name="y.sc" horiz-adv-x="540" 
d="M530 547l-217 -326v-221h-88v220q-130 200 -215 327h104l158 -244q25 38 77 120t80 124h101z" />
    <glyph glyph-name="z.sc" horiz-adv-x="528" 
d="M483 0h-440v70l317 399h-304v78h420v-70l-318 -400h325v-77z" />
    <glyph glyph-name="aacute.alt1" horiz-adv-x="654" 
d="M285 578l-35 29q56 60 89 120l83 -13q-15 -34 -54.5 -72.5t-82.5 -63.5zM556 520v-404q0 -30 9 -43t31 -13q19 0 32 8l11 -66q-26 -10 -60 -10q-40 0 -69 21.5t-37 66.5q-63 -92 -186 -92q-112 0 -177 76.5t-65 194.5q0 119 65 196t174 77q116 0 185 -98v86h87zM469 260
q0 83 -44.5 137t-123.5 54t-121.5 -53.5t-42.5 -137.5t42 -138t121 -54q80 0 124.5 54.5t44.5 137.5z" />
    <glyph glyph-name="aacute.sc" horiz-adv-x="592" 
d="M576 0h-93l-62 148h-255l-62 -148h-88l231 547h98zM393 221l-99 250l-99 -250h198zM282 578l-35 29q56 60 89 120l83 -13q-15 -34 -54.5 -72.5t-82.5 -63.5z" />
    <glyph glyph-name="abreve.alt1" horiz-adv-x="654" 
d="M303 591q-65 0 -106.5 33t-50.5 84l51 15q9 -30 36.5 -49t69.5 -19t69.5 19t36.5 49l50 -15q-8 -51 -50 -84t-106 -33zM556 520v-404q0 -30 9 -43t31 -13q19 0 32 8l11 -66q-26 -10 -60 -10q-40 0 -69 21.5t-37 66.5q-63 -92 -186 -92q-112 0 -177 76.5t-65 194.5
q0 119 65 196t174 77q116 0 185 -98v86h87zM469 260q0 83 -44.5 137t-123.5 54t-121.5 -53.5t-42.5 -137.5t42 -138t121 -54q80 0 124.5 54.5t44.5 137.5z" />
    <glyph glyph-name="abreve.sc" horiz-adv-x="592" 
d="M576 0h-93l-62 148h-255l-62 -148h-88l231 547h98zM393 221l-99 250l-99 -250h198zM295 591q-65 0 -106.5 33t-50.5 84l51 15q9 -30 36.5 -49t69.5 -19t69.5 19t36.5 49l50 -15q-8 -51 -50 -84t-106 -33z" />
    <glyph glyph-name="acircumflex.alt1" horiz-adv-x="654" 
d="M556 520v-404q0 -30 9 -43t31 -13q19 0 32 8l11 -66q-26 -10 -60 -10q-40 0 -69 21.5t-37 66.5q-63 -92 -186 -92q-112 0 -177 76.5t-65 194.5q0 119 65 196t174 77q116 0 185 -98v86h87zM469 260q0 83 -44.5 137t-123.5 54t-121.5 -53.5t-42.5 -137.5t42 -138t121 -54
q80 0 124.5 54.5t44.5 137.5zM267 725h68q55 -50 127 -101l-24 -42q-81 27 -137 79q-56 -52 -136 -79l-25 42q78 54 127 101z" />
    <glyph glyph-name="acircumflex.sc" horiz-adv-x="592" 
d="M576 0h-93l-62 148h-255l-62 -148h-88l231 547h98zM393 221l-99 250l-99 -250h198zM261 725h68q55 -50 127 -101l-24 -42q-81 27 -137 79q-56 -52 -136 -79l-25 42q78 54 127 101z" />
    <glyph glyph-name="adieresis.alt1" horiz-adv-x="654" 
d="M556 520v-404q0 -30 9 -43t31 -13q19 0 32 8l11 -66q-26 -10 -60 -10q-40 0 -69 21.5t-37 66.5q-63 -92 -186 -92q-112 0 -177 76.5t-65 194.5q0 119 65 196t174 77q116 0 185 -98v86h87zM469 260q0 83 -44.5 137t-123.5 54t-121.5 -53.5t-42.5 -137.5t42 -138t121 -54
q80 0 124.5 54.5t44.5 137.5zM233 597h-76v78h76v-78zM442 597h-75v78h75v-78z" />
    <glyph glyph-name="adieresis.sc" horiz-adv-x="592" 
d="M576 0h-93l-62 148h-255l-62 -148h-88l231 547h98zM393 221l-99 250l-99 -250h198zM228 597h-76v78h76v-78zM437 597h-75v78h75v-78z" />
    <glyph glyph-name="AE.alt1" horiz-adv-x="913" 
d="M100 0h-101l342 666h515v-86h-320v-188h272v-81h-272v-225h330v-86h-425v306q-202 -29 -296 -218zM396 587l-136 -269q79 55 181 70v199h-45z" />
    <glyph glyph-name="ae.alt1" horiz-adv-x="1005" 
d="M468 260q0 83 -44.5 137t-124.5 54q-79 0 -121 -53.5t-42 -137.5t42 -138t121 -54q80 0 124.5 54.5t44.5 137.5zM726 532q108 0 174 -74t66 -186q0 -17 -2 -33h-408q4 -80 51 -125.5t123 -45.5q92 0 154 68l59 -57q-86 -91 -215 -91q-159 0 -223 125q-29 -58 -85 -91.5
t-127 -33.5q-112 0 -180.5 76.5t-68.5 196.5q0 116 65.5 193.5t173.5 77.5q116 0 185 -98v86h87v-76q67 88 171 88zM557 305h319q-7 73 -51 112.5t-108 39.5q-67 0 -110.5 -42t-49.5 -110z" />
    <glyph glyph-name="ae.sc" horiz-adv-x="805" 
d="M758 0h-370v150h-207l1 1v1l-81 -152h-94l297 547h444v-76h-273v-147h233v-73h-233v-176h283v-75zM388 223v251h-35l-133 -251h168z" />
    <glyph glyph-name="aesc.alt1" horiz-adv-x="811" 
d="M394 0v246q-84 -15 -150.5 -58t-98.5 -104l-44 -84h-94l297 547h450v-76h-273v-147h233v-73h-233v-176h283v-75h-370zM353 474l-115 -215q63 44 156 60v155h-41z" />
    <glyph glyph-name="AEacute.alt1" horiz-adv-x="913" 
d="M459 704l-35 29q56 60 89 120l83 -13q-15 -34 -54.5 -72.5t-82.5 -63.5zM100 0h-101l342 666h515v-86h-320v-188h272v-81h-272v-225h330v-86h-425v306q-202 -29 -296 -218zM396 587l-136 -269q79 55 181 70v199h-45z" />
    <glyph glyph-name="aeacute.alt1" horiz-adv-x="1005" 
d="M496 578l-35 29q56 60 89 120l83 -13q-15 -34 -54.5 -72.5t-82.5 -63.5zM468 260q0 83 -44.5 137t-124.5 54q-79 0 -121 -53.5t-42 -137.5t42 -138t121 -54q80 0 124.5 54.5t44.5 137.5zM726 532q108 0 174 -74t66 -186q0 -17 -2 -33h-408q4 -80 51 -125.5t123 -45.5
q92 0 154 68l59 -57q-86 -91 -215 -91q-159 0 -223 125q-29 -58 -85 -91.5t-127 -33.5q-112 0 -180.5 76.5t-68.5 196.5q0 116 65.5 193.5t173.5 77.5q116 0 185 -98v86h87v-76q67 88 171 88zM557 305h319q-7 73 -51 112.5t-108 39.5q-67 0 -110.5 -42t-49.5 -110z" />
    <glyph glyph-name="aeacute.sc" horiz-adv-x="805" 
d="M409 578l-35 29q56 60 89 120l83 -13q-15 -34 -54.5 -72.5t-82.5 -63.5zM758 0h-370v150h-207l1 1v1l-81 -152h-94l297 547h444v-76h-273v-147h233v-73h-233v-176h283v-75zM388 223v251h-35l-133 -251h168z" />
    <glyph glyph-name="aeacutesc.alt1" horiz-adv-x="811" 
d="M408 578l-35 29q56 60 89 120l83 -13q-15 -34 -54.5 -72.5t-82.5 -63.5zM394 0v246q-84 -15 -150.5 -58t-98.5 -104l-44 -84h-94l297 547h450v-76h-273v-147h233v-73h-233v-176h283v-75h-370zM353 474l-115 -215q63 44 156 60v155h-41z" />
    <glyph glyph-name="agrave.alt1" horiz-adv-x="654" 
d="M364 607l-34 -29q-43 25 -82.5 63.5t-54.5 72.5l83 13q32 -58 88 -120zM556 520v-404q0 -30 9 -43t31 -13q19 0 32 8l11 -66q-26 -10 -60 -10q-40 0 -69 21.5t-37 66.5q-63 -92 -186 -92q-112 0 -177 76.5t-65 194.5q0 119 65 196t174 77q116 0 185 -98v86h87zM469 260
q0 83 -44.5 137t-123.5 54t-121.5 -53.5t-42.5 -137.5t42 -138t121 -54q80 0 124.5 54.5t44.5 137.5z" />
    <glyph glyph-name="agrave.sc" horiz-adv-x="592" 
d="M576 0h-93l-62 148h-255l-62 -148h-88l231 547h98zM393 221l-99 250l-99 -250h198zM354 607l-34 -29q-43 25 -82.5 63.5t-54.5 72.5l83 13q32 -58 88 -120z" />
    <glyph glyph-name="amacron.alt1" horiz-adv-x="654" 
d="M556 520v-404q0 -30 9 -43t31 -13q19 0 32 8l11 -66q-26 -10 -60 -10q-40 0 -69 21.5t-37 66.5q-63 -92 -186 -92q-112 0 -177 76.5t-65 194.5q0 119 65 196t174 77q116 0 185 -98v86h87zM469 260q0 83 -44.5 137t-123.5 54t-121.5 -53.5t-42.5 -137.5t42 -138t121 -54
q80 0 124.5 54.5t44.5 137.5zM454 608h-300v58h300v-58z" />
    <glyph glyph-name="amacron.sc" horiz-adv-x="592" 
d="M576 0h-93l-62 148h-255l-62 -148h-88l231 547h98zM393 221l-99 250l-99 -250h198zM445 608h-300v58h300v-58z" />
    <glyph glyph-name="aogonek.alt1" horiz-adv-x="654" 
d="M556 520v-404q0 -30 9 -43t31 -13q19 0 32 8l11 -66q-26 -10 -60 -10q-17 0 -30 4q-29 -32 -29 -64q0 -22 13.5 -34t36.5 -12q36 0 66 34v-67q-27 -29 -80 -29q-43 0 -72 22.5t-29 62.5q0 56 59 101q-34 24 -41 70q-63 -92 -186 -92q-112 0 -177 76.5t-65 194.5
q0 119 65 196t174 77q116 0 185 -98v86h87zM469 260q0 83 -44.5 137t-123.5 54t-121.5 -53.5t-42.5 -137.5t42 -138t121 -54q80 0 124.5 54.5t44.5 137.5z" />
    <glyph glyph-name="aogonek.sc" horiz-adv-x="592" 
d="M345 547l231 -547q-106 -19 -106 -75q0 -15 11.5 -27t32.5 -12q35 0 62 34v-67q-23 -29 -77 -29q-40 0 -67 22t-27 60q0 58 75 100l-59 142h-255l-62 -148h-88l231 547h98zM393 221l-99 250l-99 -250h198z" />
    <glyph glyph-name="aring.alt1" horiz-adv-x="654" 
d="M408 679q0 -42 -30.5 -72t-75.5 -30t-75.5 30t-30.5 72t30.5 72.5t75.5 30.5t75.5 -30.5t30.5 -72.5zM358 679q0 23 -16.5 40t-39.5 17t-40 -17t-17 -40q0 -24 17 -40.5t40 -16.5t39.5 16.5t16.5 40.5zM556 520v-404q0 -30 9 -43t31 -13q19 0 32 8l11 -66
q-26 -10 -60 -10q-40 0 -69 21.5t-37 66.5q-63 -92 -186 -92q-112 0 -177 76.5t-65 194.5q0 119 65 196t174 77q116 0 185 -98v86h87zM469 260q0 83 -44.5 137t-123.5 54t-121.5 -53.5t-42.5 -137.5t42 -138t121 -54q80 0 124.5 54.5t44.5 137.5z" />
    <glyph glyph-name="aring.sc" horiz-adv-x="594" 
d="M353 604q0 23 -16.5 40t-39.5 17q-24 0 -40.5 -17t-16.5 -40q0 -24 16.5 -40.5t40.5 -16.5q23 0 39.5 16.5t16.5 40.5zM394 221l-99 250l-99 -250h198zM577 0h-93l-62 148h-255l-62 -148h-88l220 521q-20 12 -33 35.5t-13 48.5q0 42 30 71.5t75 29.5t75.5 -29.5
t30.5 -71.5q0 -52 -45 -84z" />
    <glyph glyph-name="aringacute.alt1" horiz-adv-x="654" 
d="M408 653q0 -42 -30.5 -72t-75.5 -30t-75.5 30t-30.5 72t30.5 72.5t75.5 30.5t75.5 -30.5t30.5 -72.5zM358 653q0 23 -16.5 40t-39.5 17t-40 -17t-17 -40q0 -24 17 -40.5t40 -16.5t39.5 16.5t16.5 40.5zM270 773l-35 29q56 60 89 120l83 -13q-15 -34 -54.5 -72.5
t-82.5 -63.5zM556 520v-404q0 -30 9 -43t31 -13q19 0 32 8l11 -66q-26 -10 -60 -10q-40 0 -69 21.5t-37 66.5q-63 -92 -186 -92q-112 0 -177 76.5t-65 194.5q0 119 65 196t174 77q116 0 185 -98v86h87zM469 260q0 83 -44.5 137t-123.5 54t-121.5 -53.5t-42.5 -137.5t42 -138
t121 -54q80 0 124.5 54.5t44.5 137.5z" />
    <glyph glyph-name="aringacute.sc" horiz-adv-x="594" 
d="M268 726l-35 29q56 60 89 120l83 -13q-15 -34 -54.5 -72.5t-82.5 -63.5zM353 604q0 23 -16.5 40t-39.5 17q-24 0 -40.5 -17t-16.5 -40q0 -24 16.5 -40.5t40.5 -16.5q23 0 39.5 16.5t16.5 40.5zM394 221l-99 250l-99 -250h198zM577 0h-93l-62 148h-255l-62 -148h-88
l220 521q-20 12 -33 35.5t-13 48.5q0 42 30 71.5t75 29.5t75.5 -29.5t30.5 -71.5q0 -52 -45 -84z" />
    <glyph glyph-name="atilde.alt1" horiz-adv-x="654" 
d="M429 702l35 -23q-14 -38 -40 -60.5t-56 -22.5q-24 0 -67.5 19t-61.5 19q-36 0 -66 -37l-35 23q14 38 40 60.5t56 22.5q23 0 67 -19t63 -19q35 0 65 37zM556 520v-404q0 -30 9 -43t31 -13q19 0 32 8l11 -66q-26 -10 -60 -10q-40 0 -69 21.5t-37 66.5q-63 -92 -186 -92
q-112 0 -177 76.5t-65 194.5q0 119 65 196t174 77q116 0 185 -98v86h87zM469 260q0 83 -44.5 137t-123.5 54t-121.5 -53.5t-42.5 -137.5t42 -138t121 -54q80 0 124.5 54.5t44.5 137.5z" />
    <glyph glyph-name="atilde.sc" horiz-adv-x="592" 
d="M576 0h-93l-62 148h-255l-62 -148h-88l231 547h98zM393 221l-99 250l-99 -250h198zM423 702l35 -23q-14 -38 -40 -60.5t-56 -22.5q-24 0 -67.5 19t-61.5 19q-36 0 -66 -37l-35 23q14 38 40 60.5t56 22.5q23 0 67 -19t63 -19q35 0 65 37z" />
    <glyph glyph-name="cacute.sc" horiz-adv-x="581" 
d="M322 65q101 0 152 84l70 -45q-73 -116 -223 -116q-122 0 -198 80.5t-76 204.5t76 205t198 81q145 0 222 -114l-70 -47q-48 84 -151 84q-84 0 -134 -59.5t-50 -149.5t50 -149t134 -59zM307 578l-34 27q46 58 74 122l83 -13q-16 -35 -49.5 -72t-73.5 -64z" />
    <glyph glyph-name="ccaron.sc" horiz-adv-x="581" 
d="M322 65q101 0 152 84l70 -45q-73 -116 -223 -116q-122 0 -198 80.5t-76 204.5t76 205t198 81q145 0 222 -114l-70 -47q-48 84 -151 84q-84 0 -134 -59.5t-50 -149.5t50 -149t134 -59zM349 584h-68q-55 52 -127 101l25 42q79 -26 136 -78q57 52 137 78l24 -42
q-66 -45 -127 -101z" />
    <glyph glyph-name="ccedilla.sc" horiz-adv-x="584" 
d="M210 -144v60q28 -28 64 -28q21 0 35 11.5t14 31.5q0 32 -35 59q-109 11 -174.5 89.5t-65.5 193.5q0 124 76 205t198 81q145 0 222 -114l-70 -47q-48 84 -151 84q-84 0 -134 -59.5t-50 -149.5t50 -149t134 -59q101 0 152 84l70 -45q-65 -104 -197 -115q39 -31 39 -74
q0 -37 -29 -60t-72 -23q-48 0 -76 24z" />
    <glyph glyph-name="cdotaccent.sc" horiz-adv-x="581" 
d="M322 65q101 0 152 84l70 -45q-73 -116 -223 -116q-122 0 -198 80.5t-76 204.5t76 205t198 81q145 0 222 -114l-70 -47q-48 84 -151 84q-84 0 -134 -59.5t-50 -149.5t50 -149t134 -59zM354 598h-78v77h78v-77z" />
    <glyph glyph-name="ccircumflex.sc" horiz-adv-x="581" 
d="M322 65q101 0 152 84l70 -45q-73 -116 -223 -116q-122 0 -198 80.5t-76 204.5t76 205t198 81q145 0 222 -114l-70 -47q-48 84 -151 84q-84 0 -134 -59.5t-50 -149.5t50 -149t134 -59zM279 725h68q55 -50 127 -101l-24 -42q-81 27 -137 79q-56 -52 -136 -79l-25 42
q78 54 127 101z" />
    <glyph glyph-name="dcaron.sc" horiz-adv-x="624" 
d="M83 547h224q126 0 197 -76t71 -197q0 -122 -70.5 -198t-197.5 -76h-224v547zM307 470h-136v-393h136q85 0 131 54t46 143t-46 142.5t-131 53.5zM340 584h-68q-55 52 -127 101l25 42q79 -26 136 -78q57 52 137 78l24 -42q-66 -45 -127 -101z" />
    <glyph glyph-name="dcroat.sc" horiz-adv-x="624" 
d="M83 547h224q126 0 197 -76t71 -197q0 -122 -70.5 -198t-197.5 -76h-224v241h-63v65h63v241zM307 470h-136v-164h141v-65h-141v-164h136q85 0 131 54t46 143t-46 142.5t-131 53.5z" />
    <glyph glyph-name="eacute.sc" horiz-adv-x="542" 
d="M494 0h-411v547h401v-77h-313v-146h275v-73h-275v-176h323v-75zM252 578l-35 29q56 60 89 120l83 -13q-15 -34 -54.5 -72.5t-82.5 -63.5z" />
    <glyph glyph-name="ebreve.sc" horiz-adv-x="542" 
d="M494 0h-411v547h401v-77h-313v-146h275v-73h-275v-176h323v-75zM286 591q-65 0 -106.5 33t-50.5 84l51 15q9 -30 36.5 -49t69.5 -19t69.5 19t36.5 49l50 -15q-8 -51 -50 -84t-106 -33z" />
    <glyph glyph-name="ecaron.sc" horiz-adv-x="542" 
d="M494 0h-411v547h401v-77h-313v-146h275v-73h-275v-176h323v-75zM320 584h-68q-55 52 -127 101l25 42q79 -26 136 -78q57 52 137 78l24 -42q-66 -45 -127 -101z" />
    <glyph glyph-name="ecircumflex.sc" horiz-adv-x="542" 
d="M494 0h-411v547h401v-77h-313v-146h275v-73h-275v-176h323v-75zM257 725h68q55 -50 127 -101l-24 -42q-81 27 -137 79q-56 -52 -136 -79l-25 42q78 54 127 101z" />
    <glyph glyph-name="edieresis.sc" horiz-adv-x="542" 
d="M494 0h-411v547h401v-77h-313v-146h275v-73h-275v-176h323v-75zM221 597h-76v78h76v-78zM430 597h-75v78h75v-78z" />
    <glyph glyph-name="edotaccent.sc" horiz-adv-x="542" 
d="M494 0h-411v547h401v-77h-313v-146h275v-73h-275v-176h323v-75zM326 598h-78v77h78v-77z" />
    <glyph glyph-name="egrave.sc" horiz-adv-x="542" 
d="M494 0h-411v547h401v-77h-313v-146h275v-73h-275v-176h323v-75zM352 607l-34 -29q-43 25 -82.5 63.5t-54.5 72.5l83 13q32 -58 88 -120z" />
    <glyph glyph-name="emacron.sc" horiz-adv-x="542" 
d="M494 0h-411v547h401v-77h-313v-146h275v-73h-275v-176h323v-75zM441 608h-300v58h300v-58z" />
    <glyph glyph-name="eogonek.sc" horiz-adv-x="542" 
d="M494 0h-83q-33 -31 -33 -68q0 -22 13.5 -34t36.5 -12q36 0 66 34v-67q-27 -29 -80 -29q-43 0 -72 22.5t-29 62.5q0 51 47 91h-277v547h401v-77h-313v-146h275v-73h-275v-176h323v-75z" />
    <glyph glyph-name="eth.sc" horiz-adv-x="625" 
d="M575 273q0 -124 -69.5 -198.5t-197.5 -74.5h-225v241h-63v65h63v241h225q128 0 197.5 -75t69.5 -199zM312 241h-141v-164h136q83 0 130 51.5t47 144.5t-47 144.5t-130 51.5h-136v-163h141v-65z" />
    <glyph glyph-name="gbreve.sc" horiz-adv-x="622" 
d="M324 482q-85 0 -135 -59t-50 -151q0 -91 50 -149t136 -58q75 0 122 41.5t52 105.5h-173v73h254q3 -15 3 -39q0 -108 -69.5 -183t-190.5 -75q-125 0 -200.5 80.5t-75.5 204.5q0 125 76 205.5t200 80.5q145 0 222 -114l-70 -47q-48 84 -151 84zM318 591q-65 0 -106.5 33
t-50.5 84l51 15q9 -30 36.5 -49t69.5 -19t69.5 19t36.5 49l50 -15q-8 -51 -50 -84t-106 -33z" />
    <glyph glyph-name="gcommaaccent.sc" horiz-adv-x="622" 
d="M325 482q-85 0 -135 -59t-50 -151q0 -91 50 -149t136 -58q75 0 122 41.5t52 105.5h-173v73h254q3 -15 3 -39q0 -108 -69.5 -183t-190.5 -75q-125 0 -200.5 80.5t-75.5 204.5q0 125 76 205.5t200 80.5q145 0 222 -114l-70 -47q-48 84 -151 84zM260 -200l-34 27
q47 61 71 122l83 -12q-33 -75 -120 -137z" />
    <glyph glyph-name="gdotaccent.sc" horiz-adv-x="622" 
d="M324 482q-85 0 -135 -59t-50 -151q0 -91 50 -149t136 -58q75 0 122 41.5t52 105.5h-173v73h254q3 -15 3 -39q0 -108 -69.5 -183t-190.5 -75q-125 0 -200.5 80.5t-75.5 204.5q0 125 76 205.5t200 80.5q145 0 222 -114l-70 -47q-48 84 -151 84zM360 598h-78v77h78v-77z" />
    <glyph glyph-name="gcircumflex.sc" horiz-adv-x="622" 
d="M324 482q-85 0 -135 -59t-50 -151q0 -91 50 -149t136 -58q75 0 122 41.5t52 105.5h-173v73h254q3 -15 3 -39q0 -108 -69.5 -183t-190.5 -75q-125 0 -200.5 80.5t-75.5 204.5q0 125 76 205.5t200 80.5q145 0 222 -114l-70 -47q-48 84 -151 84zM283 725h68q55 -50 127 -101
l-24 -42q-81 27 -137 79q-56 -52 -136 -79l-25 42q78 54 127 101z" />
    <glyph glyph-name="hbar.sc" horiz-adv-x="633" 
d="M550 0h-89v250h-291v-250h-87v419h-51v55h51v73h87v-73h291v73h89v-73h50v-55h-50v-419zM170 327h291v92h-291v-92z" />
    <glyph glyph-name="hcircumflex.sc" horiz-adv-x="633" 
d="M550 0h-88v250h-291v-250h-88v547h88v-220h291v220h88v-547zM282 725h68q55 -50 127 -101l-24 -42q-81 27 -137 79q-56 -52 -136 -79l-25 42q78 54 127 101z" />
    <glyph glyph-name="iacute.sc" horiz-adv-x="254" 
d="M171 0h-88v547h88v-547zM110 578l-35 29q56 60 89 120l83 -13q-15 -34 -54.5 -72.5t-82.5 -63.5z" />
    <glyph glyph-name="ibreve.sc" horiz-adv-x="254" 
d="M171 0h-88v547h88v-547zM126 591q-65 0 -106.5 33t-50.5 84l51 15q9 -30 36.5 -49t69.5 -19t69.5 19t36.5 49l50 -15q-8 -51 -50 -84t-106 -33z" />
    <glyph glyph-name="icircumflex.sc" horiz-adv-x="254" 
d="M171 0h-88v547h88v-547zM92 725h68q55 -50 127 -101l-24 -42q-81 27 -137 79q-56 -52 -136 -79l-25 42q78 54 127 101z" />
    <glyph glyph-name="idieresis.sc" horiz-adv-x="254" 
d="M79 597h-76v78h76v-78zM251 597h-76v78h76v-78zM171 0h-88v547h88v-547z" />
    <glyph glyph-name="idotaccent.sc" horiz-adv-x="254" 
d="M171 0h-88v547h88v-547zM166 598h-78v77h78v-77z" />
    <glyph glyph-name="igrave.sc" horiz-adv-x="254" 
d="M171 0h-88v547h88v-547zM179 607l-34 -29q-43 25 -82.5 63.5t-54.5 72.5l83 13q32 -58 88 -120z" />
    <glyph glyph-name="imacron.sc" horiz-adv-x="254" 
d="M171 0h-88v547h88v-547zM277 608h-300v58h300v-58z" />
    <glyph glyph-name="iogonek.sc" horiz-adv-x="253" 
d="M83 0v547h87v-547q-33 -6 -61.5 -23.5t-28.5 -46.5q0 -20 13.5 -31t34.5 -11q37 0 64 31v-67q-27 -27 -74 -27q-41 0 -70 23.5t-29 59.5q0 58 64 92z" />
    <glyph glyph-name="itilde.sc" horiz-adv-x="254" 
d="M171 0h-88v547h88v-547zM255 702l35 -23q-14 -38 -40 -60.5t-56 -22.5q-24 0 -67.5 19t-61.5 19q-36 0 -66 -37l-35 23q14 38 40 60.5t56 22.5q23 0 67 -19t63 -19q35 0 65 37z" />
    <glyph glyph-name="Jcircumflex.alt1" horiz-adv-x="505" 
d="M422 209q0 -106 -58.5 -163.5t-156.5 -57.5q-127 0 -188 100l75 48q42 -62 117 -62q117 0 117 134v372h-194v86h288v-457zM244 851h68q55 -50 127 -101l-24 -42q-81 27 -137 79q-56 -52 -136 -79l-25 42q78 54 127 101z" />
    <glyph glyph-name="jcircumflex.sc" horiz-adv-x="434" 
d="M357 170q0 -86 -49 -134t-134 -48q-112 0 -164 86l69 44q35 -54 98 -54q93 0 93 106v377h87v-377zM276 725h68q55 -50 127 -101l-24 -42q-81 27 -137 79q-56 -52 -136 -79l-25 42q78 54 127 101z" />
    <glyph glyph-name="jcircumflexsc.alt1" horiz-adv-x="439" 
d="M362 170q0 -86 -49 -134t-134 -48q-112 0 -164 86l69 44q34 -54 98 -54q93 0 93 106v299h-159v78h246v-377zM205 725h68q55 -50 127 -101l-24 -42q-81 27 -137 79q-56 -52 -136 -79l-25 42q78 54 127 101z" />
    <glyph glyph-name="kcommaaccent.sc" horiz-adv-x="566" 
d="M557 0h-108l-187 253l-91 -99v-154h-87v547h87v-288l258 288h109l-216 -234zM247 -200l-34 27q47 61 71 122l83 -12q-33 -75 -120 -137z" />
    <glyph glyph-name="lacute.alt1" horiz-adv-x="280" 
d="M79 127v587h87v-588q0 -33 12 -46.5t37 -13.5q29 0 44 11l19 -70q-26 -17 -74 -17q-73 0 -104 44q-21 30 -21 93zM107 732l-35 29q56 60 89 120l83 -13q-15 -34 -54.5 -72.5t-82.5 -63.5z" />
    <glyph glyph-name="lacute.sc" horiz-adv-x="498" 
d="M477 0h-394v547h87v-470h307v-77zM111 578l-35 29q56 60 89 120l83 -13q-15 -34 -54.5 -72.5t-82.5 -63.5z" />
    <glyph glyph-name="lcaron.alt1" horiz-adv-x="298" 
d="M79 127v587h87v-588q0 -33 12 -46.5t37 -13.5q29 0 44 11l19 -70q-26 -17 -74 -17q-73 0 -104 44q-21 30 -21 93zM353 714v-74q0 -90 -78 -160l-32 33q43 45 43 96q0 17 -11 43t-11 45v17h89z" />
    <glyph glyph-name="lcaron.sc" horiz-adv-x="498" 
d="M477 0h-394v547h87v-470h307v-77zM372 547v-72q0 -85 -76 -155l-31 32q42 44 42 93q0 17 -11 42t-11 43v17h87z" />
    <glyph glyph-name="lcommaaccent.alt1" horiz-adv-x="280" 
d="M79 127v587h87v-588q0 -33 12 -46.5t37 -13.5q29 0 44 11l19 -70q-26 -17 -74 -17q-73 0 -104 44q-21 30 -21 93zM106 -200l-34 27q47 61 71 122l83 -12q-33 -75 -120 -137z" />
    <glyph glyph-name="lcommaaccent.sc" horiz-adv-x="500" 
d="M478 0h-394v547h87v-470h307v-77zM231 -200l-34 27q47 61 71 122l83 -12q-33 -75 -120 -137z" />
    <glyph glyph-name="ldot.alt1" horiz-adv-x="438" 
d="M79 127v587h87v-588q0 -33 12 -46.5t37 -13.5q29 0 44 11l19 -70q-26 -17 -74 -17q-73 0 -104 44q-21 30 -21 93zM415 304q0 -26 -18.5 -44.5t-43.5 -18.5t-44 18.5t-19 44.5t19 45t44 19t43.5 -19t18.5 -45z" />
    <glyph glyph-name="ldot.sc" horiz-adv-x="498" 
d="M477 0h-394v547h87v-470h307v-77zM435 304q0 -26 -18.5 -44.5t-43.5 -18.5t-44 18.5t-19 44.5t19 45t44 19t43.5 -19t18.5 -45z" />
    <glyph glyph-name="lslash.alt1" horiz-adv-x="325" 
d="M236 -9q-72 0 -104 43q-21 30 -21 93v233l-113 -52v75l113 51v280h87v-243l114 53v-75l-114 -53v-270q0 -34 11.5 -47t37.5 -13q30 0 52 11l19 -70q-32 -16 -82 -16z" />
    <glyph glyph-name="lslash.sc" horiz-adv-x="519" 
d="M498 0h-394v210l-96 -44v70l96 43v268h87v-231l184 86v-70l-184 -87v-168h307v-77z" />
    <glyph glyph-name="nacute.sc" horiz-adv-x="633" 
d="M550 0h-107l-278 444v-444h-82v547h114l270 -435v435h83v-547zM307 578l-34 27q46 58 74 122l83 -13q-16 -35 -49.5 -72t-73.5 -64z" />
    <glyph glyph-name="ncaron.sc" horiz-adv-x="633" 
d="M550 0h-107l-278 444v-444h-82v547h114l270 -435v435h83v-547zM358 584h-68q-55 52 -127 101l25 42q79 -26 136 -78q57 52 137 78l24 -42q-66 -45 -127 -101z" />
    <glyph glyph-name="ncommaaccent.sc" horiz-adv-x="635" 
d="M551 0h-107l-278 444v-444h-82v547h114l270 -435v435h83v-547zM252 -200l-34 27q47 61 71 122l83 -12q-33 -75 -120 -137z" />
    <glyph glyph-name="ntilde.sc" horiz-adv-x="633" 
d="M550 0h-107l-278 444v-444h-82v547h114l270 -435v435h83v-547zM449 702l35 -23q-14 -38 -40 -60.5t-56 -22.5q-24 0 -67.5 19t-61.5 19q-36 0 -66 -37l-35 23q14 38 40 60.5t56 22.5q23 0 67 -19t63 -19q35 0 65 37z" />
    <glyph glyph-name="eng.sc" horiz-adv-x="633" 
d="M550 547v-517q0 -88 -49 -136.5t-133 -48.5q-51 0 -90 18l33 71q24 -12 54 -12q46 0 71 23.5t27 57.5l-298 443v-446h-82v547h115l269 -403v403h83z" />
    <glyph glyph-name="oacute.sc" horiz-adv-x="644" 
d="M322 559q124 0 199.5 -81t75.5 -204t-75.5 -204.5t-199.5 -81.5t-199.5 81t-75.5 204t75.5 204.5t199.5 81.5zM322 67q84 0 134 59t50 148t-50 147.5t-134 58.5t-133.5 -58.5t-49.5 -148.5q0 -89 49.5 -147.5t133.5 -58.5zM314 578l-35 29q56 60 89 120l83 -13
q-15 -34 -54.5 -72.5t-82.5 -63.5z" />
    <glyph glyph-name="obreve.sc" horiz-adv-x="644" 
d="M322 559q124 0 199.5 -81t75.5 -204t-75.5 -204.5t-199.5 -81.5t-199.5 81t-75.5 204t75.5 204.5t199.5 81.5zM322 67q84 0 134 59t50 148t-50 147.5t-134 58.5t-133.5 -58.5t-49.5 -148.5q0 -89 49.5 -147.5t133.5 -58.5zM322 591q-65 0 -106.5 33t-50.5 84l51 15
q9 -30 36.5 -49t69.5 -19t69.5 19t36.5 49l50 -15q-8 -51 -50 -84t-106 -33z" />
    <glyph glyph-name="ocircumflex.sc" horiz-adv-x="644" 
d="M322 559q124 0 199.5 -81t75.5 -204t-75.5 -204.5t-199.5 -81.5t-199.5 81t-75.5 204t75.5 204.5t199.5 81.5zM322 67q84 0 134 59t50 148t-50 147.5t-134 58.5t-133.5 -58.5t-49.5 -148.5q0 -89 49.5 -147.5t133.5 -58.5zM287 725h68q55 -50 127 -101l-24 -42
q-81 27 -137 79q-56 -52 -136 -79l-25 42q78 54 127 101z" />
    <glyph glyph-name="odieresis.sc" horiz-adv-x="644" 
d="M322 559q124 0 199.5 -81t75.5 -204t-75.5 -204.5t-199.5 -81.5t-199.5 81t-75.5 204t75.5 204.5t199.5 81.5zM322 67q84 0 134 59t50 148t-50 147.5t-134 58.5t-133.5 -58.5t-49.5 -148.5q0 -89 49.5 -147.5t133.5 -58.5zM255 597h-76v78h76v-78zM464 597h-75v78h75v-78
z" />
    <glyph glyph-name="OE.alt1" horiz-adv-x="1037" 
d="M991 0h-526q-42 -12 -93 -12q-146 0 -235.5 97.5t-89.5 247.5t89.5 247.5t235.5 97.5q50 0 93 -12h516v-86h-379q74 -69 90 -188h241v-81h-238q-6 -142 -94 -225h390v-86zM600 333q0 116 -61.5 187t-166.5 71t-166 -71t-61 -187q0 -115 61 -186.5t166 -71.5t166.5 71.5
t61.5 186.5z" />
    <glyph glyph-name="oe.sc" horiz-adv-x="877" 
d="M829 0h-504q-129 0 -202.5 76t-73.5 196q0 122 73 198.5t203 76.5h494v-76h-302v-147h263v-73h-263v-176h312v-75zM325 75h105v396h-105q-88 0 -136.5 -55.5t-48.5 -143.5q0 -87 48.5 -142t136.5 -55z" />
    <glyph glyph-name="oesc.alt1" horiz-adv-x="895" 
d="M847 0h-440q-41 -12 -85 -12q-124 0 -199.5 81t-75.5 204t75.5 204.5t199.5 81.5q46 0 86 -12h429v-77h-316q55 -56 69 -146h209v-73h-207q-4 -107 -72 -174h327v-77zM322 67q84 0 134 59t50 148t-50 148t-134 59t-134 -59t-50 -149q0 -89 50 -147.5t134 -58.5z" />
    <glyph glyph-name="ograve.sc" horiz-adv-x="644" 
d="M322 559q124 0 199.5 -81t75.5 -204t-75.5 -204.5t-199.5 -81.5t-199.5 81t-75.5 204t75.5 204.5t199.5 81.5zM322 67q84 0 134 59t50 148t-50 147.5t-134 58.5t-133.5 -58.5t-49.5 -148.5q0 -89 49.5 -147.5t133.5 -58.5zM383 607l-34 -29q-43 25 -82.5 63.5t-54.5 72.5
l83 13q32 -58 88 -120z" />
    <glyph glyph-name="ohungarumlaut.sc" horiz-adv-x="644" 
d="M322 559q124 0 199.5 -81t75.5 -204t-75.5 -204.5t-199.5 -81.5t-199.5 81t-75.5 204t75.5 204.5t199.5 81.5zM322 67q84 0 134 59t50 148t-50 147.5t-134 58.5t-133.5 -58.5t-49.5 -148.5q0 -89 49.5 -147.5t133.5 -58.5zM238 578l-32 29q58 62 88 120l81 -13
q-15 -34 -54.5 -72.5t-82.5 -63.5zM395 578l-33 29q56 60 89 120l80 -13q-15 -34 -54 -72.5t-82 -63.5z" />
    <glyph glyph-name="omacron.sc" horiz-adv-x="644" 
d="M322 559q124 0 199.5 -81t75.5 -204t-75.5 -204.5t-199.5 -81.5t-199.5 81t-75.5 204t75.5 204.5t199.5 81.5zM322 67q84 0 134 59t50 148t-50 147.5t-134 58.5t-133.5 -58.5t-49.5 -148.5q0 -89 49.5 -147.5t133.5 -58.5zM472 608h-300v58h300v-58z" />
    <glyph glyph-name="oslash.sc" horiz-adv-x="644" 
d="M322 559q79 0 141 -37l25 36l44 -31l-25 -36q90 -82 90 -217q0 -123 -75.5 -204.5t-199.5 -81.5q-79 0 -142 36l-25 -36l-44 31l25 36q-89 81 -89 218q0 123 75.5 204.5t199.5 81.5zM322 67q84 0 134 59t50 148q0 87 -50 145l-228 -327q41 -25 94 -25zM139 273
q0 -90 48 -145l228 326q-42 26 -93 26q-84 0 -133.5 -58.5t-49.5 -148.5z" />
    <glyph glyph-name="oslashacute.sc" horiz-adv-x="644" 
d="M314 578l-35 29q56 60 89 120l83 -13q-15 -34 -54.5 -72.5t-82.5 -63.5zM322 559q79 0 141 -37l25 36l44 -31l-25 -36q90 -82 90 -217q0 -123 -75.5 -204.5t-199.5 -81.5q-79 0 -142 36l-25 -36l-44 31l25 36q-89 81 -89 218q0 123 75.5 204.5t199.5 81.5zM322 67
q84 0 134 59t50 148q0 87 -50 145l-228 -327q41 -25 94 -25zM139 273q0 -90 48 -145l228 326q-42 26 -93 26q-84 0 -133.5 -58.5t-49.5 -148.5z" />
    <glyph glyph-name="otilde.sc" horiz-adv-x="644" 
d="M322 559q124 0 199.5 -81t75.5 -204t-75.5 -204.5t-199.5 -81.5t-199.5 81t-75.5 204t75.5 204.5t199.5 81.5zM322 67q84 0 134 59t50 148t-50 147.5t-134 58.5t-133.5 -58.5t-49.5 -148.5q0 -89 49.5 -147.5t133.5 -58.5zM448 702l35 -23q-14 -38 -40 -60.5t-56 -22.5
q-24 0 -67.5 19t-61.5 19q-36 0 -66 -37l-35 23q14 38 40 60.5t56 22.5q23 0 67 -19t63 -19q35 0 65 37z" />
    <glyph glyph-name="racute.sc" horiz-adv-x="579" 
d="M537 0h-97l-117 216h-153v-216h-87v547h251q88 0 138.5 -44.5t50.5 -118.5q0 -111 -114 -153zM434 380q0 42 -27 66.5t-75 24.5h-162v-181h162q47 0 74.5 24.5t27.5 65.5zM267 578l-35 29q56 60 89 120l83 -13q-15 -34 -54.5 -72.5t-82.5 -63.5z" />
    <glyph glyph-name="rcaron.sc" horiz-adv-x="579" 
d="M537 0h-97l-117 216h-153v-216h-87v547h251q88 0 138.5 -44.5t50.5 -118.5q0 -111 -114 -153zM434 380q0 42 -27 66.5t-75 24.5h-162v-181h162q47 0 74.5 24.5t27.5 65.5zM322 584h-68q-55 52 -127 101l25 42q79 -26 136 -78q57 52 137 78l24 -42q-66 -45 -127 -101z" />
    <glyph glyph-name="rcommaaccent.sc" horiz-adv-x="579" 
d="M538 0h-97l-117 216h-153v-216h-87v547h251q88 0 138.5 -44.5t50.5 -118.5q0 -111 -114 -153zM435 380q0 42 -27 66.5t-75 24.5h-162v-181h162q47 0 74.5 24.5t27.5 65.5zM231 -200l-34 27q47 61 71 122l83 -12q-33 -75 -120 -137z" />
    <glyph glyph-name="scircumflex.sc" horiz-adv-x="533" 
d="M260 559q134 0 218 -101l-62 -49q-57 75 -158 75q-47 0 -78 -18.5t-31 -57.5q0 -38 30.5 -54.5t98.5 -29.5q49 -10 81 -20t64.5 -28.5t48 -47t15.5 -68.5q0 -77 -59.5 -124.5t-158.5 -47.5q-160 0 -234 116l69 46q27 -44 73 -66t98 -22q54 0 88.5 24t34.5 65
q0 19 -8.5 33t-18.5 22t-35 16t-40 11t-51 10q-86 17 -135 51.5t-49 105.5q0 74 56.5 116.5t142.5 42.5zM227 725h68q55 -50 127 -101l-24 -42q-81 27 -137 79q-56 -52 -136 -79l-25 42q78 54 127 101z" />
    <glyph glyph-name="sacute.sc" horiz-adv-x="533" 
d="M260 559q134 0 218 -101l-62 -49q-57 75 -158 75q-47 0 -78 -18.5t-31 -57.5q0 -38 30.5 -54.5t98.5 -29.5q49 -10 81 -20t64.5 -28.5t48 -47t15.5 -68.5q0 -77 -59.5 -124.5t-158.5 -47.5q-160 0 -234 116l69 46q27 -44 73 -66t98 -22q54 0 88.5 24t34.5 65
q0 19 -8.5 33t-18.5 22t-35 16t-40 11t-51 10q-86 17 -135 51.5t-49 105.5q0 74 56.5 116.5t142.5 42.5zM253 578l-34 27q46 58 74 122l83 -13q-16 -35 -49.5 -72t-73.5 -64z" />
    <glyph glyph-name="scaron.sc" horiz-adv-x="533" 
d="M260 559q134 0 218 -101l-62 -49q-57 75 -158 75q-47 0 -78 -18.5t-31 -57.5q0 -38 30.5 -54.5t98.5 -29.5q49 -10 81 -20t64.5 -28.5t48 -47t15.5 -68.5q0 -77 -59.5 -124.5t-158.5 -47.5q-160 0 -234 116l69 46q27 -44 73 -66t98 -22q54 0 88.5 24t34.5 65
q0 19 -8.5 33t-18.5 22t-35 16t-40 11t-51 10q-86 17 -135 51.5t-49 105.5q0 74 56.5 116.5t142.5 42.5zM294 584h-68q-55 52 -127 101l25 42q79 -26 136 -78q57 52 137 78l24 -42q-66 -45 -127 -101z" />
    <glyph glyph-name="scedilla.sc" horiz-adv-x="535" 
d="M167 -144v60q28 -28 64 -28q21 0 35 11.5t14 31.5q0 32 -34 58q-144 10 -209 115l69 46q27 -44 73 -66t98 -22q54 0 88.5 24t34.5 65q0 19 -8.5 33t-18.5 22t-35 16t-40 11t-51 10q-86 17 -135 51.5t-49 105.5q0 74 56.5 116.5t142.5 42.5q134 0 218 -101l-62 -49
q-57 75 -158 75q-47 0 -78 -18.5t-31 -57.5q0 -38 30.5 -54.5t98.5 -29.5q49 -10 81 -20t64.5 -28.5t48 -47t15.5 -68.5q0 -70 -49.5 -116.5t-134.5 -53.5q39 -32 39 -75q0 -37 -29 -60t-72 -23q-48 0 -76 24z" />
    <glyph glyph-name="scommaaccent.sc" horiz-adv-x="533" 
d="M260 559q134 0 218 -101l-62 -49q-57 75 -158 75q-47 0 -78 -18.5t-31 -57.5q0 -38 30.5 -54.5t98.5 -29.5q49 -10 81 -20t64.5 -28.5t48 -47t15.5 -68.5q0 -77 -59.5 -124.5t-158.5 -47.5q-160 0 -234 116l69 46q27 -44 73 -66t98 -22q54 0 88.5 24t34.5 65
q0 19 -8.5 33t-18.5 22t-35 16t-40 11t-51 10q-86 17 -135 51.5t-49 105.5q0 74 56.5 116.5t142.5 42.5zM207 -200l-34 27q47 61 71 122l83 -12q-33 -75 -120 -137z" />
    <glyph glyph-name="tcaron.sc" horiz-adv-x="525" 
d="M495 469h-190v-469h-87v469h-188v78h465v-78zM296 584h-68q-55 52 -127 101l25 42q79 -26 136 -78q57 52 137 78l24 -42q-66 -45 -127 -101z" />
    <glyph glyph-name="tcommaaccent.sc" horiz-adv-x="523" 
d="M494 469h-190v-469h-87v469h-188v78h465v-78zM184 -200l-34 27q47 61 71 122l83 -12q-33 -75 -120 -137z" />
    <glyph glyph-name="tbar.sc" horiz-adv-x="525" 
d="M413 264h-108v-264h-87v264h-106v54h106v151h-188v78h465v-78h-190v-151h108v-54z" />
    <glyph glyph-name="thorn.sc" horiz-adv-x="559" 
d="M522 301q0 -77 -50.5 -124.5t-131.5 -47.5h-170v-129h-87v547h87v-74h170q81 0 131.5 -47t50.5 -125zM433 301q0 43 -25.5 68.5t-67.5 25.5h-170v-188h170q42 0 67.5 25.5t25.5 68.5z" />
    <glyph glyph-name="uacute.sc" horiz-adv-x="617" 
d="M541 212q0 -107 -64 -165.5t-169 -58.5q-104 0 -167.5 58.5t-63.5 165.5v335h87v-335q0 -71 39 -108.5t105 -37.5q65 0 105 37.5t40 108.5v335h88v-335zM301 578l-35 29q56 60 89 120l83 -13q-15 -34 -54.5 -72.5t-82.5 -63.5z" />
    <glyph glyph-name="ubreve.sc" horiz-adv-x="617" 
d="M541 212q0 -107 -64 -165.5t-169 -58.5q-104 0 -167.5 58.5t-63.5 165.5v335h87v-335q0 -71 39 -108.5t105 -37.5q65 0 105 37.5t40 108.5v335h88v-335zM309 591q-65 0 -106.5 33t-50.5 84l51 15q9 -30 36.5 -49t69.5 -19t69.5 19t36.5 49l50 -15q-8 -51 -50 -84
t-106 -33z" />
    <glyph glyph-name="ucircumflex.sc" horiz-adv-x="617" 
d="M541 212q0 -107 -64 -165.5t-169 -58.5q-104 0 -167.5 58.5t-63.5 165.5v335h87v-335q0 -71 39 -108.5t105 -37.5q65 0 105 37.5t40 108.5v335h88v-335zM274 725h68q55 -50 127 -101l-24 -42q-81 27 -137 79q-56 -52 -136 -79l-25 42q78 54 127 101z" />
    <glyph glyph-name="udieresis.sc" horiz-adv-x="617" 
d="M541 212q0 -107 -64 -165.5t-169 -58.5q-104 0 -167.5 58.5t-63.5 165.5v335h87v-335q0 -71 39 -108.5t105 -37.5q65 0 105 37.5t40 108.5v335h88v-335zM241 597h-76v78h76v-78zM450 597h-75v78h75v-78z" />
    <glyph glyph-name="ugrave.sc" horiz-adv-x="617" 
d="M541 212q0 -107 -64 -165.5t-169 -58.5q-104 0 -167.5 58.5t-63.5 165.5v335h87v-335q0 -71 39 -108.5t105 -37.5q65 0 105 37.5t40 108.5v335h88v-335zM363 607l-34 -29q-43 25 -82.5 63.5t-54.5 72.5l83 13q32 -58 88 -120z" />
    <glyph glyph-name="uhungarumlaut.sc" horiz-adv-x="617" 
d="M541 212q0 -107 -64 -165.5t-169 -58.5q-104 0 -167.5 58.5t-63.5 165.5v335h87v-335q0 -71 39 -108.5t105 -37.5q65 0 105 37.5t40 108.5v335h88v-335zM221 578l-32 29q58 62 88 120l81 -13q-15 -34 -54.5 -72.5t-82.5 -63.5zM378 578l-33 29q56 60 89 120l80 -13
q-15 -34 -54 -72.5t-82 -63.5z" />
    <glyph glyph-name="umacron.sc" horiz-adv-x="617" 
d="M541 212q0 -107 -64 -165.5t-169 -58.5q-104 0 -167.5 58.5t-63.5 165.5v335h87v-335q0 -71 39 -108.5t105 -37.5q65 0 105 37.5t40 108.5v335h88v-335zM458 608h-300v58h300v-58z" />
    <glyph glyph-name="uogonek.sc" horiz-adv-x="617" 
d="M540 547v-334q0 -124 -88 -184q-69 -48 -69 -96q0 -22 13.5 -34t36.5 -12q35 0 65 36v-69q-27 -29 -79 -29q-43 0 -71.5 22t-28.5 63q0 44 39 83q-27 -5 -51 -5q-104 0 -167.5 58.5t-63.5 166.5v334h87v-334q0 -72 39 -109.5t105 -37.5t106 38t40 109v334h87z" />
    <glyph glyph-name="uring.sc" horiz-adv-x="617" 
d="M414 679q0 -42 -30.5 -72t-75.5 -30t-75.5 30t-30.5 72t30.5 72.5t75.5 30.5t75.5 -30.5t30.5 -72.5zM364 679q0 23 -16.5 40t-39.5 17t-40 -17t-17 -40q0 -24 17 -40.5t40 -16.5t39.5 16.5t16.5 40.5zM541 212q0 -107 -64 -165.5t-169 -58.5q-104 0 -167.5 58.5
t-63.5 165.5v335h87v-335q0 -71 39 -108.5t105 -37.5q65 0 105 37.5t40 108.5v335h88v-335z" />
    <glyph glyph-name="Utilde.sc" horiz-adv-x="617" 
d="M541 212q0 -107 -64 -165.5t-169 -58.5q-104 0 -167.5 58.5t-63.5 165.5v335h87v-335q0 -71 39 -108.5t105 -37.5q65 0 105 37.5t40 108.5v335h88v-335zM437 702l35 -23q-14 -38 -40 -60.5t-56 -22.5q-24 0 -67.5 19t-61.5 19q-36 0 -66 -37l-35 23q14 38 40 60.5
t56 22.5q23 0 67 -19t63 -19q35 0 65 37z" />
    <glyph glyph-name="wacute.sc" horiz-adv-x="812" 
d="M784 547l-155 -547h-97l-126 430l-126 -430h-98l-152 547h91l116 -438l131 438h80l130 -440l114 440h92zM393 578l-35 29q56 60 89 120l83 -13q-15 -34 -54.5 -72.5t-82.5 -63.5z" />
    <glyph glyph-name="wcircumflex.sc" horiz-adv-x="812" 
d="M784 547l-155 -547h-97l-126 430l-126 -430h-98l-152 547h91l116 -438l131 438h80l130 -440l114 440h92zM374 725h68q55 -50 127 -101l-24 -42q-81 27 -137 79q-56 -52 -136 -79l-25 42q78 54 127 101z" />
    <glyph glyph-name="wdieresis.sc" horiz-adv-x="812" 
d="M784 547l-155 -547h-97l-126 430l-126 -430h-98l-152 547h91l116 -438l131 438h80l130 -440l114 440h92zM341 597h-76v78h76v-78zM550 597h-75v78h75v-78z" />
    <glyph glyph-name="wgrave.sc" horiz-adv-x="812" 
d="M784 547l-155 -547h-97l-126 430l-126 -430h-98l-152 547h91l116 -438l131 438h80l130 -440l114 440h92zM460 607l-34 -29q-43 25 -82.5 63.5t-54.5 72.5l83 13q32 -58 88 -120z" />
    <glyph glyph-name="yacute.alt1" horiz-adv-x="598" 
d="M287 578l-35 29q56 60 89 120l83 -13q-15 -34 -54.5 -72.5t-82.5 -63.5zM433 45v77q-69 -97 -178 -97q-84 0 -133 52.5t-49 144.5v298h87v-278q0 -135 115 -135q68 0 113 45t45 117v251h87v-458q0 -112 -53 -170q-68 -76 -202 -76q-116 0 -200 62l43 69q66 -52 159 -52
q73 0 119.5 36.5t46.5 113.5z" />
    <glyph glyph-name="yacute.sc" horiz-adv-x="540" 
d="M530 547l-217 -326v-221h-88v220q-130 200 -215 327h104l158 -244q25 38 77 120t80 124h101zM253 578l-35 29q56 60 89 120l83 -13q-15 -34 -54.5 -72.5t-82.5 -63.5z" />
    <glyph glyph-name="ycircumflex.alt1" horiz-adv-x="598" 
d="M433 45v77q-69 -97 -178 -97q-84 0 -133 52.5t-49 144.5v298h87v-278q0 -135 115 -135q68 0 113 45t45 117v251h87v-458q0 -112 -53 -170q-68 -76 -202 -76q-116 0 -200 62l43 69q66 -52 159 -52q73 0 119.5 36.5t46.5 113.5zM261 725h68q55 -50 127 -101l-24 -42
q-81 27 -137 79q-56 -52 -136 -79l-25 42q78 54 127 101z" />
    <glyph glyph-name="ycircumflex.sc" horiz-adv-x="540" 
d="M530 547l-217 -326v-221h-88v220q-130 200 -215 327h104l158 -244q25 38 77 120t80 124h101zM234 725h68q55 -50 127 -101l-24 -42q-81 27 -137 79q-56 -52 -136 -79l-25 42q78 54 127 101z" />
    <glyph glyph-name="ydieresis.alt1" horiz-adv-x="598" 
d="M433 45v77q-69 -97 -178 -97q-84 0 -133 52.5t-49 144.5v298h87v-278q0 -135 115 -135q68 0 113 45t45 117v251h87v-458q0 -112 -53 -170q-68 -76 -202 -76q-116 0 -200 62l43 69q66 -52 159 -52q73 0 119.5 36.5t46.5 113.5zM228 597h-76v78h76v-78zM437 597h-75v78h75
v-78z" />
    <glyph glyph-name="ydieresis.sc" horiz-adv-x="540" 
d="M530 547l-217 -326v-221h-88v220q-130 200 -215 327h104l158 -244q25 38 77 120t80 124h101zM203 597h-76v78h76v-78zM412 597h-75v78h75v-78z" />
    <glyph glyph-name="ygrave.alt1" horiz-adv-x="598" 
d="M353 607l-34 -29q-43 25 -82.5 63.5t-54.5 72.5l83 13q32 -58 88 -120zM433 45v77q-69 -97 -178 -97q-84 0 -133 52.5t-49 144.5v298h87v-278q0 -135 115 -135q68 0 113 45t45 117v251h87v-458q0 -112 -53 -170q-68 -76 -202 -76q-116 0 -200 62l43 69q66 -52 159 -52
q73 0 119.5 36.5t46.5 113.5z" />
    <glyph glyph-name="ygrave.sc" horiz-adv-x="540" 
d="M530 547l-217 -326v-221h-88v220q-130 200 -215 327h104l158 -244q25 38 77 120t80 124h101zM332 607l-34 -29q-43 25 -82.5 63.5t-54.5 72.5l83 13q32 -58 88 -120z" />
    <glyph glyph-name="zacute.sc" horiz-adv-x="528" 
d="M483 0h-440v70l317 399h-304v78h420v-70l-318 -400h325v-77zM255 578l-34 27q46 58 74 122l83 -13q-16 -35 -49.5 -72t-73.5 -64z" />
    <glyph glyph-name="zcaron.sc" horiz-adv-x="528" 
d="M483 0h-440v70l317 399h-304v78h420v-70l-318 -400h325v-77zM295 584h-68q-55 52 -127 101l25 42q79 -26 136 -78q57 52 137 78l24 -42q-66 -45 -127 -101z" />
    <glyph glyph-name="zdotaccent.sc" horiz-adv-x="528" 
d="M483 0h-440v70l317 399h-304v78h420v-70l-318 -400h325v-77zM301 598h-78v77h78v-77z" />
    <glyph glyph-name="fl.alt1" horiz-adv-x="620" 
d="M349 714l-12 -72q-36 9 -63 9q-37 0 -55 -15.5t-18 -52.5v-63h122v-72h-122v-448h-87v448h-89v72h89v61q0 71 41 107.5t114 36.5q50 0 80 -11zM419 127v587h87v-588q0 -33 12 -46.5t37 -13.5q29 0 44 11l19 -70q-26 -17 -74 -17q-73 0 -104 44q-21 30 -21 93z" />
    <glyph glyph-name="one.alt1" 
d="M296 0v555q-67 -36 -168 -49l-11 74q143 27 202 86h71v-666h-94z" />
    <glyph glyph-name="zero.lin" horiz-adv-x="598" 
d="M544 333q0 -66 -12.5 -124t-39.5 -109.5t-76.5 -81.5t-116.5 -30t-116.5 30t-76.5 81.5t-39.5 109.5t-12.5 124t12.5 124t39.5 109.5t76.5 81.5t116.5 30t116.5 -30t76.5 -81.5t39.5 -109.5t12.5 -124zM447 333q0 74 -13 130.5t-47 95t-88 38.5q-79 0 -114 -74t-35 -190
q0 -55 7.5 -100.5t24 -84t46.5 -60t71 -21.5q54 0 88 39t47 95.5t13 131.5z" />
    <glyph glyph-name="one.lin" horiz-adv-x="387" 
d="M296 666v-666h-95v556q-61 -34 -167 -46l-12 70q143 27 202 86h72z" />
    <glyph glyph-name="two.lin" horiz-adv-x="561" 
d="M518 0h-466v72q195 161 268.5 244t73.5 154q0 60 -36 91.5t-93 31.5q-98 0 -153 -91l-74 46q86 130 234 130q96 0 158 -55.5t62 -148.5q0 -88 -68.5 -172.5t-235.5 -215.5h330v-86z" />
    <glyph glyph-name="three.lin" horiz-adv-x="574" 
d="M277 305h-52v81h54q61 0 94.5 29t33.5 79q0 47 -33.5 73.5t-91.5 26.5q-103 0 -159 -80l-70 49q88 115 232 115q96 0 156.5 -49t60.5 -126q0 -101 -100 -150q59 -23 89.5 -67t30.5 -97q0 -87 -64.5 -144t-173.5 -57q-174 0 -248 135l81 44q48 -95 167 -95q67 0 104 33
t37 89q0 51 -37.5 81t-110.5 30z" />
    <glyph glyph-name="four.lin" 
d="M547 156h-98v-156h-92v156h-324v77q66 114 101 229.5t35 203.5h91q0 -89 -37.5 -206t-101.5 -222h236v282h92v-282h98v-82z" />
    <glyph glyph-name="five.lin" horiz-adv-x="566" 
d="M273 73q69 0 110 37.5t41 103.5q0 64 -39.5 100.5t-107.5 36.5q-91 0 -143 -64l-57 27l22 352h384v-86h-307l-16 -191q59 42 139 42q96 0 159 -59.5t63 -154.5q0 -97 -66 -163t-179 -66q-164 0 -238 127l79 47q47 -89 156 -89z" />
    <glyph glyph-name="six.lin" horiz-adv-x="570" 
d="M417 666q-74 -59 -144 -136.5t-98 -144.5q48 52 148 52q92 0 153 -60.5t61 -158.5q0 -102 -67.5 -166t-177.5 -64q-111 0 -177.5 65.5t-66.5 181.5q0 115 62.5 219.5t174.5 211.5h132zM144 216q0 -65 39.5 -104.5t109.5 -39.5q69 0 107.5 39.5t38.5 104.5
q0 66 -38.5 104.5t-107.5 38.5q-70 0 -109.5 -39t-39.5 -104z" />
    <glyph glyph-name="seven.lin" horiz-adv-x="527" 
d="M505 666v-76q-41 -53 -80 -110.5t-86.5 -140t-78 -172t-34.5 -167.5h-101q13 243 270 580h-375v86h485z" />
    <glyph glyph-name="eight.lin" horiz-adv-x="591" 
d="M296 69q69 0 108 33.5t39 91.5t-37.5 90.5t-109.5 32.5t-109.5 -32.5t-37.5 -90.5t38.5 -91.5t108.5 -33.5zM296 395q58 0 91 26.5t33 74.5t-33.5 75t-90.5 27t-90.5 -27t-33.5 -75t33 -74.5t91 -26.5zM296 -12q-112 0 -178.5 56.5t-66.5 143.5q0 56 30.5 102t89.5 71
q-95 44 -95 142q0 78 62.5 126.5t157.5 48.5t157.5 -48.5t62.5 -126.5q0 -97 -96 -142q60 -25 90 -70.5t30 -102.5q0 -88 -66 -144t-178 -56z" />
    <glyph glyph-name="nine.lin" horiz-adv-x="570" 
d="M153 0q74 59 144 136.5t98 144.5q-48 -52 -148 -52q-92 0 -153 60.5t-61 158.5q0 102 67.5 166t177.5 64q111 0 177.5 -65.5t66.5 -181.5q0 -115 -63 -219t-174 -212h-132zM426 450q0 65 -39.5 104.5t-109.5 39.5q-69 0 -107.5 -39.5t-38.5 -104.5q0 -66 38.5 -104.5
t107.5 -38.5q70 0 109.5 39t39.5 104z" />
    <glyph glyph-name="hyphen.lin" horiz-adv-x="391" 
d="M330 294h-269v78h269v-78z" />
    <glyph glyph-name="endash.lin" 
d="M528 295h-476v76h476v-76z" />
    <glyph glyph-name="emdash.lin" horiz-adv-x="935" 
d="M873 295h-811v76h811v-76z" />
    <glyph glyph-name="parenleft.lin" horiz-adv-x="278" 
d="M251 0l-52 -44q-152 161 -152 377q0 218 152 377l52 -44q-126 -140 -126 -333t126 -333z" />
    <glyph glyph-name="parenright.lin" horiz-adv-x="278" 
d="M27 666l52 44q152 -161 152 -377q0 -218 -152 -377l-52 44q126 140 126 333q0 192 -126 333z" />
    <glyph glyph-name="bracketleft.lin" horiz-adv-x="326" 
d="M290 -10h-208v686h208v-69h-129v-548h129v-69z" />
    <glyph glyph-name="bracketright.lin" horiz-adv-x="328" 
d="M246 -10h-210v69h131v548h-131v69h210v-686z" />
    <glyph glyph-name="braceleft.lin" horiz-adv-x="386" 
d="M354 -19h-41q-76 0 -122.5 44.5t-46.5 125.5v48q0 100 -90 100h-29v68h29q90 0 90 99v49q0 81 46.5 126t122.5 45h41v-69h-37q-93 0 -93 -100v-45q0 -108 -84 -139q84 -33 84 -139v-45q0 -100 93 -100h37v-68z" />
    <glyph glyph-name="braceright.lin" horiz-adv-x="386" 
d="M361 299h-28q-91 0 -91 -100v-48q0 -81 -45.5 -125.5t-122.5 -44.5h-42v68h37q94 0 94 100v45q0 106 84 139q-84 31 -84 138v46q0 100 -94 100h-37v69h42q76 0 122 -45t46 -126v-49q0 -99 91 -99h28v-68z" />
    <glyph glyph-name="registered.alt" horiz-adv-x="769" 
d="M736 333q0 -145 -103 -248t-248 -103t-248.5 103t-103.5 248t103 248t249 103q145 0 248 -103t103 -248zM683 333q0 124 -87.5 211t-210.5 87t-210.5 -87t-87.5 -211t87 -211t211 -87q123 0 210.5 87t87.5 211zM553 143h-73l-77 143h-94v-143h-67v382h166q62 0 99 -32.5
t37 -85.5q0 -39 -21.5 -67t-54.5 -41zM475 405q0 29 -18 47t-50 18h-98v-129h98q33 0 50.5 17.5t17.5 46.5z" />
    <glyph glyph-name="copyright.sc" horiz-adv-x="659" 
d="M427 220l47 -31q-22 -39 -61 -60.5t-84 -21.5q-69 0 -117.5 49t-48.5 117q0 70 48.5 119t117.5 49q44 0 82.5 -22t61.5 -62l-47 -32q-34 58 -97 58q-45 0 -77 -32.5t-32 -77.5t32 -77.5t77 -32.5q61 0 98 57zM38 273q0 121 85 206.5t206 85.5t206.5 -85.5t85.5 -206.5
t-85.5 -206t-206.5 -85t-206 85t-85 206zM82 273q0 -103 72.5 -175t174.5 -72q103 0 176 72t73 175t-73 175.5t-176 72.5q-102 0 -174.5 -72.5t-72.5 -175.5z" />
    <glyph glyph-name="uni2117.sc" horiz-adv-x="659" 
d="M362 230h-81v-117h-59v320h140q51 0 82 -28.5t31 -73.5q0 -43 -30 -72t-83 -29zM415 330q0 53 -63 53h-71v-105h71q63 0 63 52zM38 273q0 121 85 206.5t206 85.5t206.5 -85.5t85.5 -206.5t-85.5 -206t-206.5 -85t-206 85t-85 206zM82 273q0 -103 72.5 -175t174.5 -72
q103 0 176 72t73 175t-73 175.5t-176 72.5q-102 0 -174.5 -72.5t-72.5 -175.5z" />
    <glyph glyph-name="registered.sc" horiz-adv-x="378" 
d="M336 416q0 -61 -43 -103.5t-103 -42.5q-62 0 -105 42.5t-43 103.5q0 62 43 105t105 43q60 0 103 -43.5t43 -104.5zM316 416q0 53 -37 90t-89 37q-53 0 -90 -37t-37 -90t37 -89.5t90 -36.5q52 0 89 37t37 89zM225 402l37 -66h-34l-32 60h-38v-60h-29v162h74q23 0 38.5 -14
t15.5 -36q0 -36 -32 -46zM226 447q0 11 -7 18t-17 7h-44v-51h44q10 0 17 7.5t7 18.5z" />
    <glyph glyph-name="at.lin" horiz-adv-x="769" 
d="M589 152q-74 0 -103 59q-44 -61 -123 -61q-70 0 -113.5 51t-43.5 129t44 128.5t118 50.5q61 0 103 -46v39h72v-242q0 -56 51 -56q41 0 61.5 34.5t20.5 93.5q0 124 -80 206.5t-207 82.5t-208 -84.5t-81 -205.5t81 -205t207 -84q80 0 145 39l28 -50q-76 -46 -176 -46
q-151 0 -250.5 100t-99.5 246t99.5 246.5t253.5 100.5q152 0 250.5 -99t98.5 -240q0 -85 -40.5 -136t-107.5 -51zM471 329q0 50 -25 82.5t-71 32.5q-45 0 -69 -32t-24 -83q0 -50 24 -82t69 -32q46 0 71 32t25 82z" />
    <glyph glyph-name="onehalf.alt1" horiz-adv-x="950" 
d="M883 0h-312v53q129 102 175.5 151.5t46.5 90.5q0 33 -24.5 52t-58.5 19q-61 0 -97 -55l-55 34q62 85 156 85q67 0 109.5 -35t42.5 -97q0 -54 -37 -99.5t-149 -135.5h203v-63zM236 666v-423h-70v341q-40 -17 -107 -26l-10 54q96 18 135 54h52zM725 666l-480 -666h-67
l481 666h66z" />
    <glyph glyph-name="onethird.alt1" horiz-adv-x="950" 
d="M238 666v-423h-70v341q-40 -17 -107 -26l-10 54q96 18 135 54h52zM880 121q0 -57 -43.5 -93t-112.5 -36q-121 0 -168 93l64 25q30 -54 104 -54q39 0 61.5 19t22.5 49q0 28 -19.5 43.5t-54.5 15.5h-55v62h53q24 0 45 15t21 45t-24 45.5t-59 15.5q-65 0 -98 -48l-54 33
q55 79 156 79q65 0 106.5 -30.5t41.5 -85.5q0 -64 -51 -92q64 -24 64 -101zM727 666l-480 -666h-67l481 666h66z" />
    <glyph glyph-name="onequarter.alt1" horiz-adv-x="950" 
d="M236 666v-423h-70v341q-40 -17 -107 -26l-10 54q96 18 135 54h52zM890 96h-64v-96h-67v96h-212v57q82 143 85 269h68q-3 -126 -80 -264h139v169h67v-169h64v-62zM725 666l-480 -666h-67l481 666h66z" />
    <glyph glyph-name="uni2155.alt1" horiz-adv-x="950" 
d="M725 666l-480 -666h-67l481 666h66zM881 136q0 -58 -40.5 -101t-120.5 -43q-108 0 -160 83l59 32q30 -51 102 -51q38 0 63.5 20.5t25.5 59.5q0 38 -25 59.5t-69 21.5q-55 0 -90 -41l-40 19l13 227h258v-64h-199q-1 -20 -5 -56.5t-5 -50.5q37 24 87 24q66 0 106 -37.5
t40 -101.5zM236 666v-423h-70v341q-40 -17 -107 -26l-10 54q96 18 135 54h52z" />
    <glyph glyph-name="uni2159.alt1" horiz-adv-x="950" 
d="M732 666l-480 -666h-67l481 666h66zM629 138q0 -37 24.5 -60t67.5 -23t67.5 23t24.5 61t-24.5 60.5t-67.5 22.5t-67.5 -23t-24.5 -61zM794 422q-110 -81 -149 -175q37 34 93 34q64 0 105 -38.5t41 -102.5q0 -65 -45 -106.5t-117 -41.5q-75 0 -119.5 42.5t-44.5 120.5
q0 143 138 267h98zM243 666v-423h-70v341q-40 -17 -107 -26l-10 54q96 18 135 54h52z" />
    <glyph glyph-name="oneeighth.alt1" horiz-adv-x="950" 
d="M236 666v-423h-70v341q-40 -17 -107 -26l-10 54q96 18 135 54h52zM883 117q0 -59 -45 -92t-118 -33t-118 33t-45 92q0 74 72 108q-56 27 -56 92q0 53 40.5 83t106.5 30q67 0 107 -29.5t40 -83.5q0 -59 -57 -91q73 -36 73 -109zM798 313q0 28 -22 42.5t-55 14.5
t-55.5 -14.5t-22.5 -42.5q0 -30 22.5 -45.5t54.5 -15.5q33 0 55.5 15.5t22.5 45.5zM812 121q0 37 -26 55.5t-66 18.5t-66 -18.5t-26 -54.5q0 -35 26 -52.5t66 -17.5t66 17t26 52zM725 666l-480 -666h-67l481 666h66z" />
    <glyph glyph-name="onesuperior.alt1" horiz-adv-x="267" 
d="M197 759v-423h-70v341q-40 -17 -107 -26l-10 54q96 18 135 54h52z" />
    <glyph glyph-name="oneinferior.alt1" horiz-adv-x="266" 
d="M196 329v-422h-70v340q-40 -17 -107 -26l-10 54q96 18 135 54h52z" />
    <glyph glyph-name="periodcentered.lin" horiz-adv-x="255" 
d="M190 333q0 -26 -18.5 -44.5t-43.5 -18.5q-26 0 -44.5 19t-18.5 44q0 26 19 45t44 19t43.5 -19t18.5 -45z" />
    <glyph glyph-name="slash.lin" horiz-adv-x="316" 
d="M302 666l-217 -666h-70l216 666h71z" />
    <glyph glyph-name="bar.lin" horiz-adv-x="229" 
d="M148 -48h-67v762h67v-762z" />
    <glyph glyph-name="backslash.lin" horiz-adv-x="316" 
d="M301 0h-71l-216 666h70z" />
    <glyph glyph-name="exclamdown.lin" horiz-adv-x="266" 
d="M183 0h-100v148l27 315h46l27 -315v-148zM183 555h-100v111h100v-111z" />
    <glyph glyph-name="questiondown.lin" horiz-adv-x="477" 
d="M467 71q-96 -83 -214 -83q-94 0 -157.5 53.5t-63.5 143.5q-3 85 55 139t153 70v69h84v-145q-17 4 -36 4q-71 0 -116 -35t-45 -94q0 -55 35.5 -88t100.5 -33q85 0 152 62zM336 564h-107v102h107v-102z" />
    <glyph glyph-name="plus.lin" 
d="M528 295h-200v-200h-77v200h-199v76h199v200h77v-200h200v-76z" />
    <glyph glyph-name="minus.lin" 
d="M528 295h-476v76h476v-76z" />
    <glyph glyph-name="divide.lin" 
d="M352 520q0 -26 -18 -44.5t-44 -18.5t-44 18.5t-18 44.5q0 25 18 43.5t44 18.5q25 0 43.5 -18.5t18.5 -43.5zM528 295h-476v76h476v-76zM352 146q0 -25 -18.5 -43.5t-43.5 -18.5q-26 0 -44 18.5t-18 43.5t18 44t44 19q25 0 43.5 -19t18.5 -44z" />
    <glyph glyph-name="equal.lin" 
d="M528 393h-476v76h476v-76zM528 197h-476v77h476v-77z" />
    <glyph glyph-name="multiply.lin" 
d="M519 158l-54 -55l-175 176l-176 -176l-54 55l176 175l-176 175l54 55l176 -176l175 176l54 -55l-175 -175z" />
    <glyph glyph-name="less.lin" 
d="M444 107l-52 -53l-281 279l281 281l52 -53l-226 -228z" />
    <glyph glyph-name="greater.lin" 
d="M469 333l-281 -279l-52 53l227 226l-227 228l52 53z" />
    <glyph glyph-name="zero.osf" horiz-adv-x="640" 
d="M50 273q0 122 73.5 204t196.5 82q122 0 196.5 -82t74.5 -204t-74.5 -203.5t-196.5 -81.5q-123 0 -196.5 81.5t-73.5 203.5zM138 273q0 -88 48.5 -145.5t133.5 -57.5t133.5 57.5t48.5 145.5t-48.5 146t-133.5 58t-133.5 -58t-48.5 -146z" />
    <glyph glyph-name="one.osf" horiz-adv-x="371" 
d="M287 547v-547h-87v442q-66 -37 -169 -50l-11 69q138 28 200 86h67z" />
    <glyph glyph-name="two.osf" horiz-adv-x="551" 
d="M261 475q-49 0 -89 -24t-64 -62l-69 50q86 120 228 120q95 0 152.5 -49.5t57.5 -130.5q0 -83 -63.5 -148.5t-195.5 -146.5h298v-84h-462v70q167 102 206 131q116 93 122 169q0 48 -33.5 76.5t-87.5 28.5z" />
    <glyph glyph-name="three.osf" horiz-adv-x="550" 
d="M260 188h-48v79h51q62 0 96.5 29t34.5 79q0 48 -34 74.5t-94 26.5q-103 0 -159 -74l-67 43q87 114 227 114q94 0 155 -49t61 -127q0 -99 -101 -149q60 -23 91 -67t31 -97q0 -87 -64 -144.5t-171 -57.5q-169 0 -246 130l74 44q49 -92 171 -92q68 0 106.5 34t38.5 91
q0 53 -38.5 83t-114.5 30z" />
    <glyph glyph-name="four.osf" horiz-adv-x="569" 
d="M541 36h-99v-156h-88v156h-324v75q61 109 97.5 230t38.5 206h88q-2 -89 -39 -208.5t-98 -222.5h238v275h87v-275h99v-80z" />
    <glyph glyph-name="five.osf" horiz-adv-x="532" 
d="M252 -49q70 0 112 38t42 105q0 65 -40 102t-111 37q-91 0 -143 -63l-54 25l22 352h380v-84h-309l-16 -198q66 45 143 45q96 0 157.5 -59t61.5 -155q0 -95 -65 -161.5t-177 -66.5q-160 0 -235 127l74 44q47 -88 158 -88z" />
    <glyph glyph-name="six.osf" horiz-adv-x="548" 
d="M321 686l59 -63q-72 -44 -142 -116.5t-89 -139.5q48 66 155 66q92 0 154.5 -60t62.5 -157q0 -100 -67.5 -164t-175.5 -64q-110 0 -176 67.5t-66 186.5q0 125 75.5 240t209.5 204zM128 213q0 -65 40 -104t112 -39q71 0 110.5 39.5t39.5 104.5q0 66 -39.5 105t-110.5 39
q-72 0 -112 -39.5t-40 -105.5z" />
    <glyph glyph-name="seven.osf" horiz-adv-x="534" 
d="M508 547v-75q-42 -55 -81.5 -114.5t-86 -142t-77 -171t-35.5 -164.5h-96q5 76 35.5 164t76 169t83.5 138.5t78 111.5h-378v84h481z" />
    <glyph glyph-name="eight.osf" horiz-adv-x="576" 
d="M288 65q71 0 111 34t40 94q0 59 -38.5 92.5t-112.5 33.5t-112.5 -33.5t-38.5 -92.5t40 -93.5t111 -34.5zM288 392q60 0 94 27.5t34 76.5t-34.5 77t-93.5 28t-93.5 -28t-34.5 -77t34 -76.5t94 -27.5zM288 -12q-110 0 -176.5 55.5t-66.5 142.5q0 55 30.5 102t93.5 73
q-100 45 -100 142q0 78 61.5 126.5t157.5 48.5t157.5 -48.5t61.5 -126.5q0 -97 -99 -142q63 -26 93 -73t30 -102q0 -87 -66.5 -142.5t-176.5 -55.5z" />
    <glyph glyph-name="nine.osf" horiz-adv-x="551" 
d="M230 -139l-60 63q72 44 142 116.5t89 138.5q-24 -32 -66.5 -48.5t-88.5 -16.5q-92 0 -154.5 60t-62.5 157q0 100 67.5 164t175.5 64q110 0 176 -67.5t66 -186.5q0 -125 -75.5 -240t-208.5 -204zM422 333q0 65 -40 104t-111 39q-72 0 -111 -39.5t-39 -104.5t39 -103.5
t111 -38.5q71 0 111 39t40 104z" />
    <glyph glyph-name="zero.tosf" 
d="M531 273q0 -124 -60 -204.5t-180 -80.5q-122 0 -182 80.5t-60 204.5q0 125 60 205.5t182 80.5q82 0 137.5 -40.5t79 -103t23.5 -142.5zM439 273q0 207 -148 207q-150 0 -150 -207t150 -207q148 0 148 207z" />
    <glyph glyph-name="one.tosf" 
d="M516 0h-411v75h166v367q-70 -39 -169 -50l-11 69q138 28 200 86h67v-472h158v-75z" />
    <glyph glyph-name="onetosf.alt1" 
d="M386 547v-547h-87v442q-70 -39 -169 -50l-11 69q138 28 200 86h67z" />
    <glyph glyph-name="two.tosf" 
d="M275 475q-96 0 -153 -86l-69 50q86 120 229 120q94 0 152 -50t58 -130q0 -83 -63.5 -148.5t-196.5 -146.5h298v-84h-462v70q167 102 206 131q116 93 122 169q0 48 -33.5 76.5t-87.5 28.5z" />
    <glyph glyph-name="three.tosf" 
d="M275 188h-48v79h51q62 0 96.5 29t34.5 79q0 48 -34 74.5t-94 26.5q-103 0 -159 -74l-67 43q87 114 227 114q94 0 155 -49t61 -127q0 -99 -101 -149q60 -23 91 -67t31 -97q0 -87 -64 -144.5t-171 -57.5q-169 0 -246 130l74 44q49 -92 171 -92q68 0 106.5 34t38.5 91
q0 53 -38.5 83t-114.5 30z" />
    <glyph glyph-name="four.tosf" 
d="M546 36h-98v-156h-88v156h-324v75q61 109 97.5 230t38.5 206h87q-2 -88 -39 -207.5t-98 -223.5h239v275h87v-275h98v-80z" />
    <glyph glyph-name="five.tosf" 
d="M275 -49q71 0 113 38t42 105q0 65 -40 102t-111 37q-91 0 -143 -63l-55 25l23 352h379v-84h-308l-16 -198q65 45 142 45q96 0 157.5 -59t61.5 -155q0 -95 -65 -161.5t-177 -66.5q-158 0 -235 127l74 44q47 -88 158 -88z" />
    <glyph glyph-name="six.tosf" 
d="M336 686l60 -63q-73 -44 -143 -116.5t-89 -139.5q49 66 156 66q92 0 154.5 -60t62.5 -157q0 -100 -67.5 -164t-175.5 -64q-110 0 -176 67.5t-66 186.5q0 125 75.5 240t208.5 204zM143 213q0 -65 40 -104t112 -39t111 39.5t39 104.5q0 66 -39 105t-111 39t-112 -39.5
t-40 -105.5z" />
    <glyph glyph-name="seven.tosf" 
d="M531 547v-75q-42 -55 -81.5 -114.5t-86 -142t-77 -171t-35.5 -164.5h-96q5 76 35.5 164t76 169t83.5 138.5t78 111.5h-378v84h481z" />
    <glyph glyph-name="eight.tosf" 
d="M290 65q71 0 111 34t40 94q0 59 -38.5 92.5t-112.5 33.5t-112.5 -33.5t-38.5 -92.5t40 -93.5t111 -34.5zM290 392q60 0 94 27.5t34 76.5t-34.5 77t-93.5 28t-93.5 -28t-34.5 -77t34 -76.5t94 -27.5zM290 -12q-110 0 -176.5 55.5t-66.5 142.5q0 55 30.5 102t93.5 73
q-100 45 -100 142q0 78 61.5 126.5t157.5 48.5t157.5 -48.5t61.5 -126.5q0 -97 -99 -142q63 -26 93 -73t30 -102q0 -87 -66.5 -142.5t-176.5 -55.5z" />
    <glyph glyph-name="nine.tosf" 
d="M244 -139l-59 63q72 44 142 116.5t89 138.5q-25 -33 -67 -49t-88 -16q-92 0 -155 60t-63 157q0 100 67.5 164t176.5 64q110 0 176 -67.5t66 -186.5q0 -125 -75.5 -240t-209.5 -204zM437 333q0 65 -40 104t-112 39q-71 0 -110 -39.5t-39 -104.5t39 -103.5t110 -38.5
q72 0 112 39t40 104z" />
    <glyph glyph-name="dollar.osf" 
d="M495 458l-62 -43q-41 53 -116 66v-164q93 -19 140.5 -53t47.5 -104q0 -68 -50.5 -113.5t-137.5 -51.5v-73h-49v73q-139 7 -205 111l67 40q44 -71 138 -81v182q-180 30 -180 153q0 67 50.5 107.5t129.5 44.5v64h49v-65q108 -12 178 -93zM423 154q0 36 -26.5 53.5
t-79.5 29.5v-174q48 5 77 29t29 62zM170 406q0 -34 24 -51.5t74 -28.5v158q-42 -2 -70 -21.5t-28 -56.5z" />
    <glyph glyph-name="sterling.osf" 
d="M464 116l65 -36q-41 -91 -117 -91q-27 0 -84.5 17.5t-89.5 17.5q-65 0 -131 -36l-32 60q93 50 93 119q0 30 -14 61h-89v59h65q-29 63 -29 104q0 74 55.5 121t142.5 47q129 0 201 -107l-70 -41q-46 70 -129 70q-50 0 -82 -24.5t-32 -70.5q0 -37 30 -99h173v-59h-155
q9 -24 9 -46q0 -56 -46 -103q33 13 63 13q29 0 75 -13.5t64 -13.5q44 0 64 51z" />
    <glyph glyph-name="Euro.osf" 
d="M13 300v46h64q20 97 91.5 155t172.5 58q142 0 221 -114l-71 -46q-52 82 -149 82q-65 0 -110.5 -37t-61.5 -98h215v-46h-223q-1 -9 -1 -26q0 -20 1 -29h223v-46h-214q17 -62 63 -98t109 -36q93 0 149 83l70 -45q-73 -115 -222 -115q-101 0 -171.5 58t-90.5 153h-65v46h59
q-1 10 -1 29q0 17 1 26h-59z" />
    <glyph glyph-name="yen.osf" 
d="M523 547l-150 -258h112v-50h-140l-12 -19v-43h152v-50h-152v-127h-84v127h-154v50h154v42l-13 20h-141v50h113q-24 42 -150 258h98l137 -249l135 249h95z" />
    <glyph glyph-name="cent.osf" 
d="M447 145l64 -46q-66 -93 -177 -103v-78h-51v79q-98 9 -156 80.5t-58 177.5q0 105 58 176.5t156 81.5v79h51v-78q110 -10 174 -102l-62 -50q-43 66 -112 75v-365q70 10 113 73zM157 255q0 -72 34 -122t92 -60v363q-58 -11 -92 -60.5t-34 -120.5z" />
    <glyph glyph-name="ampersand.sc" horiz-adv-x="606" 
d="M484 257l72 -21q-26 -81 -74 -134l106 -102h-110l-52 49q-79 -61 -181 -61q-88 0 -145.5 42t-57.5 116q0 104 129 156q-64 61 -64 125q0 63 45 97.5t117 34.5q71 0 115.5 -35t44.5 -93q0 -91 -134 -149l136 -129q36 49 53 104zM255 58q71 0 121 42l-159 153
q-90 -37 -90 -99q0 -43 35.5 -69.5t92.5 -26.5zM354 428q0 31 -24.5 49t-59.5 18q-36 0 -60 -18t-24 -50q0 -41 61 -98q51 21 79 44t28 55z" />
    <glyph glyph-name="percent.osf" horiz-adv-x="655" 
d="M301 419q0 -60 -38 -99t-98 -39q-59 0 -97 39t-38 99q0 58 38 97t97 39q60 0 98 -39t38 -97zM513 547l-305 -547h-66l306 547h65zM626 130q0 -60 -38 -99t-98 -39q-59 0 -97 39t-38 99q0 58 38 97t97 39t97.5 -39t38.5 -97zM243 419q0 34 -21.5 57t-56.5 23t-56 -23
t-21 -57q0 -35 21 -59t56 -24t56.5 24t21.5 59zM568 130q0 34 -21.5 57.5t-56.5 23.5q-34 0 -55.5 -23.5t-21.5 -57.5q0 -35 21.5 -58.5t55.5 -23.5q36 0 57 23t21 59z" />
    <glyph glyph-name="perthousand.osf" horiz-adv-x="950" 
d="M301 419q0 -60 -38 -99t-98 -39q-59 0 -97 39t-38 99q0 58 38 97t97 39q60 0 98 -39t38 -97zM513 547l-305 -547h-66l306 547h65zM626 130q0 -60 -38 -99t-98 -39q-59 0 -97 39t-38 99q0 58 38 97t97 39t97.5 -39t38.5 -97zM243 419q0 34 -21.5 57t-56.5 23t-56 -22.5
t-21 -57.5q0 -36 21 -59.5t56 -23.5t56.5 24t21.5 59zM568 130q0 34 -21.5 57.5t-56.5 23.5q-34 0 -55.5 -23.5t-21.5 -57.5q0 -35 21.5 -58.5t55.5 -23.5q36 0 57 23t21 59zM926 130q0 -60 -37.5 -99t-96.5 -39q-60 0 -98.5 39t-38.5 99q0 58 38.5 97t98.5 39
q59 0 96.5 -39t37.5 -97zM869 130q0 34 -21.5 57.5t-55.5 23.5q-35 0 -57 -23.5t-22 -57.5q0 -35 22 -58.5t57 -23.5t56 23.5t21 58.5z" />
    <glyph glyph-name="exclam.sc" horiz-adv-x="266" 
d="M178 427l-24 -262h-44l-23 262v120h91v-120zM178 0h-91v102h91v-102z" />
    <glyph glyph-name="exclamdown.sc" horiz-adv-x="273" 
d="M91 119l23 262h44l24 -262v-119h-91v119zM182 445h-91v102h91v-102z" />
    <glyph glyph-name="question.sc" horiz-adv-x="447" 
d="M407 392q0 -71 -50 -117t-127 -55v-56h-78v125q15 -4 35 -4q58 0 95 28t37 76q0 42 -30 68.5t-82 26.5q-65 0 -129 -52l-48 55q87 72 186 72q83 0 137 -45.5t54 -121.5zM244 0h-104v97h104v-97z" />
    <glyph glyph-name="questiondown.sc" horiz-adv-x="448" 
d="M41 154q0 72 50 118t128 55v56h77v-125q-19 4 -35 4q-57 0 -94.5 -28.5t-37.5 -75.5q0 -43 30 -69.5t82 -26.5q66 0 129 53l48 -55q-85 -72 -185 -72q-83 0 -137.5 45t-54.5 121zM309 449h-104v98h104v-98z" />
    <glyph glyph-name="i.dot" horiz-adv-x="243" 
d="M165 0h-87v520h87v-520zM160 594h-78v72h78v-72z" />
    <glyph glyph-name="zero.den" horiz-adv-x="403" 
d="M362 211q0 -102 -36 -160.5t-125 -58.5q-159 0 -159 219q0 102 35.5 160.5t123.5 58.5q89 0 125 -58.5t36 -160.5zM292 211q0 78 -19.5 118.5t-71.5 40.5q-51 0 -70 -40.5t-19 -118.5t19 -118t70 -40q52 0 71.5 40t19.5 118z" />
    <glyph glyph-name="one.den" horiz-adv-x="326" 
d="M42 62h108v279q-42 -19 -108 -26l-10 53q96 20 135 54h52v-360h94v-62h-271v62z" />
    <glyph glyph-name="onenum.alt1" horiz-adv-x="283" 
d="M198 666v-423h-70v341q-40 -17 -107 -26l-10 54q96 18 135 54h52z" />
    <glyph glyph-name="two.den" horiz-adv-x="382" 
d="M350 0h-311v53q129 102 175.5 151.5t46.5 90.5q0 33 -24.5 52t-59.5 19q-60 0 -96 -55l-55 34q62 85 156 85q67 0 109.5 -35t42.5 -97q0 -54 -37 -99.5t-149 -135.5h202v-63z" />
    <glyph glyph-name="three.den" horiz-adv-x="390" 
d="M351 121q0 -57 -43.5 -93t-112.5 -36q-121 0 -168 93l64 25q30 -54 104 -54q39 0 61.5 19t22.5 49q0 28 -19.5 43.5t-54.5 15.5h-55v62h52q25 0 46 15t21 45t-24 45.5t-59 15.5q-65 0 -98 -48l-54 33q55 79 157 79q64 0 105.5 -31t41.5 -85q0 -64 -51 -92q64 -24 64 -101
z" />
    <glyph glyph-name="four.den" horiz-adv-x="386" 
d="M365 96h-63v-96h-68v96h-211v57q82 143 85 269h68q-3 -124 -81 -264h140v169h67v-169h63v-62z" />
    <glyph glyph-name="five.den" horiz-adv-x="381" 
d="M348 136q0 -58 -40.5 -101t-121.5 -43q-108 0 -160 83l59 32q30 -51 102 -51q38 0 63.5 20.5t25.5 59.5q0 38 -24.5 59.5t-68.5 21.5q-56 0 -91 -41l-40 19l13 227h259v-64h-200q-2 -31 -10 -107q37 24 87 24q66 0 106.5 -37.5t40.5 -101.5z" />
    <glyph glyph-name="six.den" horiz-adv-x="387" 
d="M108 138q0 -37 24.5 -60t67.5 -23q44 0 68 23t24 61t-24 60.5t-68 22.5q-43 0 -67.5 -23t-24.5 -61zM273 422q-110 -81 -149 -175q37 34 94 34q63 0 104 -38.5t41 -102.5q0 -65 -45 -106.5t-117 -41.5q-75 0 -119.5 42.5t-44.5 120.5q0 142 138 267h98z" />
    <glyph glyph-name="seven.den" horiz-adv-x="351" 
d="M341 422v-55q-174 -216 -181 -367h-75q3 48 20.5 100t48 103.5t51 82t51.5 72.5h-239v64h324z" />
    <glyph glyph-name="eight.den" horiz-adv-x="402" 
d="M364 117q0 -59 -45 -92t-118 -33t-118 33t-45 92q0 74 72 108q-56 27 -56 92q0 54 40.5 83.5t106.5 29.5q67 0 107 -29.5t40 -83.5q0 -60 -58 -91q74 -36 74 -109zM279 313q0 28 -22.5 42.5t-55.5 14.5t-55 -14.5t-22 -42.5q0 -30 22 -45.5t54 -15.5q33 0 56 15.5
t23 45.5zM293 121q0 37 -26 55.5t-66 18.5t-66.5 -18.5t-26.5 -54.5q0 -35 26.5 -52.5t66.5 -17.5t66 17t26 52z" />
    <glyph glyph-name="nine.den" horiz-adv-x="387" 
d="M280 283q0 38 -25 61t-69 23q-43 0 -67 -23t-24 -62q0 -38 24 -60t67 -22q44 0 69 23t25 60zM115 0q112 83 148 173q-35 -31 -93 -31q-64 0 -105 38t-41 101q0 66 45 107.5t117 41.5q75 0 119.5 -42.5t44.5 -120.5q0 -141 -137 -267h-98z" />
    <glyph glyph-name="zero.num" horiz-adv-x="404" 
d="M362 455q0 -102 -36 -161t-125 -59q-88 0 -123.5 59t-35.5 161t35.5 160.5t123.5 58.5q89 0 125 -58.5t36 -160.5zM292 455q0 78 -19.5 118t-71.5 40q-51 0 -70 -40t-19 -118t19 -118.5t70 -40.5q52 0 71.5 40.5t19.5 118.5z" />
    <glyph glyph-name="one.num" horiz-adv-x="327" 
d="M42 306h108v278q-43 -18 -108 -26l-10 54q97 18 135 54h52v-360h94v-63h-271v63z" />
    <glyph glyph-name="oneden.alt1" horiz-adv-x="284" 
d="M199 422v-422h-70v341q-40 -19 -107 -26l-10 53q96 20 135 54h52z" />
    <glyph glyph-name="two.num" horiz-adv-x="384" 
d="M351 243h-311v54q129 101 175.5 150.5t46.5 90.5q0 33 -24.5 52t-59.5 19q-59 0 -96 -54l-55 33q61 86 156 86q67 0 109.5 -35.5t42.5 -96.5q0 -55 -37 -100t-149 -135h202v-64z" />
    <glyph glyph-name="three.num" horiz-adv-x="390" 
d="M351 364q0 -57 -44 -93t-112 -36q-121 0 -168 94l64 24q30 -53 104 -53q39 0 61.5 19t22.5 48q0 28 -19.5 43.5t-54.5 15.5h-55v63h52q25 0 46 15t21 44q0 30 -24 45.5t-59 15.5q-65 0 -98 -48l-54 34q56 79 157 79q64 0 105.5 -31t41.5 -86q0 -62 -51 -92
q64 -24 64 -101z" />
    <glyph glyph-name="four.num" horiz-adv-x="388" 
d="M366 340h-63v-97h-68v97h-211v57q36 62 60 135t25 134h68q-3 -124 -81 -264h140v168h67v-168h63v-62z" />
    <glyph glyph-name="five.num" horiz-adv-x="382" 
d="M349 379q0 -58 -40.5 -101t-121.5 -43q-108 0 -160 83l59 33q30 -52 102 -52q38 0 63.5 21t25.5 60q0 38 -24.5 59t-68.5 21q-57 0 -91 -40l-40 19l13 227h259v-64h-200q-2 -30 -10 -107q37 24 87 24q66 0 106.5 -37.5t40.5 -102.5z" />
    <glyph glyph-name="six.num" horiz-adv-x="387" 
d="M108 381q0 -37 24.5 -59.5t67.5 -22.5q44 0 68 22.5t24 60.5t-24 61t-68 23q-43 0 -67.5 -23.5t-24.5 -61.5zM273 666q-111 -84 -149 -176q35 34 94 34q63 0 104 -38.5t41 -102.5q0 -65 -45 -106.5t-117 -41.5q-75 0 -119.5 43t-44.5 120q0 141 138 268h98z" />
    <glyph glyph-name="seven.num" horiz-adv-x="348" 
d="M339 666v-55q-174 -216 -181 -368h-75q4 63 38 140t61.5 118t71.5 101h-239v64h324z" />
    <glyph glyph-name="eight.num" horiz-adv-x="402" 
d="M364 360q0 -59 -45 -92t-118 -33t-118 33t-45 92q0 75 72 109q-56 27 -56 92q0 53 40.5 83t106.5 30t106.5 -30t40.5 -83q0 -59 -58 -92q74 -36 74 -109zM279 557q0 28 -22.5 42t-55.5 14t-55 -14t-22 -42q0 -30 22 -46t54 -16q33 0 56 16t23 46zM293 365q0 36 -26 54.5
t-66 18.5t-66.5 -18t-26.5 -54q0 -35 26 -52.5t67 -17.5q40 0 66 17t26 52z" />
    <glyph glyph-name="nine.num" horiz-adv-x="387" 
d="M280 527q0 37 -25 60t-69 23q-43 0 -67 -23t-24 -61t23.5 -60.5t67.5 -22.5t69 23t25 61zM115 243q114 85 148 174q-35 -32 -93 -32q-64 0 -105 38.5t-41 101.5q0 65 45 107t117 42q75 0 119.5 -43t44.5 -120q0 -140 -137 -268h-98z" />
    <glyph glyph-name="caron.alt" horiz-adv-x="232" 
d="M173 666v-74q0 -90 -78 -160l-32 33q43 45 43 96q0 17 -11 43t-11 45v17h89z" />
    <glyph glyph-name="kreska" horiz-adv-x="324" 
d="M147 578l-34 27q46 58 74 122l83 -13q-16 -35 -49.5 -72t-73.5 -64z" />
    <glyph glyph-name="commaaccent" horiz-adv-x="228" 
d="M50 -200l-34 27q47 61 71 122l83 -12q-33 -75 -120 -137z" />
    <glyph glyph-name="c_t" horiz-adv-x="933" 
d="M439 145l67 -48q-76 -109 -210 -109q-114 0 -183 77t-69 195t69 195t183 77q49 0 96 -18q0 11 2 29q7 75 60 128.5t141 53.5q66 0 103 -29.5t37 -89.5v-86h168v-74h-168v-289q0 -90 79 -90q39 0 67 22l37 -66q-45 -35 -113 -35q-96 0 -136 66q-22 37 -22 103v289h-88v74
h88v81q0 57 -68 57q-55 0 -84 -37.5t-29 -92.5q0 -60 39 -106l-69 -47q-48 78 -137 78q-74 0 -118.5 -54.5t-44.5 -138.5t44.5 -138.5t117.5 -54.5q89 0 141 78z" />
    <glyph glyph-name="s_p" horiz-adv-x="1139" 
d="M671 259q0 -83 44.5 -137t123.5 -54t121.5 53.5t42.5 137.5t-42.5 138t-121.5 54q-80 0 -124 -54.5t-44 -137.5zM254 532q53 0 107 -21q-1 7 -1 21q0 74 43.5 122t126.5 48q68 0 104.5 -31.5t36.5 -93.5v-143q68 98 185 98q109 0 174 -77t65 -195t-65.5 -195t-173.5 -77
q-117 0 -185 97v-259h-87v748q0 28 -17.5 43t-47.5 15q-44 0 -66 -28.5t-22 -73.5q0 -47 27 -87l-56 -50q-62 64 -150 64q-45 0 -77 -17.5t-32 -52.5q0 -15 7.5 -27t17 -19.5t29.5 -14t34.5 -9.5t40.5 -8q38 -7 62 -13t54 -18t46.5 -27t28.5 -40t12 -57q0 -75 -57 -120.5
t-156 -45.5q-77 0 -136.5 29t-93.5 82l67 43q56 -79 166 -79q56 0 89.5 21.5t33.5 61.5q0 16 -6.5 27.5t-15.5 19t-30.5 14.5t-38.5 10.5t-52 10.5q-90 17 -138 49t-48 102q0 75 56.5 114t138.5 39z" />
    <glyph glyph-name="germandbls.sc" horiz-adv-x="1025" 
d="M752 559q134 0 218 -101l-62 -49q-57 75 -158 75q-47 0 -78 -18.5t-31 -57.5q0 -38 30.5 -54.5t98.5 -29.5q49 -10 81 -20t64.5 -28.5t48 -47t15.5 -68.5q0 -77 -59.5 -124.5t-158.5 -47.5q-160 0 -234 116l69 46q27 -44 73 -66t98 -22q54 0 88.5 24t34.5 65
q0 19 -8.5 33t-18.5 22t-35 16t-40 11t-51 10q-86 17 -135 51.5t-49 105.5q0 74 56.5 116.5t142.5 42.5zM260 559q134 0 218 -101l-62 -49q-57 75 -158 75q-47 0 -78 -18.5t-31 -57.5q0 -38 30.5 -54.5t98.5 -29.5q49 -10 81 -20t64.5 -28.5t48 -47t15.5 -68.5
q0 -77 -59.5 -124.5t-158.5 -47.5q-160 0 -234 116l69 46q27 -44 73 -66t98 -22q54 0 88.5 24t34.5 65q0 19 -8.5 33t-18.5 22t-35 16t-40 11t-51 10q-86 17 -135 51.5t-49 105.5q0 74 56.5 116.5t142.5 42.5z" />
    <glyph glyph-name="f_f.sc" horiz-adv-x="1054" 
d="M1020 470h-322v-152h274v-73h-274v-245h-88v547h410v-77zM491 470h-322v-152h274v-73h-274v-245h-88v547h410v-77z" />
    <glyph glyph-name="f_i.sc" horiz-adv-x="781" 
d="M493 470h-322v-152h274v-73h-274v-245h-88v547h410v-77zM698 0h-88v547h88v-547z" />
    <glyph glyph-name="f_j.sc" horiz-adv-x="858" 
d="M491 470h-322v-152h274v-73h-274v-245h-88v547h410v-77zM781 170q0 -86 -49 -134t-134 -48q-112 0 -164 86l69 44q35 -54 98 -54q93 0 93 106v377h87v-377z" />
    <glyph glyph-name="f_l.sc" horiz-adv-x="1025" 
d="M493 470h-322v-152h274v-73h-274v-245h-88v547h410v-77zM1004 0h-394v547h87v-470h307v-77z" />
    <glyph glyph-name="c_t.sc" horiz-adv-x="1106" 
d="M322 65q101 0 152 84l70 -45q-73 -116 -223 -116q-122 0 -198 80.5t-76 204.5t76 205t198 81q145 0 222 -114l-70 -47q-48 84 -151 84q-84 0 -134 -59.5t-50 -149.5t50 -149t134 -59zM1076 469h-190v-469h-87v469h-188v78h465v-78z" />
    <glyph glyph-name="s_p.sc" horiz-adv-x="1085" 
d="M1053 375q0 -75 -47 -121t-128 -49q-42 -2 -62 -2h-113v-203h-87v547h247q87 0 138.5 -46.5t51.5 -125.5zM964 375q0 45 -27.5 69.5t-77.5 24.5h-156v-189h160q49 0 75 25.5t26 69.5zM260 559q134 0 218 -101l-62 -49q-57 75 -158 75q-47 0 -78 -18.5t-31 -57.5
q0 -38 30.5 -54.5t98.5 -29.5q49 -10 81 -20t64.5 -28.5t48 -47t15.5 -68.5q0 -77 -59.5 -124.5t-158.5 -47.5q-160 0 -234 116l69 46q27 -44 73 -66t98 -22q54 0 88.5 24t34.5 65q0 19 -8.5 33t-18.5 22t-35 16t-40 11t-51 10q-86 17 -135 51.5t-49 105.5q0 74 56.5 116.5
t142.5 42.5z" />
    <glyph glyph-name="s_t.sc" horiz-adv-x="1058" 
d="M260 559q134 0 218 -101l-62 -49q-57 75 -158 75q-47 0 -78 -18.5t-31 -57.5q0 -38 30.5 -54.5t98.5 -29.5q49 -10 81 -20t64.5 -28.5t48 -47t15.5 -68.5q0 -77 -59.5 -124.5t-158.5 -47.5q-160 0 -234 116l69 46q27 -44 73 -66t98 -22q54 0 88.5 24t34.5 65
q0 19 -8.5 33t-18.5 22t-35 16t-40 11t-51 10q-86 17 -135 51.5t-49 105.5q0 74 56.5 116.5t142.5 42.5zM1028 469h-190v-469h-87v469h-188v78h465v-78z" />
    <glyph glyph-name="arrowright.alt1" horiz-adv-x="918" 
d="M205 386v-106h325l-124 -125l72 -71l248 249l-248 249l-72 -71l124 -125h-325zM878 333q0 -173 -123 -296t-296 -123t-296 123t-123 296t123 296t296 123t296 -123t123 -296z" />
    <glyph glyph-name="uni2197.alt1" horiz-adv-x="918" 
d="M878 333q0 -173 -123 -296t-296 -123t-296 123t-123 296t123 296t296 123t296 -123t123 -296zM547 170h101v352h-352v-101h176l-230 -230l75 -75l230 230v-176z" />
    <glyph glyph-name="arrowup.alt1" horiz-adv-x="918" 
d="M878 333q0 -173 -123 -296t-296 -123t-296 123t-123 296t123 296t296 123t296 -123t123 -296zM406 79h106v325l125 -124l71 72l-249 248l-249 -248l71 -72l125 124v-325z" />
    <glyph glyph-name="uni2196.alt1" horiz-adv-x="918" 
d="M40 333q0 173 123 296t296 123t296 -123t123 -296t-123 -296t-296 -123t-296 123t-123 296zM270 170h101v176l230 -230l75 75l-230 230h176v101h-352v-352z" />
    <glyph glyph-name="arrowleft.alt1" horiz-adv-x="918" 
d="M878 333q0 -173 -123 -296t-296 -123t-296 123t-123 296t123 296t296 123t296 -123t123 -296zM713 280v106h-326l125 125l-72 71l-248 -249l248 -249l72 71l-125 125h326z" />
    <glyph glyph-name="uni2199.alt1" horiz-adv-x="918" 
d="M40 333q0 173 123 296t296 123t296 -123t123 -296t-123 -296t-296 -123t-296 123t-123 296zM371 496h-101v-352h352v101h-176l230 230l-75 75l-230 -230v176z" />
    <glyph glyph-name="arrowdown.alt1" horiz-adv-x="918" 
d="M40 333q0 173 123 296t296 123t296 -123t123 -296t-123 -296t-296 -123t-296 123t-123 296zM512 587h-106v-326l-125 125l-71 -72l249 -248l249 248l-71 72l-125 -125v326z" />
    <glyph glyph-name="uni2198.alt1" horiz-adv-x="918" 
d="M878 333q0 -173 -123 -296t-296 -123t-296 123t-123 296t123 296t296 123t296 -123t123 -296zM648 496h-101v-176l-230 230l-75 -75l230 -230h-176v-101h352v352z" />
    <glyph glyph-name="arrowright.alt2" horiz-adv-x="918" 
d="M205 280v106h325l-124 125l72 71l248 -249l-248 -249l-72 71l124 125h-325zM878 333q0 -173 -123 -296t-296 -123t-296 123t-123 296t123 296t296 123t296 -123t123 -296zM828 333q0 152 -108.5 260.5t-260.5 108.5t-260.5 -108.5t-108.5 -260.5t108.5 -260.5
t260.5 -108.5t260.5 108.5t108.5 260.5z" />
    <glyph glyph-name="uni2197.alt2" horiz-adv-x="918" 
d="M878 333q0 -173 -123 -296t-296 -123t-296 123t-123 296t123 296t296 123t296 -123t123 -296zM648 170h-101v176l-230 -230l-75 75l230 230h-176v101h352v-352zM828 333q0 152 -108.5 260.5t-260.5 108.5t-260.5 -108.5t-108.5 -260.5t108.5 -260.5t260.5 -108.5
t260.5 108.5t108.5 260.5z" />
    </font>
</defs>
</svg>
