<?xml version="1.0" standalone="no"?>
<!DOCTYPE svg PUBLIC "-//W3C//DTD SVG 20010904//EN"
 "http://www.w3.org/TR/2001/REC-SVG-20010904/DTD/svg10.dtd">
<svg version="1.0" xmlns="http://www.w3.org/2000/svg"
 width="1024pt" height="1024pt" viewBox="0 0 1024 1024"
 preserveAspectRatio="xMidYMid meet">
<g transform="translate(0,1024) scale(0.1,-0.1)"
fill="#000000" stroke="none">
<path d="M0 5120 l0 -5120 5120 0 5120 0 0 5120 0 5120 -5120 0 -5120 0 0
-5120z m5555 3506 c431 -53 779 -158 1155 -346 1005 -504 1722 -1464 1910
-2558 45 -259 43 -189 47 -2235 2 -1065 1 -1937 -1 -1937 -15 0 -222 88 -322
136 -360 175 -602 376 -762 629 -104 167 -205 449 -258 725 -46 246 -47 247
-54 1285 -7 1083 -6 1060 -70 1317 -89 357 -290 708 -560 978 -489 489 -1184
711 -1870 599 -682 -112 -1269 -546 -1575 -1164 -105 -211 -163 -397 -201
-640 -23 -149 -23 -469 0 -620 83 -542 358 -1030 766 -1361 244 -198 565 -353
855 -413 490 -102 1053 4 1542 289 58 34 109 58 113 53 4 -4 175 -235 379
-512 293 -399 368 -507 359 -518 -19 -24 -189 -157 -268 -210 -414 -281 -888
-445 -1434 -494 -162 -15 -569 -6 -726 16 -822 114 -1531 474 -2055 1045 -455
496 -759 1082 -884 1709 -53 262 -65 398 -66 706 0 356 25 576 100 875 265
1060 1032 1945 2070 2390 349 150 699 234 1135 274 97 9 561 -3 675 -18z"/>
</g>
</svg>
