<svg id="11a62418-429a-4e47-a41d-1d17ffe4858d" data-name="Calque 1" xmlns="http://www.w3.org/2000/svg" xmlns:xlink="http://www.w3.org/1999/xlink" viewBox="0 0 300 110"><defs><mask id="7e5a9bb1-f620-4fab-bd73-67ff18b08cc2" x="18" y="15.25" width="242.6" height="79.65" maskUnits="userSpaceOnUse"><g transform="translate(0 0)"><g id="73a9b0a2-22db-4586-ab58-3083a9d9612e" data-name="b"><path id="366ca8ed-7996-45b0-99fd-c4091b820034" data-name="a" d="M18,94.9H260.6V15.25H18V94.9Z" style="fill:#fff"/></g></g></mask></defs><title>decli-ffvolley</title><path d="M0.5,0.5h299v109H0.5V0.5Z" transform="translate(0 0)" style="fill:#fff;stroke:#f0f0f0"/><path d="M198.61,57.61c-4.39,4-12,3.55-16.5-.82a14,14,0,0,1-3-4.42,13.5,13.5,0,0,1,0-10.42A13.3,13.3,0,0,1,182,37.71a13.82,13.82,0,0,1,4.3-2.86,13.54,13.54,0,0,1,10.42,0,13.46,13.46,0,0,1,7.1,7.1,13,13,0,0,1,1,5.22V60.6a9.6,9.6,0,0,1-3.53-2.13c-1.92-2.09-1.76-6.07-1.76-6.07V47.18a7.93,7.93,0,0,0-.63-3.14,8.2,8.2,0,0,0-1.74-2.57,8.09,8.09,0,0,0-2.57-1.73,7.87,7.87,0,0,0-3.14-.63,8.19,8.19,0,0,0-5.77,2.36A8.17,8.17,0,0,0,184,44a7.92,7.92,0,0,0-.63,3.14,8.14,8.14,0,0,0,.63,3.17,8,8,0,0,0,4.34,4.34,8,8,0,0,0,7.46-1l2.86,3.88h0Z" transform="translate(0 0)" style="fill:#ffcd01"/><path d="M126.14,37.93a13.07,13.07,0,0,1,4.45-3,13.39,13.39,0,0,1,10.09,0,13.09,13.09,0,0,1,4.45,3,2.66,2.66,0,0,1,0,3.73c-1,1-2.28,1.46-2.81,1s-1.72-1.55-2.65-2.32l-1-.4a8,8,0,0,0-6.09,0,8,8,0,0,0-2.69,1.79,7.36,7.36,0,0,0-1.79,2.63,8.07,8.07,0,0,0,0,6.09,8,8,0,0,0,1.79,2.69,7.82,7.82,0,0,0,5.73,2.39,8.24,8.24,0,0,0,3.11-.6,7.31,7.31,0,0,0,2.63-1.79,2.68,2.68,0,0,1,3.76,0c1,1,1.31,2.2.93,2.81a10.05,10.05,0,0,1-3.72,3.22l-1.65.65a13.38,13.38,0,0,1-10.09,0,13,13,0,0,1-4.45-3,12.83,12.83,0,0,1-2.93-4.42,13.81,13.81,0,0,1,0-10.09,12.86,12.86,0,0,1,2.93-4.42m28.15,9.57a8.09,8.09,0,0,0,5,7.51,8.28,8.28,0,0,0,9-1.74,8.15,8.15,0,0,0,2.38-5.77,7.85,7.85,0,0,0-.63-3.14A8.06,8.06,0,0,0,165.65,40a8.38,8.38,0,0,0-6.37,0,8.07,8.07,0,0,0-4.36,4.31,7.82,7.82,0,0,0-.63,3.14m-5.22,0a13,13,0,0,1,1-5.23,13.38,13.38,0,0,1,7.15-7.1,13.53,13.53,0,0,1,10.44,0A14,14,0,0,1,172,38a13.34,13.34,0,0,1,2.9,4.24,13.46,13.46,0,0,1,0,10.42A13.49,13.49,0,0,1,172,57a13.7,13.7,0,0,1-4.28,2.9A13.38,13.38,0,0,1,153,57a13.69,13.69,0,0,1-2.87-4.3,13,13,0,0,1-1.05-5.19m60.88-9.57a13.1,13.1,0,0,1,4.45-3,13.4,13.4,0,0,1,10.09,0,13.16,13.16,0,0,1,4.45,3,2.66,2.66,0,0,1,0,3.73c-1,1-2.28,1.46-2.81,1s-1.72-1.55-2.65-2.32l-1-.4a8.08,8.08,0,0,0-8.78,1.79,7.4,7.4,0,0,0-1.79,2.63,8.06,8.06,0,0,0,0,6.09,8,8,0,0,0,1.79,2.69,7.82,7.82,0,0,0,5.73,2.39,8.25,8.25,0,0,0,3.1-.6,7.34,7.34,0,0,0,2.63-1.79,2.68,2.68,0,0,1,3.76,0c1,1,1.29,2.19.93,2.81-0.54.91-1.1,1.83-3.72,3.22l-1.65.65a13.39,13.39,0,0,1-10.09,0,13,13,0,0,1-4.45-3A12.78,12.78,0,0,1,207,52.44a13.78,13.78,0,0,1,0-10.09,12.81,12.81,0,0,1,2.93-4.42M246.31,34a13,13,0,0,1,5.22,1,14,14,0,0,1,4.27,2.86,13.32,13.32,0,0,1,2.89,4.24,13,13,0,0,1,1,5.22v8.79c0,2.55-1.19,4.64-2.64,4.64s-2.65-2.09-2.65-4.64V52c0-2.55-.09-5.61-0.21-6.8l-0.42-1a8.07,8.07,0,0,0-7.51-4.92,7.9,7.9,0,0,0-3.14.62,8.11,8.11,0,0,0-4.31,4.3,7.86,7.86,0,0,0-.63,3.14v8.81c0,2.55-1.19,4.64-2.65,4.64s-2.65-2.09-2.65-4.64V27.91c0-2.55,1.19-4.64,2.65-4.64s2.65,2.08,2.65,4.64v4.19c0,2.55,1.07,3.94,2.37,3.09l1.37-.48a13.1,13.1,0,0,1,4.33-.72M78.19,34a13,13,0,0,1,5.22,1,13.9,13.9,0,0,1,4.27,2.86,13.29,13.29,0,0,1,2.89,4.24,13,13,0,0,1,1,5.22v8.8c0,2.55-1.19,4.64-2.65,4.64s-2.64-2.09-2.64-4.64V52c0-2.55-.1-5.61-0.21-6.8l-0.42-1a8.07,8.07,0,0,0-7.51-4.93A7.9,7.9,0,0,0,75,40a8.11,8.11,0,0,0-4.31,4.3,7.88,7.88,0,0,0-.63,3.14V56.2c0,2.55-1.19,4.63-2.64,4.63s-2.65-2.08-2.65-4.63V52c0-2.55-.1-5.61-0.21-6.79l-0.42-1a8.13,8.13,0,0,0-7.51-4.93,7.9,7.9,0,0,0-3.14.63,8.12,8.12,0,0,0-4.31,4.3,7.88,7.88,0,0,0-.63,3.14V56.2c0,2.55-1.19,4.63-2.65,4.63s-2.65-2.08-2.65-4.63V52c0-2.55.16-6.26,0.35-8.25l0.7-1.61a13.41,13.41,0,0,1,7.14-7.11,13.18,13.18,0,0,1,5.2-1,12.94,12.94,0,0,1,6.12,1.46,13.5,13.5,0,0,1,4.63,4,13.44,13.44,0,0,1,4.65-4A13,13,0,0,1,78.19,34m39.59,0.06c1.46,0,2.64,2.09,2.65,4.64V53.56c0,2.55-.16,6.26-0.35,8.24l-0.69,1.61a13.93,13.93,0,0,1-2.85,4.26,13.06,13.06,0,0,1-9.46,3.94A2.68,2.68,0,0,1,104.39,69c0-1.45.6-2.65,1.34-2.65s2.31-.09,3.5-0.21l1-.42A8.16,8.16,0,0,0,112.78,64a8.13,8.13,0,0,0,2.36-5.75s-1.07.64-2.37,1.49l-1.38.48a13.56,13.56,0,0,1-9.56-.33,13.57,13.57,0,0,1-7.22-7.19,13.07,13.07,0,0,1-1-5.19V38.73c0-2.55,1.19-4.64,2.65-4.64s2.65,2.08,2.65,4.63v4.11c0,2.55.1,5.61,0.21,6.8l0.42,1a8.13,8.13,0,0,0,7.54,5,8,8,0,0,0,3.16-.63,8.09,8.09,0,0,0,5-7.5V38.73c0-2.55,1.19-4.64,2.65-4.64m36.47,49.79a3.19,3.19,0,0,0-.42-1,2.2,2.2,0,0,0-.72-0.7,2.21,2.21,0,0,0-2.07,0,2.17,2.17,0,0,0-.73.7,3.14,3.14,0,0,0-.42,1,5.24,5.24,0,0,0-.13,1.2,5.17,5.17,0,0,0,.13,1.19,3.15,3.15,0,0,0,.42,1,2.17,2.17,0,0,0,.73.7,2.21,2.21,0,0,0,2.07,0,2.22,2.22,0,0,0,.72-0.7,3.12,3.12,0,0,0,.42-1,5.22,5.22,0,0,0,.13-1.19,5.3,5.3,0,0,0-.13-1.2h0Zm-4.4-7.51v5h0a2.89,2.89,0,0,1,1.35-1.12,4.56,4.56,0,0,1,1.77-.35,3.77,3.77,0,0,1,2.78,1.24,4.78,4.78,0,0,1,.95,1.62,7.73,7.73,0,0,1,0,4.68,4.77,4.77,0,0,1-.95,1.61A3.77,3.77,0,0,1,153,90.27a5.22,5.22,0,0,1-1.95-.34,2.47,2.47,0,0,1-1.3-1.17h0V90h-2.58V76.37h2.71ZM162.47,93a3.93,3.93,0,0,1-2.18.52q-0.42,0-.83,0l-0.83-.07V91.15l0.78,0.08a5.82,5.82,0,0,0,.8,0,1.06,1.06,0,0,0,.79-0.42,1.35,1.35,0,0,0,.26-0.8,1.64,1.64,0,0,0-.12-0.61l-3.46-9.27h2.89l2.24,6.77h0L165,80.14h2.81l-4.13,11.11A3.34,3.34,0,0,1,162.47,93m45.11-14.21a2.18,2.18,0,0,0-.62.09,2.05,2.05,0,0,0-.57.26,2.23,2.23,0,0,0-.47.41,1.71,1.71,0,0,0-.31.52l-1.22,2.91-1.23,2.91c-0.11.26-.21,0.53-0.3,0.8a6.19,6.19,0,0,0-.24,1h0a6,6,0,0,0-.24-1q-0.14-.41-0.3-0.8l-1.23-2.91L199.63,80a1.7,1.7,0,0,0-.31-0.52,2.15,2.15,0,0,0-.47-0.41,2.22,2.22,0,0,0-1.19-.35h-1.9l2.59,6.18q1.29,3.07,2.61,6.18h3.34q1.32-3.11,2.6-6.18l2.6-6.18h-1.91Z" transform="translate(0 0)" style="fill:#2e4192"/><g style="mask:url(#7e5a9bb1-f620-4fab-bd73-67ff18b08cc2)"><path d="M223.85,91.11h3.09V74.25h-3.09V91.11Zm5.38,0h3.09V74.25h-3.09V91.11Zm29.46-12.36a2.17,2.17,0,0,0-.62.09,2,2,0,0,0-.57.26,2.15,2.15,0,0,0-.47.41,1.72,1.72,0,0,0-.31.52l-1.22,2.91-1.23,2.91c-0.11.26-.21,0.53-0.3,0.8a6.21,6.21,0,0,0-.24,1h0a6,6,0,0,0-.24-1c-0.09-.27-0.2-0.54-0.3-0.8q-0.63-1.47-1.23-2.91L250.74,80a1.67,1.67,0,0,0-.31-0.52,2.16,2.16,0,0,0-1-.67,2.21,2.21,0,0,0-.62-0.09h-1.91l2.6,6.18h0l0.07,0.17q1.25,3,2.52,6l-0.43,1-1.23,2.84h1.94a2.14,2.14,0,0,0,.63-0.09,2.37,2.37,0,0,0,.58-0.26,2.06,2.06,0,0,0,.48-0.42,1.76,1.76,0,0,0,.31-0.55l1.08-2.47h0Q256.71,88,258,84.93l2.6-6.18h-1.91Zm-79.38-4.51h0a3.7,3.7,0,0,0-1.36.26,3,3,0,0,0-1.08.72,3.23,3.23,0,0,0-.68,1.11,4,4,0,0,0-.24,1.41V91.11H179V83.24h3.74V80.64H179V77.72a1.29,1.29,0,0,1,0-.22,0.76,0.76,0,0,1,.82-0.67h4.25c1,0,1.32-2.59,1.32-2.59h-6.12Zm10.31,0h0a3.7,3.7,0,0,0-1.36.26,3,3,0,0,0-1.08.72,3.22,3.22,0,0,0-.68,1.11,4,4,0,0,0-.24,1.41V91.11h3.09V83.24h3.74V80.64h-3.75V77.72a1.41,1.41,0,0,1,0-.22,0.76,0.76,0,0,1,.82-0.67h4.24c1,0,1.32-2.59,1.32-2.59h-6.12Zm47.64,9.06a2.94,2.94,0,0,1,.32-0.6,3.32,3.32,0,0,1,.69-0.72,3.72,3.72,0,0,1,1-.55,3.54,3.54,0,0,1,1.27-.22,3.4,3.4,0,0,1,1.16.19,3.78,3.78,0,0,1,.91.47,3.1,3.1,0,0,1,.65.61,2.82,2.82,0,0,1,.38.64l0.07,0.18h-6.43Zm9.49,0.94a6.37,6.37,0,1,0-.45,3.1H244a2.24,2.24,0,0,0-.62.09,2.05,2.05,0,0,0-.57.26l-0.24.18h0a3.54,3.54,0,0,1-2.1.73,3,3,0,0,1-1.33-.28,3.67,3.67,0,0,1-1-.69,3.53,3.53,0,0,1-.66-0.89,3.13,3.13,0,0,1-.31-0.85l0-.15h8.58a0.85,0.85,0,0,0,.89-0.27,2,2,0,0,0,.14-1.22h0Zm-31,3.92a3.26,3.26,0,0,1,0-6.52h0a3.26,3.26,0,0,1,0,6.52m0-9.63a6.37,6.37,0,1,0,6.37,6.37,6.37,6.37,0,0,0-6.37-6.37" transform="translate(0 0)" style="fill:#2e4192"/></g></svg>