<svg id="e3383ac5-b85c-4fba-82ad-c34ccf0ecea8" data-name="Calque 1" xmlns="http://www.w3.org/2000/svg" xmlns:xlink="http://www.w3.org/1999/xlink" viewBox="0 0 300 110"><defs><mask id="0b8cef06-63bc-4389-985c-69194492dc37" x="241.76" y="15.28" width="30.35" height="42.49" maskUnits="userSpaceOnUse"><g transform="translate(0 0)"><g id="22d865db-5e72-4f05-bfc7-137b3994c5e3" data-name="b"><path id="805331df-d5fd-43d1-9ece-216021de2d36" data-name="a" d="M241.76,15.28h30.35V57.77H241.76V15.28Z" style="fill:#fff"/></g></g></mask></defs><title>decli-ffjda</title><path d="M0.5,0.5h299v109H0.5V0.5Z" transform="translate(0 0)" style="fill:#fff;stroke:#f0f0f0"/><path d="M202.88,54.16c-5,4.51-13.62,4-18.69-.93a15.82,15.82,0,0,1-3.43-5,15.28,15.28,0,0,1,0-11.8,15.06,15.06,0,0,1,3.28-4.8,15.64,15.64,0,0,1,4.87-3.24,15.33,15.33,0,0,1,11.8,0,15.25,15.25,0,0,1,8,8,14.76,14.76,0,0,1,1.18,5.92v15.2a10.83,10.83,0,0,1-4-2.41c-2.18-2.37-2-6.88-2-6.88V42.35a9,9,0,0,0-.71-3.56,9.29,9.29,0,0,0-2-2.91,9.17,9.17,0,0,0-2.91-2,8.91,8.91,0,0,0-3.56-.71,9.27,9.27,0,0,0-6.54,2.67,9.26,9.26,0,0,0-2,2.91,9,9,0,0,0-.71,3.56,9.23,9.23,0,0,0,2.68,6.54,9.06,9.06,0,0,0,2.95,2c1.13,0.47,4.39,1.46,8.44-1.08l3.24,4.4h0Z" transform="translate(0 0)" style="fill:#e63027"/><path d="M120.8,31.88a14.83,14.83,0,0,1,5-3.34,15.17,15.17,0,0,1,11.42,0,14.86,14.86,0,0,1,5,3.34,3,3,0,0,1,0,4.23c-1.15,1.17-2.58,1.66-3.18,1.08s-1.94-1.76-3-2.62L135,34.11a9.11,9.11,0,0,0-6.9,0,9,9,0,0,0-3,2,8.34,8.34,0,0,0-2,3,9.14,9.14,0,0,0,0,6.9,9,9,0,0,0,2,3,8.85,8.85,0,0,0,6.49,2.7,9.35,9.35,0,0,0,3.52-.68,8.28,8.28,0,0,0,3-2,3,3,0,0,1,4.26,0c1.15,1.17,1.48,2.49,1.05,3.18s-1.38,2-4.22,3.65l-1.87.74a15.15,15.15,0,0,1-11.42,0,14.74,14.74,0,0,1-5-3.34,14.51,14.51,0,0,1-3.32-5,15.63,15.63,0,0,1,0-11.42,14.56,14.56,0,0,1,3.32-5m31.88,10.83a9.11,9.11,0,0,0,5.65,8.5,9.38,9.38,0,0,0,10.18-2,9.23,9.23,0,0,0,2.69-6.54,8.9,8.9,0,0,0-.72-3.56,9.12,9.12,0,0,0-4.94-4.88,9.49,9.49,0,0,0-7.22,0,9.15,9.15,0,0,0-4.94,4.88,8.86,8.86,0,0,0-.71,3.56m-5.92,0A14.7,14.7,0,0,1,148,36.8a15.15,15.15,0,0,1,8.1-8,15.32,15.32,0,0,1,11.82,0A15.82,15.82,0,0,1,172.73,32,15.11,15.11,0,0,1,176,36.8a15.26,15.26,0,0,1,0,11.8,15.28,15.28,0,0,1-3.29,4.86,15.52,15.52,0,0,1-4.84,3.28,15.16,15.16,0,0,1-16.67-3.28A15.5,15.5,0,0,1,148,48.59a14.74,14.74,0,0,1-1.19-5.88m68.94-10.83a14.85,14.85,0,0,1,5-3.34,15.18,15.18,0,0,1,11.43,0,14.91,14.91,0,0,1,5,3.34,3,3,0,0,1,0,4.23c-1.16,1.17-2.58,1.66-3.18,1.08s-1.95-1.76-3-2.62l-1.13-.45a9.15,9.15,0,0,0-9.94,2,8.38,8.38,0,0,0-2,3,9.14,9.14,0,0,0,0,6.9,9.1,9.1,0,0,0,2,3,8.85,8.85,0,0,0,6.49,2.7,9.35,9.35,0,0,0,3.51-.68,8.31,8.31,0,0,0,3-2,3,3,0,0,1,4.26,0c1.15,1.17,1.46,2.48,1,3.18-0.61,1-1.25,2.07-4.22,3.65l-1.87.74a15.16,15.16,0,0,1-11.43,0,14.76,14.76,0,0,1-5-3.34,14.46,14.46,0,0,1-3.31-5,15.61,15.61,0,0,1,0-11.42,14.49,14.49,0,0,1,3.31-5" transform="translate(0 0)" style="fill:#418fde"/><g style="mask:url(#0b8cef06-63bc-4389-985c-69194492dc37)"><path d="M256.9,27.42a14.74,14.74,0,0,1,5.91,1.18,15.82,15.82,0,0,1,4.84,3.24,15.08,15.08,0,0,1,3.28,4.8,14.72,14.72,0,0,1,1.18,5.91v10c0,2.89-1.35,5.25-3,5.25s-3-2.36-3-5.25V47.79c0-2.89-.11-6.35-0.24-7.7L265.4,39a9.18,9.18,0,0,0-8.5-5.58,9,9,0,0,0-3.56.71A9.18,9.18,0,0,0,248.46,39a8.9,8.9,0,0,0-.71,3.55v10c0,2.89-1.35,5.25-3,5.25s-3-2.36-3-5.25v-32c0-2.89,1.35-5.25,3-5.25s3,2.36,3,5.25v4.74c0,2.89,1.21,4.46,2.68,3.5l1.56-.54a14.82,14.82,0,0,1,4.9-.81" transform="translate(0 0)" style="fill:#418fde"/></g><path d="M66.5,27.47a14.77,14.77,0,0,1,5.91,1.18,15.75,15.75,0,0,1,4.83,3.24,15,15,0,0,1,3.28,4.8,14.74,14.74,0,0,1,1.18,5.91v10c0,2.89-1.35,5.25-3,5.25s-3-2.36-3-5.25V47.84c0-2.89-.11-6.35-0.24-7.69L75,39a9.19,9.19,0,0,0-8.5-5.58,8.94,8.94,0,0,0-3.56.71A9.2,9.2,0,0,0,58.06,39a8.92,8.92,0,0,0-.71,3.55v10c0,2.88-1.35,5.24-3,5.24s-3-2.36-3-5.24V47.84c0-2.89-.11-6.35-0.24-7.69L50.65,39a9.21,9.21,0,0,0-8.5-5.58,8.94,8.94,0,0,0-3.56.71A9.18,9.18,0,0,0,33.7,39,8.92,8.92,0,0,0,33,42.6v10c0,2.89-1.35,5.24-3,5.24s-3-2.36-3-5.24V47.86c0-2.89.18-7.09,0.4-9.34l0.79-1.82a15.19,15.19,0,0,1,8.08-8,14.93,14.93,0,0,1,5.89-1.18,14.66,14.66,0,0,1,6.94,1.66,15.29,15.29,0,0,1,5.24,4.5,15.22,15.22,0,0,1,5.27-4.5,14.7,14.7,0,0,1,6.89-1.66m44.83,0.07c1.65,0,3,2.36,3,5.25V49.58c0,2.89-.18,7.08-0.39,9.33l-0.79,1.83a15.78,15.78,0,0,1-3.23,4.83,15,15,0,0,1-4.79,3.28A14.89,14.89,0,0,1,99.21,70a3,3,0,0,1-3-3c0-1.65.68-3,1.52-3s2.62-.1,4-0.24l1.11-.47a9.24,9.24,0,0,0,2.91-2,9.2,9.2,0,0,0,2.67-6.51s-1.21.72-2.68,1.69l-1.56.54a15.37,15.37,0,0,1-10.82-.37,15.39,15.39,0,0,1-8.18-8.14,14.81,14.81,0,0,1-1.19-5.88V32.79c0-2.89,1.35-5.25,3-5.25s3,2.36,3,5.25v4.66c0,2.88.11,6.36,0.24,7.7l0.48,1.13a9.22,9.22,0,0,0,8.54,5.61,9,9,0,0,0,3.57-.71,9.16,9.16,0,0,0,5.61-8.49V32.79c0-2.89,1.35-5.25,3-5.25m69.26,56.39a3.57,3.57,0,0,0-.48-1.15,2.5,2.5,0,0,0-.81-0.79,2.24,2.24,0,0,0-1.18-.29A2.27,2.27,0,0,0,177,82a2.46,2.46,0,0,0-.82.79,3.56,3.56,0,0,0-.48,1.15,6,6,0,0,0-.15,1.36,5.83,5.83,0,0,0,.15,1.34,3.55,3.55,0,0,0,.48,1.15,2.45,2.45,0,0,0,.82.79,2.51,2.51,0,0,0,2.35,0,2.51,2.51,0,0,0,.81-0.79,3.58,3.58,0,0,0,.48-1.15A6.1,6.1,0,0,0,180.59,83.92Zm-5-8.51V81h0a3.28,3.28,0,0,1,1.53-1.27,5.17,5.17,0,0,1,2-.4,4.27,4.27,0,0,1,3.15,1.41,5.42,5.42,0,0,1,1.07,1.83,8.74,8.74,0,0,1,0,5.3,5.43,5.43,0,0,1-1.07,1.83,4.27,4.27,0,0,1-3.15,1.41,5.9,5.9,0,0,1-2.21-.39,2.8,2.8,0,0,1-1.47-1.32h0v1.43h-2.92V75.41h3.07ZM189.9,94.21a4.46,4.46,0,0,1-2.47.58c-0.32,0-.63,0-0.94,0l-0.94-.08V92.15l0.89,0.09a6.29,6.29,0,0,0,.91,0,1.2,1.2,0,0,0,.9-0.48,1.54,1.54,0,0,0,.29-0.91,1.84,1.84,0,0,0-.13-0.69l-3.92-10.5h3.27l2.53,7.66h0l2.45-7.66H196l-4.68,12.58a3.78,3.78,0,0,1-1.39,1.95" transform="translate(0 0)" style="fill:#418fde"/><path d="M204,91.76l4.38-20.56h11.35l-0.88,4.11h-6.52L211.55,79h6l-0.88,4.11h-6l-1.85,8.69H204Zm13.16,0,4.38-20.56h11.35L232,75.31h-6.52L224.71,79h6l-0.88,4.11h-6L222,91.76h-4.83Z" transform="translate(0 0)" style="fill:#e63027"/><path d="M234.49,84.91l-0.55,2.6c-0.16.77,0.1,1.07,0.76,1s1-.16,1.09-0.74l3.57-16.61h4.82l-3,14.31a10.86,10.86,0,0,1-1.57,4.41c-1.42,1.89-3.32,2.33-5.4,2.33-2.3,0-4.07-1.1-4.16-3.4a10.81,10.81,0,0,1,.37-2.77l0.25-1.18h3.87Zm13,3.15c3.19,0.22,3.5-1.1,4-3.84l1.43-6.72c0.49-2.41-.28-2.55-2.62-2.6l-2.8,13.16h0Zm-5.61,3.7,4.38-20.56h5.24c1.75,0,3.85.05,5.22,1,1.63,1.1,1.51,3.1,1.09,5.07l-1.94,9.13a6.32,6.32,0,0,1-3,4.44,8.76,8.76,0,0,1-4.48,1h-6.5Zm24.67-16.83h-0.05l-3.36,9.21h2.8l0.62-9.21h0Zm-11,16.83,8.88-20.56h5.81l0.09,20.56h-4.88l0.17-4h-3.78l-1.43,4h-4.85Z" transform="translate(0 0)"/></svg>