<svg xmlns="http://www.w3.org/2000/svg" width="300" height="110" viewBox="0 0 300 110">
    <g fill="none" fill-rule="evenodd">
        <path fill="#FFF" stroke="#F0F0F0" d="M.5.5h299v109H.5z"/>
        <g fill-rule="nonzero">
            <path fill="#CD332C" d="M198.965 58.27c-4.473 4.06-12.247 3.616-16.808-.832a14.234 14.234 0 0 1-3.084-4.5 13.748 13.748 0 0 1 0-10.61 13.55 13.55 0 0 1 2.948-4.32 14.073 14.073 0 0 1 4.375-2.917 13.791 13.791 0 0 1 10.612 0 13.713 13.713 0 0 1 7.232 7.235 13.268 13.268 0 0 1 1.064 5.318v13.675s-2.291-.754-3.597-2.166c-1.96-2.14-1.801-6.18-1.801-6.18v-5.324a8.07 8.07 0 0 0-.63-3.215 8.352 8.352 0 0 0-1.76-2.621 8.242 8.242 0 0 0-2.62-1.761 8.015 8.015 0 0 0-3.2-.642 8.327 8.327 0 0 0-5.878 2.415 8.325 8.325 0 0 0-1.761 2.622 8.068 8.068 0 0 0-.64 3.202 8.302 8.302 0 0 0 2.4 5.88 8.146 8.146 0 0 0 2.652 1.76c1.006.425 3.952 1.316 7.593-.976l2.903 3.957z"/>
            <path fill="#104173" d="M125.146 38.233a13.333 13.333 0 0 1 4.528-3.02 13.64 13.64 0 0 1 10.274 0c1.701.685 3.243 1.713 4.529 3.02a2.712 2.712 0 0 1 0 3.801c-1.037 1.054-2.322 1.49-2.858.971-.536-.518-1.749-1.58-2.697-2.36l-1.006-.405a8.199 8.199 0 0 0-6.202 0 8.113 8.113 0 0 0-2.737 1.824 7.497 7.497 0 0 0-1.824 2.674 8.219 8.219 0 0 0 1.824 8.939 7.965 7.965 0 0 0 5.84 2.432 8.41 8.41 0 0 0 3.16-.606 7.45 7.45 0 0 0 2.673-1.824 2.732 2.732 0 0 1 3.832.028c1.036 1.054 1.33 2.236.943 2.86-.387.624-1.238 1.761-3.791 3.283l-1.686.664a13.63 13.63 0 0 1-10.274 0 13.248 13.248 0 0 1-4.528-3.006 13.064 13.064 0 0 1-2.976-4.503 14.06 14.06 0 0 1 0-10.272 13.082 13.082 0 0 1 2.98-4.5M148.502 47.976a13.228 13.228 0 0 1 1.07-5.32 13.633 13.633 0 0 1 7.295-7.23 13.786 13.786 0 0 1 10.636 0 14.236 14.236 0 0 1 4.357 2.915 13.585 13.585 0 0 1 2.956 4.317 13.72 13.72 0 0 1 0 10.609 13.736 13.736 0 0 1-2.956 4.375 13.957 13.957 0 0 1-4.357 2.95 13.633 13.633 0 0 1-14.994-2.95 13.942 13.942 0 0 1-2.923-4.375 13.265 13.265 0 0 1-1.069-5.283m5.32 0a8.194 8.194 0 0 0 5.062 7.637 8.433 8.433 0 0 0 9.155-1.76 8.302 8.302 0 0 0 2.418-5.885 7.995 7.995 0 0 0-.644-3.197 8.214 8.214 0 0 0-4.44-4.39 8.538 8.538 0 0 0-6.491 0c-2 .822-3.595 2.4-4.44 4.39a7.972 7.972 0 0 0-.644 3.197M210.504 38.233a13.333 13.333 0 0 1 4.529-3.02 13.653 13.653 0 0 1 10.279 0c1.7.687 3.241 1.714 4.528 3.02a2.712 2.712 0 0 1 0 3.801c-1.039 1.054-2.324 1.49-2.86.971-.536-.518-1.761-1.58-2.697-2.36l-1.006-.405a8.229 8.229 0 0 0-8.941 1.824 7.547 7.547 0 0 0-1.824 2.674 8.209 8.209 0 0 0 0 6.204 8.181 8.181 0 0 0 1.824 2.735 7.965 7.965 0 0 0 5.841 2.432 8.408 8.408 0 0 0 3.16-.606 7.47 7.47 0 0 0 2.677-1.824 2.735 2.735 0 0 1 3.831.028c1.037 1.054 1.313 2.226.944 2.86-.549.924-1.122 1.862-3.794 3.283l-1.68.664a13.643 13.643 0 0 1-10.28 0 13.268 13.268 0 0 1-4.528-3.006 13.021 13.021 0 0 1-2.981-4.503 14.048 14.048 0 0 1 0-10.272 13.047 13.047 0 0 1 2.98-4.5M247.55 34.22a13.253 13.253 0 0 1 5.32 1.064 14.224 14.224 0 0 1 4.349 2.916 13.565 13.565 0 0 1 2.948 4.317 13.238 13.238 0 0 1 1.064 5.318v8.956c0 2.599-1.212 4.722-2.694 4.722s-2.697-2.126-2.697-4.722v-4.249c0-2.599-.095-5.71-.211-6.92l-.428-.992a8.254 8.254 0 0 0-7.648-5.016 8.05 8.05 0 0 0-3.2.634 8.257 8.257 0 0 0-4.387 4.382 8.003 8.003 0 0 0-.639 3.193v8.968c0 2.599-1.213 4.722-2.697 4.722s-2.694-2.126-2.694-4.722V28.024c-.005-2.599 1.21-4.722 2.7-4.722 1.489 0 2.699 2.123 2.704 4.722v4.262c0 2.593 1.089 4.01 2.41 3.147l1.398-.483a13.333 13.333 0 0 1 4.408-.73M76.308 34.263a13.275 13.275 0 0 1 5.318 1.062 14.166 14.166 0 0 1 4.348 2.918 13.53 13.53 0 0 1 2.948 4.32c.717 1.679 1.08 3.489 1.064 5.315v8.958c0 2.597-1.212 4.722-2.694 4.722s-2.695-2.123-2.695-4.722v-4.249c0-2.598-.098-5.71-.216-6.92l-.425-1.007a8.262 8.262 0 0 0-7.648-5.006 8.05 8.05 0 0 0-3.195.637 8.27 8.27 0 0 0-4.392 4.395 8.028 8.028 0 0 0-.64 3.195v8.973c0 2.591-1.21 4.717-2.694 4.717s-2.696-2.123-2.696-4.717V52.59c0-2.599-.099-5.71-.214-6.918l-.428-1.007a8.302 8.302 0 0 0-1.76-2.616 8.314 8.314 0 0 0-5.885-2.395 8.05 8.05 0 0 0-3.203.64 8.257 8.257 0 0 0-4.387 4.392 8.028 8.028 0 0 0-.64 3.195v8.97c0 2.597-1.212 4.718-2.693 4.718-1.482 0-2.695-2.121-2.695-4.717v-4.247c0-2.596.161-6.375.355-8.4l.71-1.64a13.663 13.663 0 0 1 7.27-7.238 13.429 13.429 0 0 1 5.283-1.064c2.17-.024 4.312.489 6.236 1.492 1.86.97 3.474 2.353 4.717 4.042A13.688 13.688 0 0 1 70.1 35.75a13.218 13.218 0 0 1 6.2-1.49M116.635 34.323c1.482 0 2.695 2.124 2.695 4.722V54.14c0 2.598-.161 6.372-.355 8.395l-.707 1.642a14.194 14.194 0 0 1-2.906 4.345 13.525 13.525 0 0 1-4.31 2.948 13.376 13.376 0 0 1-5.322 1.065 2.727 2.727 0 0 1-2.735-2.692c0-1.482.614-2.697 1.369-2.697.754 0 2.357-.093 3.567-.211l1.006-.426a8.302 8.302 0 0 0 2.614-1.76 8.28 8.28 0 0 0 2.402-5.86c0-.03-1.086.647-2.412 1.51l-1.404.485a13.819 13.819 0 0 1-9.736-.337 13.836 13.836 0 0 1-7.37-7.308 13.316 13.316 0 0 1-1.067-5.283V39.05c0-2.598 1.212-4.722 2.694-4.722s2.694 2.121 2.694 4.72v4.191c0 2.594.096 5.718.214 6.93l.43 1.007a8.284 8.284 0 0 0 7.68 5.05 8.11 8.11 0 0 0 3.216-.637 8.239 8.239 0 0 0 5.044-7.633v-8.91c0-2.6 1.212-4.723 2.697-4.723M109.186 77.39v5.062h.038c.33-.513.809-.911 1.373-1.14a4.65 4.65 0 0 1 1.802-.36c1.079.003 2.107.46 2.832 1.258.427.48.754 1.039.964 1.645a7.874 7.874 0 0 1 0 4.78 4.88 4.88 0 0 1-.964 1.646 3.839 3.839 0 0 1-2.832 1.257 5.313 5.313 0 0 1-1.988-.35 2.516 2.516 0 0 1-1.323-1.187h-.038v1.286h-2.629V77.39h2.768-.003zm4.478 7.653a3.208 3.208 0 0 0-.428-1.032 2.247 2.247 0 0 0-.73-.712 2.264 2.264 0 0 0-2.112 0c-.3.176-.553.42-.74.712a3.2 3.2 0 0 0-.428 1.032 5.369 5.369 0 0 0-.135 1.227c-.002.407.044.812.135 1.208.081.366.226.715.428 1.031.187.293.44.536.74.712a2.264 2.264 0 0 0 2.113 0c.295-.178.544-.421.73-.712.201-.316.346-.665.427-1.031.092-.396.137-.801.136-1.208a5.396 5.396 0 0 0-.133-1.232l-.003.005zM122.039 94.286c-.532.35-1.271.525-2.219.525-.285 0-.568-.01-.848-.03-.28-.02-.562-.043-.847-.068v-2.277l.797.078c.272.027.545.033.818.02.319-.015.615-.171.807-.427.168-.24.257-.525.252-.818a1.66 1.66 0 0 0-.116-.624l-3.522-9.444h2.94l2.28 6.893h.04l2.202-6.893h2.863l-4.207 11.321c-.215.7-.65 1.31-1.24 1.744z"/>
            <path fill="#CD332C" d="M135.458 75.294c0-.258.21-.468.468-.468h10.209c.258 0 .468.21.468.468v2.687c0 .259-.21.468-.468.468h-6.83V82h5.622c.255.009.459.213.468.468v2.686a.486.486 0 0 1-.468.468h-5.623v5.993a.486.486 0 0 1-.468.468h-2.91a.468.468 0 0 1-.468-.468v-16.32zM149.166 75.294c0-.258.21-.468.468-.468h10.209c.258 0 .468.21.468.468v2.687c0 .259-.21.468-.468.468h-6.83V82h5.622c.255.009.46.213.468.468v2.686a.486.486 0 0 1-.468.468h-5.622v5.993a.486.486 0 0 1-.468.468h-2.911a.468.468 0 0 1-.468-.468v-16.32z"/>
            <path fill="#104173" d="M162.872 75.294a.486.486 0 0 1 .468-.468h2.933c.258 0 .468.21.468.468v6.214h7.044v-6.214c0-.258.21-.468.468-.468h2.933c.255.01.459.214.468.468v16.322a.486.486 0 0 1-.468.468h-2.923a.468.468 0 0 1-.468-.468v-6.485h-7.044v6.485c0 .259-.21.468-.468.468h-2.94a.486.486 0 0 1-.469-.468V75.294h-.002zM189.425 74.58a8.875 8.875 0 1 1-8.85 8.9 8.86 8.86 0 0 1 8.85-8.9zm0 13.806a4.93 4.93 0 1 0-4.906-4.905 4.94 4.94 0 0 0 4.906 4.905zM209.123 74.58c2.466 0 4.29.755 5.968 2.292a.458.458 0 0 1 .025.689l-1.922 1.997a.43.43 0 0 1-.617 0 4.855 4.855 0 0 0-3.328-1.257c-2.785 0-4.833 2.317-4.833 5.079 0 2.762 2.07 5.006 4.858 5.006a4.835 4.835 0 0 0 3.303-1.182.488.488 0 0 1 .642.025l1.922 2.045a.503.503 0 0 1-.025.667 8.463 8.463 0 0 1-5.993 2.392 8.877 8.877 0 0 1 0-17.753zM217.948 75.418a.584.584 0 0 1 .592-.592h2.885a.601.601 0 0 1 .591.592V82l5.475-6.928a.732.732 0 0 1 .467-.252h3.107a.571.571 0 0 1 .443.914l-5.768 7.323 6.289 8.088a.579.579 0 0 1-.468.913h-3.404a.674.674 0 0 1-.443-.173l-5.695-7.64v7.247a.601.601 0 0 1-.591.591h-2.886a.584.584 0 0 1-.591-.59V75.417h-.003zM234.296 75.294a.468.468 0 0 1 .468-.468h10.208c.259 0 .468.21.468.468v2.687c0 .259-.21.468-.468.468h-6.827v3.057h5.622c.255.009.46.213.468.468v2.686c0 .259-.21.468-.468.468h-5.622v3.331h6.83c.258 0 .468.21.468.468v2.687c0 .258-.21.468-.468.468h-10.211a.468.468 0 0 1-.468-.468v-16.32zM252.072 83.775l-5.45-8.234a.455.455 0 0 1 .396-.715h3.202c.16.007.306.09.395.222l3.427 5.054 3.426-5.054a.453.453 0 0 1 .395-.222h3.205a.455.455 0 0 1 .395.715l-5.535 8.211v7.864a.486.486 0 0 1-.468.468h-2.92a.468.468 0 0 1-.468-.468v-7.841z"/>
        </g>
    </g>
</svg>
