<svg xmlns="http://www.w3.org/2000/svg" xmlns:xlink="http://www.w3.org/1999/xlink" width="300" height="110" viewBox="0 0 300 110">
    <defs>
        <path id="a" d="M.148.216h10.118v13.726H.148z"/>
        <path id="c" d="M.153.048H17.34v16.491H.153z"/>
    </defs>
    <g fill="none" fill-rule="evenodd">
        <path fill="#FFF" stroke="#F0F0F0" d="M.5.5h299v109H.5z"/>
        <path fill="#ED8011" d="M196.808 55.53c-4.178 3.792-11.438 3.376-15.696-.778a13.296 13.296 0 0 1-2.881-4.204 12.446 12.446 0 0 1-.995-4.94c0-1.78.331-3.433.995-4.968a12.655 12.655 0 0 1 2.753-4.033 13.138 13.138 0 0 1 4.087-2.725 12.5 12.5 0 0 1 4.94-.99c1.78 0 3.435.33 4.969.99a12.921 12.921 0 0 1 4.03 2.725 12.935 12.935 0 0 1 2.725 4.033c.662 1.535.995 3.187.995 4.968v12.77s-2.142-.695-3.361-2.022c-1.831-1.99-1.672-5.776-1.672-5.776v-4.972c0-1.064-.201-2.06-.598-2.99a7.798 7.798 0 0 0-1.653-2.447 7.697 7.697 0 0 0-2.447-1.649 7.484 7.484 0 0 0-2.989-.598 7.684 7.684 0 0 0-3.014.598 7.618 7.618 0 0 0-2.477 1.649 7.777 7.777 0 0 0-1.652 2.447 7.537 7.537 0 0 0-.597 2.99c0 1.062.2 2.067.597 3.015.399.949.95 1.775 1.652 2.477a7.607 7.607 0 0 0 2.477 1.649c.946.398 3.69 1.228 7.092-.912l2.72 3.694z"/>
        <path fill="#064782" d="M127.866 36.815c1.247-1.248 2.66-2.185 4.232-2.81 1.57-.626 3.169-.938 4.797-.938 1.628 0 3.23.312 4.798.938 1.573.625 2.982 1.562 4.233 2.81.968.967.968 2.565 0 3.549-.968.983-2.169 1.391-2.67.907-.498-.483-1.632-1.476-2.518-2.203l-.946-.378a7.668 7.668 0 0 0-2.897-.57 7.68 7.68 0 0 0-2.895.57c-.948.378-1.8.947-2.557 1.702a6.997 6.997 0 0 0-1.704 2.498 7.704 7.704 0 0 0-.568 2.896c0 .986.188 1.951.568 2.899a7.595 7.595 0 0 0 1.704 2.554c1.515 1.515 3.333 2.272 5.452 2.272a7.856 7.856 0 0 0 2.954-.57 6.962 6.962 0 0 0 2.499-1.702c1-.968 2.61-.957 3.578.027.968.983 1.243 2.09.882 2.672-.378.603-1.156 1.642-3.542 3.067l-1.573.62c-1.569.626-3.17.938-4.798.938-1.628 0-3.227-.312-4.797-.938-1.572-.62-2.985-1.56-4.232-2.807-1.249-1.253-2.177-2.65-2.785-4.207a13.134 13.134 0 0 1 0-9.594c.608-1.55 1.536-2.952 2.785-4.202M154.648 45.914c0 1.061.2 2.065.6 3.013.4.949.954 1.777 1.66 2.477a7.67 7.67 0 0 0 2.487 1.65c.952.4 1.962.598 3.03.598a7.753 7.753 0 0 0 3.03-.598 7.671 7.671 0 0 0 2.489-1.65 7.648 7.648 0 0 0 1.657-2.477c.4-.948.601-1.952.601-3.013 0-1.064-.2-2.058-.601-2.988a7.718 7.718 0 0 0-1.657-2.448 7.716 7.716 0 0 0-2.489-1.65 7.813 7.813 0 0 0-3.03-.599c-1.068 0-2.078.202-3.03.598a7.683 7.683 0 0 0-4.146 4.1c-.402.929-.6 1.923-.6 2.987m-4.97 0c0-1.78.332-3.436.997-4.97a12.879 12.879 0 0 1 2.731-4.031 12.81 12.81 0 0 1 4.071-2.722 12.49 12.49 0 0 1 4.953-.997c1.78 0 3.442.334 4.98.997a13.298 13.298 0 0 1 4.069 2.722 12.692 12.692 0 0 1 2.76 4.03c.663 1.535.996 3.19.996 4.97 0 1.742-.333 3.388-.996 4.938a12.825 12.825 0 0 1-2.76 4.087 13.033 13.033 0 0 1-4.07 2.755c-1.537.661-3.199.994-4.979.994-1.749 0-3.4-.333-4.953-.994a12.565 12.565 0 0 1-4.07-2.755 13.016 13.016 0 0 1-2.732-4.087 12.384 12.384 0 0 1-.998-4.937M207.585 36.815c1.249-1.248 2.66-2.185 4.23-2.81a12.87 12.87 0 0 1 4.802-.938c1.626 0 3.227.312 4.798.938 1.57.625 2.98 1.562 4.233 2.81.967.967.967 2.565 0 3.549-.972.983-2.17 1.391-2.672.907-.499-.483-1.633-1.476-2.518-2.203l-.946-.378a7.676 7.676 0 0 0-2.895-.57 7.69 7.69 0 0 0-2.898.57 7.612 7.612 0 0 0-2.557 1.702 7.033 7.033 0 0 0-1.704 2.498 7.747 7.747 0 0 0-.568 2.896c0 .986.19 1.951.568 2.899.38.942.948 1.797 1.704 2.554 1.515 1.515 3.333 2.272 5.455 2.272 1.02 0 2.005-.19 2.952-.57a6.979 6.979 0 0 0 2.499-1.702c.999-.968 2.608-.957 3.58.027.967.983 1.225 2.08.88 2.672-.513.863-1.048 1.739-3.542 3.067l-1.57.62c-1.572.626-3.173.938-4.799.938a12.87 12.87 0 0 1-4.802-.938c-1.57-.62-2.981-1.56-4.23-2.807-1.25-1.253-2.177-2.65-2.783-4.207a13.105 13.105 0 0 1 0-9.594c.606-1.55 1.534-2.952 2.783-4.202M242.182 33.067c1.779 0 3.435.332 4.967.994a13.282 13.282 0 0 1 4.061 2.723 12.665 12.665 0 0 1 2.752 4.032c.664 1.532.995 3.188.995 4.967v8.364c0 2.425-1.133 4.41-2.516 4.41-1.385 0-2.519-1.985-2.519-4.41v-3.968c0-2.427-.088-5.333-.198-6.465l-.4-.926a7.768 7.768 0 0 0-1.649-2.444 7.7 7.7 0 0 0-2.476-1.647 7.727 7.727 0 0 0-3.017-.593 7.513 7.513 0 0 0-2.988.593 7.812 7.812 0 0 0-2.45 1.647 7.751 7.751 0 0 0-1.648 2.444 7.473 7.473 0 0 0-.597 2.982v8.377c0 2.425-1.134 4.41-2.519 4.41-1.383 0-2.516-1.985-2.516-4.41V27.28c0-2.426 1.133-4.41 2.516-4.41 1.385 0 2.521 1.984 2.526 4.41l.003 3.98c.005 2.424 1.018 3.747 2.25 2.94l1.307-.452a12.455 12.455 0 0 1 4.116-.68M82.257 33.108c1.78 0 3.435.33 4.968.99a13.23 13.23 0 0 1 4.059 2.725 12.639 12.639 0 0 1 2.754 4.034c.662 1.53.994 3.188.994 4.965l.002 8.367c0 2.425-1.132 4.41-2.517 4.41-1.384 0-2.517-1.984-2.517-4.41v-3.968c0-2.426-.091-5.333-.203-6.464l-.398-.928a7.788 7.788 0 0 0-1.651-2.447 7.752 7.752 0 0 0-5.491-2.24c-1.064 0-2.06.198-2.99.596a7.769 7.769 0 0 0-2.448 1.65 7.773 7.773 0 0 0-1.649 2.443 7.495 7.495 0 0 0-.596 2.983v8.381c0 2.421-1.13 4.406-2.515 4.406-1.384 0-2.519-1.983-2.519-4.406v-3.972c0-2.426-.092-5.333-.2-6.462l-.399-.93a7.653 7.653 0 0 0-4.127-4.09 7.715 7.715 0 0 0-3.015-.598c-1.064 0-2.06.2-2.99.597a7.713 7.713 0 0 0-4.097 4.093 7.496 7.496 0 0 0-.597 2.984v8.378c.001 2.426-1.131 4.406-2.516 4.406-1.384.003-2.517-1.98-2.517-4.406l-.002-3.957c0-2.425.149-5.954.332-7.844l.662-1.533a12.872 12.872 0 0 1 2.727-4.032 12.844 12.844 0 0 1 4.063-2.728c1.553-.66 3.2-.992 4.945-.993 2.121 0 4.063.465 5.825 1.392a12.84 12.84 0 0 1 4.405 3.777 12.79 12.79 0 0 1 4.428-3.78c1.779-.926 3.709-1.39 5.79-1.39M119.915 33.165c1.385 0 2.516 1.984 2.518 4.41l.002 14.106c0 2.426-.15 5.95-.331 7.84l-.659 1.533a13.25 13.25 0 0 1-2.714 4.057 12.628 12.628 0 0 1-4.026 2.754c-1.534.658-3.191.994-4.97.994-1.405 0-2.556-1.135-2.556-2.52 0-1.383.574-2.517 1.278-2.517.703 0 2.202-.088 3.331-.197l.928-.397a7.756 7.756 0 0 0 2.442-1.643 7.677 7.677 0 0 0 1.645-2.466 7.662 7.662 0 0 0 .598-3.006c0-.029-1.015.605-2.254 1.415l-1.31.454c-1.312.454-2.69.678-4.131.678-1.75 0-3.404-.328-4.961-.993a12.902 12.902 0 0 1-4.105-2.753 12.894 12.894 0 0 1-2.768-4.085 12.437 12.437 0 0 1-.996-4.943l-.002-8.308c0-2.425 1.132-4.409 2.516-4.409 1.386-.002 2.518 1.982 2.518 4.408l.001 3.913c0 2.423.09 5.34.2 6.472l.4.949a7.714 7.714 0 0 0 1.658 2.471 7.682 7.682 0 0 0 2.488 1.648 7.77 7.77 0 0 0 3.027.596 7.578 7.578 0 0 0 3.002-.596 7.715 7.715 0 0 0 2.458-1.65 7.684 7.684 0 0 0 2.256-5.482v-8.323c0-2.426 1.13-4.41 2.517-4.41M157.455 86.04c.127.934.774 1.49 1.868 1.49 1.38 0 1.936-.808 1.936-2.851 0-2.03-.592-2.838-2.081-2.838-.7 0-1.326.18-1.723.394v3.805zm-2.745 3.517V75.92h2.745v4.181a5.548 5.548 0 0 1 2.154-.43c2.799 0 4.449 1.668 4.449 4.878 0 3.411-1.345 5.187-3.93 5.187-1.22 0-2.188-.415-2.887-1.205l-.235 1.025h-2.296z"/>
        <g transform="translate(164.418 79.634)">
            <mask id="b" fill="#fff">
                <use xlink:href="#a"/>
            </mask>
            <path fill="#064782" d="M10.266.216l-3.784 10.57c-.79 2.188-1.902 3.156-3.607 3.156-.664 0-1.31-.072-1.849-.304v-1.976c.612.165.97.198 1.346.198.754 0 1.149-.198 1.491-1.042l.16-.375L.148.216h2.996l2.153 7.247L7.307.216h2.96z" mask="url(#b)"/>
        </g>
        <path fill="#064782" d="M212.474 89.556h4.163V83.79h11.3v-3.3h-11.3v-4.041h13.025v-3.383h-17.188z"/>
        <g transform="translate(237.908 73.017)">
            <mask id="d" fill="#fff">
                <use xlink:href="#c"/>
            </mask>
            <path fill="#064782" d="M17.34 3.43V.049H.153v16.491h4.164v-5.768h11.302V7.472H4.317V3.431z" mask="url(#d)"/>
        </g>
        <path fill="#064782" d="M204.073 76.448v-3.383h-17.187v16.491h4.164V83.79h11.302v-3.3H191.05v-4.041z"/>
    </g>
</svg>
