<svg id="e1d43776-2e23-4446-b7af-f64d29ab0965" data-name="Calque 1" xmlns="http://www.w3.org/2000/svg" viewBox="0 0 42.55 55.97"><path d="M44,7.7H38.35v2.69a1.16,1.16,0,0,1-1.16,1.16H22.77a1.16,1.16,0,0,1-1.16-1.16V7.7H16C12.48,7.7,8.71,9.6,8.71,15V50.72C8.71,56.07,12.45,58,16,58H44c5.35,0,7.25-3.75,7.25-7.25V15c0-5.36-3.74-7.28-7.25-7.28h0ZM43.4,44.2H16.56a1.16,1.16,0,0,1,0-2.32H43.4a1.16,1.16,0,0,1,0,2.32h0Zm1.16-6.87a1.16,1.16,0,0,1-1.16,1.16H16.56a1.16,1.16,0,0,1,0-2.32H43.4a1.16,1.16,0,0,1,1.16,1.13v0h0ZM43.4,32.69H16.56a1.16,1.16,0,1,1,0-2.32H43.4a1.16,1.16,0,0,1,0,2.32h0Zm0-5.71H16.56a1.16,1.16,0,1,1,0-2.32H43.4A1.16,1.16,0,0,1,43.4,27Zm0-5.8H16.56a1.16,1.16,0,0,1,0-2.32H43.4A1.16,1.16,0,0,1,43.4,21.17Z" transform="translate(-8.71 -2.01)" /><path d="M33.1,5.27a1.16,1.16,0,0,1-1.16-1.16h0a2,2,0,1,0-3.91,0,1.16,1.16,0,0,1-1.16,1.16H23.93v4H36v-4H33.1Z" transform="translate(-8.71 -2.01)" /></svg>