<svg xmlns="http://www.w3.org/2000/svg" width="30" height="30" viewBox="0 0 30 30">
    <g fill="none" fill-rule="evenodd">
        <path d="M0 0h30v30H0z"/>
        <circle cx="15" cy="15" r="14.5" stroke="#FFF"/>
        <path fill="#FFF" d="M19.183 8.182h-8.366a2.638 2.638 0 0 0-2.635 2.635v8.366a2.638 2.638 0 0 0 2.635 2.635h8.366a2.638 2.638 0 0 0 2.635-2.635v-8.366a2.638 2.638 0 0 0-2.635-2.635zm.756 1.572l.301-.002v2.312l-2.304.007-.008-2.311 2.01-.006zM13.054 13.6c.436-.604 1.145-1 1.946-1 .801 0 1.51.396 1.946 1 .285.395.454.877.454 1.4 0 1.323-1.076 2.4-2.4 2.4a2.403 2.403 0 0 1-2.4-2.4c0-.523.17-1.005.454-1.4zm7.436 5.583c0 .72-.586 1.307-1.307 1.307h-8.366c-.72 0-1.307-.586-1.307-1.307V13.6h2.037a3.702 3.702 0 0 0-.275 1.4A3.733 3.733 0 0 0 15 18.729 3.733 3.733 0 0 0 18.729 15c0-.495-.1-.967-.275-1.4h2.036v5.583z"/>
    </g>
</svg>
