<svg id="ecbbc3ae-d5b7-48e5-86bf-0ce79c29ee4a" data-name="Calque 1" xmlns="http://www.w3.org/2000/svg" viewBox="0 0 54.85 53.71"><path d="M26.69,32.07a3.1,3.1,0,0,0-3.1-3.1H20.36a3.1,3.1,0,0,0-3.1,3.1h0V53.69a3.1,3.1,0,0,0,3.1,3.1h3.23a3.1,3.1,0,0,0,3.1-3.1h0V32.07h0ZM12.77,39.61a3.34,3.34,0,0,0-3.34-3.34H6.67a3.34,3.34,0,0,0-3.34,3.34h0V53.45a3.34,3.34,0,0,0,3.34,3.34H9.43a3.34,3.34,0,0,0,3.34-3.34h0V39.62h0Zm27.6-15.8a3.1,3.1,0,0,0-3.1-3.1H34a3.1,3.1,0,0,0-3.1,3.1h0V53.69a3.1,3.1,0,0,0,3.1,3.1h3.23a3.1,3.1,0,0,0,3.1-3.1h0V23.82ZM57.68,11.9L51.63,4.14a2.5,2.5,0,0,0-4.08,0L41.49,11.9a1.88,1.88,0,0,0-.35,2A2.2,2.2,0,0,0,43.22,15h1.63V53.78a3,3,0,0,0,3.11,3h3.25a3,3,0,0,0,3.08-3V14.94l1.64,0A2.21,2.21,0,0,0,58,13.91,1.88,1.88,0,0,0,57.68,11.9Z" transform="translate(-3.33 -3.09)" /></svg>