<svg xmlns="http://www.w3.org/2000/svg" width="60" height="60" viewBox="0 0 60 60">
    <path fill="#090909" fill-rule="nonzero" d="M50.924 41.034c.484-3.435.456-5.53.312-8.067l4.26-9.818h.26a27.03 27.03 0 0 1 .88 6.851c0 4.66-1.186 9.049-3.271 12.875l-2.441-1.84zm-15.237 14.57l7.005-8.014c3.21-1.736 4.942-2.902 7.374-4.87l2.343 1.768c-3.608 5.644-9.258 9.852-15.892 11.563l-.83-.446zM18.972 46.19l3.84-4.657H35.77l4.82 5.63c-7.631 8.734-6.783 7.762-7.052 8.082-3.611.421-5.71.172-9.347-.086l-5.219-8.97zm3.246 9.572c-6.615-1.995-12.164-6.495-15.545-12.401l2.61-1.403c2.121 1.75 4.666 3.259 7.83 4.736l5.23 8.99-.125.078zM4.14 22.665h.19l4.137 9.056.083-.04c-.233 2.702-.297 5.281-.006 8.556l-2.741 1.471A26.823 26.823 0 0 1 3.129 30c0-2.542.353-5.002 1.011-7.335zm6.768-9.876l9.473-1.072 2.52 7.052-6.47 11.302-6.503.366-4.027-8.806c1.531-3.398 2.93-5.922 4.983-9.027l.024.185zm.604-2.318c4.587-4.358 10.703-7.11 17.44-7.34v2.585c-3.105 1.21-5.169 2.086-8.069 4.065l-9.371 1.06v-.37zm29.434 21.225c-1.54 3.13-3.155 5.075-5.176 7.969H23.177c-2.34-4.513-2.622-5.011-5.013-8.877l6.278-10.967c3.148-.252 6.49-.483 9.916-.083l6.588 11.958zM30.812 3.13c6.949.24 13.23 3.152 17.858 7.747l-.126.668-10.388-1.348c-2.14-1.862-4.239-3.253-7.344-4.488V3.13zm19.006 28.424l-7.332-.92-6.452-11.708 2.802-6.76 10.066 1.312c2.028 3.062 3.348 5.395 5.02 8.627l-4.104 9.45zM.033 30c0 16.54 13.39 30 29.85 30s29.852-13.46 29.852-30c0-16.544-13.393-30-29.851-30C13.423 0 .034 13.456.034 30z"/>
</svg>
