<svg xmlns="http://www.w3.org/2000/svg" width="74" height="50" viewBox="0 0 74 50">
    <g fill="#000" fill-rule="evenodd">
        <path d="M67.566 44.57c-3.244-1.232-9.27-4.545-16.744-4.391-8.164.168-13.199 3.62-13.199 3.62h-1.127s-5.034-3.452-13.199-3.62c-7.474-.154-13.5 3.159-16.744 4.391a.676.676 0 0 1-.908-.713L9.802 7.639s7.465-3.373 14.731-2.927c8.203.504 12.062 4.96 12.062 4.96H37.525s3.858-4.456 12.06-4.96c7.267-.446 14.732 2.927 14.732 2.927l4.157 36.218a.676.676 0 0 1-.908.713m-30.344 5.214s4.672-4.761 13.347-4.985c4.05-.104 7.069.546 19.204 4.985.973.356 4.143 0 4.143 0l-5.7-45.46S59.763.003 51.311.007c-9.3.004-13.866 3.646-13.866 3.646h-.01v-.008h-.964S31.905.004 22.605 0C14.152-.004 5.7 4.315 5.7 4.315L0 49.777s3.17.356 4.142 0c12.136-4.44 15.155-5.09 19.205-4.985 8.675.223 13.495 4.985 13.495 4.985"/>
        <path d="M48.553 6.448c-6.43.646-11.023 5.11-11.023 5.11h-.985s-4.592-4.464-11.023-5.11c-6.426-.644-14.237 2.233-14.237 2.233s-.006 3.633-.229 5.76c-.721 6.901-3.317 26.853-3.317 26.853a.679.679 0 0 0 .923.707c2.594-1.025 9.525-3.518 15.229-3.36 8.03.222 12.568 3.168 12.65 3.222v.002h.993v-.002c.082-.054 4.62-3 12.65-3.222.465-.013.937-.007 1.414.013L49.954 6.362c-.472.013-.94.04-1.4.086"/>
    </g>
</svg>
