<svg id="0408479e-7a17-4d22-8800-b9a9783fed2c" data-name="Calque 1" xmlns="http://www.w3.org/2000/svg" viewBox="0 0 55.17 56"><path d="M25.81,14.7l-2.53,2.53-2.58-2.58,2.54-2.53L20.7,9.58,23.28,7l2.53,2.54L28.35,7l2.58,2.58-2.54,2.53,2.53,2.53-2.58,2.58L25.81,14.7h0ZM39.62,36.29l-2.53,2.53L34.5,36.24,37,33.71l-2.53-2.53,2.58-2.58,2.53,2.54,2.53-2.53,2.58,2.58-2.54,2.53,2.53,2.53-2.58,2.58ZM22.2,30.77L19.66,33.3l-2.58-2.58,2.54-2.53-2.53-2.53,2.58-2.58,2.53,2.54,2.53-2.53,2.58,2.58-2.54,2.53,2.53,2.53-2.58,2.58ZM42.7,8.37A21.12,21.12,0,0,1,53.47,42L50,39.16a16.41,16.41,0,0,0,3.69-10.44A16.63,16.63,0,0,0,40.8,12.54l3.85,6.16-3.28,2L34.13,9.17,45.6,2l2,3.28ZM4.62,27.19L5.1,24.75l8.38,1.64-1.66,8.47-2.44-.48,0.92-4.71a10.64,10.64,0,0,0,.49,18.1L9.54,49.92A13.11,13.11,0,0,1,4.15,33.22a13,13,0,0,1,4.29-5.28l-3.82-.75h0ZM46.2,48.38a4.81,4.81,0,1,1-4.81,4.81,4.81,4.81,0,0,1,4.81-4.81h0ZM12,3.75A4.81,4.81,0,1,1,7.18,8.57,4.81,4.81,0,0,1,12,3.75ZM25.4,42.49a4.81,4.81,0,1,1-4.81,4.81,4.81,4.81,0,0,1,4.81-4.81h0Z" transform="translate(-3 -2)" /></svg>