<svg xmlns="http://www.w3.org/2000/svg" width="56" height="60" viewBox="0 0 56 60">
    <path fill="#090909" fill-rule="nonzero" d="M54.486 9.837c-.848-.848-1.853-1.272-3.014-1.272h-4.286V5.353c0-1.472-.525-2.732-1.574-3.78C44.562.524 43.3 0 41.827 0h-2.143C38.21 0 36.95.524 35.9 1.573c-1.05 1.048-1.575 2.309-1.575 3.78v3.213H21.466V5.353c0-1.471-.525-2.732-1.574-3.78C18.842.524 17.582 0 16.107 0h-2.143c-1.473 0-2.735.524-3.784 1.573-1.05 1.048-1.575 2.309-1.575 3.78v3.213H4.32c-1.161 0-2.166.423-3.014 1.271-.848.848-1.273 1.852-1.273 3.011v42.827c0 1.159.425 2.163 1.273 3.01.848.848 1.853 1.272 3.014 1.272h47.152c1.161 0 2.167-.424 3.014-1.271.849-.848 1.273-1.852 1.273-3.011V12.848c0-1.16-.424-2.163-1.272-3.011zM13.964 55.674H4.319v-9.636h9.645v9.636zm0-11.777H4.319V33.191h9.645v10.706zm0-12.848H4.319v-9.636h9.645v9.636zm-.753-15.307a1.027 1.027 0 0 1-.318-.753V5.354c0-.29.106-.541.318-.753a1.03 1.03 0 0 1 .753-.318h2.143c.29 0 .542.106.754.318.212.212.318.463.318.753v9.635c0 .29-.107.541-.318.753a1.029 1.029 0 0 1-.754.318h-2.143a1.03 1.03 0 0 1-.753-.318zm13.613 39.932H16.107v-9.636h10.717v9.636zm0-11.777H16.107V33.191h10.717v10.706zm0-12.848H16.107v-9.636h10.717v9.636zm12.86 24.625H28.968v-9.636h10.716v9.636zm0-11.777H28.968V33.191h10.716v10.706zm0-12.848H28.968v-9.636h10.716v9.636zm-.754-15.307a1.028 1.028 0 0 1-.317-.753V5.354c0-.29.105-.541.317-.753a1.03 1.03 0 0 1 .754-.318h2.143c.29 0 .542.106.754.318.212.212.317.463.317.753v9.635c0 .29-.106.541-.317.753a1.03 1.03 0 0 1-.754.318h-2.143c-.29 0-.542-.106-.754-.318zm12.541 39.932h-9.645v-9.636h9.645v9.636zm0-11.777h-9.645V33.191h9.645v10.706zm0-12.848h-9.645v-9.636h9.645v9.636z"/>
</svg>
