<svg id="367651f6-a007-4dff-8ef8-5a350e870082" data-name="Calque 2" xmlns="http://www.w3.org/2000/svg" xmlns:xlink="http://www.w3.org/1999/xlink" viewBox="0 0 250.85 89.54"><defs><mask id="3a6e29f1-e132-4955-bb70-3759dcc631f6" x="0" y="23.46" width="21.49" height="66.08" maskUnits="userSpaceOnUse"><g transform="translate(0 -0.26)"><g id="992ba343-f08a-4d16-b3fb-9f4e7f8a4cae" data-name="b"><path id="faf48d3e-108e-41f8-b657-069d40850219" data-name="a" d="M0,23.72H21.49V89.8H0V23.72Z" style="fill:#fff"/></g></g></mask><mask id="77c1b2a0-3a82-49c8-be88-bc6fb244cd25" x="147.57" y="0" width="64.81" height="37.81" maskUnits="userSpaceOnUse"><g transform="translate(0 -0.26)"><g id="fa637243-e0a1-4a96-98de-d927538072af" data-name="d"><path id="9185311f-bb85-4200-9a52-11816b0b16eb" data-name="c" d="M147.57,0.26h64.81V38.07H147.57V0.26Z" style="fill:#fff"/></g></g></mask></defs><title>logo-mycoach-football-white</title><rect x="151" y="8.3" width="58.05" height="16.8" style="fill:#fff"/><path d="M187.42,67.8C182.86,72,174.94,71.5,170.3,67a14.55,14.55,0,0,1-3.14-4.6,14.08,14.08,0,0,1,0-10.84,13.85,13.85,0,0,1,3-4.41,14.34,14.34,0,0,1,4.46-3,14,14,0,0,1,10.81,0,14,14,0,0,1,7.37,7.39,13.6,13.6,0,0,1,1.09,5.44v14a10,10,0,0,1-3.67-2.21c-2-2.18-1.82-6.32-1.82-6.32V56.95a8.27,8.27,0,0,0-.65-3.27,8.54,8.54,0,0,0-1.8-2.68,8.4,8.4,0,0,0-2.67-1.8,8.15,8.15,0,0,0-3.26-.65A8.48,8.48,0,0,0,174,51a8.52,8.52,0,0,0-1.8,2.68,8.26,8.26,0,0,0-.65,3.27A8.49,8.49,0,0,0,174,63a8,8,0,0,0,10.44.81l3,4h0Z" transform="translate(0 -0.26)" style="fill:#f07f00"/><path d="M112.21,47.33a13.56,13.56,0,0,1,4.62-3.07,13.85,13.85,0,0,1,10.47,0,13.58,13.58,0,0,1,4.62,3.07,2.78,2.78,0,0,1,0,3.88c-1.06,1.08-2.37,1.52-2.91,1s-1.78-1.62-2.75-2.41l-1-.41a8.37,8.37,0,0,0-9.11,1.86A7.66,7.66,0,0,0,114.25,54a8.41,8.41,0,0,0,0,6.34,8.31,8.31,0,0,0,1.86,2.8,8.1,8.1,0,0,0,5.95,2.49,8.55,8.55,0,0,0,3.22-.62A7.59,7.59,0,0,0,128,63.11a2.78,2.78,0,0,1,3.9,0c1.06,1.07,1.36,2.29,1,2.92A10.44,10.44,0,0,1,129,69.42l-1.71.68a13.85,13.85,0,0,1-10.47,0A13.5,13.5,0,0,1,112.21,67a13.35,13.35,0,0,1-3-4.6,14.4,14.4,0,0,1,0-10.5,13.36,13.36,0,0,1,3-4.6m29.22,10a8.48,8.48,0,1,0,17,0,8.19,8.19,0,0,0-.66-3.27,8.51,8.51,0,0,0-15.66,0,8.16,8.16,0,0,0-.65,3.27m-5.42,0a13.54,13.54,0,0,1,1.09-5.44,13.92,13.92,0,0,1,7.42-7.39,14,14,0,0,1,10.84,0,14.5,14.5,0,0,1,4.44,3,13.89,13.89,0,0,1,3,4.41,14.06,14.06,0,0,1,0,10.84,14,14,0,0,1-3,4.47,14.21,14.21,0,0,1-4.44,3,14,14,0,0,1-10.83,0,13.71,13.71,0,0,1-4.44-3,14.25,14.25,0,0,1-3-4.47,13.59,13.59,0,0,1-1.09-5.4m63.17-10a13.57,13.57,0,0,1,4.61-3.07,13.86,13.86,0,0,1,10.47,0,13.63,13.63,0,0,1,4.62,3.07,2.78,2.78,0,0,1,0,3.88c-1.06,1.08-2.37,1.52-2.91,1s-1.78-1.62-2.75-2.41l-1-.41a8.37,8.37,0,0,0-9.11,1.86A7.7,7.7,0,0,0,201.22,54a8.41,8.41,0,0,0,0,6.34,8.36,8.36,0,0,0,1.86,2.8A8.1,8.1,0,0,0,209,65.59a8.55,8.55,0,0,0,3.22-.62A7.61,7.61,0,0,0,215,63.11a2.78,2.78,0,0,1,3.9,0c1.06,1.07,1.34,2.28,1,2.92-0.56.94-1.14,1.9-3.86,3.36l-1.71.68a13.86,13.86,0,0,1-10.47,0A13.51,13.51,0,0,1,199.18,67a13.32,13.32,0,0,1-3-4.6,14.4,14.4,0,0,1,0-10.5,13.34,13.34,0,0,1,3-4.6m37.74-4.1a13.47,13.47,0,0,1,5.42,1.09,14.49,14.49,0,0,1,4.43,3,13.86,13.86,0,0,1,3,4.41,13.55,13.55,0,0,1,1.09,5.43v9.15c0,2.65-1.24,4.83-2.74,4.83s-2.75-2.17-2.75-4.83V61.95c0-2.65-.1-5.83-0.22-7.07l-0.44-1a8.49,8.49,0,0,0-1.8-2.67,8.45,8.45,0,0,0-6-2.45,8.18,8.18,0,0,0-3.26.65,8.43,8.43,0,0,0-4.47,4.48,8.2,8.2,0,0,0-.65,3.26v9.16c0,2.65-1.24,4.83-2.75,4.83S223,68.94,223,66.29V36.9c0-2.65,1.24-4.82,2.75-4.82s2.75,2.17,2.76,4.82v4.35c0,2.65,1.11,4.1,2.46,3.22l1.43-.49a13.56,13.56,0,0,1,4.49-.74m-174.46,0a13.49,13.49,0,0,1,5.42,1.08,14.43,14.43,0,0,1,4.43,3,13.83,13.83,0,0,1,3,4.41,13.58,13.58,0,0,1,1.08,5.43v9.15c0,2.65-1.24,4.82-2.75,4.82S70.91,69,70.91,66.34V62c0-2.65-.1-5.83-0.22-7.07l-0.43-1a8.52,8.52,0,0,0-1.8-2.68,8.45,8.45,0,0,0-6-2.45,8.18,8.18,0,0,0-3.26.65,8.45,8.45,0,0,0-4.47,4.48,8.22,8.22,0,0,0-.65,3.26v9.17c0,2.65-1.23,4.82-2.74,4.82S48.59,69,48.59,66.34V62c0-2.65-.1-5.84-0.22-7.07l-0.43-1a8.49,8.49,0,0,0-1.8-2.67,8.46,8.46,0,0,0-6-2.46,8.18,8.18,0,0,0-3.26.65,8.43,8.43,0,0,0-4.47,4.48,8.22,8.22,0,0,0-.65,3.26v9.17c0,2.65-1.24,4.82-2.75,4.82S26.27,69,26.27,66.34V62c0-2.65.16-6.51,0.36-8.58l0.72-1.68a13.95,13.95,0,0,1,7.41-7.4,13.64,13.64,0,0,1,5.4-1.09,13.4,13.4,0,0,1,6.35,1.52,14,14,0,0,1,4.81,4.13,14,14,0,0,1,4.83-4.13,13.42,13.42,0,0,1,6.32-1.52m41.08,0.06c1.51,0,2.74,2.17,2.75,4.83V63.59c0,2.65-.16,6.51-0.36,8.58l-0.72,1.68a14.51,14.51,0,0,1-3,4.44,13.78,13.78,0,0,1-4.39,3,13.58,13.58,0,0,1-5.42,1.09,2.78,2.78,0,0,1-2.79-2.76c0-1.51.63-2.75,1.39-2.75s2.4-.1,3.63-0.22l1-.43a8.42,8.42,0,0,0,5.11-7.78s-1.11.66-2.46,1.55l-1.43.5A14,14,0,0,1,87,70.14a14.11,14.11,0,0,1-7.5-7.48,13.64,13.64,0,0,1-1.09-5.41V48.16c0-2.65,1.24-4.82,2.75-4.82s2.75,2.17,2.75,4.82v4.28c0,2.65.1,5.84,0.22,7.08l0.44,1a8.44,8.44,0,0,0,7.82,5.16,8.24,8.24,0,0,0,3.28-.65,8.42,8.42,0,0,0,5.14-7.8V48.16c0-2.65,1.23-4.83,2.75-4.83" transform="translate(0 -0.26)" style="fill:#fff"/><g style="mask:url(#3a6e29f1-e132-4955-bb70-3759dcc631f6)"><path d="M0.82,84.07A2.84,2.84,0,0,1,.54,85.4c-0.27.28-1.19,3,.23,4s4.12,0.37,3.48-1.2-0.32-1.88-.32-1.88l0.64,0.64,0.16-.16L3.93,86V84.57S6.31,81.08,6.31,80s0.6-3.58.6-4.14,0.27-1.66.27-2.34-0.36-.88,0-1.24A31.71,31.71,0,0,0,9,66.89c0.28-1.15,2.29-5.51,2.29-5.51l0.78,1.38s-0.16,3.37.32,3.86a1.22,1.22,0,0,1,.18,1.51c-0.25.25-.47,0.56-0.25,0.78a4,4,0,0,1,.22,1.7c0,0.46-.33,2.07-0.33,2.44s0.37,4,.37,4,0.18,1.15.18,1.52a2.25,2.25,0,0,0,.62,1,9.69,9.69,0,0,0-.48,1.4,1,1,0,0,0,0,1.15,2.5,2.5,0,0,0,1.79.48,2.44,2.44,0,0,1,1.51.76,3.08,3.08,0,0,0,3.8.46c1.79-1.15-.64-2.2-0.64-2.2a7.61,7.61,0,0,0-1.56-1.1c-0.28,0,0-.25-0.28-0.55a5.59,5.59,0,0,1-.69-1.24H16.49A14.42,14.42,0,0,1,17.68,77c0.39-.39,0-2.53-0.46-4a5.27,5.27,0,0,1,.23-4c0.6-1.47.37-5.74,0.37-5.74A10.92,10.92,0,0,1,17.9,60a13.71,13.71,0,0,0,0-3.72l-0.23-1.19L17.4,51.44a12.14,12.14,0,0,1-.27-1.66,10.82,10.82,0,0,1-.37-2.43,4.06,4.06,0,0,0-.14-1.7s1.19,0,1.88,0,1.79-.14,2.25-0.14,0.92-.5.69-1.84c0,0-.5-2.25-1-2.67s0-.46-0.23-0.59a2.74,2.74,0,0,1-.6-0.64,8.59,8.59,0,0,1-1.24-2.16,7.51,7.51,0,0,0-.41-1.24c-0.14-.23-0.18-0.73-0.41-1.19a1.79,1.79,0,0,0-1.24-1,4.34,4.34,0,0,1-1.1-.37,5.7,5.7,0,0,0-1.1-.46,1.12,1.12,0,0,1-.83-0.27A0.38,0.38,0,0,0,13,33l0.14-1.24a7.83,7.83,0,0,0,1.05-2A6.13,6.13,0,0,1,14.23,29a2.29,2.29,0,0,0,.46-1.15,0.37,0.37,0,0,0-.46-0.28A5,5,0,0,0,13.78,25a3.21,3.21,0,0,0-3.44-1.15c-1.42.37-1.93,1.33-1.88,2.81l0.12,0.7a0.54,0.54,0,0,0-.67.76,2.05,2.05,0,0,0,.55,1.07,2.51,2.51,0,0,0,.41.4,6.31,6.31,0,0,1,.09,2,2.54,2.54,0,0,1-1.05.87s-3.53.6-4,2.07a9.51,9.51,0,0,0-.5,3.68c0.09,1,.09,3.17.09,3.17L3.79,42l0.32,0.23a5.93,5.93,0,0,1,.55,1.2,12.36,12.36,0,0,0,.46,2.34L5.35,46.3,5.12,49.7a20,20,0,0,0-.28,2.16,5.79,5.79,0,0,1-.32,1.84,1.33,1.33,0,0,0-.28,1,1.44,1.44,0,0,1,0,.78,31,31,0,0,0-.41,3.35c-0.14,1.93-.6,3.49-0.5,4.46a31.44,31.44,0,0,1-.46,4.59c-0.09.51-.69,1-0.69,1.33a2,2,0,0,1,0,.92A4,4,0,0,0,1.46,72a5.5,5.5,0,0,1-.18,2.25,7,7,0,0,0-.41,1.65,12.38,12.38,0,0,0-.5,3.13c0,1,0,4.64,0,4.64" transform="translate(0 -0.26)" style="fill:#fff"/></g><path d="M187.8,16.46a2.65,2.65,0,1,0,2.63,2.64,2.65,2.65,0,0,0-2.63-2.64m-16.1,0a2.61,2.61,0,1,0,2.61,2.61,2.61,2.61,0,0,0-2.61-2.61" transform="translate(0 -0.26)" style="fill:#f07f00"/><g style="mask:url(#77c1b2a0-3a82-49c8-be88-bc6fb244cd25)"><path d="M207.81,22.58a0.88,0.88,0,1,1-1.76,0V12.1a0.88,0.88,0,1,1,1.76,0V22.58h0Zm-3.21,0a0.88,0.88,0,1,1-1.75,0V12.1a0.88,0.88,0,1,1,1.75,0V22.58h0Zm-2.74.86a3.12,3.12,0,0,1-1.15-.7,3.23,3.23,0,0,1-.58-2V19a2.57,2.57,0,0,0-.2-1,2.69,2.69,0,0,0-.57-0.84,2.64,2.64,0,0,0-.84-0.57,2.56,2.56,0,0,0-1-.21,2.65,2.65,0,0,0-1.89.77A2.79,2.79,0,0,0,195,18a2.62,2.62,0,0,0-.2,1,2.65,2.65,0,0,0,.2,1,2.72,2.72,0,0,0,.57.86,2.52,2.52,0,0,0,3.29.26l0.45,0.61,0.48,0.66a4.07,4.07,0,0,1-5.4-.27,4.63,4.63,0,0,1-1-1.45,4.51,4.51,0,0,1,0-3.42,4.46,4.46,0,0,1,1-1.39,4.51,4.51,0,0,1,1.4-.94,4.41,4.41,0,0,1,3.41,0,4.4,4.4,0,0,1,2.32,2.33,4.25,4.25,0,0,1,.34,1.71v4.41Zm-14.06.09a4.51,4.51,0,0,1-1.33-.21l-0.1,0-0.29-.1a5.16,5.16,0,0,1-.49-0.24l-0.19-.11h0a3.94,3.94,0,0,1-1.18-1.16S184,21.44,184,21.4l0-.06,0-.06a4.38,4.38,0,0,1-.57-2.18V12a0.89,0.89,0,1,1,1.77,0v3.51l0.43-.26a4.33,4.33,0,0,1,2.21-.6A4.43,4.43,0,0,1,187.8,23.53Zm-6.65-1.83h0.58a0.88,0.88,0,0,1,0,1.76h-0.58a3.21,3.21,0,0,1-3.2-3.21V16.47H176.8a0.88,0.88,0,0,1,0-1.76H178V13.26a0.88,0.88,0,1,1,1.75,0v1.45h2a0.88,0.88,0,0,1,0,1.76h-2v3.78A1.45,1.45,0,0,0,181.16,21.7Zm-9.46,1.76a4.37,4.37,0,1,1,4.36-4.37A4.37,4.37,0,0,1,171.7,23.46Zm-9.31,0a4.37,4.37,0,1,1,4.36-4.37A4.37,4.37,0,0,1,162.39,23.46Zm-5.1-7h-2v6.11a0.88,0.88,0,1,1-1.76,0V16.47h-1.16a0.88,0.88,0,1,1,0-1.76h1.16V14.43a3.21,3.21,0,0,1,3.2-3.21h0.58a0.88,0.88,0,0,1,0,1.76h-0.58a1.45,1.45,0,0,0-1.44,1.45v0.29h2a0.88,0.88,0,1,1,0,1.76h0Zm55.07,9.42L209.5,2a1.93,1.93,0,0,0-2.14-1.7h0L185.13,2.94,149.27,7.38a1.94,1.94,0,0,0-1.69,2.16l2.86,23.93a1.93,1.93,0,0,0,2.14,1.69h0l27.17-3.33,0.75,6.24,5.47-7,24.69-3a1.94,1.94,0,0,0,1.69-2.16h0Z" transform="translate(0 -0.26)" style="fill:#f07f00"/></g><path d="M162.39,16.55a2.53,2.53,0,1,0,2.52,2.53,2.53,2.53,0,0,0-2.52-2.53" transform="translate(0 -0.26)" style="fill:#f07f00"/></svg>