<svg xmlns="http://www.w3.org/2000/svg" xmlns:xlink="http://www.w3.org/1999/xlink" width="118" height="42" viewBox="0 0 118 42">
    <defs>
        <path id="a" d="M.085.072h13.077V18.36H.085z"/>
    </defs>
    <g fill="none" fill-rule="evenodd">
        <path fill="#FFF" d="M88.129 31.64c-2.143 1.942-5.867 1.73-8.051-.4a6.812 6.812 0 0 1-1.478-2.154 6.372 6.372 0 0 1-.51-2.532c0-.912.17-1.76.51-2.545.34-.786.81-1.474 1.412-2.067a6.741 6.741 0 0 1 2.096-1.397 6.416 6.416 0 0 1 2.534-.508c.913 0 1.762.17 2.55.508.785.34 1.474.806 2.067 1.397a6.627 6.627 0 0 1 1.397 2.067c.34.786.51 1.633.51 2.545V33.1s-1.098-.357-1.724-1.036c-.939-1.02-.857-2.96-.857-2.96v-2.549a3.86 3.86 0 0 0-.307-1.532 3.997 3.997 0 0 0-.848-1.254 3.949 3.949 0 0 0-1.255-.845 3.842 3.842 0 0 0-1.533-.306c-.544 0-1.06.102-1.546.306a3.91 3.91 0 0 0-2.118 2.1 3.859 3.859 0 0 0-.306 1.531 3.955 3.955 0 0 0 1.153 2.815c.36.36.783.642 1.27.845.486.204 1.894.63 3.639-.467l1.395 1.893zM52.765 22.048a6.381 6.381 0 0 1 2.17-1.44 6.591 6.591 0 0 1 2.462-.48c.835 0 1.656.16 2.46.48.808.32 1.53.8 2.172 1.44a1.297 1.297 0 0 1 0 1.819c-.497.504-1.113.713-1.37.465a26.358 26.358 0 0 0-1.291-1.13l-.486-.193a3.936 3.936 0 0 0-4.282.873c-.389.369-.68.794-.874 1.28a3.944 3.944 0 0 0 0 2.969c.194.483.485.921.874 1.31.777.775 1.71 1.163 2.797 1.163a4.03 4.03 0 0 0 1.515-.291 3.567 3.567 0 0 0 1.281-.873 1.31 1.31 0 0 1 1.836.014c.496.504.638 1.07.452 1.37-.193.308-.593.841-1.816 1.571l-.807.318a6.591 6.591 0 0 1-2.461.48c-.835 0-1.656-.16-2.461-.48a6.345 6.345 0 0 1-2.17-1.439 6.25 6.25 0 0 1-1.43-2.156 6.709 6.709 0 0 1 0-4.916 6.263 6.263 0 0 1 1.43-2.154M66.503 26.71c0 .545.102 1.06.308 1.545a3.9 3.9 0 0 0 2.127 2.115 3.973 3.973 0 0 0 1.555.307c.546 0 1.065-.102 1.554-.307a3.934 3.934 0 0 0 1.276-.845c.362-.36.644-.784.85-1.27.205-.485.309-1 .309-1.544 0-.545-.104-1.055-.309-1.53a3.958 3.958 0 0 0-.85-1.256 4.01 4.01 0 0 0-2.83-1.153 4.006 4.006 0 0 0-2.831 1.153 3.939 3.939 0 0 0-.85 1.255 3.813 3.813 0 0 0-.309 1.53m-2.55 0c0-.911.171-1.76.513-2.546a6.6 6.6 0 0 1 1.4-2.066 6.571 6.571 0 0 1 2.089-1.395 6.413 6.413 0 0 1 2.54-.51c.913 0 1.766.17 2.555.51a6.818 6.818 0 0 1 2.087 1.395 6.502 6.502 0 0 1 1.416 2.066c.34.786.51 1.635.51 2.547 0 .892-.17 1.736-.51 2.53a6.575 6.575 0 0 1-1.416 2.095 6.686 6.686 0 0 1-2.087 1.412 6.408 6.408 0 0 1-2.554.509c-.898 0-1.745-.17-2.541-.51a6.448 6.448 0 0 1-2.089-1.411 6.675 6.675 0 0 1-1.4-2.095 6.343 6.343 0 0 1-.512-2.53M93.657 22.048a6.392 6.392 0 0 1 2.17-1.44 6.605 6.605 0 0 1 2.463-.48c.834 0 1.655.16 2.461.48.806.32 1.529.8 2.171 1.44a1.297 1.297 0 0 1 0 1.819c-.498.504-1.113.713-1.37.465a26.943 26.943 0 0 0-1.292-1.13l-.485-.193a3.939 3.939 0 0 0-4.283.873c-.388.369-.68.794-.874 1.28-.194.484-.292.98-.292 1.483 0 .506.098 1 .292 1.486.195.483.486.921.874 1.31.777.775 1.71 1.163 2.798 1.163a4.03 4.03 0 0 0 1.514-.291 3.577 3.577 0 0 0 1.282-.873 1.31 1.31 0 0 1 1.836.014c.497.504.629 1.066.452 1.37-.263.442-.538.89-1.817 1.571l-.806.318a6.6 6.6 0 0 1-2.46.48c-.836 0-1.658-.16-2.464-.48a6.356 6.356 0 0 1-2.17-1.439 6.232 6.232 0 0 1-1.428-2.156 6.711 6.711 0 0 1 0-4.917 6.244 6.244 0 0 1 1.428-2.153"/>
        <g transform="translate(104.795 14.83)">
            <mask id="b" fill="#fff">
                <use xlink:href="#a"/>
            </mask>
            <path fill="#FFF" d="M6.609 5.297c.912 0 1.762.17 2.548.51.786.339 1.48.805 2.083 1.395a6.494 6.494 0 0 1 1.412 2.067c.34.785.51 1.633.51 2.545V16.1c0 1.243-.581 2.26-1.29 2.26-.711 0-1.293-1.017-1.293-2.26v-2.034c0-1.243-.045-2.732-.101-3.312l-.205-.475a3.978 3.978 0 0 0-.846-1.252 3.97 3.97 0 0 0-2.818-1.148c-.545 0-1.056.1-1.533.303a3.968 3.968 0 0 0-2.102 2.097 3.828 3.828 0 0 0-.306 1.528V16.1c0 1.243-.582 2.26-1.292 2.26-.71 0-1.291-1.017-1.291-2.26V2.332c0-1.244.581-2.26 1.291-2.26s1.293 1.016 1.295 2.26l.002 2.04c.003 1.242.522 1.92 1.154 1.505l.67-.23a6.398 6.398 0 0 1 2.112-.35" mask="url(#b)"/>
        </g>
        <path fill="#FFF" d="M29.37 20.148c.913 0 1.762.17 2.548.508.787.34 1.48.806 2.082 1.396a6.477 6.477 0 0 1 1.413 2.067c.34.785.51 1.634.51 2.545l.001 4.288c0 1.242-.58 2.26-1.291 2.26-.71 0-1.291-1.017-1.291-2.26v-2.034c0-1.243-.047-2.733-.104-3.312l-.204-.476a3.991 3.991 0 0 0-.847-1.254 3.983 3.983 0 0 0-2.817-1.148c-.546 0-1.057.102-1.534.306a3.985 3.985 0 0 0-1.255.845c-.36.36-.642.778-.846 1.252a3.838 3.838 0 0 0-.306 1.529v4.295c0 1.24-.58 2.258-1.29 2.258-.71 0-1.292-1.016-1.292-2.258V28.92c0-1.243-.047-2.733-.103-3.311l-.204-.477a3.925 3.925 0 0 0-2.117-2.096 3.96 3.96 0 0 0-1.547-.306c-.546 0-1.057.102-1.534.306a3.953 3.953 0 0 0-2.102 2.098 3.838 3.838 0 0 0-.305 1.528v4.294c0 1.243-.58 2.258-1.291 2.258-.71.001-1.291-1.015-1.291-2.258l-.001-2.028c0-1.242.076-3.051.17-4.02l.34-.785a6.598 6.598 0 0 1 1.398-2.066 6.586 6.586 0 0 1 2.085-1.398 6.436 6.436 0 0 1 2.536-.51c1.088 0 2.084.239 2.988.714a6.587 6.587 0 0 1 2.26 1.935 6.555 6.555 0 0 1 2.271-1.936 6.336 6.336 0 0 1 2.97-.713M48.687 20.178c.71 0 1.29 1.016 1.291 2.26l.001 7.229c0 1.243-.076 3.05-.17 4.017l-.338.786a6.79 6.79 0 0 1-1.392 2.08 6.48 6.48 0 0 1-2.065 1.41 6.413 6.413 0 0 1-2.55.51c-.72 0-1.31-.582-1.31-1.291 0-.71.294-1.29.655-1.29.361 0 1.13-.045 1.709-.102l.476-.203a3.98 3.98 0 0 0 1.253-.842c.357-.359.64-.78.844-1.263.204-.484.306-.997.306-1.54 0-.016-.52.31-1.156.724l-.672.233a6.44 6.44 0 0 1-2.12.347 6.423 6.423 0 0 1-2.544-.508 6.62 6.62 0 0 1-3.525-3.505 6.368 6.368 0 0 1-.511-2.533l-.002-4.258c0-1.243.582-2.26 1.292-2.26.71 0 1.29 1.016 1.29 2.26l.002 2.005c0 1.242.046 2.737.102 3.317l.206.486c.205.484.488.906.85 1.267.362.36.787.64 1.276.844a3.986 3.986 0 0 0 1.553.305c.548 0 1.06-.1 1.54-.305a3.954 3.954 0 0 0 2.111-2.112c.204-.486.308-1 .307-1.543v-4.265c0-1.244.58-2.26 1.29-2.26M.385 39.259s0 .494-.13.624c-.128.13-.559 1.42.109 1.851.667.43 1.939.172 1.637-.56-.302-.732-.151-.882-.151-.882l.302.3.075-.074-.377-.376v-.647s1.12-1.635 1.12-2.152c0-.517.28-1.679.28-1.937s.129-.777.129-1.097c0-.323-.172-.411 0-.583.171-.171.732-1.98.861-2.517.13-.538 1.077-2.583 1.077-2.583l.366.645s-.074 1.581.152 1.808c.226.226.204.592.086.71-.119.119-.222.264-.119.366.102.102.102.582.102.796 0 .216-.156.97-.156 1.142 0 .17.173 1.871.173 1.871s.087.539.087.711c0 .173.29.462.29.462s-.225.55-.225.657c0 .108-.228.311 0 .538.226.226.603.226.84.226s.527.172.71.356c.184.182.948.752 1.788.213.84-.538-.301-1.03-.301-1.03s-.603-.518-.732-.518c-.13 0 .01-.12-.13-.258-.14-.14-.324-.582-.324-.582h-.172s.377-.613.56-.796c.184-.183 0-1.184-.216-1.894-.215-.71-.172-1.184.108-1.873.281-.688.173-2.69.173-2.69s-.108-.968.041-1.484c.152-.517 0-1.745 0-1.745l-.107-.56-.13-1.72s-.128-.56-.128-.776c-.001-.214-.173-.41-.173-1.14 0-.732-.066-.795-.066-.795s.561.02.884.02c.323 0 .841-.064 1.055-.064.217 0 .432-.237.323-.862 0 0-.236-1.054-.474-1.25-.236-.192.023-.213-.107-.278-.13-.064-.15-.171-.28-.301-.13-.13-.496-.732-.582-1.01-.086-.28-.128-.476-.194-.584-.064-.106-.086-.343-.193-.56a.842.842 0 0 0-.583-.451c-.257-.042-.214-.064-.517-.171-.2-.072-.387-.217-.516-.217-.13 0-.346-.042-.389-.127-.043-.087-.15-.087-.15-.087l.064-.58s.475-.69.496-.948c.022-.258.042-.343.042-.343s.26-.368.217-.54c-.044-.171-.217-.129-.217-.129s.065-.775-.215-1.204c-.28-.432-.948-.711-1.616-.539-.667.173-.905.624-.882 1.314l.057.33s-.46-.106-.316.357c.115.375.181.416.259.503.129.144.193.187.193.187s.13.71.044.926c-.087.215-.496.408-.496.408s-1.659.281-1.875.97c-.214.688-.278 1.247-.236 1.722.043.473.043 1.484.043 1.484l.13.322.15.108s.238.409.259.56c.021.15.108.882.216 1.097l.107.238-.107 1.593s-.13.73-.13 1.01c0 .281-.085.755-.15.862-.064.108-.173.257-.13.474.044.215-.02.365-.02.365s-.13.668-.194 1.571c-.065.904-.28 1.637-.236 2.089.042.45-.173 1.915-.216 2.15-.044.239-.324.475-.324.626 0 .15.044.344-.02.43-.064.086-.302.517-.302.883s.044.883-.086 1.054c-.13.173-.086.43-.193.774-.108.345-.237.992-.237 1.466 0 .472.022 2.173.022 2.173M80.604 6.82c-.856 0-1.552.696-1.552 1.55 0 .854.696 1.55 1.552 1.55.854 0 1.549-.696 1.549-1.55 0-.854-.695-1.55-1.549-1.55"/>
        <path fill="#FFF" d="M95.899 9.94h.349c.285 0 .527.242.527.528a.534.534 0 0 1-.527.525h-.35c-1.06 0-1.92-.861-1.92-1.919v-2.26h-.695a.534.534 0 0 1-.526-.527c0-.287.242-.526.526-.526h.695v-.868c0-.283.24-.525.528-.525.284 0 .525.242.525.525v.868h1.217c.285 0 .527.24.527.526a.534.534 0 0 1-.527.526H95.03v2.261c0 .478.39.866.868.866m-3.514-3.416c-.081.18-.232.256-.29.286a.982.982 0 0 1-.302.045c-.165 0-.375-.01-.519.032a.793.793 0 0 0-.307.195.858.858 0 0 0-.262.392c-.053.157-.056.357-.056.6v2.336c0 .097-.035.179-.065.25-.03.071-.1.134-.146.183a.454.454 0 0 1-.162.109.502.502 0 0 1-.186.036c-.062 0-.213-.012-.272-.036a.482.482 0 0 1-.27-.287.703.703 0 0 1-.043-.255V6.343c0-.093.015-.177.045-.25a.53.53 0 0 1 .115-.18.502.502 0 0 1 .347-.143.472.472 0 0 1 .329.133.356.356 0 0 1 .08.123c.014.04.032.162.033.224.026-.114.083-.142.126-.198.338-.243.985-.3.985-.3.291-.012.39.005.39.005.042.008.123.023.216.08a.957.957 0 0 1 .19.2.673.673 0 0 1 .072.224c0 .095-.01.216-.048.263m-6.033 4.48a2.643 2.643 0 0 1-2.643-2.64 2.644 2.644 0 0 1 5.286 0 2.642 2.642 0 0 1-2.643 2.64m-5.748-.041c-.457 0-.905-.122-1.297-.354l-.255-.151v2.054a.528.528 0 0 1-.52.522.53.53 0 0 1-.524-.522V8.37l-.002-.244.015-1.25c0-.124.02-.437.06-.534a.702.702 0 0 1 .152-.24.668.668 0 0 1 .462-.19c.08 0 .076.001.155.02.171.04.226.273.234.328.027-.02.052-.04.082-.058a.034.034 0 0 1 .012-.006c.004-.005.01-.005.016-.009l.113-.066a3.062 3.062 0 0 1 .326-.157 1.93 1.93 0 0 1 .129-.045 2.658 2.658 0 0 1 .843-.141 2.595 2.595 0 0 1 2.592 2.592 2.595 2.595 0 0 1-2.593 2.593m-3.593-.908c-.12.212-.284.388-.493.528-.209.14-.452.245-.731.316a3.68 3.68 0 0 1-.897.105c-.287 0-.56-.024-.82-.072a3.31 3.31 0 0 1-.68-.195 1.524 1.524 0 0 1-.464-.287c-.115-.11-.172-.226-.172-.35 0-.095.037-.176.113-.24a.423.423 0 0 1 .287-.098.84.84 0 0 1 .278.067c.116.044.253.097.41.159.158.061.333.114.525.159.191.044.398.067.62.067.138 0 .271-.015.402-.044a1.09 1.09 0 0 0 .346-.139.767.767 0 0 0 .244-.24.638.638 0 0 0 .093-.347.485.485 0 0 0-.162-.347 1.06 1.06 0 0 0-.455-.248c-.23-.065-.454-.122-.675-.17a14.06 14.06 0 0 1-.632-.151 4.684 4.684 0 0 1-.555-.182 1.558 1.558 0 0 1-.436-.26 1.124 1.124 0 0 1-.288-.382 1.281 1.281 0 0 1-.105-.543c0-.209.055-.407.164-.593.11-.187.261-.341.455-.464.193-.124.422-.214.686-.272.263-.059.55-.088.857-.088.322 0 .603.024.842.072.24.048.44.11.599.187.159.077.278.165.357.262a.468.468 0 0 1 .118.295c0 .096-.038.17-.113.223a.474.474 0 0 1-.278.08.542.542 0 0 1-.115-.013.435.435 0 0 1-.116-.044 1.91 1.91 0 0 0-.505-.19 3.232 3.232 0 0 0-.737-.071 2.78 2.78 0 0 0-.45.033c-.135.022-.25.06-.344.11a.572.572 0 0 0-.221.21.473.473 0 0 0-.08.232c0 .106.032.195.093.267a.785.785 0 0 0 .252.187c.106.053.231.098.375.136.143.038.299.075.467.113a10.426 10.426 0 0 1 1.073.302c.325.096.582.247.768.452a1.1 1.1 0 0 1 .28.77c0 .253-.06.485-.18.698m22.847 1.953L98.513.8a.908.908 0 0 0-1.01-.793L87.052 1.259l-16.86 2.078a.908.908 0 0 0-.794 1.01l1.346 11.209a.907.907 0 0 0 1.01.792L84.53 14.79l.35 2.921 2.573-3.277 11.61-1.416a.908.908 0 0 0 .794-1.01M86.352 6.786a1.578 1.578 0 1 0 0 0"/>
    </g>
</svg>
