<?xml version="1.0" encoding="utf-8"?>
<!-- Generator: Adobe Illustrator 19.2.1, SVG Export Plug-In . SVG Version: 6.00 Build 0)  -->
<svg version="1.1" id="Calque_1" xmlns="http://www.w3.org/2000/svg" xmlns:xlink="http://www.w3.org/1999/xlink" x="0px" y="0px"
	 viewBox="0 0 532 567" style="enable-background:new 0 0 532 567;" xml:space="preserve">
<style type="text/css">
	.st0{filter:url(#b);}
	.st1{fill:#E69635;}
</style>
<filter  filterUnits="objectBoundingBox" height="149.9%" id="b" width="149.9%" x="-25%" y="-25%">
	<feOffset  in="SourceAlpha" result="shadowOffsetOuter1"></feOffset>
	<feGaussianBlur  in="shadowOffsetOuter1" result="shadowBlurOuter1" stdDeviation="32"></feGaussianBlur>
	<feColorMatrix  in="shadowBlurOuter1" values="0 0 0 0 0.0012755102 0 0 0 0 0.0012755102 0 0 0 0 0.0012755102 0 0 0 0.4 0">
		</feColorMatrix>
</filter>
<g class="st0">
	<path id="c_2_" d="M368.3,412.7c-63,57.2-172.6,50.9-236.8-11.7c-17.9-17.4-33.5-40-43.5-63.4c-10-23.5-15-48.3-15-74.6
		c0-26.9,5-51.8,15-75c10-23.1,23.8-43.4,41.5-60.9c17.7-17.4,38.2-31.1,61.7-41.1c23.4-10,48.3-15,74.5-15c26.9,0,51.8,5,75,15
		c23.1,10,43.4,23.7,60.8,41.1c17.4,17.5,31.1,37.7,41.1,60.9c10,23.2,15,48.1,15,75v192.7c0,0-32.3-10.5-50.7-30.5
		c-27.6-30-25.2-87.2-25.2-87.2v-75c0-16.1-3-31.1-9-45.1c-6-14-14.4-26.3-24.9-36.9c-10.6-10.6-22.9-18.9-36.9-24.9
		c-14-6-29-9-45.1-9c-16,0-31.2,3-45.5,9c-14.4,6-26.8,14.3-37.4,24.9c-10.6,10.6-18.9,22.9-24.9,36.9c-6,14-9,29.1-9,45.1
		c0,16,3,31.2,9,45.5c6,14.3,14.3,26.8,24.9,37.4c10.6,10.6,23,18.9,37.4,24.9c14.3,6,55.7,18.5,107-13.8L368.3,412.7L368.3,412.7z"
		/>
</g>
<g>
	<path id="c_1_" class="st1" d="M368.3,412.7c-63,57.2-172.6,50.9-236.8-11.7c-17.9-17.4-33.5-40-43.5-63.4
		c-10-23.5-15-48.3-15-74.6c0-26.9,5-51.8,15-75c10-23.1,23.8-43.4,41.5-60.9c17.7-17.4,38.2-31.1,61.7-41.1
		c23.4-10,48.3-15,74.5-15c26.9,0,51.8,5,75,15c23.1,10,43.4,23.7,60.8,41.1c17.4,17.5,31.1,37.7,41.1,60.9c10,23.2,15,48.1,15,75
		v192.7c0,0-32.3-10.5-50.7-30.5c-27.6-30-25.2-87.2-25.2-87.2v-75c0-16.1-3-31.1-9-45.1c-6-14-14.4-26.3-24.9-36.9
		c-10.6-10.6-22.9-18.9-36.9-24.9c-14-6-29-9-45.1-9c-16,0-31.2,3-45.5,9c-14.4,6-26.8,14.3-37.4,24.9
		c-10.6,10.6-18.9,22.9-24.9,36.9c-6,14-9,29.1-9,45.1c0,16,3,31.2,9,45.5c6,14.3,14.3,26.8,24.9,37.4c10.6,10.6,23,18.9,37.4,24.9
		c14.3,6,55.7,18.5,107-13.8L368.3,412.7L368.3,412.7z"/>
</g>
</svg>
