<svg id="ed738b5a-4898-4a60-ad16-d530cd2d688f" data-name="Calque 1" xmlns="http://www.w3.org/2000/svg" xmlns:xlink="http://www.w3.org/1999/xlink" viewBox="0 0 613.62 249.04"><defs><filter id="df7f6fdf-d430-4720-a409-0098786473cb" x="-25.02" y="-31.36" width="109.7" height="128.7" name="a"><feOffset result="shadowOffsetOuter1" dy="2" in="SourceAlpha"/><feGaussianBlur result="shadowBlurOuter1" stdDeviation="10" in="shadowOffsetOuter1"/></filter><filter id="eb98a950-b921-4557-a079-5d5104ce537c" x="-26.62" y="-59.36" width="112.9" height="188.6" name="c"><feOffset result="shadowOffsetOuter1" dy="2" in="SourceAlpha"/><feGaussianBlur result="shadowBlurOuter1" stdDeviation="10" in="shadowOffsetOuter1"/></filter></defs><title>slogan</title><g style="filter:url(#df7f6fdf-d430-4720-a409-0098786473cb)"><g id="2c28df36-144b-45b4-a8a1-e71e0111479c" data-name="b" style="isolation:isolate"><g style="isolation:isolate"><path d="M133,47.84L110.3,61Q99.86,42.8,81,42.8q-14.22,0-22.77,10.35T49.64,79.7q0,16.38,8.55,27T81,117.32q18.36,0,29-19.8l23.76,12.42q-17.28,32.22-53.28,32.22-26.82,0-43.56-17.19T20.12,79.88q0-27.72,16.74-44.82T80.24,18Q115.52,18,133,47.84Z" transform="translate(-20.12 -17.96)" style="fill:#fff"/><path d="M265.28,80.06q0,26.82-16.74,44.46t-44.82,17.64q-28.08,0-44.64-17.64T142.52,80.06q0-26.64,16.56-44.37T203.72,18q28.08,0,44.82,17.73T265.28,80.06Zm-29.88,0q0-15.48-8.37-25.65T203.72,44.24q-14.94,0-23.22,10.17t-8.28,25.65q0,15.66,8.28,25.74t23.22,10.08q14.94,0,23.31-10.08T235.4,80.06Z" transform="translate(-20.12 -17.96)" style="fill:#fff"/><path d="M392.36,140h-32L352,114.44h-43.2L300.56,140H269.24L313.7,20.12h34.38Zm-47-48.6L330.44,44.06,315.32,91.4h30.06Z" transform="translate(-20.12 -17.96)" style="fill:#fff"/><path d="M509.36,47.84L486.68,61Q476.24,42.8,457.34,42.8q-14.22,0-22.77,10.35T426,79.7q0,16.38,8.55,27t22.77,10.62q18.36,0,29-19.8l23.76,12.42q-17.28,32.22-53.28,32.22-26.82,0-43.56-17.19T396.5,79.88q0-27.72,16.74-44.82T456.62,18Q491.89,18,509.36,47.84Z" transform="translate(-20.12 -17.96)" style="fill:#fff"/><path d="M633.74,140h-29V90H555.62v50h-28.8V20.12h28.8V64.4h49.14V20.12h29V140Z" transform="translate(-20.12 -17.96)" style="fill:#fff"/></g></g></g><g id="da9270da-6853-4a56-aa36-7656dc592eab" data-name="b" style="isolation:isolate"><g style="isolation:isolate"><path d="M133,47.84L110.3,61Q99.86,42.8,81,42.8q-14.22,0-22.77,10.35T49.64,79.7q0,16.38,8.55,27T81,117.32q18.36,0,29-19.8l23.76,12.42q-17.28,32.22-53.28,32.22-26.82,0-43.56-17.19T20.12,79.88q0-27.72,16.74-44.82T80.24,18Q115.52,18,133,47.84Z" transform="translate(-20.12 -17.96)" style="fill:#fff"/><path d="M265.28,80.06q0,26.82-16.74,44.46t-44.82,17.64q-28.08,0-44.64-17.64T142.52,80.06q0-26.64,16.56-44.37T203.72,18q28.08,0,44.82,17.73T265.28,80.06Zm-29.88,0q0-15.48-8.37-25.65T203.72,44.24q-14.94,0-23.22,10.17t-8.28,25.65q0,15.66,8.28,25.74t23.22,10.08q14.94,0,23.31-10.08T235.4,80.06Z" transform="translate(-20.12 -17.96)" style="fill:#fff"/><path d="M392.36,140h-32L352,114.44h-43.2L300.56,140H269.24L313.7,20.12h34.38Zm-47-48.6L330.44,44.06,315.32,91.4h30.06Z" transform="translate(-20.12 -17.96)" style="fill:#fff"/><path d="M509.36,47.84L486.68,61Q476.24,42.8,457.34,42.8q-14.22,0-22.77,10.35T426,79.7q0,16.38,8.55,27t22.77,10.62q18.36,0,29-19.8l23.76,12.42q-17.28,32.22-53.28,32.22-26.82,0-43.56-17.19T396.5,79.88q0-27.72,16.74-44.82T456.62,18Q491.89,18,509.36,47.84Z" transform="translate(-20.12 -17.96)" style="fill:#fff"/><path d="M633.74,140h-29V90H555.62v50h-28.8V20.12h28.8V64.4h49.14V20.12h29V140Z" transform="translate(-20.12 -17.96)" style="fill:#fff"/></g></g><g style="filter:url(#eb98a950-b921-4557-a079-5d5104ce537c)"><g id="2921c06c-003c-4b2a-88fe-ad95f85afc2d" data-name="d" style="isolation:isolate"><g style="isolation:isolate"><path d="M67.94,222.58V226H49.5V185.4h3.6v37.18H67.94Z" transform="translate(-20.12 -17.96)" style="fill:#fff"/><path d="M92.83,185.4h3.6V226h-3.6V185.4Z" transform="translate(-20.12 -17.96)" style="fill:#fff"/><path d="M131.8,206.22l-2.9,3.94V226h-3.6V185.4h3.6v19.37l3.31-4.76,10.38-14.62h4.47l-12.93,17.69L148.68,226h-4.29Z" transform="translate(-20.12 -17.96)" style="fill:#fff"/><path d="M192.64,222.69V226H173.1V185.4H192v3.31H176.69v15H191V207H176.69v15.66h15.95Z" transform="translate(-20.12 -17.96)" style="fill:#fff"/><path d="M267.87,216.49H255L252.62,226h-3.83l10.67-40.6h3.94L274.07,226h-3.83Zm-0.81-3.25-4.18-16.82c-0.64-2.49-1.22-5.39-1.39-6.38h-0.12c-0.17,1-.75,3.89-1.39,6.38l-4.18,16.82h11.25Z" transform="translate(-20.12 -17.96)" style="fill:#fff"/><path d="M353.71,197.87c0,8.35-4.12,12.76-11.6,12.76H336V226h-3.6V185.4h9.74C349.59,185.4,353.71,189.93,353.71,197.87Zm-3.6,0c0-6-2.55-9-8-9H336v18.38h6.15C347.56,207.21,350.11,204.31,350.11,197.87Z" transform="translate(-20.12 -17.96)" style="fill:#fff"/><path d="M387.17,210.17h-4.47V226h-3.6V185.4h9.28c7.48,0,11.6,4.35,11.6,11.89,0,7.08-3.36,11.6-8.93,12.64L401,226h-4.18Zm-4.47-3.36h5.63c5.28,0,8-3.31,8-9.28,0-5.8-2.73-8.76-7.95-8.76h-5.68v18Z" transform="translate(-20.12 -17.96)" style="fill:#fff"/><path d="M426,213.41V198c0-8.18,4.35-13.34,11.66-13.34s11.66,5.16,11.66,13.34v15.43c0,8.18-4.35,13.34-11.66,13.34S426,221.59,426,213.41Zm19.66,0V198c0-6.26-2.73-9.86-8-9.86s-8,3.6-8,9.86v15.43c0,6.26,2.73,9.86,8,9.86S445.64,219.68,445.64,213.41Z" transform="translate(-20.12 -17.96)" style="fill:#fff"/></g></g></g><g id="bd1c170e-a92e-47eb-bbf5-579d5ad400c6" data-name="d" style="isolation:isolate"><g style="isolation:isolate"><path d="M67.94,222.58V226H49.5V185.4h3.6v37.18H67.94Z" transform="translate(-20.12 -17.96)" style="fill:#fff"/><path d="M92.83,185.4h3.6V226h-3.6V185.4Z" transform="translate(-20.12 -17.96)" style="fill:#fff"/><path d="M131.8,206.22l-2.9,3.94V226h-3.6V185.4h3.6v19.37l3.31-4.76,10.38-14.62h4.47l-12.93,17.69L148.68,226h-4.29Z" transform="translate(-20.12 -17.96)" style="fill:#fff"/><path d="M192.64,222.69V226H173.1V185.4H192v3.31H176.69v15H191V207H176.69v15.66h15.95Z" transform="translate(-20.12 -17.96)" style="fill:#fff"/><path d="M267.87,216.49H255L252.62,226h-3.83l10.67-40.6h3.94L274.07,226h-3.83Zm-0.81-3.25-4.18-16.82c-0.64-2.49-1.22-5.39-1.39-6.38h-0.12c-0.17,1-.75,3.89-1.39,6.38l-4.18,16.82h11.25Z" transform="translate(-20.12 -17.96)" style="fill:#fff"/><path d="M353.71,197.87c0,8.35-4.12,12.76-11.6,12.76H336V226h-3.6V185.4h9.74C349.59,185.4,353.71,189.93,353.71,197.87Zm-3.6,0c0-6-2.55-9-8-9H336v18.38h6.15C347.56,207.21,350.11,204.31,350.11,197.87Z" transform="translate(-20.12 -17.96)" style="fill:#fff"/><path d="M387.17,210.17h-4.47V226h-3.6V185.4h9.28c7.48,0,11.6,4.35,11.6,11.89,0,7.08-3.36,11.6-8.93,12.64L401,226h-4.18Zm-4.47-3.36h5.63c5.28,0,8-3.31,8-9.28,0-5.8-2.73-8.76-7.95-8.76h-5.68v18Z" transform="translate(-20.12 -17.96)" style="fill:#fff"/><path d="M426,213.41V198c0-8.18,4.35-13.34,11.66-13.34s11.66,5.16,11.66,13.34v15.43c0,8.18-4.35,13.34-11.66,13.34S426,221.59,426,213.41Zm19.66,0V198c0-6.26-2.73-9.86-8-9.86s-8,3.6-8,9.86v15.43c0,6.26,2.73,9.86,8,9.86S445.64,219.68,445.64,213.41Z" transform="translate(-20.12 -17.96)" style="fill:#fff"/></g></g><path d="M40,262h70v5H40v-5Z" transform="translate(-20.12 -17.96)" style="fill:#f07f00"/></svg>