<svg xmlns="http://www.w3.org/2000/svg" width="347.898" height="91.86" viewBox="0 0 347.898 91.86"><path d="M91.548 24.51c0-5.026-.078-10.055-.23-15.083-5.278 0-12.087.294-16.37.805.228-.73.383-1.533.383-2.334 0-.727-.154-1.455-.383-2.258 6.58.22 13.16.365 19.737.365 6.58 0 13.16-.146 19.736-.365-.23.803-.38 1.53-.38 2.332 0 .728.15 1.53.38 2.26-4.282-.51-11.09-.805-16.368-.805a489.59 489.59 0 0 0-.232 15.083v12.53c0 6.265.305 12.605.61 18.87-1.3-.218-2.52-.364-3.747-.364-1.223 0-2.447.146-3.75.364.308-6.266.614-12.605.614-18.87V24.51zM122.76 32.67c0-3.425-.076-7.504-.153-11.583 1.07.218 2.218.363 3.213.363.995 0 2.064-.145 3.138-.363-.46 5.682-.765 13.113-.765 20.254 0 5.027 1.07 7.432 2.37 8.816 1.452 1.53 3.597 2.696 6.58 2.696 4.283 0 7.19-2.04 8.493-4.663 1.527-3.135 1.604-3.718 1.604-15.157 0-3.935 0-8.452-.153-11.947 1.07.218 2.064.363 3.213.363 1.147 0 2.143-.146 3.136-.364-.458 7.577-.535 14.426-.535 22.148 0 4.297.078 8.596.308 12.677-.993-.22-1.987-.365-2.984-.365-.993 0-1.987.146-2.982.366.153-2.114.153-4.226.153-6.265h-.153c-2.6 4.515-7.115 6.993-11.935 6.993-7.955 0-12.775-4.373-12.775-11.95-.002-5.098.228-8.448.228-12.017M183.348 27.06c-.535-.582-2.218-1.166-3.75-1.166-4.894 0-7.803 4.445-7.803 10.127 0 12.678 0 16.54.307 19.893-.993-.22-2.064-.366-3.058-.366-1.073 0-2.068.146-3.214.366.304-3.572.304-9.255.304-17.414v-2.333c0-3.787 0-8.816-.304-15.08 1.146.218 2.14.363 3.214.363.993 0 2.064-.145 3.058-.365-.38 3.498-.38 5.246-.38 7.07l.15.073c2.907-5.248 6.58-7.87 10.1-7.87.916 0 1.454.074 2.447.438-.536 1.165-.536 3.933-.536 5.9l-.536.365zM206.45 20.36c10.712 0 15.836 6.773 15.836 14.86 0 .946-.076 1.894-.15 2.84-5.51-.07-10.942-.217-16.373-.217-3.368 0-6.655.146-10.022.218-.074.73-.074 1.386-.074 2.042 0 7.577 4.742 13.48 13.234 13.48 4.054 0 8.798-2.26 11.474-5.175l.382.22-.458 3.572c-3.06 2.33-8.03 4.442-12.776 4.442-11.014 0-18.59-7.43-18.59-17.12 0-11.806 6.273-19.163 17.52-19.163m-10.558 14.933c3.136.072 6.73.22 9.944.22 3.366 0 6.962-.148 10.175-.22 0-5.172-1.453-12.605-9.408-12.605-7.498 0-10.33 7.358-10.71 12.605M247.685 24.146c-7.115 0-10.328 4.37-10.328 11.948v6.194c0 4.37.15 9.47.61 13.625-1.145-.22-2.293-.366-3.44-.366-1.147 0-2.296.146-3.443.366.46-4.153.613-9.255.613-13.625V34.71c0-4.372-.153-9.472-.613-13.623 1.148.218 2.296.362 3.444.362.763 0 1.91-.145 3.06-.363a74.18 74.18 0 0 0-.23 5.828h.15c2.832-4.153 6.734-6.556 12.242-6.556 5.662 0 12.24 2.622 12.24 12.674 0 4.153-.305 8.524-.305 13.477 0 3.21 0 6.27.15 9.402-1.145-.22-2.142-.366-3.213-.366-1.068 0-2.065.146-3.134.366.152-5.32.534-10.64.534-16.247V35.22c0-7.138-3.29-11.074-8.337-11.074M290.983 24.146c-7.113 0-10.327 4.37-10.327 11.948v6.194c0 4.37.15 9.47.61 13.625-1.147-.22-2.292-.366-3.44-.366-1.147 0-2.296.146-3.444.366.46-4.153.613-9.255.613-13.625V34.71c0-4.372-.153-9.472-.613-13.623 1.148.218 2.297.362 3.444.362.764 0 1.91-.145 3.06-.363a74.18 74.18 0 0 0-.23 5.828h.152c2.83-4.153 6.732-6.556 12.24-6.556 5.66 0 12.24 2.622 12.24 12.674 0 4.153-.304 8.524-.304 13.477 0 3.21 0 6.27.15 9.402-1.146-.22-2.143-.366-3.212-.366-1.07 0-2.065.146-3.136.366.153-5.32.535-10.64.535-16.247V35.22c.002-7.138-3.29-11.074-8.337-11.074M332.064 20.36c10.71 0 15.835 6.773 15.835 14.86 0 .946-.075 1.894-.152 2.84-5.507-.07-10.94-.217-16.37-.217-3.37 0-6.657.146-10.023.218-.075.73-.075 1.386-.075 2.042 0 7.577 4.742 13.48 13.234 13.48 4.054 0 8.796-2.26 11.474-5.175l.382.22-.46 3.572c-3.06 2.33-8.03 4.442-12.774 4.442-11.016 0-18.59-7.43-18.59-17.12-.002-11.806 6.273-19.163 17.518-19.163m-10.558 14.933c3.136.072 6.733.22 9.946.22 3.364 0 6.96-.148 10.175-.22 0-5.172-1.455-12.605-9.41-12.605-7.497 0-10.328 7.358-10.71 12.605"/><path fill="#A8AAAD" stroke="#A8AAAD" stroke-miterlimit="10" d="M252.77 81.287c-.975.65-4.212 1.85-8.114 1.85-8.23 0-14.237-4.254-14.237-11.63 0-7.375 6.008-11.63 14.628-11.63 3.354 0 6.358.682 8.465 1.495-.39.583-.663 1.852-.82 2.534l-.234.064c-1.094-1.008-3.744-2.892-7.41-2.892-6.126 0-10.808 3.217-10.808 10.43s4.682 10.43 10.807 10.43c3.703 0 6.435-1.754 7.917-2.698l.157.13-.354 1.917zM258.545 68.747c2.34-1.462 4.212-1.885 6.28-1.885 3.743 0 6.32 1.917 6.32 4.81 0 2.435-.158 4.84-.158 7.568 0 1.073 0 2.406 1.52 2.406.234 0 .548 0 .82-.13v.714c-.546.196-1.48.456-2.496.456-1.676 0-2.534-.912-2.69-2.017-1.873 1.56-3.473 2.372-6.124 2.372-2.615 0-5.19-1.527-5.19-3.996 0-2.598 2.108-3.996 5.5-4.452 5.66-.746 5.853-1.006 5.853-2.275 0-2.176-1.172-4.093-4.29-4.093-2.07 0-4.02.812-4.916 2.21h-.43v-1.69zm9.634 5.78c-2.69.75-8.153.522-8.153 4.064 0 2.047 1.678 3.086 3.393 3.086 1.99 0 3.706-1.073 4.604-2.275l.155-4.872zM277.62 76.64c0-2.99-.08-7.18-.313-9.454.586.098 1.17.163 1.756.163.584 0 1.17-.065 1.755-.164-.194 1.138-.312 2.144-.312 3.184h.078c.78-1.364 2.653-3.506 6.594-3.506 3.978 0 7.957 2.402 7.957 7.99 0 5.523-4.33 8.188-8.426 8.188-2.888 0-4.915-1.136-6.126-3.183h-.078v2.047c0 2.988.078 7.18.312 9.355a10.85 10.85 0 0 0-1.755-.162c-.587 0-1.17.066-1.756.162.234-2.175.314-6.367.314-9.355V76.64zm8.698-8.414c-4.214 0-5.813 3.12-5.813 6.854 0 4.45 1.99 6.76 5.695 6.76 3.745 0 5.5-3.087 5.5-7.018 0-5.198-2.848-6.596-5.382-6.596M302.586 59.875c1.09 0 1.988.748 1.988 1.656 0 .913-.9 1.66-1.988 1.66-1.092 0-1.99-.747-1.99-1.66 0-.907.898-1.655 1.99-1.655m-1.444 13.387c0-1.95-.08-4.225-.312-6.076.586.098 1.17.163 1.757.163.585 0 1.17-.065 1.754-.164-.232 1.85-.31 4.126-.31 6.076v3.38c0 1.95.08 4.222.31 6.074a10.617 10.617 0 0 0-1.753-.162c-.586 0-1.17.064-1.757.162.232-1.852.312-4.125.312-6.075v-3.378zM314.718 62.832h.194c-.155 1.625-.234 3.217-.312 4.81.547 0 2.34-.033 4.137-.1-.04.23-.04.457-.04.685 0 .227 0 .456.04.68-1.366-.06-3.2-.06-4.137-.06-.077.322-.273 5.424-.273 8.25 0 2.435.08 4.906 3.16 4.906a8.87 8.87 0 0 0 1.756-.227v.78c-.897.26-2.03.486-3.005.486-3.236 0-4.797-1.53-4.797-4.062 0-2.37.235-5.294.273-10.134-.78 0-1.637 0-2.65.062.037-.258.078-.487.078-.746 0-.227-.04-.423-.077-.65 1.17.064 2.026.098 2.572.098-.037-.846-.077-2.242-.155-3.64l3.238-1.138zM322.987 68.747c2.34-1.462 4.214-1.885 6.28-1.885 3.745 0 6.32 1.917 6.32 4.81 0 2.435-.158 4.84-.158 7.568 0 1.073 0 2.406 1.52 2.406.234 0 .548 0 .82-.13v.714c-.546.196-1.482.456-2.496.456-1.677 0-2.535-.912-2.692-2.017-1.872 1.56-3.472 2.372-6.123 2.372-2.616 0-5.19-1.527-5.19-3.996 0-2.598 2.107-3.996 5.5-4.452 5.656-.746 5.85-1.006 5.85-2.275 0-2.176-1.168-4.093-4.29-4.093-2.067 0-4.017.812-4.913 2.21h-.43v-1.69zm9.634 5.78c-2.69.75-8.152.522-8.152 4.064 0 2.047 1.68 3.086 3.395 3.086 1.99 0 3.706-1.073 4.603-2.275l.155-4.872zM343.505 67.478c0-2.99-.08-7.18-.312-9.355.585.096 1.17.163 1.754.163.588 0 1.17-.067 1.758-.163-.234 2.175-.314 6.365-.314 9.355v5.88c0 2.99.08 7.18.312 9.358a10.83 10.83 0 0 0-1.756-.162c-.583 0-1.17.066-1.754.162.232-2.177.312-6.367.312-9.357v-5.882z"/><path opacity=".81" fill="#A8AAAD" d="M65.752 8.696l-.14-.08a63.028 63.028 0 0 1-2.577 1.477C32.783 27.423 33.42 40.83 32.902 63.203 52.05 52.396 65.13 32.098 65.752 8.696"/><path fill="#F89521" d="M63.035 10.092c.872-.473 1.82-.866 2.667-1.376-.022-.01.02.01 0 0-.853.486-1.84.855-2.667 1.376"/><path fill="#1AA4DE" d="M63.035 10.092c.827-.52 1.813-.89 2.667-1.376C56.23 3.26 45.094 0 33.375 0 21.18 0 9.773 3.383.043 9.263c9.486 5.477 20.494 8.614 32.234 8.614 11.138 0 21.616-2.82 30.758-7.785"/><path fill="#97CE8B" d="M.02 9.275c-.007.004-.014.008-.02.016.826 23.145 13.837 43.188 32.817 53.904-.82-23.148-.034-35.772-32.798-53.92"/></svg>